<?xml version="1.0" encoding="utf-8"?>
<!-- Generator: Adobe Illustrator 23.0.3, SVG Export Plug-In . SVG Version: 6.00 Build 0)  -->
<svg version="1.1" id="witch" xmlns="http://www.w3.org/2000/svg" xmlns:xlink="http://www.w3.org/1999/xlink" x="0px" y="0px"
	 viewBox="0 0 100 50" style="enable-background:new 0 0 100 50;" xml:space="preserve">
<style type="text/css">
	.st0{fill:url(#SVGID_1_);}
	.st1{opacity:0.5;fill:#313131;enable-background:new    ;}
	.st2{fill:#D0BFBE;}
	.st3{opacity:0.6;fill:#313131;enable-background:new    ;}
	.st4{opacity:0.33;fill:#313131;enable-background:new    ;}
	.st5{opacity:0.54;fill:#313131;enable-background:new    ;}
	.st6{fill:#F1E4DC;}
	.st7{fill:url(#SVGID_2_);}
	.st8{opacity:0.2;}
	.st9{fill:#3A275E;}
	.st10{opacity:0.45;fill:#313131;enable-background:new    ;}
	.st11{opacity:0.23;fill:#313131;enable-background:new    ;}
	.st12{opacity:0.23;enable-background:new    ;}
	.st13{clip-path:url(#SVGID_7_);}
	.st14{clip-path:url(#SVGID_8_);fill:url(#SVGID_9_);}
	.st15{fill:url(#SVGID_10_);}
	.st16{fill:#42151F;}
	.st17{fill:url(#SVGID_11_);}
	.st18{fill:url(#SVGID_12_);}
	.st19{fill:url(#SVGID_13_);}
	.st20{fill:url(#SVGID_14_);}
	.st21{fill:url(#SVGID_15_);}
	.st22{fill:url(#SVGID_16_);}
	.st23{opacity:0.3;fill:#FFFFFF;enable-background:new    ;}
	.st24{fill:url(#SVGID_17_);}
	.st25{fill:url(#SVGID_18_);}
	.st26{fill:url(#SVGID_19_);}
	.st27{fill:url(#SVGID_20_);}
	.st28{opacity:0.65;fill:#313131;enable-background:new    ;}
	.st29{fill:url(#SVGID_21_);}
	.st30{fill:url(#SVGID_22_);}
	.st31{fill:url(#SVGID_23_);}
	.st32{fill:#155168;}
	.st33{fill:#8A011B;}
	.st34{fill:#8CA4AF;}
	.st35{fill:#5F8090;}
	.st36{fill:#FFBB15;}
	.st37{fill:#CD4331;}
	.st38{fill:#75113B;}
	.st39{fill:#6E424F;}
	.st40{fill:#A6BC00;}
	.st41{fill:#FFD6CC;}
	.st42{opacity:0.26;fill:#313131;enable-background:new    ;}
	.st43{opacity:0.28;fill:#313131;enable-background:new    ;}
	.st44{fill:url(#SVGID_24_);}
	.st45{fill:url(#SVGID_25_);}
	.st46{clip-path:url(#SVGID_30_);}
	.st47{clip-path:url(#SVGID_31_);fill:url(#SVGID_32_);}
	.st48{opacity:0.5;fill:url(#SVGID_33_);enable-background:new    ;}
	.st49{fill:url(#SVGID_34_);}
	.st50{fill:url(#SVGID_35_);}
	.st51{clip-path:url(#SVGID_40_);}
	.st52{clip-path:url(#SVGID_41_);fill:url(#SVGID_42_);}
	.st53{opacity:0.5;fill:url(#SVGID_43_);enable-background:new    ;}
	.st54{fill:url(#SVGID_44_);}
	.st55{opacity:0.8;fill:#FFFFFF;enable-background:new    ;}
	.st56{opacity:0.5;fill:url(#SVGID_45_);enable-background:new    ;}
	.st57{fill:url(#SVGID_46_);}
	.st58{fill:url(#SVGID_47_);}
	.st59{clip-path:url(#SVGID_52_);}
	.st60{clip-path:url(#SVGID_53_);fill:url(#SVGID_54_);}
	.st61{opacity:0.5;fill:url(#SVGID_55_);enable-background:new    ;}
	.st62{fill:url(#SVGID_56_);}
	.st63{fill:url(#SVGID_57_);}
	.st64{fill:#571123;}
	.st65{opacity:0.62;fill:url(#SVGID_58_);enable-background:new    ;}
	.st66{opacity:0.55;fill:#FFF6D6;enable-background:new    ;}
	.st67{opacity:0.53;fill:#7A1D23;enable-background:new    ;}
	.st68{opacity:0.62;fill:url(#SVGID_59_);enable-background:new    ;}
	.st69{opacity:0.62;fill:url(#SVGID_60_);enable-background:new    ;}
	.st70{fill:#FFF6D6;}
	.st71{opacity:0.2;fill:#FFF6D6;enable-background:new    ;}
	.st72{fill:url(#SVGID_61_);}
	.st73{fill:#004245;}
	.st74{fill:url(#SVGID_62_);}
	.st75{opacity:0.25;fill:#313131;enable-background:new    ;}
	.st76{fill:#FFFFFF;}
	.st77{fill:url(#SVGID_63_);}
	.st78{fill:#5FA9B1;}
	.st79{fill:#D6CACA;}
	.st80{fill:#FFF493;}
	.st81{opacity:0.39;fill:url(#SVGID_64_);enable-background:new    ;}
	.st82{opacity:0.41;fill:#313131;enable-background:new    ;}
	.st83{fill:#42153B;}
	.st84{fill:url(#SVGID_65_);}
	.st85{fill:url(#SVGID_66_);}
	.st86{opacity:0.53;fill:#313131;enable-background:new    ;}
	.st87{opacity:0.1;fill:#F1E4DC;enable-background:new    ;}
	.st88{fill:#6A2C2E;}
	.st89{fill:url(#SVGID_67_);}
	.st90{clip-path:url(#SVGID_72_);}
	.st91{clip-path:url(#SVGID_73_);fill:url(#SVGID_74_);}
	.st92{fill:url(#SVGID_75_);}
	.st93{fill:url(#SVGID_76_);}
	.st94{fill:url(#SVGID_77_);}
	.st95{fill:url(#SVGID_78_);}
	.st96{clip-path:url(#SVGID_83_);}
	.st97{clip-path:url(#SVGID_84_);fill:url(#SVGID_85_);}
	.st98{fill:url(#SVGID_86_);}
	.st99{fill:url(#SVGID_87_);}
	.st100{fill:url(#SVGID_88_);}
	.st101{fill:url(#SVGID_89_);}
	.st102{fill:#2E1522;}
	.st103{fill:#331A26;}
	.st104{fill:#CC5A70;}
	.st105{fill:#3C2430;}
	.st106{fill:#FFC423;}
	.st107{fill:#4C3837;}
	.st108{opacity:0.15;fill:#313131;enable-background:new    ;}
	.st109{fill:url(#SVGID_90_);}
	.st110{fill:url(#SVGID_91_);}
	.st111{fill:url(#SVGID_92_);}
	.st112{fill:url(#SVGID_93_);}
	.st113{fill:url(#SVGID_94_);}
	.st114{fill:url(#SVGID_95_);}
	.st115{fill:url(#SVGID_96_);}
	.st116{clip-path:url(#SVGID_101_);}
	.st117{clip-path:url(#SVGID_102_);fill:url(#SVGID_103_);}
	.st118{fill:url(#SVGID_104_);}
	.st119{clip-path:url(#SVGID_109_);}
	.st120{clip-path:url(#SVGID_110_);fill:url(#SVGID_111_);}
	.st121{fill:url(#SVGID_112_);}
	.st122{opacity:0.39;fill:url(#SVGID_113_);enable-background:new    ;}
	.st123{opacity:0.39;}
	.st124{fill:#C6004C;}
	.st125{fill:none;}
</style>
<g>
	
		<linearGradient id="SVGID_1_" gradientUnits="userSpaceOnUse" x1="0" y1="-41.81" x2="100" y2="-41.81" gradientTransform="matrix(1 0 0 -1 0 4)">
		<stop  offset="0" style="stop-color:#C1919C"/>
		<stop  offset="1" style="stop-color:#84778D"/>
	</linearGradient>
	<rect y="41.62" class="st0" width="100" height="8.38"/>
	<path class="st1" d="M69.91,42.74h0.15l28.67,0.05l0,0l1.27,0.58v-0.21l-0.86-0.37H100v-0.22h-1.37h-0.39H69.85l-1.17-0.95h-0.1
		l1.12,0.95H48.67h-0.2H24.2h-0.22H0v0.04l23.77,0.04l0,0h0.22l24.39,0.04l-1.25,1.69l-28.04,0.14h-0.28L0,44.62v0.08l18.54-0.08
		l-5.58,2.11H0v0.14l12.53,0.02h0.36l32.36,0.05L42.96,50h0.41l2.24-3.05l29.34,0.04h0.34l24.92,0.04v-0.29H74.98l-2.87-2.33
		l28.1-0.12v-0.16l-28.27,0.14h-0.22L47.4,44.39l1.18-1.69L69.91,42.74z M71.89,44.41l2.76,2.33h-28.9H45.4H13.32l5.51-2.11
		l28.21-0.12h0.27L71.89,44.41z"/>
	<polygon class="st2" points="43.37,50 45.61,46.95 100.21,47.03 45.78,47.03 43.78,50 	"/>
	<polygon class="st2" points="13.32,46.74 18.83,44.63 71.89,44.41 18.9,44.71 13.64,46.74 	"/>
	<polygon class="st2" points="74.98,46.74 72.11,44.41 100.21,44.29 72.51,44.45 75.23,46.74 	"/>
	<polygon class="st2" points="47.4,44.39 48.58,42.7 98.72,42.79 48.72,42.76 47.65,44.39 	"/>
	<polygon class="st3" points="42.96,50 45.25,46.95 0,46.89 0,50 	"/>
	<polygon class="st3" points="100.21,46.74 74.98,46.74 72.11,44.41 100.21,44.29 	"/>
	<polygon class="st3" points="0,44.62 47.13,44.39 48.38,42.7 0,42.61 	"/>
	<polygon class="st4" points="74.65,46.74 71.89,44.41 47.65,44.51 71.5,44.62 73.01,45.96 58.07,46.08 73.21,46.19 73.6,46.53 
		63.85,46.74 	"/>
	<polygon class="st4" points="100.21,50 100.21,47.03 45.61,46.95 97.16,47.31 98.41,48.44 76.41,48.48 100.21,48.9 100.21,49.81 
		45.61,50 	"/>
	<polygon class="st4" points="98.72,42.79 82.25,42.75 98.72,42.92 100.22,44.03 84.36,44.21 100.21,44.14 100.25,43.48 	"/>
</g>
<polygon class="st5" points="92.38,41.62 90.35,49.42 15.38,48.48 16.81,40.63 0.01,41.06 0,50 100,50 100,41.62 "/>
<polygon class="st6" points="100,40.46 100,41.62 18.75,41.62 18.75,41.08 28.29,41.01 34.76,40.96 "/>
<g>
	
		<linearGradient id="SVGID_2_" gradientUnits="userSpaceOnUse" x1="50.005" y1="-37.06" x2="50.005" y2="4.02" gradientTransform="matrix(1 0 0 -1 0 4)">
		<stop  offset="0" style="stop-color:#636D8B"/>
		<stop  offset="1" style="stop-color:#745072"/>
	</linearGradient>
	<polygon class="st7" points="100,40.44 0.01,41.06 0.01,-0.02 100,-0.02 	"/>
	<polygon class="st5" points="0.01,41.06 8.61,40.97 13.08,2.88 86.16,4.84 92,40.49 100,40.44 100,-0.02 0.01,-0.02 	"/>
	<g class="st8">
		<g>
			
				<rect x="49.94" y="-40.96" transform="matrix(0.0262 -0.9997 0.9997 0.0262 39.6362 58.8076)" class="st9" width="0.13" height="100.03"/>
		</g>
		<g>
			<rect x="0.01" y="12.31" class="st9" width="99.99" height="0.12"/>
		</g>
		<g>
			
				<rect x="50.05" y="-27.61" transform="matrix(0.02 -0.9998 0.9998 0.02 26.6194 72.1622)" class="st9" width="0.13" height="100.23"/>
		</g>
		<g>
			
				<rect x="-0.02" y="32.75" transform="matrix(0.9997 -0.0256 0.0256 0.9997 -0.8236 1.294)" class="st9" width="100.29" height="0.13"/>
		</g>
	</g>
	<polygon class="st10" points="1.94,12.83 1.94,14.56 13.08,14.44 13.08,13.06 	"/>
	<polygon class="st11" points="9.27,15.17 9.27,16.65 20.42,16.52 20.42,15.15 	"/>
	<polygon class="st11" points="13.84,12.97 13.84,14.45 24.99,14.78 24.99,12.95 	"/>
	<polygon class="st11" points="21.15,9.08 21.15,10.56 32.3,10.9 32.3,9.06 	"/>
	<polygon class="st11" points="32.81,9.08 32.81,10.9 43.95,10.9 43.95,9.31 	"/>
	<polygon class="st10" points="73.84,16.08 73.84,17.89 84.98,17.89 84.98,16.31 	"/>
	<polygon class="st12" points="78.43,18.41 78.43,20.23 89.57,20.23 89.75,19 	"/>
	<polygon class="st12" points="72.77,35.92 72.77,37 84.23,37.32 84.09,35.78 	"/>
	<polygon class="st12" points="34.97,24.77 34.97,26.58 46.11,26.58 46.29,25.36 	"/>
	<polygon class="st10" points="79.58,33.95 79.58,35.19 90.73,35.19 90.73,34.11 	"/>
	<polygon class="st11" points="41.72,27.24 41.72,28.58 52.86,28.47 52.86,27.47 	"/>
	<polygon class="st12" points="26.72,6.25 27.13,8 37.66,8 37.87,6.48 	"/>
	<polygon class="st11" points="77.48,6.25 77.48,7.59 88.62,7.48 88.62,6.48 	"/>
	<polygon class="st11" points="6.02,36.1 6.02,37.44 17.17,37.32 17.17,36.33 	"/>
	<polygon class="st11" points="1.12,-0.02 1.12,8.69 17.94,9.06 2.63,9.31 2.94,18.64 24.99,19.43 15.5,19.43 15.75,24.77 26.72,25 
		7.51,25.68 7.83,27.91 19.42,28.58 4.5,29.12 4.75,38 28.54,39.1 13.08,39.1 13.08,40.98 0.01,41.06 0.01,-0.02 	"/>
	<polygon class="st11" points="95.54,-0.02 95.54,2.88 76.7,2.88 94.96,4.38 95.54,8.74 83.75,8.74 92.67,9.42 93.04,11.54 
		78.43,12.38 91.01,13.29 91.84,21.14 69.08,21.5 94.12,22.53 94.9,29.99 77.48,30.67 88.94,31.16 90.73,40.22 65.55,40.65 
		100,40.44 100,-0.02 	"/>
</g>
<g>
	<g>
		<g>
			<g>
				<defs>
					<polygon id="SVGID_3_" points="1,1 2,1 1,2 					"/>
				</defs>
				<clipPath id="SVGID_4_">
					<use xlink:href="#SVGID_3_"  style="overflow:visible;"/>
				</clipPath>
			</g>
			<g>
				<defs>
					<polygon id="SVGID_5_" points="1,1 2,1 1,2 					"/>
				</defs>
				<defs>
					<polygon id="SVGID_6_" points="-1,-1 -2,-1 -1,-2 					"/>
				</defs>
				<clipPath id="SVGID_7_">
					<use xlink:href="#SVGID_5_"  style="overflow:visible;"/>
				</clipPath>
				<clipPath id="SVGID_8_" class="st13">
					<use xlink:href="#SVGID_6_"  style="overflow:visible;"/>
				</clipPath>
				
					<linearGradient id="SVGID_9_" gradientUnits="userSpaceOnUse" x1="15.72" y1="-38.19" x2="15.72" y2="-2.14" gradientTransform="matrix(1 0 0 -1 0 4)">
					<stop  offset="0" style="stop-color:#FFFFFF"/>
					<stop  offset="1" style="stop-color:#000000"/>
				</linearGradient>
				<polygon class="st14" points="9.22,6.14 22.22,6.25 21.46,42.19 21.94,6.5 				"/>
			</g>
		</g>
	</g>
</g>
<g>
	<polygon class="st5" points="2,13 -0.75,14.1 -2.66,46.04 4.4,48.05 14.3,48.08 13.16,45.46 	"/>
	<g>
		
			<linearGradient id="SVGID_10_" gradientUnits="userSpaceOnUse" x1="3.765" y1="-43.5" x2="3.765" y2="-42.61" gradientTransform="matrix(1 0 0 -1 0 4)">
			<stop  offset="0" style="stop-color:#822717"/>
			<stop  offset="0.9946" style="stop-color:#700C26"/>
		</linearGradient>
		<polygon class="st15" points="4.36,46.61 3.87,47.5 3.42,47.5 3.17,46.61 		"/>
		<polygon class="st16" points="3.42,47.5 3.17,47.47 2.65,46.61 3.17,46.61 		"/>
		
			<linearGradient id="SVGID_11_" gradientUnits="userSpaceOnUse" x1="12.435" y1="-43.5" x2="12.435" y2="-42.61" gradientTransform="matrix(1 0 0 -1 0 4)">
			<stop  offset="0" style="stop-color:#822717"/>
			<stop  offset="0.9946" style="stop-color:#700C26"/>
		</linearGradient>
		<polygon class="st17" points="13.03,46.61 12.54,47.5 12.09,47.5 11.84,46.61 		"/>
		<polygon class="st16" points="12.09,47.5 11.84,47.47 11.32,46.61 11.84,46.61 		"/>
		
			<linearGradient id="SVGID_12_" gradientUnits="userSpaceOnUse" x1="9.72" y1="-43.19" x2="9.72" y2="-7.14" gradientTransform="matrix(1 0 0 -1 0 4)">
			<stop  offset="0" style="stop-color:#E77231"/>
			<stop  offset="0.9946" style="stop-color:#9C3536"/>
		</linearGradient>
		<polygon class="st18" points="3.79,47.19 3.22,11.14 16.22,11.25 15.46,47.19 		"/>
		<polygon class="st16" points="4.77,46.35 3.79,11.97 15.64,12.37 14.95,46.35 		"/>
		<polygon class="st16" points="3.22,11.14 1.51,11.97 2.64,46.91 3.79,47.19 		"/>
		
			<linearGradient id="SVGID_13_" gradientUnits="userSpaceOnUse" x1="14.6" y1="-42.35" x2="14.6" y2="-8.31" gradientTransform="matrix(1 0 0 -1 0 4)">
			<stop  offset="0" style="stop-color:#822717"/>
			<stop  offset="0.9946" style="stop-color:#700C26"/>
		</linearGradient>
		<polygon class="st19" points="13.79,12.31 13.56,46.35 14.95,46.35 15.64,12.37 		"/>
		
			<linearGradient id="SVGID_14_" gradientUnits="userSpaceOnUse" x1="3.97" y1="-14.55" x2="15.52" y2="-14.55" gradientTransform="matrix(1 0 0 -1 0 4)">
			<stop  offset="0" style="stop-color:#E77231"/>
			<stop  offset="0.9946" style="stop-color:#9C3536"/>
		</linearGradient>
		<polygon class="st20" points="3.97,18.19 15.52,18.29 15.51,18.86 3.99,18.91 		"/>
		
			<linearGradient id="SVGID_15_" gradientUnits="userSpaceOnUse" x1="4.21" y1="-22.92" x2="15.35" y2="-22.92" gradientTransform="matrix(1 0 0 -1 0 4)">
			<stop  offset="0" style="stop-color:#E77231"/>
			<stop  offset="0.9946" style="stop-color:#9C3536"/>
		</linearGradient>
		<polygon class="st21" points="15.35,26.5 4.21,26.48 4.23,27.24 15.34,27.36 		"/>
		
			<linearGradient id="SVGID_16_" gradientUnits="userSpaceOnUse" x1="4.43" y1="-30.715" x2="15.19" y2="-30.715" gradientTransform="matrix(1 0 0 -1 0 4)">
			<stop  offset="0" style="stop-color:#E77231"/>
			<stop  offset="0.9946" style="stop-color:#9C3536"/>
		</linearGradient>
		<polygon class="st22" points="15.19,34.29 4.43,34.47 4.45,35.02 15.18,35.14 		"/>
		<polygon class="st23" points="13.27,18.33 15.23,18.33 15.23,18.86 13.27,18.77 		"/>
		<polygon class="st23" points="13.15,18.33 12.3,18.33 12.4,18.8 13.1,18.8 		"/>
		<polygon class="st23" points="12.19,26.62 14.92,26.62 14.92,27.3 12.27,27.23 		"/>
		<rect x="12.46" y="34.43" class="st23" width="2.4" height="0.55"/>
		
			<linearGradient id="SVGID_17_" gradientUnits="userSpaceOnUse" x1="14.365" y1="-44.0781" x2="14.365" y2="-43.1881" gradientTransform="matrix(1 0 0 -1 0 4)">
			<stop  offset="0" style="stop-color:#822717"/>
			<stop  offset="0.9946" style="stop-color:#700C26"/>
		</linearGradient>
		<polygon class="st24" points="14.96,47.19 14.3,48.08 13.92,48.08 13.77,47.19 		"/>
		<polygon class="st16" points="13.92,48.08 13.67,48.04 13.25,47.19 13.77,47.19 		"/>
		
			<linearGradient id="SVGID_18_" gradientUnits="userSpaceOnUse" x1="5" y1="-44.0781" x2="5" y2="-43.1881" gradientTransform="matrix(1 0 0 -1 0 4)">
			<stop  offset="0" style="stop-color:#822717"/>
			<stop  offset="0.9946" style="stop-color:#700C26"/>
		</linearGradient>
		<polygon class="st25" points="5.6,47.19 5.1,48.08 4.66,48.08 4.4,47.19 		"/>
		<polygon class="st16" points="4.66,48.08 4.4,48.05 3.89,47.19 4.4,47.19 		"/>
		
			<linearGradient id="SVGID_19_" gradientUnits="userSpaceOnUse" x1="9.69" y1="-42.35" x2="9.69" y2="-33.81" gradientTransform="matrix(1 0 0 -1 0 4)">
			<stop  offset="0" style="stop-color:#E77231"/>
			<stop  offset="0.9946" style="stop-color:#9C3536"/>
		</linearGradient>
		<polygon class="st26" points="14.85,37.81 4.53,37.81 4.77,46.35 14.6,46.35 		"/>
		<polygon class="st23" points="10.34,37.92 14.6,37.92 14.36,46.07 13.77,46.08 13.66,42.72 4.86,38.56 4.86,40.62 4.66,37.92 		
			"/>
		
			<linearGradient id="SVGID_20_" gradientUnits="userSpaceOnUse" x1="9.915" y1="-42.35" x2="9.915" y2="-33.81" gradientTransform="matrix(1 0 0 -1 0 4)">
			<stop  offset="0" style="stop-color:#822717"/>
			<stop  offset="0.9946" style="stop-color:#700C26"/>
		</linearGradient>
		<polygon class="st27" points="9.81,37.81 9.86,46.35 9.91,46.35 10.02,37.81 		"/>
		<polygon class="st23" points="5,37.81 9.81,37.81 9.86,46.35 9.69,46.35 9.69,37.97 		"/>
		<path class="st28" d="M9.01,39.14c-0.33,0.45-0.72,0.71-0.89,0.59s-0.03-0.58,0.29-1.03c0.33-0.45,0.72-0.71,0.89-0.59
			S9.34,38.69,9.01,39.14z"/>
		<g>
			<circle class="st16" cx="9.05" cy="38.48" r="0.24"/>
			
				<linearGradient id="SVGID_21_" gradientUnits="userSpaceOnUse" x1="9.29" y1="-34.88" x2="9.29" y2="-34.0834" gradientTransform="matrix(1 0 0 -1 0 4)">
				<stop  offset="0" style="stop-color:#822717"/>
				<stop  offset="0.9946" style="stop-color:#700C26"/>
			</linearGradient>
			<path class="st29" d="M9.69,38.48c0,0.22-0.18,0.4-0.4,0.4c-0.22,0-0.4-0.18-0.4-0.4s0.18-0.4,0.4-0.4
				C9.52,38.08,9.69,38.26,9.69,38.48z"/>
			<circle class="st23" cx="9.38" cy="38.48" r="0.32"/>
		</g>
		<path class="st28" d="M10.34,39.14c-0.33,0.45-0.72,0.71-0.89,0.59c-0.16-0.12-0.03-0.58,0.29-1.03c0.33-0.45,0.72-0.71,0.89-0.59
			C10.79,38.23,10.66,38.69,10.34,39.14z"/>
		<g>
			<circle class="st16" cx="10.37" cy="38.48" r="0.24"/>
			
				<linearGradient id="SVGID_22_" gradientUnits="userSpaceOnUse" x1="10.62" y1="-34.88" x2="10.62" y2="-34.0834" gradientTransform="matrix(1 0 0 -1 0 4)">
				<stop  offset="0" style="stop-color:#822717"/>
				<stop  offset="0.9946" style="stop-color:#700C26"/>
			</linearGradient>
			<path class="st30" d="M11.02,38.48c0,0.22-0.18,0.4-0.4,0.4s-0.4-0.18-0.4-0.4s0.18-0.4,0.4-0.4
				C10.84,38.08,11.02,38.26,11.02,38.48z"/>
			<path class="st23" d="M11.02,38.48c0,0.17-0.14,0.32-0.32,0.32s-0.32-0.14-0.32-0.32c0-0.17,0.14-0.32,0.32-0.32
				S11.02,38.31,11.02,38.48z"/>
		</g>
		<polygon class="st10" points="4.53,37.81 5,45.22 6.73,45.22 6.73,41.91 6.91,45.73 7.47,45.73 7.62,44.09 7.87,46.05 14.36,46.2 
			14.8,39.64 14.6,46.35 4.77,46.35 		"/>
		<polygon class="st28" points="15.64,12.37 13.78,13.63 3.9,15.71 3.79,11.97 		"/>
		<polygon class="st28" points="15.51,18.86 13.74,19.96 4.14,24.08 3.99,18.91 		"/>
		<polygon class="st28" points="15.34,27.36 4.23,27.24 4.37,32.25 13.68,28.5 		"/>
		<polygon class="st28" points="15.18,35.14 4.45,35.02 4.53,37.22 13.63,35.75 		"/>
		<g>
			
				<linearGradient id="SVGID_23_" gradientUnits="userSpaceOnUse" x1="-200.2681" y1="-22.5" x2="-200.2681" y2="-19.2548" gradientTransform="matrix(1 0 0 -1 212.7331 4)">
				<stop  offset="0" style="stop-color:#F4FFBD"/>
				<stop  offset="1" style="stop-color:#ABEFB1"/>
			</linearGradient>
			<polygon class="st31" points="13.46,26.5 14.67,23.25 11.44,23.51 10.26,26.43 			"/>
			<polygon class="st32" points="13.46,26.5 14.05,26.5 15.09,23.63 14.67,23.25 			"/>
			<polygon class="st33" points="9.65,26.28 9.93,26.44 12.27,26.48 11.72,26.28 			"/>
			<g>
				<polygon class="st34" points="13.46,22.87 11.35,23.02 9.65,26.28 11.72,26.28 				"/>
				<g>
					<polygon class="st35" points="12.27,26.48 14,23.16 13.46,22.87 11.72,26.28 					"/>
					<path class="st36" d="M9.99,26.02l0.1-0.19l0.06-0.11l0.46-0.89l0.34-0.65l0.35-0.68l0.05-0.1l0.08-0.15l0.45-0.04l0.68-0.06
						l0.59-0.06l-0.17,0.3L12.7,23.9l-0.08,0.15l-0.03,0.05l-1.12,1.97h-1.5L9.99,26.02z"/>
				</g>
			</g>
			<g>
				<polygon class="st37" points="8.2,26.28 8.52,26.28 10.33,26.28 10.4,26.13 10.43,26.06 10.48,25.97 10.56,25.82 10.61,25.71 
					11.17,24.63 11.17,24.63 11.44,24.09 11.51,23.95 11.75,23.49 11.75,23.48 11.79,23.41 11.86,23.26 11.89,23.21 12.01,22.97 
					12.07,22.86 9.96,23.02 9.91,23.12 9.76,23.41 9.65,23.6 8.53,25.76 				"/>
				<g>
					<polygon class="st38" points="10.88,26.48 12.61,23.16 12.07,22.87 10.32,26.28 					"/>
				</g>
			</g>
			<polygon class="st39" points="8.2,26.28 8.27,26.48 10.01,26.45 10.88,26.48 10.83,26.46 10.8,26.45 10.33,26.28 			"/>
			<polygon class="st40" points="8.5,25.81 8.5,25.81 8.46,25.87 8.59,25.87 9.88,25.84 9.99,25.83 10,25.83 10.09,25.83 
				10.16,25.83 10.49,25.82 10.51,25.82 10.56,25.82 10.57,25.82 10.9,25.97 11.1,26.06 11.1,26.06 11.15,25.97 11.16,25.94 
				10.61,25.71 10.55,25.72 10.54,25.72 10.22,25.72 10.15,25.72 10.06,25.73 9.99,25.73 9.93,25.73 8.65,25.76 8.53,25.76 			"/>
		</g>
		<g>
			<polygon class="st32" points="13.64,24.88 9.9,24.68 7.63,24.77 7.9,25.61 13.64,25.73 13.64,25.62 10.04,25.42 9.95,24.8 
				13.64,25.01 			"/>
			<polygon class="st41" points="10.04,25.42 9.95,24.8 13.5,25.01 13.5,25.62 			"/>
			<polygon class="st42" points="13.48,25.15 10.81,25.01 10.81,25.11 12.02,25.25 10.01,25.18 9.95,24.8 13.5,25.01 			"/>
			<polygon class="st43" points="9.55,24.69 9.69,25.61 9.43,25.61 9.21,24.71 			"/>
			<polygon class="st43" points="8.12,24.75 8.38,25.61 8.21,25.61 7.9,24.76 			"/>
		</g>
		<g>
			<polygon class="st38" points="13.42,25.7 9.44,25.49 7.01,25.59 7.3,26.49 13.42,26.49 13.42,26.29 9.59,26.29 9.49,25.62 
				13.42,25.84 			"/>
			<polygon class="st41" points="9.59,26.29 9.49,25.62 13.28,25.84 13.22,26.29 			"/>
			<polygon class="st42" points="13.26,25.99 10.41,25.84 10.41,25.95 11.69,26.1 9.55,26.02 9.49,25.62 13.28,25.84 			"/>
			<polygon class="st38" points="9.06,25.5 9.21,26.49 8.93,26.49 8.7,25.52 			"/>
			<polygon class="st38" points="7.53,25.57 7.81,26.49 7.63,26.49 7.29,25.58 			"/>
		</g>
		<g>
			<polygon class="st32" points="8.93,17.57 6.21,17.48 4.57,17.57 4.77,18.18 8.94,18.19 8.94,18.12 6.33,18.02 6.25,17.57 
				8.93,17.67 			"/>
			<polygon class="st41" points="6.33,18.02 6.25,17.57 8.84,17.67 8.85,18.12 			"/>
			<polygon class="st42" points="8.83,17.77 6.88,17.7 6.88,17.78 7.76,17.86 6.3,17.84 6.25,17.57 8.84,17.67 			"/>
			<polygon class="st43" points="5.96,17.49 6.07,18.16 5.88,18.16 5.71,17.51 			"/>
			<polygon class="st43" points="4.92,17.55 5.12,18.18 4.99,18.18 4.76,17.56 			"/>
		</g>
		<g>
			<polygon class="st35" points="8.84,16.98 5.93,16.82 4.17,16.9 4.38,17.55 8.84,17.55 8.84,17.4 6.04,17.4 5.97,16.92 
				8.84,17.08 			"/>
			<polygon class="st41" points="6.04,17.4 5.97,16.92 8.73,17.08 8.69,17.4 			"/>
			<polygon class="st42" points="8.72,17.19 6.64,17.08 6.64,17.16 7.58,17.27 6.02,17.21 5.97,16.92 8.73,17.08 			"/>
		</g>
		<polygon class="st28" points="6.68,34.39 7.59,35.05 9.46,35.08 7.98,34.29 		"/>
		
			<linearGradient id="SVGID_24_" gradientUnits="userSpaceOnUse" x1="9.765" y1="-31.6268" x2="9.765" y2="-26.4669" gradientTransform="matrix(1 0 0 -1 0 4)">
			<stop  offset="0" style="stop-color:#348686"/>
			<stop  offset="1" style="stop-color:#3B70A9"/>
		</linearGradient>
		<path class="st44" d="M14.6,34.29l-0.95,0.03c0,0-1.43,1.07-2.66,1.29s-3.18-1.19-3.18-1.19l-2.88,0.04l3.19-0.37
			c0,0,0.77-2.75,0.91-2.89c0.12-0.12,1.9-0.61,2.66-0.71h0.01c0.14-0.02,0.25-0.02,0.3-0.01c0.23,0.05,0.94,1.25,1.06,1.6
			c0.02,0.05,0.02,0.08,0.02,0.09c-0.07,0.07-1.02-0.77-1.12-0.77s-0.94,0.67-0.94,0.75s0.82,1.68,0.9,1.83l0.01,0.01L14.6,34.29z"
			/>
		
			<linearGradient id="SVGID_25_" gradientUnits="userSpaceOnUse" x1="8.135" y1="-29.9835" x2="11.935" y2="-29.9835" gradientTransform="matrix(1 0 0 -1 0 4)">
			<stop  offset="5.405430e-03" style="stop-color:#9C3536"/>
			<stop  offset="1" style="stop-color:#BE7231"/>
		</linearGradient>
		<path class="st45" d="M8.14,34.08l0.14-0.49c0,0,1.09,0.39,1.77,0.38c0.44-0.01,1.72-0.33,1.72-0.33l0.17,0.33
			c0,0-1.12,0.34-1.78,0.4C9.48,34.43,8.14,34.08,8.14,34.08z"/>
		<path class="st10" d="M11.82,34.01c-0.08,0.03-1.57,0.45-2,0.37c-0.45-0.09-1.68-0.29-1.68-0.29s0.77-2.75,0.91-2.89
			c0.12-0.12,1.9-0.61,2.66-0.71h0.01c0,0-2.01,0.68-2.09,0.75c-0.07,0.07-0.23,1.63-0.23,1.81s0.28,1.24,0.61,1.24
			C10.33,34.29,11.73,34.02,11.82,34.01z"/>
		<path class="st10" d="M13.09,32.16c-0.07,0.07-1.02-0.77-1.12-0.77s-0.94,0.67-0.94,0.75s0.82,1.68,0.9,1.83l-1-1.72l-1.12-0.36
			l1.06,0.1l0.94-0.67v-0.69L12,31.26l1.07,0.81C13.1,32.12,13.1,32.15,13.09,32.16z"/>
		<path class="st23" d="M11.99,34.04l1.52,0.21c0,0-0.09,0.04-0.28,0.24c-0.19,0.19-1.76,0.99-2.38,1.04
			c-0.61,0.05-1.48-0.39-1.48-0.39s0.88,0.26,1.31,0.2c0.43-0.05,1.45-0.86,1.45-0.86l-0.54-0.27L11.99,34.04z"/>
		<polygon class="st23" points="3.79,47.19 3.22,11.14 8.94,11.32 3.42,11.23 3.44,20.71 3.71,22.07 3.49,23.25 		"/>
		<polygon class="st23" points="4.77,46.35 11.32,46.46 11.84,46.68 12.26,46.43 13.25,46.44 13.92,47.05 14.2,46.44 14.95,46.35 		
			"/>
		<polygon class="st28" points="3.99,18.91 7.64,18.9 7.74,18.28 7.79,18.81 10.82,18.8 10.91,18.39 11.02,18.8 11.71,18.88 		"/>
		<polygon class="st28" points="4.7,27.24 4.59,26.62 8.28,26.62 8.46,27.12 8.53,26.62 11.26,26.62 11.39,27.08 11.39,26.5 
			4.21,26.48 4.23,27.24 		"/>
		<g>
			<g>
				<g>
					<g>
						<g>
							<defs>
								<polygon id="SVGID_26_" points="-5,6 -4,6 -5,7 								"/>
							</defs>
							<clipPath id="SVGID_27_">
								<use xlink:href="#SVGID_26_"  style="overflow:visible;"/>
							</clipPath>
						</g>
						<g>
							<defs>
								<polygon id="SVGID_28_" points="-5,6 -4,6 -5,7 								"/>
							</defs>
							<defs>
								<polygon id="SVGID_29_" points="-7,4 -8,4 -7,3 								"/>
							</defs>
							<clipPath id="SVGID_30_">
								<use xlink:href="#SVGID_28_"  style="overflow:visible;"/>
							</clipPath>
							<clipPath id="SVGID_31_" class="st46">
								<use xlink:href="#SVGID_29_"  style="overflow:visible;"/>
							</clipPath>
							
								<linearGradient id="SVGID_32_" gradientUnits="userSpaceOnUse" x1="6.37" y1="-22.48" x2="6.37" y2="-18.7" gradientTransform="matrix(1 0 0 -1 0 4)">
								<stop  offset="0" style="stop-color:#808080"/>
								<stop  offset="1" style="stop-color:#FFFFFF"/>
							</linearGradient>
							<path class="st47" d="M7.63,25.22c0-0.59-0.4-1.08-0.95-1.22l0.22-1.3H5.83l0.15,1.32c-0.51,0.16-0.87,0.64-0.87,1.2
								c0,0.47,0.26,0.87,0.63,1.09l0,0l-0.12,0.17h1.36l-0.09-0.12l0,0C7.34,26.16,7.63,25.72,7.63,25.22z"/>
						</g>
					</g>
				</g>
			</g>
			
				<linearGradient id="SVGID_33_" gradientUnits="userSpaceOnUse" x1="6.37" y1="-22.48" x2="6.37" y2="-18.7" gradientTransform="matrix(1 0 0 -1 0 4)">
				<stop  offset="0" style="stop-color:#CFFFE8"/>
				<stop  offset="1" style="stop-color:#4AEFB1"/>
			</linearGradient>
			<path class="st48" d="M7.63,25.22c0-0.59-0.4-1.08-0.95-1.22l0.22-1.3H5.83l0.15,1.32c-0.51,0.16-0.87,0.64-0.87,1.2
				c0,0.47,0.26,0.87,0.63,1.09l0,0l-0.12,0.17h1.36l-0.09-0.12l0,0C7.34,26.16,7.63,25.72,7.63,25.22z"/>
			
				<linearGradient id="SVGID_34_" gradientUnits="userSpaceOnUse" x1="6.365" y1="-19.1408" x2="6.365" y2="-18.4253" gradientTransform="matrix(1 0 0 -1 0 4)">
				<stop  offset="0" style="stop-color:#E77231"/>
				<stop  offset="0.9946" style="stop-color:#9C3536"/>
			</linearGradient>
			<polygon class="st49" points="5.93,23.14 5.85,22.43 6.88,22.51 6.8,23.14 			"/>
			<polygon class="st28" points="6.87,22.59 6.06,22.67 6.06,23.14 5.93,23.14 5.85,22.43 6.88,22.51 			"/>
			
				<linearGradient id="SVGID_35_" gradientUnits="userSpaceOnUse" x1="6.365" y1="-18.5476" x2="6.365" y2="-18.2441" gradientTransform="matrix(1 0 0 -1 0 4)">
				<stop  offset="0" style="stop-color:#E77231"/>
				<stop  offset="0.9946" style="stop-color:#9C3536"/>
			</linearGradient>
			<polygon class="st50" points="5.73,22.24 5.81,22.55 6.93,22.55 7,22.25 			"/>
			<polygon class="st23" points="5.77,22.26 6.95,22.28 6.88,22.53 6.57,22.53 6.56,22.32 			"/>
			<g>
				<g>
					<g>
						<g>
							<defs>
								<polygon id="SVGID_36_" points="-5,6 -4,6 -5,7 								"/>
							</defs>
							<clipPath id="SVGID_37_">
								<use xlink:href="#SVGID_36_"  style="overflow:visible;"/>
							</clipPath>
						</g>
						<g>
							<defs>
								<polygon id="SVGID_38_" points="-5,6 -4,6 -5,7 								"/>
							</defs>
							<defs>
								<polygon id="SVGID_39_" points="-7,4 -8,4 -7,3 								"/>
							</defs>
							<clipPath id="SVGID_40_">
								<use xlink:href="#SVGID_38_"  style="overflow:visible;"/>
							</clipPath>
							<clipPath id="SVGID_41_" class="st51">
								<use xlink:href="#SVGID_39_"  style="overflow:visible;"/>
							</clipPath>
							
								<linearGradient id="SVGID_42_" gradientUnits="userSpaceOnUse" x1="6.385" y1="-22.48" x2="6.385" y2="-18.75" gradientTransform="matrix(1 0 0 -1 0 4)">
								<stop  offset="0" style="stop-color:#808080"/>
								<stop  offset="1" style="stop-color:#FFFFFF"/>
							</linearGradient>
							<path class="st52" d="M7.54,25.24c0,0.05,0,0.09-0.01,0.13c-0.04,0.44-0.3,0.81-0.66,0.99l0,0l0.08,0.12H5.7l0.11-0.17
								c-0.31-0.19-0.54-0.54-0.57-0.94c-0.01-0.04-0.01-0.09-0.01-0.13c0-0.55,0.34-1.02,0.8-1.18l-0.14-1.31h0.98l-0.2,1.29
								C7.16,24.17,7.54,24.66,7.54,25.24z"/>
						</g>
					</g>
				</g>
			</g>
			
				<linearGradient id="SVGID_43_" gradientUnits="userSpaceOnUse" x1="6.385" y1="-22.48" x2="6.385" y2="-18.75" gradientTransform="matrix(1 0 0 -1 0 4)">
				<stop  offset="0" style="stop-color:#CFFFE8"/>
				<stop  offset="1" style="stop-color:#4AEFB1"/>
			</linearGradient>
			<path class="st53" d="M7.54,25.24c0,0.05,0,0.09-0.01,0.13c-0.04,0.44-0.3,0.81-0.66,0.99l0,0l0.08,0.12H5.7l0.11-0.17
				c-0.31-0.19-0.54-0.54-0.57-0.94c-0.01-0.04-0.01-0.09-0.01-0.13c0-0.55,0.34-1.02,0.8-1.18l-0.14-1.31h0.98l-0.2,1.29
				C7.16,24.17,7.54,24.66,7.54,25.24z"/>
			
				<linearGradient id="SVGID_44_" gradientUnits="userSpaceOnUse" x1="6.385" y1="-22.36" x2="6.385" y2="-21.3671" gradientTransform="matrix(1 0 0 -1 0 4)">
				<stop  offset="0" style="stop-color:#F48BA9"/>
				<stop  offset="1" style="stop-color:#FF1591"/>
			</linearGradient>
			<path class="st54" d="M7.53,25.37c-0.04,0.44-0.3,0.81-0.66,0.99l-1.06-0.05c-0.31-0.19-0.54-0.54-0.57-0.94H7.53z"/>
			<polygon class="st55" points="6.52,22.78 6.77,22.78 6.58,24.05 6.44,24.05 			"/>
			<polygon class="st55" points="5.91,22.78 6.05,24.05 6.1,24.05 6.01,22.77 			"/>
			<path class="st55" d="M6.38,24.22l0.5-0.03c0,0,0.92,0.84,0.12,2.02H6.84C6.85,26.21,7.14,24.99,6.38,24.22z"/>
			<path class="st55" d="M5.47,25.03h-0.2c0,0-0.03,0.9,0.58,1.25C5.85,26.28,5.38,25.9,5.47,25.03z"/>
			<circle class="st23" cx="6.27" cy="25.78" r="0.17"/>
			<path class="st23" d="M6.59,25.53c0,0.02-0.02,0.04-0.04,0.04s-0.04-0.02-0.04-0.04s0.02-0.04,0.04-0.04S6.59,25.51,6.59,25.53z"
				/>
			<path class="st23" d="M6.8,26.06c0,0.06-0.05,0.11-0.11,0.11s-0.11-0.05-0.11-0.11c0-0.06,0.05-0.11,0.11-0.11S6.8,26,6.8,26.06z
				"/>
		</g>
		<g>
			
				<linearGradient id="SVGID_45_" gradientUnits="userSpaceOnUse" x1="7.79" y1="-22.4827" x2="7.79" y2="-20.4904" gradientTransform="matrix(1 0 0 -1 0 4)">
				<stop  offset="0" style="stop-color:#F4FFBD"/>
				<stop  offset="1" style="stop-color:#ABEFB1"/>
			</linearGradient>
			<path class="st56" d="M8.45,25.82c0-0.31-0.21-0.57-0.5-0.64l0.12-0.69H7.51l0.08,0.7c-0.27,0.09-0.46,0.34-0.46,0.63
				c0,0.25,0.13,0.46,0.33,0.57l0,0L7.4,26.48h0.72l-0.04-0.06l0,0C8.3,26.31,8.45,26.08,8.45,25.82z"/>
			
				<linearGradient id="SVGID_46_" gradientUnits="userSpaceOnUse" x1="7.79" y1="-20.7245" x2="7.79" y2="-20.3478" gradientTransform="matrix(1 0 0 -1 0 4)">
				<stop  offset="0" style="stop-color:#E77231"/>
				<stop  offset="0.9946" style="stop-color:#9C3536"/>
			</linearGradient>
			<polygon class="st57" points="7.55,24.72 7.52,24.35 8.06,24.39 8.02,24.72 			"/>
			<polygon class="st28" points="8.05,24.44 7.63,24.48 7.63,24.72 7.55,24.72 7.52,24.35 8.06,24.39 			"/>
			
				<linearGradient id="SVGID_47_" gradientUnits="userSpaceOnUse" x1="7.785" y1="-20.4122" x2="7.785" y2="-20.2524" gradientTransform="matrix(1 0 0 -1 0 4)">
				<stop  offset="0" style="stop-color:#E77231"/>
				<stop  offset="0.9946" style="stop-color:#9C3536"/>
			</linearGradient>
			<polygon class="st58" points="7.45,24.25 7.49,24.41 8.08,24.41 8.12,24.25 			"/>
			<polygon class="st23" points="7.47,24.26 8.09,24.27 8.06,24.4 7.89,24.4 7.89,24.29 			"/>
			<g>
				<g>
					<g>
						<g>
							<defs>
								<polygon id="SVGID_48_" points="-5,6 -4,6 -5,7 								"/>
							</defs>
							<clipPath id="SVGID_49_">
								<use xlink:href="#SVGID_48_"  style="overflow:visible;"/>
							</clipPath>
						</g>
						<g>
							<defs>
								<polygon id="SVGID_50_" points="-5,6 -4,6 -5,7 								"/>
							</defs>
							<defs>
								<polygon id="SVGID_51_" points="-7,4 -8,4 -7,3 								"/>
							</defs>
							<clipPath id="SVGID_52_">
								<use xlink:href="#SVGID_50_"  style="overflow:visible;"/>
							</clipPath>
							<clipPath id="SVGID_53_" class="st59">
								<use xlink:href="#SVGID_51_"  style="overflow:visible;"/>
							</clipPath>
							
								<linearGradient id="SVGID_54_" gradientUnits="userSpaceOnUse" x1="7.795" y1="-22.4825" x2="7.795" y2="-20.5175" gradientTransform="matrix(1 0 0 -1 0 4)">
								<stop  offset="0" style="stop-color:#808080"/>
								<stop  offset="1" style="stop-color:#FFFFFF"/>
							</linearGradient>
							<path class="st60" d="M8.4,25.83c0,0.02,0,0.05,0,0.07c-0.02,0.23-0.16,0.43-0.35,0.52l0.04,0.06H7.43l0.06-0.09
								c-0.16-0.1-0.28-0.28-0.3-0.5c0-0.02,0-0.05,0-0.07c0-0.29,0.18-0.54,0.42-0.62l-0.04-0.4l-0.03-0.29h0.52L8,24.86L7.95,25.2
								C8.21,25.27,8.4,25.52,8.4,25.83z"/>
						</g>
					</g>
				</g>
			</g>
			
				<linearGradient id="SVGID_55_" gradientUnits="userSpaceOnUse" x1="7.795" y1="-22.4825" x2="7.795" y2="-20.5175" gradientTransform="matrix(1 0 0 -1 0 4)">
				<stop  offset="0" style="stop-color:#CFFFE8"/>
				<stop  offset="1" style="stop-color:#4AEFB1"/>
			</linearGradient>
			<path class="st61" d="M8.4,25.83c0,0.02,0,0.05,0,0.07c-0.02,0.23-0.16,0.43-0.35,0.52l0.04,0.06H7.43l0.06-0.09
				c-0.16-0.1-0.28-0.28-0.3-0.5c0-0.02,0-0.05,0-0.07c0-0.29,0.18-0.54,0.42-0.62l-0.04-0.4l-0.03-0.29h0.52L8,24.86L7.95,25.2
				C8.21,25.27,8.4,25.52,8.4,25.83z"/>
			
				<linearGradient id="SVGID_56_" gradientUnits="userSpaceOnUse" x1="7.795" y1="-22.42" x2="7.795" y2="-20.81" gradientTransform="matrix(1 0 0 -1 0 4)">
				<stop  offset="0" style="stop-color:#BBD400"/>
				<stop  offset="1" style="stop-color:#2DFF15"/>
			</linearGradient>
			<path class="st62" d="M8.4,25.83c0,0.02,0,0.05,0,0.07c-0.02,0.23-0.16,0.43-0.35,0.52l0,0L7.49,26.4
				c-0.16-0.1-0.28-0.28-0.3-0.5c0-0.02,0-0.05,0-0.07c0-0.29,0.18-0.54,0.42-0.62l-0.04-0.4L8,24.86L7.95,25.2
				C8.21,25.27,8.4,25.52,8.4,25.83z"/>
			<polygon class="st55" points="7.87,24.54 8,24.54 7.9,25.2 7.83,25.2 			"/>
			<polygon class="st55" points="7.55,24.54 7.62,25.2 7.65,25.2 7.6,24.53 			"/>
			<path class="st55" d="M7.79,25.29l0.27-0.02c0,0,0.48,0.44,0.06,1.07H8.04C8.04,26.34,8.2,25.7,7.79,25.29z"/>
			<path class="st55" d="M7.31,25.72h-0.1c0,0-0.01,0.48,0.31,0.66C7.52,26.38,7.26,26.17,7.31,25.72z"/>
			<path class="st23" d="M7.83,26.12c0,0.05-0.04,0.09-0.09,0.09s-0.09-0.04-0.09-0.09s0.04-0.09,0.09-0.09S7.83,26.07,7.83,26.12z"
				/>
			<path class="st23" d="M7.9,25.98C7.9,25.99,7.89,26,7.88,26s-0.02-0.01-0.02-0.02s0.01-0.02,0.02-0.02S7.9,25.97,7.9,25.98z"/>
			<path class="st23" d="M8.01,26.26c0,0.03-0.02,0.06-0.06,0.06c-0.03,0-0.06-0.02-0.06-0.06s0.02-0.06,0.06-0.06
				C7.99,26.21,8.01,26.23,8.01,26.26z"/>
		</g>
		<g>
			
				<linearGradient id="SVGID_57_" gradientUnits="userSpaceOnUse" x1="5.7847" y1="-30.44" x2="5.7847" y2="-26.53" gradientTransform="matrix(1 0 0 -1 0 4)">
				<stop  offset="0" style="stop-color:#4F9F00"/>
				<stop  offset="1" style="stop-color:#267015"/>
			</linearGradient>
			<path class="st63" d="M6.71,31.88c-0.01-0.04-0.02-0.08-0.04-0.13c-0.06-0.12-0.17-0.22-0.33-0.3l-0.26-0.14l0,0v-0.04v-0.02
				l0.01-0.07l0.04-0.41l0,0l0,0v-0.01l0.01-0.07v-0.01l0.01-0.1v-0.01v-0.04H5.79l0,0H5.43l0.08,0.78l-0.27,0.14l0,0
				c-0.25,0.13-0.39,0.32-0.38,0.52l0.01,0.14l0,0l0.05,0.77l0,0l0.1,1.47c0,0.05,0.07,0.09,0.16,0.09h0.59l0,0h0.11h0.45
				c0.09,0,0.16-0.04,0.16-0.09v-0.03l0.05-0.6l0,0l0.03-0.39l0.1-1.17l0.01-0.14v-0.05C6.71,31.94,6.71,31.91,6.71,31.88z
				 M5.79,34.23v0.21v-0.61v0.1V34.23z M5.79,33.52v-0.04V33.52L5.79,33.52z M5.79,32.87v-0.03l0,0V32.87z"/>
			<polygon class="st64" points="6.21,30.57 6.15,30.77 5.42,30.77 5.38,30.57 			"/>
			
				<linearGradient id="SVGID_58_" gradientUnits="userSpaceOnUse" x1="-141.1238" y1="278.183" x2="-141.1238" y2="279.3574" gradientTransform="matrix(1 1.300000e-03 1.300000e-03 -1 146.7013 310.9744)">
				<stop  offset="0" style="stop-color:#000000"/>
				<stop  offset="1" style="stop-color:#B3A600"/>
			</linearGradient>
			<path class="st65" d="M5.24,31.97c0,0,0.14-0.48,0.67-0.53c0.53-0.05,0.73,0.38,0.73,0.54c0,0.16-0.06,0.64-0.06,0.64
				s0.03-0.64-0.09-0.72c-0.13-0.08-0.33-0.05-0.7-0.05C5.43,31.85,5.24,31.97,5.24,31.97z"/>
			<path class="st66" d="M5.7,31.92h0.5l-0.08,1.66H6.01c0,0-0.04-1.49-0.04-1.56S5.7,31.92,5.7,31.92z"/>
			<polygon class="st66" points="6.51,34.33 6.48,34.33 6.5,33.87 6.57,32.16 6.57,32.16 6.63,32.1 6.64,32.09 6.7,32.02 
				6.71,32.02 6.69,32.16 6.6,33.33 6.56,33.72 6.56,33.72 			"/>
			<path class="st67" d="M6.13,30.77H5.47l0.01,0.06l0.08,0.01l0.03,0.47c0,0-0.41,0.13-0.55,0.48c-0.11,0.28,0.17,2.65,0.17,2.65
				h0.41c0,0-0.1-2.41-0.04-2.63c0.06-0.22,0.18-0.5,0.18-0.5l-0.02-0.39L6.13,30.77z"/>
			
				<linearGradient id="SVGID_59_" gradientUnits="userSpaceOnUse" x1="-141.0752" y1="279.4961" x2="-141.0752" y2="279.9826" gradientTransform="matrix(1 1.300000e-03 1.300000e-03 -1 146.7013 310.9744)">
				<stop  offset="0" style="stop-color:#000000"/>
				<stop  offset="1" style="stop-color:#B3A600"/>
			</linearGradient>
			<polygon class="st68" points="5.9,30.89 6.08,30.81 5.99,31.29 5.9,31.29 			"/>
			
				<linearGradient id="SVGID_60_" gradientUnits="userSpaceOnUse" x1="-141.0005" y1="280.0425" x2="-141.0005" y2="280.2046" gradientTransform="matrix(1 1.300000e-03 1.300000e-03 -1 146.7013 310.9744)">
				<stop  offset="0" style="stop-color:#000000"/>
				<stop  offset="1" style="stop-color:#B3A600"/>
			</linearGradient>
			<polygon class="st69" points="5.99,30.59 6.15,30.59 6.13,30.75 5.98,30.74 			"/>
			<polygon class="st67" points="5.46,30.75 5.44,30.59 5.73,30.59 5.7,30.75 			"/>
			<polygon class="st70" points="6.13,30.77 6.07,31.31 6.01,31.31 6.08,30.81 6.08,30.79 6.08,30.77 			"/>
			<polygon class="st70" points="6.21,30.57 6.15,30.77 6.13,30.77 6.13,30.76 6.14,30.64 6.15,30.59 6.15,30.54 			"/>
			<path class="st71" d="M5.51,31.88l0.1,2.57H5.9l0.04-2.6C5.94,31.84,5.63,31.8,5.51,31.88z"/>
		</g>
		<g>
			
				<linearGradient id="SVGID_61_" gradientUnits="userSpaceOnUse" x1="-813.6898" y1="-13.075" x2="-810.9365" y2="-13.075" gradientTransform="matrix(-1 0 0 -1 -801.2798 4)">
				<stop  offset="0" style="stop-color:#2395A6"/>
				<stop  offset="1" style="stop-color:#015663"/>
			</linearGradient>
			<polygon class="st72" points="12.18,18.26 12.41,15.89 9.66,15.89 10.02,18.23 			"/>
			<polygon class="st73" points="12.41,15.89 14.03,15.96 13.57,18.27 12.18,18.26 			"/>
			
				<linearGradient id="SVGID_62_" gradientUnits="userSpaceOnUse" x1="-815.4898" y1="-12.045" x2="-810.7241" y2="-12.045" gradientTransform="matrix(-1 0 0 -1 -801.2798 4)">
				<stop  offset="0" style="stop-color:#2395A6"/>
				<stop  offset="1" style="stop-color:#015663"/>
			</linearGradient>
			<polygon class="st74" points="9.52,16.37 9.45,15.8 12.45,15.72 14.21,15.81 14.09,16.37 12.38,16.27 			"/>
			<polygon class="st73" points="14.09,16.37 14.21,15.81 12.45,15.72 12.45,16.28 			"/>
			<polygon class="st75" points="13.77,17.25 12.34,16.6 9.77,16.6 9.73,16.36 12.38,16.27 13.95,16.37 			"/>
			<polygon class="st73" points="11.55,16.45 11.55,16.72 10.27,16.72 10.23,16.51 			"/>
			<polygon class="st75" points="14.09,15.86 14,16.31 13.47,16.27 13.5,15.83 			"/>
			<polygon class="st75" points="13.86,16.45 13.49,18.22 12.41,18.16 13.28,18.11 13.47,16.37 			"/>
			<polygon class="st76" points="11.21,15.83 9.52,15.89 9.66,16.27 11.21,16.21 			"/>
			<polygon class="st76" points="10.81,16.86 9.97,16.86 10.14,18.22 10.76,18.22 			"/>
		</g>
		<g>
			
				<linearGradient id="SVGID_63_" gradientUnits="userSpaceOnUse" x1="7.18" y1="-33.335" x2="12.19" y2="-33.335" gradientTransform="matrix(1 0 0 -1 0 4)">
				<stop  offset="0" style="stop-color:#2395A6"/>
				<stop  offset="1" style="stop-color:#015663"/>
			</linearGradient>
			<polygon class="st77" points="12.17,36.88 12.19,37.8 7.35,37.81 7.18,36.86 			"/>
			<polygon class="st78" points="5.24,37.5 7.18,36.86 7.22,37.08 5.3,37.6 			"/>
			<polygon class="st78" points="7.35,37.69 5.25,37.73 5.25,37.81 6.78,37.79 7.35,37.81 			"/>
			<polygon class="st79" points="5.38,37.57 5.39,37.73 7.35,37.69 7.22,37.08 			"/>
			<polygon class="st1" points="5.38,37.67 6.99,37.33 7.03,37.48 5.88,37.66 6.99,37.56 7.03,37.71 7.35,37.69 7.22,37.08 
				5.38,37.57 			"/>
			<polygon class="st80" points="11.66,36.88 11.67,37.8 11.23,37.8 11.25,36.88 			"/>
			<polygon class="st80" points="8.03,36.87 8.05,37.81 8.4,37.81 8.38,36.87 			"/>
			
				<linearGradient id="SVGID_64_" gradientUnits="userSpaceOnUse" x1="6.5926" y1="-38.7937" x2="11.5883" y2="-38.7937" gradientTransform="matrix(0.9998 -0.0191 -0.0191 -0.9998 -0.1424 -1.2824)">
				<stop  offset="0" style="stop-color:#8B6F8E"/>
				<stop  offset="1" style="stop-color:#7A6D84"/>
			</linearGradient>
			<polygon class="st81" points="12.19,37.57 8.52,37.44 7.83,36.87 7.18,36.86 7.35,37.81 12.19,37.8 			"/>
		</g>
	</g>
</g>
<g>
	<polygon class="st12" points="83.46,5.46 83.72,6.57 90.45,6.57 90.58,5.6 	"/>
	<path class="st82" d="M93.34,5.14l-1.42,21.62H75.01L73.07,6.65l-0.1-1.51C77.64-0.55,88.83-0.55,93.34,5.14z"/>
	<path class="st83" d="M92.49,5.86l-1.3,19.8H75.7L73.92,7.25l-0.09-1.39C78.1,0.66,88.35,0.66,92.49,5.86z"/>
	
		<linearGradient id="SVGID_65_" gradientUnits="userSpaceOnUse" x1="77.1469" y1="-22.1143" x2="90.2661" y2="0.6086" gradientTransform="matrix(1 0 0 -1 0 4)">
		<stop  offset="0" style="stop-color:#745072"/>
		<stop  offset="1" style="stop-color:#4A365E"/>
	</linearGradient>
	<path class="st84" d="M93.31,5.86l-1.71,19.8H76.36L74.74,7.25l-0.09-1.39C78.93,0.66,89.17,0.66,93.31,5.86z"/>
	
		<linearGradient id="SVGID_66_" gradientUnits="userSpaceOnUse" x1="78.4416" y1="-20.0898" x2="89.2448" y2="-1.3781" gradientTransform="matrix(1 0 0 -1 0 4)">
		<stop  offset="0" style="stop-color:#797492"/>
		<stop  offset="1" style="stop-color:#4A365E"/>
	</linearGradient>
	<path class="st85" d="M91.6,7.32L90.54,23.5H77.42L76.43,8.46l-0.07-1.13C79.85,3.07,88.22,3.07,91.6,7.32z"/>
	<path class="st86" d="M91.6,7.32L90.54,23.5l-1.47-0.68l0.94-14.29H76.54l-0.11-0.07l-0.07-1.13C79.85,3.07,88.22,3.07,91.6,7.32z"
		/>
	<polygon class="st83" points="75.47,15.55 76.88,15.2 76.9,15.55 75.38,15.8 	"/>
	<polygon class="st83" points="75.86,19.99 77.19,19.99 77.19,20.04 75.8,20.14 	"/>
	<polygon class="st83" points="75.8,21.72 77.31,21.72 77.32,21.81 75.8,21.96 	"/>
	<polygon class="st83" points="77.42,23.5 76.36,25.67 76.54,25.67 77.57,23.5 	"/>
	<polygon class="st83" points="75.17,12.15 76.68,12.15 76.67,12.02 75.1,12.02 	"/>
	<polygon class="st83" points="76.48,9.12 74.8,9.35 74.8,9.43 76.48,9.21 	"/>
	<polygon class="st83" points="74.65,5.86 76.36,7.32 76.48,7.14 	"/>
	<polygon class="st83" points="78.28,7.03 78.28,5.59 76.79,3.97 76.92,3.88 78.41,5.54 78.41,6.96 	"/>
	<polygon class="st83" points="85.53,2.04 85.53,4.23 84.75,5.86 84.8,5.88 85.67,4.25 85.67,2.05 	"/>
	<polygon class="st83" points="88.6,2.7 88.6,5.07 86.95,6.45 87,6.47 88.65,5.09 88.73,2.74 	"/>
	<polygon class="st83" points="93.31,5.86 91.6,7.32 89.85,8.29 89.9,8.37 91.6,7.5 93.3,6.02 	"/>
	<polygon class="st83" points="89.68,13.5 91.19,13.5 92.65,13.5 92.63,13.7 91.19,13.6 89.68,13.6 	"/>
	<polygon class="st83" points="89.55,15.5 91.04,15.8 92.44,15.94 92.44,16.04 91.03,15.94 89.55,15.57 	"/>
	<polygon class="st83" points="89.33,18.85 90.8,19.41 92.14,19.43 92.13,19.58 90.8,19.51 89.32,18.88 	"/>
	<polygon class="st83" points="89.07,22.81 90.54,23.5 91.6,25.67 90.38,23.5 88.95,22.81 	"/>
	<polygon class="st83" points="86.04,22.81 86.44,23.5 86.24,25.67 86.15,25.67 86.34,23.51 85.97,22.81 	"/>
	<polygon class="st83" points="81.17,22.81 81.42,23.5 81.3,25.67 81.37,25.67 81.5,23.5 81.27,22.81 	"/>
	<polygon class="st6" points="91.6,7.32 90.54,23.5 77.57,23.5 90.67,23.69 	"/>
	<polygon class="st6" points="74.65,5.86 76.36,25.67 76.54,25.67 	"/>
	<polygon class="st6" points="81.5,23.5 86.34,23.51 86.15,25.67 86.25,23.69 81.5,23.59 	"/>
	<polygon class="st6" points="92.13,19.58 90.91,19.52 90.67,23.69 90.99,19.58 92.13,19.7 	"/>
	<polygon class="st6" points="92.65,13.5 91.19,13.5 91.6,7.5 93.3,6.02 91.7,7.57 91.33,13.35 	"/>
	<path class="st6" d="M88.6,2.7v2.37c0,0-1.7-0.71-2.93-0.82c0,0,1.91,0.21,2.83,0.65L88.6,2.7z"/>
	<polygon class="st6" points="76.79,3.97 78.28,5.59 78.23,5.71 76.7,3.97 	"/>
	<polygon class="st6" points="74.96,9.43 76.48,9.21 76.67,12.02 76.54,12.02 76.43,9.28 	"/>
	<polygon class="st6" points="75.51,15.78 76.9,15.55 77.19,19.99 77.16,19.99 76.81,15.65 	"/>
	<polygon class="st87" points="74.65,5.86 76.36,7.32 76.48,9.12 74.93,9.32 	"/>
	<polygon class="st87" points="90.91,19.52 90.67,23.69 91.6,25.67 92.13,19.58 	"/>
	<polygon class="st87" points="81.3,25.67 81.42,23.5 81.17,22.81 77.48,22.81 77.57,23.5 76.54,25.67 	"/>
	<path class="st87" d="M76.92,3.88c0,0,3.04-2.29,8.61-1.85v2.19c0,0-3.49-0.53-7.12,1.31L76.92,3.88z"/>
	<polygon class="st11" points="77.16,15.44 77.16,16.33 87.74,17.14 87.74,15.69 	"/>
	<path class="st88" d="M89.45,23.05l-11.97-0.24L76.54,8.52c3.09-3.76,10.48-3.76,13.84,0.38L89.45,23.05z"/>
	<path class="st16" d="M89.33,9.1l-0.47,13.23H78.44L77.59,9.47c1.35-1.64,3.62-2.49,5.9-2.53C85.9,6.89,87.95,7.36,89.33,9.1z"/>
	
		<linearGradient id="SVGID_67_" gradientUnits="userSpaceOnUse" x1="83.455" y1="-18.33" x2="83.455" y2="-2.94" gradientTransform="matrix(1 0 0 -1 0 4)">
		<stop  offset="0" style="stop-color:#3B1D40"/>
		<stop  offset="1" style="stop-color:#271B31"/>
	</linearGradient>
	<path class="st89" d="M89.32,9.47l-0.18,2.74l-0.67,10.12H78.44L77.59,9.47c1.35-1.64,3.62-2.49,5.9-2.53
		c0.35,0.01,0.69,0.03,1.03,0.08C86.43,7.26,88.21,8.08,89.32,9.47L89.32,9.47z"/>
	<polygon class="st16" points="83.44,6.96 83.65,22.33 83.89,22.33 84.09,6.92 	"/>
	<polygon class="st88" points="83.8,6.69 83.52,22.37 84,22.37 84.53,6.69 	"/>
	<polygon class="st88" points="89.57,12.22 77.7,12.04 77.7,13 89.57,12.73 	"/>
	<polygon class="st88" points="89.57,18.24 77.7,18.06 77.48,18.36 89.57,18.75 	"/>
	<path class="st87" d="M89.32,9.47l-0.18,2.74l-4.42-0.07c0,0,3.78-0.11,3.91-0.11c0.13,0-0.36-1.99-0.6-2.39
		c-0.23-0.4-2.81-1.33-2.92-1.13s-0.65,3.62-0.65,3.62L84.51,7C86.43,7.26,88.21,8.08,89.32,9.47L89.32,9.47z"/>
	<path class="st87" d="M77.76,12.04c0,0,5.44-0.17,5.54-0.28c0.11-0.1-0.19-3.94-0.32-4.07s-4.01,0.97-4.32,1.79
		s-0.18,2.55-0.18,2.55l-0.72,0.04l-0.17-2.61c0,0,1.53-2.28,5.9-2.53v5.19L77.76,12.04z"/>
	<path class="st87" d="M84.47,12.85l-0.05,5.31l4.33,0.07l0.36-5.48L84.47,12.85z M88.38,17.14c-0.3,0.49-2.99,0.73-3.25,0.47
		c-0.27-0.27-0.29-4.13-0.16-4.27c0.13-0.13,3.52-0.3,3.69-0.13C88.97,13.54,88.68,16.65,88.38,17.14z"/>
	<path class="st87" d="M83.52,12.87L77.82,13l0.33,5.07l5.44,0.08L83.52,12.87z M82.89,16.99c-0.31,0.31-3.72,0.75-4.05,0.42
		s-0.75-3.79-0.47-4.07s4.48-0.09,4.68,0.11C83.24,13.63,83.2,16.69,82.89,16.99z"/>
	<path class="st87" d="M83.59,18.75H78.2l0.24,3.58h5.21L83.59,18.75z M82.91,21.77c-0.24,0.24-3.78,0.46-4.04,0.2
		c-0.26-0.26-0.44-2.68-0.21-2.91s4.19-0.32,4.51,0C83.48,19.39,83.13,21.55,82.91,21.77z"/>
	<path class="st87" d="M84.41,18.75l-0.03,3.58h4.1l0.24-3.58H84.41z M88,21.98c-0.24,0.24-2.83,0.3-3-0.06
		c-0.17-0.36-0.19-2.21-0.05-2.53s3.02-0.56,3.25-0.33C88.44,19.29,88.18,21.8,88,21.98z"/>
	<g>
		<g>
			<g>
				<g>
					<defs>
						<polygon id="SVGID_68_" points="7,-1 8,-1 7,0 						"/>
					</defs>
					<clipPath id="SVGID_69_">
						<use xlink:href="#SVGID_68_"  style="overflow:visible;"/>
					</clipPath>
				</g>
				<g>
					<defs>
						<polygon id="SVGID_70_" points="7,-1 8,-1 7,0 						"/>
					</defs>
					<defs>
						<polygon id="SVGID_71_" points="5,-3 4,-3 5,-4 						"/>
					</defs>
					<clipPath id="SVGID_72_">
						<use xlink:href="#SVGID_70_"  style="overflow:visible;"/>
					</clipPath>
					<clipPath id="SVGID_73_" class="st90">
						<use xlink:href="#SVGID_71_"  style="overflow:visible;"/>
					</clipPath>
					
						<linearGradient id="SVGID_74_" gradientUnits="userSpaceOnUse" x1="83.125" y1="-21.67" x2="83.125" y2="-1.86" gradientTransform="matrix(1 0 0 -1 0 4)">
						<stop  offset="0" style="stop-color:#FFFFFF"/>
						<stop  offset="1" style="stop-color:#000000"/>
					</linearGradient>
					<polygon class="st91" points="74.65,5.86 76.36,25.67 91.6,25.67 76.55,25.46 					"/>
				</g>
			</g>
		</g>
	</g>
</g>
<g>
	<polygon class="st82" points="93.98,13.45 98.83,41.04 99.45,40.46 97,19.32 	"/>
	
		<linearGradient id="SVGID_75_" gradientUnits="userSpaceOnUse" x1="96.425" y1="-30.28" x2="96.425" y2="-7.46" gradientTransform="matrix(1 0 0 -1 0 4)">
		<stop  offset="0" style="stop-color:#E77231"/>
		<stop  offset="0.9946" style="stop-color:#9C3536"/>
	</linearGradient>
	<path class="st92" d="M98.8,33.49l-0.04-0.44l-0.04-0.5l-0.74-8.42l0.23-0.17v-0.58l-0.27,0.24l0,0l-0.39-4.48l-2.5-7.68
		c0,0-1.08,0.29-1.08,1.7c0,0.02,0,0.05,0,0.07c0,0.07,0,0.14,0.01,0.21l2.44,5.89l1.63,13.31l0.1,0.77l0.11,0.87h0.62L98.8,33.49z"
		/>
	<path class="st82" d="M98.8,33.49l-0.66-0.07h-0.02l-0.08-0.77l0.16-0.17l-0.94-13.13l-2.81-6.73l-0.49,0.62l0,0v-0.07
		c0-1.42,1.08-1.7,1.08-1.7l2.5,7.68l1.18,13.4l0.04,0.5L98.8,33.49z"/>
	<g>
		
			<linearGradient id="SVGID_76_" gradientUnits="userSpaceOnUse" x1="99.3524" y1="-38.8079" x2="99.3524" y2="-29.02" gradientTransform="matrix(1 0 0 -1 0 4)">
			<stop  offset="0" style="stop-color:#E77231"/>
			<stop  offset="0.9946" style="stop-color:#9C3536"/>
		</linearGradient>
		<path class="st93" d="M102.12,42.08l-0.29,0.02l-0.35-2.79v3.12c0,0-1.65,0.57-2.95,0.31l0,0c-0.29-0.06-0.56-0.16-0.8-0.31
			l-0.71-2.81l0.37,2.81h-0.31c0,0-0.03-0.17-0.08-0.45v-0.01c-0.19-1.15-0.64-4.1-0.32-4.42c0.4-0.4,1.42-2.25,1.42-2.25
			s-0.67-0.97-0.69-1.3v-0.01c0-0.03,0.01-0.06,0.03-0.08c0.12-0.12,0.4-0.43,0.58-0.62l0,0c0.08-0.09,0.14-0.15,0.14-0.15
			l0.65-0.12c0,0,0.76,0.17,0.89,0.3s-0.06,1.99-0.06,1.99s2.09,1.93,2.33,2.16C102.21,37.72,102.12,42.08,102.12,42.08z"/>
		<path class="st82" d="M102.12,42.08l-0.29,0.02l-0.35-2.79v3.12c0,0-1.65,0.57-2.95,0.31l0,0l-0.47-4.29l0.74,3.89h0.65
			l-0.09-2.53l0.34,2.34h0.24l-0.25-4.84l-0.76-1.97l0.37-0.05v-1.23l-0.68-0.11v1.34l-0.23-1.44l-0.98,0.16V34
			c0-0.03,0.01-0.06,0.03-0.08c0.18-0.18,0.72-0.77,0.72-0.77l0.65-0.12c0,0,0.76,0.17,0.89,0.3s-0.06,1.99-0.06,1.99
			s2.09,1.93,2.33,2.16C102.21,37.72,102.12,42.08,102.12,42.08z"/>
		<polygon class="st12" points="97.41,36.78 96.8,37.66 97.14,39.25 97.16,37.92 99.45,37.78 99.58,37.32 97.22,37.32 		"/>
		
			<linearGradient id="SVGID_77_" gradientUnits="userSpaceOnUse" x1="98.02" y1="-31.29" x2="99.6472" y2="-31.29" gradientTransform="matrix(1 0 0 -1 0 4)">
			<stop  offset="0" style="stop-color:#822717"/>
			<stop  offset="0.9946" style="stop-color:#700C26"/>
		</linearGradient>
		<polygon class="st94" points="98.02,35.19 98.02,35.46 99.65,35.32 99.65,35.12 		"/>
	</g>
	
		<linearGradient id="SVGID_78_" gradientUnits="userSpaceOnUse" x1="98.019" y1="-28.995" x2="98.9911" y2="-28.995" gradientTransform="matrix(1 0 0 -1 0 4)">
		<stop  offset="0" style="stop-color:#822717"/>
		<stop  offset="0.9946" style="stop-color:#700C26"/>
	</linearGradient>
	<polygon class="st95" points="98.02,33.31 98.02,32.81 98.8,32.68 98.99,33.07 	"/>
	<g>
		<g>
			<g>
				<g>
					<defs>
						<polygon id="SVGID_79_" points="4,1 5,1 4,2 						"/>
					</defs>
					<clipPath id="SVGID_80_">
						<use xlink:href="#SVGID_79_"  style="overflow:visible;"/>
					</clipPath>
				</g>
				<g>
					<defs>
						<polygon id="SVGID_81_" points="4,1 5,1 4,2 						"/>
					</defs>
					<defs>
						<polygon id="SVGID_82_" points="2,-1 1,-1 2,-2 						"/>
					</defs>
					<clipPath id="SVGID_83_">
						<use xlink:href="#SVGID_81_"  style="overflow:visible;"/>
					</clipPath>
					<clipPath id="SVGID_84_" class="st96">
						<use xlink:href="#SVGID_82_"  style="overflow:visible;"/>
					</clipPath>
					
						<linearGradient id="SVGID_85_" gradientUnits="userSpaceOnUse" x1="97.4591" y1="-37.98" x2="97.4591" y2="-29.3" gradientTransform="matrix(1 0 0 -1 0 4)">
						<stop  offset="0" style="stop-color:#FFFFFF"/>
						<stop  offset="1" style="stop-color:#000000"/>
					</linearGradient>
					<path class="st97" d="M96.71,37.92L97,41.98c-0.19-1.15-0.64-4.1-0.32-4.42c0.4-0.4,1.42-2.25,1.42-2.25s-0.67-0.97-0.69-1.3
						V34c0-0.03,0.01-0.06,0.03-0.08c0.12-0.12,0.4-0.43,0.58-0.62l-0.38,0.71l0.71,1.42L96.71,37.92z"/>
				</g>
			</g>
		</g>
	</g>
	
		<linearGradient id="SVGID_86_" gradientUnits="userSpaceOnUse" x1="97.4591" y1="-37.98" x2="97.4591" y2="-29.3" gradientTransform="matrix(1 0 0 -1 0 4)">
		<stop  offset="0" style="stop-color:#43EB6D"/>
		<stop  offset="1" style="stop-color:#2DFFBD"/>
	</linearGradient>
	<path class="st98" d="M96.71,37.92L97,41.98c-0.19-1.15-0.64-4.1-0.32-4.42c0.4-0.4,1.42-2.25,1.42-2.25s-0.67-0.97-0.69-1.3V34
		c0-0.03,0.01-0.06,0.03-0.08c0.12-0.12,0.4-0.43,0.58-0.62l-0.38,0.71l0.71,1.42L96.71,37.92z"/>
</g>
<g>
	<g>
		
			<linearGradient id="SVGID_87_" gradientUnits="userSpaceOnUse" x1="18.05" y1="-44.08" x2="40.29" y2="-44.08" gradientTransform="matrix(1 0 0 -1 0 4)">
			<stop  offset="0" style="stop-color:#3B1D40"/>
			<stop  offset="1" style="stop-color:#271B31"/>
		</linearGradient>
		<path class="st99" d="M40.29,48.08c0,0.65-4.98,1.18-11.12,1.18s-11.12-0.53-11.12-1.18s4.98-1.18,11.12-1.18
			S40.29,47.43,40.29,48.08z"/>
		
			<linearGradient id="SVGID_88_" gradientUnits="userSpaceOnUse" x1="18.06" y1="-43.88" x2="40.29" y2="-43.88" gradientTransform="matrix(1 0 0 -1 0 4)">
			<stop  offset="0" style="stop-color:#797492"/>
			<stop  offset="1" style="stop-color:#4A365E"/>
		</linearGradient>
		<path class="st100" d="M40.29,47.88c0,0.14-0.22,0.27-0.62,0.39c-1.51,0.46-5.64,0.79-10.5,0.79c-6.14,0-11.11-0.53-11.11-1.18
			s4.98-1.18,11.11-1.18C35.31,46.7,40.29,47.23,40.29,47.88z"/>
		<path class="st5" d="M39.67,48.27c-1.51,0.46-5.64,0.79-10.5,0.79c-6.14,0-11.11-0.53-11.11-1.18l5.96-0.38l-4.46,0.38l2.48,0.58
			l6.77-0.96l-5.38,1.05l5.6,0.37l6.27-0.3l-3.48-1.04l4.35,1.04L39.67,48.27z"/>
	</g>
	<path class="st28" d="M28.86,40.69c0.45,0.11,1.01,0.27,1.34,0.47l-1.36-0.41c-0.07,0.18-0.2,0.48-0.42,0.79l0,0
		c-0.04,0.05-0.08,0.11-0.12,0.16l0,0l0,0c-0.05,0.06-0.1,0.12-0.15,0.18c-0.01,0.02-0.03,0.03-0.05,0.05
		c-0.06,0.06-0.12,0.12-0.19,0.18c0.07,0.19,0.24,0.67,0.39,1.15v-0.02c0.11,0.35,0.21,0.72,0.26,0.97l-0.01-0.01
		c0,0.01,0.01,0.02,0.01,0.04l-0.11-0.1c0,0-0.12,0.1-0.3,0.27l-0.06,0.22l1,0.49l-0.38,0.72c-0.02,0.11-0.1,0.25-0.12,0.36
		c-0.05,0.27-0.92,0.28-0.97,0.42h-6.37c0-0.25,0.02-0.47,0.05-0.62c0-0.01,0.01-0.03,0.01-0.04c0.09-0.35,1.24-2.32,1.9-3.46
		c0.26-0.45,0.45-0.76,0.47-0.8l0,0c0.12-0.26,0.24-0.47,0.33-0.52L24,41.12c0,0-0.01-0.09-0.01-0.24l-0.49,0.07
		c0.14-0.04,0.31-0.08,0.49-0.12c-0.01-0.37-0.01-1.01,0.12-1.46c0.02-0.06,0.04-0.13,0.07-0.19c-0.39-1.08,0-2.42,0-2.42
		c0,0.03,0,0.06,0,0.09c0.01,0.01,0.59,0.8,0.96,1.16c0.01-0.01,0.03-0.02,0.05-0.03c0,0,0,0,0.01-0.01l-0.5-0.73
		c0,0,0.28,0.27,0.58,0.68c0.01,0,0.01-0.01,0.02-0.01c0.01-0.01,0.03-0.02,0.05-0.03s0.04-0.02,0.07-0.03
		c0.01-0.01,0.03-0.02,0.05-0.02c0.02-0.01,0.03-0.01,0.05-0.02l-0.41-1.19c0.02,0.03,0.29,0.5,0.53,1.14
		c0.01,0,0.01-0.01,0.02-0.01c0.02-0.01,0.03-0.01,0.05-0.02c0.03-0.01,0.05-0.02,0.08-0.03c0.01-0.01,0.03-0.01,0.05-0.01
		c0.03-0.01,0.05-0.01,0.08-0.02c0.02,0,0.03-0.01,0.05-0.01c0.03-0.01,0.06-0.01,0.09-0.02c0.01,0,0.03,0,0.04-0.01
		c0.03-0.01,0.06-0.01,0.09-0.01c0.01,0,0.02,0,0.04,0c0.03,0,0.07-0.01,0.1-0.01c0.01,0,0.02,0,0.03,0c0.04,0,0.07,0,0.11,0l0,0
		l0,0c0.04,0,0.07,0,0.11,0.01c0.25,0.02,0.49,0.09,0.69,0.19h0.01c0.01,0.01,0.02,0.01,0.03,0.02c0.24-0.06,0.65-0.17,0.96-0.29
		c0.13-0.29,0.25-0.49,0.26-0.52l-0.17,0.48c0.06-0.03,0.12-0.05,0.17-0.08c0,0,0.01,0.18,0,0.41c0.16-0.2,0.29-0.33,0.3-0.34
		l-0.31,0.46c-0.02,0.2-0.05,0.42-0.1,0.59c-0.07,0.19-0.15,0.31-0.21,0.37c0,0.06,0.01,0.13,0.02,0.21
		c0.14-0.06,0.29-0.1,0.46-0.11c-0.16,0.1-0.31,0.19-0.44,0.27c0.04,0.3,0.1,0.6,0.17,0.68c0.14,0.14,0.51,0.49,0.51,0.49h-0.1
		l0.1,0.1c0.52,0.06,1.21,0.15,1.76,0.29l-1.77-0.25C28.89,40.62,28.88,40.65,28.86,40.69z"/>
	<path class="st28" d="M21.54,47.47c0,0,0.97,0.61,1.27,0.61s10.16-0.15,10.48-0.15s0.89-0.09,0.89-0.09l-0.55-0.54l-5.48-0.44
		l-5.13,0.28L21.54,47.47z"/>
	
		<linearGradient id="SVGID_89_" gradientUnits="userSpaceOnUse" x1="34.3334" y1="-39.15" x2="35.5412" y2="-39.15" gradientTransform="matrix(1 0 0 -1 0 4)">
		<stop  offset="0" style="stop-color:#43EB6D"/>
		<stop  offset="1" style="stop-color:#2DFFBD"/>
	</linearGradient>
	<path class="st101" d="M34.46,44.83c0.02-0.18,0.04-0.35,0.05-0.53c0.02-0.17,0.03-0.35,0.05-0.52c0.02-0.17,0.04-0.35,0.06-0.52
		c0.02-0.17,0.04-0.35,0.07-0.52l0,0c0-0.03,0.02-0.05,0.04-0.07c0.16-0.14,0.33-0.28,0.49-0.42h0.01c0.04-0.03,0.1-0.03,0.14,0.01
		c0.04,0.04,0.07,0.07,0.11,0.11l-0.16,0.09c-0.02-0.16-0.05-0.33-0.08-0.49c-0.03-0.17-0.06-0.33-0.08-0.5
		c0.08,0.15,0.14,0.31,0.2,0.47s0.11,0.32,0.15,0.49c0.01,0.05-0.02,0.1-0.07,0.12c-0.03,0.01-0.06,0-0.08-0.02l-0.01-0.01
		c-0.04-0.03-0.08-0.06-0.12-0.1h0.14c-0.15,0.15-0.31,0.3-0.47,0.45l0.04-0.07c-0.02,0.18-0.05,0.35-0.08,0.52
		c-0.03,0.17-0.06,0.35-0.1,0.52c-0.04,0.17-0.08,0.34-0.13,0.51C34.59,44.5,34.54,44.67,34.46,44.83z"/>
	<path class="st102" d="M34.82,42.79c0,0-0.22,1.63-0.36,2.07s-0.62,2.4-0.54,2.48c0.08,0.08,0.26,0.39,0.26,0.5
		c0,0.12-0.57-0.22-0.69-0.33c-0.11-0.11-0.94-2.9-0.94-2.9L34.82,42.79z"/>
	<path class="st102" d="M33.3,46.37c0,0-1.23,1.13-1.41,1.29c-0.19,0.16-1.3,0-1.3,0l0.82-3.06l1.72-0.64L33.3,46.37z"/>
	<path class="st103" d="M31.31,45.23l-0.69,0.25l-2.47,0.89c0,0-0.13-1.71,0-2.2c0.09-0.35,1.24-2.33,1.9-3.46
		c0.26-0.45,0.45-0.76,0.47-0.8l0,0l0.55,3.72l0.1,0.69L31.31,45.23z"/>
	<path class="st103" d="M35.42,42.46l-0.11-0.1c0,0-1.85,1.66-2.66,2.47S31.68,45,31.68,45l-0.55-3.74l-0.28-1.92l1.85,0.43l1.3,0.3
		l0.74,0.17c0,0,0.01,0.03,0.03,0.09c0.07,0.19,0.24,0.67,0.39,1.16C35.27,41.84,35.37,42.2,35.42,42.46z"/>
	<path class="st104" d="M34.43,36.31l0.93-0.67c0,0,0.02,0.7-0.12,1.11s-0.35,0.46-0.35,0.46L34.43,36.31z"/>
	<path class="st104" d="M31.02,35.06c0,0,0.82,1.1,1.14,1.31l-0.84,0.62C31.32,36.99,30.97,35.25,31.02,35.06z"/>
	<path class="st102" d="M33.93,36.09c0,0,1.04-0.25,1.43-0.45c0,0-0.65,0.51-0.86,0.72S33.93,36.09,33.93,36.09z"/>
	<path class="st105" d="M35.65,38.67l0.11,0.1c0,0-0.13,0.48-0.48,0.98l0,0c-0.04,0.05-0.08,0.11-0.12,0.16
		c-0.11,0.14-0.24,0.28-0.39,0.41c-0.01,0.01-0.02,0.02-0.03,0.03c0,0-0.74,0.19-1.24,0.19c-1.18,0-2.21-0.78-2.65-1.21
		c0,0-0.08-1.09,0.11-1.74c0.02-0.06,0.04-0.13,0.07-0.19c0.1-0.26,0.27-0.52,0.49-0.76c0.42-0.47,1.04-0.83,1.78-0.81l0,0
		c0.04,0,0.07,0,0.11,0c0.25,0.02,0.49,0.09,0.69,0.19h0.01c0.57,0.28,0.92,0.76,0.92,0.88c0,0.16,0.08,1.12,0.23,1.27
		c0.14,0.14,0.51,0.49,0.51,0.49h-0.12C35.65,38.66,35.65,38.67,35.65,38.67z"/>
	<path class="st106" d="M34.34,37.95c0,0,0.32,0.39,0.64,0.33s0.07-0.76,0.07-0.76L34.34,37.95z"/>
	<path class="st102" d="M34.43,37.84c0,0.02,0,0.04,0,0.05c0.01,0.15,0.1,0.27,0.2,0.27c0.11,0,0.2-0.15,0.2-0.32
		c0-0.06-0.01-0.12-0.03-0.17c-0.03-0.08-0.04-0.09-0.1-0.11c-0.1,0.09-0.18,0.15-0.23,0.23C34.46,37.8,34.43,37.82,34.43,37.84z"/>
	<circle class="st76" cx="34.83" cy="37.93" r="0.07"/>
	<g>
		<path class="st106" d="M33.5,37.97c0,0-0.16,0.36-0.46,0.46s-0.87-0.58-1.02-1L33.5,37.97z"/>
		<path class="st102" d="M31.51,37.24l0.9,0.33l0.61,0.22l0.48,0.17c0,0-0.16-0.16-0.5-0.32c-0.12-0.06-0.27-0.13-0.45-0.19
			C32.27,37.36,31.92,37.28,31.51,37.24z"/>
		<path class="st102" d="M32.35,37.77c0,0.19,0.15,0.34,0.34,0.34c0.18,0,0.32-0.14,0.34-0.31c0-0.01,0-0.02,0-0.03
			c0-0.04-0.01-0.09-0.02-0.12c-0.12-0.06-0.27-0.13-0.45-0.19c-0.06,0.02-0.11,0.06-0.14,0.11C32.37,37.63,32.35,37.69,32.35,37.77
			z"/>
		<path class="st76" d="M32.82,38.02c0,0.04,0.03,0.07,0.07,0.07s0.07-0.03,0.07-0.07s-0.03-0.07-0.07-0.07S32.82,37.98,32.82,38.02
			z"/>
	</g>
	<g>
		<path class="st107" d="M34.55,38.29c0,0-0.3-0.15-0.49-0.15c-0.18,0-0.28,0.15-0.28,0.15H34.55z"/>
		<path class="st102" d="M34.55,38.29c0-0.04-0.7-0.07-0.76,0c-0.07,0.07,0.27,0.22,0.38,0.22C34.28,38.51,34.55,38.34,34.55,38.29z
			"/>
		<path class="st102" d="M34.72,38.99c0,0-0.39-0.22-0.51-0.22c-0.11,0-0.72,0.31-0.72,0.31s0.63-0.24,0.73-0.24S34.6,39,34.6,39
			l-0.22,0.39C34.39,39.4,34.72,39.08,34.72,38.99z"/>
		<polygon class="st102" points="34.22,38.45 34.22,38.67 34.11,38.48 		"/>
		<path class="st102" d="M34.48,38.32c0,0,0.18,0.26,0.24,0.56c0,0-0.11-0.35-0.3-0.48L34.48,38.32z"/>
	</g>
	<path class="st102" d="M31.93,34.83c0,0,0.77,1.31,0.9,2.6L31.93,34.83z"/>
	<path class="st102" d="M31.54,35.45c0,0,0.82,0.8,1.17,1.71L31.54,35.45z"/>
	<path class="st105" d="M31.54,36.69l-0.52,0.71c-0.4-1.08,0-2.42,0-2.42c-0.06,0.7,0.37,1.46,0.48,1.66
		C31.53,36.67,31.54,36.69,31.54,36.69z"/>
	<path class="st103" d="M32.23,47.63c0.04,0.08,0.03,0.17-0.01,0.17c-0.08,0-3.06,0.09-3.33,0s-0.74-0.8-0.74-0.94v-1.18
		c0-0.17,0.55-0.44,0.55-0.44s0.93-0.45,1.78-0.73c0.25-0.08,0.49-0.14,0.69-0.18c0.23-0.04,0.41-0.04,0.54,0.01
		c0.65,0.25,0.66,1.62,0.53,2.15c-0.05,0.22-0.3,0.45-0.57,0.65c-0.39,0.29-0.84,0.5-0.84,0.5s0.93-0.15,1.18-0.15l0,0
		C32.13,47.49,32.2,47.56,32.23,47.63z"/>
	<path class="st103" d="M28.31,46.85c0,0-0.78,1.01-1.09,1.01s-2.22-0.3-2.56-0.3c-0.33,0-1.47,0.3-1.98,0.3s-1.51-0.59-1.51-0.59
		s0.04-0.14,0.11-0.3c0.06-0.13,0.14-0.29,0.26-0.4c0.25-0.25,2.11-0.37,2.11-0.37l-0.34-0.36l2.28,0.75c0,0,1.7,0.25,1.79,0.17
		c0.02-0.01,0.05-0.05,0.1-0.09c0.22-0.2,0.69-0.61,0.69-0.61L28.31,46.85z"/>
	<path class="st102" d="M32.88,38.8c0,0-1.73,0.11-2.54,0.36L32.88,38.8z"/>
	<path class="st102" d="M32.85,38.86c0,0-1.3,0.26-2.04,0.62L32.85,38.86z"/>
	<path class="st108" d="M34.77,40.32c0.07,0.19,0.24,0.67,0.39,1.16c-0.82,0.22-2.24,0.57-2.77,0.57c-0.31,0-0.8-0.37-1.26-0.8
		l-0.28-1.92c0,0-0.08-1.09,0.11-1.74c0.02-0.06,0.04-0.13,0.07-0.19c-0.4-1.08,0-2.42,0-2.42c-0.06,0.7,0.37,1.46,0.48,1.66
		c0.44-0.49,1.1-0.86,1.9-0.8c0.25,0.02,0.49,0.09,0.69,0.19c-0.05-0.01-0.52-0.12-1.14,0.2c-0.66,0.34-1.13,1.94-1.13,2.58
		c0,0.39,0.43,0.72,0.87,0.96c0.28,0.15,0.56,0.25,0.74,0.3c0.13,0.04,0.34,0.03,0.56,0c0.57-0.08,1.28-0.31,1.28-0.31l0,0
		C35.14,39.95,34.97,40.15,34.77,40.32z"/>
	<path class="st105" d="M32.98,47.81c0,0.13-0.42-0.01-0.74-0.19c-0.04-0.02-0.07-0.04-0.11-0.06c-0.03-0.02-0.07-0.05-0.1-0.08l0,0
		c-0.09-0.08-0.21-0.21-0.34-0.35c-0.39-0.45-0.87-1.08-0.95-1.17c-0.02-0.03-0.06-0.21-0.11-0.49c-0.04-0.26-0.09-0.6-0.14-0.98
		c-0.16-1.26-0.34-2.92-0.34-3.25c0-0.05,0-0.11,0.01-0.17c0.04-0.33,0.2-0.8,0.36-1.17l0,0c0.14-0.31,0.28-0.54,0.37-0.54
		c0.08,0,0.35,0.41,0.65,0.96l0,0l0,0l0.02,0.03c0.48,0.88,1.05,2.1,1.15,2.57c0.01,0.06,0.02,0.14,0.03,0.24
		c0.03,0.54-0.05,1.57-0.12,2.47c-0.07,0.89-0.14,1.66-0.1,1.69C32.6,47.43,32.98,47.67,32.98,47.81z"/>
	<path class="st108" d="M32.98,47.81c0,0.13-0.42-0.01-0.74-0.19c0.04,0.08,0.03,0.17-0.01,0.17c-0.08,0-3.06,0.09-3.33,0
		s-0.74-0.8-0.74-0.94v-0.49c0,0-0.13-1.71,0-2.2c0.09-0.35,1.24-2.33,1.9-3.46c0.03,0.09,0.07,0.22,0.11,0.37
		c0.26,0.86,0.75,2.44,0.85,2.54c0.01,0.01,0.03,0.01,0.06,0.01c0.32-0.01,1.63-0.69,1.63-0.69l0.03,0.24
		c0.06,1.09-0.3,4.08-0.22,4.16C32.6,47.43,32.98,47.67,32.98,47.81z"/>
	<path class="st105" d="M27.49,46.67c-0.16,0.34-0.37,0.69-0.57,0.69c-0.39,0-2.08-0.22-2.3-0.22s-1.89,0.49-2.11,0.49
		c-0.18,0-0.94-0.47-1.22-0.66c0.06-0.13,0.14-0.29,0.26-0.4c0.25-0.25,2.11-0.37,2.11-0.37l-0.34-0.36l2.28,0.75
		c0,0,1.7,0.25,1.79,0.17C27.41,46.75,27.44,46.72,27.49,46.67z"/>
	
		<linearGradient id="SVGID_90_" gradientUnits="userSpaceOnUse" x1="32.9775" y1="-39.545" x2="35.0039" y2="-39.545" gradientTransform="matrix(1 0 0 -1 0 4)">
		<stop  offset="0" style="stop-color:#43EB6D"/>
		<stop  offset="1" style="stop-color:#2DFFBD"/>
	</linearGradient>
	<polygon class="st109" points="32.98,44.48 35,42.61 34.94,42.84 	"/>
	
		<linearGradient id="SVGID_91_" gradientUnits="userSpaceOnUse" x1="31.5425" y1="-39.19" x2="32.7393" y2="-39.19" gradientTransform="matrix(1 0 0 -1 0 4)">
		<stop  offset="0" style="stop-color:#43EB6D"/>
		<stop  offset="1" style="stop-color:#2DFFBD"/>
	</linearGradient>
	<path class="st110" d="M32.62,45.65l-0.06,0.39c0,0,0.18-2.45,0.09-3.02c-0.09-0.56-1.06-2.6-1.1-2.68l0.02,0.03
		c0.48,0.88,1.05,2.1,1.15,2.57c0.01,0.06,0.02,0.14,0.03,0.24C32.76,43.73,32.69,44.75,32.62,45.65z"/>
	
		<linearGradient id="SVGID_92_" gradientUnits="userSpaceOnUse" x1="33.2962" y1="-33.87" x2="35.7513" y2="-33.87" gradientTransform="matrix(1 0 0 -1 0 4)">
		<stop  offset="0" style="stop-color:#43EB6D"/>
		<stop  offset="1" style="stop-color:#2DFFBD"/>
	</linearGradient>
	<path class="st111" d="M35.65,38.67l0.11,0.1c0,0-0.13,0.48-0.48,0.98l0,0c-0.04,0.05-0.08,0.11-0.12,0.16
		c0.36-0.6,0.43-1.24,0.43-1.24s-0.29-0.32-0.43-0.49C35,38,35,37.12,34.99,36.99c-0.01-0.2-0.25-0.38-0.65-0.72
		c-0.37-0.31-0.97-0.42-1.04-0.44c0.04,0,0.07,0,0.11,0c0.25,0.02,0.49,0.09,0.69,0.19h0.01c0.57,0.28,0.92,0.76,0.92,0.88
		c0,0.16,0.08,1.12,0.23,1.27c0.14,0.14,0.51,0.49,0.51,0.49L35.65,38.67L35.65,38.67z"/>
	
		<linearGradient id="SVGID_93_" gradientUnits="userSpaceOnUse" x1="34.97" y1="-34.88" x2="37.5135" y2="-34.88" gradientTransform="matrix(1 0 0 -1 0 4)">
		<stop  offset="0" style="stop-color:#43EB6D"/>
		<stop  offset="1" style="stop-color:#2DFFBD"/>
	</linearGradient>
	<path class="st112" d="M34.97,38.7c0,0,1.51,0.1,2.54,0.36L34.97,38.7z"/>
	
		<linearGradient id="SVGID_94_" gradientUnits="userSpaceOnUse" x1="35.0039" y1="-35.06" x2="37.0486" y2="-35.06" gradientTransform="matrix(1 0 0 -1 0 4)">
		<stop  offset="0" style="stop-color:#43EB6D"/>
		<stop  offset="1" style="stop-color:#2DFFBD"/>
	</linearGradient>
	<path class="st113" d="M35,38.75c0,0,1.44,0.25,2.04,0.62L35,38.75z"/>
	<path class="st102" d="M35.36,35.23c0,0-0.59,1-0.69,1.98L35.36,35.23z"/>
	<path class="st102" d="M35.66,35.71c0,0-0.62,0.61-0.89,1.31L35.66,35.71z"/>
	<path class="st102" d="M34.34,37.95c0.25-0.15,0.64-0.39,1.17-0.72C35,37.24,34.62,37.56,34.34,37.95z"/>
</g>
<g>
	
		<linearGradient id="SVGID_95_" gradientUnits="userSpaceOnUse" x1="85.4854" y1="-19.11" x2="89.1132" y2="-19.11" gradientTransform="matrix(1 0 0 -1 0 4)">
		<stop  offset="0" style="stop-color:#F3D5C9"/>
		<stop  offset="1" style="stop-color:#F3CCAD"/>
	</linearGradient>
	<path class="st114" d="M89.11,23.11c0,0.08-0.81,0.15-1.81,0.15s-1.81-0.07-1.81-0.15s0.81-0.15,1.81-0.15
		C88.3,22.96,89.11,23.03,89.11,23.11z"/>
	
		<linearGradient id="SVGID_96_" gradientUnits="userSpaceOnUse" x1="86.8021" y1="-18.455" x2="87.9821" y2="-18.455" gradientTransform="matrix(1 0 0 -1 0 4)">
		<stop  offset="0" style="stop-color:#F3D5C9"/>
		<stop  offset="1" style="stop-color:#F3CCAD"/>
	</linearGradient>
	<polygon class="st115" points="86.8,23.11 87.17,21.8 87.87,21.86 87.98,23.11 	"/>
	<g>
		<g>
			<g>
				<g>
					<defs>
						<polygon id="SVGID_97_" points="7,-1 8,-1 7,0 						"/>
					</defs>
					<clipPath id="SVGID_98_">
						<use xlink:href="#SVGID_97_"  style="overflow:visible;"/>
					</clipPath>
				</g>
				<g>
					<defs>
						<polygon id="SVGID_99_" points="7,-1 8,-1 7,0 						"/>
					</defs>
					<defs>
						<polygon id="SVGID_100_" points="5,-3 4,-3 5,-4 						"/>
					</defs>
					<clipPath id="SVGID_101_">
						<use xlink:href="#SVGID_99_"  style="overflow:visible;"/>
					</clipPath>
					<clipPath id="SVGID_102_" class="st116">
						<use xlink:href="#SVGID_100_"  style="overflow:visible;"/>
					</clipPath>
					
						<radialGradient id="SVGID_103_" cx="88.221" cy="-15.3665" r="4.4872" gradientTransform="matrix(1 0 0 -1 0 4)" gradientUnits="userSpaceOnUse">
						<stop  offset="0" style="stop-color:#666666"/>
						<stop  offset="0.1332" style="stop-color:#6B6B6B"/>
						<stop  offset="0.302" style="stop-color:#7B7B7B"/>
						<stop  offset="0.49" style="stop-color:#959595"/>
						<stop  offset="0.692" style="stop-color:#B9B9B9"/>
						<stop  offset="0.9028" style="stop-color:#E7E7E7"/>
						<stop  offset="1" style="stop-color:#FFFFFF"/>
					</radialGradient>
					<path class="st117" d="M90.09,19.51c0,1.35-1.09,2.44-2.44,2.44c-1.35,0-2.44-1.09-2.44-2.44c0-0.13,0.01-0.25,0.03-0.37
						c0.18-1.17,1.19-2.07,2.41-2.07c1.32,0,2.39,1.04,2.44,2.35C90.09,19.44,90.09,19.47,90.09,19.51z"/>
				</g>
			</g>
		</g>
	</g>
	
		<radialGradient id="SVGID_104_" cx="88.221" cy="-15.3665" r="4.4872" gradientTransform="matrix(1 0 0 -1 0 4)" gradientUnits="userSpaceOnUse">
		<stop  offset="0" style="stop-color:#2DFFBD"/>
		<stop  offset="0.1972" style="stop-color:#2FFEB8"/>
		<stop  offset="0.4471" style="stop-color:#33FAA8"/>
		<stop  offset="0.724" style="stop-color:#3AF38E"/>
		<stop  offset="1" style="stop-color:#43EB6D"/>
	</radialGradient>
	<path class="st118" d="M90.09,19.51c0,1.35-1.09,2.44-2.44,2.44c-1.35,0-2.44-1.09-2.44-2.44c0-0.13,0.01-0.25,0.03-0.37
		c0.18-1.17,1.19-2.07,2.41-2.07c1.32,0,2.39,1.04,2.44,2.35C90.09,19.44,90.09,19.47,90.09,19.51z"/>
	<g>
		<g>
			<g>
				<g>
					<defs>
						<polygon id="SVGID_105_" points="7,-1 8,-1 7,0 						"/>
					</defs>
					<clipPath id="SVGID_106_">
						<use xlink:href="#SVGID_105_"  style="overflow:visible;"/>
					</clipPath>
				</g>
				<g>
					<defs>
						<polygon id="SVGID_107_" points="7,-1 8,-1 7,0 						"/>
					</defs>
					<defs>
						<polygon id="SVGID_108_" points="5,-3 4,-3 5,-4 						"/>
					</defs>
					<clipPath id="SVGID_109_">
						<use xlink:href="#SVGID_107_"  style="overflow:visible;"/>
					</clipPath>
					<clipPath id="SVGID_110_" class="st119">
						<use xlink:href="#SVGID_108_"  style="overflow:visible;"/>
					</clipPath>
					
						<radialGradient id="SVGID_111_" cx="87.9095" cy="-15.9695" r="2.0819" gradientTransform="matrix(1 0 0 -1 0 4)" gradientUnits="userSpaceOnUse">
						<stop  offset="0" style="stop-color:#666666"/>
						<stop  offset="0.1332" style="stop-color:#6B6B6B"/>
						<stop  offset="0.302" style="stop-color:#7B7B7B"/>
						<stop  offset="0.49" style="stop-color:#959595"/>
						<stop  offset="0.692" style="stop-color:#B9B9B9"/>
						<stop  offset="0.9028" style="stop-color:#E7E7E7"/>
						<stop  offset="1" style="stop-color:#FFFFFF"/>
					</radialGradient>
					<path class="st120" d="M85.73,21.02c0.84,1.06,2.37,1.24,3.43,0.4s1.24-2.37,0.4-3.43C89.56,17.99,89.73,22.25,85.73,21.02z"/>
				</g>
			</g>
		</g>
	</g>
	
		<radialGradient id="SVGID_112_" cx="87.9095" cy="-15.9695" r="2.0819" gradientTransform="matrix(1 0 0 -1 0 4)" gradientUnits="userSpaceOnUse">
		<stop  offset="0" style="stop-color:#2DFFBD"/>
		<stop  offset="0.1972" style="stop-color:#2FFEB8"/>
		<stop  offset="0.4471" style="stop-color:#33FAA8"/>
		<stop  offset="0.724" style="stop-color:#3AF38E"/>
		<stop  offset="1" style="stop-color:#43EB6D"/>
	</radialGradient>
	<path class="st121" d="M85.73,21.02c0.84,1.06,2.37,1.24,3.43,0.4s1.24-2.37,0.4-3.43C89.56,17.99,89.73,22.25,85.73,21.02z"/>
	
		<radialGradient id="SVGID_113_" cx="87.6463" cy="-15.5061" r="0.4338" gradientTransform="matrix(1 0 0 -1 0 4)" gradientUnits="userSpaceOnUse">
		<stop  offset="0" style="stop-color:#EE666D"/>
		<stop  offset="1" style="stop-color:#910025"/>
	</radialGradient>
	<circle class="st122" cx="87.65" cy="19.51" r="0.43"/>
	<g>
		<g class="st123">
			<path class="st124" d="M88.09,19.43l-0.03-0.06c0.03-0.02,0.85-0.4,1.17-0.4c0.3,0,0.6-0.5,0.6-0.51l0.05,0.03
				c-0.01,0.02-0.32,0.54-0.65,0.54C88.93,19.04,88.1,19.43,88.09,19.43z"/>
		</g>
		<g class="st123">
			<path class="st124" d="M88.01,19.25l-0.05-0.04c0,0,0.36-0.48,0.7-0.83c0.34-0.34,0.37-0.87,0.37-0.87h0.06
				c0,0.02-0.03,0.56-0.39,0.91C88.36,18.77,88.01,19.24,88.01,19.25z"/>
		</g>
		<g class="st123">
			<path class="st124" d="M87.71,19.1c0,0-0.24-0.37,0.06-0.75c0.28-0.34-0.21-1.26-0.21-1.27l0.06-0.03
				c0.02,0.04,0.51,0.97,0.21,1.34c-0.27,0.34-0.06,0.67-0.06,0.67L87.71,19.1z"/>
		</g>
		<g class="st123">
			<path class="st124" d="M85.42,20.46l-0.05-0.03c0.01-0.02,0.28-0.46,0.65-0.68c0.37-0.22,1.17-0.18,1.2-0.17v0.06
				c-0.01,0-0.81-0.04-1.16,0.17C85.69,20.01,85.42,20.45,85.42,20.46z"/>
		</g>
		<g class="st123">
			<path class="st124" d="M86.65,21.73l-0.06-0.01c0.01-0.04,0.17-1.02,0.44-1.3c0.26-0.26,0.41-0.49,0.41-0.5l0.05,0.03
				c0,0-0.15,0.24-0.42,0.51C86.82,20.72,86.65,21.72,86.65,21.73z"/>
		</g>
		<g class="st123">
			<path class="st124" d="M88.46,21.82c-0.03-0.04-0.67-0.9-0.5-1.3c0.15-0.36-0.22-0.56-0.24-0.57l0.03-0.06
				c0,0,0.43,0.24,0.26,0.65c-0.15,0.36,0.49,1.23,0.49,1.23L88.46,21.82z"/>
		</g>
		<g class="st123">
			<path class="st124" d="M89.86,20.56c-0.03,0-0.63-0.07-0.91-0.35c-0.3-0.3-0.58-0.51-0.64-0.51h-0.26v-0.06h0.26
				c0.11,0,0.47,0.32,0.68,0.53c0.26,0.26,0.87,0.33,0.87,0.33V20.56z"/>
		</g>
		<g class="st123">
			<path class="st124" d="M87.28,19.22c0,0-0.11-0.11-0.35-0.11c-0.29,0-0.42-0.3-0.53-0.54c-0.09-0.2-0.7-0.16-0.93-0.13
				l-0.01-0.06c0.09-0.01,0.87-0.1,0.99,0.17c0.12,0.28,0.24,0.5,0.47,0.5c0.27,0,0.39,0.12,0.4,0.13L87.28,19.22z"/>
		</g>
	</g>
	<path class="st76" d="M86.79,18.66c-0.23,0.4-0.62,0.61-0.86,0.47c-0.25-0.14-0.26-0.58-0.03-0.98s0.62-0.61,0.86-0.47
		C87.01,17.82,87.02,18.26,86.79,18.66z"/>
	<path class="st87" d="M89.45,21.03c-0.18,0.26-0.45,0.39-0.61,0.28c-0.16-0.11-0.15-0.41,0.03-0.67s0.45-0.39,0.61-0.28
		C89.63,20.46,89.62,20.76,89.45,21.03z"/>
	<path class="st76" d="M86.13,19.75c0.02,0.23-0.08,0.43-0.22,0.44s-0.27-0.16-0.3-0.39c-0.02-0.23,0.08-0.43,0.22-0.44
		C85.97,19.34,86.11,19.51,86.13,19.75z"/>
</g>
<rect class="st125" width="100" height="50"/>
</svg>
