<?xml version="1.0" encoding="utf-8"?>
<!-- Generator: Adobe Illustrator 23.0.3, SVG Export Plug-In . SVG Version: 6.00 Build 0)  -->
<svg version="1.1" id="witch" xmlns="http://www.w3.org/2000/svg" xmlns:xlink="http://www.w3.org/1999/xlink" x="0px" y="0px"
	 viewBox="0 0 100 50" style="enable-background:new 0 0 100 50;" xml:space="preserve">
<style type="text/css">
	.st0{fill:url(#SVGID_1_);}
	.st1{opacity:0.5;fill:#313131;enable-background:new    ;}
	.st2{fill:#D0BFBE;}
	.st3{opacity:0.6;fill:#313131;enable-background:new    ;}
	.st4{opacity:0.33;fill:#313131;enable-background:new    ;}
	.st5{opacity:0.54;fill:#313131;enable-background:new    ;}
	.st6{fill:#F1E4DC;}
	.st7{fill:url(#SVGID_2_);}
	.st8{opacity:0.2;}
	.st9{fill:#3A275E;}
	.st10{opacity:0.45;fill:#313131;enable-background:new    ;}
	.st11{opacity:0.23;fill:#313131;enable-background:new    ;}
	.st12{opacity:0.23;enable-background:new    ;}
	.st13{clip-path:url(#SVGID_7_);}
	.st14{clip-path:url(#SVGID_8_);fill:url(#SVGID_9_);}
	.st15{fill:url(#SVGID_10_);}
	.st16{fill:#42151F;}
	.st17{fill:url(#SVGID_11_);}
	.st18{fill:url(#SVGID_12_);}
	.st19{fill:url(#SVGID_13_);}
	.st20{fill:url(#SVGID_14_);}
	.st21{fill:url(#SVGID_15_);}
	.st22{fill:url(#SVGID_16_);}
	.st23{opacity:0.3;fill:#FFFFFF;enable-background:new    ;}
	.st24{fill:url(#SVGID_17_);}
	.st25{fill:url(#SVGID_18_);}
	.st26{fill:url(#SVGID_19_);}
	.st27{fill:url(#SVGID_20_);}
	.st28{opacity:0.65;fill:#313131;enable-background:new    ;}
	.st29{fill:url(#SVGID_21_);}
	.st30{fill:url(#SVGID_22_);}
	.st31{fill:url(#SVGID_23_);}
	.st32{fill:#155168;}
	.st33{fill:#8A011B;}
	.st34{fill:#8CA4AF;}
	.st35{fill:#5F8090;}
	.st36{fill:#FFBB15;}
	.st37{fill:#CD4331;}
	.st38{fill:#75113B;}
	.st39{fill:#6E424F;}
	.st40{fill:#A6BC00;}
	.st41{fill:#FFD6CC;}
	.st42{opacity:0.26;fill:#313131;enable-background:new    ;}
	.st43{opacity:0.28;fill:#313131;enable-background:new    ;}
	.st44{fill:url(#SVGID_24_);}
	.st45{fill:url(#SVGID_25_);}
	.st46{clip-path:url(#SVGID_30_);}
	.st47{clip-path:url(#SVGID_31_);fill:url(#SVGID_32_);}
	.st48{opacity:0.5;fill:url(#SVGID_33_);enable-background:new    ;}
	.st49{fill:url(#SVGID_34_);}
	.st50{fill:url(#SVGID_35_);}
	.st51{clip-path:url(#SVGID_40_);}
	.st52{clip-path:url(#SVGID_41_);fill:url(#SVGID_42_);}
	.st53{opacity:0.5;fill:url(#SVGID_43_);enable-background:new    ;}
	.st54{fill:url(#SVGID_44_);}
	.st55{opacity:0.8;fill:#FFFFFF;enable-background:new    ;}
	.st56{opacity:0.5;fill:url(#SVGID_45_);enable-background:new    ;}
	.st57{fill:url(#SVGID_46_);}
	.st58{fill:url(#SVGID_47_);}
	.st59{clip-path:url(#SVGID_52_);}
	.st60{clip-path:url(#SVGID_53_);fill:url(#SVGID_54_);}
	.st61{opacity:0.5;fill:url(#SVGID_55_);enable-background:new    ;}
	.st62{fill:url(#SVGID_56_);}
	.st63{fill:url(#SVGID_57_);}
	.st64{fill:#571123;}
	.st65{opacity:0.62;fill:url(#SVGID_58_);enable-background:new    ;}
	.st66{opacity:0.55;fill:#FFF6D6;enable-background:new    ;}
	.st67{opacity:0.53;fill:#7A1D23;enable-background:new    ;}
	.st68{opacity:0.62;fill:url(#SVGID_59_);enable-background:new    ;}
	.st69{opacity:0.62;fill:url(#SVGID_60_);enable-background:new    ;}
	.st70{fill:#FFF6D6;}
	.st71{opacity:0.2;fill:#FFF6D6;enable-background:new    ;}
	.st72{fill:url(#SVGID_61_);}
	.st73{fill:#004245;}
	.st74{fill:url(#SVGID_62_);}
	.st75{opacity:0.25;fill:#313131;enable-background:new    ;}
	.st76{fill:#FFFFFF;}
	.st77{fill:url(#SVGID_63_);}
	.st78{fill:#5FA9B1;}
	.st79{fill:#D6CACA;}
	.st80{fill:#FFF493;}
	.st81{opacity:0.39;fill:url(#SVGID_64_);enable-background:new    ;}
	.st82{opacity:0.41;fill:#313131;enable-background:new    ;}
	.st83{fill:#42153B;}
	.st84{fill:url(#SVGID_65_);}
	.st85{fill:url(#SVGID_66_);}
	.st86{opacity:0.53;fill:#313131;enable-background:new    ;}
	.st87{opacity:0.1;fill:#F1E4DC;enable-background:new    ;}
	.st88{fill:#6A2C2E;}
	.st89{fill:url(#SVGID_67_);}
	.st90{clip-path:url(#SVGID_72_);}
	.st91{clip-path:url(#SVGID_73_);fill:url(#SVGID_74_);}
	.st92{fill:url(#SVGID_75_);}
	.st93{fill:url(#SVGID_76_);}
	.st94{fill:url(#SVGID_77_);}
	.st95{fill:#2E1522;}
	.st96{fill:#331A26;}
	.st97{fill:#CC5A70;}
	.st98{fill:#3C2430;}
	.st99{fill:#FFC423;}
	.st100{fill:#4C3837;}
	.st101{opacity:0.15;fill:#313131;enable-background:new    ;}
	.st102{fill:url(#SVGID_78_);}
	.st103{fill:url(#SVGID_79_);}
	.st104{fill:url(#SVGID_80_);}
	.st105{fill:url(#SVGID_81_);}
	.st106{fill:url(#SVGID_82_);}
	.st107{fill:none;}
</style>
<g>
	
		<linearGradient id="SVGID_1_" gradientUnits="userSpaceOnUse" x1="0" y1="111.81" x2="100" y2="111.81" gradientTransform="matrix(1 0 0 1 0 -66)">
		<stop  offset="0" style="stop-color:#C1919C"/>
		<stop  offset="1" style="stop-color:#84778D"/>
	</linearGradient>
	<rect y="41.6" class="st0" width="100" height="8.4"/>
	<path class="st1" d="M69.9,42.7h0.2l28.7,0l0,0l1.3,0.6v-0.2l-0.9-0.4h0.9v-0.2h-1.4h-0.4H69.8l-1.2-1h-0.1l1.1,1h-21h-0.2H24.2H24
		H0v0l23.8,0l0,0H24l24.4,0l-1.2,1.7l-28,0.1h-0.3L0,44.6v0.1l18.5-0.1L13,46.7H0v0.1l12.5,0h0.4l32.4,0L43,50h0.4l2.2-3l29.3,0h0.3
		l24.9,0v-0.3H75l-2.9-2.3l28.1-0.1v-0.2l-28.3,0.1h-0.2l-24.3,0.1l1.2-1.7L69.9,42.7z M71.9,44.4l2.8,2.3H45.8h-0.3H13.3l5.5-2.1
		L47,44.5h0.3L71.9,44.4z"/>
	<polygon class="st2" points="43.4,50 45.6,47 100.2,47 45.8,47 43.8,50 	"/>
	<polygon class="st2" points="13.3,46.7 18.8,44.6 71.9,44.4 18.9,44.7 13.6,46.7 	"/>
	<polygon class="st2" points="75,46.7 72.1,44.4 100.2,44.3 72.5,44.5 75.2,46.7 	"/>
	<polygon class="st2" points="47.4,44.4 48.6,42.7 98.7,42.8 48.7,42.8 47.7,44.4 	"/>
	<polygon class="st3" points="43,50 45.2,47 0,46.9 0,50 	"/>
	<polygon class="st3" points="100.2,46.7 75,46.7 72.1,44.4 100.2,44.3 	"/>
	<polygon class="st3" points="0,44.6 47.1,44.4 48.4,42.7 0,42.6 	"/>
	<polygon class="st4" points="74.7,46.7 71.9,44.4 47.7,44.5 71.5,44.6 73,46 58.1,46.1 73.2,46.2 73.6,46.5 63.8,46.7 	"/>
	<polygon class="st4" points="100.2,50 100.2,47 45.6,47 97.2,47.3 98.4,48.4 76.4,48.5 100.2,48.9 100.2,49.8 45.6,50 	"/>
	<polygon class="st4" points="98.7,42.8 82.2,42.8 98.7,42.9 100.2,44 84.4,44.2 100.2,44.1 100.2,43.5 	"/>
</g>
<polygon class="st5" points="92.4,41.6 90.3,49.4 15.4,48.5 16.8,40.6 0,41.1 0,50 100,50 100,41.6 "/>
<polygon class="st6" points="100,40.5 100,41.6 18.8,41.6 18.8,41.1 28.3,41 34.8,41 "/>
<g>
	
		<linearGradient id="SVGID_2_" gradientUnits="userSpaceOnUse" x1="50.005" y1="107.06" x2="50.005" y2="65.98" gradientTransform="matrix(1 0 0 1 0 -66)">
		<stop  offset="0" style="stop-color:#636D8B"/>
		<stop  offset="1" style="stop-color:#745072"/>
	</linearGradient>
	<polygon class="st7" points="100,40.4 0,41.1 0,0 100,0 	"/>
	<polygon class="st5" points="0,41.1 8.6,41 13.1,2.9 86.2,4.8 92,40.5 100,40.4 100,0 0,0 	"/>
	<g class="st8">
		<g>
			
				<rect x="49.9" y="-41" transform="matrix(2.619887e-02 -0.9997 0.9997 2.619887e-02 39.637 58.7991)" class="st9" width="0.1" height="100"/>
		</g>
		<g>
			<rect x="0" y="12.3" class="st9" width="100" height="0.1"/>
		</g>
		<g>
			
				<rect x="50.1" y="-27.6" transform="matrix(2.000000e-02 -0.9998 0.9998 2.000000e-02 26.6169 72.1693)" class="st9" width="0.1" height="100.2"/>
		</g>
		<g>
			
				<rect x="0" y="32.8" transform="matrix(0.9997 -2.559929e-02 2.559929e-02 0.9997 -0.8236 1.294)" class="st9" width="100.3" height="0.1"/>
		</g>
	</g>
	<polygon class="st10" points="1.9,12.8 1.9,14.6 13.1,14.4 13.1,13.1 	"/>
	<polygon class="st11" points="9.3,15.2 9.3,16.6 20.4,16.5 20.4,15.1 	"/>
	<polygon class="st11" points="13.8,13 13.8,14.4 25,14.8 25,12.9 	"/>
	<polygon class="st11" points="21.1,9.1 21.1,10.6 32.3,10.9 32.3,9.1 	"/>
	<polygon class="st11" points="32.8,9.1 32.8,10.9 44,10.9 44,9.3 	"/>
	<polygon class="st10" points="73.8,16.1 73.8,17.9 85,17.9 85,16.3 	"/>
	<polygon class="st12" points="78.4,18.4 78.4,20.2 89.6,20.2 89.8,19 	"/>
	<polygon class="st12" points="72.8,35.9 72.8,37 84.2,37.3 84.1,35.8 	"/>
	<polygon class="st12" points="35,24.8 35,26.6 46.1,26.6 46.3,25.4 	"/>
	<polygon class="st10" points="79.6,34 79.6,35.2 90.7,35.2 90.7,34.1 	"/>
	<polygon class="st11" points="41.7,27.2 41.7,28.6 52.9,28.5 52.9,27.5 	"/>
	<polygon class="st12" points="26.7,6.2 27.1,8 37.7,8 37.9,6.5 	"/>
	<polygon class="st11" points="77.5,6.2 77.5,7.6 88.6,7.5 88.6,6.5 	"/>
	<polygon class="st11" points="6,36.1 6,37.4 17.2,37.3 17.2,36.3 	"/>
	<polygon class="st11" points="1.1,0 1.1,8.7 17.9,9.1 2.6,9.3 2.9,18.6 25,19.4 15.5,19.4 15.8,24.8 26.7,25 7.5,25.7 7.8,27.9 
		19.4,28.6 4.5,29.1 4.8,38 28.5,39.1 13.1,39.1 13.1,41 0,41.1 0,0 	"/>
	<polygon class="st11" points="95.5,0 95.5,2.9 76.7,2.9 95,4.4 95.5,8.7 83.8,8.7 92.7,9.4 93,11.5 78.4,12.4 91,13.3 91.8,21.1 
		69.1,21.5 94.1,22.5 94.9,30 77.5,30.7 88.9,31.2 90.7,40.2 65.6,40.7 100,40.4 100,0 	"/>
</g>
<g>
	<g>
		<g>
			<g>
				<g>
					<defs>
						<polygon id="SVGID_3_" points="1,1 2,1 1,2 						"/>
					</defs>
					<clipPath id="SVGID_4_">
						<use xlink:href="#SVGID_3_"  style="overflow:visible;"/>
					</clipPath>
				</g>
				<g>
					<defs>
						<polygon id="SVGID_5_" points="1,1 2,1 1,2 						"/>
					</defs>
					<defs>
						<polygon id="SVGID_6_" points="-1,-1 -2,-1 -1,-2 						"/>
					</defs>
					<clipPath id="SVGID_7_">
						<use xlink:href="#SVGID_5_"  style="overflow:visible;"/>
					</clipPath>
					<clipPath id="SVGID_8_" class="st13">
						<use xlink:href="#SVGID_6_"  style="overflow:visible;"/>
					</clipPath>
					
						<linearGradient id="SVGID_9_" gradientUnits="userSpaceOnUse" x1="15.72" y1="108.19" x2="15.72" y2="72.14" gradientTransform="matrix(1 0 0 1 0 -66)">
						<stop  offset="0" style="stop-color:#FFFFFF"/>
						<stop  offset="1" style="stop-color:#000000"/>
					</linearGradient>
					<polygon class="st14" points="9.2,6.1 22.2,6.2 21.5,42.2 21.9,6.5 					"/>
				</g>
			</g>
		</g>
	</g>
</g>
<g>
	<polygon class="st5" points="5,13 2.2,14.1 0.3,46 7.4,48 17.3,48.1 16.2,45.5 	"/>
	<g>
		
			<linearGradient id="SVGID_10_" gradientUnits="userSpaceOnUse" x1="6.765" y1="113.5" x2="6.765" y2="112.61" gradientTransform="matrix(1 0 0 1 0 -66)">
			<stop  offset="0" style="stop-color:#822717"/>
			<stop  offset="0.9946" style="stop-color:#700C26"/>
		</linearGradient>
		<polygon class="st15" points="7.4,46.6 6.9,47.5 6.4,47.5 6.2,46.6 		"/>
		<polygon class="st16" points="6.4,47.5 6.2,47.5 5.7,46.6 6.2,46.6 		"/>
		
			<linearGradient id="SVGID_11_" gradientUnits="userSpaceOnUse" x1="15.435" y1="113.5" x2="15.435" y2="112.61" gradientTransform="matrix(1 0 0 1 0 -66)">
			<stop  offset="0" style="stop-color:#822717"/>
			<stop  offset="0.9946" style="stop-color:#700C26"/>
		</linearGradient>
		<polygon class="st17" points="16,46.6 15.5,47.5 15.1,47.5 14.8,46.6 		"/>
		<polygon class="st16" points="15.1,47.5 14.8,47.5 14.3,46.6 14.8,46.6 		"/>
		
			<linearGradient id="SVGID_12_" gradientUnits="userSpaceOnUse" x1="12.72" y1="113.19" x2="12.72" y2="77.14" gradientTransform="matrix(1 0 0 1 0 -66)">
			<stop  offset="0" style="stop-color:#E77231"/>
			<stop  offset="0.9946" style="stop-color:#9C3536"/>
		</linearGradient>
		<polygon class="st18" points="6.8,47.2 6.2,11.1 19.2,11.2 18.5,47.2 		"/>
		<polygon class="st16" points="7.8,46.3 6.8,12 18.6,12.4 18,46.3 		"/>
		<polygon class="st16" points="6.2,11.1 4.5,12 5.6,46.9 6.8,47.2 		"/>
		
			<linearGradient id="SVGID_13_" gradientUnits="userSpaceOnUse" x1="17.6" y1="112.35" x2="17.6" y2="78.31" gradientTransform="matrix(1 0 0 1 0 -66)">
			<stop  offset="0" style="stop-color:#822717"/>
			<stop  offset="0.9946" style="stop-color:#700C26"/>
		</linearGradient>
		<polygon class="st19" points="16.8,12.3 16.6,46.3 18,46.3 18.6,12.4 		"/>
		
			<linearGradient id="SVGID_14_" gradientUnits="userSpaceOnUse" x1="6.97" y1="84.55" x2="18.52" y2="84.55" gradientTransform="matrix(1 0 0 1 0 -66)">
			<stop  offset="0" style="stop-color:#E77231"/>
			<stop  offset="0.9946" style="stop-color:#9C3536"/>
		</linearGradient>
		<polygon class="st20" points="7,18.2 18.5,18.3 18.5,18.9 7,18.9 		"/>
		
			<linearGradient id="SVGID_15_" gradientUnits="userSpaceOnUse" x1="7.21" y1="92.92" x2="18.35" y2="92.92" gradientTransform="matrix(1 0 0 1 0 -66)">
			<stop  offset="0" style="stop-color:#E77231"/>
			<stop  offset="0.9946" style="stop-color:#9C3536"/>
		</linearGradient>
		<polygon class="st21" points="18.4,26.5 7.2,26.5 7.2,27.2 18.3,27.4 		"/>
		
			<linearGradient id="SVGID_16_" gradientUnits="userSpaceOnUse" x1="7.43" y1="100.715" x2="18.19" y2="100.715" gradientTransform="matrix(1 0 0 1 0 -66)">
			<stop  offset="0" style="stop-color:#E77231"/>
			<stop  offset="0.9946" style="stop-color:#9C3536"/>
		</linearGradient>
		<polygon class="st22" points="18.2,34.3 7.4,34.5 7.4,35 18.2,35.1 		"/>
		<polygon class="st23" points="16.3,18.3 18.2,18.3 18.2,18.9 16.3,18.8 		"/>
		<polygon class="st23" points="16.1,18.3 15.3,18.3 15.4,18.8 16.1,18.8 		"/>
		<polygon class="st23" points="15.2,26.6 17.9,26.6 17.9,27.3 15.3,27.2 		"/>
		<rect x="15.5" y="34.4" class="st23" width="2.4" height="0.5"/>
		
			<linearGradient id="SVGID_17_" gradientUnits="userSpaceOnUse" x1="17.365" y1="114.0781" x2="17.365" y2="113.1881" gradientTransform="matrix(1 0 0 1 0 -66)">
			<stop  offset="0" style="stop-color:#822717"/>
			<stop  offset="0.9946" style="stop-color:#700C26"/>
		</linearGradient>
		<polygon class="st24" points="18,47.2 17.3,48.1 16.9,48.1 16.8,47.2 		"/>
		<polygon class="st16" points="16.9,48.1 16.7,48 16.2,47.2 16.8,47.2 		"/>
		
			<linearGradient id="SVGID_18_" gradientUnits="userSpaceOnUse" x1="8" y1="114.0781" x2="8" y2="113.1881" gradientTransform="matrix(1 0 0 1 0 -66)">
			<stop  offset="0" style="stop-color:#822717"/>
			<stop  offset="0.9946" style="stop-color:#700C26"/>
		</linearGradient>
		<polygon class="st25" points="8.6,47.2 8.1,48.1 7.7,48.1 7.4,47.2 		"/>
		<polygon class="st16" points="7.7,48.1 7.4,48 6.9,47.2 7.4,47.2 		"/>
		
			<linearGradient id="SVGID_19_" gradientUnits="userSpaceOnUse" x1="12.69" y1="112.35" x2="12.69" y2="103.81" gradientTransform="matrix(1 0 0 1 0 -66)">
			<stop  offset="0" style="stop-color:#E77231"/>
			<stop  offset="0.9946" style="stop-color:#9C3536"/>
		</linearGradient>
		<polygon class="st26" points="17.9,37.8 7.5,37.8 7.8,46.3 17.6,46.3 		"/>
		<polygon class="st23" points="13.3,37.9 17.6,37.9 17.4,46.1 16.8,46.1 16.7,42.7 7.9,38.6 7.9,40.6 7.7,37.9 		"/>
		
			<linearGradient id="SVGID_20_" gradientUnits="userSpaceOnUse" x1="12.915" y1="112.35" x2="12.915" y2="103.81" gradientTransform="matrix(1 0 0 1 0 -66)">
			<stop  offset="0" style="stop-color:#822717"/>
			<stop  offset="0.9946" style="stop-color:#700C26"/>
		</linearGradient>
		<polygon class="st27" points="12.8,37.8 12.9,46.3 12.9,46.3 13,37.8 		"/>
		<polygon class="st23" points="8,37.8 12.8,37.8 12.9,46.3 12.7,46.3 12.7,38 		"/>
		<path class="st28" d="M12,39.1c-0.3,0.5-0.7,0.7-0.9,0.6s0-0.6,0.3-1c0.3-0.5,0.7-0.7,0.9-0.6S12.3,38.7,12,39.1z"/>
		<g>
			<circle class="st16" cx="12.1" cy="38.5" r="0.2"/>
			
				<linearGradient id="SVGID_21_" gradientUnits="userSpaceOnUse" x1="12.29" y1="104.88" x2="12.29" y2="104.0834" gradientTransform="matrix(1 0 0 1 0 -66)">
				<stop  offset="0" style="stop-color:#822717"/>
				<stop  offset="0.9946" style="stop-color:#700C26"/>
			</linearGradient>
			<path class="st29" d="M12.7,38.5c0,0.2-0.2,0.4-0.4,0.4c-0.2,0-0.4-0.2-0.4-0.4s0.2-0.4,0.4-0.4C12.5,38.1,12.7,38.3,12.7,38.5z"
				/>
			<circle class="st23" cx="12.4" cy="38.5" r="0.3"/>
		</g>
		<path class="st28" d="M13.3,39.1c-0.3,0.5-0.7,0.7-0.9,0.6c-0.2-0.1,0-0.6,0.3-1c0.3-0.5,0.7-0.7,0.9-0.6
			C13.8,38.2,13.7,38.7,13.3,39.1z"/>
		<g>
			<circle class="st16" cx="13.4" cy="38.5" r="0.2"/>
			
				<linearGradient id="SVGID_22_" gradientUnits="userSpaceOnUse" x1="13.62" y1="104.88" x2="13.62" y2="104.0834" gradientTransform="matrix(1 0 0 1 0 -66)">
				<stop  offset="0" style="stop-color:#822717"/>
				<stop  offset="0.9946" style="stop-color:#700C26"/>
			</linearGradient>
			<path class="st30" d="M14,38.5c0,0.2-0.2,0.4-0.4,0.4s-0.4-0.2-0.4-0.4s0.2-0.4,0.4-0.4C13.8,38.1,14,38.3,14,38.5z"/>
			<path class="st23" d="M14,38.5c0,0.2-0.1,0.3-0.3,0.3s-0.3-0.1-0.3-0.3c0-0.2,0.1-0.3,0.3-0.3S14,38.3,14,38.5z"/>
		</g>
		<polygon class="st10" points="7.5,37.8 8,45.2 9.7,45.2 9.7,41.9 9.9,45.7 10.5,45.7 10.6,44.1 10.9,46 17.4,46.2 17.8,39.6 
			17.6,46.3 7.8,46.3 		"/>
		<polygon class="st28" points="18.6,12.4 16.8,13.6 6.9,15.7 6.8,12 		"/>
		<polygon class="st28" points="18.5,18.9 16.7,20 7.1,24.1 7,18.9 		"/>
		<polygon class="st28" points="18.3,27.4 7.2,27.2 7.4,32.2 16.7,28.5 		"/>
		<polygon class="st28" points="18.2,35.1 7.4,35 7.5,37.2 16.6,35.8 		"/>
		<g>
			
				<linearGradient id="SVGID_23_" gradientUnits="userSpaceOnUse" x1="-197.2681" y1="92.5" x2="-197.2681" y2="89.2548" gradientTransform="matrix(1 0 0 1 212.7331 -66)">
				<stop  offset="0" style="stop-color:#F4FFBD"/>
				<stop  offset="1" style="stop-color:#ABEFB1"/>
			</linearGradient>
			<polygon class="st31" points="16.5,26.5 17.7,23.2 14.4,23.5 13.3,26.4 			"/>
			<polygon class="st32" points="16.5,26.5 17,26.5 18.1,23.6 17.7,23.2 			"/>
			<polygon class="st33" points="12.6,26.3 12.9,26.4 15.3,26.5 14.7,26.3 			"/>
			<g>
				<polygon class="st34" points="16.5,22.9 14.4,23 12.6,26.3 14.7,26.3 				"/>
				<g>
					<polygon class="st35" points="15.3,26.5 17,23.2 16.5,22.9 14.7,26.3 					"/>
					<path class="st36" d="M13,26l0.1-0.2l0.1-0.1l0.5-0.9l0.3-0.6l0.4-0.7l0.1-0.1l0.1-0.1l0.4,0l0.7-0.1l0.6-0.1L16,23.4l-0.3,0.5
						L15.6,24l0,0l-1.1,2L13,26L13,26z"/>
				</g>
			</g>
			<g>
				<polygon class="st37" points="11.2,26.3 11.5,26.3 13.3,26.3 13.4,26.1 13.4,26.1 13.5,26 13.6,25.8 13.6,25.7 14.2,24.6 
					14.2,24.6 14.4,24.1 14.5,24 14.8,23.5 14.8,23.5 14.8,23.4 14.9,23.3 14.9,23.2 15,23 15.1,22.9 13,23 12.9,23.1 12.8,23.4 
					12.6,23.6 11.5,25.8 				"/>
				<g>
					<polygon class="st38" points="13.9,26.5 15.6,23.2 15.1,22.9 13.3,26.3 					"/>
				</g>
			</g>
			<polygon class="st39" points="11.2,26.3 11.3,26.5 13,26.5 13.9,26.5 13.8,26.5 13.8,26.5 13.3,26.3 			"/>
			<polygon class="st40" points="11.5,25.8 11.5,25.8 11.5,25.9 11.6,25.9 12.9,25.8 13,25.8 13,25.8 13.1,25.8 13.2,25.8 
				13.5,25.8 13.5,25.8 13.6,25.8 13.6,25.8 13.9,26 14.1,26.1 14.1,26.1 14.1,26 14.2,25.9 13.6,25.7 13.6,25.7 13.5,25.7 
				13.2,25.7 13.1,25.7 13.1,25.7 13,25.7 12.9,25.7 11.6,25.8 11.5,25.8 			"/>
		</g>
		<g>
			<polygon class="st32" points="16.6,24.9 12.9,24.7 10.6,24.8 10.9,25.6 16.6,25.7 16.6,25.6 13,25.4 12.9,24.8 16.6,25 			"/>
			<polygon class="st41" points="13,25.4 12.9,24.8 16.5,25 16.5,25.6 			"/>
			<polygon class="st42" points="16.5,25.1 13.8,25 13.8,25.1 15,25.2 13,25.2 12.9,24.8 16.5,25 			"/>
			<polygon class="st43" points="12.6,24.7 12.7,25.6 12.4,25.6 12.2,24.7 			"/>
			<polygon class="st43" points="11.1,24.8 11.4,25.6 11.2,25.6 10.9,24.8 			"/>
		</g>
		<g>
			<polygon class="st38" points="16.4,25.7 12.4,25.5 10,25.6 10.3,26.5 16.4,26.5 16.4,26.3 12.6,26.3 12.5,25.6 16.4,25.8 			"/>
			<polygon class="st41" points="12.6,26.3 12.5,25.6 16.3,25.8 16.2,26.3 			"/>
			<polygon class="st42" points="16.3,26 13.4,25.8 13.4,26 14.7,26.1 12.6,26 12.5,25.6 16.3,25.8 			"/>
			<polygon class="st38" points="12.1,25.5 12.2,26.5 11.9,26.5 11.7,25.5 			"/>
			<polygon class="st38" points="10.5,25.6 10.8,26.5 10.6,26.5 10.3,25.6 			"/>
		</g>
		<g>
			<polygon class="st32" points="11.9,17.6 9.2,17.5 7.6,17.6 7.8,18.2 11.9,18.2 11.9,18.1 9.3,18 9.2,17.6 11.9,17.7 			"/>
			<polygon class="st41" points="9.3,18 9.2,17.6 11.8,17.7 11.9,18.1 			"/>
			<polygon class="st42" points="11.8,17.8 9.9,17.7 9.9,17.8 10.8,17.9 9.3,17.8 9.2,17.6 11.8,17.7 			"/>
			<polygon class="st43" points="9,17.5 9.1,18.2 8.9,18.2 8.7,17.5 			"/>
			<polygon class="st43" points="7.9,17.5 8.1,18.2 8,18.2 7.8,17.6 			"/>
		</g>
		<g>
			<polygon class="st35" points="11.8,17 8.9,16.8 7.2,16.9 7.4,17.5 11.8,17.5 11.8,17.4 9,17.4 9,16.9 11.8,17.1 			"/>
			<polygon class="st41" points="9,17.4 9,16.9 11.7,17.1 11.7,17.4 			"/>
			<polygon class="st42" points="11.7,17.2 9.6,17.1 9.6,17.2 10.6,17.3 9,17.2 9,16.9 11.7,17.1 			"/>
		</g>
		<polygon class="st28" points="9.7,34.4 10.6,35 12.5,35.1 11,34.3 		"/>
		
			<linearGradient id="SVGID_24_" gradientUnits="userSpaceOnUse" x1="12.765" y1="101.6268" x2="12.765" y2="96.4669" gradientTransform="matrix(1 0 0 1 0 -66)">
			<stop  offset="0" style="stop-color:#348686"/>
			<stop  offset="1" style="stop-color:#3B70A9"/>
		</linearGradient>
		<path class="st44" d="M17.6,34.3l-0.9,0c0,0-1.4,1.1-2.7,1.3s-3.2-1.2-3.2-1.2l-2.9,0l3.2-0.4c0,0,0.8-2.8,0.9-2.9
			c0.1-0.1,1.9-0.6,2.7-0.7h0c0.1,0,0.2,0,0.3,0c0.2,0,0.9,1.2,1.1,1.6c0,0,0,0.1,0,0.1c-0.1,0.1-1-0.8-1.1-0.8S14,32.1,14,32.2
			s0.8,1.7,0.9,1.8l0,0L17.6,34.3z"/>
		
			<linearGradient id="SVGID_25_" gradientUnits="userSpaceOnUse" x1="11.135" y1="99.9835" x2="14.935" y2="99.9835" gradientTransform="matrix(1 0 0 1 0 -66)">
			<stop  offset="5.405430e-03" style="stop-color:#9C3536"/>
			<stop  offset="1" style="stop-color:#BE7231"/>
		</linearGradient>
		<path class="st45" d="M11.1,34.1l0.1-0.5c0,0,1.1,0.4,1.8,0.4c0.4,0,1.7-0.3,1.7-0.3l0.2,0.3c0,0-1.1,0.3-1.8,0.4
			C12.5,34.4,11.1,34.1,11.1,34.1z"/>
		<path class="st10" d="M14.8,34c-0.1,0-1.6,0.5-2,0.4c-0.4-0.1-1.7-0.3-1.7-0.3s0.8-2.8,0.9-2.9c0.1-0.1,1.9-0.6,2.7-0.7h0
			c0,0-2,0.7-2.1,0.8c-0.1,0.1-0.2,1.6-0.2,1.8s0.3,1.2,0.6,1.2C13.3,34.3,14.7,34,14.8,34z"/>
		<path class="st10" d="M16.1,32.2c-0.1,0.1-1-0.8-1.1-0.8S14,32.1,14,32.1s0.8,1.7,0.9,1.8l-1-1.7l-1.1-0.4l1.1,0.1l0.9-0.7v-0.7
			l0.2,0.6L16.1,32.2C16.1,32.1,16.1,32.2,16.1,32.2z"/>
		<path class="st23" d="M15,34l1.5,0.2c0,0-0.1,0-0.3,0.2c-0.2,0.2-1.8,1-2.4,1c-0.6,0-1.5-0.4-1.5-0.4s0.9,0.3,1.3,0.2
			c0.4,0,1.4-0.9,1.4-0.9l-0.5-0.3L15,34z"/>
		<polygon class="st23" points="6.8,47.2 6.2,11.1 11.9,11.3 6.4,11.2 6.4,20.7 6.7,22.1 6.5,23.2 		"/>
		<polygon class="st23" points="7.8,46.3 14.3,46.5 14.8,46.7 15.3,46.4 16.2,46.4 16.9,47 17.2,46.4 18,46.3 		"/>
		<polygon class="st28" points="7,18.9 10.6,18.9 10.7,18.3 10.8,18.8 13.8,18.8 13.9,18.4 14,18.8 14.7,18.9 		"/>
		<polygon class="st28" points="7.7,27.2 7.6,26.6 11.3,26.6 11.5,27.1 11.5,26.6 14.3,26.6 14.4,27.1 14.4,26.5 7.2,26.5 7.2,27.2 
					"/>
		<g>
			<g>
				<g>
					<g>
						<g>
							<g>
								<defs>
									<polygon id="SVGID_26_" points="-2,6 -1,6 -2,7 									"/>
								</defs>
								<clipPath id="SVGID_27_">
									<use xlink:href="#SVGID_26_"  style="overflow:visible;"/>
								</clipPath>
							</g>
							<g>
								<defs>
									<polygon id="SVGID_28_" points="-2,6 -1,6 -2,7 									"/>
								</defs>
								<defs>
									<polygon id="SVGID_29_" points="-4,4 -5,4 -4,3 									"/>
								</defs>
								<clipPath id="SVGID_30_">
									<use xlink:href="#SVGID_28_"  style="overflow:visible;"/>
								</clipPath>
								<clipPath id="SVGID_31_" class="st46">
									<use xlink:href="#SVGID_29_"  style="overflow:visible;"/>
								</clipPath>
								
									<linearGradient id="SVGID_32_" gradientUnits="userSpaceOnUse" x1="9.37" y1="92.48" x2="9.37" y2="88.7" gradientTransform="matrix(1 0 0 1 0 -66)">
									<stop  offset="0" style="stop-color:#808080"/>
									<stop  offset="1" style="stop-color:#FFFFFF"/>
								</linearGradient>
								<path class="st47" d="M10.6,25.2c0-0.6-0.4-1.1-0.9-1.2l0.2-1.3H8.8L9,24c-0.5,0.2-0.9,0.6-0.9,1.2c0,0.5,0.3,0.9,0.6,1.1
									l0,0l-0.1,0.2H10l-0.1-0.1l0,0C10.3,26.2,10.6,25.7,10.6,25.2z"/>
							</g>
						</g>
					</g>
				</g>
			</g>
			
				<linearGradient id="SVGID_33_" gradientUnits="userSpaceOnUse" x1="9.37" y1="92.48" x2="9.37" y2="88.7" gradientTransform="matrix(1 0 0 1 0 -66)">
				<stop  offset="0" style="stop-color:#CFFFE8"/>
				<stop  offset="1" style="stop-color:#4AEFB1"/>
			</linearGradient>
			<path class="st48" d="M10.6,25.2c0-0.6-0.4-1.1-0.9-1.2l0.2-1.3H8.8L9,24c-0.5,0.2-0.9,0.6-0.9,1.2c0,0.5,0.3,0.9,0.6,1.1l0,0
				l-0.1,0.2H10l-0.1-0.1l0,0C10.3,26.2,10.6,25.7,10.6,25.2z"/>
			
				<linearGradient id="SVGID_34_" gradientUnits="userSpaceOnUse" x1="9.365" y1="89.1408" x2="9.365" y2="88.4253" gradientTransform="matrix(1 0 0 1 0 -66)">
				<stop  offset="0" style="stop-color:#E77231"/>
				<stop  offset="0.9946" style="stop-color:#9C3536"/>
			</linearGradient>
			<polygon class="st49" points="8.9,23.1 8.9,22.4 9.9,22.5 9.8,23.1 			"/>
			<polygon class="st28" points="9.9,22.6 9.1,22.7 9.1,23.1 8.9,23.1 8.9,22.4 9.9,22.5 			"/>
			
				<linearGradient id="SVGID_35_" gradientUnits="userSpaceOnUse" x1="9.365" y1="88.5476" x2="9.365" y2="88.2441" gradientTransform="matrix(1 0 0 1 0 -66)">
				<stop  offset="0" style="stop-color:#E77231"/>
				<stop  offset="0.9946" style="stop-color:#9C3536"/>
			</linearGradient>
			<polygon class="st50" points="8.7,22.2 8.8,22.5 9.9,22.5 10,22.2 			"/>
			<polygon class="st23" points="8.8,22.3 9.9,22.3 9.9,22.5 9.6,22.5 9.6,22.3 			"/>
			<g>
				<g>
					<g>
						<g>
							<g>
								<defs>
									<polygon id="SVGID_36_" points="-2,6 -1,6 -2,7 									"/>
								</defs>
								<clipPath id="SVGID_37_">
									<use xlink:href="#SVGID_36_"  style="overflow:visible;"/>
								</clipPath>
							</g>
							<g>
								<defs>
									<polygon id="SVGID_38_" points="-2,6 -1,6 -2,7 									"/>
								</defs>
								<defs>
									<polygon id="SVGID_39_" points="-4,4 -5,4 -4,3 									"/>
								</defs>
								<clipPath id="SVGID_40_">
									<use xlink:href="#SVGID_38_"  style="overflow:visible;"/>
								</clipPath>
								<clipPath id="SVGID_41_" class="st51">
									<use xlink:href="#SVGID_39_"  style="overflow:visible;"/>
								</clipPath>
								
									<linearGradient id="SVGID_42_" gradientUnits="userSpaceOnUse" x1="9.385" y1="92.48" x2="9.385" y2="88.75" gradientTransform="matrix(1 0 0 1 0 -66)">
									<stop  offset="0" style="stop-color:#808080"/>
									<stop  offset="1" style="stop-color:#FFFFFF"/>
								</linearGradient>
								<path class="st52" d="M10.5,25.2c0,0,0,0.1,0,0.1c0,0.4-0.3,0.8-0.7,1l0,0l0.1,0.1H8.7l0.1-0.2c-0.3-0.2-0.5-0.5-0.6-0.9
									c0,0,0-0.1,0-0.1c0-0.5,0.3-1,0.8-1.2l-0.1-1.3h1L9.7,24C10.2,24.2,10.5,24.7,10.5,25.2z"/>
							</g>
						</g>
					</g>
				</g>
			</g>
			
				<linearGradient id="SVGID_43_" gradientUnits="userSpaceOnUse" x1="9.385" y1="92.48" x2="9.385" y2="88.75" gradientTransform="matrix(1 0 0 1 0 -66)">
				<stop  offset="0" style="stop-color:#CFFFE8"/>
				<stop  offset="1" style="stop-color:#4AEFB1"/>
			</linearGradient>
			<path class="st53" d="M10.5,25.2c0,0,0,0.1,0,0.1c0,0.4-0.3,0.8-0.7,1l0,0l0.1,0.1H8.7l0.1-0.2c-0.3-0.2-0.5-0.5-0.6-0.9
				c0,0,0-0.1,0-0.1c0-0.5,0.3-1,0.8-1.2l-0.1-1.3h1L9.7,24C10.2,24.2,10.5,24.7,10.5,25.2z"/>
			
				<linearGradient id="SVGID_44_" gradientUnits="userSpaceOnUse" x1="9.385" y1="92.36" x2="9.385" y2="91.3671" gradientTransform="matrix(1 0 0 1 0 -66)">
				<stop  offset="0" style="stop-color:#F48BA9"/>
				<stop  offset="1" style="stop-color:#FF1591"/>
			</linearGradient>
			<path class="st54" d="M10.5,25.4c0,0.4-0.3,0.8-0.7,1l-1.1,0c-0.3-0.2-0.5-0.5-0.6-0.9H10.5z"/>
			<polygon class="st55" points="9.5,22.8 9.8,22.8 9.6,24 9.4,24 			"/>
			<polygon class="st55" points="8.9,22.8 9.1,24 9.1,24 9,22.8 			"/>
			<path class="st55" d="M9.4,24.2l0.5,0c0,0,0.9,0.8,0.1,2H9.8C9.9,26.2,10.1,25,9.4,24.2z"/>
			<path class="st55" d="M8.5,25H8.3c0,0,0,0.9,0.6,1.2C8.9,26.3,8.4,25.9,8.5,25z"/>
			<circle class="st23" cx="9.3" cy="25.8" r="0.2"/>
			<path class="st23" d="M9.6,25.5C9.6,25.6,9.6,25.6,9.6,25.5C9.5,25.6,9.5,25.6,9.6,25.5C9.5,25.5,9.5,25.5,9.6,25.5
				C9.6,25.5,9.6,25.5,9.6,25.5z"/>
			<path class="st23" d="M9.8,26.1c0,0.1-0.1,0.1-0.1,0.1c-0.1,0-0.1,0-0.1-0.1c0-0.1,0.1-0.1,0.1-0.1C9.8,25.9,9.8,26,9.8,26.1z"/>
		</g>
		<g>
			
				<linearGradient id="SVGID_45_" gradientUnits="userSpaceOnUse" x1="10.79" y1="92.4827" x2="10.79" y2="90.4904" gradientTransform="matrix(1 0 0 1 0 -66)">
				<stop  offset="0" style="stop-color:#F4FFBD"/>
				<stop  offset="1" style="stop-color:#ABEFB1"/>
			</linearGradient>
			<path class="st56" d="M11.4,25.8c0-0.3-0.2-0.6-0.5-0.6l0.1-0.7h-0.6l0.1,0.7c-0.3,0.1-0.5,0.3-0.5,0.6c0,0.2,0.1,0.5,0.3,0.6
				l0,0l-0.1,0.1h0.7l0-0.1l0,0C11.3,26.3,11.4,26.1,11.4,25.8z"/>
			
				<linearGradient id="SVGID_46_" gradientUnits="userSpaceOnUse" x1="10.79" y1="90.7245" x2="10.79" y2="90.3478" gradientTransform="matrix(1 0 0 1 0 -66)">
				<stop  offset="0" style="stop-color:#E77231"/>
				<stop  offset="0.9946" style="stop-color:#9C3536"/>
			</linearGradient>
			<polygon class="st57" points="10.6,24.7 10.5,24.4 11.1,24.4 11,24.7 			"/>
			<polygon class="st28" points="11.1,24.4 10.6,24.5 10.6,24.7 10.6,24.7 10.5,24.4 11.1,24.4 			"/>
			
				<linearGradient id="SVGID_47_" gradientUnits="userSpaceOnUse" x1="10.785" y1="90.4122" x2="10.785" y2="90.2524" gradientTransform="matrix(1 0 0 1 0 -66)">
				<stop  offset="0" style="stop-color:#E77231"/>
				<stop  offset="0.9946" style="stop-color:#9C3536"/>
			</linearGradient>
			<polygon class="st58" points="10.4,24.2 10.5,24.4 11.1,24.4 11.1,24.2 			"/>
			<polygon class="st23" points="10.5,24.3 11.1,24.3 11.1,24.4 10.9,24.4 10.9,24.3 			"/>
			<g>
				<g>
					<g>
						<g>
							<g>
								<defs>
									<polygon id="SVGID_48_" points="-2,6 -1,6 -2,7 									"/>
								</defs>
								<clipPath id="SVGID_49_">
									<use xlink:href="#SVGID_48_"  style="overflow:visible;"/>
								</clipPath>
							</g>
							<g>
								<defs>
									<polygon id="SVGID_50_" points="-2,6 -1,6 -2,7 									"/>
								</defs>
								<defs>
									<polygon id="SVGID_51_" points="-4,4 -5,4 -4,3 									"/>
								</defs>
								<clipPath id="SVGID_52_">
									<use xlink:href="#SVGID_50_"  style="overflow:visible;"/>
								</clipPath>
								<clipPath id="SVGID_53_" class="st59">
									<use xlink:href="#SVGID_51_"  style="overflow:visible;"/>
								</clipPath>
								
									<linearGradient id="SVGID_54_" gradientUnits="userSpaceOnUse" x1="10.795" y1="92.4825" x2="10.795" y2="90.5175" gradientTransform="matrix(1 0 0 1 0 -66)">
									<stop  offset="0" style="stop-color:#808080"/>
									<stop  offset="1" style="stop-color:#FFFFFF"/>
								</linearGradient>
								<path class="st60" d="M11.4,25.8C11.4,25.9,11.4,25.9,11.4,25.8c0,0.3-0.2,0.5-0.4,0.6l0,0.1h-0.7l0.1-0.1
									c-0.2-0.1-0.3-0.3-0.3-0.5c0,0,0,0,0-0.1c0-0.3,0.2-0.5,0.4-0.6l0-0.4l0-0.3h0.5L11,24.9l-0.1,0.3
									C11.2,25.3,11.4,25.5,11.4,25.8z"/>
							</g>
						</g>
					</g>
				</g>
			</g>
			
				<linearGradient id="SVGID_55_" gradientUnits="userSpaceOnUse" x1="10.795" y1="92.4825" x2="10.795" y2="90.5175" gradientTransform="matrix(1 0 0 1 0 -66)">
				<stop  offset="0" style="stop-color:#CFFFE8"/>
				<stop  offset="1" style="stop-color:#4AEFB1"/>
			</linearGradient>
			<path class="st61" d="M11.4,25.8C11.4,25.9,11.4,25.9,11.4,25.8c0,0.3-0.2,0.5-0.4,0.6l0,0.1h-0.7l0.1-0.1
				c-0.2-0.1-0.3-0.3-0.3-0.5c0,0,0,0,0-0.1c0-0.3,0.2-0.5,0.4-0.6l0-0.4l0-0.3h0.5L11,24.9l-0.1,0.3C11.2,25.3,11.4,25.5,11.4,25.8
				z"/>
			
				<linearGradient id="SVGID_56_" gradientUnits="userSpaceOnUse" x1="10.795" y1="92.42" x2="10.795" y2="90.81" gradientTransform="matrix(1 0 0 1 0 -66)">
				<stop  offset="0" style="stop-color:#BBD400"/>
				<stop  offset="1" style="stop-color:#2DFF15"/>
			</linearGradient>
			<path class="st62" d="M11.4,25.8C11.4,25.9,11.4,25.9,11.4,25.8c0,0.3-0.2,0.5-0.4,0.6l0,0l-0.6,0c-0.2-0.1-0.3-0.3-0.3-0.5
				c0,0,0,0,0-0.1c0-0.3,0.2-0.5,0.4-0.6l0-0.4l0.4,0.1l-0.1,0.3C11.2,25.3,11.4,25.5,11.4,25.8z"/>
			<polygon class="st55" points="10.9,24.5 11,24.5 10.9,25.2 10.8,25.2 			"/>
			<polygon class="st55" points="10.6,24.5 10.6,25.2 10.6,25.2 10.6,24.5 			"/>
			<path class="st55" d="M10.8,25.3l0.3,0c0,0,0.5,0.4,0.1,1.1H11C11,26.3,11.2,25.7,10.8,25.3z"/>
			<path class="st55" d="M10.3,25.7L10.3,25.7c-0.1,0-0.1,0.5,0.2,0.7C10.5,26.4,10.3,26.2,10.3,25.7z"/>
			<path class="st23" d="M10.8,26.1C10.8,26.2,10.8,26.2,10.8,26.1c-0.1,0.1-0.2,0-0.2,0S10.7,26,10.8,26.1
				C10.8,26,10.8,26.1,10.8,26.1z"/>
			<path class="st23" d="M10.9,26C10.9,26,10.9,26,10.9,26C10.9,26,10.9,26,10.9,26C10.9,26,10.9,26,10.9,26
				C10.9,26,10.9,26,10.9,26z"/>
			<path class="st23" d="M11,26.3C11,26.3,11,26.3,11,26.3c-0.1,0.1-0.1,0-0.1,0S10.9,26.2,11,26.3C11,26.2,11,26.2,11,26.3z"/>
		</g>
		<g>
			
				<linearGradient id="SVGID_57_" gradientUnits="userSpaceOnUse" x1="8.7847" y1="100.44" x2="8.7847" y2="96.53" gradientTransform="matrix(1 0 0 1 0 -66)">
				<stop  offset="0" style="stop-color:#4F9F00"/>
				<stop  offset="1" style="stop-color:#267015"/>
			</linearGradient>
			<path class="st63" d="M9.7,31.9c0,0,0-0.1,0-0.1c-0.1-0.1-0.2-0.2-0.3-0.3l-0.3-0.1l0,0v0v0l0-0.1l0-0.4l0,0l0,0v0l0-0.1v0l0-0.1
				v0v0H8.8l0,0H8.4l0.1,0.8l-0.3,0.1l0,0C8,31.6,7.8,31.8,7.9,32l0,0.1l0,0l0.1,0.8l0,0L8,34.4c0,0,0.1,0.1,0.2,0.1h0.6l0,0h0.1
				h0.4c0.1,0,0.2,0,0.2-0.1v0l0.1-0.6l0,0l0-0.4l0.1-1.2l0-0.1L9.7,31.9C9.7,31.9,9.7,31.9,9.7,31.9z M8.8,34.2v0.2v-0.6v0.1V34.2z
				 M8.8,33.5L8.8,33.5L8.8,33.5L8.8,33.5z M8.8,32.9L8.8,32.9L8.8,32.9L8.8,32.9z"/>
			<polygon class="st64" points="9.2,30.6 9.1,30.8 8.4,30.8 8.4,30.6 			"/>
			
				<linearGradient id="SVGID_58_" gradientUnits="userSpaceOnUse" x1="-138.112" y1="-208.1609" x2="-138.112" y2="-209.3353" gradientTransform="matrix(1 1.300000e-03 -1.300000e-03 1 146.7806 240.9484)">
				<stop  offset="0" style="stop-color:#000000"/>
				<stop  offset="1" style="stop-color:#B3A600"/>
			</linearGradient>
			<path class="st65" d="M8.2,32c0,0,0.1-0.5,0.7-0.5c0.5,0,0.7,0.4,0.7,0.5c0,0.2-0.1,0.6-0.1,0.6s0-0.6-0.1-0.7
				c-0.1-0.1-0.3,0-0.7,0C8.4,31.9,8.2,32,8.2,32z"/>
			<path class="st66" d="M8.7,31.9h0.5l-0.1,1.7H9c0,0,0-1.5,0-1.6S8.7,31.9,8.7,31.9z"/>
			<polygon class="st66" points="9.5,34.3 9.5,34.3 9.5,33.9 9.6,32.2 9.6,32.2 9.6,32.1 9.6,32.1 9.7,32 9.7,32 9.7,32.2 9.6,33.3 
				9.6,33.7 9.6,33.7 			"/>
			<path class="st67" d="M9.1,30.8H8.5l0,0.1l0.1,0l0,0.5c0,0-0.4,0.1-0.6,0.5c-0.1,0.3,0.2,2.6,0.2,2.6h0.4c0,0-0.1-2.4,0-2.6
				c0.1-0.2,0.2-0.5,0.2-0.5l0-0.4L9.1,30.8z"/>
			
				<linearGradient id="SVGID_59_" gradientUnits="userSpaceOnUse" x1="-138.0635" y1="-209.474" x2="-138.0635" y2="-209.9605" gradientTransform="matrix(1 1.300000e-03 -1.300000e-03 1 146.7806 240.9484)">
				<stop  offset="0" style="stop-color:#000000"/>
				<stop  offset="1" style="stop-color:#B3A600"/>
			</linearGradient>
			<polygon class="st68" points="8.9,30.9 9.1,30.8 9,31.3 8.9,31.3 			"/>
			
				<linearGradient id="SVGID_60_" gradientUnits="userSpaceOnUse" x1="-137.9887" y1="-210.0204" x2="-137.9887" y2="-210.1825" gradientTransform="matrix(1 1.300000e-03 -1.300000e-03 1 146.7806 240.9484)">
				<stop  offset="0" style="stop-color:#000000"/>
				<stop  offset="1" style="stop-color:#B3A600"/>
			</linearGradient>
			<polygon class="st69" points="9,30.6 9.1,30.6 9.1,30.8 9,30.7 			"/>
			<polygon class="st67" points="8.5,30.8 8.4,30.6 8.7,30.6 8.7,30.8 			"/>
			<polygon class="st70" points="9.1,30.8 9.1,31.3 9,31.3 9.1,30.8 9.1,30.8 9.1,30.8 			"/>
			<polygon class="st70" points="9.2,30.6 9.1,30.8 9.1,30.8 9.1,30.8 9.1,30.6 9.1,30.6 9.1,30.5 			"/>
			<path class="st71" d="M8.5,31.9l0.1,2.6h0.3l0-2.6C8.9,31.8,8.6,31.8,8.5,31.9z"/>
		</g>
		<g>
			
				<linearGradient id="SVGID_61_" gradientUnits="userSpaceOnUse" x1="-776.6898" y1="83.075" x2="-773.9365" y2="83.075" gradientTransform="matrix(-1 0 0 1 -761.2798 -66)">
				<stop  offset="0" style="stop-color:#2395A6"/>
				<stop  offset="1" style="stop-color:#015663"/>
			</linearGradient>
			<polygon class="st72" points="15.2,18.3 15.4,15.9 12.7,15.9 13,18.2 			"/>
			<polygon class="st73" points="15.4,15.9 17,16 16.6,18.3 15.2,18.3 			"/>
			
				<linearGradient id="SVGID_62_" gradientUnits="userSpaceOnUse" x1="-778.4898" y1="82.045" x2="-773.7241" y2="82.045" gradientTransform="matrix(-1 0 0 1 -761.2798 -66)">
				<stop  offset="0" style="stop-color:#2395A6"/>
				<stop  offset="1" style="stop-color:#015663"/>
			</linearGradient>
			<polygon class="st74" points="12.5,16.4 12.4,15.8 15.4,15.7 17.2,15.8 17.1,16.4 15.4,16.3 			"/>
			<polygon class="st73" points="17.1,16.4 17.2,15.8 15.4,15.7 15.4,16.3 			"/>
			<polygon class="st75" points="16.8,17.2 15.3,16.6 12.8,16.6 12.7,16.4 15.4,16.3 17,16.4 			"/>
			<polygon class="st73" points="14.6,16.5 14.6,16.7 13.3,16.7 13.2,16.5 			"/>
			<polygon class="st75" points="17.1,15.9 17,16.3 16.5,16.3 16.5,15.8 			"/>
			<polygon class="st75" points="16.9,16.5 16.5,18.2 15.4,18.2 16.3,18.1 16.5,16.4 			"/>
			<polygon class="st76" points="14.2,15.8 12.5,15.9 12.7,16.3 14.2,16.2 			"/>
			<polygon class="st76" points="13.8,16.9 13,16.9 13.1,18.2 13.8,18.2 			"/>
		</g>
		<g>
			
				<linearGradient id="SVGID_63_" gradientUnits="userSpaceOnUse" x1="10.18" y1="103.335" x2="15.19" y2="103.335" gradientTransform="matrix(1 0 0 1 0 -66)">
				<stop  offset="0" style="stop-color:#2395A6"/>
				<stop  offset="1" style="stop-color:#015663"/>
			</linearGradient>
			<polygon class="st77" points="15.2,36.9 15.2,37.8 10.4,37.8 10.2,36.9 			"/>
			<polygon class="st78" points="8.2,37.5 10.2,36.9 10.2,37.1 8.3,37.6 			"/>
			<polygon class="st78" points="10.4,37.7 8.2,37.7 8.2,37.8 9.8,37.8 10.4,37.8 			"/>
			<polygon class="st79" points="8.4,37.6 8.4,37.7 10.4,37.7 10.2,37.1 			"/>
			<polygon class="st1" points="8.4,37.7 10,37.3 10,37.5 8.9,37.7 10,37.6 10,37.7 10.4,37.7 10.2,37.1 8.4,37.6 			"/>
			<polygon class="st80" points="14.7,36.9 14.7,37.8 14.2,37.8 14.2,36.9 			"/>
			<polygon class="st80" points="11,36.9 11.1,37.8 11.4,37.8 11.4,36.9 			"/>
			
				<linearGradient id="SVGID_64_" gradientUnits="userSpaceOnUse" x1="9.4235" y1="108.4675" x2="14.4192" y2="108.4675" gradientTransform="matrix(0.9998 -1.910000e-02 1.910000e-02 0.9998 -1.3035 -70.8882)">
				<stop  offset="0" style="stop-color:#8B6F8E"/>
				<stop  offset="1" style="stop-color:#7A6D84"/>
			</linearGradient>
			<polygon class="st81" points="15.2,37.6 11.5,37.4 10.8,36.9 10.2,36.9 10.4,37.8 15.2,37.8 			"/>
		</g>
	</g>
</g>
<g>
	<polygon class="st12" points="89.5,5.5 89.7,6.6 96.4,6.6 96.6,5.6 	"/>
	<path class="st82" d="M99.3,5.1l-1.4,21.6H81L79.1,6.7L79,5.1C83.6-0.6,94.8-0.6,99.3,5.1z"/>
	<path class="st83" d="M98.5,5.9l-1.3,19.8H81.7L79.9,7.2l-0.1-1.4C84.1,0.7,94.3,0.7,98.5,5.9z"/>
	
		<linearGradient id="SVGID_65_" gradientUnits="userSpaceOnUse" x1="83.1469" y1="92.1143" x2="96.2661" y2="69.3914" gradientTransform="matrix(1 0 0 1 0 -66)">
		<stop  offset="0" style="stop-color:#745072"/>
		<stop  offset="1" style="stop-color:#4A365E"/>
	</linearGradient>
	<path class="st84" d="M99.3,5.9l-1.7,19.8H82.4L80.7,7.2l-0.1-1.4C84.9,0.7,95.2,0.7,99.3,5.9z"/>
	
		<linearGradient id="SVGID_66_" gradientUnits="userSpaceOnUse" x1="84.4416" y1="90.0898" x2="95.2448" y2="71.3781" gradientTransform="matrix(1 0 0 1 0 -66)">
		<stop  offset="0" style="stop-color:#797492"/>
		<stop  offset="1" style="stop-color:#4A365E"/>
	</linearGradient>
	<path class="st85" d="M97.6,7.3l-1.1,16.2H83.4l-1-15l-0.1-1.1C85.8,3.1,94.2,3.1,97.6,7.3z"/>
	<path class="st86" d="M97.6,7.3l-1.1,16.2l-1.5-0.7L96,8.5H82.5l-0.1-0.1l-0.1-1.1C85.8,3.1,94.2,3.1,97.6,7.3z"/>
	<polygon class="st83" points="81.5,15.6 82.9,15.2 82.9,15.6 81.4,15.8 	"/>
	<polygon class="st83" points="81.9,20 83.2,20 83.2,20 81.8,20.1 	"/>
	<polygon class="st83" points="81.8,21.7 83.3,21.7 83.3,21.8 81.8,22 	"/>
	<polygon class="st83" points="83.4,23.5 82.4,25.7 82.5,25.7 83.6,23.5 	"/>
	<polygon class="st83" points="81.2,12.1 82.7,12.1 82.7,12 81.1,12 	"/>
	<polygon class="st83" points="82.5,9.1 80.8,9.4 80.8,9.4 82.5,9.2 	"/>
	<polygon class="st83" points="80.7,5.9 82.4,7.3 82.5,7.1 	"/>
	<polygon class="st83" points="84.3,7 84.3,5.6 82.8,4 82.9,3.9 84.4,5.5 84.4,7 	"/>
	<polygon class="st83" points="91.5,2 91.5,4.2 90.8,5.9 90.8,5.9 91.7,4.2 91.7,2 	"/>
	<polygon class="st83" points="94.6,2.7 94.6,5.1 92.9,6.4 93,6.5 94.7,5.1 94.7,2.7 	"/>
	<polygon class="st83" points="99.3,5.9 97.6,7.3 95.8,8.3 95.9,8.4 97.6,7.5 99.3,6 	"/>
	<polygon class="st83" points="95.7,13.5 97.2,13.5 98.7,13.5 98.6,13.7 97.2,13.6 95.7,13.6 	"/>
	<polygon class="st83" points="95.6,15.5 97,15.8 98.4,15.9 98.4,16 97,15.9 95.6,15.6 	"/>
	<polygon class="st83" points="95.3,18.9 96.8,19.4 98.1,19.4 98.1,19.6 96.8,19.5 95.3,18.9 	"/>
	<polygon class="st83" points="95.1,22.8 96.5,23.5 97.6,25.7 96.4,23.5 94.9,22.8 	"/>
	<polygon class="st83" points="92,22.8 92.4,23.5 92.2,25.7 92.2,25.7 92.3,23.5 92,22.8 	"/>
	<polygon class="st83" points="87.2,22.8 87.4,23.5 87.3,25.7 87.4,25.7 87.5,23.5 87.3,22.8 	"/>
	<polygon class="st6" points="97.6,7.3 96.5,23.5 83.6,23.5 96.7,23.7 	"/>
	<polygon class="st6" points="80.7,5.9 82.4,25.7 82.5,25.7 	"/>
	<polygon class="st6" points="87.5,23.5 92.3,23.5 92.2,25.7 92.2,23.7 87.5,23.6 	"/>
	<polygon class="st6" points="98.1,19.6 96.9,19.5 96.7,23.7 97,19.6 98.1,19.7 	"/>
	<polygon class="st6" points="98.7,13.5 97.2,13.5 97.6,7.5 99.3,6 97.7,7.6 97.3,13.4 	"/>
	<path class="st6" d="M94.6,2.7v2.4c0,0-1.7-0.7-2.9-0.8c0,0,1.9,0.2,2.8,0.7L94.6,2.7z"/>
	<polygon class="st6" points="82.8,4 84.3,5.6 84.2,5.7 82.7,4 	"/>
	<polygon class="st6" points="81,9.4 82.5,9.2 82.7,12 82.5,12 82.4,9.3 	"/>
	<polygon class="st6" points="81.5,15.8 82.9,15.6 83.2,20 83.2,20 82.8,15.6 	"/>
	<polygon class="st87" points="80.7,5.9 82.4,7.3 82.5,9.1 80.9,9.3 	"/>
	<polygon class="st87" points="96.9,19.5 96.7,23.7 97.6,25.7 98.1,19.6 	"/>
	<polygon class="st87" points="87.3,25.7 87.4,23.5 87.2,22.8 83.5,22.8 83.6,23.5 82.5,25.7 	"/>
	<path class="st87" d="M82.9,3.9c0,0,3-2.3,8.6-1.8v2.2c0,0-3.5-0.5-7.1,1.3L82.9,3.9z"/>
	<polygon class="st11" points="83.2,15.4 83.2,16.3 93.7,17.1 93.7,15.7 	"/>
	<path class="st88" d="M95.4,23l-12-0.2L82.5,8.5C85.6,4.8,93,4.8,96.4,8.9L95.4,23z"/>
	<path class="st16" d="M95.3,9.1l-0.5,13.2H84.4L83.6,9.5c1.3-1.6,3.6-2.5,5.9-2.5C91.9,6.9,93.9,7.4,95.3,9.1z"/>
	
		<linearGradient id="SVGID_67_" gradientUnits="userSpaceOnUse" x1="89.455" y1="88.33" x2="89.455" y2="72.94" gradientTransform="matrix(1 0 0 1 0 -66)">
		<stop  offset="0" style="stop-color:#3B1D40"/>
		<stop  offset="1" style="stop-color:#271B31"/>
	</linearGradient>
	<path class="st89" d="M95.3,9.5l-0.2,2.7l-0.7,10.1h-10L83.6,9.5c1.3-1.6,3.6-2.5,5.9-2.5c0.3,0,0.7,0,1,0.1
		C92.4,7.3,94.2,8.1,95.3,9.5L95.3,9.5z"/>
	<polygon class="st16" points="89.4,7 89.7,22.3 89.9,22.3 90.1,6.9 	"/>
	<polygon class="st88" points="89.8,6.7 89.5,22.4 90,22.4 90.5,6.7 	"/>
	<polygon class="st88" points="95.6,12.2 83.7,12 83.7,13 95.6,12.7 	"/>
	<polygon class="st88" points="95.6,18.2 83.7,18.1 83.5,18.4 95.6,18.8 	"/>
	<path class="st87" d="M95.3,9.5l-0.2,2.7l-4.4-0.1c0,0,3.8-0.1,3.9-0.1c0.1,0-0.4-2-0.6-2.4c-0.2-0.4-2.8-1.3-2.9-1.1
		s-0.7,3.6-0.7,3.6l0-5.1C92.4,7.3,94.2,8.1,95.3,9.5L95.3,9.5z"/>
	<path class="st87" d="M83.8,12c0,0,5.4-0.2,5.5-0.3c0.1-0.1-0.2-3.9-0.3-4.1s-4,1-4.3,1.8S84.5,12,84.5,12L83.8,12l-0.2-2.6
		c0,0,1.5-2.3,5.9-2.5v5.2L83.8,12z"/>
	<path class="st87" d="M90.5,12.9l-0.1,5.3l4.3,0.1l0.4-5.5L90.5,12.9z M94.4,17.1c-0.3,0.5-3,0.7-3.2,0.5c-0.3-0.3-0.3-4.1-0.2-4.3
		c0.1-0.1,3.5-0.3,3.7-0.1C95,13.5,94.7,16.6,94.4,17.1z"/>
	<path class="st87" d="M89.5,12.9L83.8,13l0.3,5.1l5.4,0.1L89.5,12.9z M88.9,17c-0.3,0.3-3.7,0.8-4.1,0.4s-0.8-3.8-0.5-4.1
		s4.5-0.1,4.7,0.1C89.2,13.6,89.2,16.7,88.9,17z"/>
	<path class="st87" d="M89.6,18.8h-5.4l0.2,3.6h5.2L89.6,18.8z M88.9,21.8c-0.2,0.2-3.8,0.5-4,0.2c-0.3-0.3-0.4-2.7-0.2-2.9
		s4.2-0.3,4.5,0C89.5,19.4,89.1,21.5,88.9,21.8z"/>
	<path class="st87" d="M90.4,18.8l0,3.6h4.1l0.2-3.6H90.4z M94,22c-0.2,0.2-2.8,0.3-3-0.1c-0.2-0.4-0.2-2.2-0.1-2.5s3-0.6,3.2-0.3
		C94.4,19.3,94.2,21.8,94,22z"/>
	<g>
		<g>
			<g>
				<g>
					<g>
						<defs>
							<polygon id="SVGID_68_" points="13,-1 14,-1 13,0 							"/>
						</defs>
						<clipPath id="SVGID_69_">
							<use xlink:href="#SVGID_68_"  style="overflow:visible;"/>
						</clipPath>
					</g>
					<g>
						<defs>
							<polygon id="SVGID_70_" points="13,-1 14,-1 13,0 							"/>
						</defs>
						<defs>
							<polygon id="SVGID_71_" points="11,-3 10,-3 11,-4 							"/>
						</defs>
						<clipPath id="SVGID_72_">
							<use xlink:href="#SVGID_70_"  style="overflow:visible;"/>
						</clipPath>
						<clipPath id="SVGID_73_" class="st90">
							<use xlink:href="#SVGID_71_"  style="overflow:visible;"/>
						</clipPath>
						
							<linearGradient id="SVGID_74_" gradientUnits="userSpaceOnUse" x1="89.125" y1="91.67" x2="89.125" y2="71.86" gradientTransform="matrix(1 0 0 1 0 -66)">
							<stop  offset="0" style="stop-color:#FFFFFF"/>
							<stop  offset="1" style="stop-color:#000000"/>
						</linearGradient>
						<polygon class="st91" points="80.7,5.9 82.4,25.7 97.6,25.7 82.6,25.5 						"/>
					</g>
				</g>
			</g>
		</g>
	</g>
</g>
<g>
	<g>
		
			<linearGradient id="SVGID_75_" gradientUnits="userSpaceOnUse" x1="23.05" y1="114.08" x2="45.29" y2="114.08" gradientTransform="matrix(1 0 0 1 0 -66)">
			<stop  offset="0" style="stop-color:#3B1D40"/>
			<stop  offset="1" style="stop-color:#271B31"/>
		</linearGradient>
		<path class="st92" d="M45.3,48.1c0,0.7-5,1.2-11.1,1.2s-11.1-0.5-11.1-1.2s5-1.2,11.1-1.2S45.3,47.4,45.3,48.1z"/>
		
			<linearGradient id="SVGID_76_" gradientUnits="userSpaceOnUse" x1="23.06" y1="113.88" x2="45.29" y2="113.88" gradientTransform="matrix(1 0 0 1 0 -66)">
			<stop  offset="0" style="stop-color:#797492"/>
			<stop  offset="1" style="stop-color:#4A365E"/>
		</linearGradient>
		<path class="st93" d="M45.3,47.9c0,0.1-0.2,0.3-0.6,0.4c-1.5,0.5-5.6,0.8-10.5,0.8c-6.1,0-11.1-0.5-11.1-1.2s5-1.2,11.1-1.2
			C40.3,46.7,45.3,47.2,45.3,47.9z"/>
		<path class="st5" d="M44.7,48.3c-1.5,0.5-5.6,0.8-10.5,0.8c-6.1,0-11.1-0.5-11.1-1.2l6-0.4l-4.5,0.4l2.5,0.6l6.8-1l-5.4,1l5.6,0.4
			l6.3-0.3l-3.5-1l4.3,1L44.7,48.3z"/>
	</g>
	<path class="st28" d="M33.9,40.7c0.5,0.1,1,0.3,1.3,0.5L33.9,40.7c-0.1,0.2-0.2,0.5-0.4,0.9l0,0c0,0-0.1,0.1-0.1,0.2l0,0l0,0
		c0,0.1-0.1,0.1-0.1,0.2c0,0,0,0-0.1,0C33,42,33,42,32.9,42.1c0.1,0.2,0.2,0.7,0.4,1.2v0c0.1,0.3,0.2,0.7,0.3,1l0,0c0,0,0,0,0,0
		l-0.1-0.1c0,0-0.1,0.1-0.3,0.3l-0.1,0.2l1,0.5l-0.4,0.7c0,0.1-0.1,0.2-0.1,0.4c0,0.3-0.9,0.3-1,0.4h-6.4c0-0.2,0-0.5,0-0.6
		c0,0,0,0,0,0c0.1-0.3,1.2-2.3,1.9-3.5c0.3-0.5,0.5-0.8,0.5-0.8l0,0c0.1-0.3,0.2-0.5,0.3-0.5l0-0.1c0,0,0-0.1,0-0.2l-0.5,0.1
		c0.1,0,0.3-0.1,0.5-0.1c0-0.4,0-1,0.1-1.5c0-0.1,0-0.1,0.1-0.2c-0.4-1.1,0-2.4,0-2.4c0,0,0,0.1,0,0.1c0,0,0.6,0.8,1,1.2
		c0,0,0,0,0,0c0,0,0,0,0,0l-0.5-0.7c0,0,0.3,0.3,0.6,0.7c0,0,0,0,0,0c0,0,0,0,0,0s0,0,0.1,0c0,0,0,0,0,0c0,0,0,0,0,0l-0.4-1.2
		c0,0,0.3,0.5,0.5,1.1c0,0,0,0,0,0c0,0,0,0,0,0c0,0,0,0,0.1,0c0,0,0,0,0,0c0,0,0,0,0.1,0c0,0,0,0,0,0c0,0,0.1,0,0.1,0c0,0,0,0,0,0
		c0,0,0.1,0,0.1,0c0,0,0,0,0,0c0,0,0.1,0,0.1,0c0,0,0,0,0,0c0,0,0.1,0,0.1,0l0,0l0,0c0,0,0.1,0,0.1,0c0.2,0,0.5,0.1,0.7,0.2h0
		c0,0,0,0,0,0c0.2-0.1,0.6-0.2,1-0.3c0.1-0.3,0.2-0.5,0.3-0.5l-0.2,0.5c0.1,0,0.1,0,0.2-0.1c0,0,0,0.2,0,0.4
		c0.2-0.2,0.3-0.3,0.3-0.3L33.5,38c0,0.2,0,0.4-0.1,0.6c-0.1,0.2-0.1,0.3-0.2,0.4c0,0.1,0,0.1,0,0.2c0.1-0.1,0.3-0.1,0.5-0.1
		c-0.2,0.1-0.3,0.2-0.4,0.3c0,0.3,0.1,0.6,0.2,0.7c0.1,0.1,0.5,0.5,0.5,0.5h-0.1l0.1,0.1c0.5,0.1,1.2,0.2,1.8,0.3L33.9,40.7
		C33.9,40.6,33.9,40.7,33.9,40.7z"/>
	<path class="st28" d="M26.5,47.5c0,0,1,0.6,1.3,0.6s10.2-0.2,10.5-0.2s0.9-0.1,0.9-0.1l-0.5-0.5l-5.5-0.4L28,47.1L26.5,47.5z"/>
	
		<linearGradient id="SVGID_77_" gradientUnits="userSpaceOnUse" x1="39.3334" y1="109.15" x2="40.5412" y2="109.15" gradientTransform="matrix(1 0 0 1 0 -66)">
		<stop  offset="0" style="stop-color:#43EB6D"/>
		<stop  offset="1" style="stop-color:#2DFFBD"/>
	</linearGradient>
	<path class="st94" d="M39.5,44.8c0-0.2,0-0.3,0-0.5c0-0.2,0-0.3,0-0.5c0-0.2,0-0.3,0.1-0.5c0-0.2,0-0.3,0.1-0.5l0,0c0,0,0,0,0-0.1
		c0.2-0.1,0.3-0.3,0.5-0.4h0c0,0,0.1,0,0.1,0c0,0,0.1,0.1,0.1,0.1l-0.2,0.1c0-0.2,0-0.3-0.1-0.5c0-0.2-0.1-0.3-0.1-0.5
		c0.1,0.2,0.1,0.3,0.2,0.5s0.1,0.3,0.2,0.5c0,0,0,0.1-0.1,0.1c0,0-0.1,0-0.1,0l0,0c0,0-0.1-0.1-0.1-0.1h0.1
		c-0.2,0.2-0.3,0.3-0.5,0.5l0-0.1c0,0.2,0,0.3-0.1,0.5c0,0.2-0.1,0.3-0.1,0.5c0,0.2-0.1,0.3-0.1,0.5C39.6,44.5,39.5,44.7,39.5,44.8z
		"/>
	<path class="st95" d="M39.8,42.8c0,0-0.2,1.6-0.4,2.1s-0.6,2.4-0.5,2.5c0.1,0.1,0.3,0.4,0.3,0.5c0,0.1-0.6-0.2-0.7-0.3
		c-0.1-0.1-0.9-2.9-0.9-2.9L39.8,42.8z"/>
	<path class="st95" d="M38.3,46.4c0,0-1.2,1.1-1.4,1.3c-0.2,0.2-1.3,0-1.3,0l0.8-3.1l1.7-0.6L38.3,46.4z"/>
	<path class="st96" d="M36.3,45.2l-0.7,0.2l-2.5,0.9c0,0-0.1-1.7,0-2.2c0.1-0.3,1.2-2.3,1.9-3.5c0.3-0.5,0.5-0.8,0.5-0.8l0,0
		l0.6,3.7l0.1,0.7L36.3,45.2z"/>
	<path class="st96" d="M40.4,42.5l-0.1-0.1c0,0-1.8,1.7-2.7,2.5s-1,0.2-1,0.2l-0.5-3.7l-0.3-1.9l1.9,0.4l1.3,0.3l0.7,0.2
		c0,0,0,0,0,0.1c0.1,0.2,0.2,0.7,0.4,1.2C40.3,41.8,40.4,42.2,40.4,42.5z"/>
	<path class="st97" d="M39.4,36.3l0.9-0.7c0,0,0,0.7-0.1,1.1s-0.3,0.5-0.3,0.5L39.4,36.3z"/>
	<path class="st97" d="M36,35.1c0,0,0.8,1.1,1.1,1.3L36.3,37C36.3,37,36,35.2,36,35.1z"/>
	<path class="st95" d="M38.9,36.1c0,0,1-0.2,1.4-0.5c0,0-0.7,0.5-0.9,0.7S38.9,36.1,38.9,36.1z"/>
	<path class="st98" d="M40.7,38.7l0.1,0.1c0,0-0.1,0.5-0.5,1l0,0c0,0-0.1,0.1-0.1,0.2c-0.1,0.1-0.2,0.3-0.4,0.4c0,0,0,0,0,0
		c0,0-0.7,0.2-1.2,0.2c-1.2,0-2.2-0.8-2.6-1.2c0,0-0.1-1.1,0.1-1.7c0-0.1,0-0.1,0.1-0.2c0.1-0.3,0.3-0.5,0.5-0.8
		c0.4-0.5,1-0.8,1.8-0.8l0,0c0,0,0.1,0,0.1,0c0.2,0,0.5,0.1,0.7,0.2h0c0.6,0.3,0.9,0.8,0.9,0.9c0,0.2,0.1,1.1,0.2,1.3
		c0.1,0.1,0.5,0.5,0.5,0.5L40.7,38.7C40.7,38.7,40.7,38.7,40.7,38.7z"/>
	<path class="st99" d="M39.3,38c0,0,0.3,0.4,0.6,0.3s0.1-0.8,0.1-0.8L39.3,38z"/>
	<path class="st95" d="M39.4,37.8C39.4,37.9,39.4,37.9,39.4,37.8c0,0.2,0.1,0.3,0.2,0.3c0.1,0,0.2-0.2,0.2-0.3c0-0.1,0-0.1,0-0.2
		c0-0.1,0-0.1-0.1-0.1C39.6,37.7,39.5,37.7,39.4,37.8C39.5,37.8,39.4,37.8,39.4,37.8z"/>
	<circle class="st76" cx="39.8" cy="37.9" r="0.1"/>
	<g>
		<path class="st99" d="M38.5,38c0,0-0.2,0.4-0.5,0.5s-0.9-0.6-1-1L38.5,38z"/>
		<path class="st95" d="M36.5,37.2l0.9,0.3l0.6,0.2l0.5,0.2c0,0-0.2-0.2-0.5-0.3c-0.1-0.1-0.3-0.1-0.5-0.2
			C37.3,37.4,36.9,37.3,36.5,37.2z"/>
		<path class="st95" d="M37.3,37.8c0,0.2,0.2,0.3,0.3,0.3c0.2,0,0.3-0.1,0.3-0.3c0,0,0,0,0,0c0,0,0-0.1,0-0.1
			c-0.1-0.1-0.3-0.1-0.5-0.2c-0.1,0-0.1,0.1-0.1,0.1C37.4,37.6,37.3,37.7,37.3,37.8z"/>
		<path class="st76" d="M37.8,38C37.8,38.1,37.8,38.1,37.8,38c0.1,0.1,0.1,0,0.1,0S37.9,38,37.8,38C37.8,38,37.8,38,37.8,38z"/>
	</g>
	<g>
		<path class="st100" d="M39.5,38.3c0,0-0.3-0.2-0.5-0.2c-0.2,0-0.3,0.2-0.3,0.2H39.5z"/>
		<path class="st95" d="M39.5,38.3c0,0-0.7-0.1-0.8,0c-0.1,0.1,0.3,0.2,0.4,0.2C39.3,38.5,39.5,38.3,39.5,38.3z"/>
		<path class="st95" d="M39.7,39c0,0-0.4-0.2-0.5-0.2c-0.1,0-0.7,0.3-0.7,0.3s0.6-0.2,0.7-0.2s0.4,0.2,0.4,0.2l-0.2,0.4
			C39.4,39.4,39.7,39.1,39.7,39z"/>
		<polygon class="st95" points="39.2,38.5 39.2,38.7 39.1,38.5 		"/>
		<path class="st95" d="M39.5,38.3c0,0,0.2,0.3,0.2,0.6C39.7,38.9,39.6,38.5,39.5,38.3L39.5,38.3z"/>
	</g>
	<path class="st95" d="M36.9,34.8c0,0,0.8,1.3,0.9,2.6L36.9,34.8z"/>
	<path class="st95" d="M36.5,35.5c0,0,0.8,0.8,1.2,1.7L36.5,35.5z"/>
	<path class="st98" d="M36.5,36.7L36,37.4c-0.4-1.1,0-2.4,0-2.4C36,35.7,36.4,36.4,36.5,36.7C36.5,36.7,36.5,36.7,36.5,36.7z"/>
	<path class="st96" d="M37.2,47.6c0,0.1,0,0.2,0,0.2c-0.1,0-3.1,0.1-3.3,0c-0.3-0.1-0.7-0.8-0.7-0.9v-1.2c0-0.2,0.5-0.4,0.5-0.4
		s0.9-0.5,1.8-0.7c0.2-0.1,0.5-0.1,0.7-0.2c0.2,0,0.4,0,0.5,0c0.7,0.2,0.7,1.6,0.5,2.2c0,0.2-0.3,0.5-0.6,0.7
		c-0.4,0.3-0.8,0.5-0.8,0.5s0.9-0.2,1.2-0.2l0,0C37.1,47.5,37.2,47.6,37.2,47.6z"/>
	<path class="st96" d="M33.3,46.8c0,0-0.8,1-1.1,1c-0.3,0-2.2-0.3-2.6-0.3c-0.3,0-1.5,0.3-2,0.3s-1.5-0.6-1.5-0.6s0-0.1,0.1-0.3
		c0.1-0.1,0.1-0.3,0.3-0.4c0.2-0.2,2.1-0.4,2.1-0.4l-0.3-0.4l2.3,0.8c0,0,1.7,0.2,1.8,0.2c0,0,0,0,0.1-0.1c0.2-0.2,0.7-0.6,0.7-0.6
		L33.3,46.8z"/>
	<path class="st95" d="M37.9,38.8c0,0-1.7,0.1-2.5,0.4L37.9,38.8z"/>
	<path class="st95" d="M37.8,38.9c0,0-1.3,0.3-2,0.6L37.8,38.9z"/>
	<path class="st101" d="M39.8,40.3c0.1,0.2,0.2,0.7,0.4,1.2c-0.8,0.2-2.2,0.6-2.8,0.6c-0.3,0-0.8-0.4-1.3-0.8l-0.3-1.9
		c0,0-0.1-1.1,0.1-1.7c0-0.1,0-0.1,0.1-0.2c-0.4-1.1,0-2.4,0-2.4c-0.1,0.7,0.4,1.5,0.5,1.7c0.4-0.5,1.1-0.9,1.9-0.8
		c0.2,0,0.5,0.1,0.7,0.2c0,0-0.5-0.1-1.1,0.2c-0.7,0.3-1.1,1.9-1.1,2.6c0,0.4,0.4,0.7,0.9,1c0.3,0.2,0.6,0.2,0.7,0.3
		c0.1,0,0.3,0,0.6,0c0.6-0.1,1.3-0.3,1.3-0.3l0,0C40.1,40,40,40.2,39.8,40.3z"/>
	<path class="st98" d="M38,47.8c0,0.1-0.4,0-0.7-0.2c0,0-0.1,0-0.1-0.1c0,0-0.1,0-0.1-0.1l0,0c-0.1-0.1-0.2-0.2-0.3-0.3
		c-0.4-0.5-0.9-1.1-1-1.2c0,0-0.1-0.2-0.1-0.5c0-0.3-0.1-0.6-0.1-1c-0.2-1.3-0.3-2.9-0.3-3.2c0,0,0-0.1,0-0.2c0-0.3,0.2-0.8,0.4-1.2
		l0,0c0.1-0.3,0.3-0.5,0.4-0.5c0.1,0,0.3,0.4,0.7,1l0,0l0,0l0,0c0.5,0.9,1.1,2.1,1.2,2.6c0,0.1,0,0.1,0,0.2c0,0.5,0,1.6-0.1,2.5
		c-0.1,0.9-0.1,1.7-0.1,1.7C37.6,47.4,38,47.7,38,47.8z"/>
	<path class="st101" d="M38,47.8c0,0.1-0.4,0-0.7-0.2c0,0.1,0,0.2,0,0.2c-0.1,0-3.1,0.1-3.3,0c-0.3-0.1-0.7-0.8-0.7-0.9v-0.5
		c0,0-0.1-1.7,0-2.2c0.1-0.3,1.2-2.3,1.9-3.5c0,0.1,0.1,0.2,0.1,0.4c0.3,0.9,0.8,2.4,0.9,2.5c0,0,0,0,0.1,0c0.3,0,1.6-0.7,1.6-0.7
		l0,0.2c0.1,1.1-0.3,4.1-0.2,4.2C37.6,47.4,38,47.7,38,47.8z"/>
	<path class="st98" d="M32.5,46.7c-0.2,0.3-0.4,0.7-0.6,0.7c-0.4,0-2.1-0.2-2.3-0.2s-1.9,0.5-2.1,0.5c-0.2,0-0.9-0.5-1.2-0.7
		c0.1-0.1,0.1-0.3,0.3-0.4c0.2-0.2,2.1-0.4,2.1-0.4l-0.3-0.4l2.3,0.8C30.6,46.6,32.3,46.8,32.5,46.7C32.4,46.8,32.4,46.7,32.5,46.7z
		"/>
	
		<linearGradient id="SVGID_78_" gradientUnits="userSpaceOnUse" x1="37.9775" y1="109.545" x2="40.0039" y2="109.545" gradientTransform="matrix(1 0 0 1 0 -66)">
		<stop  offset="0" style="stop-color:#43EB6D"/>
		<stop  offset="1" style="stop-color:#2DFFBD"/>
	</linearGradient>
	<polygon class="st102" points="38,44.5 40,42.6 39.9,42.8 	"/>
	
		<linearGradient id="SVGID_79_" gradientUnits="userSpaceOnUse" x1="36.5425" y1="109.19" x2="37.7393" y2="109.19" gradientTransform="matrix(1 0 0 1 0 -66)">
		<stop  offset="0" style="stop-color:#43EB6D"/>
		<stop  offset="1" style="stop-color:#2DFFBD"/>
	</linearGradient>
	<path class="st103" d="M37.6,45.7L37.6,46c0,0,0.2-2.5,0.1-3c-0.1-0.6-1.1-2.6-1.1-2.7l0,0c0.5,0.9,1,2.1,1.1,2.6
		c0,0.1,0,0.1,0,0.2C37.8,43.7,37.7,44.8,37.6,45.7z"/>
	
		<linearGradient id="SVGID_80_" gradientUnits="userSpaceOnUse" x1="38.2962" y1="103.87" x2="40.7513" y2="103.87" gradientTransform="matrix(1 0 0 1 0 -66)">
		<stop  offset="0" style="stop-color:#43EB6D"/>
		<stop  offset="1" style="stop-color:#2DFFBD"/>
	</linearGradient>
	<path class="st104" d="M40.7,38.7l0.1,0.1c0,0-0.1,0.5-0.5,1l0,0c0,0-0.1,0.1-0.1,0.2C40.5,39.3,40.6,38.7,40.7,38.7
		c-0.1,0-0.3-0.3-0.5-0.5C40,38,40,37.1,40,37c0-0.2-0.2-0.4-0.7-0.7c-0.4-0.3-1-0.4-1-0.4c0,0,0.1,0,0.1,0c0.2,0,0.5,0.1,0.7,0.2h0
		c0.6,0.3,0.9,0.8,0.9,0.9c0,0.2,0.1,1.1,0.2,1.3c0.1,0.1,0.5,0.5,0.5,0.5L40.7,38.7L40.7,38.7z"/>
	
		<linearGradient id="SVGID_81_" gradientUnits="userSpaceOnUse" x1="39.97" y1="104.88" x2="42.5135" y2="104.88" gradientTransform="matrix(1 0 0 1 0 -66)">
		<stop  offset="0" style="stop-color:#43EB6D"/>
		<stop  offset="1" style="stop-color:#2DFFBD"/>
	</linearGradient>
	<path class="st105" d="M40,38.7c0,0,1.5,0.1,2.5,0.4L40,38.7z"/>
	
		<linearGradient id="SVGID_82_" gradientUnits="userSpaceOnUse" x1="40.0039" y1="105.06" x2="42.0486" y2="105.06" gradientTransform="matrix(1 0 0 1 0 -66)">
		<stop  offset="0" style="stop-color:#43EB6D"/>
		<stop  offset="1" style="stop-color:#2DFFBD"/>
	</linearGradient>
	<path class="st106" d="M40,38.8c0,0,1.4,0.2,2,0.6L40,38.8z"/>
	<path class="st95" d="M40.4,35.2c0,0-0.6,1-0.7,2L40.4,35.2z"/>
	<path class="st95" d="M40.7,35.7c0,0-0.6,0.6-0.9,1.3L40.7,35.7z"/>
	<path class="st95" d="M39.3,38c0.2-0.2,0.6-0.4,1.2-0.7C40,37.2,39.6,37.6,39.3,38z"/>
</g>
<rect class="st107" width="100" height="50"/>
</svg>
