<?xml version="1.0" encoding="utf-8"?>
<!-- Generator: Adobe Illustrator 23.0.3, SVG Export Plug-In . SVG Version: 6.00 Build 0)  -->
<svg version="1.1" id="witch" xmlns="http://www.w3.org/2000/svg" xmlns:xlink="http://www.w3.org/1999/xlink" x="0px" y="0px"
	 viewBox="0 0 100 50" style="enable-background:new 0 0 100 50;" xml:space="preserve">
<style type="text/css">
	.st0{fill:url(#SVGID_1_);}
	.st1{opacity:0.5;fill:#313131;enable-background:new    ;}
	.st2{fill:#D0BFBE;}
	.st3{opacity:0.6;fill:#313131;enable-background:new    ;}
	.st4{opacity:0.33;fill:#313131;enable-background:new    ;}
	.st5{opacity:0.54;fill:#313131;enable-background:new    ;}
	.st6{fill:#F1E4DC;}
	.st7{fill:url(#SVGID_2_);}
	.st8{opacity:0.2;}
	.st9{fill:#3A275E;}
	.st10{opacity:0.45;fill:#313131;enable-background:new    ;}
	.st11{opacity:0.23;fill:#313131;enable-background:new    ;}
	.st12{opacity:0.23;enable-background:new    ;}
	.st13{clip-path:url(#SVGID_7_);}
	.st14{clip-path:url(#SVGID_8_);fill:url(#SVGID_9_);}
	.st15{fill:url(#SVGID_10_);}
	.st16{fill:url(#SVGID_11_);}
	.st17{opacity:0.65;fill:#313131;enable-background:new    ;}
	.st18{fill:url(#SVGID_12_);}
	.st19{fill:#2E1522;}
	.st20{fill:#331A26;}
	.st21{fill:#CC5A70;}
	.st22{fill:#3C2430;}
	.st23{fill:#FFC423;}
	.st24{fill:#FFFFFF;}
	.st25{fill:#4C3837;}
	.st26{opacity:0.15;fill:#313131;enable-background:new    ;}
	.st27{fill:url(#SVGID_13_);}
	.st28{fill:url(#SVGID_14_);}
	.st29{fill:url(#SVGID_15_);}
	.st30{fill:url(#SVGID_16_);}
	.st31{fill:url(#SVGID_17_);}
	.st32{fill:none;}
	.st33{opacity:0.41;fill:#313131;enable-background:new    ;}
	.st34{fill:#42153B;}
	.st35{fill:url(#SVGID_18_);}
	.st36{fill:url(#SVGID_19_);}
	.st37{opacity:0.53;fill:#313131;enable-background:new    ;}
	.st38{opacity:0.1;fill:#F1E4DC;enable-background:new    ;}
	.st39{fill:#6A2C2E;}
	.st40{fill:#42151F;}
	.st41{fill:url(#SVGID_20_);}
	.st42{fill:#FFFFD1;}
	.st43{clip-path:url(#SVGID_25_);}
	.st44{clip-path:url(#SVGID_26_);fill:url(#SVGID_27_);}
	.st45{fill:url(#SVGID_28_);}
	.st46{fill:url(#SVGID_29_);}
	.st47{fill:#F1A4A4;}
	.st48{fill:url(#SVGID_30_);}
	.st49{fill:url(#SVGID_31_);}
	.st50{fill:url(#SVGID_32_);}
	.st51{fill:url(#SVGID_33_);}
	.st52{fill:url(#SVGID_34_);}
	.st53{fill:url(#SVGID_35_);}
	.st54{fill:url(#SVGID_36_);}
	.st55{fill:url(#SVGID_37_);}
	.st56{opacity:0.3;fill:#FFFFFF;enable-background:new    ;}
	.st57{fill:url(#SVGID_38_);}
	.st58{fill:url(#SVGID_39_);}
	.st59{fill:url(#SVGID_40_);}
	.st60{fill:url(#SVGID_41_);}
	.st61{fill:url(#SVGID_42_);}
	.st62{fill:url(#SVGID_43_);}
	.st63{fill:url(#SVGID_44_);}
	.st64{fill:#155168;}
	.st65{fill:#8A011B;}
	.st66{fill:#8CA4AF;}
	.st67{fill:#5F8090;}
	.st68{fill:#FFBB15;}
	.st69{fill:#CD4331;}
	.st70{fill:#75113B;}
	.st71{fill:#6E424F;}
	.st72{fill:#A6BC00;}
	.st73{fill:#FFD6CC;}
	.st74{opacity:0.26;fill:#313131;enable-background:new    ;}
	.st75{opacity:0.28;fill:#313131;enable-background:new    ;}
	.st76{fill:url(#SVGID_45_);}
	.st77{fill:url(#SVGID_46_);}
	.st78{clip-path:url(#SVGID_51_);}
	.st79{clip-path:url(#SVGID_52_);fill:url(#SVGID_53_);}
	.st80{opacity:0.5;fill:url(#SVGID_54_);enable-background:new    ;}
	.st81{fill:url(#SVGID_55_);}
	.st82{fill:url(#SVGID_56_);}
	.st83{clip-path:url(#SVGID_61_);}
	.st84{clip-path:url(#SVGID_62_);fill:url(#SVGID_63_);}
	.st85{opacity:0.5;fill:url(#SVGID_64_);enable-background:new    ;}
	.st86{fill:url(#SVGID_65_);}
	.st87{opacity:0.8;fill:#FFFFFF;enable-background:new    ;}
	.st88{opacity:0.5;fill:url(#SVGID_66_);enable-background:new    ;}
	.st89{fill:url(#SVGID_67_);}
	.st90{fill:url(#SVGID_68_);}
	.st91{clip-path:url(#SVGID_73_);}
	.st92{clip-path:url(#SVGID_74_);fill:url(#SVGID_75_);}
	.st93{opacity:0.5;fill:url(#SVGID_76_);enable-background:new    ;}
	.st94{fill:url(#SVGID_77_);}
	.st95{fill:url(#SVGID_78_);}
	.st96{fill:#571123;}
	.st97{opacity:0.62;fill:url(#SVGID_79_);enable-background:new    ;}
	.st98{opacity:0.55;fill:#FFF6D6;enable-background:new    ;}
	.st99{opacity:0.53;fill:#7A1D23;enable-background:new    ;}
	.st100{opacity:0.62;fill:url(#SVGID_80_);enable-background:new    ;}
	.st101{opacity:0.62;fill:url(#SVGID_81_);enable-background:new    ;}
	.st102{fill:#FFF6D6;}
	.st103{opacity:0.2;fill:#FFF6D6;enable-background:new    ;}
	.st104{fill:url(#SVGID_82_);}
	.st105{fill:#004245;}
	.st106{fill:url(#SVGID_83_);}
	.st107{opacity:0.25;fill:#313131;enable-background:new    ;}
	.st108{fill:url(#SVGID_84_);}
	.st109{fill:#5FA9B1;}
	.st110{fill:#D6CACA;}
	.st111{fill:#FFF493;}
	.st112{opacity:0.39;fill:url(#SVGID_85_);enable-background:new    ;}
</style>
<g>
	
		<linearGradient id="SVGID_1_" gradientUnits="userSpaceOnUse" x1="0" y1="111.81" x2="100" y2="111.81" gradientTransform="matrix(1 0 0 1 0 -66)">
		<stop  offset="0" style="stop-color:#C1919C"/>
		<stop  offset="1" style="stop-color:#84778D"/>
	</linearGradient>
	<rect y="41.6" class="st0" width="100" height="8.4"/>
	<path class="st1" d="M69.9,42.7h0.2l28.7,0l0,0l1.3,0.6v-0.2l-0.9-0.4h0.9v-0.2h-1.4h-0.4H69.8l-1.2-1h-0.1l1.1,1h-21h-0.2H24.2H24
		H0v0l23.8,0l0,0H24l24.4,0l-1.2,1.7l-28,0.1h-0.3L0,44.6v0.1l18.5-0.1L13,46.7H0v0.1l12.5,0h0.4l32.4,0L43,50h0.4l2.2-3l29.3,0h0.3
		l24.9,0v-0.3H75l-2.9-2.3l28.1-0.1v-0.2l-28.3,0.1h-0.2l-24.3,0.1l1.2-1.7L69.9,42.7z M71.9,44.4l2.8,2.3H45.8h-0.3H13.3l5.5-2.1
		L47,44.5h0.3L71.9,44.4z"/>
	<polygon class="st2" points="43.4,50 45.6,47 100.2,47 45.8,47 43.8,50 	"/>
	<polygon class="st2" points="13.3,46.7 18.8,44.6 71.9,44.4 18.9,44.7 13.6,46.7 	"/>
	<polygon class="st2" points="75,46.7 72.1,44.4 100.2,44.3 72.5,44.5 75.2,46.7 	"/>
	<polygon class="st2" points="47.4,44.4 48.6,42.7 98.7,42.8 48.7,42.8 47.7,44.4 	"/>
	<polygon class="st3" points="43,50 45.2,47 0,46.9 0,50 	"/>
	<polygon class="st3" points="100.2,46.7 75,46.7 72.1,44.4 100.2,44.3 	"/>
	<polygon class="st3" points="0,44.6 47.1,44.4 48.4,42.7 0,42.6 	"/>
	<polygon class="st4" points="74.7,46.7 71.9,44.4 47.7,44.5 71.5,44.6 73,46 58.1,46.1 73.2,46.2 73.6,46.5 63.8,46.7 	"/>
	<polygon class="st4" points="100.2,50 100.2,47 45.6,47 97.2,47.3 98.4,48.4 76.4,48.5 100.2,48.9 100.2,49.8 45.6,50 	"/>
	<polygon class="st4" points="98.7,42.8 82.2,42.8 98.7,42.9 100.2,44 84.4,44.2 100.2,44.1 100.2,43.5 	"/>
</g>
<polygon class="st5" points="92.4,41.6 90.3,49.4 15.4,48.5 16.8,40.6 0,41.1 0,50 100,50 100,41.6 "/>
<polygon class="st6" points="100,40.5 100,41.6 18.8,41.6 18.8,41.1 28.3,41 34.8,41 "/>
<g>
	
		<linearGradient id="SVGID_2_" gradientUnits="userSpaceOnUse" x1="50.005" y1="107.06" x2="50.005" y2="65.98" gradientTransform="matrix(1 0 0 1 0 -66)">
		<stop  offset="0" style="stop-color:#636D8B"/>
		<stop  offset="1" style="stop-color:#745072"/>
	</linearGradient>
	<polygon class="st7" points="100,40.4 0,41.1 0,0 100,0 	"/>
	<polygon class="st5" points="0,41.1 8.6,41 13.1,2.9 86.2,4.8 92,40.5 100,40.4 100,0 0,0 	"/>
	<g class="st8">
		<g>
			
				<rect x="49.9" y="-41" transform="matrix(2.619887e-02 -0.9997 0.9997 2.619887e-02 39.637 58.7991)" class="st9" width="0.1" height="100"/>
		</g>
		<g>
			<rect x="0" y="12.3" class="st9" width="100" height="0.1"/>
		</g>
		<g>
			
				<rect x="50.1" y="-27.6" transform="matrix(2.000000e-02 -0.9998 0.9998 2.000000e-02 26.6169 72.1693)" class="st9" width="0.1" height="100.2"/>
		</g>
		<g>
			
				<rect x="0" y="32.8" transform="matrix(0.9997 -2.559929e-02 2.559929e-02 0.9997 -0.8236 1.294)" class="st9" width="100.3" height="0.1"/>
		</g>
	</g>
	<polygon class="st10" points="1.9,12.8 1.9,14.6 13.1,14.4 13.1,13.1 	"/>
	<polygon class="st11" points="9.3,15.2 9.3,16.6 20.4,16.5 20.4,15.1 	"/>
	<polygon class="st11" points="13.8,13 13.8,14.4 25,14.8 25,12.9 	"/>
	<polygon class="st11" points="21.1,9.1 21.1,10.6 32.3,10.9 32.3,9.1 	"/>
	<polygon class="st11" points="32.8,9.1 32.8,10.9 44,10.9 44,9.3 	"/>
	<polygon class="st10" points="73.8,16.1 73.8,17.9 85,17.9 85,16.3 	"/>
	<polygon class="st12" points="78.4,18.4 78.4,20.2 89.6,20.2 89.8,19 	"/>
	<polygon class="st12" points="72.8,35.9 72.8,37 84.2,37.3 84.1,35.8 	"/>
	<polygon class="st12" points="35,24.8 35,26.6 46.1,26.6 46.3,25.4 	"/>
	<polygon class="st10" points="79.6,34 79.6,35.2 90.7,35.2 90.7,34.1 	"/>
	<polygon class="st11" points="41.7,27.2 41.7,28.6 52.9,28.5 52.9,27.5 	"/>
	<polygon class="st12" points="26.7,6.2 27.1,8 37.7,8 37.9,6.5 	"/>
	<polygon class="st11" points="77.5,6.2 77.5,7.6 88.6,7.5 88.6,6.5 	"/>
	<polygon class="st11" points="6,36.1 6,37.4 17.2,37.3 17.2,36.3 	"/>
	<polygon class="st11" points="1.1,0 1.1,8.7 17.9,9.1 2.6,9.3 2.9,18.6 25,19.4 15.5,19.4 15.8,24.8 26.7,25 7.5,25.7 7.8,27.9 
		19.4,28.6 4.5,29.1 4.8,38 28.5,39.1 13.1,39.1 13.1,41 0,41.1 0,0 	"/>
	<polygon class="st11" points="95.5,0 95.5,2.9 76.7,2.9 95,4.4 95.5,8.7 83.8,8.7 92.7,9.4 93,11.5 78.4,12.4 91,13.3 91.8,21.1 
		69.1,21.5 94.1,22.5 94.9,30 77.5,30.7 88.9,31.2 90.7,40.2 65.6,40.7 100,40.4 100,0 	"/>
</g>
<g>
	<g>
		<g>
			<g>
				<g>
					<defs>
						<polygon id="SVGID_3_" points="1,1 2,1 1,2 						"/>
					</defs>
					<clipPath id="SVGID_4_">
						<use xlink:href="#SVGID_3_"  style="overflow:visible;"/>
					</clipPath>
				</g>
				<g>
					<defs>
						<polygon id="SVGID_5_" points="1,1 2,1 1,2 						"/>
					</defs>
					<defs>
						<polygon id="SVGID_6_" points="-1,-1 -2,-1 -1,-2 						"/>
					</defs>
					<clipPath id="SVGID_7_">
						<use xlink:href="#SVGID_5_"  style="overflow:visible;"/>
					</clipPath>
					<clipPath id="SVGID_8_" class="st13">
						<use xlink:href="#SVGID_6_"  style="overflow:visible;"/>
					</clipPath>
					
						<linearGradient id="SVGID_9_" gradientUnits="userSpaceOnUse" x1="15.72" y1="108.19" x2="15.72" y2="72.14" gradientTransform="matrix(1 0 0 1 0 -66)">
						<stop  offset="0" style="stop-color:#FFFFFF"/>
						<stop  offset="1" style="stop-color:#000000"/>
					</linearGradient>
					<polygon class="st14" points="9.2,6.1 22.2,6.2 21.5,42.2 21.9,6.5 					"/>
				</g>
			</g>
		</g>
	</g>
</g>
<g>
	<g>
		
			<linearGradient id="SVGID_10_" gradientUnits="userSpaceOnUse" x1="23.05" y1="114.08" x2="45.29" y2="114.08" gradientTransform="matrix(1 0 0 1 0 -66)">
			<stop  offset="0" style="stop-color:#3B1D40"/>
			<stop  offset="1" style="stop-color:#271B31"/>
		</linearGradient>
		<path class="st15" d="M45.3,48.1c0,0.7-5,1.2-11.1,1.2s-11.1-0.5-11.1-1.2s5-1.2,11.1-1.2S45.3,47.4,45.3,48.1z"/>
		
			<linearGradient id="SVGID_11_" gradientUnits="userSpaceOnUse" x1="23.06" y1="113.88" x2="45.29" y2="113.88" gradientTransform="matrix(1 0 0 1 0 -66)">
			<stop  offset="0" style="stop-color:#797492"/>
			<stop  offset="1" style="stop-color:#4A365E"/>
		</linearGradient>
		<path class="st16" d="M45.3,47.9c0,0.1-0.2,0.3-0.6,0.4c-1.5,0.5-5.6,0.8-10.5,0.8c-6.1,0-11.1-0.5-11.1-1.2s5-1.2,11.1-1.2
			C40.3,46.7,45.3,47.2,45.3,47.9z"/>
		<path class="st5" d="M44.7,48.3c-1.5,0.5-5.6,0.8-10.5,0.8c-6.1,0-11.1-0.5-11.1-1.2l6-0.4l-4.5,0.4l2.5,0.6l6.8-1l-5.4,1l5.6,0.4
			l6.3-0.3l-3.5-1l4.3,1L44.7,48.3z"/>
	</g>
	<path class="st17" d="M33.9,40.7c0.5,0.1,1,0.3,1.3,0.5L33.9,40.7c-0.1,0.2-0.2,0.5-0.4,0.9l0,0c0,0-0.1,0.1-0.1,0.2l0,0l0,0
		c0,0.1-0.1,0.1-0.1,0.2c0,0,0,0-0.1,0C33,42,33,42,32.9,42.1c0.1,0.2,0.2,0.7,0.4,1.2v0c0.1,0.3,0.2,0.7,0.3,1l0,0c0,0,0,0,0,0
		l-0.1-0.1c0,0-0.1,0.1-0.3,0.3l-0.1,0.2l1,0.5l-0.4,0.7c0,0.1-0.1,0.2-0.1,0.4c0,0.3-0.9,0.3-1,0.4h-6.4c0-0.2,0-0.5,0-0.6
		c0,0,0,0,0,0c0.1-0.3,1.2-2.3,1.9-3.5c0.3-0.5,0.5-0.8,0.5-0.8l0,0c0.1-0.3,0.2-0.5,0.3-0.5l0-0.1c0,0,0-0.1,0-0.2l-0.5,0.1
		c0.1,0,0.3-0.1,0.5-0.1c0-0.4,0-1,0.1-1.5c0-0.1,0-0.1,0.1-0.2c-0.4-1.1,0-2.4,0-2.4c0,0,0,0.1,0,0.1c0,0,0.6,0.8,1,1.2
		c0,0,0,0,0,0c0,0,0,0,0,0l-0.5-0.7c0,0,0.3,0.3,0.6,0.7c0,0,0,0,0,0c0,0,0,0,0,0s0,0,0.1,0c0,0,0,0,0,0c0,0,0,0,0,0l-0.4-1.2
		c0,0,0.3,0.5,0.5,1.1c0,0,0,0,0,0c0,0,0,0,0,0c0,0,0,0,0.1,0c0,0,0,0,0,0c0,0,0,0,0.1,0c0,0,0,0,0,0c0,0,0.1,0,0.1,0c0,0,0,0,0,0
		c0,0,0.1,0,0.1,0c0,0,0,0,0,0c0,0,0.1,0,0.1,0c0,0,0,0,0,0c0,0,0.1,0,0.1,0l0,0l0,0c0,0,0.1,0,0.1,0c0.2,0,0.5,0.1,0.7,0.2h0
		c0,0,0,0,0,0c0.2-0.1,0.6-0.2,1-0.3c0.1-0.3,0.2-0.5,0.3-0.5l-0.2,0.5c0.1,0,0.1,0,0.2-0.1c0,0,0,0.2,0,0.4
		c0.2-0.2,0.3-0.3,0.3-0.3L33.5,38c0,0.2,0,0.4-0.1,0.6c-0.1,0.2-0.1,0.3-0.2,0.4c0,0.1,0,0.1,0,0.2c0.1-0.1,0.3-0.1,0.5-0.1
		c-0.2,0.1-0.3,0.2-0.4,0.3c0,0.3,0.1,0.6,0.2,0.7c0.1,0.1,0.5,0.5,0.5,0.5h-0.1l0.1,0.1c0.5,0.1,1.2,0.2,1.8,0.3L33.9,40.7
		C33.9,40.6,33.9,40.7,33.9,40.7z"/>
	<path class="st17" d="M26.5,47.5c0,0,1,0.6,1.3,0.6s10.2-0.2,10.5-0.2s0.9-0.1,0.9-0.1l-0.5-0.5l-5.5-0.4L28,47.1L26.5,47.5z"/>
	
		<linearGradient id="SVGID_12_" gradientUnits="userSpaceOnUse" x1="39.3334" y1="109.15" x2="40.5412" y2="109.15" gradientTransform="matrix(1 0 0 1 0 -66)">
		<stop  offset="0" style="stop-color:#43EB6D"/>
		<stop  offset="1" style="stop-color:#2DFFBD"/>
	</linearGradient>
	<path class="st18" d="M39.5,44.8c0-0.2,0-0.3,0-0.5c0-0.2,0-0.3,0-0.5c0-0.2,0-0.3,0.1-0.5c0-0.2,0-0.3,0.1-0.5l0,0c0,0,0,0,0-0.1
		c0.2-0.1,0.3-0.3,0.5-0.4h0c0,0,0.1,0,0.1,0c0,0,0.1,0.1,0.1,0.1l-0.2,0.1c0-0.2,0-0.3-0.1-0.5c0-0.2-0.1-0.3-0.1-0.5
		c0.1,0.2,0.1,0.3,0.2,0.5s0.1,0.3,0.2,0.5c0,0,0,0.1-0.1,0.1c0,0-0.1,0-0.1,0l0,0c0,0-0.1-0.1-0.1-0.1h0.1
		c-0.2,0.2-0.3,0.3-0.5,0.5l0-0.1c0,0.2,0,0.3-0.1,0.5c0,0.2-0.1,0.3-0.1,0.5c0,0.2-0.1,0.3-0.1,0.5C39.6,44.5,39.5,44.7,39.5,44.8z
		"/>
	<path class="st19" d="M39.8,42.8c0,0-0.2,1.6-0.4,2.1s-0.6,2.4-0.5,2.5c0.1,0.1,0.3,0.4,0.3,0.5c0,0.1-0.6-0.2-0.7-0.3
		c-0.1-0.1-0.9-2.9-0.9-2.9L39.8,42.8z"/>
	<path class="st19" d="M38.3,46.4c0,0-1.2,1.1-1.4,1.3c-0.2,0.2-1.3,0-1.3,0l0.8-3.1l1.7-0.6L38.3,46.4z"/>
	<path class="st20" d="M36.3,45.2l-0.7,0.2l-2.5,0.9c0,0-0.1-1.7,0-2.2c0.1-0.3,1.2-2.3,1.9-3.5c0.3-0.5,0.5-0.8,0.5-0.8l0,0
		l0.6,3.7l0.1,0.7L36.3,45.2z"/>
	<path class="st20" d="M40.4,42.5l-0.1-0.1c0,0-1.8,1.7-2.7,2.5s-1,0.2-1,0.2l-0.5-3.7l-0.3-1.9l1.9,0.4l1.3,0.3l0.7,0.2
		c0,0,0,0,0,0.1c0.1,0.2,0.2,0.7,0.4,1.2C40.3,41.8,40.4,42.2,40.4,42.5z"/>
	<path class="st21" d="M39.4,36.3l0.9-0.7c0,0,0,0.7-0.1,1.1s-0.3,0.5-0.3,0.5L39.4,36.3z"/>
	<path class="st21" d="M36,35.1c0,0,0.8,1.1,1.1,1.3L36.3,37C36.3,37,36,35.2,36,35.1z"/>
	<path class="st19" d="M38.9,36.1c0,0,1-0.2,1.4-0.5c0,0-0.7,0.5-0.9,0.7S38.9,36.1,38.9,36.1z"/>
	<path class="st22" d="M40.7,38.7l0.1,0.1c0,0-0.1,0.5-0.5,1l0,0c0,0-0.1,0.1-0.1,0.2c-0.1,0.1-0.2,0.3-0.4,0.4c0,0,0,0,0,0
		c0,0-0.7,0.2-1.2,0.2c-1.2,0-2.2-0.8-2.6-1.2c0,0-0.1-1.1,0.1-1.7c0-0.1,0-0.1,0.1-0.2c0.1-0.3,0.3-0.5,0.5-0.8
		c0.4-0.5,1-0.8,1.8-0.8l0,0c0,0,0.1,0,0.1,0c0.2,0,0.5,0.1,0.7,0.2h0c0.6,0.3,0.9,0.8,0.9,0.9c0,0.2,0.1,1.1,0.2,1.3
		c0.1,0.1,0.5,0.5,0.5,0.5L40.7,38.7C40.7,38.7,40.7,38.7,40.7,38.7z"/>
	<path class="st23" d="M39.3,38c0,0,0.3,0.4,0.6,0.3s0.1-0.8,0.1-0.8L39.3,38z"/>
	<path class="st19" d="M39.4,37.8C39.4,37.9,39.4,37.9,39.4,37.8c0,0.2,0.1,0.3,0.2,0.3c0.1,0,0.2-0.2,0.2-0.3c0-0.1,0-0.1,0-0.2
		c0-0.1,0-0.1-0.1-0.1C39.6,37.7,39.5,37.7,39.4,37.8C39.5,37.8,39.4,37.8,39.4,37.8z"/>
	<circle class="st24" cx="39.8" cy="37.9" r="0.1"/>
	<g>
		<path class="st23" d="M38.5,38c0,0-0.2,0.4-0.5,0.5s-0.9-0.6-1-1L38.5,38z"/>
		<path class="st19" d="M36.5,37.2l0.9,0.3l0.6,0.2l0.5,0.2c0,0-0.2-0.2-0.5-0.3c-0.1-0.1-0.3-0.1-0.5-0.2
			C37.3,37.4,36.9,37.3,36.5,37.2z"/>
		<path class="st19" d="M37.3,37.8c0,0.2,0.2,0.3,0.3,0.3c0.2,0,0.3-0.1,0.3-0.3c0,0,0,0,0,0c0,0,0-0.1,0-0.1
			c-0.1-0.1-0.3-0.1-0.5-0.2c-0.1,0-0.1,0.1-0.1,0.1C37.4,37.6,37.3,37.7,37.3,37.8z"/>
		<path class="st24" d="M37.8,38C37.8,38.1,37.8,38.1,37.8,38c0.1,0.1,0.1,0,0.1,0S37.9,38,37.8,38C37.8,38,37.8,38,37.8,38z"/>
	</g>
	<g>
		<path class="st25" d="M39.5,38.3c0,0-0.3-0.2-0.5-0.2c-0.2,0-0.3,0.2-0.3,0.2H39.5z"/>
		<path class="st19" d="M39.5,38.3c0,0-0.7-0.1-0.8,0c-0.1,0.1,0.3,0.2,0.4,0.2C39.3,38.5,39.5,38.3,39.5,38.3z"/>
		<path class="st19" d="M39.7,39c0,0-0.4-0.2-0.5-0.2c-0.1,0-0.7,0.3-0.7,0.3s0.6-0.2,0.7-0.2s0.4,0.2,0.4,0.2l-0.2,0.4
			C39.4,39.4,39.7,39.1,39.7,39z"/>
		<polygon class="st19" points="39.2,38.5 39.2,38.7 39.1,38.5 		"/>
		<path class="st19" d="M39.5,38.3c0,0,0.2,0.3,0.2,0.6C39.7,38.9,39.6,38.5,39.5,38.3L39.5,38.3z"/>
	</g>
	<path class="st19" d="M36.9,34.8c0,0,0.8,1.3,0.9,2.6L36.9,34.8z"/>
	<path class="st19" d="M36.5,35.5c0,0,0.8,0.8,1.2,1.7L36.5,35.5z"/>
	<path class="st22" d="M36.5,36.7L36,37.4c-0.4-1.1,0-2.4,0-2.4C36,35.7,36.4,36.4,36.5,36.7C36.5,36.7,36.5,36.7,36.5,36.7z"/>
	<path class="st20" d="M37.2,47.6c0,0.1,0,0.2,0,0.2c-0.1,0-3.1,0.1-3.3,0c-0.3-0.1-0.7-0.8-0.7-0.9v-1.2c0-0.2,0.5-0.4,0.5-0.4
		s0.9-0.5,1.8-0.7c0.2-0.1,0.5-0.1,0.7-0.2c0.2,0,0.4,0,0.5,0c0.7,0.2,0.7,1.6,0.5,2.2c0,0.2-0.3,0.5-0.6,0.7
		c-0.4,0.3-0.8,0.5-0.8,0.5s0.9-0.2,1.2-0.2l0,0C37.1,47.5,37.2,47.6,37.2,47.6z"/>
	<path class="st20" d="M33.3,46.8c0,0-0.8,1-1.1,1c-0.3,0-2.2-0.3-2.6-0.3c-0.3,0-1.5,0.3-2,0.3s-1.5-0.6-1.5-0.6s0-0.1,0.1-0.3
		c0.1-0.1,0.1-0.3,0.3-0.4c0.2-0.2,2.1-0.4,2.1-0.4l-0.3-0.4l2.3,0.8c0,0,1.7,0.2,1.8,0.2c0,0,0,0,0.1-0.1c0.2-0.2,0.7-0.6,0.7-0.6
		L33.3,46.8z"/>
	<path class="st19" d="M37.9,38.8c0,0-1.7,0.1-2.5,0.4L37.9,38.8z"/>
	<path class="st19" d="M37.8,38.9c0,0-1.3,0.3-2,0.6L37.8,38.9z"/>
	<path class="st26" d="M39.8,40.3c0.1,0.2,0.2,0.7,0.4,1.2c-0.8,0.2-2.2,0.6-2.8,0.6c-0.3,0-0.8-0.4-1.3-0.8l-0.3-1.9
		c0,0-0.1-1.1,0.1-1.7c0-0.1,0-0.1,0.1-0.2c-0.4-1.1,0-2.4,0-2.4c-0.1,0.7,0.4,1.5,0.5,1.7c0.4-0.5,1.1-0.9,1.9-0.8
		c0.2,0,0.5,0.1,0.7,0.2c0,0-0.5-0.1-1.1,0.2c-0.7,0.3-1.1,1.9-1.1,2.6c0,0.4,0.4,0.7,0.9,1c0.3,0.2,0.6,0.2,0.7,0.3
		c0.1,0,0.3,0,0.6,0c0.6-0.1,1.3-0.3,1.3-0.3l0,0C40.1,40,40,40.2,39.8,40.3z"/>
	<path class="st22" d="M38,47.8c0,0.1-0.4,0-0.7-0.2c0,0-0.1,0-0.1-0.1c0,0-0.1,0-0.1-0.1l0,0c-0.1-0.1-0.2-0.2-0.3-0.3
		c-0.4-0.5-0.9-1.1-1-1.2c0,0-0.1-0.2-0.1-0.5c0-0.3-0.1-0.6-0.1-1c-0.2-1.3-0.3-2.9-0.3-3.2c0,0,0-0.1,0-0.2c0-0.3,0.2-0.8,0.4-1.2
		l0,0c0.1-0.3,0.3-0.5,0.4-0.5c0.1,0,0.3,0.4,0.7,1l0,0l0,0l0,0c0.5,0.9,1.1,2.1,1.2,2.6c0,0.1,0,0.1,0,0.2c0,0.5,0,1.6-0.1,2.5
		c-0.1,0.9-0.1,1.7-0.1,1.7C37.6,47.4,38,47.7,38,47.8z"/>
	<path class="st26" d="M38,47.8c0,0.1-0.4,0-0.7-0.2c0,0.1,0,0.2,0,0.2c-0.1,0-3.1,0.1-3.3,0c-0.3-0.1-0.7-0.8-0.7-0.9v-0.5
		c0,0-0.1-1.7,0-2.2c0.1-0.3,1.2-2.3,1.9-3.5c0,0.1,0.1,0.2,0.1,0.4c0.3,0.9,0.8,2.4,0.9,2.5c0,0,0,0,0.1,0c0.3,0,1.6-0.7,1.6-0.7
		l0,0.2c0.1,1.1-0.3,4.1-0.2,4.2C37.6,47.4,38,47.7,38,47.8z"/>
	<path class="st22" d="M32.5,46.7c-0.2,0.3-0.4,0.7-0.6,0.7c-0.4,0-2.1-0.2-2.3-0.2s-1.9,0.5-2.1,0.5c-0.2,0-0.9-0.5-1.2-0.7
		c0.1-0.1,0.1-0.3,0.3-0.4c0.2-0.2,2.1-0.4,2.1-0.4l-0.3-0.4l2.3,0.8C30.6,46.6,32.3,46.8,32.5,46.7C32.4,46.8,32.4,46.7,32.5,46.7z
		"/>
	
		<linearGradient id="SVGID_13_" gradientUnits="userSpaceOnUse" x1="37.9775" y1="109.545" x2="40.0039" y2="109.545" gradientTransform="matrix(1 0 0 1 0 -66)">
		<stop  offset="0" style="stop-color:#43EB6D"/>
		<stop  offset="1" style="stop-color:#2DFFBD"/>
	</linearGradient>
	<polygon class="st27" points="38,44.5 40,42.6 39.9,42.8 	"/>
	
		<linearGradient id="SVGID_14_" gradientUnits="userSpaceOnUse" x1="36.5425" y1="109.19" x2="37.7393" y2="109.19" gradientTransform="matrix(1 0 0 1 0 -66)">
		<stop  offset="0" style="stop-color:#43EB6D"/>
		<stop  offset="1" style="stop-color:#2DFFBD"/>
	</linearGradient>
	<path class="st28" d="M37.6,45.7L37.6,46c0,0,0.2-2.5,0.1-3c-0.1-0.6-1.1-2.6-1.1-2.7l0,0c0.5,0.9,1,2.1,1.1,2.6c0,0.1,0,0.1,0,0.2
		C37.8,43.7,37.7,44.8,37.6,45.7z"/>
	
		<linearGradient id="SVGID_15_" gradientUnits="userSpaceOnUse" x1="38.2962" y1="103.87" x2="40.7513" y2="103.87" gradientTransform="matrix(1 0 0 1 0 -66)">
		<stop  offset="0" style="stop-color:#43EB6D"/>
		<stop  offset="1" style="stop-color:#2DFFBD"/>
	</linearGradient>
	<path class="st29" d="M40.7,38.7l0.1,0.1c0,0-0.1,0.5-0.5,1l0,0c0,0-0.1,0.1-0.1,0.2C40.5,39.3,40.6,38.7,40.7,38.7
		c-0.1,0-0.3-0.3-0.5-0.5C40,38,40,37.1,40,37c0-0.2-0.2-0.4-0.7-0.7c-0.4-0.3-1-0.4-1-0.4c0,0,0.1,0,0.1,0c0.2,0,0.5,0.1,0.7,0.2h0
		c0.6,0.3,0.9,0.8,0.9,0.9c0,0.2,0.1,1.1,0.2,1.3c0.1,0.1,0.5,0.5,0.5,0.5L40.7,38.7L40.7,38.7z"/>
	
		<linearGradient id="SVGID_16_" gradientUnits="userSpaceOnUse" x1="39.97" y1="104.88" x2="42.5135" y2="104.88" gradientTransform="matrix(1 0 0 1 0 -66)">
		<stop  offset="0" style="stop-color:#43EB6D"/>
		<stop  offset="1" style="stop-color:#2DFFBD"/>
	</linearGradient>
	<path class="st30" d="M40,38.7c0,0,1.5,0.1,2.5,0.4L40,38.7z"/>
	
		<linearGradient id="SVGID_17_" gradientUnits="userSpaceOnUse" x1="40.0039" y1="105.06" x2="42.0486" y2="105.06" gradientTransform="matrix(1 0 0 1 0 -66)">
		<stop  offset="0" style="stop-color:#43EB6D"/>
		<stop  offset="1" style="stop-color:#2DFFBD"/>
	</linearGradient>
	<path class="st31" d="M40,38.8c0,0,1.4,0.2,2,0.6L40,38.8z"/>
	<path class="st19" d="M40.4,35.2c0,0-0.6,1-0.7,2L40.4,35.2z"/>
	<path class="st19" d="M40.7,35.7c0,0-0.6,0.6-0.9,1.3L40.7,35.7z"/>
	<path class="st19" d="M39.3,38c0.2-0.2,0.6-0.4,1.2-0.7C40,37.2,39.6,37.6,39.3,38z"/>
</g>
<rect class="st32" width="100" height="50"/>
<g>
	<polygon class="st12" points="90.1,5.5 90.4,6.6 97.1,6.6 97.2,5.6 	"/>
	<path class="st33" d="M100,5.1l-1.4,21.6H81.7L79.7,6.7l-0.1-1.5C84.3-0.6,95.5-0.6,100,5.1z"/>
	<path class="st34" d="M99.2,5.9l-1.3,19.8H82.4L80.6,7.2l-0.1-1.4C84.8,0.7,95,0.7,99.2,5.9z"/>
	
		<linearGradient id="SVGID_18_" gradientUnits="userSpaceOnUse" x1="83.8069" y1="92.1143" x2="96.9261" y2="69.3914" gradientTransform="matrix(1 0 0 1 0 -66)">
		<stop  offset="0" style="stop-color:#745072"/>
		<stop  offset="1" style="stop-color:#4A365E"/>
	</linearGradient>
	<path class="st35" d="M100,5.9l-1.7,19.8H83L81.4,7.2l-0.1-1.4C85.6,0.7,95.8,0.7,100,5.9z"/>
	
		<linearGradient id="SVGID_19_" gradientUnits="userSpaceOnUse" x1="85.1016" y1="90.0898" x2="95.9048" y2="71.3781" gradientTransform="matrix(1 0 0 1 0 -66)">
		<stop  offset="0" style="stop-color:#797492"/>
		<stop  offset="1" style="stop-color:#4A365E"/>
	</linearGradient>
	<path class="st36" d="M98.3,7.3l-1.1,16.2H84.1l-1-15L83,7.3C86.5,3.1,94.9,3.1,98.3,7.3z"/>
	<path class="st37" d="M98.3,7.3l-1.1,16.2l-1.5-0.7l0.9-14.3H83.2l-0.1-0.1L83,7.3C86.5,3.1,94.9,3.1,98.3,7.3z"/>
	<polygon class="st34" points="82.1,15.6 83.5,15.2 83.6,15.6 82,15.8 	"/>
	<polygon class="st34" points="82.5,20 83.9,20 83.9,20 82.5,20.1 	"/>
	<polygon class="st34" points="82.5,21.7 84,21.7 84,21.8 82.5,22 	"/>
	<polygon class="st34" points="84.1,23.5 83,25.7 83.2,25.7 84.2,23.5 	"/>
	<polygon class="st34" points="81.8,12.1 83.3,12.1 83.3,12 81.8,12 	"/>
	<polygon class="st34" points="83.1,9.1 81.5,9.4 81.5,9.4 83.1,9.2 	"/>
	<polygon class="st34" points="81.3,5.9 83,7.3 83.1,7.1 	"/>
	<polygon class="st34" points="84.9,7 84.9,5.6 83.5,4 83.6,3.9 85.1,5.5 85.1,7 	"/>
	<polygon class="st34" points="92.2,2 92.2,4.2 91.4,5.9 91.5,5.9 92.3,4.2 92.3,2 	"/>
	<polygon class="st34" points="95.3,2.7 95.3,5.1 93.6,6.4 93.7,6.5 95.3,5.1 95.4,2.7 	"/>
	<polygon class="st34" points="100,5.9 98.3,7.3 96.5,8.3 96.6,8.4 98.3,7.5 100,6 	"/>
	<polygon class="st34" points="96.3,13.5 97.9,13.5 99.3,13.5 99.3,13.7 97.9,13.6 96.3,13.6 	"/>
	<polygon class="st34" points="96.2,15.5 97.7,15.8 99.1,15.9 99.1,16 97.7,15.9 96.2,15.6 	"/>
	<polygon class="st34" points="96,18.9 97.5,19.4 98.8,19.4 98.8,19.6 97.5,19.5 96,18.9 	"/>
	<polygon class="st34" points="95.7,22.8 97.2,23.5 98.3,25.7 97,23.5 95.6,22.8 	"/>
	<polygon class="st34" points="92.7,22.8 93.1,23.5 92.9,25.7 92.8,25.7 93,23.5 92.6,22.8 	"/>
	<polygon class="st34" points="87.8,22.8 88.1,23.5 88,25.7 88,25.7 88.2,23.5 87.9,22.8 	"/>
	<polygon class="st6" points="98.3,7.3 97.2,23.5 84.2,23.5 97.3,23.7 	"/>
	<polygon class="st6" points="81.3,5.9 83,25.7 83.2,25.7 	"/>
	<polygon class="st6" points="88.2,23.5 93,23.5 92.8,25.7 92.9,23.7 88.2,23.6 	"/>
	<polygon class="st6" points="98.8,19.6 97.6,19.5 97.3,23.7 97.7,19.6 98.8,19.7 	"/>
	<polygon class="st6" points="99.3,13.5 97.9,13.5 98.3,7.5 100,6 98.4,7.6 98,13.4 	"/>
	<path class="st6" d="M95.3,2.7v2.4c0,0-1.7-0.7-2.9-0.8c0,0,1.9,0.2,2.8,0.7L95.3,2.7z"/>
	<polygon class="st6" points="83.5,4 84.9,5.6 84.9,5.7 83.4,4 	"/>
	<polygon class="st6" points="81.6,9.4 83.1,9.2 83.3,12 83.2,12 83.1,9.3 	"/>
	<polygon class="st6" points="82.2,15.8 83.6,15.6 83.9,20 83.8,20 83.5,15.6 	"/>
	<polygon class="st38" points="81.3,5.9 83,7.3 83.1,9.1 81.6,9.3 	"/>
	<polygon class="st38" points="97.6,19.5 97.3,23.7 98.3,25.7 98.8,19.6 	"/>
	<polygon class="st38" points="88,25.7 88.1,23.5 87.8,22.8 84.1,22.8 84.2,23.5 83.2,25.7 	"/>
	<path class="st38" d="M83.6,3.9c0,0,3-2.3,8.6-1.8v2.2c0,0-3.5-0.5-7.1,1.3L83.6,3.9z"/>
	<polygon class="st11" points="83.8,15.4 83.8,16.3 94.4,17.1 94.4,15.7 	"/>
	<path class="st39" d="M96.1,23l-12-0.2L83.2,8.5C86.3,4.8,93.7,4.8,97,8.9L96.1,23z"/>
	<path class="st40" d="M96,9.1l-0.5,13.2H85.1L84.2,9.5c1.3-1.6,3.6-2.5,5.9-2.5C92.6,6.9,94.6,7.4,96,9.1z"/>
	
		<linearGradient id="SVGID_20_" gradientUnits="userSpaceOnUse" x1="90.115" y1="88.33" x2="90.115" y2="72.94" gradientTransform="matrix(1 0 0 1 0 -66)">
		<stop  offset="0" style="stop-color:#3B1D40"/>
		<stop  offset="1" style="stop-color:#271B31"/>
	</linearGradient>
	<path class="st41" d="M96,9.5l-0.2,2.7l-0.7,10.1h-10L84.2,9.5c1.3-1.6,3.6-2.5,5.9-2.5c0.3,0,0.7,0,1,0.1
		C93.1,7.3,94.9,8.1,96,9.5L96,9.5z"/>
	<g>
		<path class="st42" d="M86,13c0,0.1-0.1,0.2-0.2,0.2c-0.1,0-0.2-0.1-0.2-0.2c0-0.1,0.1-0.2,0.2-0.2C86,12.7,86,12.8,86,13z"/>
		<path class="st42" d="M93.9,11.6c0,0.1-0.1,0.1-0.1,0.1c-0.1,0-0.1-0.1-0.1-0.1c0-0.1,0.1-0.1,0.1-0.1
			C93.9,11.5,93.9,11.6,93.9,11.6z"/>
		<path class="st42" d="M94.7,15.4c0,0.1-0.1,0.1-0.1,0.1c-0.1,0-0.1-0.1-0.1-0.1c0-0.1,0.1-0.1,0.1-0.1
			C94.6,15.2,94.7,15.3,94.7,15.4z"/>
		<path class="st42" d="M94.1,21c0,0.1-0.1,0.1-0.1,0.1c-0.1,0-0.1-0.1-0.1-0.1s0.1-0.1,0.1-0.1C94,20.8,94.1,20.9,94.1,21z"/>
		<path class="st42" d="M86.3,16.4c0,0.1-0.1,0.1-0.1,0.1c-0.1,0-0.1-0.1-0.1-0.1c0-0.1,0.1-0.1,0.1-0.1
			C86.3,16.3,86.3,16.4,86.3,16.4z"/>
		<circle class="st42" cx="85.6" cy="20.2" r="0.2"/>
		<circle class="st42" cx="90.1" cy="9.4" r="0.2"/>
		<path class="st42" d="M91.9,20c0,0.1-0.1,0.2-0.2,0.2c-0.1,0-0.2-0.1-0.2-0.2c0-0.1,0.1-0.2,0.2-0.2C91.8,19.8,91.9,19.9,91.9,20z
			"/>
	</g>
	<polygon class="st39" points="96.2,12.2 84.4,12 84.4,13 96.2,12.7 	"/>
	<polygon class="st39" points="96.2,18.2 84.4,18.1 84.1,18.4 96.2,18.8 	"/>
	<path class="st38" d="M96,9.5l-0.2,2.7l-4.4-0.1c0,0,3.8-0.1,3.9-0.1c0.1,0-0.4-2-0.6-2.4c-0.2-0.4-2.8-1.3-2.9-1.1
		s-0.7,3.6-0.7,3.6l0-5.1C93.1,7.3,94.9,8.1,96,9.5L96,9.5z"/>
	<path class="st38" d="M84.4,12c0,0,5.4-0.2,5.5-0.3c0.1-0.1-0.2-3.9-0.3-4.1s-4,1-4.3,1.8S85.1,12,85.1,12L84.4,12l-0.2-2.6
		c0,0,1.5-2.3,5.9-2.5v5.2L84.4,12z"/>
	<path class="st38" d="M91.1,12.9l-0.1,5.3l4.3,0.1l0.4-5.5L91.1,12.9z M95,17.1c-0.3,0.5-3,0.7-3.2,0.5c-0.3-0.3-0.3-4.1-0.2-4.3
		c0.1-0.1,3.5-0.3,3.7-0.1C95.6,13.5,95.3,16.6,95,17.1z"/>
	<path class="st38" d="M90.2,12.9L84.5,13l0.3,5.1l5.4,0.1L90.2,12.9z M89.6,17c-0.3,0.3-3.7,0.8-4.1,0.4s-0.8-3.8-0.5-4.1
		s4.5-0.1,4.7,0.1C89.9,13.6,89.9,16.7,89.6,17z"/>
	<path class="st38" d="M90.2,18.8h-5.4l0.2,3.6h5.2L90.2,18.8z M89.6,21.8c-0.2,0.2-3.8,0.5-4,0.2c-0.3-0.3-0.4-2.7-0.2-2.9
		s4.2-0.3,4.5,0C90.1,19.4,89.8,21.5,89.6,21.8z"/>
	<path class="st38" d="M91.1,18.8l0,3.6h4.1l0.2-3.6H91.1z M94.7,22c-0.2,0.2-2.8,0.3-3-0.1c-0.2-0.4-0.2-2.2-0.1-2.5s3-0.6,3.2-0.3
		C95.1,19.3,94.8,21.8,94.7,22z"/>
	<g>
		<g>
			<g>
				<g>
					<g>
						<defs>
							<polygon id="SVGID_21_" points="13.7,-1 14.7,-1 13.7,0 							"/>
						</defs>
						<clipPath id="SVGID_22_">
							<use xlink:href="#SVGID_21_"  style="overflow:visible;"/>
						</clipPath>
					</g>
					<g>
						<defs>
							<polygon id="SVGID_23_" points="13.7,-1 14.7,-1 13.7,0 							"/>
						</defs>
						<defs>
							<polygon id="SVGID_24_" points="11.7,-3 10.7,-3 11.7,-4 							"/>
						</defs>
						<clipPath id="SVGID_25_">
							<use xlink:href="#SVGID_23_"  style="overflow:visible;"/>
						</clipPath>
						<clipPath id="SVGID_26_" class="st43">
							<use xlink:href="#SVGID_24_"  style="overflow:visible;"/>
						</clipPath>
						
							<linearGradient id="SVGID_27_" gradientUnits="userSpaceOnUse" x1="89.785" y1="91.67" x2="89.785" y2="71.86" gradientTransform="matrix(1 0 0 1 0 -66)">
							<stop  offset="0" style="stop-color:#FFFFFF"/>
							<stop  offset="1" style="stop-color:#000000"/>
						</linearGradient>
						<polygon class="st44" points="81.3,5.9 83,25.7 98.3,25.7 83.2,25.5 						"/>
					</g>
				</g>
			</g>
		</g>
	</g>
	<polygon class="st40" points="90.1,7 90.3,22.3 90.6,22.3 90.8,6.9 	"/>
	<polygon class="st39" points="90.5,6.7 90.2,22.4 90.7,22.4 91.2,6.7 	"/>
</g>
<g>
	
		<linearGradient id="SVGID_28_" gradientUnits="userSpaceOnUse" x1="103.3641" y1="19.3645" x2="109.1515" y2="19.3645" gradientTransform="matrix(-0.9606 0 0 1 191.2017 0)">
		<stop  offset="0" style="stop-color:#F3D5C9"/>
		<stop  offset="1" style="stop-color:#F3CCAD"/>
	</linearGradient>
	<path class="st45" d="M86.3,19.4c0,1.2,0.7,2.2,1.8,2.5c0.1,0,0.3,0.1,0.4,0.1c0.1,0,0.2,0,0.4,0c0.1,0,0.2,0,0.4,0h0
		c0.4-0.1,0.8-0.2,1.1-0.4c0.2-0.1,0.5-0.3,0.7-0.5c0.5-0.5,0.8-1.1,0.8-1.8c0-1.5-1.6-2.7-3-2.7c-0.1,0-0.2,0-0.2,0
		C87.4,16.8,86.3,18,86.3,19.4z"/>
	
		<linearGradient id="SVGID_29_" gradientUnits="userSpaceOnUse" x1="106.4731" y1="20.7041" x2="109.1515" y2="20.7041" gradientTransform="matrix(-0.9606 0 0 1 191.2017 0)">
		<stop  offset="0" style="stop-color:#F3D5C9"/>
		<stop  offset="1" style="stop-color:#F3CCAD"/>
	</linearGradient>
	<polygon class="st46" points="86.3,19.4 86.5,22 88.9,22 	"/>
	<path class="st47" d="M86.5,19.4c0,0.4,0.2,0.7,0.5,0.7c0,0,0.1,0,0.1,0c0.2-0.1,0.2-0.4,0.2-0.7c0-0.3,0-0.6-0.2-0.7
		c0,0-0.1,0-0.1,0C86.8,18.7,86.5,19,86.5,19.4z"/>
	<path class="st40" d="M86.7,19.4c0,0.3,0.2,0.6,0.4,0.7c0.2-0.1,0.2-0.4,0.2-0.7c0-0.3,0-0.6-0.2-0.7C86.9,18.8,86.7,19,86.7,19.4z
		"/>
	<path class="st47" d="M88,19.4c0,0.6,0.1,1,0.5,1c0,0,0.1,0,0.1,0c0.3-0.1,0.6-0.5,0.6-1c0-0.5-0.3-0.9-0.6-1c0,0-0.1,0-0.1,0
		C88.2,18.4,88,18.9,88,19.4z"/>
	<path class="st40" d="M88.3,19.4c0,0.5,0.1,0.9,0.4,1c0.3-0.1,0.6-0.5,0.6-1c0-0.5-0.3-0.9-0.6-1C88.4,18.5,88.3,18.9,88.3,19.4z"
		/>
	<path class="st47" d="M87.2,21.2c0.1,0.1,0.6,0.2,0.8,0.1c0,0,0,0,0,0c0,0,0.1,0,0,0c0-0.1-0.3-0.9-0.5-1.1c0,0,0,0-0.1,0
		C87.3,20.2,87,21.1,87.2,21.2z"/>
	<path class="st40" d="M87.3,21.2c0.1,0.1,0.4,0.1,0.7,0.1c0,0,0,0,0,0c0,0,0.1,0,0,0c0-0.1-0.3-0.9-0.5-1.1
		C87.4,20.4,87.2,21.1,87.3,21.2z"/>
	
		<linearGradient id="SVGID_30_" gradientUnits="userSpaceOnUse" x1="104.2094" y1="22.216" x2="109.1515" y2="22.216" gradientTransform="matrix(-0.9606 0 0 1 191.2017 0)">
		<stop  offset="0" style="stop-color:#F3D5C9"/>
		<stop  offset="1" style="stop-color:#F3CCAD"/>
	</linearGradient>
	<path class="st48" d="M86.3,22l0.2,1l0,0.2l3.3,0.1l1.2-2.2l0,0l-0.6,0.3c0,0,0,0.1-0.1,0.1c-0.1,0.3-0.4,0.8-0.5,0.8
		c-0.1,0-0.7-0.4-0.7-0.4h0l-0.7,0l-0.8,0l-1.2,0L86.3,22z"/>
	<path class="st47" d="M88.9,23.1l-0.1-1l-1,0l-0.2,0c0,0,0.2-0.1,0.5-0.1c0.5-0.1,1.4-0.3,1.6-0.6c0.3-0.4,1.5-1.9,0.8-3.3
		c-0.6-1.1-1.5-1.4-1.8-1.4c0.1,0,0.2,0,0.2,0c1.4,0,3,1.2,3,2.7c0,0.7-0.3,1.3-0.8,1.8l0,0l-1.2,2.2l-3.3-0.1l0-0.2L88.9,23.1z
		 M90,22.4c0.1,0,0.3-0.5,0.5-0.8c-0.4,0.2-0.7,0.3-1.1,0.4C89.3,22,89.8,22.4,90,22.4z"/>
	<polygon class="st47" points="88.8,22.1 88,22.1 88.1,22.7 87.9,22.1 87.2,22.1 87.2,22.4 87,22.1 86.7,22.1 86.7,22.4 86.3,22 	
		"/>
</g>
<g>
	<polygon class="st5" points="5,10.6 2.1,11.8 0.1,45.9 7.6,48 18.2,48.1 17,45.3 	"/>
	<g>
		
			<linearGradient id="SVGID_31_" gradientUnits="userSpaceOnUse" x1="6.9306" y1="113.4611" x2="6.9306" y2="112.5115" gradientTransform="matrix(1 0 0 1 0 -66)">
			<stop  offset="0" style="stop-color:#822717"/>
			<stop  offset="0.9946" style="stop-color:#700C26"/>
		</linearGradient>
		<polygon class="st49" points="7.6,46.5 7,47.5 6.6,47.5 6.3,46.5 		"/>
		<polygon class="st40" points="6.6,47.5 6.3,47.4 5.7,46.5 6.3,46.5 		"/>
		
			<linearGradient id="SVGID_32_" gradientUnits="userSpaceOnUse" x1="16.1814" y1="113.4611" x2="16.1814" y2="112.5115" gradientTransform="matrix(1 0 0 1 0 -66)">
			<stop  offset="0" style="stop-color:#822717"/>
			<stop  offset="0.9946" style="stop-color:#700C26"/>
		</linearGradient>
		<polygon class="st50" points="16.8,46.5 16.3,47.5 15.8,47.5 15.5,46.5 		"/>
		<polygon class="st40" points="15.8,47.5 15.5,47.4 15,46.5 15.5,46.5 		"/>
		
			<linearGradient id="SVGID_33_" gradientUnits="userSpaceOnUse" x1="13.2846" y1="113.1304" x2="13.2846" y2="74.6653" gradientTransform="matrix(1 0 0 1 0 -66)">
			<stop  offset="0" style="stop-color:#E77231"/>
			<stop  offset="0.9946" style="stop-color:#9C3536"/>
		</linearGradient>
		<polygon class="st51" points="7,47.1 6.3,8.7 20.2,8.8 19.4,47.1 		"/>
		<polygon class="st40" points="8,46.2 7,9.6 19.6,10 18.9,46.2 		"/>
		<polygon class="st40" points="6.3,8.7 4.5,9.6 5.7,46.8 7,47.1 		"/>
		
			<linearGradient id="SVGID_34_" gradientUnits="userSpaceOnUse" x1="18.4915" y1="112.2341" x2="18.4915" y2="75.9137" gradientTransform="matrix(1 0 0 1 0 -66)">
			<stop  offset="0" style="stop-color:#822717"/>
			<stop  offset="0.9946" style="stop-color:#700C26"/>
		</linearGradient>
		<polygon class="st52" points="17.6,9.9 17.4,46.2 18.9,46.2 19.6,10 		"/>
		
			<linearGradient id="SVGID_35_" gradientUnits="userSpaceOnUse" x1="7.1493" y1="82.5717" x2="19.4731" y2="82.5717" gradientTransform="matrix(1 0 0 1 0 -66)">
			<stop  offset="0" style="stop-color:#E77231"/>
			<stop  offset="0.9946" style="stop-color:#9C3536"/>
		</linearGradient>
		<polygon class="st53" points="7.1,16.2 19.5,16.3 19.5,16.9 7.2,17 		"/>
		
			<linearGradient id="SVGID_36_" gradientUnits="userSpaceOnUse" x1="7.4054" y1="91.5024" x2="19.2917" y2="91.5024" gradientTransform="matrix(1 0 0 1 0 -66)">
			<stop  offset="0" style="stop-color:#E77231"/>
			<stop  offset="0.9946" style="stop-color:#9C3536"/>
		</linearGradient>
		<polygon class="st54" points="19.3,25.1 7.4,25 7.4,25.8 19.3,26 		"/>
		
			<linearGradient id="SVGID_37_" gradientUnits="userSpaceOnUse" x1="7.6402" y1="99.8196" x2="19.121" y2="99.8196" gradientTransform="matrix(1 0 0 1 0 -66)">
			<stop  offset="0" style="stop-color:#E77231"/>
			<stop  offset="0.9946" style="stop-color:#9C3536"/>
		</linearGradient>
		<polygon class="st55" points="19.1,33.4 7.6,33.6 7.7,34.1 19.1,34.3 		"/>
		<polygon class="st56" points="17.1,16.3 19.2,16.3 19.2,16.9 17.1,16.8 		"/>
		<polygon class="st56" points="16.9,16.3 16,16.3 16.1,16.8 16.9,16.8 		"/>
		<polygon class="st56" points="15.9,25.2 18.8,25.2 18.8,25.9 16,25.8 		"/>
		<rect x="16.2" y="33.5" class="st56" width="2.6" height="0.6"/>
		
			<linearGradient id="SVGID_38_" gradientUnits="userSpaceOnUse" x1="18.2407" y1="114.078" x2="18.2407" y2="113.1283" gradientTransform="matrix(1 0 0 1 0 -66)">
			<stop  offset="0" style="stop-color:#822717"/>
			<stop  offset="0.9946" style="stop-color:#700C26"/>
		</linearGradient>
		<polygon class="st57" points="18.9,47.1 18.2,48.1 17.8,48.1 17.6,47.1 		"/>
		<polygon class="st40" points="17.8,48.1 17.5,48 17.1,47.1 17.6,47.1 		"/>
		
			<linearGradient id="SVGID_39_" gradientUnits="userSpaceOnUse" x1="8.2484" y1="114.078" x2="8.2484" y2="113.1283" gradientTransform="matrix(1 0 0 1 0 -66)">
			<stop  offset="0" style="stop-color:#822717"/>
			<stop  offset="0.9946" style="stop-color:#700C26"/>
		</linearGradient>
		<polygon class="st58" points="8.9,47.1 8.4,48.1 7.9,48.1 7.6,47.1 		"/>
		<polygon class="st40" points="7.9,48.1 7.6,48 7.1,47.1 7.6,47.1 		"/>
		
			<linearGradient id="SVGID_40_" gradientUnits="userSpaceOnUse" x1="13.2525" y1="112.2341" x2="13.2525" y2="103.122" gradientTransform="matrix(1 0 0 1 0 -66)">
			<stop  offset="0" style="stop-color:#E77231"/>
			<stop  offset="0.9946" style="stop-color:#9C3536"/>
		</linearGradient>
		<polygon class="st59" points="18.8,37.1 7.7,37.1 8,46.2 18.5,46.2 		"/>
		<polygon class="st56" points="13.9,37.2 18.5,37.2 18.2,45.9 17.6,45.9 17.5,42.4 8.1,37.9 8.1,40.1 7.9,37.2 		"/>
		
			<linearGradient id="SVGID_41_" gradientUnits="userSpaceOnUse" x1="13.4926" y1="112.2341" x2="13.4926" y2="103.122" gradientTransform="matrix(1 0 0 1 0 -66)">
			<stop  offset="0" style="stop-color:#822717"/>
			<stop  offset="0.9946" style="stop-color:#700C26"/>
		</linearGradient>
		<polygon class="st60" points="13.4,37.1 13.4,46.2 13.5,46.2 13.6,37.1 		"/>
		<polygon class="st56" points="8.2,37.1 13.4,37.1 13.4,46.2 13.3,46.2 13.3,37.3 		"/>
		<path class="st17" d="M12.5,38.5c-0.4,0.5-0.8,0.8-0.9,0.6s0-0.6,0.3-1.1c0.4-0.5,0.8-0.8,0.9-0.6C13,37.6,12.9,38.1,12.5,38.5z"
			/>
		<g>
			<circle class="st40" cx="12.6" cy="37.8" r="0.3"/>
			
				<linearGradient id="SVGID_42_" gradientUnits="userSpaceOnUse" x1="12.8257" y1="104.2637" x2="12.8257" y2="103.4137" gradientTransform="matrix(1 0 0 1 0 -66)">
				<stop  offset="0" style="stop-color:#822717"/>
				<stop  offset="0.9946" style="stop-color:#700C26"/>
			</linearGradient>
			<path class="st61" d="M13.3,37.8c0,0.2-0.2,0.4-0.4,0.4c-0.2,0-0.4-0.2-0.4-0.4s0.2-0.4,0.4-0.4C13.1,37.4,13.3,37.6,13.3,37.8z"
				/>
			<circle class="st56" cx="12.9" cy="37.8" r="0.3"/>
		</g>
		<path class="st17" d="M13.9,38.5c-0.4,0.5-0.8,0.8-0.9,0.6c-0.2-0.1,0-0.6,0.3-1.1c0.4-0.5,0.8-0.8,0.9-0.6
			C14.4,37.6,14.3,38.1,13.9,38.5z"/>
		<g>
			<circle class="st40" cx="14" cy="37.8" r="0.3"/>
			
				<linearGradient id="SVGID_43_" gradientUnits="userSpaceOnUse" x1="14.2448" y1="104.2637" x2="14.2448" y2="103.4137" gradientTransform="matrix(1 0 0 1 0 -66)">
				<stop  offset="0" style="stop-color:#822717"/>
				<stop  offset="0.9946" style="stop-color:#700C26"/>
			</linearGradient>
			<path class="st62" d="M14.7,37.8c0,0.2-0.2,0.4-0.4,0.4s-0.4-0.2-0.4-0.4s0.2-0.4,0.4-0.4C14.5,37.4,14.7,37.6,14.7,37.8z"/>
			<path class="st56" d="M14.7,37.8c0,0.2-0.1,0.3-0.3,0.3S14,38,14,37.8c0-0.2,0.1-0.3,0.3-0.3S14.7,37.7,14.7,37.8z"/>
		</g>
		<polygon class="st10" points="7.7,37.1 8.2,45 10.1,45 10.1,41.5 10.3,45.6 10.9,45.6 11,43.8 11.3,45.9 18.2,46.1 18.7,39.1 
			18.5,46.2 8,46.2 		"/>
		<polygon class="st17" points="19.6,10 17.6,11.3 7.1,13.5 7,9.6 		"/>
		<polygon class="st17" points="19.5,16.9 17.6,18.1 7.3,22.5 7.2,17 		"/>
		<polygon class="st17" points="19.3,26 7.4,25.8 7.6,31.2 17.5,27.2 		"/>
		<polygon class="st17" points="19.1,34.3 7.7,34.1 7.7,36.5 17.5,34.9 		"/>
		<g>
			
				<linearGradient id="SVGID_44_" gradientUnits="userSpaceOnUse" x1="-196.5197" y1="91.0543" x2="-196.5197" y2="87.5917" gradientTransform="matrix(1 0 0 1 212.7331 -66)">
				<stop  offset="0" style="stop-color:#F4FFBD"/>
				<stop  offset="1" style="stop-color:#ABEFB1"/>
			</linearGradient>
			<polygon class="st63" points="17.3,25.1 18.6,21.6 15.1,21.9 13.9,25 			"/>
			<polygon class="st64" points="17.3,25.1 17.9,25.1 19,22 18.6,21.6 			"/>
			<polygon class="st65" points="13.2,24.8 13.5,25 16,25 15.4,24.8 			"/>
			<g>
				<polygon class="st66" points="17.3,21.2 15,21.3 13.2,24.8 15.4,24.8 				"/>
				<g>
					<polygon class="st67" points="16,25 17.9,21.5 17.3,21.2 15.4,24.8 					"/>
					<path class="st68" d="M13.6,24.5l0.1-0.2l0.1-0.1l0.5-0.9l0.4-0.7l0.4-0.7l0.1-0.1l0.1-0.2l0.5,0l0.7-0.1l0.6-0.1l-0.2,0.3
						l-0.3,0.5l-0.1,0.2l0,0.1l-1.2,2.1L13.6,24.5L13.6,24.5z"/>
				</g>
			</g>
			<g>
				<polygon class="st69" points="11.7,24.8 12,24.8 13.9,24.8 14,24.7 14,24.6 14.1,24.5 14.2,24.3 14.2,24.2 14.8,23.1 14.8,23.1 
					15.1,22.5 15.2,22.3 15.5,21.8 15.5,21.8 15.5,21.8 15.6,21.6 15.6,21.5 15.7,21.3 15.8,21.2 13.5,21.3 13.5,21.4 13.3,21.8 
					13.2,22 12,24.3 				"/>
				<g>
					<polygon class="st70" points="14.5,25 16.4,21.5 15.8,21.2 13.9,24.8 					"/>
				</g>
			</g>
			<polygon class="st71" points="11.7,24.8 11.7,25 13.6,25 14.5,25 14.5,25 14.4,25 13.9,24.8 			"/>
			<polygon class="st72" points="12,24.3 12,24.3 11.9,24.4 12.1,24.4 13.5,24.4 13.6,24.3 13.6,24.3 13.7,24.3 13.8,24.3 
				14.1,24.3 14.1,24.3 14.2,24.3 14.2,24.3 14.5,24.5 14.8,24.6 14.8,24.6 14.8,24.5 14.8,24.5 14.2,24.2 14.2,24.2 14.2,24.2 
				13.8,24.2 13.7,24.2 13.6,24.2 13.6,24.2 13.5,24.2 12.1,24.3 12,24.3 			"/>
		</g>
		<g>
			<polygon class="st64" points="17.5,23.3 13.5,23.1 11.1,23.2 11.3,24.1 17.5,24.2 17.5,24.1 13.6,23.9 13.5,23.2 17.5,23.5 			
				"/>
			<polygon class="st73" points="13.6,23.9 13.5,23.2 17.3,23.5 17.3,24.1 			"/>
			<polygon class="st74" points="17.3,23.6 14.4,23.5 14.4,23.6 15.7,23.7 13.6,23.6 13.5,23.2 17.3,23.5 			"/>
			<polygon class="st75" points="13.1,23.1 13.3,24.1 13,24.1 12.7,23.1 			"/>
			<polygon class="st75" points="11.6,23.2 11.9,24.1 11.7,24.1 11.3,23.2 			"/>
		</g>
		<g>
			<polygon class="st70" points="17.2,24.2 13,24 10.4,24.1 10.7,25 17.2,25 17.2,24.8 13.1,24.8 13,24.1 17.2,24.4 			"/>
			<polygon class="st73" points="13.1,24.8 13,24.1 17.1,24.4 17,24.8 			"/>
			<polygon class="st74" points="17.1,24.5 14,24.4 14,24.5 15.4,24.6 13.1,24.5 13,24.1 17.1,24.4 			"/>
			<polygon class="st70" points="12.6,24 12.7,25 12.4,25 12.2,24 			"/>
			<polygon class="st70" points="10.9,24.1 11.2,25 11.1,25 10.7,24.1 			"/>
		</g>
		<g>
			<polygon class="st64" points="12.4,15.5 9.5,15.4 7.8,15.5 8,16.2 12.5,16.2 12.5,16.1 9.7,16 9.6,15.5 12.4,15.6 			"/>
			<polygon class="st73" points="9.7,16 9.6,15.5 12.3,15.6 12.4,16.1 			"/>
			<polygon class="st74" points="12.3,15.7 10.3,15.7 10.3,15.8 11.2,15.8 9.6,15.8 9.6,15.5 12.3,15.6 			"/>
			<polygon class="st75" points="9.3,15.4 9.4,16.2 9.2,16.2 9,15.5 			"/>
			<polygon class="st75" points="8.2,15.5 8.4,16.2 8.2,16.2 8,15.5 			"/>
		</g>
		<g>
			<polygon class="st67" points="12.3,14.9 9.2,14.7 7.4,14.8 7.6,15.5 12.3,15.5 12.3,15.3 9.4,15.3 9.3,14.8 12.3,15 			"/>
			<polygon class="st73" points="9.4,15.3 9.3,14.8 12.2,15 12.2,15.3 			"/>
			<polygon class="st74" points="12.2,15.1 10,15 10,15.1 11,15.2 9.3,15.1 9.3,14.8 12.2,15 			"/>
		</g>
		<polygon class="st17" points="10,33.5 11,34.2 13,34.2 11.4,33.4 		"/>
		
			<linearGradient id="SVGID_45_" gradientUnits="userSpaceOnUse" x1="13.3326" y1="100.7925" x2="13.3326" y2="95.287" gradientTransform="matrix(1 0 0 1 0 -66)">
			<stop  offset="0" style="stop-color:#348686"/>
			<stop  offset="1" style="stop-color:#3B70A9"/>
		</linearGradient>
		<path class="st76" d="M18.5,33.4l-1,0c0,0-1.5,1.1-2.8,1.4c-1.3,0.2-3.4-1.3-3.4-1.3l-3.1,0l3.4-0.4c0,0,0.8-2.9,1-3.1
			c0.1-0.1,2-0.7,2.8-0.8h0c0.1,0,0.3,0,0.3,0c0.2,0.1,1,1.3,1.1,1.7c0,0.1,0,0.1,0,0.1c-0.1,0.1-1.1-0.8-1.2-0.8
			c-0.1,0-1,0.7-1,0.8s0.9,1.8,1,2l0,0L18.5,33.4z"/>
		
			<linearGradient id="SVGID_46_" gradientUnits="userSpaceOnUse" x1="11.5934" y1="99.0391" x2="15.6479" y2="99.0391" gradientTransform="matrix(1 0 0 1 0 -66)">
			<stop  offset="5.405430e-03" style="stop-color:#9C3536"/>
			<stop  offset="1" style="stop-color:#BE7231"/>
		</linearGradient>
		<path class="st77" d="M11.6,33.1l0.1-0.5c0,0,1.2,0.4,1.9,0.4c0.5,0,1.8-0.4,1.8-0.4l0.2,0.4c0,0-1.2,0.4-1.9,0.4
			C13,33.5,11.6,33.1,11.6,33.1z"/>
		<path class="st10" d="M15.5,33.1c-0.1,0-1.7,0.5-2.1,0.4c-0.5-0.1-1.8-0.3-1.8-0.3s0.8-2.9,1-3.1c0.1-0.1,2-0.7,2.8-0.8h0
			c0,0-2.1,0.7-2.2,0.8c-0.1,0.1-0.2,1.7-0.2,1.9c0,0.2,0.3,1.3,0.7,1.3C13.9,33.4,15.4,33.1,15.5,33.1z"/>
		<path class="st10" d="M16.9,31.1c-0.1,0.1-1.1-0.8-1.2-0.8c-0.1,0-1,0.7-1,0.8c0,0.1,0.9,1.8,1,2l-1.1-1.8l-1.2-0.4l1.1,0.1l1-0.7
			v-0.7l0.2,0.7L16.9,31.1C16.9,31.1,16.9,31.1,16.9,31.1z"/>
		<path class="st56" d="M15.7,33.1l1.6,0.2c0,0-0.1,0-0.3,0.3c-0.2,0.2-1.9,1.1-2.5,1.1c-0.7,0.1-1.6-0.4-1.6-0.4s0.9,0.3,1.4,0.2
			c0.5-0.1,1.5-0.9,1.5-0.9l-0.6-0.3L15.7,33.1z"/>
		<polygon class="st56" points="7,47.1 6.3,8.7 12.5,8.9 6.6,8.8 6.6,18.9 6.9,20.3 6.6,21.6 		"/>
		<polygon class="st56" points="8,46.2 15,46.4 15.5,46.6 16,46.3 17.1,46.3 17.8,47 18.1,46.3 18.9,46.2 		"/>
		<polygon class="st17" points="7.2,17 11.1,16.9 11.2,16.3 11.2,16.8 14.5,16.8 14.6,16.4 14.7,16.8 15.4,16.9 		"/>
		<polygon class="st17" points="7.9,25.8 7.8,25.2 11.7,25.2 11.9,25.7 12,25.2 14.9,25.2 15.1,25.7 15.1,25.1 7.4,25 7.4,25.8 		
			"/>
		<g>
			<g>
				<g>
					<g>
						<g>
							<g>
								<defs>
									<polygon id="SVGID_47_" points="-2.4,3.2 -1.4,3.2 -2.4,4.2 									"/>
								</defs>
								<clipPath id="SVGID_48_">
									<use xlink:href="#SVGID_47_"  style="overflow:visible;"/>
								</clipPath>
							</g>
							<g>
								<defs>
									<polygon id="SVGID_49_" points="-2.4,3.2 -1.4,3.2 -2.4,4.2 									"/>
								</defs>
								<defs>
									<polygon id="SVGID_50_" points="-4.6,1 -5.6,1 -4.6,0 									"/>
								</defs>
								<clipPath id="SVGID_51_">
									<use xlink:href="#SVGID_49_"  style="overflow:visible;"/>
								</clipPath>
								<clipPath id="SVGID_52_" class="st78">
									<use xlink:href="#SVGID_50_"  style="overflow:visible;"/>
								</clipPath>
								
									<linearGradient id="SVGID_53_" gradientUnits="userSpaceOnUse" x1="9.7101" y1="91.033" x2="9.7101" y2="86.9997" gradientTransform="matrix(1 0 0 1 0 -66)">
									<stop  offset="0" style="stop-color:#808080"/>
									<stop  offset="1" style="stop-color:#FFFFFF"/>
								</linearGradient>
								<path class="st79" d="M11.1,23.7c0-0.6-0.4-1.2-1-1.3l0.2-1.4H9.1l0.2,1.4c-0.5,0.2-0.9,0.7-0.9,1.3c0,0.5,0.3,0.9,0.7,1.2
									l0,0L8.9,25h1.5l-0.1-0.1l0,0C10.7,24.7,11.1,24.2,11.1,23.7z"/>
							</g>
						</g>
					</g>
				</g>
			</g>
			
				<linearGradient id="SVGID_54_" gradientUnits="userSpaceOnUse" x1="9.7101" y1="91.033" x2="9.7101" y2="86.9997" gradientTransform="matrix(1 0 0 1 0 -66)">
				<stop  offset="0" style="stop-color:#CFFFE8"/>
				<stop  offset="1" style="stop-color:#4AEFB1"/>
			</linearGradient>
			<path class="st80" d="M11.1,23.7c0-0.6-0.4-1.2-1-1.3l0.2-1.4H9.1l0.2,1.4c-0.5,0.2-0.9,0.7-0.9,1.3c0,0.5,0.3,0.9,0.7,1.2l0,0
				L8.9,25h1.5l-0.1-0.1l0,0C10.7,24.7,11.1,24.2,11.1,23.7z"/>
			
				<linearGradient id="SVGID_55_" gradientUnits="userSpaceOnUse" x1="9.7048" y1="87.4701" x2="9.7048" y2="86.7066" gradientTransform="matrix(1 0 0 1 0 -66)">
				<stop  offset="0" style="stop-color:#E77231"/>
				<stop  offset="0.9946" style="stop-color:#9C3536"/>
			</linearGradient>
			<polygon class="st81" points="9.2,21.5 9.2,20.7 10.3,20.8 10.2,21.5 			"/>
			<polygon class="st17" points="10.2,20.9 9.4,21 9.4,21.5 9.2,21.5 9.2,20.7 10.3,20.8 			"/>
			
				<linearGradient id="SVGID_56_" gradientUnits="userSpaceOnUse" x1="9.7048" y1="86.8371" x2="9.7048" y2="86.5133" gradientTransform="matrix(1 0 0 1 0 -66)">
				<stop  offset="0" style="stop-color:#E77231"/>
				<stop  offset="0.9946" style="stop-color:#9C3536"/>
			</linearGradient>
			<polygon class="st82" points="9,20.5 9.1,20.8 10.3,20.8 10.4,20.5 			"/>
			<polygon class="st56" points="9.1,20.5 10.3,20.6 10.3,20.8 9.9,20.8 9.9,20.6 			"/>
			<g>
				<g>
					<g>
						<g>
							<g>
								<defs>
									<polygon id="SVGID_57_" points="-2.4,3.2 -1.4,3.2 -2.4,4.2 									"/>
								</defs>
								<clipPath id="SVGID_58_">
									<use xlink:href="#SVGID_57_"  style="overflow:visible;"/>
								</clipPath>
							</g>
							<g>
								<defs>
									<polygon id="SVGID_59_" points="-2.4,3.2 -1.4,3.2 -2.4,4.2 									"/>
								</defs>
								<defs>
									<polygon id="SVGID_60_" points="-4.6,1 -5.6,1 -4.6,0 									"/>
								</defs>
								<clipPath id="SVGID_61_">
									<use xlink:href="#SVGID_59_"  style="overflow:visible;"/>
								</clipPath>
								<clipPath id="SVGID_62_" class="st83">
									<use xlink:href="#SVGID_60_"  style="overflow:visible;"/>
								</clipPath>
								
									<linearGradient id="SVGID_63_" gradientUnits="userSpaceOnUse" x1="9.7261" y1="91.033" x2="9.7261" y2="87.0531" gradientTransform="matrix(1 0 0 1 0 -66)">
									<stop  offset="0" style="stop-color:#808080"/>
									<stop  offset="1" style="stop-color:#FFFFFF"/>
								</linearGradient>
								<path class="st84" d="M11,23.7c0,0.1,0,0.1,0,0.1c0,0.5-0.3,0.9-0.7,1.1l0,0l0.1,0.1H9l0.1-0.2c-0.3-0.2-0.6-0.6-0.6-1
									c0,0,0-0.1,0-0.1c0-0.6,0.4-1.1,0.9-1.3l-0.1-1.4h1L10,22.4C10.6,22.6,11,23.1,11,23.7z"/>
							</g>
						</g>
					</g>
				</g>
			</g>
			
				<linearGradient id="SVGID_64_" gradientUnits="userSpaceOnUse" x1="9.7261" y1="91.033" x2="9.7261" y2="87.0531" gradientTransform="matrix(1 0 0 1 0 -66)">
				<stop  offset="0" style="stop-color:#CFFFE8"/>
				<stop  offset="1" style="stop-color:#4AEFB1"/>
			</linearGradient>
			<path class="st85" d="M11,23.7c0,0.1,0,0.1,0,0.1c0,0.5-0.3,0.9-0.7,1.1l0,0l0.1,0.1H9l0.1-0.2c-0.3-0.2-0.6-0.6-0.6-1
				c0,0,0-0.1,0-0.1c0-0.6,0.4-1.1,0.9-1.3l-0.1-1.4h1L10,22.4C10.6,22.6,11,23.1,11,23.7z"/>
			
				<linearGradient id="SVGID_65_" gradientUnits="userSpaceOnUse" x1="9.7261" y1="90.9049" x2="9.7261" y2="89.8455" gradientTransform="matrix(1 0 0 1 0 -66)">
				<stop  offset="0" style="stop-color:#F48BA9"/>
				<stop  offset="1" style="stop-color:#FF1591"/>
			</linearGradient>
			<path class="st86" d="M10.9,23.8c0,0.5-0.3,0.9-0.7,1.1l-1.1-0.1c-0.3-0.2-0.6-0.6-0.6-1H10.9z"/>
			<polygon class="st87" points="9.9,21.1 10.1,21.1 9.9,22.4 9.8,22.4 			"/>
			<polygon class="st87" points="9.2,21.1 9.4,22.4 9.4,22.4 9.3,21.1 			"/>
			<path class="st87" d="M9.7,22.6l0.5,0c0,0,1,0.9,0.1,2.2h-0.2C10.2,24.7,10.5,23.4,9.7,22.6z"/>
			<path class="st87" d="M8.7,23.5H8.5c0,0,0,1,0.6,1.3C9.2,24.8,8.7,24.4,8.7,23.5z"/>
			<circle class="st56" cx="9.6" cy="24.3" r="0.2"/>
			<path class="st56" d="M9.9,24C9.9,24,9.9,24.1,9.9,24C9.9,24.1,9.9,24,9.9,24C9.9,24,9.9,24,9.9,24C9.9,24,9.9,24,9.9,24z"/>
			<path class="st56" d="M10.2,24.6c0,0.1-0.1,0.1-0.1,0.1s-0.1-0.1-0.1-0.1c0-0.1,0.1-0.1,0.1-0.1S10.2,24.5,10.2,24.6z"/>
		</g>
		<g>
			
				<linearGradient id="SVGID_66_" gradientUnits="userSpaceOnUse" x1="11.2253" y1="91.0359" x2="11.2253" y2="88.9101" gradientTransform="matrix(1 0 0 1 0 -66)">
				<stop  offset="0" style="stop-color:#F4FFBD"/>
				<stop  offset="1" style="stop-color:#ABEFB1"/>
			</linearGradient>
			<path class="st88" d="M11.9,24.3c0-0.3-0.2-0.6-0.5-0.7l0.1-0.7h-0.6l0.1,0.7c-0.3,0.1-0.5,0.4-0.5,0.7c0,0.3,0.1,0.5,0.4,0.6
				l0,0L10.8,25h0.8l0-0.1l0,0C11.8,24.9,11.9,24.6,11.9,24.3z"/>
			
				<linearGradient id="SVGID_67_" gradientUnits="userSpaceOnUse" x1="11.2253" y1="89.1599" x2="11.2253" y2="88.7579" gradientTransform="matrix(1 0 0 1 0 -66)">
				<stop  offset="0" style="stop-color:#E77231"/>
				<stop  offset="0.9946" style="stop-color:#9C3536"/>
			</linearGradient>
			<polygon class="st89" points="11,23.2 10.9,22.8 11.5,22.8 11.5,23.2 			"/>
			<polygon class="st17" points="11.5,22.9 11.1,22.9 11.1,23.2 11,23.2 10.9,22.8 11.5,22.8 			"/>
			
				<linearGradient id="SVGID_68_" gradientUnits="userSpaceOnUse" x1="11.2199" y1="88.8266" x2="11.2199" y2="88.6561" gradientTransform="matrix(1 0 0 1 0 -66)">
				<stop  offset="0" style="stop-color:#E77231"/>
				<stop  offset="0.9946" style="stop-color:#9C3536"/>
			</linearGradient>
			<polygon class="st90" points="10.9,22.7 10.9,22.8 11.5,22.8 11.6,22.7 			"/>
			<polygon class="st56" points="10.9,22.7 11.5,22.7 11.5,22.8 11.3,22.8 11.3,22.7 			"/>
			<g>
				<g>
					<g>
						<g>
							<g>
								<defs>
									<polygon id="SVGID_69_" points="-2.4,3.2 -1.4,3.2 -2.4,4.2 									"/>
								</defs>
								<clipPath id="SVGID_70_">
									<use xlink:href="#SVGID_69_"  style="overflow:visible;"/>
								</clipPath>
							</g>
							<g>
								<defs>
									<polygon id="SVGID_71_" points="-2.4,3.2 -1.4,3.2 -2.4,4.2 									"/>
								</defs>
								<defs>
									<polygon id="SVGID_72_" points="-4.6,1 -5.6,1 -4.6,0 									"/>
								</defs>
								<clipPath id="SVGID_73_">
									<use xlink:href="#SVGID_71_"  style="overflow:visible;"/>
								</clipPath>
								<clipPath id="SVGID_74_" class="st91">
									<use xlink:href="#SVGID_72_"  style="overflow:visible;"/>
								</clipPath>
								
									<linearGradient id="SVGID_75_" gradientUnits="userSpaceOnUse" x1="11.2306" y1="91.0356" x2="11.2306" y2="88.939" gradientTransform="matrix(1 0 0 1 0 -66)">
									<stop  offset="0" style="stop-color:#808080"/>
									<stop  offset="1" style="stop-color:#FFFFFF"/>
								</linearGradient>
								<path class="st92" d="M11.9,24.3C11.9,24.4,11.9,24.4,11.9,24.3c0,0.3-0.2,0.5-0.4,0.6l0,0.1h-0.7l0.1-0.1
									c-0.2-0.1-0.3-0.3-0.3-0.5c0,0,0-0.1,0-0.1c0-0.3,0.2-0.6,0.4-0.7l0-0.4l0-0.3h0.6l-0.1,0.4l-0.1,0.4
									C11.7,23.7,11.9,24,11.9,24.3z"/>
							</g>
						</g>
					</g>
				</g>
			</g>
			
				<linearGradient id="SVGID_76_" gradientUnits="userSpaceOnUse" x1="11.2306" y1="91.0356" x2="11.2306" y2="88.939" gradientTransform="matrix(1 0 0 1 0 -66)">
				<stop  offset="0" style="stop-color:#CFFFE8"/>
				<stop  offset="1" style="stop-color:#4AEFB1"/>
			</linearGradient>
			<path class="st93" d="M11.9,24.3C11.9,24.4,11.9,24.4,11.9,24.3c0,0.3-0.2,0.5-0.4,0.6l0,0.1h-0.7l0.1-0.1
				c-0.2-0.1-0.3-0.3-0.3-0.5c0,0,0-0.1,0-0.1c0-0.3,0.2-0.6,0.4-0.7l0-0.4l0-0.3h0.6l-0.1,0.4l-0.1,0.4
				C11.7,23.7,11.9,24,11.9,24.3z"/>
			
				<linearGradient id="SVGID_77_" gradientUnits="userSpaceOnUse" x1="11.2306" y1="90.969" x2="11.2306" y2="89.2511" gradientTransform="matrix(1 0 0 1 0 -66)">
				<stop  offset="0" style="stop-color:#BBD400"/>
				<stop  offset="1" style="stop-color:#2DFF15"/>
			</linearGradient>
			<path class="st94" d="M11.9,24.3C11.9,24.4,11.9,24.4,11.9,24.3c0,0.3-0.2,0.5-0.4,0.6l0,0l-0.6,0c-0.2-0.1-0.3-0.3-0.3-0.5
				c0,0,0-0.1,0-0.1c0-0.3,0.2-0.6,0.4-0.7l0-0.4l0.5,0.1l-0.1,0.4C11.7,23.7,11.9,24,11.9,24.3z"/>
			<polygon class="st87" points="11.3,23 11.4,23 11.3,23.7 11.3,23.7 			"/>
			<polygon class="st87" points="11,23 11,23.7 11.1,23.7 11,23 			"/>
			<path class="st87" d="M11.2,23.8l0.3,0c0,0,0.5,0.5,0.1,1.1h-0.1C11.5,24.9,11.7,24.2,11.2,23.8z"/>
			<path class="st87" d="M10.7,24.2h-0.1c0,0,0,0.5,0.3,0.7C10.9,24.9,10.7,24.7,10.7,24.2z"/>
			<path class="st56" d="M11.3,24.6C11.3,24.7,11.2,24.7,11.3,24.6c-0.1,0.1-0.2,0.1-0.2,0C11.1,24.6,11.1,24.6,11.3,24.6
				C11.2,24.6,11.3,24.6,11.3,24.6z"/>
			<path class="st56" d="M11.3,24.5C11.3,24.5,11.3,24.5,11.3,24.5C11.3,24.5,11.3,24.5,11.3,24.5C11.3,24.5,11.3,24.5,11.3,24.5
				C11.3,24.5,11.3,24.5,11.3,24.5z"/>
			<path class="st56" d="M11.5,24.8C11.5,24.8,11.4,24.9,11.5,24.8c-0.1,0.1-0.1,0-0.1,0S11.4,24.7,11.5,24.8
				C11.4,24.7,11.5,24.8,11.5,24.8z"/>
		</g>
		<g>
			
				<linearGradient id="SVGID_78_" gradientUnits="userSpaceOnUse" x1="9.0857" y1="99.5262" x2="9.0857" y2="95.3543" gradientTransform="matrix(1 0 0 1 0 -66)">
				<stop  offset="0" style="stop-color:#4F9F00"/>
				<stop  offset="1" style="stop-color:#267015"/>
			</linearGradient>
			<path class="st95" d="M10.1,30.8c0,0,0-0.1,0-0.1c-0.1-0.1-0.2-0.2-0.4-0.3l-0.3-0.1l0,0v0v0l0-0.1l0-0.4l0,0l0,0v0l0-0.1v0
				l0-0.1v0v0H9.1l0,0H8.7l0.1,0.8l-0.3,0.1l0,0c-0.3,0.1-0.4,0.3-0.4,0.6l0,0.1l0,0l0.1,0.8l0,0l0.1,1.6c0,0.1,0.1,0.1,0.2,0.1h0.6
				l0,0h0.1h0.5c0.1,0,0.2,0,0.2-0.1v0l0.1-0.6l0,0l0-0.4l0.1-1.2l0-0.1L10.1,30.8C10.1,30.9,10.1,30.8,10.1,30.8z M9.1,33.3v0.2
				v-0.7V33V33.3z M9.1,32.5L9.1,32.5L9.1,32.5L9.1,32.5z M9.1,31.9L9.1,31.9L9.1,31.9L9.1,31.9z"/>
			<polygon class="st96" points="9.5,29.4 9.5,29.6 8.7,29.6 8.7,29.4 			"/>
			
				<linearGradient id="SVGID_79_" gradientUnits="userSpaceOnUse" x1="-137.8021" y1="-209.1978" x2="-137.8021" y2="-210.4509" gradientTransform="matrix(1 1.300000e-03 -1.300000e-03 1 146.7806 240.9484)">
				<stop  offset="0" style="stop-color:#000000"/>
				<stop  offset="1" style="stop-color:#B3A600"/>
			</linearGradient>
			<path class="st97" d="M8.5,30.9c0,0,0.1-0.5,0.7-0.6c0.6-0.1,0.8,0.4,0.8,0.6c0,0.2-0.1,0.7-0.1,0.7s0-0.7-0.1-0.8
				c-0.1-0.1-0.4-0.1-0.7-0.1C8.7,30.8,8.5,30.9,8.5,30.9z"/>
			<path class="st98" d="M9,30.8h0.5l-0.1,1.8H9.3c0,0,0-1.6,0-1.7C9.3,30.9,9,30.8,9,30.8z"/>
			<polygon class="st98" points="9.9,33.4 9.8,33.4 9.8,32.9 9.9,31.1 9.9,31.1 10,31 10,31 10.1,30.9 10.1,30.9 10.1,31.1 10,32.3 
				9.9,32.8 9.9,32.8 			"/>
			<path class="st99" d="M9.5,29.6H8.7l0,0.1l0.1,0l0,0.5c0,0-0.4,0.1-0.6,0.5c-0.1,0.3,0.2,2.8,0.2,2.8h0.4c0,0-0.1-2.6,0-2.8
				c0.1-0.2,0.2-0.5,0.2-0.5l0-0.4L9.5,29.6z"/>
			
				<linearGradient id="SVGID_80_" gradientUnits="userSpaceOnUse" x1="-137.7503" y1="-210.5989" x2="-137.7503" y2="-211.118" gradientTransform="matrix(1 1.300000e-03 -1.300000e-03 1 146.7806 240.9484)">
				<stop  offset="0" style="stop-color:#000000"/>
				<stop  offset="1" style="stop-color:#B3A600"/>
			</linearGradient>
			<polygon class="st100" points="9.2,29.7 9.4,29.7 9.3,30.2 9.2,30.2 			"/>
			
				<linearGradient id="SVGID_81_" gradientUnits="userSpaceOnUse" x1="-137.6705" y1="-211.1819" x2="-137.6705" y2="-211.3548" gradientTransform="matrix(1 1.300000e-03 -1.300000e-03 1 146.7806 240.9484)">
				<stop  offset="0" style="stop-color:#000000"/>
				<stop  offset="1" style="stop-color:#B3A600"/>
			</linearGradient>
			<polygon class="st101" points="9.3,29.4 9.5,29.4 9.5,29.6 9.3,29.6 			"/>
			<polygon class="st99" points="8.7,29.6 8.7,29.4 9,29.4 9,29.6 			"/>
			<polygon class="st102" points="9.5,29.6 9.4,30.2 9.3,30.2 9.4,29.7 9.4,29.6 9.4,29.6 			"/>
			<polygon class="st102" points="9.5,29.4 9.5,29.6 9.5,29.6 9.5,29.6 9.5,29.5 9.5,29.4 9.5,29.4 			"/>
			<path class="st103" d="M8.8,30.8l0.1,2.7h0.3l0-2.8C9.3,30.8,8.9,30.7,8.8,30.8z"/>
		</g>
		<g>
			
				<linearGradient id="SVGID_82_" gradientUnits="userSpaceOnUse" x1="-777.4346" y1="80.9979" x2="-774.4968" y2="80.9979" gradientTransform="matrix(-1 0 0 1 -761.2798 -66)">
				<stop  offset="0" style="stop-color:#2395A6"/>
				<stop  offset="1" style="stop-color:#015663"/>
			</linearGradient>
			<polygon class="st104" points="15.9,16.3 16.2,13.7 13.2,13.7 13.6,16.2 			"/>
			<polygon class="st105" points="16.2,13.7 17.9,13.8 17.4,16.3 15.9,16.3 			"/>
			
				<linearGradient id="SVGID_83_" gradientUnits="userSpaceOnUse" x1="-779.3551" y1="79.8989" x2="-774.2702" y2="79.8989" gradientTransform="matrix(-1 0 0 1 -761.2798 -66)">
				<stop  offset="0" style="stop-color:#2395A6"/>
				<stop  offset="1" style="stop-color:#015663"/>
			</linearGradient>
			<polygon class="st106" points="13.1,14.2 13,13.6 16.2,13.6 18.1,13.6 17.9,14.2 16.1,14.1 			"/>
			<polygon class="st105" points="17.9,14.2 18.1,13.6 16.2,13.6 16.2,14.1 			"/>
			<polygon class="st107" points="17.6,15.2 16.1,14.5 13.3,14.5 13.3,14.2 16.1,14.1 17.8,14.2 			"/>
			<polygon class="st105" points="15.2,14.3 15.2,14.6 13.9,14.6 13.8,14.4 			"/>
			<polygon class="st107" points="17.9,13.7 17.9,14.2 17.3,14.1 17.3,13.7 			"/>
			<polygon class="st107" points="17.7,14.3 17.3,16.2 16.2,16.2 17.1,16.1 17.3,14.2 			"/>
			<polygon class="st24" points="14.9,13.7 13.1,13.7 13.2,14.1 14.9,14.1 			"/>
			<polygon class="st24" points="14.4,14.8 13.6,14.8 13.7,16.2 14.4,16.2 			"/>
		</g>
		<g>
			
				<linearGradient id="SVGID_84_" gradientUnits="userSpaceOnUse" x1="10.5744" y1="102.6152" x2="15.92" y2="102.6152" gradientTransform="matrix(1 0 0 1 0 -66)">
				<stop  offset="0" style="stop-color:#2395A6"/>
				<stop  offset="1" style="stop-color:#015663"/>
			</linearGradient>
			<polygon class="st108" points="15.9,36.1 15.9,37.1 10.8,37.1 10.6,36.1 			"/>
			<polygon class="st109" points="8.5,36.8 10.6,36.1 10.6,36.3 8.6,36.9 			"/>
			<polygon class="st109" points="10.8,37 8.5,37 8.5,37.1 10.1,37.1 10.8,37.1 			"/>
			<polygon class="st110" points="8.7,36.9 8.7,37 10.8,37 10.6,36.3 			"/>
			<polygon class="st1" points="8.7,37 10.4,36.6 10.4,36.8 9.2,37 10.4,36.9 10.4,37 10.8,37 10.6,36.3 8.7,36.9 			"/>
			<polygon class="st111" points="15.4,36.1 15.4,37.1 14.9,37.1 14.9,36.1 			"/>
			<polygon class="st111" points="11.5,36.1 11.5,37.1 11.9,37.1 11.9,36.1 			"/>
			
				<linearGradient id="SVGID_85_" gradientUnits="userSpaceOnUse" x1="9.8322" y1="107.7582" x2="15.1625" y2="107.7582" gradientTransform="matrix(0.9998 -1.910000e-02 1.910000e-02 0.9998 -1.3035 -70.8882)">
				<stop  offset="0" style="stop-color:#8B6F8E"/>
				<stop  offset="1" style="stop-color:#7A6D84"/>
			</linearGradient>
			<polygon class="st112" points="15.9,36.9 12,36.7 11.3,36.1 10.6,36.1 10.8,37.1 15.9,37.1 			"/>
		</g>
	</g>
</g>
</svg>
