<?xml version="1.0" encoding="utf-8"?>
<!-- Generator: Adobe Illustrator 23.0.3, SVG Export Plug-In . SVG Version: 6.00 Build 0)  -->
<svg version="1.1" id="Layer_1" xmlns="http://www.w3.org/2000/svg" xmlns:xlink="http://www.w3.org/1999/xlink" x="0px" y="0px"
	 viewBox="0 0 60 80" style="enable-background:new 0 0 60 80;" xml:space="preserve">
<style type="text/css">
	.st0{opacity:0.72;fill:#9EB3B6;}
	.st1{fill:#CE7D13;}
	.st2{fill:#FFC50D;}
	.st3{opacity:0.43;}
	.st4{fill:#FFFC8F;}
	.st5{fill:#F19D00;}
	.st6{fill:#FFD400;}
	.st7{opacity:0.72;fill:#9C86B7;}
	.st8{fill:#47752F;}
	.st9{fill:#4E8436;}
	.st10{fill:#ADE069;}
	.st11{fill:#70A33C;}
	.st12{fill:#607700;}
	.st13{fill:#FFFFFF;}
	.st14{fill:#9FD65E;}
	.st15{opacity:0.44;fill:#48842F;}
	.st16{fill:#FF895A;}
	.st17{opacity:0.29;fill:#846E56;}
</style>
<g>
	<path class="st0" d="M33.27,50.44c-0.05-0.07-0.08-0.15-0.08-0.23c0-0.43,0.82-0.78,1.84-0.78c1.02,0,1.84,0.35,1.84,0.78
		c0,0.08-0.03,0.16-0.08,0.23h0l-0.93,1.08l-3.9-1.32L33.27,50.44z"/>
	<g>
		<polygon class="st0" points="38.39,48.27 41.55,44.51 36.51,44.51 		"/>
	</g>
	<g>
		<g>
			<g>
				<ellipse class="st1" cx="32.66" cy="43.38" rx="1.84" ry="0.78"/>
			</g>
			<g>
				<path class="st2" d="M30.82,42.93v0.38c0,0.32,0.46,0.6,1.11,0.72c0.15,0.03,0.32,0.05,0.49,0.06c0.08,0,0.16,0.01,0.24,0.01
					c0.26,0,0.51-0.02,0.73-0.06c0.65-0.12,0.99-0.4,0.99-0.72l0.12-0.41c-0.27-0.29-1.06-0.37-1.84-0.37
					C32.04,42.52,31.15,42.73,30.82,42.93z"/>
			</g>
			<g class="st3">
				<path class="st4" d="M31.92,43.33v0.69c0.15,0.03,0.32,0.05,0.49,0.06v-0.75H31.92z"/>
			</g>
			<g>
				<path class="st5" d="M33.32,44.03v-1.49c0.53,0.04,0.99,0.14,1.18,0.34v0.42C34.5,43.63,34.01,43.92,33.32,44.03z"/>
			</g>
			<g>
				<ellipse class="st6" cx="32.66" cy="42.93" rx="1.84" ry="0.78"/>
			</g>
			<g>
				<path class="st4" d="M31.61,43.54c-0.31-0.1-0.55-0.23-0.67-0.39l1.48-0.98c0.09,0,0.17-0.01,0.25-0.01
					c0.3,0,0.6,0.03,0.87,0.09L31.61,43.54z"/>
			</g>
			<g>
				<path class="st4" d="M32.42,43.68c-0.15-0.01-0.29-0.03-0.43-0.05l1.92-1.26c0.11,0.04,0.21,0.09,0.29,0.14L32.42,43.68z"/>
			</g>
		</g>
		<g>
			<g>
				<ellipse class="st1" cx="32.66" cy="42.84" rx="1.84" ry="0.78"/>
			</g>
			<g>
				<path class="st2" d="M30.82,42.38v0.38c0,0.32,0.46,0.6,1.11,0.72c0.15,0.03,0.32,0.05,0.49,0.06c0.08,0,0.16,0.01,0.24,0.01
					c0.26,0,0.51-0.02,0.73-0.06c0.65-0.12,0.99-0.4,0.99-0.72l0.12-0.41c-0.27-0.29-1.06-0.37-1.84-0.37
					C32.04,41.98,31.15,42.18,30.82,42.38z"/>
			</g>
			<g class="st3">
				<path class="st4" d="M31.92,42.79v0.69c0.15,0.03,0.32,0.05,0.49,0.06v-0.75H31.92z"/>
			</g>
			<g>
				<path class="st5" d="M33.32,43.49V42c0.53,0.04,0.99,0.14,1.18,0.34v0.42C34.5,43.09,34.01,43.38,33.32,43.49z"/>
			</g>
			<g>
				<ellipse class="st6" cx="32.66" cy="42.38" rx="1.84" ry="0.78"/>
			</g>
			<g>
				<path class="st4" d="M31.61,43c-0.31-0.1-0.55-0.23-0.67-0.39l1.48-0.98c0.09,0,0.17-0.01,0.25-0.01c0.3,0,0.6,0.03,0.87,0.09
					L31.61,43z"/>
			</g>
			<g>
				<path class="st4" d="M32.42,43.14c-0.15-0.01-0.29-0.03-0.43-0.05l1.92-1.26c0.11,0.04,0.21,0.09,0.29,0.14L32.42,43.14z"/>
			</g>
		</g>
		<g>
			<g>
				<ellipse class="st1" cx="32.66" cy="42.3" rx="1.84" ry="0.78"/>
			</g>
			<g>
				<path class="st2" d="M30.82,41.84v0.38c0,0.32,0.46,0.6,1.11,0.72c0.15,0.03,0.32,0.05,0.49,0.06C32.5,43,32.58,43,32.66,43
					c0.26,0,0.51-0.02,0.73-0.06c0.65-0.12,0.99-0.4,0.99-0.72l0.12-0.41c-0.27-0.29-1.06-0.37-1.84-0.37
					C32.04,41.44,31.15,41.64,30.82,41.84z"/>
			</g>
			<g class="st3">
				<path class="st4" d="M31.92,42.25v0.69c0.15,0.03,0.32,0.05,0.49,0.06v-0.75H31.92z"/>
			</g>
			<g>
				<path class="st5" d="M33.32,42.95v-1.49c0.53,0.04,0.99,0.14,1.18,0.34v0.42C34.5,42.55,34.01,42.83,33.32,42.95z"/>
			</g>
			<g>
				<ellipse class="st6" cx="32.66" cy="41.84" rx="1.84" ry="0.78"/>
			</g>
			<g>
				<path class="st4" d="M31.61,42.46c-0.31-0.1-0.55-0.23-0.67-0.39l1.48-0.98c0.09,0,0.17-0.01,0.25-0.01
					c0.3,0,0.6,0.03,0.87,0.09L31.61,42.46z"/>
			</g>
			<g>
				<path class="st4" d="M32.42,42.59c-0.15-0.01-0.29-0.03-0.43-0.05l1.92-1.26c0.11,0.04,0.21,0.09,0.29,0.14L32.42,42.59z"/>
			</g>
		</g>
		<g>
			<g>
				<ellipse class="st1" cx="32.66" cy="41.76" rx="1.84" ry="0.78"/>
			</g>
			<g>
				<path class="st2" d="M30.82,41.3v0.38c0,0.32,0.46,0.6,1.11,0.72c0.15,0.03,0.32,0.05,0.49,0.06c0.08,0,0.16,0.01,0.24,0.01
					c0.26,0,0.51-0.02,0.73-0.06c0.65-0.12,0.99-0.4,0.99-0.72l0.12-0.41c-0.27-0.29-1.06-0.37-1.84-0.37
					C32.04,40.9,31.15,41.1,30.82,41.3z"/>
			</g>
			<g class="st3">
				<path class="st4" d="M31.92,41.7v0.69c0.15,0.03,0.32,0.05,0.49,0.06V41.7H31.92z"/>
			</g>
			<g>
				<path class="st5" d="M33.32,42.41v-1.49c0.53,0.04,0.99,0.14,1.18,0.34v0.42C34.5,42.01,34.01,42.29,33.32,42.41z"/>
			</g>
			<g>
				<ellipse class="st6" cx="32.66" cy="41.3" rx="1.84" ry="0.78"/>
			</g>
			<g>
				<path class="st4" d="M31.61,41.91c-0.31-0.1-0.55-0.23-0.67-0.39l1.48-0.98c0.09,0,0.17-0.01,0.25-0.01
					c0.3,0,0.6,0.03,0.87,0.09L31.61,41.91z"/>
			</g>
			<g>
				<path class="st4" d="M32.42,42.05c-0.15-0.01-0.29-0.03-0.43-0.05l1.92-1.26c0.11,0.04,0.21,0.09,0.29,0.14L32.42,42.05z"/>
			</g>
		</g>
		<g>
			<g>
				<ellipse class="st1" cx="32.66" cy="41.21" rx="1.84" ry="0.78"/>
			</g>
			<g>
				<path class="st2" d="M30.82,40.76v0.38c0,0.32,0.46,0.6,1.11,0.72c0.15,0.03,0.32,0.05,0.49,0.06c0.08,0,0.16,0.01,0.24,0.01
					c0.26,0,0.51-0.02,0.73-0.06c0.65-0.12,0.99-0.4,0.99-0.72l0.12-0.41c-0.27-0.29-1.06-0.37-1.84-0.37
					C32.04,40.35,31.15,40.56,30.82,40.76z"/>
			</g>
			<g class="st3">
				<path class="st4" d="M31.92,41.16v0.69c0.15,0.03,0.32,0.05,0.49,0.06v-0.75H31.92z"/>
			</g>
			<g>
				<path class="st5" d="M33.32,41.86v-1.49c0.53,0.04,0.99,0.14,1.18,0.34v0.42C34.5,41.47,34.01,41.75,33.32,41.86z"/>
			</g>
			<g>
				<ellipse class="st6" cx="32.66" cy="40.76" rx="1.84" ry="0.78"/>
			</g>
			<g>
				<path class="st4" d="M31.61,41.37c-0.31-0.1-0.55-0.23-0.67-0.39l1.48-0.98C32.51,40,32.6,40,32.68,40c0.3,0,0.6,0.03,0.87,0.09
					L31.61,41.37z"/>
			</g>
			<g>
				<path class="st4" d="M32.42,41.51c-0.15-0.01-0.29-0.03-0.43-0.05l1.92-1.26c0.11,0.04,0.21,0.09,0.29,0.14L32.42,41.51z"/>
			</g>
		</g>
		<g>
			<g>
				<ellipse class="st1" cx="32.66" cy="40.67" rx="1.84" ry="0.78"/>
			</g>
			<g>
				<path class="st2" d="M30.82,40.22v0.38c0,0.32,0.46,0.6,1.11,0.72c0.15,0.03,0.32,0.05,0.49,0.06c0.08,0,0.16,0.01,0.24,0.01
					c0.26,0,0.51-0.02,0.73-0.06c0.65-0.12,0.99-0.4,0.99-0.72l0.12-0.41c-0.27-0.29-1.06-0.37-1.84-0.37
					C32.04,39.81,31.15,40.02,30.82,40.22z"/>
			</g>
			<g class="st3">
				<path class="st4" d="M31.92,40.62v0.69c0.15,0.03,0.32,0.05,0.49,0.06v-0.75H31.92z"/>
			</g>
			<g>
				<path class="st5" d="M33.32,41.32v-1.49c0.53,0.04,0.99,0.14,1.18,0.34v0.42C34.5,40.92,34.01,41.21,33.32,41.32z"/>
			</g>
			<g>
				<ellipse class="st6" cx="32.66" cy="40.22" rx="1.84" ry="0.78"/>
			</g>
			<g>
				<path class="st4" d="M31.61,40.83c-0.31-0.1-0.55-0.23-0.67-0.39l1.48-0.98c0.09,0,0.17-0.01,0.25-0.01
					c0.3,0,0.6,0.03,0.87,0.09L31.61,40.83z"/>
			</g>
			<g>
				<path class="st4" d="M32.42,40.97c-0.15-0.01-0.29-0.03-0.43-0.05l1.92-1.26c0.11,0.04,0.21,0.09,0.29,0.14L32.42,40.97z"/>
			</g>
		</g>
		<g>
			<g>
				<ellipse class="st1" cx="32.66" cy="40.13" rx="1.84" ry="0.78"/>
			</g>
			<g>
				<path class="st2" d="M30.82,39.67v0.38c0,0.32,0.46,0.6,1.11,0.72c0.15,0.03,0.32,0.05,0.49,0.06c0.08,0,0.16,0.01,0.24,0.01
					c0.26,0,0.51-0.02,0.73-0.06c0.65-0.12,0.99-0.4,0.99-0.72l0.12-0.41c-0.27-0.29-1.06-0.37-1.84-0.37
					C32.04,39.27,31.15,39.47,30.82,39.67z"/>
			</g>
			<g class="st3">
				<path class="st4" d="M31.92,40.08v0.69c0.15,0.03,0.32,0.05,0.49,0.06v-0.75H31.92z"/>
			</g>
			<g>
				<path class="st5" d="M33.32,40.78v-1.49c0.53,0.04,0.99,0.14,1.18,0.34v0.42C34.5,40.38,34.01,40.67,33.32,40.78z"/>
			</g>
			<g>
				<ellipse class="st6" cx="32.66" cy="39.68" rx="1.84" ry="0.78"/>
			</g>
			<g>
				<path class="st4" d="M31.61,40.29c-0.31-0.1-0.55-0.23-0.67-0.39l1.48-0.98c0.09,0,0.17-0.01,0.25-0.01
					c0.3,0,0.6,0.03,0.87,0.09L31.61,40.29z"/>
			</g>
			<g>
				<path class="st4" d="M32.42,40.43c-0.15-0.01-0.29-0.03-0.43-0.05l1.92-1.26c0.11,0.04,0.21,0.09,0.29,0.14L32.42,40.43z"/>
			</g>
		</g>
		<g>
			<g>
				<ellipse class="st1" cx="32.66" cy="39.59" rx="1.84" ry="0.78"/>
			</g>
			<g>
				<path class="st2" d="M30.82,39.13v0.38c0,0.32,0.46,0.6,1.11,0.72c0.15,0.03,0.32,0.05,0.49,0.06c0.08,0,0.16,0.01,0.24,0.01
					c0.26,0,0.51-0.02,0.73-0.06c0.65-0.12,0.99-0.4,0.99-0.72l0.12-0.41c-0.27-0.29-1.06-0.37-1.84-0.37
					C32.04,38.73,31.15,38.93,30.82,39.13z"/>
			</g>
			<g class="st3">
				<path class="st4" d="M31.92,39.54v0.69c0.15,0.03,0.32,0.05,0.49,0.06v-0.75H31.92z"/>
			</g>
			<g>
				<path class="st5" d="M33.32,40.24v-1.49c0.53,0.04,0.99,0.14,1.18,0.34v0.42C34.5,39.84,34.01,40.13,33.32,40.24z"/>
			</g>
			<g>
				<ellipse class="st6" cx="32.66" cy="39.13" rx="1.84" ry="0.78"/>
			</g>
			<g>
				<path class="st4" d="M31.61,39.75c-0.31-0.1-0.55-0.23-0.67-0.39l1.48-0.98c0.09,0,0.17-0.01,0.25-0.01
					c0.3,0,0.6,0.03,0.87,0.09L31.61,39.75z"/>
			</g>
			<g>
				<path class="st4" d="M32.42,39.89c-0.15-0.01-0.29-0.03-0.43-0.05l1.92-1.26c0.11,0.04,0.21,0.09,0.29,0.14L32.42,39.89z"/>
			</g>
		</g>
		<g>
			<g>
				<ellipse class="st1" cx="32.66" cy="39.05" rx="1.84" ry="0.78"/>
			</g>
			<g>
				<path class="st2" d="M30.82,38.59v0.38c0,0.32,0.46,0.6,1.11,0.72c0.15,0.03,0.32,0.05,0.49,0.06c0.08,0,0.16,0.01,0.24,0.01
					c0.26,0,0.51-0.02,0.73-0.06c0.65-0.12,0.99-0.4,0.99-0.72l0.12-0.41c-0.27-0.29-1.06-0.37-1.84-0.37
					C32.04,38.19,31.15,38.39,30.82,38.59z"/>
			</g>
			<g class="st3">
				<path class="st4" d="M31.92,38.99v0.69c0.15,0.03,0.32,0.05,0.49,0.06v-0.75H31.92z"/>
			</g>
			<g>
				<path class="st5" d="M33.32,39.7v-1.49c0.53,0.04,0.99,0.14,1.18,0.34v0.42C34.5,39.3,34.01,39.58,33.32,39.7z"/>
			</g>
			<g>
				<ellipse class="st6" cx="32.66" cy="38.59" rx="1.84" ry="0.78"/>
			</g>
			<g>
				<path class="st4" d="M31.61,39.2c-0.31-0.1-0.55-0.23-0.67-0.39l1.48-0.98c0.09,0,0.17-0.01,0.25-0.01c0.3,0,0.6,0.03,0.87,0.09
					L31.61,39.2z"/>
			</g>
			<g>
				<path class="st4" d="M32.42,39.34c-0.15-0.01-0.29-0.03-0.43-0.05l1.92-1.26c0.11,0.04,0.21,0.09,0.29,0.14L32.42,39.34z"/>
			</g>
		</g>
		<g>
			<g>
				<ellipse class="st1" cx="32.66" cy="38.51" rx="1.84" ry="0.78"/>
			</g>
			<g>
				<path class="st2" d="M30.82,38.05v0.38c0,0.32,0.46,0.6,1.11,0.72c0.15,0.03,0.32,0.05,0.49,0.06c0.08,0,0.16,0.01,0.24,0.01
					c0.26,0,0.51-0.02,0.73-0.06c0.65-0.12,0.99-0.4,0.99-0.72l0.12-0.41c-0.27-0.29-1.06-0.37-1.84-0.37
					C32.04,37.64,31.15,37.85,30.82,38.05z"/>
			</g>
			<g class="st3">
				<path class="st4" d="M31.92,38.45v0.69c0.15,0.03,0.32,0.05,0.49,0.06v-0.75H31.92z"/>
			</g>
			<g>
				<path class="st5" d="M33.32,39.15v-1.49c0.53,0.04,0.99,0.14,1.18,0.34v0.42C34.5,38.76,34.01,39.04,33.32,39.15z"/>
			</g>
			<g>
				<ellipse class="st6" cx="32.66" cy="38.05" rx="1.84" ry="0.78"/>
			</g>
			<g>
				<path class="st4" d="M31.61,38.66c-0.31-0.1-0.55-0.23-0.67-0.39l1.48-0.98c0.09,0,0.17-0.01,0.25-0.01
					c0.3,0,0.6,0.03,0.87,0.09L31.61,38.66z"/>
			</g>
			<g>
				<path class="st4" d="M32.42,38.8c-0.15-0.01-0.29-0.03-0.43-0.05l1.92-1.26c0.11,0.04,0.21,0.09,0.29,0.14L32.42,38.8z"/>
			</g>
		</g>
		<g>
			<g>
				<ellipse class="st1" cx="32.66" cy="37.96" rx="1.84" ry="0.78"/>
			</g>
			<g>
				<path class="st2" d="M30.82,37.51v0.38c0,0.32,0.46,0.6,1.11,0.72c0.15,0.03,0.32,0.05,0.49,0.06c0.08,0,0.16,0.01,0.24,0.01
					c0.26,0,0.51-0.02,0.73-0.06c0.65-0.12,0.99-0.4,0.99-0.72l0.12-0.41c-0.27-0.29-1.06-0.37-1.84-0.37
					C32.04,37.1,31.15,37.31,30.82,37.51z"/>
			</g>
			<g class="st3">
				<path class="st4" d="M31.92,37.91v0.69c0.15,0.03,0.32,0.05,0.49,0.06v-0.75H31.92z"/>
			</g>
			<g>
				<path class="st5" d="M33.32,38.61v-1.49c0.53,0.04,0.99,0.14,1.18,0.34v0.42C34.5,38.22,34.01,38.5,33.32,38.61z"/>
			</g>
			<g>
				<ellipse class="st6" cx="32.66" cy="37.51" rx="1.84" ry="0.78"/>
			</g>
			<g>
				<path class="st4" d="M31.61,38.12c-0.31-0.1-0.55-0.23-0.67-0.39l1.48-0.98c0.09,0,0.17-0.01,0.25-0.01
					c0.3,0,0.6,0.03,0.87,0.09L31.61,38.12z"/>
			</g>
			<g>
				<path class="st4" d="M32.42,38.26c-0.15-0.01-0.29-0.03-0.43-0.05l1.92-1.26c0.11,0.04,0.21,0.09,0.29,0.14L32.42,38.26z"/>
			</g>
		</g>
		<g>
			<g>
				<ellipse class="st1" cx="32.66" cy="37.42" rx="1.84" ry="0.78"/>
			</g>
			<g>
				<path class="st2" d="M30.82,36.97v0.38c0,0.32,0.46,0.6,1.11,0.72c0.15,0.03,0.32,0.05,0.49,0.06c0.08,0,0.16,0.01,0.24,0.01
					c0.26,0,0.51-0.02,0.73-0.06c0.65-0.12,0.99-0.4,0.99-0.72l0.12-0.41c-0.27-0.29-1.06-0.37-1.84-0.37
					C32.04,36.56,31.15,36.77,30.82,36.97z"/>
			</g>
			<g class="st3">
				<path class="st4" d="M31.92,37.37v0.69c0.15,0.03,0.32,0.05,0.49,0.06v-0.75H31.92z"/>
			</g>
			<g>
				<path class="st5" d="M33.32,38.07v-1.49c0.53,0.04,0.99,0.14,1.18,0.34v0.42C34.5,37.67,34.01,37.96,33.32,38.07z"/>
			</g>
			<g>
				<ellipse class="st6" cx="32.66" cy="36.97" rx="1.84" ry="0.78"/>
			</g>
			<g>
				<path class="st4" d="M31.61,37.58c-0.31-0.1-0.55-0.23-0.67-0.39l1.48-0.98c0.09,0,0.17-0.01,0.25-0.01
					c0.3,0,0.6,0.03,0.87,0.09L31.61,37.58z"/>
			</g>
			<g>
				<path class="st4" d="M32.42,37.72c-0.15-0.01-0.29-0.03-0.43-0.05l1.92-1.26c0.11,0.04,0.21,0.09,0.29,0.14L32.42,37.72z"/>
			</g>
		</g>
		<g>
			<g>
				<ellipse class="st1" cx="32.66" cy="36.88" rx="1.84" ry="0.78"/>
			</g>
			<g>
				<path class="st2" d="M30.82,36.42v0.38c0,0.32,0.46,0.6,1.11,0.72c0.15,0.03,0.32,0.05,0.49,0.06c0.08,0,0.16,0.01,0.24,0.01
					c0.26,0,0.51-0.02,0.73-0.06c0.65-0.12,0.99-0.4,0.99-0.72l0.12-0.41c-0.27-0.29-1.06-0.37-1.84-0.37
					C32.04,36.02,31.15,36.22,30.82,36.42z"/>
			</g>
			<g class="st3">
				<path class="st4" d="M31.92,36.83v0.69c0.15,0.03,0.32,0.05,0.49,0.06v-0.75H31.92z"/>
			</g>
			<g>
				<path class="st5" d="M33.32,37.53v-1.49c0.53,0.04,0.99,0.14,1.18,0.34v0.42C34.5,37.13,34.01,37.42,33.32,37.53z"/>
			</g>
			<g>
				<ellipse class="st6" cx="32.66" cy="36.42" rx="1.84" ry="0.78"/>
			</g>
			<g>
				<path class="st4" d="M31.61,37.04c-0.31-0.1-0.55-0.23-0.67-0.39l1.48-0.98c0.09,0,0.17-0.01,0.25-0.01
					c0.3,0,0.6,0.03,0.87,0.09L31.61,37.04z"/>
			</g>
			<g>
				<path class="st4" d="M32.42,37.18c-0.15-0.01-0.29-0.03-0.43-0.05l1.92-1.26c0.11,0.04,0.21,0.09,0.29,0.14L32.42,37.18z"/>
			</g>
		</g>
	</g>
	<g>
		<g>
			<g>
				<path class="st1" d="M23.28,44.12c0,0.43,0.82,0.78,1.84,0.78c1.02,0,1.84-0.35,1.84-0.78c0-0.43-0.82-0.78-1.84-0.78
					C24.1,43.33,23.28,43.68,23.28,44.12z"/>
			</g>
			<g>
				<path class="st2" d="M23.28,43.66v0.38c0,0.32,0.46,0.6,1.11,0.72c0.15,0.03,0.32,0.05,0.49,0.06c0.08,0,0.16,0.01,0.24,0.01
					c0.26,0,0.51-0.02,0.73-0.06c0.65-0.12,0.99-0.4,0.99-0.72l0.12-0.41c-0.27-0.29-1.06-0.37-1.84-0.37
					C24.5,43.25,23.61,43.46,23.28,43.66z"/>
			</g>
			<g class="st3">
				<path class="st4" d="M24.39,44.06v0.69c0.15,0.03,0.32,0.05,0.49,0.06v-0.75H24.39z"/>
			</g>
			<g>
				<path class="st5" d="M25.78,44.76v-1.49c0.53,0.04,0.99,0.14,1.18,0.34v0.42C26.96,44.37,26.47,44.65,25.78,44.76z"/>
			</g>
			<g>
				<ellipse class="st6" cx="25.12" cy="43.66" rx="1.84" ry="0.78"/>
			</g>
			<g>
				<path class="st4" d="M24.07,44.27c-0.31-0.1-0.55-0.23-0.67-0.39l1.48-0.98c0.09,0,0.17-0.01,0.25-0.01
					c0.3,0,0.6,0.03,0.87,0.09L24.07,44.27z"/>
			</g>
			<g>
				<path class="st4" d="M24.88,44.41c-0.15-0.01-0.29-0.03-0.43-0.05l1.92-1.26c0.11,0.04,0.21,0.09,0.29,0.14L24.88,44.41z"/>
			</g>
		</g>
		<g>
			<g>
				<path class="st1" d="M23.28,43.57c0,0.43,0.82,0.78,1.84,0.78c1.02,0,1.84-0.35,1.84-0.78c0-0.43-0.82-0.78-1.84-0.78
					C24.1,42.79,23.28,43.14,23.28,43.57z"/>
			</g>
			<g>
				<path class="st2" d="M23.28,43.12v0.38c0,0.32,0.46,0.6,1.11,0.72c0.15,0.03,0.32,0.05,0.49,0.06c0.08,0,0.16,0.01,0.24,0.01
					c0.26,0,0.51-0.02,0.73-0.06c0.65-0.12,0.99-0.4,0.99-0.72l0.12-0.41c-0.27-0.29-1.06-0.37-1.84-0.37
					C24.5,42.71,23.61,42.92,23.28,43.12z"/>
			</g>
			<g class="st3">
				<path class="st4" d="M24.39,43.52v0.69c0.15,0.03,0.32,0.05,0.49,0.06v-0.75H24.39z"/>
			</g>
			<g>
				<path class="st5" d="M25.78,44.22v-1.49c0.53,0.04,0.99,0.14,1.18,0.34v0.42C26.96,43.83,26.47,44.11,25.78,44.22z"/>
			</g>
			<g>
				<ellipse class="st6" cx="25.12" cy="43.12" rx="1.84" ry="0.78"/>
			</g>
			<g>
				<path class="st4" d="M24.07,43.73c-0.31-0.1-0.55-0.23-0.67-0.39l1.48-0.98c0.09,0,0.17-0.01,0.25-0.01
					c0.3,0,0.6,0.03,0.87,0.09L24.07,43.73z"/>
			</g>
			<g>
				<path class="st4" d="M24.88,43.87c-0.15-0.01-0.29-0.03-0.43-0.05l1.92-1.26c0.11,0.04,0.21,0.09,0.29,0.14L24.88,43.87z"/>
			</g>
		</g>
		<g>
			<g>
				<path class="st1" d="M23.28,43.03c0,0.43,0.82,0.78,1.84,0.78c1.02,0,1.84-0.35,1.84-0.78c0-0.43-0.82-0.78-1.84-0.78
					C24.1,42.25,23.28,42.6,23.28,43.03z"/>
			</g>
			<g>
				<path class="st2" d="M23.28,42.58v0.38c0,0.32,0.46,0.6,1.11,0.72c0.15,0.03,0.32,0.05,0.49,0.06c0.08,0,0.16,0.01,0.24,0.01
					c0.26,0,0.51-0.02,0.73-0.06c0.65-0.12,0.99-0.4,0.99-0.72l0.12-0.41c-0.27-0.29-1.06-0.37-1.84-0.37
					C24.5,42.17,23.61,42.38,23.28,42.58z"/>
			</g>
			<g class="st3">
				<path class="st4" d="M24.39,42.98v0.69c0.15,0.03,0.32,0.05,0.49,0.06v-0.75H24.39z"/>
			</g>
			<g>
				<path class="st5" d="M25.78,43.68v-1.49c0.53,0.04,0.99,0.14,1.18,0.34v0.42C26.96,43.28,26.47,43.57,25.78,43.68z"/>
			</g>
			<g>
				<ellipse class="st6" cx="25.12" cy="42.58" rx="1.84" ry="0.78"/>
			</g>
			<g>
				<path class="st4" d="M24.07,43.19c-0.31-0.1-0.55-0.23-0.67-0.39l1.48-0.98c0.09,0,0.17-0.01,0.25-0.01
					c0.3,0,0.6,0.03,0.87,0.09L24.07,43.19z"/>
			</g>
			<g>
				<path class="st4" d="M24.88,43.33c-0.15-0.01-0.29-0.03-0.43-0.05l1.92-1.26c0.11,0.04,0.21,0.09,0.29,0.14L24.88,43.33z"/>
			</g>
		</g>
		<g>
			<g>
				<path class="st1" d="M23.28,42.49c0,0.43,0.82,0.78,1.84,0.78c1.02,0,1.84-0.35,1.84-0.78c0-0.43-0.82-0.78-1.84-0.78
					C24.1,41.71,23.28,42.06,23.28,42.49z"/>
			</g>
			<g>
				<path class="st2" d="M23.28,42.03v0.38c0,0.32,0.46,0.6,1.11,0.72c0.15,0.03,0.32,0.05,0.49,0.06c0.08,0,0.16,0.01,0.24,0.01
					c0.26,0,0.51-0.02,0.73-0.06c0.65-0.12,0.99-0.4,0.99-0.72l0.12-0.41c-0.27-0.29-1.06-0.37-1.84-0.37
					C24.5,41.63,23.61,41.83,23.28,42.03z"/>
			</g>
			<g class="st3">
				<path class="st4" d="M24.39,42.44v0.69c0.15,0.03,0.32,0.05,0.49,0.06v-0.75H24.39z"/>
			</g>
			<g>
				<path class="st5" d="M25.78,43.14v-1.49c0.53,0.04,0.99,0.14,1.18,0.34v0.42C26.96,42.74,26.47,43.03,25.78,43.14z"/>
			</g>
			<g>
				<ellipse class="st6" cx="25.12" cy="42.03" rx="1.84" ry="0.78"/>
			</g>
			<g>
				<path class="st4" d="M24.07,42.65c-0.31-0.1-0.55-0.23-0.67-0.39l1.48-0.98c0.09,0,0.17-0.01,0.25-0.01
					c0.3,0,0.6,0.03,0.87,0.09L24.07,42.65z"/>
			</g>
			<g>
				<path class="st4" d="M24.88,42.79c-0.15-0.01-0.29-0.03-0.43-0.05l1.92-1.26c0.11,0.04,0.21,0.09,0.29,0.14L24.88,42.79z"/>
			</g>
		</g>
		<g>
			<g>
				<path class="st1" d="M23.28,41.95c0,0.43,0.82,0.78,1.84,0.78c1.02,0,1.84-0.35,1.84-0.78c0-0.43-0.82-0.78-1.84-0.78
					C24.1,41.17,23.28,41.52,23.28,41.95z"/>
			</g>
			<g>
				<path class="st2" d="M23.28,41.49v0.38c0,0.32,0.46,0.6,1.11,0.72c0.15,0.03,0.32,0.05,0.49,0.06c0.08,0,0.16,0.01,0.24,0.01
					c0.26,0,0.51-0.02,0.73-0.06c0.65-0.12,0.99-0.4,0.99-0.72l0.12-0.41c-0.27-0.29-1.06-0.37-1.84-0.37
					C24.5,41.09,23.61,41.29,23.28,41.49z"/>
			</g>
			<g class="st3">
				<path class="st4" d="M24.39,41.9v0.69c0.15,0.03,0.32,0.05,0.49,0.06V41.9H24.39z"/>
			</g>
			<g>
				<path class="st5" d="M25.78,42.6v-1.49c0.53,0.04,0.99,0.14,1.18,0.34v0.42C26.96,42.2,26.47,42.48,25.78,42.6z"/>
			</g>
			<g>
				<ellipse class="st6" cx="25.12" cy="41.49" rx="1.84" ry="0.78"/>
			</g>
			<g>
				<path class="st4" d="M24.07,42.11c-0.31-0.1-0.55-0.23-0.67-0.39l1.48-0.98c0.09,0,0.17-0.01,0.25-0.01
					c0.3,0,0.6,0.03,0.87,0.09L24.07,42.11z"/>
			</g>
			<g>
				<path class="st4" d="M24.88,42.24c-0.15-0.01-0.29-0.03-0.43-0.05l1.92-1.26c0.11,0.04,0.21,0.09,0.29,0.14L24.88,42.24z"/>
			</g>
		</g>
		<g>
			<g>
				<path class="st1" d="M23.28,41.41c0,0.43,0.82,0.78,1.84,0.78c1.02,0,1.84-0.35,1.84-0.78c0-0.43-0.82-0.78-1.84-0.78
					C24.1,40.63,23.28,40.97,23.28,41.41z"/>
			</g>
			<g>
				<path class="st2" d="M23.28,40.95v0.38c0,0.32,0.46,0.6,1.11,0.72c0.15,0.03,0.32,0.05,0.49,0.06c0.08,0,0.16,0.01,0.24,0.01
					c0.26,0,0.51-0.02,0.73-0.06c0.65-0.12,0.99-0.4,0.99-0.72l0.12-0.41c-0.27-0.29-1.06-0.37-1.84-0.37
					C24.5,40.54,23.61,40.75,23.28,40.95z"/>
			</g>
			<g class="st3">
				<path class="st4" d="M24.39,41.35v0.69c0.15,0.03,0.32,0.05,0.49,0.06v-0.75H24.39z"/>
			</g>
			<g>
				<path class="st5" d="M25.78,42.05v-1.49c0.53,0.04,0.99,0.14,1.18,0.34v0.42C26.96,41.66,26.47,41.94,25.78,42.05z"/>
			</g>
			<g>
				<ellipse class="st6" cx="25.12" cy="40.95" rx="1.84" ry="0.78"/>
			</g>
			<g>
				<path class="st4" d="M24.07,41.56c-0.31-0.1-0.55-0.23-0.67-0.39l1.48-0.98c0.09,0,0.17-0.01,0.25-0.01
					c0.3,0,0.6,0.03,0.87,0.09L24.07,41.56z"/>
			</g>
			<g>
				<path class="st4" d="M24.88,41.7c-0.15-0.01-0.29-0.03-0.43-0.05l1.92-1.26c0.11,0.04,0.21,0.09,0.29,0.14L24.88,41.7z"/>
			</g>
		</g>
		<g>
			<g>
				<path class="st1" d="M23.28,40.86c0,0.43,0.82,0.78,1.84,0.78c1.02,0,1.84-0.35,1.84-0.78c0-0.43-0.82-0.78-1.84-0.78
					C24.1,40.08,23.28,40.43,23.28,40.86z"/>
			</g>
			<g>
				<path class="st2" d="M23.28,40.41v0.38c0,0.32,0.46,0.6,1.11,0.72c0.15,0.03,0.32,0.05,0.49,0.06c0.08,0,0.16,0.01,0.24,0.01
					c0.26,0,0.51-0.02,0.73-0.06c0.65-0.12,0.99-0.4,0.99-0.72l0.12-0.41C26.7,40.08,25.91,40,25.12,40
					C24.5,40,23.61,40.21,23.28,40.41z"/>
			</g>
			<g class="st3">
				<path class="st4" d="M24.39,40.81v0.69c0.15,0.03,0.32,0.05,0.49,0.06v-0.75H24.39z"/>
			</g>
			<g>
				<path class="st5" d="M25.78,41.51v-1.49c0.53,0.04,0.99,0.14,1.18,0.34v0.42C26.96,41.12,26.47,41.4,25.78,41.51z"/>
			</g>
			<g>
				<ellipse class="st6" cx="25.12" cy="40.41" rx="1.84" ry="0.78"/>
			</g>
			<g>
				<path class="st4" d="M24.07,41.02c-0.31-0.1-0.55-0.23-0.67-0.39l1.48-0.98c0.09,0,0.17-0.01,0.25-0.01
					c0.3,0,0.6,0.03,0.87,0.09L24.07,41.02z"/>
			</g>
			<g>
				<path class="st4" d="M24.88,41.16c-0.15-0.01-0.29-0.03-0.43-0.05l1.92-1.26c0.11,0.04,0.21,0.09,0.29,0.14L24.88,41.16z"/>
			</g>
		</g>
		<g>
			<g>
				<path class="st1" d="M23.28,40.32c0,0.43,0.82,0.78,1.84,0.78c1.02,0,1.84-0.35,1.84-0.78c0-0.43-0.82-0.78-1.84-0.78
					C24.1,39.54,23.28,39.89,23.28,40.32z"/>
			</g>
			<g>
				<path class="st2" d="M23.28,39.87v0.38c0,0.32,0.46,0.6,1.11,0.72c0.15,0.03,0.32,0.05,0.49,0.06c0.08,0,0.16,0.01,0.24,0.01
					c0.26,0,0.51-0.02,0.73-0.06c0.65-0.12,0.99-0.4,0.99-0.72l0.12-0.41c-0.27-0.29-1.06-0.37-1.84-0.37
					C24.5,39.46,23.61,39.67,23.28,39.87z"/>
			</g>
			<g class="st3">
				<path class="st4" d="M24.39,40.27v0.69c0.15,0.03,0.32,0.05,0.49,0.06v-0.75H24.39z"/>
			</g>
			<g>
				<path class="st5" d="M25.78,40.97v-1.49c0.53,0.04,0.99,0.14,1.18,0.34v0.42C26.96,40.57,26.47,40.86,25.78,40.97z"/>
			</g>
			<g>
				<ellipse class="st6" cx="25.12" cy="39.87" rx="1.84" ry="0.78"/>
			</g>
			<g>
				<path class="st4" d="M24.07,40.48c-0.31-0.1-0.55-0.23-0.67-0.39l1.48-0.98c0.09,0,0.17-0.01,0.25-0.01
					c0.3,0,0.6,0.03,0.87,0.09L24.07,40.48z"/>
			</g>
			<g>
				<path class="st4" d="M24.88,40.62c-0.15-0.01-0.29-0.03-0.43-0.05l1.92-1.26c0.11,0.04,0.21,0.09,0.29,0.14L24.88,40.62z"/>
			</g>
		</g>
		<g>
			<g>
				<path class="st1" d="M23.28,39.78c0,0.43,0.82,0.78,1.84,0.78c1.02,0,1.84-0.35,1.84-0.78c0-0.43-0.82-0.78-1.84-0.78
					C24.1,39,23.28,39.35,23.28,39.78z"/>
			</g>
			<g>
				<path class="st2" d="M23.28,39.32v0.38c0,0.32,0.46,0.6,1.11,0.72c0.15,0.03,0.32,0.05,0.49,0.06c0.08,0,0.16,0.01,0.24,0.01
					c0.26,0,0.51-0.02,0.73-0.06c0.65-0.12,0.99-0.4,0.99-0.72l0.12-0.41c-0.27-0.29-1.06-0.37-1.84-0.37
					C24.5,38.92,23.61,39.12,23.28,39.32z"/>
			</g>
			<g class="st3">
				<path class="st4" d="M24.39,39.73v0.69c0.15,0.03,0.32,0.05,0.49,0.06v-0.75H24.39z"/>
			</g>
			<g>
				<path class="st5" d="M25.78,40.43v-1.49c0.53,0.04,0.99,0.14,1.18,0.34v0.42C26.96,40.03,26.47,40.32,25.78,40.43z"/>
			</g>
			<g>
				<ellipse class="st6" cx="25.12" cy="39.33" rx="1.84" ry="0.78"/>
			</g>
			<g>
				<path class="st4" d="M24.07,39.94c-0.31-0.1-0.55-0.23-0.67-0.39l1.48-0.98c0.09,0,0.17-0.01,0.25-0.01
					c0.3,0,0.6,0.03,0.87,0.09L24.07,39.94z"/>
			</g>
			<g>
				<path class="st4" d="M24.88,40.08c-0.15-0.01-0.29-0.03-0.43-0.05l1.92-1.26c0.11,0.04,0.21,0.09,0.29,0.14L24.88,40.08z"/>
			</g>
		</g>
		<g>
			<g>
				<path class="st1" d="M23.28,39.24c0,0.43,0.82,0.78,1.84,0.78c1.02,0,1.84-0.35,1.84-0.78c0-0.43-0.82-0.78-1.84-0.78
					C24.1,38.46,23.28,38.81,23.28,39.24z"/>
			</g>
			<g>
				<path class="st2" d="M23.28,38.78v0.38c0,0.32,0.46,0.6,1.11,0.72c0.15,0.03,0.32,0.05,0.49,0.06c0.08,0,0.16,0.01,0.24,0.01
					c0.26,0,0.51-0.02,0.73-0.06c0.65-0.12,0.99-0.4,0.99-0.72l0.12-0.41c-0.27-0.29-1.06-0.37-1.84-0.37
					C24.5,38.38,23.61,38.58,23.28,38.78z"/>
			</g>
			<g class="st3">
				<path class="st4" d="M24.39,39.19v0.69c0.15,0.03,0.32,0.05,0.49,0.06v-0.75H24.39z"/>
			</g>
			<g>
				<path class="st5" d="M25.78,39.89V38.4c0.53,0.04,0.99,0.14,1.18,0.34v0.42C26.96,39.49,26.47,39.78,25.78,39.89z"/>
			</g>
			<g>
				<ellipse class="st6" cx="25.12" cy="38.78" rx="1.84" ry="0.78"/>
			</g>
			<g>
				<path class="st4" d="M24.07,39.4c-0.31-0.1-0.55-0.23-0.67-0.39l1.48-0.98c0.09,0,0.17-0.01,0.25-0.01c0.3,0,0.6,0.03,0.87,0.09
					L24.07,39.4z"/>
			</g>
			<g>
				<path class="st4" d="M24.88,39.53c-0.15-0.01-0.29-0.03-0.43-0.05l1.92-1.26c0.11,0.04,0.21,0.09,0.29,0.14L24.88,39.53z"/>
			</g>
		</g>
		<g>
			<g>
				<path class="st1" d="M23.28,38.7c0,0.43,0.82,0.78,1.84,0.78c1.02,0,1.84-0.35,1.84-0.78c0-0.43-0.82-0.78-1.84-0.78
					C24.1,37.92,23.28,38.27,23.28,38.7z"/>
			</g>
			<g>
				<path class="st2" d="M23.28,38.24v0.38c0,0.32,0.46,0.6,1.11,0.72c0.15,0.03,0.32,0.05,0.49,0.06c0.08,0,0.16,0.01,0.24,0.01
					c0.26,0,0.51-0.02,0.73-0.06c0.65-0.12,0.99-0.4,0.99-0.72l0.12-0.41c-0.27-0.29-1.06-0.37-1.84-0.37
					C24.5,37.84,23.61,38.04,23.28,38.24z"/>
			</g>
			<g class="st3">
				<path class="st4" d="M24.39,38.64v0.69c0.15,0.03,0.32,0.05,0.49,0.06v-0.75H24.39z"/>
			</g>
			<g>
				<path class="st5" d="M25.78,39.35v-1.49c0.53,0.04,0.99,0.14,1.18,0.34v0.42C26.96,38.95,26.47,39.23,25.78,39.35z"/>
			</g>
			<g>
				<ellipse class="st6" cx="25.12" cy="38.24" rx="1.84" ry="0.78"/>
			</g>
			<g>
				<path class="st4" d="M24.07,38.85c-0.31-0.1-0.55-0.23-0.67-0.39l1.48-0.98c0.09,0,0.17-0.01,0.25-0.01
					c0.3,0,0.6,0.03,0.87,0.09L24.07,38.85z"/>
			</g>
			<g>
				<path class="st4" d="M24.88,38.99c-0.15-0.01-0.29-0.03-0.43-0.05l1.92-1.26c0.11,0.04,0.21,0.09,0.29,0.14L24.88,38.99z"/>
			</g>
		</g>
		<g>
			<g>
				<path class="st1" d="M23.28,38.16c0,0.43,0.82,0.78,1.84,0.78c1.02,0,1.84-0.35,1.84-0.78c0-0.43-0.82-0.78-1.84-0.78
					C24.1,37.37,23.28,37.72,23.28,38.16z"/>
			</g>
			<g>
				<path class="st2" d="M23.28,37.7v0.38c0,0.32,0.46,0.6,1.11,0.72c0.15,0.03,0.32,0.05,0.49,0.06c0.08,0,0.16,0.01,0.24,0.01
					c0.26,0,0.51-0.02,0.73-0.06c0.65-0.12,0.99-0.4,0.99-0.72l0.12-0.41c-0.27-0.29-1.06-0.37-1.84-0.37
					C24.5,37.29,23.61,37.5,23.28,37.7z"/>
			</g>
			<g class="st3">
				<path class="st4" d="M24.39,38.1v0.69c0.15,0.03,0.32,0.05,0.49,0.06V38.1H24.39z"/>
			</g>
			<g>
				<path class="st5" d="M25.78,38.8v-1.49c0.53,0.04,0.99,0.14,1.18,0.34v0.42C26.96,38.41,26.47,38.69,25.78,38.8z"/>
			</g>
			<g>
				<ellipse class="st6" cx="25.12" cy="37.7" rx="1.84" ry="0.78"/>
			</g>
			<g>
				<path class="st4" d="M24.07,38.31c-0.31-0.1-0.55-0.23-0.67-0.39l1.48-0.98c0.09,0,0.17-0.01,0.25-0.01
					c0.3,0,0.6,0.03,0.87,0.09L24.07,38.31z"/>
			</g>
			<g>
				<path class="st4" d="M24.88,38.45c-0.15-0.01-0.29-0.03-0.43-0.05l1.92-1.26c0.11,0.04,0.21,0.09,0.29,0.14L24.88,38.45z"/>
			</g>
		</g>
		<g>
			<g>
				<path class="st1" d="M23.28,37.61c0,0.43,0.82,0.78,1.84,0.78c1.02,0,1.84-0.35,1.84-0.78c0-0.43-0.82-0.78-1.84-0.78
					C24.1,36.83,23.28,37.18,23.28,37.61z"/>
			</g>
			<g>
				<path class="st2" d="M23.28,37.16v0.38c0,0.32,0.46,0.6,1.11,0.72c0.15,0.03,0.32,0.05,0.49,0.06c0.08,0,0.16,0.01,0.24,0.01
					c0.26,0,0.51-0.02,0.73-0.06c0.65-0.12,0.99-0.4,0.99-0.72l0.12-0.41c-0.27-0.29-1.06-0.37-1.84-0.37
					C24.5,36.75,23.61,36.96,23.28,37.16z"/>
			</g>
			<g class="st3">
				<path class="st4" d="M24.39,37.56v0.69c0.15,0.03,0.32,0.05,0.49,0.06v-0.75H24.39z"/>
			</g>
			<g>
				<path class="st5" d="M25.78,38.26v-1.49c0.53,0.04,0.99,0.14,1.18,0.34v0.42C26.96,37.87,26.47,38.15,25.78,38.26z"/>
			</g>
			<g>
				<ellipse class="st6" cx="25.12" cy="37.16" rx="1.84" ry="0.78"/>
			</g>
			<g>
				<path class="st4" d="M24.07,37.77c-0.31-0.1-0.55-0.23-0.67-0.39l1.48-0.98c0.09,0,0.17-0.01,0.25-0.01
					c0.3,0,0.6,0.03,0.87,0.09L24.07,37.77z"/>
			</g>
			<g>
				<path class="st4" d="M24.88,37.91c-0.15-0.01-0.29-0.03-0.43-0.05l1.92-1.26c0.11,0.04,0.21,0.09,0.29,0.14L24.88,37.91z"/>
			</g>
		</g>
		<g>
			<g>
				<path class="st1" d="M23.28,37.07c0,0.43,0.82,0.78,1.84,0.78c1.02,0,1.84-0.35,1.84-0.78c0-0.43-0.82-0.78-1.84-0.78
					C24.1,36.29,23.28,36.64,23.28,37.07z"/>
			</g>
			<g>
				<path class="st2" d="M23.28,36.62v0.38c0,0.32,0.46,0.6,1.11,0.72c0.15,0.03,0.32,0.05,0.49,0.06c0.08,0,0.16,0.01,0.24,0.01
					c0.26,0,0.51-0.02,0.73-0.06c0.65-0.12,0.99-0.4,0.99-0.72l0.12-0.41c-0.27-0.29-1.06-0.37-1.84-0.37
					C24.5,36.21,23.61,36.41,23.28,36.62z"/>
			</g>
			<g class="st3">
				<path class="st4" d="M24.39,37.02v0.69c0.15,0.03,0.32,0.05,0.49,0.06v-0.75H24.39z"/>
			</g>
			<g>
				<path class="st5" d="M25.78,37.72v-1.49c0.53,0.04,0.99,0.14,1.18,0.34v0.42C26.96,37.32,26.47,37.61,25.78,37.72z"/>
			</g>
			<g>
				<ellipse class="st6" cx="25.12" cy="36.62" rx="1.84" ry="0.78"/>
			</g>
			<g>
				<path class="st4" d="M24.07,37.23c-0.31-0.1-0.55-0.23-0.67-0.39l1.48-0.98c0.09,0,0.17-0.01,0.25-0.01
					c0.3,0,0.6,0.03,0.87,0.09L24.07,37.23z"/>
			</g>
			<g>
				<path class="st4" d="M24.88,37.37c-0.15-0.01-0.29-0.03-0.43-0.05l1.92-1.26c0.11,0.04,0.21,0.09,0.29,0.14L24.88,37.37z"/>
			</g>
		</g>
		<g>
			<g>
				<path class="st1" d="M23.28,36.53c0,0.43,0.82,0.78,1.84,0.78c1.02,0,1.84-0.35,1.84-0.78c0-0.43-0.82-0.78-1.84-0.78
					C24.1,35.75,23.28,36.1,23.28,36.53z"/>
			</g>
			<g>
				<path class="st2" d="M23.28,36.07v0.38c0,0.32,0.46,0.6,1.11,0.72c0.15,0.03,0.32,0.05,0.49,0.06c0.08,0,0.16,0.01,0.24,0.01
					c0.26,0,0.51-0.02,0.73-0.06c0.65-0.12,0.99-0.4,0.99-0.72l0.12-0.41c-0.27-0.29-1.06-0.37-1.84-0.37
					C24.5,35.67,23.61,35.87,23.28,36.07z"/>
			</g>
			<g class="st3">
				<path class="st4" d="M24.39,36.48v0.69c0.15,0.03,0.32,0.05,0.49,0.06v-0.75H24.39z"/>
			</g>
			<g>
				<path class="st5" d="M25.78,37.18v-1.49c0.53,0.04,0.99,0.14,1.18,0.34v0.42C26.96,36.78,26.47,37.07,25.78,37.18z"/>
			</g>
			<g>
				<ellipse class="st6" cx="25.12" cy="36.07" rx="1.84" ry="0.78"/>
			</g>
			<g>
				<path class="st4" d="M24.07,36.69c-0.31-0.1-0.55-0.23-0.67-0.39l1.48-0.98c0.09,0,0.17-0.01,0.25-0.01
					c0.3,0,0.6,0.03,0.87,0.09L24.07,36.69z"/>
			</g>
			<g>
				<path class="st4" d="M24.88,36.83c-0.15-0.01-0.29-0.03-0.43-0.05l1.92-1.26c0.11,0.04,0.21,0.09,0.29,0.14L24.88,36.83z"/>
			</g>
		</g>
		<g>
			<g>
				<path class="st1" d="M23.28,35.99c0,0.43,0.82,0.78,1.84,0.78c1.02,0,1.84-0.35,1.84-0.78c0-0.43-0.82-0.78-1.84-0.78
					C24.1,35.21,23.28,35.56,23.28,35.99z"/>
			</g>
			<g>
				<path class="st2" d="M23.28,35.53v0.38c0,0.32,0.46,0.6,1.11,0.72c0.15,0.03,0.32,0.05,0.49,0.06c0.08,0,0.16,0.01,0.24,0.01
					c0.26,0,0.51-0.02,0.73-0.06c0.65-0.12,0.99-0.4,0.99-0.72l0.12-0.41c-0.27-0.29-1.06-0.37-1.84-0.37
					C24.5,35.13,23.61,35.33,23.28,35.53z"/>
			</g>
			<g class="st3">
				<path class="st4" d="M24.39,35.93v0.69c0.15,0.03,0.32,0.05,0.49,0.06v-0.75H24.39z"/>
			</g>
			<g>
				<path class="st5" d="M25.78,36.64v-1.49c0.53,0.04,0.99,0.14,1.18,0.34v0.42C26.96,36.24,26.47,36.52,25.78,36.64z"/>
			</g>
			<g>
				<ellipse class="st6" cx="25.12" cy="35.53" rx="1.84" ry="0.78"/>
			</g>
			<g>
				<path class="st4" d="M24.07,36.14c-0.31-0.1-0.55-0.23-0.67-0.39l1.48-0.98c0.09,0,0.17-0.01,0.25-0.01
					c0.3,0,0.6,0.03,0.87,0.09L24.07,36.14z"/>
			</g>
			<g>
				<path class="st4" d="M24.88,36.28c-0.15-0.01-0.29-0.03-0.43-0.05l1.92-1.26c0.11,0.04,0.21,0.09,0.29,0.14L24.88,36.28z"/>
			</g>
		</g>
	</g>
	<g>
		<g>
			<g>
				<ellipse class="st1" cx="28.54" cy="41.92" rx="1.84" ry="0.78"/>
			</g>
			<g>
				<path class="st2" d="M26.7,41.47v0.38c0,0.32,0.46,0.6,1.11,0.72c0.15,0.03,0.32,0.05,0.49,0.06c0.08,0,0.16,0.01,0.24,0.01
					c0.26,0,0.51-0.02,0.73-0.06c0.65-0.12,0.99-0.4,0.99-0.72l0.12-0.41c-0.27-0.29-1.06-0.37-1.84-0.37
					C27.92,41.06,27.03,41.27,26.7,41.47z"/>
			</g>
			<g class="st3">
				<path class="st4" d="M27.8,41.87v0.69c0.15,0.03,0.32,0.05,0.49,0.06v-0.75H27.8z"/>
			</g>
			<g>
				<path class="st5" d="M29.2,42.57v-1.49c0.53,0.04,0.99,0.14,1.18,0.34v0.42C30.38,42.17,29.89,42.46,29.2,42.57z"/>
			</g>
			<g>
				<ellipse class="st6" cx="28.54" cy="41.47" rx="1.84" ry="0.78"/>
			</g>
			<g>
				<path class="st4" d="M27.49,42.08c-0.31-0.1-0.55-0.23-0.67-0.39l1.48-0.98c0.08,0,0.17-0.01,0.25-0.01
					c0.3,0,0.6,0.03,0.87,0.09L27.49,42.08z"/>
			</g>
			<g>
				<path class="st4" d="M28.3,42.22c-0.15-0.01-0.29-0.03-0.43-0.05l1.92-1.26C29.9,40.95,30,41,30.08,41.05L28.3,42.22z"/>
			</g>
		</g>
		<g>
			<g>
				<ellipse class="st1" cx="28.54" cy="41.38" rx="1.84" ry="0.78"/>
			</g>
			<g>
				<path class="st2" d="M26.7,40.92v0.38c0,0.32,0.46,0.6,1.11,0.72c0.15,0.03,0.32,0.05,0.49,0.06c0.08,0,0.16,0.01,0.24,0.01
					c0.26,0,0.51-0.02,0.73-0.06c0.65-0.12,0.99-0.4,0.99-0.72l0.12-0.41c-0.27-0.29-1.06-0.37-1.84-0.37
					C27.92,40.52,27.03,40.72,26.7,40.92z"/>
			</g>
			<g class="st3">
				<path class="st4" d="M27.8,41.33v0.69c0.15,0.03,0.32,0.05,0.49,0.06v-0.75H27.8z"/>
			</g>
			<g>
				<path class="st5" d="M29.2,42.03v-1.49c0.53,0.04,0.99,0.14,1.18,0.34v0.42C30.38,41.63,29.89,41.92,29.2,42.03z"/>
			</g>
			<g>
				<ellipse class="st6" cx="28.54" cy="40.92" rx="1.84" ry="0.78"/>
			</g>
			<g>
				<path class="st4" d="M27.49,41.54c-0.31-0.1-0.55-0.23-0.67-0.39l1.48-0.98c0.08,0,0.17-0.01,0.25-0.01
					c0.3,0,0.6,0.03,0.87,0.09L27.49,41.54z"/>
			</g>
			<g>
				<path class="st4" d="M28.3,41.68c-0.15-0.01-0.29-0.03-0.43-0.05l1.92-1.26c0.11,0.04,0.21,0.09,0.29,0.14L28.3,41.68z"/>
			</g>
		</g>
		<g>
			<g>
				<ellipse class="st1" cx="28.54" cy="40.84" rx="1.84" ry="0.78"/>
			</g>
			<g>
				<path class="st2" d="M26.7,40.38v0.38c0,0.32,0.46,0.6,1.11,0.72c0.15,0.03,0.32,0.05,0.49,0.06c0.08,0,0.16,0.01,0.24,0.01
					c0.26,0,0.51-0.02,0.73-0.06c0.65-0.12,0.99-0.4,0.99-0.72l0.12-0.41c-0.27-0.29-1.06-0.37-1.84-0.37
					C27.92,39.98,27.03,40.18,26.7,40.38z"/>
			</g>
			<g class="st3">
				<path class="st4" d="M27.8,40.79v0.69c0.15,0.03,0.32,0.05,0.49,0.06v-0.75H27.8z"/>
			</g>
			<g>
				<path class="st5" d="M29.2,41.49V40c0.53,0.04,0.99,0.14,1.18,0.34v0.42C30.38,41.09,29.89,41.37,29.2,41.49z"/>
			</g>
			<g>
				<ellipse class="st6" cx="28.54" cy="40.38" rx="1.84" ry="0.78"/>
			</g>
			<g>
				<path class="st4" d="M27.49,41c-0.31-0.1-0.55-0.23-0.67-0.39l1.48-0.98c0.08,0,0.17-0.01,0.25-0.01c0.3,0,0.6,0.03,0.87,0.09
					L27.49,41z"/>
			</g>
			<g>
				<path class="st4" d="M28.3,41.13c-0.15-0.01-0.29-0.03-0.43-0.05l1.92-1.26c0.11,0.04,0.21,0.09,0.29,0.14L28.3,41.13z"/>
			</g>
		</g>
		<g>
			<g>
				<ellipse class="st1" cx="28.54" cy="40.3" rx="1.84" ry="0.78"/>
			</g>
			<g>
				<path class="st2" d="M26.7,39.84v0.38c0,0.32,0.46,0.6,1.11,0.72c0.15,0.03,0.32,0.05,0.49,0.06c0.08,0,0.16,0.01,0.24,0.01
					c0.26,0,0.51-0.02,0.73-0.06c0.65-0.12,0.99-0.4,0.99-0.72l0.12-0.41c-0.27-0.29-1.06-0.37-1.84-0.37
					C27.92,39.43,27.03,39.64,26.7,39.84z"/>
			</g>
			<g class="st3">
				<path class="st4" d="M27.8,40.24v0.69c0.15,0.03,0.32,0.05,0.49,0.06v-0.75H27.8z"/>
			</g>
			<g>
				<path class="st5" d="M29.2,40.94v-1.49c0.53,0.04,0.99,0.14,1.18,0.34v0.42C30.38,40.55,29.89,40.83,29.2,40.94z"/>
			</g>
			<g>
				<ellipse class="st6" cx="28.54" cy="39.84" rx="1.84" ry="0.78"/>
			</g>
			<g>
				<path class="st4" d="M27.49,40.45c-0.31-0.1-0.55-0.23-0.67-0.39l1.48-0.98c0.08,0,0.17-0.01,0.25-0.01
					c0.3,0,0.6,0.03,0.87,0.09L27.49,40.45z"/>
			</g>
			<g>
				<path class="st4" d="M28.3,40.59c-0.15-0.01-0.29-0.03-0.43-0.05l1.92-1.26c0.11,0.04,0.21,0.09,0.29,0.14L28.3,40.59z"/>
			</g>
		</g>
		<g>
			<g>
				<ellipse class="st1" cx="28.54" cy="39.75" rx="1.84" ry="0.78"/>
			</g>
			<g>
				<path class="st2" d="M26.7,39.3v0.38c0,0.32,0.46,0.6,1.11,0.72c0.15,0.03,0.32,0.05,0.49,0.06c0.08,0,0.16,0.01,0.24,0.01
					c0.26,0,0.51-0.02,0.73-0.06c0.65-0.12,0.99-0.4,0.99-0.72l0.12-0.41c-0.27-0.29-1.06-0.37-1.84-0.37
					C27.92,38.89,27.03,39.1,26.7,39.3z"/>
			</g>
			<g class="st3">
				<path class="st4" d="M27.8,39.7v0.69c0.15,0.03,0.32,0.05,0.49,0.06V39.7H27.8z"/>
			</g>
			<g>
				<path class="st5" d="M29.2,40.4v-1.49c0.53,0.04,0.99,0.14,1.18,0.34v0.42C30.38,40.01,29.89,40.29,29.2,40.4z"/>
			</g>
			<g>
				<ellipse class="st6" cx="28.54" cy="39.3" rx="1.84" ry="0.78"/>
			</g>
			<g>
				<path class="st4" d="M27.49,39.91c-0.31-0.1-0.55-0.23-0.67-0.39l1.48-0.98c0.08,0,0.17-0.01,0.25-0.01
					c0.3,0,0.6,0.03,0.87,0.09L27.49,39.91z"/>
			</g>
			<g>
				<path class="st4" d="M28.3,40.05c-0.15-0.01-0.29-0.03-0.43-0.05l1.92-1.26c0.11,0.04,0.21,0.09,0.29,0.14L28.3,40.05z"/>
			</g>
		</g>
		<g>
			<g>
				<ellipse class="st1" cx="28.54" cy="39.21" rx="1.84" ry="0.78"/>
			</g>
			<g>
				<path class="st2" d="M26.7,38.76v0.38c0,0.32,0.46,0.6,1.11,0.72c0.15,0.03,0.32,0.05,0.49,0.06c0.08,0,0.16,0.01,0.24,0.01
					c0.26,0,0.51-0.02,0.73-0.06c0.65-0.12,0.99-0.4,0.99-0.72l0.12-0.41c-0.27-0.29-1.06-0.37-1.84-0.37
					C27.92,38.35,27.03,38.56,26.7,38.76z"/>
			</g>
			<g class="st3">
				<path class="st4" d="M27.8,39.16v0.69c0.15,0.03,0.32,0.05,0.49,0.06v-0.75H27.8z"/>
			</g>
			<g>
				<path class="st5" d="M29.2,39.86v-1.49c0.53,0.04,0.99,0.14,1.18,0.34v0.42C30.38,39.46,29.89,39.75,29.2,39.86z"/>
			</g>
			<g>
				<ellipse class="st6" cx="28.54" cy="38.76" rx="1.84" ry="0.78"/>
			</g>
			<g>
				<path class="st4" d="M27.49,39.37c-0.31-0.1-0.55-0.23-0.67-0.39l1.48-0.98c0.08,0,0.17-0.01,0.25-0.01
					c0.3,0,0.6,0.03,0.87,0.09L27.49,39.37z"/>
			</g>
			<g>
				<path class="st4" d="M28.3,39.51c-0.15-0.01-0.29-0.03-0.43-0.05l1.92-1.26c0.11,0.04,0.21,0.09,0.29,0.14L28.3,39.51z"/>
			</g>
		</g>
		<g>
			<g>
				<ellipse class="st1" cx="28.54" cy="38.67" rx="1.84" ry="0.78"/>
			</g>
			<g>
				<path class="st2" d="M26.7,38.21v0.38c0,0.32,0.46,0.6,1.11,0.72c0.15,0.03,0.32,0.05,0.49,0.06c0.08,0,0.16,0.01,0.24,0.01
					c0.26,0,0.51-0.02,0.73-0.06c0.65-0.12,0.99-0.4,0.99-0.72l0.12-0.41c-0.27-0.29-1.06-0.37-1.84-0.37
					C27.92,37.81,27.03,38.01,26.7,38.21z"/>
			</g>
			<g class="st3">
				<path class="st4" d="M27.8,38.62v0.69c0.15,0.03,0.32,0.05,0.49,0.06v-0.75H27.8z"/>
			</g>
			<g>
				<path class="st5" d="M29.2,39.32v-1.49c0.53,0.04,0.99,0.14,1.18,0.34v0.42C30.38,38.92,29.89,39.21,29.2,39.32z"/>
			</g>
			<g>
				<ellipse class="st6" cx="28.54" cy="38.22" rx="1.84" ry="0.78"/>
			</g>
			<g>
				<path class="st4" d="M27.49,38.83c-0.31-0.1-0.55-0.23-0.67-0.39l1.48-0.98c0.08,0,0.17-0.01,0.25-0.01
					c0.3,0,0.6,0.03,0.87,0.09L27.49,38.83z"/>
			</g>
			<g>
				<path class="st4" d="M28.3,38.97c-0.15-0.01-0.29-0.03-0.43-0.05l1.92-1.26c0.11,0.04,0.21,0.09,0.29,0.14L28.3,38.97z"/>
			</g>
		</g>
		<g>
			<g>
				<ellipse class="st1" cx="28.54" cy="38.13" rx="1.84" ry="0.78"/>
			</g>
			<g>
				<path class="st2" d="M26.7,37.67v0.38c0,0.32,0.46,0.6,1.11,0.72c0.15,0.03,0.32,0.05,0.49,0.06c0.08,0,0.16,0.01,0.24,0.01
					c0.26,0,0.51-0.02,0.73-0.06c0.65-0.12,0.99-0.4,0.99-0.72l0.12-0.41c-0.27-0.29-1.06-0.37-1.84-0.37
					C27.92,37.27,27.03,37.47,26.7,37.67z"/>
			</g>
			<g class="st3">
				<path class="st4" d="M27.8,38.08v0.69c0.15,0.03,0.32,0.05,0.49,0.06v-0.75H27.8z"/>
			</g>
			<g>
				<path class="st5" d="M29.2,38.78v-1.49c0.53,0.04,0.99,0.14,1.18,0.34v0.42C30.38,38.38,29.89,38.67,29.2,38.78z"/>
			</g>
			<g>
				<ellipse class="st6" cx="28.54" cy="37.67" rx="1.84" ry="0.78"/>
			</g>
			<g>
				<path class="st4" d="M27.49,38.29c-0.31-0.1-0.55-0.23-0.67-0.39l1.48-0.98c0.08,0,0.17-0.01,0.25-0.01
					c0.3,0,0.6,0.03,0.87,0.09L27.49,38.29z"/>
			</g>
			<g>
				<path class="st4" d="M28.3,38.42c-0.15-0.01-0.29-0.03-0.43-0.05l1.92-1.26c0.11,0.04,0.21,0.09,0.29,0.14L28.3,38.42z"/>
			</g>
		</g>
		<g>
			<g>
				<ellipse class="st1" cx="28.54" cy="37.59" rx="1.84" ry="0.78"/>
			</g>
			<g>
				<path class="st2" d="M26.7,37.13v0.38c0,0.32,0.46,0.6,1.11,0.72c0.15,0.03,0.32,0.05,0.49,0.06c0.08,0,0.16,0.01,0.24,0.01
					c0.26,0,0.51-0.02,0.73-0.06c0.65-0.12,0.99-0.4,0.99-0.72l0.12-0.41c-0.27-0.29-1.06-0.37-1.84-0.37
					C27.92,36.73,27.03,36.93,26.7,37.13z"/>
			</g>
			<g class="st3">
				<path class="st4" d="M27.8,37.53v0.69c0.15,0.03,0.32,0.05,0.49,0.06v-0.75H27.8z"/>
			</g>
			<g>
				<path class="st5" d="M29.2,38.24v-1.49c0.53,0.04,0.99,0.14,1.18,0.34v0.42C30.38,37.84,29.89,38.12,29.2,38.24z"/>
			</g>
			<g>
				<ellipse class="st6" cx="28.54" cy="37.13" rx="1.84" ry="0.78"/>
			</g>
			<g>
				<path class="st4" d="M27.49,37.74c-0.31-0.1-0.55-0.23-0.67-0.39l1.48-0.98c0.08,0,0.17-0.01,0.25-0.01
					c0.3,0,0.6,0.03,0.87,0.09L27.49,37.74z"/>
			</g>
			<g>
				<path class="st4" d="M28.3,37.88c-0.15-0.01-0.29-0.03-0.43-0.05l1.92-1.26c0.11,0.04,0.21,0.09,0.29,0.14L28.3,37.88z"/>
			</g>
		</g>
		<g>
			<g>
				<ellipse class="st1" cx="28.54" cy="37.05" rx="1.84" ry="0.78"/>
			</g>
			<g>
				<path class="st2" d="M26.7,36.59v0.38c0,0.32,0.46,0.6,1.11,0.72c0.15,0.03,0.32,0.05,0.49,0.06c0.08,0,0.16,0.01,0.24,0.01
					c0.26,0,0.51-0.02,0.73-0.06c0.65-0.12,0.99-0.4,0.99-0.72l0.12-0.41c-0.27-0.29-1.06-0.37-1.84-0.37
					C27.92,36.18,27.03,36.39,26.7,36.59z"/>
			</g>
			<g class="st3">
				<path class="st4" d="M27.8,36.99v0.69c0.15,0.03,0.32,0.05,0.49,0.06v-0.75H27.8z"/>
			</g>
			<g>
				<path class="st5" d="M29.2,37.69V36.2c0.53,0.04,0.99,0.14,1.18,0.34v0.42C30.38,37.3,29.89,37.58,29.2,37.69z"/>
			</g>
			<g>
				<ellipse class="st6" cx="28.54" cy="36.59" rx="1.84" ry="0.78"/>
			</g>
			<g>
				<path class="st4" d="M27.49,37.2c-0.31-0.1-0.55-0.23-0.67-0.39l1.48-0.98c0.08,0,0.17-0.01,0.25-0.01c0.3,0,0.6,0.03,0.87,0.09
					L27.49,37.2z"/>
			</g>
			<g>
				<path class="st4" d="M28.3,37.34c-0.15-0.01-0.29-0.03-0.43-0.05l1.92-1.26c0.11,0.04,0.21,0.09,0.29,0.14L28.3,37.34z"/>
			</g>
		</g>
		<g>
			<g>
				<ellipse class="st1" cx="28.54" cy="36.5" rx="1.84" ry="0.78"/>
			</g>
			<g>
				<path class="st2" d="M26.7,36.05v0.38c0,0.32,0.46,0.6,1.11,0.72c0.15,0.03,0.32,0.05,0.49,0.06c0.08,0,0.16,0.01,0.24,0.01
					c0.26,0,0.51-0.02,0.73-0.06c0.65-0.12,0.99-0.4,0.99-0.72l0.12-0.41c-0.27-0.29-1.06-0.37-1.84-0.37
					C27.92,35.64,27.03,35.85,26.7,36.05z"/>
			</g>
			<g class="st3">
				<path class="st4" d="M27.8,36.45v0.69c0.15,0.03,0.32,0.05,0.49,0.06v-0.75H27.8z"/>
			</g>
			<g>
				<path class="st5" d="M29.2,37.15v-1.49c0.53,0.04,0.99,0.14,1.18,0.34v0.42C30.38,36.76,29.89,37.04,29.2,37.15z"/>
			</g>
			<g>
				<ellipse class="st6" cx="28.54" cy="36.05" rx="1.84" ry="0.78"/>
			</g>
			<g>
				<path class="st4" d="M27.49,36.66c-0.31-0.1-0.55-0.23-0.67-0.39l1.48-0.98c0.08,0,0.17-0.01,0.25-0.01
					c0.3,0,0.6,0.03,0.87,0.09L27.49,36.66z"/>
			</g>
			<g>
				<path class="st4" d="M28.3,36.8c-0.15-0.01-0.29-0.03-0.43-0.05l1.92-1.26c0.11,0.04,0.21,0.09,0.29,0.14L28.3,36.8z"/>
			</g>
		</g>
		<g>
			<g>
				<ellipse class="st1" cx="28.54" cy="35.96" rx="1.84" ry="0.78"/>
			</g>
			<g>
				<path class="st2" d="M26.7,35.51v0.38c0,0.32,0.46,0.6,1.11,0.72c0.15,0.03,0.32,0.05,0.49,0.06c0.08,0,0.16,0.01,0.24,0.01
					c0.26,0,0.51-0.02,0.73-0.06c0.65-0.12,0.99-0.4,0.99-0.72l0.12-0.41c-0.27-0.29-1.06-0.37-1.84-0.37
					C27.92,35.1,27.03,35.31,26.7,35.51z"/>
			</g>
			<g class="st3">
				<path class="st4" d="M27.8,35.91v0.69c0.15,0.03,0.32,0.05,0.49,0.06v-0.75H27.8z"/>
			</g>
			<g>
				<path class="st5" d="M29.2,36.61v-1.49c0.53,0.04,0.99,0.14,1.18,0.34v0.42C30.38,36.21,29.89,36.5,29.2,36.61z"/>
			</g>
			<g>
				<ellipse class="st6" cx="28.54" cy="35.51" rx="1.84" ry="0.78"/>
			</g>
			<g>
				<path class="st4" d="M27.49,36.12c-0.31-0.1-0.55-0.23-0.67-0.39l1.48-0.98c0.08,0,0.17-0.01,0.25-0.01
					c0.3,0,0.6,0.03,0.87,0.09L27.49,36.12z"/>
			</g>
			<g>
				<path class="st4" d="M28.3,36.26c-0.15-0.01-0.29-0.03-0.43-0.05l1.92-1.26c0.11,0.04,0.21,0.09,0.29,0.14L28.3,36.26z"/>
			</g>
		</g>
		<g>
			<g>
				<ellipse class="st1" cx="28.54" cy="35.42" rx="1.84" ry="0.78"/>
			</g>
			<g>
				<path class="st2" d="M26.7,34.96v0.38c0,0.32,0.46,0.6,1.11,0.72c0.15,0.03,0.32,0.05,0.49,0.06c0.08,0,0.16,0.01,0.24,0.01
					c0.26,0,0.51-0.02,0.73-0.06c0.65-0.12,0.99-0.4,0.99-0.72l0.12-0.41c-0.27-0.29-1.06-0.37-1.84-0.37
					C27.92,34.56,27.03,34.76,26.7,34.96z"/>
			</g>
			<g class="st3">
				<path class="st4" d="M27.8,35.37v0.69c0.15,0.03,0.32,0.05,0.49,0.06v-0.75H27.8z"/>
			</g>
			<g>
				<path class="st5" d="M29.2,36.07v-1.49c0.53,0.04,0.99,0.14,1.18,0.34v0.42C30.38,35.67,29.89,35.96,29.2,36.07z"/>
			</g>
			<g>
				<ellipse class="st6" cx="28.54" cy="34.96" rx="1.84" ry="0.78"/>
			</g>
			<g>
				<path class="st4" d="M27.49,35.58c-0.31-0.1-0.55-0.23-0.67-0.39l1.48-0.98c0.08,0,0.17-0.01,0.25-0.01
					c0.3,0,0.6,0.03,0.87,0.09L27.49,35.58z"/>
			</g>
			<g>
				<path class="st4" d="M28.3,35.72c-0.15-0.01-0.29-0.03-0.43-0.05l1.92-1.26c0.11,0.04,0.21,0.09,0.29,0.14L28.3,35.72z"/>
			</g>
		</g>
		<g>
			<g>
				<ellipse class="st1" cx="28.54" cy="34.88" rx="1.84" ry="0.78"/>
			</g>
			<g>
				<path class="st2" d="M26.7,34.42v0.38c0,0.32,0.46,0.6,1.11,0.72c0.15,0.03,0.32,0.05,0.49,0.06c0.08,0,0.16,0.01,0.24,0.01
					c0.26,0,0.51-0.02,0.73-0.06c0.65-0.12,0.99-0.4,0.99-0.72l0.12-0.41c-0.27-0.29-1.06-0.37-1.84-0.37
					C27.92,34.02,27.03,34.22,26.7,34.42z"/>
			</g>
			<g class="st3">
				<path class="st4" d="M27.8,34.82v0.69c0.15,0.03,0.32,0.05,0.49,0.06v-0.75H27.8z"/>
			</g>
			<g>
				<path class="st5" d="M29.2,35.53v-1.49c0.53,0.04,0.99,0.14,1.18,0.34v0.42C30.38,35.13,29.89,35.41,29.2,35.53z"/>
			</g>
			<g>
				<ellipse class="st6" cx="28.54" cy="34.42" rx="1.84" ry="0.78"/>
			</g>
			<g>
				<path class="st4" d="M27.49,35.03c-0.31-0.1-0.55-0.23-0.67-0.39l1.48-0.98c0.08,0,0.17-0.01,0.25-0.01
					c0.3,0,0.6,0.03,0.87,0.09L27.49,35.03z"/>
			</g>
			<g>
				<path class="st4" d="M28.3,35.17c-0.15-0.01-0.29-0.03-0.43-0.05l1.92-1.26C29.9,33.91,30,33.95,30.08,34L28.3,35.17z"/>
			</g>
		</g>
		<g>
			<g>
				<ellipse class="st1" cx="28.54" cy="34.34" rx="1.84" ry="0.78"/>
			</g>
			<g>
				<path class="st2" d="M26.7,33.88v0.38c0,0.32,0.46,0.6,1.11,0.72c0.15,0.03,0.32,0.05,0.49,0.06c0.08,0,0.16,0.01,0.24,0.01
					c0.26,0,0.51-0.02,0.73-0.06c0.65-0.12,0.99-0.4,0.99-0.72l0.12-0.41c-0.27-0.29-1.06-0.37-1.84-0.37
					C27.92,33.47,27.03,33.68,26.7,33.88z"/>
			</g>
			<g class="st3">
				<path class="st4" d="M27.8,34.28v0.69c0.15,0.03,0.32,0.05,0.49,0.06v-0.75H27.8z"/>
			</g>
			<g>
				<path class="st5" d="M29.2,34.98v-1.49c0.53,0.04,0.99,0.14,1.18,0.34v0.42C30.38,34.59,29.89,34.87,29.2,34.98z"/>
			</g>
			<g>
				<ellipse class="st6" cx="28.54" cy="33.88" rx="1.84" ry="0.78"/>
			</g>
			<g>
				<path class="st4" d="M27.49,34.49c-0.31-0.1-0.55-0.23-0.67-0.39l1.48-0.98c0.08,0,0.17-0.01,0.25-0.01
					c0.3,0,0.6,0.03,0.87,0.09L27.49,34.49z"/>
			</g>
			<g>
				<path class="st4" d="M28.3,34.63c-0.15-0.01-0.29-0.03-0.43-0.05l1.92-1.26c0.11,0.04,0.21,0.09,0.29,0.14L28.3,34.63z"/>
			</g>
		</g>
	</g>
	<path class="st7" d="M29.48,37.87l0.91,0.34v4.48l-1.71-0.19l0.23,0.23c0,0-0.44-2.62-0.44-2.75
		C28.47,39.84,29.48,37.87,29.48,37.87z"/>
	<g>
		<g>
			<polygon class="st8" points="27.38,48.45 29.49,45.93 29.49,47.28 27.38,49.79 27.38,49.8 18.45,49.8 18.45,48.45 			"/>
			<polygon class="st9" points="29.49,47.07 29.49,45.73 27.38,48.25 27.38,49.59 			"/>
			<g>
				<polygon class="st10" points="20.59,45.77 18.55,48.2 27.36,48.2 29.39,45.77 				"/>
				<rect x="18.45" y="48.25" class="st11" width="8.92" height="1.35"/>
				<path class="st11" d="M20.58,45.76l-2,2.42h8.81l2-2.42H20.58z M19.71,47.4l0.69-0.84c0.46,0,1.04-0.25,1.29-0.55h6.19
					c-0.25,0.3-0.08,0.54,0.36,0.55l-0.69,0.84c-0.45,0-1.01,0.24-1.26,0.53H20.1C20.33,47.64,20.16,47.4,19.71,47.4z"/>
				<path class="st12" d="M23.21,46.97c-0.23,0.28-0.07,0.51,0.35,0.51s0.96-0.23,1.19-0.51c0.23-0.28,0.07-0.51-0.35-0.51
					S23.44,46.69,23.21,46.97z"/>
				<path class="st13" d="M25.4,46.97c-0.13,0.15-0.04,0.27,0.19,0.27c0.23,0,0.52-0.12,0.64-0.27c0.13-0.15,0.04-0.27-0.19-0.27
					C25.81,46.7,25.52,46.82,25.4,46.97z"/>
				<path class="st13" d="M21.73,46.97c-0.13,0.15-0.04,0.27,0.19,0.27c0.23,0,0.52-0.12,0.64-0.27c0.13-0.15,0.04-0.27-0.19-0.27
					C22.15,46.7,21.86,46.82,21.73,46.97z"/>
				<path class="st14" d="M20.57,45.73h8.92l-2.11,2.52h-8.92L20.57,45.73z M29.29,45.82h-8.68l-1.96,2.33h8.68L29.29,45.82z"/>
				<polygon class="st15" points="24.65,45.73 25.89,45.73 23.78,48.25 23.78,49.6 22.54,49.6 22.54,48.25 				"/>
				<polygon class="st13" points="22.29,48.25 22.29,49.6 23.53,49.6 23.53,48.25 23.53,48.24 25.64,45.73 24.4,45.73 22.29,48.24 
									"/>
				<g>
					<polygon class="st16" points="25.5,45.73 25.75,45.73 23.64,48.25 23.64,49.6 23.39,49.6 23.39,48.25 					"/>
				</g>
				<g>
					<polygon class="st16" points="24.28,45.73 24.53,45.73 22.42,48.25 22.42,49.6 22.17,49.6 22.17,48.25 					"/>
				</g>
				<polygon class="st17" points="22.17,48.25 22.17,49.6 23.64,49.6 23.64,48.25 23.64,48.24 22.4,48.24 				"/>
			</g>
		</g>
		<g>
			<polygon class="st8" points="27.38,46.83 29.49,44.31 29.49,45.65 27.38,48.17 27.38,48.18 18.45,48.18 18.45,46.83 			"/>
			<polygon class="st9" points="29.49,45.44 29.49,44.1 27.38,46.62 27.38,47.96 			"/>
			<g>
				<polygon class="st10" points="20.59,44.15 18.55,46.57 27.36,46.57 29.39,44.15 				"/>
				<rect x="18.45" y="46.62" class="st11" width="8.92" height="1.35"/>
				<path class="st11" d="M20.58,44.14l-2,2.42h8.81l2-2.42H20.58z M19.71,45.77l0.69-0.84c0.46,0,1.04-0.25,1.29-0.55h6.19
					c-0.25,0.3-0.08,0.54,0.36,0.55l-0.69,0.84c-0.45,0-1.01,0.24-1.26,0.53H20.1C20.33,46.01,20.16,45.78,19.71,45.77z"/>
				<path class="st12" d="M23.21,45.35c-0.23,0.28-0.07,0.51,0.35,0.51s0.96-0.23,1.19-0.51c0.23-0.28,0.07-0.51-0.35-0.51
					S23.44,45.07,23.21,45.35z"/>
				<path class="st13" d="M25.4,45.35c-0.13,0.15-0.04,0.27,0.19,0.27c0.23,0,0.52-0.12,0.64-0.27c0.13-0.15,0.04-0.27-0.19-0.27
					C25.81,45.07,25.52,45.2,25.4,45.35z"/>
				<path class="st13" d="M21.73,45.35c-0.13,0.15-0.04,0.27,0.19,0.27c0.23,0,0.52-0.12,0.64-0.27c0.13-0.15,0.04-0.27-0.19-0.27
					C22.15,45.07,21.86,45.2,21.73,45.35z"/>
				<path class="st14" d="M20.57,44.1h8.92l-2.11,2.52h-8.92L20.57,44.1z M29.29,44.19h-8.68l-1.96,2.33h8.68L29.29,44.19z"/>
				<polygon class="st15" points="24.65,44.1 25.89,44.1 23.78,46.62 23.78,47.97 22.54,47.97 22.54,46.62 				"/>
				<polygon class="st13" points="22.29,46.62 22.29,47.97 23.53,47.97 23.53,46.62 23.53,46.62 25.64,44.1 24.4,44.1 22.29,46.62 
									"/>
				<g>
					<polygon class="st16" points="25.5,44.1 25.75,44.1 23.64,46.62 23.64,47.97 23.39,47.97 23.39,46.62 					"/>
				</g>
				<g>
					<polygon class="st16" points="24.28,44.1 24.53,44.1 22.42,46.62 22.42,47.97 22.17,47.97 22.17,46.62 					"/>
				</g>
				<polygon class="st17" points="22.17,46.62 22.17,47.97 23.64,47.97 23.64,46.62 23.64,46.62 22.4,46.62 				"/>
			</g>
		</g>
		<g>
			<polygon class="st8" points="27.38,45.2 29.49,42.68 29.49,44.03 27.38,46.54 27.38,46.55 18.45,46.55 18.45,45.2 			"/>
			<polygon class="st9" points="29.49,43.82 29.49,42.48 27.38,44.99 27.38,46.34 			"/>
			<g>
				<polygon class="st10" points="20.59,42.52 18.55,44.95 27.36,44.95 29.39,42.52 				"/>
				<rect x="18.45" y="44.99" class="st11" width="8.92" height="1.35"/>
				<path class="st11" d="M20.58,42.51l-2,2.42h8.81l2-2.42H20.58z M19.71,44.15l0.69-0.84c0.46,0,1.04-0.25,1.29-0.55h6.19
					c-0.25,0.3-0.08,0.54,0.36,0.55l-0.69,0.84c-0.45,0-1.01,0.24-1.26,0.53H20.1C20.33,44.39,20.16,44.15,19.71,44.15z"/>
				<path class="st12" d="M23.21,43.72c-0.23,0.28-0.07,0.51,0.35,0.51s0.96-0.23,1.19-0.51c0.23-0.28,0.07-0.51-0.35-0.51
					S23.44,43.44,23.21,43.72z"/>
				<path class="st13" d="M25.4,43.72C25.27,43.87,25.36,44,25.59,44c0.23,0,0.52-0.12,0.64-0.27c0.13-0.15,0.04-0.27-0.19-0.27
					C25.81,43.45,25.52,43.57,25.4,43.72z"/>
				<path class="st13" d="M21.73,43.72C21.61,43.87,21.69,44,21.92,44c0.23,0,0.52-0.12,0.64-0.27c0.13-0.15,0.04-0.27-0.19-0.27
					C22.15,43.45,21.86,43.57,21.73,43.72z"/>
				<path class="st14" d="M20.57,42.48h8.92l-2.11,2.52h-8.92L20.57,42.48z M29.29,42.57h-8.68l-1.96,2.33h8.68L29.29,42.57z"/>
				<polygon class="st15" points="24.65,42.48 25.89,42.48 23.78,44.99 23.78,46.35 22.54,46.35 22.54,44.99 				"/>
				<polygon class="st13" points="22.29,44.99 22.29,46.35 23.53,46.35 23.53,44.99 23.53,44.99 25.64,42.48 24.4,42.48 
					22.29,44.99 				"/>
				<g>
					<polygon class="st16" points="25.5,42.48 25.75,42.48 23.64,44.99 23.64,46.35 23.39,46.35 23.39,44.99 					"/>
				</g>
				<g>
					<polygon class="st16" points="24.28,42.48 24.53,42.48 22.42,44.99 22.42,46.35 22.17,46.35 22.17,44.99 					"/>
				</g>
				<polygon class="st17" points="22.17,44.99 22.17,46.35 23.64,46.35 23.64,44.99 23.64,44.99 22.4,44.99 				"/>
			</g>
		</g>
		<g>
			<polygon class="st8" points="27.38,43.58 29.49,41.06 29.49,42.4 27.38,44.92 27.38,44.93 18.45,44.93 18.45,43.58 			"/>
			<polygon class="st9" points="29.49,42.19 29.49,40.85 27.38,43.37 27.38,44.71 			"/>
			<g>
				<polygon class="st10" points="20.59,40.9 18.55,43.32 27.36,43.32 29.39,40.9 				"/>
				<rect x="18.45" y="43.37" class="st11" width="8.92" height="1.35"/>
				<path class="st11" d="M20.58,40.89l-2,2.42h8.81l2-2.42H20.58z M19.71,42.52l0.69-0.84c0.46,0,1.04-0.25,1.29-0.55h6.19
					c-0.25,0.3-0.08,0.54,0.36,0.55l-0.69,0.84c-0.45,0-1.01,0.24-1.26,0.53H20.1C20.33,42.76,20.16,42.53,19.71,42.52z"/>
				<path class="st12" d="M23.21,42.1c-0.23,0.28-0.07,0.51,0.35,0.51s0.96-0.23,1.19-0.51c0.23-0.28,0.07-0.51-0.35-0.51
					S23.44,41.82,23.21,42.1z"/>
				<path class="st13" d="M25.4,42.1c-0.13,0.15-0.04,0.27,0.19,0.27c0.23,0,0.52-0.12,0.64-0.27c0.13-0.15,0.04-0.27-0.19-0.27
					C25.81,41.82,25.52,41.94,25.4,42.1z"/>
				<path class="st13" d="M21.73,42.1c-0.13,0.15-0.04,0.27,0.19,0.27c0.23,0,0.52-0.12,0.64-0.27c0.13-0.15,0.04-0.27-0.19-0.27
					C22.15,41.82,21.86,41.94,21.73,42.1z"/>
				<path class="st14" d="M20.57,40.85h8.92l-2.11,2.52h-8.92L20.57,40.85z M29.29,40.94h-8.68l-1.96,2.33h8.68L29.29,40.94z"/>
				<polygon class="st15" points="24.65,40.85 25.89,40.85 23.78,43.37 23.78,44.72 22.54,44.72 22.54,43.37 				"/>
				<polygon class="st13" points="22.29,43.37 22.29,44.72 23.53,44.72 23.53,43.37 23.53,43.37 25.64,40.85 24.4,40.85 
					22.29,43.37 				"/>
				<g>
					<polygon class="st16" points="25.5,40.85 25.75,40.85 23.64,43.37 23.64,44.72 23.39,44.72 23.39,43.37 					"/>
				</g>
				<g>
					<polygon class="st16" points="24.28,40.85 24.53,40.85 22.42,43.37 22.42,44.72 22.17,44.72 22.17,43.37 					"/>
				</g>
				<polygon class="st17" points="22.17,43.37 22.17,44.72 23.64,44.72 23.64,43.37 23.64,43.37 22.4,43.37 				"/>
			</g>
		</g>
		<g>
			<polygon class="st8" points="27.38,41.95 29.49,39.43 29.49,40.77 27.38,43.29 27.38,43.3 18.45,43.3 18.45,41.95 			"/>
			<polygon class="st9" points="29.49,40.57 29.49,39.23 27.38,41.74 27.38,43.09 			"/>
			<g>
				<polygon class="st10" points="20.59,39.27 18.55,41.7 27.36,41.7 29.39,39.27 				"/>
				<rect x="18.45" y="41.74" class="st11" width="8.92" height="1.35"/>
				<path class="st11" d="M20.58,39.26l-2,2.42h8.81l2-2.42H20.58z M19.71,40.9l0.69-0.84c0.46,0,1.04-0.25,1.29-0.55h6.19
					c-0.25,0.3-0.08,0.54,0.36,0.55l-0.69,0.84c-0.45,0-1.01,0.24-1.26,0.53H20.1C20.33,41.14,20.16,40.9,19.71,40.9z"/>
				<path class="st12" d="M23.21,40.47c-0.23,0.28-0.07,0.51,0.35,0.51s0.96-0.23,1.19-0.51c0.23-0.28,0.07-0.51-0.35-0.51
					S23.44,40.19,23.21,40.47z"/>
				<path class="st13" d="M25.4,40.47c-0.13,0.15-0.04,0.27,0.19,0.27c0.23,0,0.52-0.12,0.64-0.27c0.13-0.15,0.04-0.27-0.19-0.27
					C25.81,40.2,25.52,40.32,25.4,40.47z"/>
				<path class="st13" d="M21.73,40.47c-0.13,0.15-0.04,0.27,0.19,0.27c0.23,0,0.52-0.12,0.64-0.27c0.13-0.15,0.04-0.27-0.19-0.27
					C22.15,40.2,21.86,40.32,21.73,40.47z"/>
				<path class="st14" d="M20.57,39.23h8.92l-2.11,2.52h-8.92L20.57,39.23z M29.29,39.32h-8.68l-1.96,2.33h8.68L29.29,39.32z"/>
				<polygon class="st15" points="24.65,39.23 25.89,39.23 23.78,41.74 23.78,43.1 22.54,43.1 22.54,41.74 				"/>
				<polygon class="st13" points="22.29,41.74 22.29,43.09 23.53,43.09 23.53,41.74 23.53,41.74 25.64,39.23 24.4,39.23 
					22.29,41.74 				"/>
				<g>
					<polygon class="st16" points="25.5,39.23 25.75,39.23 23.64,41.74 23.64,43.1 23.39,43.1 23.39,41.74 					"/>
				</g>
				<g>
					<polygon class="st16" points="24.28,39.23 24.53,39.23 22.42,41.74 22.42,43.1 22.17,43.1 22.17,41.74 					"/>
				</g>
				<polygon class="st17" points="22.17,41.74 22.17,43.09 23.64,43.09 23.64,41.74 23.64,41.74 22.4,41.74 				"/>
			</g>
		</g>
		<g>
			<polygon class="st8" points="27.38,40.32 29.49,37.81 29.49,39.15 27.38,41.66 27.38,41.68 18.45,41.68 18.45,40.32 			"/>
			<polygon class="st9" points="29.49,38.94 29.49,37.6 27.38,40.12 27.38,41.46 			"/>
			<g>
				<polygon class="st10" points="20.59,37.65 18.55,40.07 27.36,40.07 29.39,37.65 				"/>
				<rect x="18.45" y="40.12" class="st11" width="8.92" height="1.35"/>
				<path class="st11" d="M20.58,37.64l-2,2.42h8.81l2-2.42H20.58z M19.71,39.27l0.69-0.84c0.46,0,1.04-0.25,1.29-0.55h6.19
					c-0.25,0.3-0.08,0.54,0.36,0.55l-0.69,0.84c-0.45,0-1.01,0.24-1.26,0.53H20.1C20.33,39.51,20.16,39.27,19.71,39.27z"/>
				<path class="st12" d="M23.21,38.85c-0.23,0.28-0.07,0.51,0.35,0.51s0.96-0.23,1.19-0.51c0.23-0.28,0.07-0.51-0.35-0.51
					S23.44,38.57,23.21,38.85z"/>
				<path class="st13" d="M25.4,38.85c-0.13,0.15-0.04,0.27,0.19,0.27c0.23,0,0.52-0.12,0.64-0.27c0.13-0.15,0.04-0.27-0.19-0.27
					C25.81,38.57,25.52,38.69,25.4,38.85z"/>
				<path class="st13" d="M21.73,38.85c-0.13,0.15-0.04,0.27,0.19,0.27c0.23,0,0.52-0.12,0.64-0.27c0.13-0.15,0.04-0.27-0.19-0.27
					C22.15,38.57,21.86,38.69,21.73,38.85z"/>
				<path class="st14" d="M20.57,37.6h8.92l-2.11,2.52h-8.92L20.57,37.6z M29.29,37.69h-8.68l-1.96,2.33h8.68L29.29,37.69z"/>
				<polygon class="st15" points="24.65,37.6 25.89,37.6 23.78,40.12 23.78,41.47 22.54,41.47 22.54,40.12 				"/>
				<polygon class="st13" points="22.29,40.12 22.29,41.47 23.53,41.47 23.53,40.12 23.53,40.12 25.64,37.6 24.4,37.6 22.29,40.12 
									"/>
				<g>
					<polygon class="st16" points="25.5,37.6 25.75,37.6 23.64,40.12 23.64,41.47 23.39,41.47 23.39,40.12 					"/>
				</g>
				<g>
					<polygon class="st16" points="24.28,37.6 24.53,37.6 22.42,40.12 22.42,41.47 22.17,41.47 22.17,40.12 					"/>
				</g>
				<polygon class="st17" points="22.17,40.12 22.17,41.47 23.64,41.47 23.64,40.12 23.64,40.12 22.4,40.12 				"/>
			</g>
		</g>
	</g>
	<g>
		<g>
			<polygon class="st8" points="37.52,47.97 39.63,45.45 39.63,46.8 37.52,49.31 37.52,49.32 28.59,49.32 28.59,47.97 			"/>
			<polygon class="st9" points="39.63,46.59 39.63,45.25 37.52,47.77 37.52,49.11 			"/>
			<g>
				<polygon class="st10" points="30.72,45.29 28.69,47.72 37.49,47.72 39.53,45.29 				"/>
				<rect x="28.59" y="47.77" class="st11" width="8.92" height="1.35"/>
				<path class="st11" d="M30.71,45.29l-2,2.42h8.81l2-2.42H30.71z M29.85,46.92l0.69-0.84c0.46,0,1.04-0.25,1.29-0.55h6.19
					c-0.25,0.3-0.08,0.54,0.36,0.55l-0.69,0.84c-0.45,0-1.01,0.24-1.26,0.53h-6.19C30.46,47.16,30.3,46.92,29.85,46.92z"/>
				<path class="st12" d="M33.35,46.49C33.12,46.77,33.28,47,33.7,47s0.96-0.23,1.19-0.51c0.23-0.28,0.07-0.51-0.35-0.51
					S33.58,46.21,33.35,46.49z"/>
				<path class="st13" d="M35.54,46.49c-0.13,0.15-0.04,0.27,0.19,0.27s0.52-0.12,0.64-0.27c0.13-0.15,0.04-0.27-0.19-0.27
					C35.95,46.22,35.66,46.34,35.54,46.49z"/>
				<path class="st13" d="M31.87,46.49c-0.13,0.15-0.04,0.27,0.19,0.27c0.23,0,0.52-0.12,0.64-0.27c0.13-0.15,0.04-0.27-0.19-0.27
					C32.28,46.22,32,46.34,31.87,46.49z"/>
				<path class="st14" d="M30.7,45.25h8.92l-2.11,2.52h-8.92L30.7,45.25z M39.43,45.34h-8.68l-1.96,2.33h8.68L39.43,45.34z"/>
				<polygon class="st15" points="34.79,45.25 36.03,45.25 33.92,47.77 33.92,49.12 32.68,49.12 32.68,47.77 				"/>
				<polygon class="st13" points="32.43,47.77 32.43,49.12 33.66,49.12 33.66,47.77 33.66,47.76 35.77,45.25 34.54,45.25 
					32.43,47.76 				"/>
				<g>
					<polygon class="st16" points="35.64,45.25 35.89,45.25 33.78,47.77 33.78,49.12 33.53,49.12 33.53,47.77 					"/>
				</g>
				<g>
					<polygon class="st16" points="34.42,45.25 34.67,45.25 32.56,47.77 32.56,49.12 32.31,49.12 32.31,47.77 					"/>
				</g>
				<polygon class="st17" points="32.31,47.77 32.31,49.12 33.78,49.12 33.78,47.77 33.78,47.76 32.54,47.76 				"/>
			</g>
		</g>
		<g>
			<polygon class="st8" points="37.52,46.35 39.63,43.83 39.63,45.17 37.52,47.69 37.52,47.7 28.59,47.7 28.59,46.35 			"/>
			<polygon class="st9" points="39.63,44.96 39.63,43.62 37.52,46.14 37.52,47.48 			"/>
			<g>
				<polygon class="st10" points="30.72,43.67 28.69,46.09 37.49,46.09 39.53,43.67 				"/>
				<rect x="28.59" y="46.14" class="st11" width="8.92" height="1.35"/>
				<path class="st11" d="M30.71,43.66l-2,2.42h8.81l2-2.42H30.71z M29.85,45.29l0.69-0.84c0.46,0,1.04-0.25,1.29-0.55h6.19
					c-0.25,0.3-0.08,0.54,0.36,0.55l-0.69,0.84c-0.45,0-1.01,0.24-1.26,0.53h-6.19C30.46,45.53,30.3,45.3,29.85,45.29z"/>
				<path class="st12" d="M33.35,44.87c-0.23,0.28-0.07,0.51,0.35,0.51s0.96-0.23,1.19-0.51c0.23-0.28,0.07-0.51-0.35-0.51
					S33.58,44.59,33.35,44.87z"/>
				<path class="st13" d="M35.54,44.87c-0.13,0.15-0.04,0.27,0.19,0.27s0.52-0.12,0.64-0.27c0.13-0.15,0.04-0.27-0.19-0.27
					C35.95,44.59,35.66,44.72,35.54,44.87z"/>
				<path class="st13" d="M31.87,44.87c-0.13,0.15-0.04,0.27,0.19,0.27c0.23,0,0.52-0.12,0.64-0.27c0.13-0.15,0.04-0.27-0.19-0.27
					C32.28,44.59,32,44.72,31.87,44.87z"/>
				<path class="st14" d="M30.7,43.62h8.92l-2.11,2.52h-8.92L30.7,43.62z M39.43,43.71h-8.68l-1.96,2.33h8.68L39.43,43.71z"/>
				<polygon class="st15" points="34.79,43.62 36.03,43.62 33.92,46.14 33.92,47.49 32.68,47.49 32.68,46.14 				"/>
				<polygon class="st13" points="32.43,46.14 32.43,47.49 33.66,47.49 33.66,46.14 33.66,46.14 35.77,43.62 34.54,43.62 
					32.43,46.14 				"/>
				<g>
					<polygon class="st16" points="35.64,43.62 35.89,43.62 33.78,46.14 33.78,47.49 33.53,47.49 33.53,46.14 					"/>
				</g>
				<g>
					<polygon class="st16" points="34.42,43.62 34.67,43.62 32.56,46.14 32.56,47.49 32.31,47.49 32.31,46.14 					"/>
				</g>
				<polygon class="st17" points="32.31,46.14 32.31,47.49 33.78,47.49 33.78,46.14 33.78,46.14 32.54,46.14 				"/>
			</g>
		</g>
		<g>
			<polygon class="st8" points="37.52,44.72 39.63,42.2 39.63,43.55 37.52,46.06 37.52,46.07 28.59,46.07 28.59,44.72 			"/>
			<polygon class="st9" points="39.63,43.34 39.63,42 37.52,44.51 37.52,45.86 			"/>
			<g>
				<polygon class="st10" points="30.72,42.04 28.69,44.47 37.49,44.47 39.53,42.04 				"/>
				<rect x="28.59" y="44.51" class="st11" width="8.92" height="1.35"/>
				<path class="st11" d="M30.71,42.03l-2,2.42h8.81l2-2.42H30.71z M29.85,43.67l0.69-0.84c0.46,0,1.04-0.25,1.29-0.55h6.19
					c-0.25,0.3-0.08,0.54,0.36,0.55l-0.69,0.84c-0.45,0-1.01,0.24-1.26,0.53h-6.19C30.46,43.91,30.3,43.67,29.85,43.67z"/>
				<path class="st12" d="M33.35,43.24c-0.23,0.28-0.07,0.51,0.35,0.51s0.96-0.23,1.19-0.51c0.23-0.28,0.07-0.51-0.35-0.51
					S33.58,42.96,33.35,43.24z"/>
				<path class="st13" d="M35.54,43.24c-0.13,0.15-0.04,0.27,0.19,0.27s0.52-0.12,0.64-0.27c0.13-0.15,0.04-0.27-0.19-0.27
					C35.95,42.97,35.66,43.09,35.54,43.24z"/>
				<path class="st13" d="M31.87,43.24c-0.13,0.15-0.04,0.27,0.19,0.27c0.23,0,0.52-0.12,0.64-0.27c0.13-0.15,0.04-0.27-0.19-0.27
					C32.28,42.97,32,43.09,31.87,43.24z"/>
				<path class="st14" d="M30.7,42h8.92l-2.11,2.52h-8.92L30.7,42z M39.43,42.09h-8.68l-1.96,2.33h8.68L39.43,42.09z"/>
				<polygon class="st15" points="34.79,42 36.03,42 33.92,44.51 33.92,45.87 32.68,45.87 32.68,44.51 				"/>
				<polygon class="st13" points="32.43,44.51 32.43,45.87 33.66,45.87 33.66,44.51 33.66,44.51 35.77,42 34.54,42 32.43,44.51 				
					"/>
				<g>
					<polygon class="st16" points="35.64,42 35.89,42 33.78,44.51 33.78,45.87 33.53,45.87 33.53,44.51 					"/>
				</g>
				<g>
					<polygon class="st16" points="34.42,42 34.67,42 32.56,44.51 32.56,45.87 32.31,45.87 32.31,44.51 					"/>
				</g>
				<polygon class="st17" points="32.31,44.51 32.31,45.87 33.78,45.87 33.78,44.51 33.78,44.51 32.54,44.51 				"/>
			</g>
		</g>
		<g>
			<polygon class="st8" points="37.52,43.1 39.63,40.58 39.63,41.92 37.52,44.44 37.52,44.45 28.59,44.45 28.59,43.1 			"/>
			<polygon class="st9" points="39.63,41.71 39.63,40.37 37.52,42.89 37.52,44.23 			"/>
			<g>
				<polygon class="st10" points="30.72,40.42 28.69,42.84 37.49,42.84 39.53,40.42 				"/>
				<rect x="28.59" y="42.89" class="st11" width="8.92" height="1.35"/>
				<path class="st11" d="M30.71,40.41l-2,2.42h8.81l2-2.42H30.71z M29.85,42.04l0.69-0.84c0.46,0,1.04-0.25,1.29-0.55h6.19
					c-0.25,0.3-0.08,0.54,0.36,0.55l-0.69,0.84c-0.45,0-1.01,0.24-1.26,0.53h-6.19C30.46,42.28,30.3,42.05,29.85,42.04z"/>
				<path class="st12" d="M33.35,41.62c-0.23,0.28-0.07,0.51,0.35,0.51s0.96-0.23,1.19-0.51c0.23-0.28,0.07-0.51-0.35-0.51
					S33.58,41.34,33.35,41.62z"/>
				<path class="st13" d="M35.54,41.62c-0.13,0.15-0.04,0.27,0.19,0.27s0.52-0.12,0.64-0.27c0.13-0.15,0.04-0.27-0.19-0.27
					C35.95,41.34,35.66,41.47,35.54,41.62z"/>
				<path class="st13" d="M31.87,41.62c-0.13,0.15-0.04,0.27,0.19,0.27c0.23,0,0.52-0.12,0.64-0.27c0.13-0.15,0.04-0.27-0.19-0.27
					C32.28,41.34,32,41.47,31.87,41.62z"/>
				<path class="st14" d="M30.7,40.37h8.92l-2.11,2.52h-8.92L30.7,40.37z M39.43,40.46h-8.68l-1.96,2.33h8.68L39.43,40.46z"/>
				<polygon class="st15" points="34.79,40.37 36.03,40.37 33.92,42.89 33.92,44.24 32.68,44.24 32.68,42.89 				"/>
				<polygon class="st13" points="32.43,42.89 32.43,44.24 33.66,44.24 33.66,42.89 33.66,42.89 35.77,40.37 34.54,40.37 
					32.43,42.89 				"/>
				<g>
					<polygon class="st16" points="35.64,40.37 35.89,40.37 33.78,42.89 33.78,44.24 33.53,44.24 33.53,42.89 					"/>
				</g>
				<g>
					<polygon class="st16" points="34.42,40.37 34.67,40.37 32.56,42.89 32.56,44.24 32.31,44.24 32.31,42.89 					"/>
				</g>
				<polygon class="st17" points="32.31,42.89 32.31,44.24 33.78,44.24 33.78,42.89 33.78,42.89 32.54,42.89 				"/>
			</g>
		</g>
	</g>
	<polygon class="st7" points="32.42,50.02 34.27,49.67 34.27,45.97 26.33,45.97 26.33,50.47 	"/>
	<g>
		<g>
			<g>
				<path class="st1" d="M18.8,50.76c-0.01,0.43,0.81,0.8,1.83,0.82c1.02,0.02,1.85-0.31,1.86-0.74c0.01-0.43-0.81-0.8-1.83-0.82
					C19.65,50,18.81,50.33,18.8,50.76z"/>
			</g>
			<g>
				<path class="st2" d="M18.81,50.3l-0.01,0.38c-0.01,0.32,0.44,0.61,1.09,0.74c0.15,0.03,0.32,0.06,0.49,0.07
					c0.08,0.01,0.16,0.01,0.24,0.01c0.26,0.01,0.51-0.01,0.74-0.05c0.65-0.11,1-0.38,1.01-0.7l0.12-0.41
					c-0.26-0.3-1.05-0.39-1.83-0.4C20.04,49.92,19.15,50.11,18.81,50.3z"/>
			</g>
			<g class="st3">
				<path class="st4" d="M19.91,50.73l-0.01,0.69c0.15,0.03,0.32,0.06,0.49,0.07l0.02-0.75L19.91,50.73z"/>
			</g>
			<g>
				<path class="st5" d="M21.29,51.46l0.03-1.49c0.53,0.05,0.99,0.16,1.18,0.37l-0.01,0.42C22.48,51.09,21.99,51.36,21.29,51.46z"/>
			</g>
			<g>
				
					<ellipse transform="matrix(0.0209 -0.9998 0.9998 0.0209 -30.1072 69.9413)" class="st6" cx="20.66" cy="50.34" rx="0.78" ry="1.84"/>
			</g>
			<g>
				<path class="st4" d="M19.59,50.93c-0.31-0.1-0.54-0.24-0.66-0.4l1.5-0.95c0.05,0,0.11,0,0.17,0c0.03,0,0.06,0,0.09,0
					c0.3,0.01,0.6,0.04,0.87,0.11L19.59,50.93z"/>
			</g>
			<g>
				<path class="st4" d="M20.4,51.09c-0.15-0.01-0.29-0.03-0.43-0.06l1.94-1.22c0.11,0.04,0.21,0.09,0.29,0.15L20.4,51.09z"/>
			</g>
		</g>
		<g>
			<g>
				<path class="st1" d="M18.8,50.22c-0.01,0.43,0.81,0.8,1.83,0.82c1.02,0.02,1.85-0.31,1.86-0.74c0.01-0.43-0.81-0.8-1.83-0.82
					C19.65,49.45,18.81,49.79,18.8,50.22z"/>
			</g>
			<g>
				<path class="st2" d="M18.81,49.76l-0.01,0.38c-0.01,0.32,0.44,0.61,1.09,0.74c0.15,0.03,0.32,0.06,0.49,0.07
					c0.08,0.01,0.16,0.01,0.24,0.01c0.26,0.01,0.51-0.01,0.74-0.05c0.65-0.11,1-0.38,1.01-0.7l0.12-0.41
					c-0.26-0.3-1.05-0.39-1.83-0.4C20.04,49.38,19.15,49.57,18.81,49.76z"/>
			</g>
			<g class="st3">
				<path class="st4" d="M19.91,50.19l-0.01,0.69c0.15,0.03,0.32,0.06,0.49,0.07l0.02-0.75L19.91,50.19z"/>
			</g>
			<g>
				<path class="st5" d="M21.29,50.92l0.03-1.49c0.53,0.05,0.99,0.16,1.18,0.37l-0.01,0.42C22.48,50.55,21.99,50.82,21.29,50.92z"/>
			</g>
			<g>
				
					<ellipse transform="matrix(0.0209 -0.9998 0.9998 0.0209 -29.5654 69.4107)" class="st6" cx="20.66" cy="49.8" rx="0.78" ry="1.84"/>
			</g>
			<g>
				<path class="st4" d="M19.59,50.39c-0.31-0.1-0.54-0.24-0.66-0.4l1.5-0.95c0.05,0,0.11,0,0.17,0c0.03,0,0.06,0,0.09,0
					c0.3,0.01,0.6,0.04,0.87,0.11L19.59,50.39z"/>
			</g>
			<g>
				<path class="st4" d="M20.4,50.55c-0.15-0.01-0.29-0.03-0.43-0.06l1.94-1.22c0.11,0.04,0.21,0.09,0.29,0.15L20.4,50.55z"/>
			</g>
		</g>
		<g>
			<g>
				<path class="st1" d="M18.8,49.68c-0.01,0.43,0.81,0.8,1.83,0.82c1.02,0.02,1.85-0.31,1.86-0.74c0.01-0.43-0.81-0.8-1.83-0.82
					C19.65,48.91,18.81,49.24,18.8,49.68z"/>
			</g>
			<g>
				<path class="st2" d="M18.81,49.22l-0.01,0.38c-0.01,0.32,0.44,0.61,1.09,0.74c0.15,0.03,0.32,0.06,0.49,0.07
					c0.08,0.01,0.16,0.01,0.24,0.01c0.26,0.01,0.51-0.01,0.74-0.05c0.65-0.11,1-0.38,1.01-0.7l0.12-0.41
					c-0.26-0.3-1.05-0.39-1.83-0.4C20.04,48.84,19.15,49.03,18.81,49.22z"/>
			</g>
			<g class="st3">
				<path class="st4" d="M19.91,49.65l-0.01,0.69c0.15,0.03,0.32,0.06,0.49,0.07l0.02-0.75L19.91,49.65z"/>
			</g>
			<g>
				<path class="st5" d="M21.29,50.38l0.03-1.49c0.53,0.05,0.99,0.16,1.18,0.37l-0.01,0.42C22.48,50,21.99,50.28,21.29,50.38z"/>
			</g>
			<g>
				
					<ellipse transform="matrix(0.0209 -0.9998 0.9998 0.0209 -29.0237 68.8802)" class="st6" cx="20.66" cy="49.26" rx="0.78" ry="1.84"/>
			</g>
			<g>
				<path class="st4" d="M19.59,49.85c-0.31-0.1-0.54-0.24-0.66-0.4l1.5-0.95c0.05,0,0.11,0,0.17,0c0.03,0,0.06,0,0.09,0
					c0.3,0.01,0.6,0.04,0.87,0.11L19.59,49.85z"/>
			</g>
			<g>
				<path class="st4" d="M20.4,50.01c-0.15-0.01-0.29-0.03-0.43-0.06l1.94-1.22c0.11,0.04,0.21,0.09,0.29,0.15L20.4,50.01z"/>
			</g>
		</g>
		<g>
			<g>
				<path class="st1" d="M18.8,49.13c-0.01,0.43,0.81,0.8,1.83,0.82c1.02,0.02,1.85-0.31,1.86-0.74c0.01-0.43-0.81-0.8-1.83-0.82
					C19.65,48.37,18.81,48.7,18.8,49.13z"/>
			</g>
			<g>
				<path class="st2" d="M18.81,48.68l-0.01,0.38c-0.01,0.32,0.44,0.61,1.09,0.74c0.15,0.03,0.32,0.06,0.49,0.07
					c0.08,0.01,0.16,0.01,0.24,0.01c0.26,0.01,0.51-0.01,0.74-0.05c0.65-0.11,1-0.38,1.01-0.7l0.12-0.41
					c-0.26-0.3-1.05-0.39-1.83-0.4C20.04,48.3,19.15,48.48,18.81,48.68z"/>
			</g>
			<g class="st3">
				<path class="st4" d="M19.91,49.1l-0.01,0.69c0.15,0.03,0.32,0.06,0.49,0.07l0.02-0.75L19.91,49.1z"/>
			</g>
			<g>
				<path class="st5" d="M21.29,49.83l0.03-1.49c0.53,0.05,0.99,0.16,1.18,0.37l-0.01,0.42C22.48,49.46,21.99,49.74,21.29,49.83z"/>
			</g>
			<g>
				
					<ellipse transform="matrix(0.0209 -0.9998 0.9998 0.0209 -28.4819 68.3497)" class="st6" cx="20.66" cy="48.72" rx="0.78" ry="1.84"/>
			</g>
			<g>
				<path class="st4" d="M19.59,49.31c-0.31-0.1-0.54-0.24-0.66-0.4l1.5-0.95c0.05,0,0.11,0,0.17,0c0.03,0,0.06,0,0.09,0
					c0.3,0.01,0.6,0.04,0.87,0.11L19.59,49.31z"/>
			</g>
			<g>
				<path class="st4" d="M20.4,49.46c-0.15-0.01-0.29-0.03-0.43-0.06l1.94-1.22c0.11,0.04,0.21,0.09,0.29,0.15L20.4,49.46z"/>
			</g>
		</g>
	</g>
	<g>
		<g>
			<polygon class="st8" points="30.64,51.55 32.75,49.03 32.75,50.37 30.65,52.89 30.64,52.9 21.72,52.9 21.72,51.55 			"/>
			<polygon class="st9" points="32.75,50.17 32.75,48.82 30.64,51.34 30.64,52.68 			"/>
			<g>
				<polygon class="st10" points="23.85,48.87 21.82,51.3 30.62,51.3 32.66,48.87 				"/>
				<rect x="21.72" y="51.34" class="st11" width="8.92" height="1.35"/>
				<path class="st11" d="M23.84,48.86l-2,2.42h8.81l2-2.42H23.84z M22.98,50.49l0.69-0.84c0.46,0,1.04-0.25,1.29-0.55h6.19
					c-0.25,0.3-0.08,0.54,0.36,0.55l-0.69,0.84c-0.45,0-1.01,0.24-1.26,0.53h-6.19C23.59,50.74,23.42,50.5,22.98,50.49z"/>
				<path class="st12" d="M26.48,50.07c-0.23,0.28-0.07,0.51,0.35,0.51s0.96-0.23,1.19-0.51c0.23-0.28,0.07-0.51-0.35-0.51
					S26.71,49.79,26.48,50.07z"/>
				<path class="st13" d="M28.66,50.07c-0.13,0.15-0.04,0.27,0.19,0.27c0.23,0,0.52-0.12,0.64-0.27c0.13-0.15,0.04-0.27-0.19-0.27
					C29.08,49.8,28.79,49.92,28.66,50.07z"/>
				<path class="st13" d="M25,50.07c-0.13,0.15-0.04,0.27,0.19,0.27c0.23,0,0.52-0.12,0.64-0.27c0.13-0.15,0.04-0.27-0.19-0.27
					C25.41,49.8,25.12,49.92,25,50.07z"/>
				<path class="st14" d="M23.83,48.82h8.92l-2.11,2.52h-8.92L23.83,48.82z M32.56,48.92h-8.68l-1.96,2.33h8.68L32.56,48.92z"/>
				<polygon class="st15" points="27.92,48.82 29.16,48.82 27.05,51.34 27.05,52.69 25.81,52.69 25.81,51.34 				"/>
				<polygon class="st13" points="25.55,51.34 25.55,52.69 26.79,52.69 26.79,51.34 26.79,51.34 28.9,48.82 27.66,48.82 
					25.55,51.34 				"/>
				<g>
					<polygon class="st16" points="28.77,48.82 29.01,48.82 26.9,51.34 26.9,52.69 26.65,52.69 26.65,51.34 					"/>
				</g>
				<g>
					<polygon class="st16" points="27.55,48.82 27.8,48.82 25.68,51.34 25.68,52.69 25.44,52.69 25.44,51.34 					"/>
				</g>
				<polygon class="st17" points="25.44,51.34 25.44,52.69 26.9,52.69 26.9,51.34 26.91,51.34 25.67,51.34 				"/>
			</g>
		</g>
		<g>
			<polygon class="st8" points="30.64,49.92 32.75,47.41 32.75,48.75 30.65,51.26 30.64,51.28 21.72,51.28 21.72,49.92 			"/>
			<polygon class="st9" points="32.75,48.54 32.75,47.2 30.64,49.72 30.64,51.06 			"/>
			<g>
				<polygon class="st10" points="23.85,47.24 21.82,49.67 30.62,49.67 32.66,47.24 				"/>
				<rect x="21.72" y="49.72" class="st11" width="8.92" height="1.35"/>
				<path class="st11" d="M23.84,47.24l-2,2.42h8.81l2-2.42H23.84z M22.98,48.87l0.69-0.84c0.46,0,1.04-0.25,1.29-0.55h6.19
					c-0.25,0.3-0.08,0.54,0.36,0.55l-0.69,0.84c-0.45,0-1.01,0.24-1.26,0.53h-6.19C23.59,49.11,23.42,48.87,22.98,48.87z"/>
				<path class="st12" d="M26.48,48.44c-0.23,0.28-0.07,0.51,0.35,0.51s0.96-0.23,1.19-0.51c0.23-0.28,0.07-0.51-0.35-0.51
					S26.71,48.16,26.48,48.44z"/>
				<path class="st13" d="M28.66,48.44c-0.13,0.15-0.04,0.27,0.19,0.27c0.23,0,0.52-0.12,0.64-0.27c0.13-0.15,0.04-0.27-0.19-0.27
					C29.08,48.17,28.79,48.29,28.66,48.44z"/>
				<path class="st13" d="M25,48.44c-0.13,0.15-0.04,0.27,0.19,0.27c0.23,0,0.52-0.12,0.64-0.27c0.13-0.15,0.04-0.27-0.19-0.27
					C25.41,48.17,25.12,48.29,25,48.44z"/>
				<path class="st14" d="M23.83,47.2h8.92l-2.11,2.52h-8.92L23.83,47.2z M32.56,47.29h-8.68l-1.96,2.33h8.68L32.56,47.29z"/>
				<polygon class="st15" points="27.92,47.2 29.16,47.2 27.05,49.72 27.05,51.07 25.81,51.07 25.81,49.72 				"/>
				<polygon class="st13" points="25.55,49.72 25.55,51.07 26.79,51.07 26.79,49.72 26.79,49.72 28.9,47.2 27.66,47.2 25.55,49.72 
									"/>
				<g>
					<polygon class="st16" points="28.77,47.2 29.01,47.2 26.9,49.72 26.9,51.07 26.65,51.07 26.65,49.72 					"/>
				</g>
				<g>
					<polygon class="st16" points="27.55,47.2 27.8,47.2 25.68,49.72 25.68,51.07 25.44,51.07 25.44,49.72 					"/>
				</g>
				<polygon class="st17" points="25.44,49.72 25.44,51.07 26.9,51.07 26.9,49.72 26.91,49.72 25.67,49.72 				"/>
			</g>
		</g>
		<g>
			<polygon class="st8" points="30.64,48.3 32.75,45.78 32.75,47.12 30.65,49.64 30.64,49.65 21.72,49.65 21.72,48.3 			"/>
			<polygon class="st9" points="32.75,46.92 32.75,45.57 30.64,48.09 30.64,49.43 			"/>
			<g>
				<polygon class="st10" points="23.85,45.62 21.82,48.05 30.62,48.05 32.66,45.62 				"/>
				<rect x="21.72" y="48.09" class="st11" width="8.92" height="1.35"/>
				<path class="st11" d="M23.84,45.61l-2,2.42h8.81l2-2.42H23.84z M22.98,47.24l0.69-0.84c0.46,0,1.04-0.25,1.29-0.55h6.19
					c-0.25,0.3-0.08,0.54,0.36,0.55l-0.69,0.84c-0.45,0-1.01,0.24-1.26,0.53h-6.19C23.59,47.48,23.42,47.25,22.98,47.24z"/>
				<path class="st12" d="M26.48,46.82c-0.23,0.28-0.07,0.51,0.35,0.51s0.96-0.23,1.19-0.51c0.23-0.28,0.07-0.51-0.35-0.51
					S26.71,46.54,26.48,46.82z"/>
				<path class="st13" d="M28.66,46.82c-0.13,0.15-0.04,0.27,0.19,0.27c0.23,0,0.52-0.12,0.64-0.27c0.13-0.15,0.04-0.27-0.19-0.27
					C29.08,46.54,28.79,46.67,28.66,46.82z"/>
				<path class="st13" d="M25,46.82c-0.13,0.15-0.04,0.27,0.19,0.27c0.23,0,0.52-0.12,0.64-0.27c0.13-0.15,0.04-0.27-0.19-0.27
					C25.41,46.54,25.12,46.67,25,46.82z"/>
				<path class="st14" d="M23.83,45.57h8.92l-2.11,2.52h-8.92L23.83,45.57z M32.56,45.66h-8.68L21.92,48h8.68L32.56,45.66z"/>
				<polygon class="st15" points="27.92,45.57 29.16,45.57 27.05,48.09 27.05,49.44 25.81,49.44 25.81,48.09 				"/>
				<polygon class="st13" points="25.55,48.09 25.55,49.44 26.79,49.44 26.79,48.09 26.79,48.09 28.9,45.57 27.66,45.57 
					25.55,48.09 				"/>
				<g>
					<polygon class="st16" points="28.77,45.57 29.01,45.57 26.9,48.09 26.9,49.44 26.65,49.44 26.65,48.09 					"/>
				</g>
				<g>
					<polygon class="st16" points="27.55,45.57 27.8,45.57 25.68,48.09 25.68,49.44 25.44,49.44 25.44,48.09 					"/>
				</g>
				<polygon class="st17" points="25.44,48.09 25.44,49.44 26.9,49.44 26.9,48.09 26.91,48.09 25.67,48.09 				"/>
			</g>
		</g>
	</g>
	<g>
		<g>
			<g>
				<ellipse class="st1" cx="34.27" cy="51.13" rx="1.84" ry="0.78"/>
			</g>
			<g>
				<path class="st2" d="M32.43,50.68v0.38c0,0.32,0.46,0.6,1.11,0.72c0.15,0.03,0.32,0.05,0.49,0.06c0.08,0,0.16,0.01,0.24,0.01
					c0.26,0,0.51-0.02,0.73-0.06c0.65-0.12,0.99-0.4,0.99-0.72l0.12-0.41c-0.27-0.29-1.06-0.37-1.84-0.37
					C33.65,50.27,32.76,50.48,32.43,50.68z"/>
			</g>
			<g class="st3">
				<path class="st4" d="M33.54,51.08v0.69c0.15,0.03,0.32,0.05,0.49,0.06v-0.75H33.54z"/>
			</g>
			<g>
				<path class="st5" d="M34.93,51.78v-1.49c0.53,0.04,0.99,0.14,1.18,0.34v0.42C36.12,51.38,35.62,51.67,34.93,51.78z"/>
			</g>
			<g>
				<ellipse class="st6" cx="34.27" cy="50.68" rx="1.84" ry="0.78"/>
			</g>
			<g>
				<path class="st4" d="M33.22,51.29c-0.31-0.1-0.55-0.23-0.67-0.39l1.48-0.98c0.09,0,0.17-0.01,0.25-0.01
					c0.3,0,0.6,0.03,0.87,0.09L33.22,51.29z"/>
			</g>
			<g>
				<path class="st4" d="M34.03,51.43c-0.15-0.01-0.29-0.03-0.43-0.05l1.92-1.26c0.11,0.04,0.21,0.09,0.29,0.14L34.03,51.43z"/>
			</g>
		</g>
		<g>
			<g>
				<ellipse class="st1" cx="34.27" cy="50.59" rx="1.84" ry="0.78"/>
			</g>
			<g>
				<path class="st2" d="M32.43,50.13v0.38c0,0.32,0.46,0.6,1.11,0.72c0.15,0.03,0.32,0.05,0.49,0.06c0.08,0,0.16,0.01,0.24,0.01
					c0.26,0,0.51-0.02,0.73-0.06c0.65-0.12,0.99-0.4,0.99-0.72l0.12-0.41c-0.27-0.29-1.06-0.37-1.84-0.37
					C33.65,49.73,32.76,49.93,32.43,50.13z"/>
			</g>
			<g class="st3">
				<path class="st4" d="M33.54,50.54v0.69c0.15,0.03,0.32,0.05,0.49,0.06v-0.75H33.54z"/>
			</g>
			<g>
				<path class="st5" d="M34.93,51.24v-1.49c0.53,0.04,0.99,0.14,1.18,0.34v0.42C36.12,50.84,35.62,51.13,34.93,51.24z"/>
			</g>
			<g>
				<ellipse class="st6" cx="34.27" cy="50.13" rx="1.84" ry="0.78"/>
			</g>
			<g>
				<path class="st4" d="M33.22,50.75c-0.31-0.1-0.55-0.23-0.67-0.39l1.48-0.98c0.09,0,0.17-0.01,0.25-0.01
					c0.3,0,0.6,0.03,0.87,0.09L33.22,50.75z"/>
			</g>
			<g>
				<path class="st4" d="M34.03,50.89c-0.15-0.01-0.29-0.03-0.43-0.05l1.92-1.26c0.11,0.04,0.21,0.09,0.29,0.14L34.03,50.89z"/>
			</g>
		</g>
		<g>
			<g>
				<ellipse class="st1" cx="34.27" cy="50.05" rx="1.84" ry="0.78"/>
			</g>
			<g>
				<path class="st2" d="M32.43,49.59v0.38c0,0.32,0.46,0.6,1.11,0.72c0.15,0.03,0.32,0.05,0.49,0.06c0.08,0,0.16,0.01,0.24,0.01
					c0.26,0,0.51-0.02,0.73-0.06c0.65-0.12,0.99-0.4,0.99-0.72l0.12-0.41c-0.27-0.29-1.06-0.37-1.84-0.37
					C33.65,49.19,32.76,49.39,32.43,49.59z"/>
			</g>
			<g class="st3">
				<path class="st4" d="M33.54,50v0.69c0.15,0.03,0.32,0.05,0.49,0.06V50H33.54z"/>
			</g>
			<g>
				<path class="st5" d="M34.93,50.7v-1.49c0.53,0.04,0.99,0.14,1.18,0.34v0.42C36.12,50.3,35.62,50.58,34.93,50.7z"/>
			</g>
			<g>
				<ellipse class="st6" cx="34.27" cy="49.59" rx="1.84" ry="0.78"/>
			</g>
			<g>
				<path class="st4" d="M33.22,50.21c-0.31-0.1-0.55-0.23-0.67-0.39l1.48-0.98c0.09,0,0.17-0.01,0.25-0.01
					c0.3,0,0.6,0.03,0.87,0.09L33.22,50.21z"/>
			</g>
			<g>
				<path class="st4" d="M34.03,50.34c-0.15-0.01-0.29-0.03-0.43-0.05l1.92-1.26c0.11,0.04,0.21,0.09,0.29,0.14L34.03,50.34z"/>
			</g>
		</g>
		<g>
			<g>
				<ellipse class="st1" cx="34.27" cy="49.51" rx="1.84" ry="0.78"/>
			</g>
			<g>
				<path class="st2" d="M32.43,49.05v0.38c0,0.32,0.46,0.6,1.11,0.72c0.15,0.03,0.32,0.05,0.49,0.06c0.08,0,0.16,0.01,0.24,0.01
					c0.26,0,0.51-0.02,0.73-0.06c0.65-0.12,0.99-0.4,0.99-0.72l0.12-0.41c-0.27-0.29-1.06-0.37-1.84-0.37
					C33.65,48.64,32.76,48.85,32.43,49.05z"/>
			</g>
			<g class="st3">
				<path class="st4" d="M33.54,49.45v0.69c0.15,0.03,0.32,0.05,0.49,0.06v-0.75H33.54z"/>
			</g>
			<g>
				<path class="st5" d="M34.93,50.15v-1.49c0.53,0.04,0.99,0.14,1.18,0.34v0.42C36.12,49.76,35.62,50.04,34.93,50.15z"/>
			</g>
			<g>
				<ellipse class="st6" cx="34.27" cy="49.05" rx="1.84" ry="0.78"/>
			</g>
			<g>
				<path class="st4" d="M33.22,49.66c-0.31-0.1-0.55-0.23-0.67-0.39l1.48-0.98c0.09,0,0.17-0.01,0.25-0.01
					c0.3,0,0.6,0.03,0.87,0.09L33.22,49.66z"/>
			</g>
			<g>
				<path class="st4" d="M34.03,49.8c-0.15-0.01-0.29-0.03-0.43-0.05l1.92-1.26c0.11,0.04,0.21,0.09,0.29,0.14L34.03,49.8z"/>
			</g>
		</g>
		<g>
			<g>
				<ellipse class="st1" cx="34.27" cy="48.96" rx="1.84" ry="0.78"/>
			</g>
			<g>
				<path class="st2" d="M32.43,48.51v0.38c0,0.32,0.46,0.6,1.11,0.72c0.15,0.03,0.32,0.05,0.49,0.06c0.08,0,0.16,0.01,0.24,0.01
					c0.26,0,0.51-0.02,0.73-0.06c0.65-0.12,0.99-0.4,0.99-0.72l0.12-0.41c-0.27-0.29-1.06-0.37-1.84-0.37
					C33.65,48.1,32.76,48.31,32.43,48.51z"/>
			</g>
			<g class="st3">
				<path class="st4" d="M33.54,48.91v0.69c0.15,0.03,0.32,0.05,0.49,0.06v-0.75H33.54z"/>
			</g>
			<g>
				<path class="st5" d="M34.93,49.61v-1.49c0.53,0.04,0.99,0.14,1.18,0.34v0.42C36.12,49.22,35.62,49.5,34.93,49.61z"/>
			</g>
			<g>
				<ellipse class="st6" cx="34.27" cy="48.51" rx="1.84" ry="0.78"/>
			</g>
			<g>
				<path class="st4" d="M33.22,49.12c-0.31-0.1-0.55-0.23-0.67-0.39l1.48-0.98c0.09,0,0.17-0.01,0.25-0.01
					c0.3,0,0.6,0.03,0.87,0.09L33.22,49.12z"/>
			</g>
			<g>
				<path class="st4" d="M34.03,49.26c-0.15-0.01-0.29-0.03-0.43-0.05l1.92-1.26c0.11,0.04,0.21,0.09,0.29,0.14L34.03,49.26z"/>
			</g>
		</g>
		<g>
			<g>
				<ellipse class="st1" cx="34.27" cy="48.42" rx="1.84" ry="0.78"/>
			</g>
			<g>
				<path class="st2" d="M32.43,47.97v0.38c0,0.32,0.46,0.6,1.11,0.72c0.15,0.03,0.32,0.05,0.49,0.06c0.08,0,0.16,0.01,0.24,0.01
					c0.26,0,0.51-0.02,0.73-0.06c0.65-0.12,0.99-0.4,0.99-0.72l0.12-0.41c-0.27-0.29-1.06-0.37-1.84-0.37
					C33.65,47.56,32.76,47.77,32.43,47.97z"/>
			</g>
			<g class="st3">
				<path class="st4" d="M33.54,48.37v0.69c0.15,0.03,0.32,0.05,0.49,0.06v-0.75H33.54z"/>
			</g>
			<g>
				<path class="st5" d="M34.93,49.07v-1.49c0.53,0.04,0.99,0.14,1.18,0.34v0.42C36.12,48.67,35.62,48.96,34.93,49.07z"/>
			</g>
			<g>
				<ellipse class="st6" cx="34.27" cy="47.97" rx="1.84" ry="0.78"/>
			</g>
			<g>
				<path class="st4" d="M33.22,48.58c-0.31-0.1-0.55-0.23-0.67-0.39l1.48-0.98c0.09,0,0.17-0.01,0.25-0.01
					c0.3,0,0.6,0.03,0.87,0.09L33.22,48.58z"/>
			</g>
			<g>
				<path class="st4" d="M34.03,48.72c-0.15-0.01-0.29-0.03-0.43-0.05l1.92-1.26c0.11,0.04,0.21,0.09,0.29,0.14L34.03,48.72z"/>
			</g>
		</g>
	</g>
</g>
</svg>
