<?xml version="1.0" encoding="utf-8"?>
<!-- Generator: Adobe Illustrator 23.0.3, SVG Export Plug-In . SVG Version: 6.00 Build 0)  -->
<svg version="1.1" id="Layer_1" xmlns="http://www.w3.org/2000/svg" xmlns:xlink="http://www.w3.org/1999/xlink" x="0px" y="0px"
	 viewBox="0 0 60 80" style="enable-background:new 0 0 60 80;" xml:space="preserve">
<style type="text/css">
	.st0{opacity:0.72;fill:#9EB3B6;}
	.st1{fill:#CE7D13;}
	.st2{fill:#FFC50D;}
	.st3{opacity:0.43;}
	.st4{fill:#FFFC8F;}
	.st5{fill:#F19D00;}
	.st6{fill:#FFD400;}
</style>
<g>
	<path class="st0" d="M34.3,48.1c-0.1-0.1-0.2-0.3-0.2-0.5c0-0.9,1.7-1.6,3.7-1.6c2,0,3.7,0.7,3.7,1.6c0,0.2-0.1,0.3-0.2,0.5h0
		L37,53.4l-5.3-5.8L34.3,48.1z"/>
	<g>
		<g>
			<g>
				<ellipse class="st1" cx="28" cy="50.1" rx="3.7" ry="1.6"/>
			</g>
			<g>
				<path class="st2" d="M24.3,49.2V50c0,0.6,0.9,1.2,2.2,1.4c0.3,0.1,0.6,0.1,1,0.1c0.2,0,0.3,0,0.5,0c0.5,0,1,0,1.5-0.1
					c1.3-0.2,2-0.8,2-1.5l0.2-0.8c-0.5-0.6-2.1-0.7-3.7-0.7C26.7,48.4,25,48.8,24.3,49.2z"/>
			</g>
			<g class="st3">
				<path class="st4" d="M26.5,50v1.4c0.3,0.1,0.6,0.1,1,0.1V50H26.5z"/>
			</g>
			<g>
				<path class="st5" d="M29.3,51.4v-3c1.1,0.1,2,0.3,2.4,0.7V50C31.7,50.6,30.7,51.2,29.3,51.4z"/>
			</g>
			<g>
				<ellipse class="st6" cx="28" cy="49.2" rx="3.7" ry="1.6"/>
			</g>
			<g>
				<path class="st4" d="M25.9,50.4c-0.6-0.2-1.1-0.5-1.3-0.8l3-2c0.2,0,0.3,0,0.5,0c0.6,0,1.2,0.1,1.8,0.2L25.9,50.4z"/>
			</g>
			<g>
				<path class="st4" d="M27.5,50.7c-0.3,0-0.6-0.1-0.9-0.1l3.9-2.5c0.2,0.1,0.4,0.2,0.6,0.3L27.5,50.7z"/>
			</g>
		</g>
		<g>
			<g>
				<ellipse class="st1" cx="28" cy="49" rx="3.7" ry="1.6"/>
			</g>
			<g>
				<path class="st2" d="M24.3,48.1v0.8c0,0.6,0.9,1.2,2.2,1.4c0.3,0.1,0.6,0.1,1,0.1c0.2,0,0.3,0,0.5,0c0.5,0,1,0,1.5-0.1
					c1.3-0.2,2-0.8,2-1.5l0.2-0.8c-0.5-0.6-2.1-0.7-3.7-0.7C26.7,47.3,25,47.7,24.3,48.1z"/>
			</g>
			<g class="st3">
				<path class="st4" d="M26.5,48.9v1.4c0.3,0.1,0.6,0.1,1,0.1v-1.5H26.5z"/>
			</g>
			<g>
				<path class="st5" d="M29.3,50.3v-3c1.1,0.1,2,0.3,2.4,0.7v0.8C31.7,49.5,30.7,50.1,29.3,50.3z"/>
			</g>
			<g>
				<ellipse class="st6" cx="28" cy="48.1" rx="3.7" ry="1.6"/>
			</g>
			<g>
				<path class="st4" d="M25.9,49.3c-0.6-0.2-1.1-0.5-1.3-0.8l3-2c0.2,0,0.3,0,0.5,0c0.6,0,1.2,0.1,1.8,0.2L25.9,49.3z"/>
			</g>
			<g>
				<path class="st4" d="M27.5,49.6c-0.3,0-0.6-0.1-0.9-0.1l3.9-2.5c0.2,0.1,0.4,0.2,0.6,0.3L27.5,49.6z"/>
			</g>
		</g>
		<g>
			<g>
				<ellipse class="st1" cx="28" cy="47.9" rx="3.7" ry="1.6"/>
			</g>
			<g>
				<path class="st2" d="M24.3,47v0.8c0,0.6,0.9,1.2,2.2,1.4c0.3,0.1,0.6,0.1,1,0.1c0.2,0,0.3,0,0.5,0c0.5,0,1,0,1.5-0.1
					c1.3-0.2,2-0.8,2-1.5l0.2-0.8c-0.5-0.6-2.1-0.7-3.7-0.7C26.7,46.2,25,46.6,24.3,47z"/>
			</g>
			<g class="st3">
				<path class="st4" d="M26.5,47.8v1.4c0.3,0.1,0.6,0.1,1,0.1v-1.5H26.5z"/>
			</g>
			<g>
				<path class="st5" d="M29.3,49.2v-3c1.1,0.1,2,0.3,2.4,0.7v0.8C31.7,48.4,30.7,49,29.3,49.2z"/>
			</g>
			<g>
				<ellipse class="st6" cx="28" cy="47" rx="3.7" ry="1.6"/>
			</g>
			<g>
				<path class="st4" d="M25.9,48.3c-0.6-0.2-1.1-0.5-1.3-0.8l3-2c0.2,0,0.3,0,0.5,0c0.6,0,1.2,0.1,1.8,0.2L25.9,48.3z"/>
			</g>
			<g>
				<path class="st4" d="M27.5,48.5c-0.3,0-0.6-0.1-0.9-0.1l3.9-2.5c0.2,0.1,0.4,0.2,0.6,0.3L27.5,48.5z"/>
			</g>
		</g>
		<g>
			<g>
				<ellipse class="st1" cx="28" cy="46.8" rx="3.7" ry="1.6"/>
			</g>
			<g>
				<path class="st2" d="M24.3,45.9v0.8c0,0.6,0.9,1.2,2.2,1.4c0.3,0.1,0.6,0.1,1,0.1c0.2,0,0.3,0,0.5,0c0.5,0,1,0,1.5-0.1
					c1.3-0.2,2-0.8,2-1.5l0.2-0.8c-0.5-0.6-2.1-0.7-3.7-0.7C26.7,45.1,25,45.5,24.3,45.9z"/>
			</g>
			<g class="st3">
				<path class="st4" d="M26.5,46.7v1.4c0.3,0.1,0.6,0.1,1,0.1v-1.5H26.5z"/>
			</g>
			<g>
				<path class="st5" d="M29.3,48.2v-3c1.1,0.1,2,0.3,2.4,0.7v0.8C31.7,47.4,30.7,47.9,29.3,48.2z"/>
			</g>
			<g>
				<ellipse class="st6" cx="28" cy="45.9" rx="3.7" ry="1.6"/>
			</g>
			<g>
				<path class="st4" d="M25.9,47.2c-0.6-0.2-1.1-0.5-1.3-0.8l3-2c0.2,0,0.3,0,0.5,0c0.6,0,1.2,0.1,1.8,0.2L25.9,47.2z"/>
			</g>
			<g>
				<path class="st4" d="M27.5,47.4c-0.3,0-0.6-0.1-0.9-0.1l3.9-2.5c0.2,0.1,0.4,0.2,0.6,0.3L27.5,47.4z"/>
			</g>
		</g>
		<g>
			<g>
				<ellipse class="st1" cx="28" cy="45.8" rx="3.7" ry="1.6"/>
			</g>
			<g>
				<path class="st2" d="M24.3,44.8v0.8c0,0.6,0.9,1.2,2.2,1.4c0.3,0.1,0.6,0.1,1,0.1c0.2,0,0.3,0,0.5,0c0.5,0,1,0,1.5-0.1
					c1.3-0.2,2-0.8,2-1.5l0.2-0.8C31.2,44.2,29.6,44,28,44C26.7,44,25,44.4,24.3,44.8z"/>
			</g>
			<g class="st3">
				<path class="st4" d="M26.5,45.7V47c0.3,0.1,0.6,0.1,1,0.1v-1.5H26.5z"/>
			</g>
			<g>
				<path class="st5" d="M29.3,47.1v-3c1.1,0.1,2,0.3,2.4,0.7v0.8C31.7,46.3,30.7,46.8,29.3,47.1z"/>
			</g>
			<g>
				<ellipse class="st6" cx="28" cy="44.8" rx="3.7" ry="1.6"/>
			</g>
			<g>
				<path class="st4" d="M25.9,46.1c-0.6-0.2-1.1-0.5-1.3-0.8l3-2c0.2,0,0.3,0,0.5,0c0.6,0,1.2,0.1,1.8,0.2L25.9,46.1z"/>
			</g>
			<g>
				<path class="st4" d="M27.5,46.4c-0.3,0-0.6-0.1-0.9-0.1l3.9-2.5c0.2,0.1,0.4,0.2,0.6,0.3L27.5,46.4z"/>
			</g>
		</g>
		<g>
			<g>
				<ellipse class="st1" cx="28" cy="44.7" rx="3.7" ry="1.6"/>
			</g>
			<g>
				<path class="st2" d="M24.3,43.8v0.8c0,0.6,0.9,1.2,2.2,1.4c0.3,0.1,0.6,0.1,1,0.1c0.2,0,0.3,0,0.5,0c0.5,0,1,0,1.5-0.1
					c1.3-0.2,2-0.8,2-1.5l0.2-0.8c-0.5-0.6-2.1-0.7-3.7-0.7C26.7,42.9,25,43.3,24.3,43.8z"/>
			</g>
			<g class="st3">
				<path class="st4" d="M26.5,44.6v1.4c0.3,0.1,0.6,0.1,1,0.1v-1.5H26.5z"/>
			</g>
			<g>
				<path class="st5" d="M29.3,46v-3c1.1,0.1,2,0.3,2.4,0.7v0.8C31.7,45.2,30.7,45.7,29.3,46z"/>
			</g>
			<g>
				<ellipse class="st6" cx="28" cy="43.8" rx="3.7" ry="1.6"/>
			</g>
			<g>
				<path class="st4" d="M25.9,45c-0.6-0.2-1.1-0.5-1.3-0.8l3-2c0.2,0,0.3,0,0.5,0c0.6,0,1.2,0.1,1.8,0.2L25.9,45z"/>
			</g>
			<g>
				<path class="st4" d="M27.5,45.3c-0.3,0-0.6-0.1-0.9-0.1l3.9-2.5c0.2,0.1,0.4,0.2,0.6,0.3L27.5,45.3z"/>
			</g>
		</g>
		<g>
			<g>
				<ellipse class="st1" cx="28" cy="43.6" rx="3.7" ry="1.6"/>
			</g>
			<g>
				<path class="st2" d="M24.3,42.7v0.8c0,0.6,0.9,1.2,2.2,1.4c0.3,0.1,0.6,0.1,1,0.1c0.2,0,0.3,0,0.5,0c0.5,0,1,0,1.5-0.1
					c1.3-0.2,2-0.8,2-1.5l0.2-0.8c-0.5-0.6-2.1-0.7-3.7-0.7C26.7,41.8,25,42.3,24.3,42.7z"/>
			</g>
			<g class="st3">
				<path class="st4" d="M26.5,43.5v1.4c0.3,0.1,0.6,0.1,1,0.1v-1.5H26.5z"/>
			</g>
			<g>
				<path class="st5" d="M29.3,44.9v-3c1.1,0.1,2,0.3,2.4,0.7v0.8C31.7,44.1,30.7,44.7,29.3,44.9z"/>
			</g>
			<g>
				<ellipse class="st6" cx="28" cy="42.7" rx="3.7" ry="1.6"/>
			</g>
			<g>
				<path class="st4" d="M25.9,43.9c-0.6-0.2-1.1-0.5-1.3-0.8l3-2c0.2,0,0.3,0,0.5,0c0.6,0,1.2,0.1,1.8,0.2L25.9,43.9z"/>
			</g>
			<g>
				<path class="st4" d="M27.5,44.2c-0.3,0-0.6-0.1-0.9-0.1l3.9-2.5c0.2,0.1,0.4,0.2,0.6,0.3L27.5,44.2z"/>
			</g>
		</g>
		<g>
			<g>
				<ellipse class="st1" cx="28" cy="42.5" rx="3.7" ry="1.6"/>
			</g>
			<g>
				<path class="st2" d="M24.3,41.6v0.8c0,0.6,0.9,1.2,2.2,1.4c0.3,0.1,0.6,0.1,1,0.1c0.2,0,0.3,0,0.5,0c0.5,0,1,0,1.5-0.1
					c1.3-0.2,2-0.8,2-1.5l0.2-0.8c-0.5-0.6-2.1-0.7-3.7-0.7C26.7,40.8,25,41.2,24.3,41.6z"/>
			</g>
			<g class="st3">
				<path class="st4" d="M26.5,42.4v1.4c0.3,0.1,0.6,0.1,1,0.1v-1.5H26.5z"/>
			</g>
			<g>
				<path class="st5" d="M29.3,43.8v-3c1.1,0.1,2,0.3,2.4,0.7v0.8C31.7,43,30.7,43.6,29.3,43.8z"/>
			</g>
			<g>
				<ellipse class="st6" cx="28" cy="41.6" rx="3.7" ry="1.6"/>
			</g>
			<g>
				<path class="st4" d="M25.9,42.8c-0.6-0.2-1.1-0.5-1.3-0.8l3-2c0.2,0,0.3,0,0.5,0c0.6,0,1.2,0.1,1.8,0.2L25.9,42.8z"/>
			</g>
			<g>
				<path class="st4" d="M27.5,43.1c-0.3,0-0.6-0.1-0.9-0.1l3.9-2.5c0.2,0.1,0.4,0.2,0.6,0.3L27.5,43.1z"/>
			</g>
		</g>
		<g>
			<g>
				<ellipse class="st1" cx="28" cy="41.4" rx="3.7" ry="1.6"/>
			</g>
			<g>
				<path class="st2" d="M24.3,40.5v0.8c0,0.6,0.9,1.2,2.2,1.4c0.3,0.1,0.6,0.1,1,0.1c0.2,0,0.3,0,0.5,0c0.5,0,1,0,1.5-0.1
					c1.3-0.2,2-0.8,2-1.5l0.2-0.8c-0.5-0.6-2.1-0.7-3.7-0.7C26.7,39.7,25,40.1,24.3,40.5z"/>
			</g>
			<g class="st3">
				<path class="st4" d="M26.5,41.3v1.4c0.3,0.1,0.6,0.1,1,0.1v-1.5H26.5z"/>
			</g>
			<g>
				<path class="st5" d="M29.3,42.7v-3c1.1,0.1,2,0.3,2.4,0.7v0.8C31.7,41.9,30.7,42.5,29.3,42.7z"/>
			</g>
			<g>
				<ellipse class="st6" cx="28" cy="40.5" rx="3.7" ry="1.6"/>
			</g>
			<g>
				<path class="st4" d="M25.9,41.7c-0.6-0.2-1.1-0.5-1.3-0.8l3-2c0.2,0,0.3,0,0.5,0c0.6,0,1.2,0.1,1.8,0.2L25.9,41.7z"/>
			</g>
			<g>
				<path class="st4" d="M27.5,42c-0.3,0-0.6-0.1-0.9-0.1l3.9-2.5c0.2,0.1,0.4,0.2,0.6,0.3L27.5,42z"/>
			</g>
		</g>
		<g>
			<g>
				<ellipse class="st1" cx="28" cy="40.3" rx="3.7" ry="1.6"/>
			</g>
			<g>
				<path class="st2" d="M24.3,39.4v0.8c0,0.6,0.9,1.2,2.2,1.4c0.3,0.1,0.6,0.1,1,0.1c0.2,0,0.3,0,0.5,0c0.5,0,1,0,1.5-0.1
					c1.3-0.2,2-0.8,2-1.5l0.2-0.8c-0.5-0.6-2.1-0.7-3.7-0.7C26.7,38.6,25,39,24.3,39.4z"/>
			</g>
			<g class="st3">
				<path class="st4" d="M26.5,40.2v1.4c0.3,0.1,0.6,0.1,1,0.1v-1.5H26.5z"/>
			</g>
			<g>
				<path class="st5" d="M29.3,41.6v-3c1.1,0.1,2,0.3,2.4,0.7v0.8C31.7,40.8,30.7,41.4,29.3,41.6z"/>
			</g>
			<g>
				<ellipse class="st6" cx="28" cy="39.4" rx="3.7" ry="1.6"/>
			</g>
			<g>
				<path class="st4" d="M25.9,40.6c-0.6-0.2-1.1-0.5-1.3-0.8l3-2c0.2,0,0.3,0,0.5,0c0.6,0,1.2,0.1,1.8,0.2L25.9,40.6z"/>
			</g>
			<g>
				<path class="st4" d="M27.5,40.9c-0.3,0-0.6-0.1-0.9-0.1l3.9-2.5c0.2,0.1,0.4,0.2,0.6,0.3L27.5,40.9z"/>
			</g>
		</g>
		<g>
			<g>
				<ellipse class="st1" cx="28" cy="39.2" rx="3.7" ry="1.6"/>
			</g>
			<g>
				<path class="st2" d="M24.3,38.3v0.8c0,0.6,0.9,1.2,2.2,1.4c0.3,0.1,0.6,0.1,1,0.1c0.2,0,0.3,0,0.5,0c0.5,0,1,0,1.5-0.1
					c1.3-0.2,2-0.8,2-1.5l0.2-0.8c-0.5-0.6-2.1-0.7-3.7-0.7C26.7,37.5,25,37.9,24.3,38.3z"/>
			</g>
			<g class="st3">
				<path class="st4" d="M26.5,39.1v1.4c0.3,0.1,0.6,0.1,1,0.1v-1.5H26.5z"/>
			</g>
			<g>
				<path class="st5" d="M29.3,40.5v-3c1.1,0.1,2,0.3,2.4,0.7v0.8C31.7,39.7,30.7,40.3,29.3,40.5z"/>
			</g>
			<g>
				<ellipse class="st6" cx="28" cy="38.3" rx="3.7" ry="1.6"/>
			</g>
			<g>
				<path class="st4" d="M25.9,39.5c-0.6-0.2-1.1-0.5-1.3-0.8l3-2c0.2,0,0.3,0,0.5,0c0.6,0,1.2,0.1,1.8,0.2L25.9,39.5z"/>
			</g>
			<g>
				<path class="st4" d="M27.5,39.8c-0.3,0-0.6-0.1-0.9-0.1l3.9-2.5c0.2,0.1,0.4,0.2,0.6,0.3L27.5,39.8z"/>
			</g>
		</g>
		<g>
			<g>
				<ellipse class="st1" cx="28" cy="38.1" rx="3.7" ry="1.6"/>
			</g>
			<g>
				<path class="st2" d="M24.3,37.2V38c0,0.6,0.9,1.2,2.2,1.4c0.3,0.1,0.6,0.1,1,0.1c0.2,0,0.3,0,0.5,0c0.5,0,1,0,1.5-0.1
					c1.3-0.2,2-0.8,2-1.5l0.2-0.8c-0.5-0.6-2.1-0.7-3.7-0.7C26.7,36.4,25,36.8,24.3,37.2z"/>
			</g>
			<g class="st3">
				<path class="st4" d="M26.5,38v1.4c0.3,0.1,0.6,0.1,1,0.1V38H26.5z"/>
			</g>
			<g>
				<path class="st5" d="M29.3,39.4v-3c1.1,0.1,2,0.3,2.4,0.7V38C31.7,38.6,30.7,39.2,29.3,39.4z"/>
			</g>
			<g>
				<ellipse class="st6" cx="28" cy="37.2" rx="3.7" ry="1.6"/>
			</g>
			<g>
				<path class="st4" d="M25.9,38.4c-0.6-0.2-1.1-0.5-1.3-0.8l3-2c0.2,0,0.3,0,0.5,0c0.6,0,1.2,0.1,1.8,0.2L25.9,38.4z"/>
			</g>
			<g>
				<path class="st4" d="M27.5,38.7c-0.3,0-0.6-0.1-0.9-0.1l3.9-2.5c0.2,0.1,0.4,0.2,0.6,0.3L27.5,38.7z"/>
			</g>
		</g>
		<g>
			<g>
				<ellipse class="st1" cx="28" cy="37" rx="3.7" ry="1.6"/>
			</g>
			<g>
				<path class="st2" d="M24.3,36.1v0.8c0,0.6,0.9,1.2,2.2,1.4c0.3,0.1,0.6,0.1,1,0.1c0.2,0,0.3,0,0.5,0c0.5,0,1,0,1.5-0.1
					c1.3-0.2,2-0.8,2-1.5l0.2-0.8c-0.5-0.6-2.1-0.7-3.7-0.7C26.7,35.3,25,35.7,24.3,36.1z"/>
			</g>
			<g class="st3">
				<path class="st4" d="M26.5,36.9v1.4c0.3,0.1,0.6,0.1,1,0.1v-1.5H26.5z"/>
			</g>
			<g>
				<path class="st5" d="M29.3,38.3v-3c1.1,0.1,2,0.3,2.4,0.7v0.8C31.7,37.6,30.7,38.1,29.3,38.3z"/>
			</g>
			<g>
				<ellipse class="st6" cx="28" cy="36.1" rx="3.7" ry="1.6"/>
			</g>
			<g>
				<path class="st4" d="M25.9,37.4c-0.6-0.2-1.1-0.5-1.3-0.8l3-2c0.2,0,0.3,0,0.5,0c0.6,0,1.2,0.1,1.8,0.2L25.9,37.4z"/>
			</g>
			<g>
				<path class="st4" d="M27.5,37.6c-0.3,0-0.6-0.1-0.9-0.1l3.9-2.5c0.2,0.1,0.4,0.2,0.6,0.3L27.5,37.6z"/>
			</g>
		</g>
		<g>
			<g>
				<ellipse class="st1" cx="28" cy="36" rx="3.7" ry="1.6"/>
			</g>
			<g>
				<path class="st2" d="M24.3,35v0.8c0,0.6,0.9,1.2,2.2,1.4c0.3,0.1,0.6,0.1,1,0.1c0.2,0,0.3,0,0.5,0c0.5,0,1,0,1.5-0.1
					c1.3-0.2,2-0.8,2-1.5l0.2-0.8c-0.5-0.6-2.1-0.7-3.7-0.7C26.7,34.2,25,34.6,24.3,35z"/>
			</g>
			<g class="st3">
				<path class="st4" d="M26.5,35.8v1.4c0.3,0.1,0.6,0.1,1,0.1v-1.5H26.5z"/>
			</g>
			<g>
				<path class="st5" d="M29.3,37.3v-3c1.1,0.1,2,0.3,2.4,0.7v0.8C31.7,36.5,30.7,37,29.3,37.3z"/>
			</g>
			<g>
				<ellipse class="st6" cx="28" cy="35" rx="3.7" ry="1.6"/>
			</g>
			<g>
				<path class="st4" d="M25.9,36.3c-0.6-0.2-1.1-0.5-1.3-0.8l3-2c0.2,0,0.3,0,0.5,0c0.6,0,1.2,0.1,1.8,0.2L25.9,36.3z"/>
			</g>
			<g>
				<path class="st4" d="M27.5,36.5c-0.3,0-0.6-0.1-0.9-0.1l3.9-2.5c0.2,0.1,0.4,0.2,0.6,0.3L27.5,36.5z"/>
			</g>
		</g>
		<g>
			<g>
				<ellipse class="st1" cx="28" cy="34.9" rx="3.7" ry="1.6"/>
			</g>
			<g>
				<path class="st2" d="M24.3,33.9v0.8c0,0.6,0.9,1.2,2.2,1.4c0.3,0.1,0.6,0.1,1,0.1c0.2,0,0.3,0,0.5,0c0.5,0,1,0,1.5-0.1
					c1.3-0.2,2-0.8,2-1.5l0.2-0.8c-0.5-0.6-2.1-0.7-3.7-0.7C26.7,33.1,25,33.5,24.3,33.9z"/>
			</g>
			<g class="st3">
				<path class="st4" d="M26.5,34.8v1.4c0.3,0.1,0.6,0.1,1,0.1v-1.5H26.5z"/>
			</g>
			<g>
				<path class="st5" d="M29.3,36.2v-3c1.1,0.1,2,0.3,2.4,0.7v0.8C31.7,35.4,30.7,35.9,29.3,36.2z"/>
			</g>
			<g>
				<ellipse class="st6" cx="28" cy="34" rx="3.7" ry="1.6"/>
			</g>
			<g>
				<path class="st4" d="M25.9,35.2c-0.6-0.2-1.1-0.5-1.3-0.8l3-2c0.2,0,0.3,0,0.5,0c0.6,0,1.2,0.1,1.8,0.2L25.9,35.2z"/>
			</g>
			<g>
				<path class="st4" d="M27.5,35.5c-0.3,0-0.6-0.1-0.9-0.1l3.9-2.5c0.2,0.1,0.4,0.2,0.6,0.3L27.5,35.5z"/>
			</g>
		</g>
		<g>
			<g>
				<ellipse class="st1" cx="28" cy="33.8" rx="3.7" ry="1.6"/>
			</g>
			<g>
				<path class="st2" d="M24.3,32.9v0.8c0,0.6,0.9,1.2,2.2,1.4c0.3,0.1,0.6,0.1,1,0.1c0.2,0,0.3,0,0.5,0c0.5,0,1,0,1.5-0.1
					c1.3-0.2,2-0.8,2-1.5l0.2-0.8C31.2,32.2,29.6,32,28,32C26.7,32,25,32.5,24.3,32.9z"/>
			</g>
			<g class="st3">
				<path class="st4" d="M26.5,33.7v1.4c0.3,0.1,0.6,0.1,1,0.1v-1.5H26.5z"/>
			</g>
			<g>
				<path class="st5" d="M29.3,35.1v-3c1.1,0.1,2,0.3,2.4,0.7v0.8C31.7,34.3,30.7,34.9,29.3,35.1z"/>
			</g>
			<g>
				<ellipse class="st6" cx="28" cy="32.9" rx="3.7" ry="1.6"/>
			</g>
			<g>
				<path class="st4" d="M25.9,34.1c-0.6-0.2-1.1-0.5-1.3-0.8l3-2c0.2,0,0.3,0,0.5,0c0.6,0,1.2,0.1,1.8,0.2L25.9,34.1z"/>
			</g>
			<g>
				<path class="st4" d="M27.5,34.4c-0.3,0-0.6-0.1-0.9-0.1l3.9-2.5c0.2,0.1,0.4,0.2,0.6,0.3L27.5,34.4z"/>
			</g>
		</g>
	</g>
	<g>
		<g>
			<g>
				<ellipse class="st1" cx="33.9" cy="52.5" rx="3.7" ry="1.6"/>
			</g>
			<g>
				<path class="st2" d="M30.2,51.6v0.8c0,0.6,0.9,1.2,2.2,1.4c0.3,0.1,0.6,0.1,1,0.1c0.2,0,0.3,0,0.5,0c0.5,0,1,0,1.5-0.1
					c1.3-0.2,2-0.8,2-1.5l0.2-0.8c-0.5-0.6-2.1-0.7-3.7-0.7C32.7,50.8,30.9,51.2,30.2,51.6z"/>
			</g>
			<g class="st3">
				<path class="st4" d="M32.5,52.4v1.4c0.3,0.1,0.6,0.1,1,0.1v-1.5H32.5z"/>
			</g>
			<g>
				<path class="st5" d="M35.3,53.8v-3c1.1,0.1,2,0.3,2.4,0.7v0.8C37.6,53,36.7,53.6,35.3,53.8z"/>
			</g>
			<g>
				<ellipse class="st6" cx="33.9" cy="51.6" rx="3.7" ry="1.6"/>
			</g>
			<g>
				<path class="st4" d="M31.8,52.8c-0.6-0.2-1.1-0.5-1.3-0.8l3-2c0.2,0,0.3,0,0.5,0c0.6,0,1.2,0.1,1.8,0.2L31.8,52.8z"/>
			</g>
			<g>
				<path class="st4" d="M33.5,53.1c-0.3,0-0.6-0.1-0.9-0.1l3.9-2.5c0.2,0.1,0.4,0.2,0.6,0.3L33.5,53.1z"/>
			</g>
		</g>
		<g>
			<g>
				<ellipse class="st1" cx="33.9" cy="51.4" rx="3.7" ry="1.6"/>
			</g>
			<g>
				<path class="st2" d="M30.2,50.5v0.8c0,0.6,0.9,1.2,2.2,1.4c0.3,0.1,0.6,0.1,1,0.1c0.2,0,0.3,0,0.5,0c0.5,0,1,0,1.5-0.1
					c1.3-0.2,2-0.8,2-1.5l0.2-0.8c-0.5-0.6-2.1-0.7-3.7-0.7C32.7,49.7,30.9,50.1,30.2,50.5z"/>
			</g>
			<g class="st3">
				<path class="st4" d="M32.5,51.3v1.4c0.3,0.1,0.6,0.1,1,0.1v-1.5H32.5z"/>
			</g>
			<g>
				<path class="st5" d="M35.3,52.7v-3c1.1,0.1,2,0.3,2.4,0.7v0.8C37.6,51.9,36.7,52.5,35.3,52.7z"/>
			</g>
			<g>
				<ellipse class="st6" cx="33.9" cy="50.5" rx="3.7" ry="1.6"/>
			</g>
			<g>
				<path class="st4" d="M31.8,51.7c-0.6-0.2-1.1-0.5-1.3-0.8l3-2c0.2,0,0.3,0,0.5,0c0.6,0,1.2,0.1,1.8,0.2L31.8,51.7z"/>
			</g>
			<g>
				<path class="st4" d="M33.5,52c-0.3,0-0.6-0.1-0.9-0.1l3.9-2.5c0.2,0.1,0.4,0.2,0.6,0.3L33.5,52z"/>
			</g>
		</g>
		<g>
			<g>
				<ellipse class="st1" cx="33.9" cy="50.3" rx="3.7" ry="1.6"/>
			</g>
			<g>
				<path class="st2" d="M30.2,49.4v0.8c0,0.6,0.9,1.2,2.2,1.4c0.3,0.1,0.6,0.1,1,0.1c0.2,0,0.3,0,0.5,0c0.5,0,1,0,1.5-0.1
					c1.3-0.2,2-0.8,2-1.5l0.2-0.8c-0.5-0.6-2.1-0.7-3.7-0.7C32.7,48.6,30.9,49,30.2,49.4z"/>
			</g>
			<g class="st3">
				<path class="st4" d="M32.5,50.2v1.4c0.3,0.1,0.6,0.1,1,0.1v-1.5H32.5z"/>
			</g>
			<g>
				<path class="st5" d="M35.3,51.6v-3c1.1,0.1,2,0.3,2.4,0.7v0.8C37.6,50.8,36.7,51.4,35.3,51.6z"/>
			</g>
			<g>
				<ellipse class="st6" cx="33.9" cy="49.4" rx="3.7" ry="1.6"/>
			</g>
			<g>
				<path class="st4" d="M31.8,50.6c-0.6-0.2-1.1-0.5-1.3-0.8l3-2c0.2,0,0.3,0,0.5,0c0.6,0,1.2,0.1,1.8,0.2L31.8,50.6z"/>
			</g>
			<g>
				<path class="st4" d="M33.5,50.9c-0.3,0-0.6-0.1-0.9-0.1l3.9-2.5c0.2,0.1,0.4,0.2,0.6,0.3L33.5,50.9z"/>
			</g>
		</g>
		<g>
			<g>
				<ellipse class="st1" cx="33.9" cy="49.2" rx="3.7" ry="1.6"/>
			</g>
			<g>
				<path class="st2" d="M30.2,48.3v0.8c0,0.6,0.9,1.2,2.2,1.4c0.3,0.1,0.6,0.1,1,0.1c0.2,0,0.3,0,0.5,0c0.5,0,1,0,1.5-0.1
					c1.3-0.2,2-0.8,2-1.5l0.2-0.8c-0.5-0.6-2.1-0.7-3.7-0.7C32.7,47.5,30.9,47.9,30.2,48.3z"/>
			</g>
			<g class="st3">
				<path class="st4" d="M32.5,49.1v1.4c0.3,0.1,0.6,0.1,1,0.1v-1.5H32.5z"/>
			</g>
			<g>
				<path class="st5" d="M35.3,50.5v-3c1.1,0.1,2,0.3,2.4,0.7v0.8C37.6,49.8,36.7,50.3,35.3,50.5z"/>
			</g>
			<g>
				<ellipse class="st6" cx="33.9" cy="48.3" rx="3.7" ry="1.6"/>
			</g>
			<g>
				<path class="st4" d="M31.8,49.6c-0.6-0.2-1.1-0.5-1.3-0.8l3-2c0.2,0,0.3,0,0.5,0c0.6,0,1.2,0.1,1.8,0.2L31.8,49.6z"/>
			</g>
			<g>
				<path class="st4" d="M33.5,49.8c-0.3,0-0.6-0.1-0.9-0.1l3.9-2.5c0.2,0.1,0.4,0.2,0.6,0.3L33.5,49.8z"/>
			</g>
		</g>
		<g>
			<g>
				<ellipse class="st1" cx="33.9" cy="48.2" rx="3.7" ry="1.6"/>
			</g>
			<g>
				<path class="st2" d="M30.2,47.2V48c0,0.6,0.9,1.2,2.2,1.4c0.3,0.1,0.6,0.1,1,0.1c0.2,0,0.3,0,0.5,0c0.5,0,1,0,1.5-0.1
					c1.3-0.2,2-0.8,2-1.5l0.2-0.8c-0.5-0.6-2.1-0.7-3.7-0.7C32.7,46.4,30.9,46.8,30.2,47.2z"/>
			</g>
			<g class="st3">
				<path class="st4" d="M32.5,48v1.4c0.3,0.1,0.6,0.1,1,0.1V48H32.5z"/>
			</g>
			<g>
				<path class="st5" d="M35.3,49.5v-3c1.1,0.1,2,0.3,2.4,0.7V48C37.6,48.7,36.7,49.2,35.3,49.5z"/>
			</g>
			<g>
				<ellipse class="st6" cx="33.9" cy="47.2" rx="3.7" ry="1.6"/>
			</g>
			<g>
				<path class="st4" d="M31.8,48.5c-0.6-0.2-1.1-0.5-1.3-0.8l3-2c0.2,0,0.3,0,0.5,0c0.6,0,1.2,0.1,1.8,0.2L31.8,48.5z"/>
			</g>
			<g>
				<path class="st4" d="M33.5,48.8c-0.3,0-0.6-0.1-0.9-0.1l3.9-2.5c0.2,0.1,0.4,0.2,0.6,0.3L33.5,48.8z"/>
			</g>
		</g>
		<g>
			<g>
				<ellipse class="st1" cx="33.9" cy="47.1" rx="3.7" ry="1.6"/>
			</g>
			<g>
				<path class="st2" d="M30.2,46.1v0.8c0,0.6,0.9,1.2,2.2,1.4c0.3,0.1,0.6,0.1,1,0.1c0.2,0,0.3,0,0.5,0c0.5,0,1,0,1.5-0.1
					c1.3-0.2,2-0.8,2-1.5l0.2-0.8c-0.5-0.6-2.1-0.7-3.7-0.7C32.7,45.3,30.9,45.7,30.2,46.1z"/>
			</g>
			<g class="st3">
				<path class="st4" d="M32.5,47v1.4c0.3,0.1,0.6,0.1,1,0.1V47H32.5z"/>
			</g>
			<g>
				<path class="st5" d="M35.3,48.4v-3c1.1,0.1,2,0.3,2.4,0.7v0.8C37.6,47.6,36.7,48.1,35.3,48.4z"/>
			</g>
			<g>
				<ellipse class="st6" cx="33.9" cy="46.2" rx="3.7" ry="1.6"/>
			</g>
			<g>
				<path class="st4" d="M31.8,47.4c-0.6-0.2-1.1-0.5-1.3-0.8l3-2c0.2,0,0.3,0,0.5,0c0.6,0,1.2,0.1,1.8,0.2L31.8,47.4z"/>
			</g>
			<g>
				<path class="st4" d="M33.5,47.7c-0.3,0-0.6-0.1-0.9-0.1l3.9-2.5c0.2,0.1,0.4,0.2,0.6,0.3L33.5,47.7z"/>
			</g>
		</g>
		<g>
			<g>
				<ellipse class="st1" cx="33.9" cy="46" rx="3.7" ry="1.6"/>
			</g>
			<g>
				<path class="st2" d="M30.2,45.1v0.8c0,0.6,0.9,1.2,2.2,1.4c0.3,0.1,0.6,0.1,1,0.1c0.2,0,0.3,0,0.5,0c0.5,0,1,0,1.5-0.1
					c1.3-0.2,2-0.8,2-1.5l0.2-0.8c-0.5-0.6-2.1-0.7-3.7-0.7C32.7,44.2,30.9,44.7,30.2,45.1z"/>
			</g>
			<g class="st3">
				<path class="st4" d="M32.5,45.9v1.4c0.3,0.1,0.6,0.1,1,0.1v-1.5H32.5z"/>
			</g>
			<g>
				<path class="st5" d="M35.3,47.3v-3c1.1,0.1,2,0.3,2.4,0.7v0.8C37.6,46.5,36.7,47.1,35.3,47.3z"/>
			</g>
			<g>
				<ellipse class="st6" cx="33.9" cy="45.1" rx="3.7" ry="1.6"/>
			</g>
			<g>
				<path class="st4" d="M31.8,46.3c-0.6-0.2-1.1-0.5-1.3-0.8l3-2c0.2,0,0.3,0,0.5,0c0.6,0,1.2,0.1,1.8,0.2L31.8,46.3z"/>
			</g>
			<g>
				<path class="st4" d="M33.5,46.6c-0.3,0-0.6-0.1-0.9-0.1l3.9-2.5c0.2,0.1,0.4,0.2,0.6,0.3L33.5,46.6z"/>
			</g>
		</g>
		<g>
			<g>
				<ellipse class="st1" cx="33.9" cy="44.9" rx="3.7" ry="1.6"/>
			</g>
			<g>
				<path class="st2" d="M30.2,44v0.8c0,0.6,0.9,1.2,2.2,1.4c0.3,0.1,0.6,0.1,1,0.1c0.2,0,0.3,0,0.5,0c0.5,0,1,0,1.5-0.1
					c1.3-0.2,2-0.8,2-1.5l0.2-0.8c-0.5-0.6-2.1-0.7-3.7-0.7C32.7,43.2,30.9,43.6,30.2,44z"/>
			</g>
			<g class="st3">
				<path class="st4" d="M32.5,44.8v1.4c0.3,0.1,0.6,0.1,1,0.1v-1.5H32.5z"/>
			</g>
			<g>
				<path class="st5" d="M35.3,46.2v-3c1.1,0.1,2,0.3,2.4,0.7v0.8C37.6,45.4,36.7,46,35.3,46.2z"/>
			</g>
			<g>
				<ellipse class="st6" cx="33.9" cy="44" rx="3.7" ry="1.6"/>
			</g>
			<g>
				<path class="st4" d="M31.8,45.2c-0.6-0.2-1.1-0.5-1.3-0.8l3-2c0.2,0,0.3,0,0.5,0c0.6,0,1.2,0.1,1.8,0.2L31.8,45.2z"/>
			</g>
			<g>
				<path class="st4" d="M33.5,45.5c-0.3,0-0.6-0.1-0.9-0.1l3.9-2.5c0.2,0.1,0.4,0.2,0.6,0.3L33.5,45.5z"/>
			</g>
		</g>
		<g>
			<g>
				<ellipse class="st1" cx="33.9" cy="43.8" rx="3.7" ry="1.6"/>
			</g>
			<g>
				<path class="st2" d="M30.2,42.9v0.8c0,0.6,0.9,1.2,2.2,1.4c0.3,0.1,0.6,0.1,1,0.1c0.2,0,0.3,0,0.5,0c0.5,0,1,0,1.5-0.1
					c1.3-0.2,2-0.8,2-1.5l0.2-0.8c-0.5-0.6-2.1-0.7-3.7-0.7C32.7,42.1,30.9,42.5,30.2,42.9z"/>
			</g>
			<g class="st3">
				<path class="st4" d="M32.5,43.7v1.4c0.3,0.1,0.6,0.1,1,0.1v-1.5H32.5z"/>
			</g>
			<g>
				<path class="st5" d="M35.3,45.1v-3c1.1,0.1,2,0.3,2.4,0.7v0.8C37.6,44.3,36.7,44.9,35.3,45.1z"/>
			</g>
			<g>
				<ellipse class="st6" cx="33.9" cy="42.9" rx="3.7" ry="1.6"/>
			</g>
			<g>
				<path class="st4" d="M31.8,44.1c-0.6-0.2-1.1-0.5-1.3-0.8l3-2c0.2,0,0.3,0,0.5,0c0.6,0,1.2,0.1,1.8,0.2L31.8,44.1z"/>
			</g>
			<g>
				<path class="st4" d="M33.5,44.4c-0.3,0-0.6-0.1-0.9-0.1l3.9-2.5c0.2,0.1,0.4,0.2,0.6,0.3L33.5,44.4z"/>
			</g>
		</g>
		<g>
			<g>
				<ellipse class="st1" cx="33.9" cy="42.7" rx="3.7" ry="1.6"/>
			</g>
			<g>
				<path class="st2" d="M30.2,41.8v0.8c0,0.6,0.9,1.2,2.2,1.4c0.3,0.1,0.6,0.1,1,0.1c0.2,0,0.3,0,0.5,0c0.5,0,1,0,1.5-0.1
					c1.3-0.2,2-0.8,2-1.5l0.2-0.8c-0.5-0.6-2.1-0.7-3.7-0.7C32.7,41,30.9,41.4,30.2,41.8z"/>
			</g>
			<g class="st3">
				<path class="st4" d="M32.5,42.6V44c0.3,0.1,0.6,0.1,1,0.1v-1.5H32.5z"/>
			</g>
			<g>
				<path class="st5" d="M35.3,44v-3c1.1,0.1,2,0.3,2.4,0.7v0.8C37.6,43.2,36.7,43.8,35.3,44z"/>
			</g>
			<g>
				<ellipse class="st6" cx="33.9" cy="41.8" rx="3.7" ry="1.6"/>
			</g>
			<g>
				<path class="st4" d="M31.8,43c-0.6-0.2-1.1-0.5-1.3-0.8l3-2c0.2,0,0.3,0,0.5,0c0.6,0,1.2,0.1,1.8,0.2L31.8,43z"/>
			</g>
			<g>
				<path class="st4" d="M33.5,43.3c-0.3,0-0.6-0.1-0.9-0.1l3.9-2.5c0.2,0.1,0.4,0.2,0.6,0.3L33.5,43.3z"/>
			</g>
		</g>
		<g>
			<g>
				<ellipse class="st1" cx="33.9" cy="41.6" rx="3.7" ry="1.6"/>
			</g>
			<g>
				<path class="st2" d="M30.2,40.7v0.8c0,0.6,0.9,1.2,2.2,1.4c0.3,0.1,0.6,0.1,1,0.1c0.2,0,0.3,0,0.5,0c0.5,0,1,0,1.5-0.1
					c1.3-0.2,2-0.8,2-1.5l0.2-0.8c-0.5-0.6-2.1-0.7-3.7-0.7C32.7,39.9,30.9,40.3,30.2,40.7z"/>
			</g>
			<g class="st3">
				<path class="st4" d="M32.5,41.5v1.4c0.3,0.1,0.6,0.1,1,0.1v-1.5H32.5z"/>
			</g>
			<g>
				<path class="st5" d="M35.3,42.9v-3c1.1,0.1,2,0.3,2.4,0.7v0.8C37.6,42.1,36.7,42.7,35.3,42.9z"/>
			</g>
			<g>
				<ellipse class="st6" cx="33.9" cy="40.7" rx="3.7" ry="1.6"/>
			</g>
			<g>
				<path class="st4" d="M31.8,41.9c-0.6-0.2-1.1-0.5-1.3-0.8l3-2c0.2,0,0.3,0,0.5,0c0.6,0,1.2,0.1,1.8,0.2L31.8,41.9z"/>
			</g>
			<g>
				<path class="st4" d="M33.5,42.2c-0.3,0-0.6-0.1-0.9-0.1l3.9-2.5c0.2,0.1,0.4,0.2,0.6,0.3L33.5,42.2z"/>
			</g>
		</g>
		<g>
			<g>
				<ellipse class="st1" cx="33.9" cy="40.5" rx="3.7" ry="1.6"/>
			</g>
			<g>
				<path class="st2" d="M30.2,39.6v0.8c0,0.6,0.9,1.2,2.2,1.4c0.3,0.1,0.6,0.1,1,0.1c0.2,0,0.3,0,0.5,0c0.5,0,1,0,1.5-0.1
					c1.3-0.2,2-0.8,2-1.5l0.2-0.8c-0.5-0.6-2.1-0.7-3.7-0.7C32.7,38.8,30.9,39.2,30.2,39.6z"/>
			</g>
			<g class="st3">
				<path class="st4" d="M32.5,40.4v1.4c0.3,0.1,0.6,0.1,1,0.1v-1.5H32.5z"/>
			</g>
			<g>
				<path class="st5" d="M35.3,41.8v-3c1.1,0.1,2,0.3,2.4,0.7v0.8C37.6,41,36.7,41.6,35.3,41.8z"/>
			</g>
			<g>
				<ellipse class="st6" cx="33.9" cy="39.6" rx="3.7" ry="1.6"/>
			</g>
			<g>
				<path class="st4" d="M31.8,40.8c-0.6-0.2-1.1-0.5-1.3-0.8l3-2c0.2,0,0.3,0,0.5,0c0.6,0,1.2,0.1,1.8,0.2L31.8,40.8z"/>
			</g>
			<g>
				<path class="st4" d="M33.5,41.1c-0.3,0-0.6-0.1-0.9-0.1l3.9-2.5c0.2,0.1,0.4,0.2,0.6,0.3L33.5,41.1z"/>
			</g>
		</g>
	</g>
	<g>
		<g>
			<g>
				<ellipse class="st1" cx="22.2" cy="51" rx="3.7" ry="1.6"/>
			</g>
			<g>
				<path class="st2" d="M18.4,50.1v0.8c0,0.6,0.9,1.2,2.2,1.4c0.3,0.1,0.6,0.1,1,0.1c0.2,0,0.3,0,0.5,0c0.5,0,1,0,1.5-0.1
					c1.3-0.2,2-0.8,2-1.5l0.2-0.8c-0.5-0.6-2.1-0.7-3.7-0.7C20.9,49.3,19.1,49.7,18.4,50.1z"/>
			</g>
			<g class="st3">
				<path class="st4" d="M20.7,50.9v1.4c0.3,0.1,0.6,0.1,1,0.1v-1.5H20.7z"/>
			</g>
			<g>
				<path class="st5" d="M23.5,52.3v-3c1.1,0.1,2,0.3,2.4,0.7v0.8C25.9,51.5,24.9,52.1,23.5,52.3z"/>
			</g>
			<g>
				<ellipse class="st6" cx="22.2" cy="50.1" rx="3.7" ry="1.6"/>
			</g>
			<g>
				<path class="st4" d="M20,51.3c-0.6-0.2-1.1-0.5-1.3-0.8l3-2c0.2,0,0.3,0,0.5,0c0.6,0,1.2,0.1,1.8,0.2L20,51.3z"/>
			</g>
			<g>
				<path class="st4" d="M21.7,51.6c-0.3,0-0.6-0.1-0.9-0.1l3.9-2.5c0.2,0.1,0.4,0.2,0.6,0.3L21.7,51.6z"/>
			</g>
		</g>
		<g>
			<g>
				<ellipse class="st1" cx="22.2" cy="49.9" rx="3.7" ry="1.6"/>
			</g>
			<g>
				<path class="st2" d="M18.4,49v0.8c0,0.6,0.9,1.2,2.2,1.4c0.3,0.1,0.6,0.1,1,0.1c0.2,0,0.3,0,0.5,0c0.5,0,1,0,1.5-0.1
					c1.3-0.2,2-0.8,2-1.5l0.2-0.8c-0.5-0.6-2.1-0.7-3.7-0.7C20.9,48.2,19.1,48.6,18.4,49z"/>
			</g>
			<g class="st3">
				<path class="st4" d="M20.7,49.8v1.4c0.3,0.1,0.6,0.1,1,0.1v-1.5H20.7z"/>
			</g>
			<g>
				<path class="st5" d="M23.5,51.2v-3c1.1,0.1,2,0.3,2.4,0.7v0.8C25.9,50.4,24.9,51,23.5,51.2z"/>
			</g>
			<g>
				<ellipse class="st6" cx="22.2" cy="49" rx="3.7" ry="1.6"/>
			</g>
			<g>
				<path class="st4" d="M20,50.2c-0.6-0.2-1.1-0.5-1.3-0.8l3-2c0.2,0,0.3,0,0.5,0c0.6,0,1.2,0.1,1.8,0.2L20,50.2z"/>
			</g>
			<g>
				<path class="st4" d="M21.7,50.5c-0.3,0-0.6-0.1-0.9-0.1l3.9-2.5c0.2,0.1,0.4,0.2,0.6,0.3L21.7,50.5z"/>
			</g>
		</g>
		<g>
			<g>
				<ellipse class="st1" cx="22.2" cy="48.8" rx="3.7" ry="1.6"/>
			</g>
			<g>
				<path class="st2" d="M18.4,47.9v0.8c0,0.6,0.9,1.2,2.2,1.4c0.3,0.1,0.6,0.1,1,0.1c0.2,0,0.3,0,0.5,0c0.5,0,1,0,1.5-0.1
					c1.3-0.2,2-0.8,2-1.5l0.2-0.8c-0.5-0.6-2.1-0.7-3.7-0.7C20.9,47.1,19.1,47.5,18.4,47.9z"/>
			</g>
			<g class="st3">
				<path class="st4" d="M20.7,48.7v1.4c0.3,0.1,0.6,0.1,1,0.1v-1.5H20.7z"/>
			</g>
			<g>
				<path class="st5" d="M23.5,50.1v-3c1.1,0.1,2,0.3,2.4,0.7v0.8C25.9,49.3,24.9,49.9,23.5,50.1z"/>
			</g>
			<g>
				<ellipse class="st6" cx="22.2" cy="47.9" rx="3.7" ry="1.6"/>
			</g>
			<g>
				<path class="st4" d="M20,49.2c-0.6-0.2-1.1-0.5-1.3-0.8l3-2c0.2,0,0.3,0,0.5,0c0.6,0,1.2,0.1,1.8,0.2L20,49.2z"/>
			</g>
			<g>
				<path class="st4" d="M21.7,49.4c-0.3,0-0.6-0.1-0.9-0.1l3.9-2.5c0.2,0.1,0.4,0.2,0.6,0.3L21.7,49.4z"/>
			</g>
		</g>
		<g>
			<g>
				<ellipse class="st1" cx="22.2" cy="47.8" rx="3.7" ry="1.6"/>
			</g>
			<g>
				<path class="st2" d="M18.4,46.8v0.8c0,0.6,0.9,1.2,2.2,1.4c0.3,0.1,0.6,0.1,1,0.1c0.2,0,0.3,0,0.5,0c0.5,0,1,0,1.5-0.1
					c1.3-0.2,2-0.8,2-1.5l0.2-0.8c-0.5-0.6-2.1-0.7-3.7-0.7C20.9,46,19.1,46.4,18.4,46.8z"/>
			</g>
			<g class="st3">
				<path class="st4" d="M20.7,47.6V49c0.3,0.1,0.6,0.1,1,0.1v-1.5H20.7z"/>
			</g>
			<g>
				<path class="st5" d="M23.5,49.1v-3c1.1,0.1,2,0.3,2.4,0.7v0.8C25.9,48.3,24.9,48.8,23.5,49.1z"/>
			</g>
			<g>
				<ellipse class="st6" cx="22.2" cy="46.8" rx="3.7" ry="1.6"/>
			</g>
			<g>
				<path class="st4" d="M20,48.1c-0.6-0.2-1.1-0.5-1.3-0.8l3-2c0.2,0,0.3,0,0.5,0c0.6,0,1.2,0.1,1.8,0.2L20,48.1z"/>
			</g>
			<g>
				<path class="st4" d="M21.7,48.3c-0.3,0-0.6-0.1-0.9-0.1l3.9-2.5c0.2,0.1,0.4,0.2,0.6,0.3L21.7,48.3z"/>
			</g>
		</g>
		<g>
			<g>
				<ellipse class="st1" cx="22.2" cy="46.7" rx="3.7" ry="1.6"/>
			</g>
			<g>
				<path class="st2" d="M18.4,45.7v0.8c0,0.6,0.9,1.2,2.2,1.4c0.3,0.1,0.6,0.1,1,0.1c0.2,0,0.3,0,0.5,0c0.5,0,1,0,1.5-0.1
					c1.3-0.2,2-0.8,2-1.5l0.2-0.8c-0.5-0.6-2.1-0.7-3.7-0.7C20.9,44.9,19.1,45.3,18.4,45.7z"/>
			</g>
			<g class="st3">
				<path class="st4" d="M20.7,46.6v1.4c0.3,0.1,0.6,0.1,1,0.1v-1.5H20.7z"/>
			</g>
			<g>
				<path class="st5" d="M23.5,48v-3c1.1,0.1,2,0.3,2.4,0.7v0.8C25.9,47.2,24.9,47.7,23.5,48z"/>
			</g>
			<g>
				<ellipse class="st6" cx="22.2" cy="45.7" rx="3.7" ry="1.6"/>
			</g>
			<g>
				<path class="st4" d="M20,47c-0.6-0.2-1.1-0.5-1.3-0.8l3-2c0.2,0,0.3,0,0.5,0c0.6,0,1.2,0.1,1.8,0.2L20,47z"/>
			</g>
			<g>
				<path class="st4" d="M21.7,47.3c-0.3,0-0.6-0.1-0.9-0.1l3.9-2.5c0.2,0.1,0.4,0.2,0.6,0.3L21.7,47.3z"/>
			</g>
		</g>
		<g>
			<g>
				<ellipse class="st1" cx="22.2" cy="45.6" rx="3.7" ry="1.6"/>
			</g>
			<g>
				<path class="st2" d="M18.4,44.7v0.8c0,0.6,0.9,1.2,2.2,1.4c0.3,0.1,0.6,0.1,1,0.1c0.2,0,0.3,0,0.5,0c0.5,0,1,0,1.5-0.1
					c1.3-0.2,2-0.8,2-1.5l0.2-0.8c-0.5-0.6-2.1-0.7-3.7-0.7C20.9,43.8,19.1,44.3,18.4,44.7z"/>
			</g>
			<g class="st3">
				<path class="st4" d="M20.7,45.5v1.4c0.3,0.1,0.6,0.1,1,0.1v-1.5H20.7z"/>
			</g>
			<g>
				<path class="st5" d="M23.5,46.9v-3c1.1,0.1,2,0.3,2.4,0.7v0.8C25.9,46.1,24.9,46.6,23.5,46.9z"/>
			</g>
			<g>
				<ellipse class="st6" cx="22.2" cy="44.7" rx="3.7" ry="1.6"/>
			</g>
			<g>
				<path class="st4" d="M20,45.9c-0.6-0.2-1.1-0.5-1.3-0.8l3-2c0.2,0,0.3,0,0.5,0c0.6,0,1.2,0.1,1.8,0.2L20,45.9z"/>
			</g>
			<g>
				<path class="st4" d="M21.7,46.2c-0.3,0-0.6-0.1-0.9-0.1l3.9-2.5c0.2,0.1,0.4,0.2,0.6,0.3L21.7,46.2z"/>
			</g>
		</g>
		<g>
			<g>
				<ellipse class="st1" cx="22.2" cy="44.5" rx="3.7" ry="1.6"/>
			</g>
			<g>
				<path class="st2" d="M18.4,43.6v0.8c0,0.6,0.9,1.2,2.2,1.4c0.3,0.1,0.6,0.1,1,0.1c0.2,0,0.3,0,0.5,0c0.5,0,1,0,1.5-0.1
					c1.3-0.2,2-0.8,2-1.5l0.2-0.8c-0.5-0.6-2.1-0.7-3.7-0.7C20.9,42.8,19.1,43.2,18.4,43.6z"/>
			</g>
			<g class="st3">
				<path class="st4" d="M20.7,44.4v1.4c0.3,0.1,0.6,0.1,1,0.1v-1.5H20.7z"/>
			</g>
			<g>
				<path class="st5" d="M23.5,45.8v-3c1.1,0.1,2,0.3,2.4,0.7v0.8C25.9,45,24.9,45.6,23.5,45.8z"/>
			</g>
			<g>
				<ellipse class="st6" cx="22.2" cy="43.6" rx="3.7" ry="1.6"/>
			</g>
			<g>
				<path class="st4" d="M20,44.8c-0.6-0.2-1.1-0.5-1.3-0.8l3-2c0.2,0,0.3,0,0.5,0c0.6,0,1.2,0.1,1.8,0.2L20,44.8z"/>
			</g>
			<g>
				<path class="st4" d="M21.7,45.1c-0.3,0-0.6-0.1-0.9-0.1l3.9-2.5c0.2,0.1,0.4,0.2,0.6,0.3L21.7,45.1z"/>
			</g>
		</g>
		<g>
			<g>
				<ellipse class="st1" cx="22.2" cy="43.4" rx="3.7" ry="1.6"/>
			</g>
			<g>
				<path class="st2" d="M18.4,42.5v0.8c0,0.6,0.9,1.2,2.2,1.4c0.3,0.1,0.6,0.1,1,0.1c0.2,0,0.3,0,0.5,0c0.5,0,1,0,1.5-0.1
					c1.3-0.2,2-0.8,2-1.5l0.2-0.8c-0.5-0.6-2.1-0.7-3.7-0.7C20.9,41.7,19.1,42.1,18.4,42.5z"/>
			</g>
			<g class="st3">
				<path class="st4" d="M20.7,43.3v1.4c0.3,0.1,0.6,0.1,1,0.1v-1.5H20.7z"/>
			</g>
			<g>
				<path class="st5" d="M23.5,44.7v-3c1.1,0.1,2,0.3,2.4,0.7v0.8C25.9,43.9,24.9,44.5,23.5,44.7z"/>
			</g>
			<g>
				<ellipse class="st6" cx="22.2" cy="42.5" rx="3.7" ry="1.6"/>
			</g>
			<g>
				<path class="st4" d="M20,43.7c-0.6-0.2-1.1-0.5-1.3-0.8l3-2c0.2,0,0.3,0,0.5,0c0.6,0,1.2,0.1,1.8,0.2L20,43.7z"/>
			</g>
			<g>
				<path class="st4" d="M21.7,44c-0.3,0-0.6-0.1-0.9-0.1l3.9-2.5c0.2,0.1,0.4,0.2,0.6,0.3L21.7,44z"/>
			</g>
		</g>
	</g>
</g>
</svg>
