<?xml version="1.0" encoding="utf-8"?>
<!-- Generator: Adobe Illustrator 23.0.3, SVG Export Plug-In . SVG Version: 6.00 Build 0)  -->
<svg version="1.1" id="Layer_1" xmlns="http://www.w3.org/2000/svg" xmlns:xlink="http://www.w3.org/1999/xlink" x="0px" y="0px"
	 viewBox="0 0 60 80" style="enable-background:new 0 0 60 80;" xml:space="preserve">
<style type="text/css">
	.st0{opacity:0.72;fill:#9EB3B6;}
	.st1{fill:#CE7D13;}
	.st2{fill:#FFC50D;}
	.st3{opacity:0.43;}
	.st4{fill:#FFFC8F;}
	.st5{fill:#F19D00;}
	.st6{fill:#FFD400;}
</style>
<g>
	<path class="st0" d="M29.16,46.41c-0.07-0.1-0.11-0.2-0.11-0.31c0-0.58,1.12-1.06,2.5-1.06c1.38,0,2.66,0.58,2.66,1.16
		c0,0.11-0.04,0.21-0.11,0.31h0.01l-0.79,0.64l-3.04-0.93L29.16,46.41z"/>
	<path class="st0" d="M27.36,44.06c-0.07-0.1-0.11-0.2-0.11-0.31c0-0.58,1.12-1.06,2.5-1.06c1.38,0,2.44,0.48,2.5,1.06
		c0.03,0.32-0.65,0.55-0.65,0.55l-2.98,1.42l-1.08-1.7L27.36,44.06z"/>
	<g>
		<g>
			<g>
				<ellipse class="st1" cx="28.28" cy="45.16" rx="2.5" ry="1.06"/>
			</g>
			<g>
				<path class="st2" d="M25.78,44.54v0.51c0,0.44,0.62,0.81,1.5,0.97c0.21,0.04,0.43,0.07,0.67,0.08c0.11,0.01,0.22,0.01,0.33,0.01
					c0.35,0,0.69-0.03,1-0.09c0.88-0.16,1.34-0.54,1.34-0.98l0.16-0.55c-0.36-0.4-1.43-0.5-2.5-0.5
					C27.43,43.99,26.24,44.27,25.78,44.54z"/>
			</g>
			<g class="st3">
				<path class="st4" d="M27.28,45.09v0.93c0.21,0.04,0.43,0.07,0.67,0.08v-1.01H27.28z"/>
			</g>
			<g>
				<path class="st5" d="M29.17,46.04v-2.02c0.72,0.05,1.35,0.18,1.61,0.47v0.56C30.78,45.5,30.11,45.88,29.17,46.04z"/>
			</g>
			<g>
				<ellipse class="st6" cx="28.28" cy="44.54" rx="2.5" ry="1.06"/>
			</g>
			<g>
				<path class="st4" d="M26.86,45.37c-0.43-0.13-0.74-0.32-0.9-0.53l2.01-1.32c0.12-0.01,0.23-0.01,0.34-0.01
					c0.41,0,0.82,0.04,1.18,0.13L26.86,45.37z"/>
			</g>
			<g>
				<path class="st4" d="M27.96,45.56c-0.2-0.01-0.4-0.03-0.58-0.07l2.6-1.71c0.15,0.06,0.28,0.12,0.39,0.19L27.96,45.56z"/>
			</g>
		</g>
		<g>
			<g>
				<ellipse class="st1" cx="28.28" cy="44.42" rx="2.5" ry="1.06"/>
			</g>
			<g>
				<path class="st2" d="M25.78,43.81v0.51c0,0.44,0.62,0.81,1.5,0.97c0.21,0.04,0.43,0.07,0.67,0.08c0.11,0.01,0.22,0.01,0.33,0.01
					c0.35,0,0.69-0.03,1-0.09c0.88-0.16,1.34-0.54,1.34-0.98l0.16-0.55c-0.36-0.4-1.43-0.5-2.5-0.5
					C27.43,43.26,26.24,43.53,25.78,43.81z"/>
			</g>
			<g class="st3">
				<path class="st4" d="M27.28,44.35v0.93c0.21,0.04,0.43,0.07,0.67,0.08v-1.01H27.28z"/>
			</g>
			<g>
				<path class="st5" d="M29.17,45.3v-2.02c0.72,0.05,1.35,0.18,1.61,0.47v0.56C30.78,44.76,30.11,45.15,29.17,45.3z"/>
			</g>
			<g>
				<ellipse class="st6" cx="28.28" cy="43.81" rx="2.5" ry="1.06"/>
			</g>
			<g>
				<path class="st4" d="M26.86,44.64c-0.43-0.13-0.74-0.32-0.9-0.53l2.01-1.32c0.12-0.01,0.23-0.01,0.34-0.01
					c0.41,0,0.82,0.04,1.18,0.13L26.86,44.64z"/>
			</g>
			<g>
				<path class="st4" d="M27.96,44.82c-0.2-0.01-0.4-0.03-0.58-0.07l2.6-1.71c0.15,0.06,0.28,0.12,0.39,0.19L27.96,44.82z"/>
			</g>
		</g>
		<g>
			<g>
				<ellipse class="st1" cx="28.28" cy="43.69" rx="2.5" ry="1.06"/>
			</g>
			<g>
				<path class="st2" d="M25.78,43.07v0.51c0,0.44,0.62,0.81,1.5,0.97c0.21,0.04,0.43,0.07,0.67,0.08c0.11,0.01,0.22,0.01,0.33,0.01
					c0.35,0,0.69-0.03,1-0.09c0.88-0.16,1.34-0.54,1.34-0.98l0.16-0.55c-0.36-0.4-1.43-0.5-2.5-0.5
					C27.43,42.52,26.24,42.8,25.78,43.07z"/>
			</g>
			<g class="st3">
				<path class="st4" d="M27.28,43.62v0.93c0.21,0.04,0.43,0.07,0.67,0.08v-1.01H27.28z"/>
			</g>
			<g>
				<path class="st5" d="M29.17,44.57v-2.02c0.72,0.05,1.35,0.18,1.61,0.47v0.56C30.78,44.03,30.11,44.42,29.17,44.57z"/>
			</g>
			<g>
				<ellipse class="st6" cx="28.28" cy="43.07" rx="2.5" ry="1.06"/>
			</g>
			<g>
				<path class="st4" d="M26.86,43.9c-0.43-0.13-0.74-0.32-0.9-0.53l2.01-1.32c0.12-0.01,0.23-0.01,0.34-0.01
					c0.41,0,0.82,0.04,1.18,0.13L26.86,43.9z"/>
			</g>
			<g>
				<path class="st4" d="M27.96,44.09c-0.2-0.01-0.4-0.03-0.58-0.07l2.6-1.71c0.15,0.06,0.28,0.12,0.39,0.19L27.96,44.09z"/>
			</g>
		</g>
		<g>
			<g>
				<ellipse class="st1" cx="28.28" cy="42.95" rx="2.5" ry="1.06"/>
			</g>
			<g>
				<path class="st2" d="M25.78,42.34v0.51c0,0.44,0.62,0.81,1.5,0.97c0.21,0.04,0.43,0.07,0.67,0.08c0.11,0.01,0.22,0.01,0.33,0.01
					c0.35,0,0.69-0.03,1-0.09c0.88-0.16,1.34-0.54,1.34-0.98l0.16-0.55c-0.36-0.4-1.43-0.5-2.5-0.5
					C27.43,41.79,26.24,42.06,25.78,42.34z"/>
			</g>
			<g class="st3">
				<path class="st4" d="M27.28,42.88v0.93c0.21,0.04,0.43,0.07,0.67,0.08v-1.01H27.28z"/>
			</g>
			<g>
				<path class="st5" d="M29.17,43.83v-2.02c0.72,0.05,1.35,0.18,1.61,0.47v0.56C30.78,43.3,30.11,43.68,29.17,43.83z"/>
			</g>
			<g>
				<ellipse class="st6" cx="28.28" cy="42.34" rx="2.5" ry="1.06"/>
			</g>
			<g>
				<path class="st4" d="M26.86,43.17c-0.43-0.13-0.74-0.32-0.9-0.53l2.01-1.32c0.12-0.01,0.23-0.01,0.34-0.01
					c0.41,0,0.82,0.04,1.18,0.13L26.86,43.17z"/>
			</g>
			<g>
				<path class="st4" d="M27.96,43.36c-0.2-0.01-0.4-0.03-0.58-0.07l2.6-1.71c0.15,0.06,0.28,0.12,0.39,0.19L27.96,43.36z"/>
			</g>
		</g>
		<g>
			<g>
				<ellipse class="st1" cx="28.28" cy="42.22" rx="2.5" ry="1.06"/>
			</g>
			<g>
				<path class="st2" d="M25.78,41.6v0.51c0,0.44,0.62,0.81,1.5,0.97c0.21,0.04,0.43,0.07,0.67,0.08c0.11,0.01,0.22,0.01,0.33,0.01
					c0.35,0,0.69-0.03,1-0.09c0.88-0.16,1.34-0.54,1.34-0.98l0.16-0.55c-0.36-0.4-1.43-0.5-2.5-0.5
					C27.43,41.05,26.24,41.33,25.78,41.6z"/>
			</g>
			<g class="st3">
				<path class="st4" d="M27.28,42.15v0.93c0.21,0.04,0.43,0.07,0.67,0.08v-1.01H27.28z"/>
			</g>
			<g>
				<path class="st5" d="M29.17,43.1v-2.02c0.72,0.05,1.35,0.18,1.61,0.47v0.56C30.78,42.56,30.11,42.95,29.17,43.1z"/>
			</g>
			<g>
				<ellipse class="st6" cx="28.28" cy="41.6" rx="2.5" ry="1.06"/>
			</g>
			<g>
				<path class="st4" d="M26.86,42.43c-0.43-0.13-0.74-0.32-0.9-0.53l2.01-1.32c0.12-0.01,0.23-0.01,0.34-0.01
					c0.41,0,0.82,0.04,1.18,0.13L26.86,42.43z"/>
			</g>
			<g>
				<path class="st4" d="M27.96,42.62c-0.2-0.01-0.4-0.03-0.58-0.07l2.6-1.71c0.15,0.06,0.28,0.12,0.39,0.19L27.96,42.62z"/>
			</g>
		</g>
		<g>
			<g>
				<ellipse class="st1" cx="28.28" cy="41.49" rx="2.5" ry="1.06"/>
			</g>
			<g>
				<path class="st2" d="M25.78,40.87v0.51c0,0.44,0.62,0.81,1.5,0.97c0.21,0.04,0.43,0.07,0.67,0.08c0.11,0.01,0.22,0.01,0.33,0.01
					c0.35,0,0.69-0.03,1-0.09c0.88-0.16,1.34-0.54,1.34-0.98l0.16-0.55c-0.36-0.4-1.43-0.5-2.5-0.5
					C27.43,40.32,26.24,40.6,25.78,40.87z"/>
			</g>
			<g class="st3">
				<path class="st4" d="M27.28,41.41v0.93c0.21,0.04,0.43,0.07,0.67,0.08v-1.01H27.28z"/>
			</g>
			<g>
				<path class="st5" d="M29.17,42.36v-2.02c0.72,0.05,1.35,0.18,1.61,0.47v0.56C30.78,41.83,30.11,42.21,29.17,42.36z"/>
			</g>
			<g>
				<ellipse class="st6" cx="28.28" cy="40.87" rx="2.5" ry="1.06"/>
			</g>
			<g>
				<path class="st4" d="M26.86,41.7c-0.43-0.13-0.74-0.32-0.9-0.53l2.01-1.32c0.12-0.01,0.23-0.01,0.34-0.01
					c0.41,0,0.82,0.04,1.18,0.13L26.86,41.7z"/>
			</g>
			<g>
				<path class="st4" d="M27.96,41.89c-0.2-0.01-0.4-0.03-0.58-0.07l2.6-1.71c0.15,0.06,0.28,0.12,0.39,0.19L27.96,41.89z"/>
			</g>
		</g>
	</g>
	<g>
		<g>
			<g>
				<ellipse class="st1" cx="31.12" cy="46.64" rx="2.5" ry="1.06"/>
			</g>
			<g>
				<path class="st2" d="M28.62,46.02v0.51c0,0.44,0.62,0.81,1.5,0.97c0.21,0.04,0.43,0.07,0.67,0.08c0.11,0.01,0.22,0.01,0.33,0.01
					c0.35,0,0.69-0.03,1-0.09c0.88-0.16,1.34-0.54,1.34-0.98l0.16-0.55c-0.36-0.4-1.43-0.5-2.5-0.5
					C30.27,45.47,29.07,45.75,28.62,46.02z"/>
			</g>
			<g class="st3">
				<path class="st4" d="M30.12,46.57v0.93c0.21,0.04,0.43,0.07,0.67,0.08v-1.01H30.12z"/>
			</g>
			<g>
				<path class="st5" d="M32.01,47.52V45.5c0.72,0.05,1.35,0.18,1.61,0.47v0.56C33.61,46.98,32.95,47.37,32.01,47.52z"/>
			</g>
			<g>
				<ellipse class="st6" cx="31.12" cy="46.02" rx="2.5" ry="1.06"/>
			</g>
			<g>
				<path class="st4" d="M29.69,46.85c-0.43-0.13-0.74-0.32-0.9-0.53L30.8,45c0.12-0.01,0.23-0.01,0.34-0.01
					c0.41,0,0.82,0.04,1.18,0.13L29.69,46.85z"/>
			</g>
			<g>
				<path class="st4" d="M30.79,47.04c-0.2-0.01-0.4-0.03-0.58-0.07l2.6-1.71c0.15,0.06,0.28,0.12,0.39,0.19L30.79,47.04z"/>
			</g>
		</g>
		<g>
			<g>
				<ellipse class="st1" cx="31.12" cy="45.9" rx="2.5" ry="1.06"/>
			</g>
			<g>
				<path class="st2" d="M28.62,45.29v0.51c0,0.44,0.62,0.81,1.5,0.97c0.21,0.04,0.43,0.07,0.67,0.08c0.11,0.01,0.22,0.01,0.33,0.01
					c0.35,0,0.69-0.03,1-0.09c0.88-0.16,1.34-0.54,1.34-0.98l0.16-0.55c-0.36-0.4-1.43-0.5-2.5-0.5
					C30.27,44.74,29.07,45.01,28.62,45.29z"/>
			</g>
			<g class="st3">
				<path class="st4" d="M30.12,45.83v0.93c0.21,0.04,0.43,0.07,0.67,0.08v-1.01H30.12z"/>
			</g>
			<g>
				<path class="st5" d="M32.01,46.78v-2.02c0.72,0.05,1.35,0.18,1.61,0.47v0.56C33.61,46.25,32.95,46.63,32.01,46.78z"/>
			</g>
			<g>
				<ellipse class="st6" cx="31.12" cy="45.29" rx="2.5" ry="1.06"/>
			</g>
			<g>
				<path class="st4" d="M29.69,46.12c-0.43-0.13-0.74-0.32-0.9-0.53l2.01-1.32c0.12-0.01,0.23-0.01,0.34-0.01
					c0.41,0,0.82,0.04,1.18,0.13L29.69,46.12z"/>
			</g>
			<g>
				<path class="st4" d="M30.79,46.31c-0.2-0.01-0.4-0.03-0.58-0.07l2.6-1.71c0.15,0.06,0.28,0.12,0.39,0.19L30.79,46.31z"/>
			</g>
		</g>
	</g>
</g>
</svg>
