<?xml version="1.0" encoding="utf-8"?>
<!-- Generator: Adobe Illustrator 23.0.3, SVG Export Plug-In . SVG Version: 6.00 Build 0)  -->
<svg version="1.1" id="Layer_1" xmlns="http://www.w3.org/2000/svg" xmlns:xlink="http://www.w3.org/1999/xlink" x="0px" y="0px"
	 viewBox="0 0 60 80" style="enable-background:new 0 0 60 80;" xml:space="preserve">
<style type="text/css">
	.st0{opacity:0.72;fill:#9EB3B6;}
	.st1{opacity:0.72;fill:#9C86B7;}
	.st2{fill:#CE7D13;}
	.st3{fill:#FFC50D;}
	.st4{opacity:0.43;}
	.st5{fill:#FFFC8F;}
	.st6{fill:#F19D00;}
	.st7{fill:#FFD400;}
</style>
<g>
	<path class="st0" d="M33.3,45.7c-0.1-0.1-0.2-0.3-0.2-0.5c0-0.9,1.7-1.6,3.7-1.6s3.7,0.7,3.7,1.6c0,0.2-0.1,0.3-0.2,0.5h0l-3,3.7
		l-6.7-4.2L33.3,45.7z"/>
	<path class="st1" d="M22.4,46.5c-0.1-0.1-0.2-0.3-0.2-0.5c0-0.9,1.7-1.6,3.7-1.6s3.7,0.7,3.7,1.6c0,0.2-0.1,0.3-0.2,0.5h0l-3,3.7
		l-6.7-4.2L22.4,46.5z"/>
	<g>
		<g>
			<g>
				<ellipse class="st2" cx="28.3" cy="46.4" rx="3.7" ry="1.6"/>
			</g>
			<g>
				<path class="st3" d="M24.6,45.5v0.8c0,0.6,0.9,1.2,2.2,1.4c0.3,0.1,0.6,0.1,1,0.1c0.2,0,0.3,0,0.5,0c0.5,0,1,0,1.5-0.1
					c1.3-0.2,2-0.8,2-1.5l0.2-0.8c-0.5-0.6-2.1-0.7-3.7-0.7C27.1,44.7,25.3,45.1,24.6,45.5z"/>
			</g>
			<g class="st4">
				<path class="st5" d="M26.9,46.3v1.4c0.3,0.1,0.6,0.1,1,0.1v-1.5H26.9z"/>
			</g>
			<g>
				<path class="st6" d="M29.7,47.7v-3c1.1,0.1,2,0.3,2.4,0.7v0.8C32,47,31,47.5,29.7,47.7z"/>
			</g>
			<g>
				<ellipse class="st7" cx="28.3" cy="45.5" rx="3.7" ry="1.6"/>
			</g>
			<g>
				<path class="st5" d="M26.2,46.8c-0.6-0.2-1.1-0.5-1.3-0.8l3-2c0.2,0,0.3,0,0.5,0c0.6,0,1.2,0.1,1.8,0.2L26.2,46.8z"/>
			</g>
			<g>
				<path class="st5" d="M27.9,47c-0.3,0-0.6-0.1-0.9-0.1l3.9-2.5c0.2,0.1,0.4,0.2,0.6,0.3L27.9,47z"/>
			</g>
		</g>
		<g>
			<g>
				<ellipse class="st2" cx="28.3" cy="45.4" rx="3.7" ry="1.6"/>
			</g>
			<g>
				<path class="st3" d="M24.6,44.4v0.8c0,0.6,0.9,1.2,2.2,1.4c0.3,0.1,0.6,0.1,1,0.1c0.2,0,0.3,0,0.5,0c0.5,0,1,0,1.5-0.1
					c1.3-0.2,2-0.8,2-1.5l0.2-0.8c-0.5-0.6-2.1-0.7-3.7-0.7C27.1,43.6,25.3,44,24.6,44.4z"/>
			</g>
			<g class="st4">
				<path class="st5" d="M26.9,45.3v1.4c0.3,0.1,0.6,0.1,1,0.1v-1.5H26.9z"/>
			</g>
			<g>
				<path class="st6" d="M29.7,46.7v-3c1.1,0.1,2,0.3,2.4,0.7v0.8C32,45.9,31,46.4,29.7,46.7z"/>
			</g>
			<g>
				<ellipse class="st7" cx="28.3" cy="44.4" rx="3.7" ry="1.6"/>
			</g>
			<g>
				<path class="st5" d="M26.2,45.7c-0.6-0.2-1.1-0.5-1.3-0.8l3-2c0.2,0,0.3,0,0.5,0c0.6,0,1.2,0.1,1.8,0.2L26.2,45.7z"/>
			</g>
			<g>
				<path class="st5" d="M27.9,46c-0.3,0-0.6-0.1-0.9-0.1l3.9-2.5c0.2,0.1,0.4,0.2,0.6,0.3L27.9,46z"/>
			</g>
		</g>
		<g>
			<g>
				<ellipse class="st2" cx="28.3" cy="44.3" rx="3.7" ry="1.6"/>
			</g>
			<g>
				<path class="st3" d="M24.6,43.4v0.8c0,0.6,0.9,1.2,2.2,1.4c0.3,0.1,0.6,0.1,1,0.1c0.2,0,0.3,0,0.5,0c0.5,0,1,0,1.5-0.1
					c1.3-0.2,2-0.8,2-1.5l0.2-0.8c-0.5-0.6-2.1-0.7-3.7-0.7C27.1,42.5,25.3,42.9,24.6,43.4z"/>
			</g>
			<g class="st4">
				<path class="st5" d="M26.9,44.2v1.4c0.3,0.1,0.6,0.1,1,0.1v-1.5H26.9z"/>
			</g>
			<g>
				<path class="st6" d="M29.7,45.6v-3c1.1,0.1,2,0.3,2.4,0.7v0.8C32,44.8,31,45.3,29.7,45.6z"/>
			</g>
			<g>
				<ellipse class="st7" cx="28.3" cy="43.4" rx="3.7" ry="1.6"/>
			</g>
			<g>
				<path class="st5" d="M26.2,44.6c-0.6-0.2-1.1-0.5-1.3-0.8l3-2c0.2,0,0.3,0,0.5,0c0.6,0,1.2,0.1,1.8,0.2L26.2,44.6z"/>
			</g>
			<g>
				<path class="st5" d="M27.9,44.9c-0.3,0-0.6-0.1-0.9-0.1l3.9-2.5c0.2,0.1,0.4,0.2,0.6,0.3L27.9,44.9z"/>
			</g>
		</g>
		<g>
			<g>
				<ellipse class="st2" cx="28.3" cy="43.2" rx="3.7" ry="1.6"/>
			</g>
			<g>
				<path class="st3" d="M24.6,42.3V43c0,0.6,0.9,1.2,2.2,1.4c0.3,0.1,0.6,0.1,1,0.1c0.2,0,0.3,0,0.5,0c0.5,0,1,0,1.5-0.1
					c1.3-0.2,2-0.8,2-1.5l0.2-0.8c-0.5-0.6-2.1-0.7-3.7-0.7C27.1,41.4,25.3,41.9,24.6,42.3z"/>
			</g>
			<g class="st4">
				<path class="st5" d="M26.9,43.1v1.4c0.3,0.1,0.6,0.1,1,0.1v-1.5H26.9z"/>
			</g>
			<g>
				<path class="st6" d="M29.7,44.5v-3c1.1,0.1,2,0.3,2.4,0.7V43C32,43.7,31,44.3,29.7,44.5z"/>
			</g>
			<g>
				<ellipse class="st7" cx="28.3" cy="42.3" rx="3.7" ry="1.6"/>
			</g>
			<g>
				<path class="st5" d="M26.2,43.5c-0.6-0.2-1.1-0.5-1.3-0.8l3-2c0.2,0,0.3,0,0.5,0c0.6,0,1.2,0.1,1.8,0.2L26.2,43.5z"/>
			</g>
			<g>
				<path class="st5" d="M27.9,43.8c-0.3,0-0.6-0.1-0.9-0.1l3.9-2.5c0.2,0.1,0.4,0.2,0.6,0.3L27.9,43.8z"/>
			</g>
		</g>
		<g>
			<g>
				<ellipse class="st2" cx="28.3" cy="42.1" rx="3.7" ry="1.6"/>
			</g>
			<g>
				<path class="st3" d="M24.6,41.2v0.8c0,0.6,0.9,1.2,2.2,1.4c0.3,0.1,0.6,0.1,1,0.1c0.2,0,0.3,0,0.5,0c0.5,0,1,0,1.5-0.1
					c1.3-0.2,2-0.8,2-1.5l0.2-0.8c-0.5-0.6-2.1-0.7-3.7-0.7C27.1,40.4,25.3,40.8,24.6,41.2z"/>
			</g>
			<g class="st4">
				<path class="st5" d="M26.9,42v1.4c0.3,0.1,0.6,0.1,1,0.1V42H26.9z"/>
			</g>
			<g>
				<path class="st6" d="M29.7,43.4v-3c1.1,0.1,2,0.3,2.4,0.7v0.8C32,42.6,31,43.2,29.7,43.4z"/>
			</g>
			<g>
				<ellipse class="st7" cx="28.3" cy="41.2" rx="3.7" ry="1.6"/>
			</g>
			<g>
				<path class="st5" d="M26.2,42.4c-0.6-0.2-1.1-0.5-1.3-0.8l3-2c0.2,0,0.3,0,0.5,0c0.6,0,1.2,0.1,1.8,0.2L26.2,42.4z"/>
			</g>
			<g>
				<path class="st5" d="M27.9,42.7c-0.3,0-0.6-0.1-0.9-0.1l3.9-2.5c0.2,0.1,0.4,0.2,0.6,0.3L27.9,42.7z"/>
			</g>
		</g>
		<g>
			<g>
				<ellipse class="st2" cx="28.3" cy="41" rx="3.7" ry="1.6"/>
			</g>
			<g>
				<path class="st3" d="M24.6,40.1v0.8c0,0.6,0.9,1.2,2.2,1.4c0.3,0.1,0.6,0.1,1,0.1c0.2,0,0.3,0,0.5,0c0.5,0,1,0,1.5-0.1
					c1.3-0.2,2-0.8,2-1.5L32,40c-0.5-0.6-2.1-0.7-3.7-0.7C27.1,39.3,25.3,39.7,24.6,40.1z"/>
			</g>
			<g class="st4">
				<path class="st5" d="M26.9,40.9v1.4c0.3,0.1,0.6,0.1,1,0.1v-1.5H26.9z"/>
			</g>
			<g>
				<path class="st6" d="M29.7,42.3v-3c1.1,0.1,2,0.3,2.4,0.7v0.8C32,41.5,31,42.1,29.7,42.3z"/>
			</g>
			<g>
				<ellipse class="st7" cx="28.3" cy="40.1" rx="3.7" ry="1.6"/>
			</g>
			<g>
				<path class="st5" d="M26.2,41.3c-0.6-0.2-1.1-0.5-1.3-0.8l3-2c0.2,0,0.3,0,0.5,0c0.6,0,1.2,0.1,1.8,0.2L26.2,41.3z"/>
			</g>
			<g>
				<path class="st5" d="M27.9,41.6c-0.3,0-0.6-0.1-0.9-0.1l3.9-2.5c0.2,0.1,0.4,0.2,0.6,0.3L27.9,41.6z"/>
			</g>
		</g>
		<g>
			<g>
				<ellipse class="st2" cx="28.3" cy="39.9" rx="3.7" ry="1.6"/>
			</g>
			<g>
				<path class="st3" d="M24.6,39v0.8c0,0.6,0.9,1.2,2.2,1.4c0.3,0.1,0.6,0.1,1,0.1c0.2,0,0.3,0,0.5,0c0.5,0,1,0,1.5-0.1
					c1.3-0.2,2-0.8,2-1.5l0.2-0.8c-0.5-0.6-2.1-0.7-3.7-0.7C27.1,38.2,25.3,38.6,24.6,39z"/>
			</g>
			<g class="st4">
				<path class="st5" d="M26.9,39.8v1.4c0.3,0.1,0.6,0.1,1,0.1v-1.5H26.9z"/>
			</g>
			<g>
				<path class="st6" d="M29.7,41.2v-3c1.1,0.1,2,0.3,2.4,0.7v0.8C32,40.4,31,41,29.7,41.2z"/>
			</g>
			<g>
				<ellipse class="st7" cx="28.3" cy="39" rx="3.7" ry="1.6"/>
			</g>
			<g>
				<path class="st5" d="M26.2,40.2c-0.6-0.2-1.1-0.5-1.3-0.8l3-2c0.2,0,0.3,0,0.5,0c0.6,0,1.2,0.1,1.8,0.2L26.2,40.2z"/>
			</g>
			<g>
				<path class="st5" d="M27.9,40.5c-0.3,0-0.6-0.1-0.9-0.1l3.9-2.5c0.2,0.1,0.4,0.2,0.6,0.3L27.9,40.5z"/>
			</g>
		</g>
		<g>
			<g>
				<ellipse class="st2" cx="28.3" cy="38.8" rx="3.7" ry="1.6"/>
			</g>
			<g>
				<path class="st3" d="M24.6,37.9v0.8c0,0.6,0.9,1.2,2.2,1.4c0.3,0.1,0.6,0.1,1,0.1c0.2,0,0.3,0,0.5,0c0.5,0,1,0,1.5-0.1
					c1.3-0.2,2-0.8,2-1.5l0.2-0.8c-0.5-0.6-2.1-0.7-3.7-0.7C27.1,37.1,25.3,37.5,24.6,37.9z"/>
			</g>
			<g class="st4">
				<path class="st5" d="M26.9,38.7v1.4c0.3,0.1,0.6,0.1,1,0.1v-1.5H26.9z"/>
			</g>
			<g>
				<path class="st6" d="M29.7,40.1v-3c1.1,0.1,2,0.3,2.4,0.7v0.8C32,39.3,31,39.9,29.7,40.1z"/>
			</g>
			<g>
				<ellipse class="st7" cx="28.3" cy="37.9" rx="3.7" ry="1.6"/>
			</g>
			<g>
				<path class="st5" d="M26.2,39.1c-0.6-0.2-1.1-0.5-1.3-0.8l3-2c0.2,0,0.3,0,0.5,0c0.6,0,1.2,0.1,1.8,0.2L26.2,39.1z"/>
			</g>
			<g>
				<path class="st5" d="M27.9,39.4c-0.3,0-0.6-0.1-0.9-0.1l3.9-2.5c0.2,0.1,0.4,0.2,0.6,0.3L27.9,39.4z"/>
			</g>
		</g>
		<g>
			<g>
				<ellipse class="st2" cx="28.3" cy="37.7" rx="3.7" ry="1.6"/>
			</g>
			<g>
				<path class="st3" d="M24.6,36.8v0.8c0,0.6,0.9,1.2,2.2,1.4c0.3,0.1,0.6,0.1,1,0.1c0.2,0,0.3,0,0.5,0c0.5,0,1,0,1.5-0.1
					c1.3-0.2,2-0.8,2-1.5l0.2-0.8c-0.5-0.6-2.1-0.7-3.7-0.7C27.1,36,25.3,36.4,24.6,36.8z"/>
			</g>
			<g class="st4">
				<path class="st5" d="M26.9,37.6V39c0.3,0.1,0.6,0.1,1,0.1v-1.5H26.9z"/>
			</g>
			<g>
				<path class="st6" d="M29.7,39v-3c1.1,0.1,2,0.3,2.4,0.7v0.8C32,38.2,31,38.8,29.7,39z"/>
			</g>
			<g>
				<ellipse class="st7" cx="28.3" cy="36.8" rx="3.7" ry="1.6"/>
			</g>
			<g>
				<path class="st5" d="M26.2,38c-0.6-0.2-1.1-0.5-1.3-0.8l3-2c0.2,0,0.3,0,0.5,0c0.6,0,1.2,0.1,1.8,0.2L26.2,38z"/>
			</g>
			<g>
				<path class="st5" d="M27.9,38.3c-0.3,0-0.6-0.1-0.9-0.1l3.9-2.5c0.2,0.1,0.4,0.2,0.6,0.3L27.9,38.3z"/>
			</g>
		</g>
	</g>
	<g>
		<g>
			<g>
				<ellipse class="st2" cx="34.2" cy="48.6" rx="3.7" ry="1.6"/>
			</g>
			<g>
				<path class="st3" d="M30.5,47.7v0.8c0,0.6,0.9,1.2,2.2,1.4c0.3,0.1,0.6,0.1,1,0.1c0.2,0,0.3,0,0.5,0c0.5,0,1,0,1.5-0.1
					c1.3-0.2,2-0.8,2-1.5l0.2-0.8c-0.5-0.6-2.1-0.7-3.7-0.7C33,46.9,31.2,47.3,30.5,47.7z"/>
			</g>
			<g class="st4">
				<path class="st5" d="M32.7,48.5v1.4c0.3,0.1,0.6,0.1,1,0.1v-1.5H32.7z"/>
			</g>
			<g>
				<path class="st6" d="M35.5,49.9v-3c1.1,0.1,2,0.3,2.4,0.7v0.8C37.9,49.1,36.9,49.7,35.5,49.9z"/>
			</g>
			<g>
				<path class="st7" d="M30.5,47.7c0,0.9,1.7,1.6,3.7,1.6c2,0,3.7-0.7,3.7-1.6c0-0.9-1.7-1.6-3.7-1.6
					C32.2,46.1,30.5,46.8,30.5,47.7z"/>
			</g>
			<g>
				<path class="st5" d="M32.1,48.9c-0.6-0.2-1.1-0.5-1.3-0.8l3-2c0.2,0,0.3,0,0.5,0c0.6,0,1.2,0.1,1.8,0.2L32.1,48.9z"/>
			</g>
			<g>
				<path class="st5" d="M33.7,49.2c-0.3,0-0.6-0.1-0.9-0.1l3.9-2.5c0.2,0.1,0.4,0.2,0.6,0.3L33.7,49.2z"/>
			</g>
		</g>
		<g>
			<g>
				<ellipse class="st2" cx="34.2" cy="47.5" rx="3.7" ry="1.6"/>
			</g>
			<g>
				<path class="st3" d="M30.5,46.6v0.8c0,0.6,0.9,1.2,2.2,1.4c0.3,0.1,0.6,0.1,1,0.1c0.2,0,0.3,0,0.5,0c0.5,0,1,0,1.5-0.1
					c1.3-0.2,2-0.8,2-1.5l0.2-0.8c-0.5-0.6-2.1-0.7-3.7-0.7C33,45.8,31.2,46.2,30.5,46.6z"/>
			</g>
			<g class="st4">
				<path class="st5" d="M32.7,47.4v1.4c0.3,0.1,0.6,0.1,1,0.1v-1.5H32.7z"/>
			</g>
			<g>
				<path class="st6" d="M35.5,48.8v-3c1.1,0.1,2,0.3,2.4,0.7v0.8C37.9,48,36.9,48.6,35.5,48.8z"/>
			</g>
			<g>
				<path class="st7" d="M30.5,46.6c0,0.9,1.7,1.6,3.7,1.6c2,0,3.7-0.7,3.7-1.6c0-0.9-1.7-1.6-3.7-1.6
					C32.2,45.1,30.5,45.8,30.5,46.6z"/>
			</g>
			<g>
				<path class="st5" d="M32.1,47.9c-0.6-0.2-1.1-0.5-1.3-0.8l3-2c0.2,0,0.3,0,0.5,0c0.6,0,1.2,0.1,1.8,0.2L32.1,47.9z"/>
			</g>
			<g>
				<path class="st5" d="M33.7,48.1c-0.3,0-0.6-0.1-0.9-0.1l3.9-2.5c0.2,0.1,0.4,0.2,0.6,0.3L33.7,48.1z"/>
			</g>
		</g>
		<g>
			<g>
				<ellipse class="st2" cx="34.2" cy="46.5" rx="3.7" ry="1.6"/>
			</g>
			<g>
				<path class="st3" d="M30.5,45.5v0.8c0,0.6,0.9,1.2,2.2,1.4c0.3,0.1,0.6,0.1,1,0.1c0.2,0,0.3,0,0.5,0c0.5,0,1,0,1.5-0.1
					c1.3-0.2,2-0.8,2-1.5l0.2-0.8c-0.5-0.6-2.1-0.7-3.7-0.7C33,44.7,31.2,45.1,30.5,45.5z"/>
			</g>
			<g class="st4">
				<path class="st5" d="M32.7,46.3v1.4c0.3,0.1,0.6,0.1,1,0.1v-1.5H32.7z"/>
			</g>
			<g>
				<path class="st6" d="M35.5,47.8v-3c1.1,0.1,2,0.3,2.4,0.7v0.8C37.9,47,36.9,47.5,35.5,47.8z"/>
			</g>
			<g>
				<path class="st7" d="M30.5,45.5c0,0.9,1.7,1.6,3.7,1.6c2,0,3.7-0.7,3.7-1.6c0-0.9-1.7-1.6-3.7-1.6C32.2,44,30.5,44.7,30.5,45.5z
					"/>
			</g>
			<g>
				<path class="st5" d="M32.1,46.8c-0.6-0.2-1.1-0.5-1.3-0.8l3-2c0.2,0,0.3,0,0.5,0c0.6,0,1.2,0.1,1.8,0.2L32.1,46.8z"/>
			</g>
			<g>
				<path class="st5" d="M33.7,47c-0.3,0-0.6-0.1-0.9-0.1l3.9-2.5c0.2,0.1,0.4,0.2,0.6,0.3L33.7,47z"/>
			</g>
		</g>
		<g>
			<g>
				<ellipse class="st2" cx="34.2" cy="45.4" rx="3.7" ry="1.6"/>
			</g>
			<g>
				<path class="st3" d="M30.5,44.4v0.8c0,0.6,0.9,1.2,2.2,1.4c0.3,0.1,0.6,0.1,1,0.1c0.2,0,0.3,0,0.5,0c0.5,0,1,0,1.5-0.1
					c1.3-0.2,2-0.8,2-1.5l0.2-0.8c-0.5-0.6-2.1-0.7-3.7-0.7C33,43.6,31.2,44,30.5,44.4z"/>
			</g>
			<g class="st4">
				<path class="st5" d="M32.7,45.3v1.4c0.3,0.1,0.6,0.1,1,0.1v-1.5H32.7z"/>
			</g>
			<g>
				<path class="st6" d="M35.5,46.7v-3c1.1,0.1,2,0.3,2.4,0.7v0.8C37.9,45.9,36.9,46.4,35.5,46.7z"/>
			</g>
			<g>
				<path class="st7" d="M30.5,44.4c0,0.9,1.7,1.6,3.7,1.6c2,0,3.7-0.7,3.7-1.6c0-0.9-1.7-1.6-3.7-1.6
					C32.2,42.9,30.5,43.6,30.5,44.4z"/>
			</g>
			<g>
				<path class="st5" d="M32.1,45.7c-0.6-0.2-1.1-0.5-1.3-0.8l3-2c0.2,0,0.3,0,0.5,0c0.6,0,1.2,0.1,1.8,0.2L32.1,45.7z"/>
			</g>
			<g>
				<path class="st5" d="M33.7,46c-0.3,0-0.6-0.1-0.9-0.1l3.9-2.5c0.2,0.1,0.4,0.2,0.6,0.3L33.7,46z"/>
			</g>
		</g>
	</g>
	<g>
		<g>
			<g>
				<ellipse class="st2" cx="23.1" cy="49.5" rx="3.7" ry="1.6"/>
			</g>
			<g>
				<path class="st3" d="M19.4,48.6v0.8c0,0.6,0.9,1.2,2.2,1.4c0.3,0.1,0.6,0.1,1,0.1c0.2,0,0.3,0,0.5,0c0.5,0,1,0,1.5-0.1
					c1.3-0.2,2-0.8,2-1.5l0.2-0.8c-0.5-0.6-2.1-0.7-3.7-0.7C21.9,47.8,20.1,48.2,19.4,48.6z"/>
			</g>
			<g class="st4">
				<path class="st5" d="M21.7,49.4v1.4c0.3,0.1,0.6,0.1,1,0.1v-1.5H21.7z"/>
			</g>
			<g>
				<path class="st6" d="M24.5,50.8v-3c1.1,0.1,2,0.3,2.4,0.7v0.8C26.8,50,25.9,50.6,24.5,50.8z"/>
			</g>
			<g>
				<ellipse class="st7" cx="23.1" cy="48.6" rx="3.7" ry="1.6"/>
			</g>
			<g>
				<path class="st5" d="M21,49.8c-0.6-0.2-1.1-0.5-1.3-0.8l3-2c0.2,0,0.3,0,0.5,0c0.6,0,1.2,0.1,1.8,0.2L21,49.8z"/>
			</g>
			<g>
				<path class="st5" d="M22.7,50.1c-0.3,0-0.6-0.1-0.9-0.1l3.9-2.5c0.2,0.1,0.4,0.2,0.6,0.3L22.7,50.1z"/>
			</g>
		</g>
		<g>
			<g>
				<ellipse class="st2" cx="23.1" cy="48.4" rx="3.7" ry="1.6"/>
			</g>
			<g>
				<path class="st3" d="M19.4,47.5v0.8c0,0.6,0.9,1.2,2.2,1.4c0.3,0.1,0.6,0.1,1,0.1c0.2,0,0.3,0,0.5,0c0.5,0,1,0,1.5-0.1
					c1.3-0.2,2-0.8,2-1.5l0.2-0.8c-0.5-0.6-2.1-0.7-3.7-0.7C21.9,46.7,20.1,47.1,19.4,47.5z"/>
			</g>
			<g class="st4">
				<path class="st5" d="M21.7,48.3v1.4c0.3,0.1,0.6,0.1,1,0.1v-1.5H21.7z"/>
			</g>
			<g>
				<path class="st6" d="M24.5,49.7v-3c1.1,0.1,2,0.3,2.4,0.7v0.8C26.8,48.9,25.9,49.5,24.5,49.7z"/>
			</g>
			<g>
				<ellipse class="st7" cx="23.1" cy="47.5" rx="3.7" ry="1.6"/>
			</g>
			<g>
				<path class="st5" d="M21,48.7c-0.6-0.2-1.1-0.5-1.3-0.8l3-2c0.2,0,0.3,0,0.5,0c0.6,0,1.2,0.1,1.8,0.2L21,48.7z"/>
			</g>
			<g>
				<path class="st5" d="M22.7,49c-0.3,0-0.6-0.1-0.9-0.1l3.9-2.5c0.2,0.1,0.4,0.2,0.6,0.3L22.7,49z"/>
			</g>
		</g>
		<g>
			<g>
				<ellipse class="st2" cx="23.1" cy="47.3" rx="3.7" ry="1.6"/>
			</g>
			<g>
				<path class="st3" d="M19.4,46.4v0.8c0,0.6,0.9,1.2,2.2,1.4c0.3,0.1,0.6,0.1,1,0.1c0.2,0,0.3,0,0.5,0c0.5,0,1,0,1.5-0.1
					c1.3-0.2,2-0.8,2-1.5l0.2-0.8c-0.5-0.6-2.1-0.7-3.7-0.7C21.9,45.6,20.1,46,19.4,46.4z"/>
			</g>
			<g class="st4">
				<path class="st5" d="M21.7,47.2v1.4c0.3,0.1,0.6,0.1,1,0.1v-1.5H21.7z"/>
			</g>
			<g>
				<path class="st6" d="M24.5,48.6v-3c1.1,0.1,2,0.3,2.4,0.7v0.8C26.8,47.8,25.9,48.4,24.5,48.6z"/>
			</g>
			<g>
				<ellipse class="st7" cx="23.1" cy="46.4" rx="3.7" ry="1.6"/>
			</g>
			<g>
				<path class="st5" d="M21,47.6c-0.6-0.2-1.1-0.5-1.3-0.8l3-2c0.2,0,0.3,0,0.5,0c0.6,0,1.2,0.1,1.8,0.2L21,47.6z"/>
			</g>
			<g>
				<path class="st5" d="M22.7,47.9c-0.3,0-0.6-0.1-0.9-0.1l3.9-2.5c0.2,0.1,0.4,0.2,0.6,0.3L22.7,47.9z"/>
			</g>
		</g>
		<g>
			<g>
				<ellipse class="st2" cx="23.1" cy="46.2" rx="3.7" ry="1.6"/>
			</g>
			<g>
				<path class="st3" d="M19.4,45.3v0.8c0,0.6,0.9,1.2,2.2,1.4c0.3,0.1,0.6,0.1,1,0.1c0.2,0,0.3,0,0.5,0c0.5,0,1,0,1.5-0.1
					c1.3-0.2,2-0.8,2-1.5l0.2-0.8c-0.5-0.6-2.1-0.7-3.7-0.7C21.9,44.5,20.1,44.9,19.4,45.3z"/>
			</g>
			<g class="st4">
				<path class="st5" d="M21.7,46.1v1.4c0.3,0.1,0.6,0.1,1,0.1v-1.5H21.7z"/>
			</g>
			<g>
				<path class="st6" d="M24.5,47.5v-3c1.1,0.1,2,0.3,2.4,0.7v0.8C26.8,46.8,25.9,47.3,24.5,47.5z"/>
			</g>
			<g>
				<ellipse class="st7" cx="23.1" cy="45.3" rx="3.7" ry="1.6"/>
			</g>
			<g>
				<path class="st5" d="M21,46.6c-0.6-0.2-1.1-0.5-1.3-0.8l3-2c0.2,0,0.3,0,0.5,0c0.6,0,1.2,0.1,1.8,0.2L21,46.6z"/>
			</g>
			<g>
				<path class="st5" d="M22.7,46.8c-0.3,0-0.6-0.1-0.9-0.1l3.9-2.5c0.2,0.1,0.4,0.2,0.6,0.3L22.7,46.8z"/>
			</g>
		</g>
		<g>
			<g>
				<ellipse class="st2" cx="23.1" cy="45.2" rx="3.7" ry="1.6"/>
			</g>
			<g>
				<path class="st3" d="M19.4,44.2V45c0,0.6,0.9,1.2,2.2,1.4c0.3,0.1,0.6,0.1,1,0.1c0.2,0,0.3,0,0.5,0c0.5,0,1,0,1.5-0.1
					c1.3-0.2,2-0.8,2-1.5l0.2-0.8c-0.5-0.6-2.1-0.7-3.7-0.7C21.9,43.4,20.1,43.8,19.4,44.2z"/>
			</g>
			<g class="st4">
				<path class="st5" d="M21.7,45v1.4c0.3,0.1,0.6,0.1,1,0.1V45H21.7z"/>
			</g>
			<g>
				<path class="st6" d="M24.5,46.5v-3c1.1,0.1,2,0.3,2.4,0.7V45C26.8,45.7,25.9,46.2,24.5,46.5z"/>
			</g>
			<g>
				<ellipse class="st7" cx="23.1" cy="44.2" rx="3.7" ry="1.6"/>
			</g>
			<g>
				<path class="st5" d="M21,45.5c-0.6-0.2-1.1-0.5-1.3-0.8l3-2c0.2,0,0.3,0,0.5,0c0.6,0,1.2,0.1,1.8,0.2L21,45.5z"/>
			</g>
			<g>
				<path class="st5" d="M22.7,45.8c-0.3,0-0.6-0.1-0.9-0.1l3.9-2.5c0.2,0.1,0.4,0.2,0.6,0.3L22.7,45.8z"/>
			</g>
		</g>
		<g>
			<g>
				<ellipse class="st2" cx="23.1" cy="44.1" rx="3.7" ry="1.6"/>
			</g>
			<g>
				<path class="st3" d="M19.4,43.1v0.8c0,0.6,0.9,1.2,2.2,1.4c0.3,0.1,0.6,0.1,1,0.1c0.2,0,0.3,0,0.5,0c0.5,0,1,0,1.5-0.1
					c1.3-0.2,2-0.8,2-1.5l0.2-0.8c-0.5-0.6-2.1-0.7-3.7-0.7C21.9,42.3,20.1,42.7,19.4,43.1z"/>
			</g>
			<g class="st4">
				<path class="st5" d="M21.7,44v1.4c0.3,0.1,0.6,0.1,1,0.1V44H21.7z"/>
			</g>
			<g>
				<path class="st6" d="M24.5,45.4v-3c1.1,0.1,2,0.3,2.4,0.7v0.8C26.8,44.6,25.9,45.1,24.5,45.4z"/>
			</g>
			<g>
				<ellipse class="st7" cx="23.1" cy="43.2" rx="3.7" ry="1.6"/>
			</g>
			<g>
				<path class="st5" d="M21,44.4c-0.6-0.2-1.1-0.5-1.3-0.8l3-2c0.2,0,0.3,0,0.5,0c0.6,0,1.2,0.1,1.8,0.2L21,44.4z"/>
			</g>
			<g>
				<path class="st5" d="M22.7,44.7c-0.3,0-0.6-0.1-0.9-0.1l3.9-2.5c0.2,0.1,0.4,0.2,0.6,0.3L22.7,44.7z"/>
			</g>
		</g>
	</g>
</g>
</svg>
