<?xml version="1.0" encoding="utf-8"?>
<!-- Generator: Adobe Illustrator 23.0.3, SVG Export Plug-In . SVG Version: 6.00 Build 0)  -->
<svg version="1.1" id="Layer_1" xmlns="http://www.w3.org/2000/svg" xmlns:xlink="http://www.w3.org/1999/xlink" x="0px" y="0px"
	 viewBox="0 0 60 80" style="enable-background:new 0 0 60 80;" xml:space="preserve">
<style type="text/css">
	.st0{opacity:0.72;fill:#9EB3B6;}
	.st1{fill:#CE7D13;}
	.st2{fill:#FFC50D;}
	.st3{opacity:0.43;}
	.st4{fill:#FFFC8F;}
	.st5{fill:#F19D00;}
	.st6{fill:#FFD400;}
	.st7{opacity:0.8;fill:#9C86B7;}
	.st8{fill:#47752F;}
	.st9{fill:#4E8436;}
	.st10{fill:#ADE069;}
	.st11{fill:#70A33C;}
	.st12{fill:#607700;}
	.st13{fill:#FFFFFF;}
	.st14{fill:#9FD65E;}
	.st15{opacity:0.44;fill:#48842F;}
	.st16{fill:#FF895A;}
	.st17{opacity:0.29;fill:#846E56;}
	.st18{opacity:0.72;fill:#9C86B7;}
</style>
<g>
	<path class="st0" d="M36.02,48.32c-0.07-0.1-0.11-0.2-0.11-0.31c0-0.58,1.12-1.06,2.5-1.06c1.38,0,2.5,0.47,2.5,1.06
		c0,0.11-0.04,0.21-0.11,0.31h0.01l-2.95,3.59L34.26,48L36.02,48.32z"/>
	<g>
		<polygon class="st0" points="37.19,48.21 41.46,43.11 34.64,43.11 		"/>
	</g>
	<g>
		<g>
			<g>
				<ellipse class="st1" cx="25.9" cy="44.1" rx="2.5" ry="1.06"/>
			</g>
			<g>
				<path class="st2" d="M23.4,43.49V44c0,0.44,0.62,0.81,1.5,0.97c0.21,0.04,0.43,0.07,0.67,0.08c0.11,0.01,0.22,0.01,0.33,0.01
					c0.35,0,0.69-0.03,1-0.09c0.88-0.16,1.34-0.54,1.34-0.98l0.16-0.55c-0.36-0.4-1.43-0.5-2.5-0.5
					C25.06,42.94,23.86,43.21,23.4,43.49z"/>
			</g>
			<g class="st3">
				<path class="st4" d="M24.91,44.03v0.93c0.21,0.04,0.43,0.07,0.67,0.08v-1.01H24.91z"/>
			</g>
			<g>
				<path class="st5" d="M26.79,44.98v-2.02c0.72,0.05,1.35,0.18,1.61,0.47v0.56C28.4,44.45,27.73,44.83,26.79,44.98z"/>
			</g>
			<g>
				<ellipse class="st6" cx="25.9" cy="43.49" rx="2.5" ry="1.06"/>
			</g>
			<g>
				<path class="st4" d="M24.48,44.32c-0.43-0.13-0.74-0.32-0.9-0.53l2.01-1.32c0.12-0.01,0.23-0.01,0.34-0.01
					c0.41,0,0.82,0.04,1.18,0.13L24.48,44.32z"/>
			</g>
			<g>
				<path class="st4" d="M25.58,44.51c-0.2-0.01-0.4-0.03-0.58-0.07l2.6-1.71c0.15,0.06,0.28,0.12,0.39,0.19L25.58,44.51z"/>
			</g>
		</g>
		<g>
			<g>
				<ellipse class="st1" cx="25.9" cy="43.37" rx="2.5" ry="1.06"/>
			</g>
			<g>
				<path class="st2" d="M23.4,42.75v0.51c0,0.44,0.62,0.81,1.5,0.97c0.21,0.04,0.43,0.07,0.67,0.08c0.11,0.01,0.22,0.01,0.33,0.01
					c0.35,0,0.69-0.03,1-0.09c0.88-0.16,1.34-0.54,1.34-0.98l0.16-0.55c-0.36-0.4-1.43-0.5-2.5-0.5
					C25.06,42.2,23.86,42.48,23.4,42.75z"/>
			</g>
			<g class="st3">
				<path class="st4" d="M24.91,43.3v0.93c0.21,0.04,0.43,0.07,0.67,0.08V43.3H24.91z"/>
			</g>
			<g>
				<path class="st5" d="M26.79,44.25v-2.02c0.72,0.05,1.35,0.18,1.61,0.47v0.56C28.4,43.71,27.73,44.1,26.79,44.25z"/>
			</g>
			<g>
				<ellipse class="st6" cx="25.9" cy="42.75" rx="2.5" ry="1.06"/>
			</g>
			<g>
				<path class="st4" d="M24.48,43.58c-0.43-0.13-0.74-0.32-0.9-0.53l2.01-1.32c0.12-0.01,0.23-0.01,0.34-0.01
					c0.41,0,0.82,0.04,1.18,0.13L24.48,43.58z"/>
			</g>
			<g>
				<path class="st4" d="M25.58,43.77c-0.2-0.01-0.4-0.03-0.58-0.07l2.6-1.71c0.15,0.06,0.28,0.12,0.39,0.19L25.58,43.77z"/>
			</g>
		</g>
		<g>
			<g>
				<ellipse class="st1" cx="25.9" cy="42.64" rx="2.5" ry="1.06"/>
			</g>
			<g>
				<path class="st2" d="M23.4,42.02v0.51c0,0.44,0.62,0.81,1.5,0.97c0.21,0.04,0.43,0.07,0.67,0.08c0.11,0.01,0.22,0.01,0.33,0.01
					c0.35,0,0.69-0.03,1-0.09c0.88-0.16,1.34-0.54,1.34-0.98l0.16-0.55c-0.36-0.4-1.43-0.5-2.5-0.5
					C25.06,41.47,23.86,41.75,23.4,42.02z"/>
			</g>
			<g class="st3">
				<path class="st4" d="M24.91,42.56v0.93c0.21,0.04,0.43,0.07,0.67,0.08v-1.01H24.91z"/>
			</g>
			<g>
				<path class="st5" d="M26.79,43.51V41.5c0.72,0.05,1.35,0.18,1.61,0.47v0.56C28.4,42.98,27.73,43.36,26.79,43.51z"/>
			</g>
			<g>
				<ellipse class="st6" cx="25.9" cy="42.02" rx="2.5" ry="1.06"/>
			</g>
			<g>
				<path class="st4" d="M24.48,42.85c-0.43-0.13-0.74-0.32-0.9-0.53L25.59,41c0.12-0.01,0.23-0.01,0.34-0.01
					c0.41,0,0.82,0.04,1.18,0.13L24.48,42.85z"/>
			</g>
			<g>
				<path class="st4" d="M25.58,43.04c-0.2-0.01-0.4-0.03-0.58-0.07l2.6-1.71c0.15,0.06,0.28,0.12,0.39,0.19L25.58,43.04z"/>
			</g>
		</g>
		<g>
			<g>
				<ellipse class="st1" cx="25.9" cy="41.9" rx="2.5" ry="1.06"/>
			</g>
			<g>
				<path class="st2" d="M23.4,41.28v0.51c0,0.44,0.62,0.81,1.5,0.97c0.21,0.04,0.43,0.07,0.67,0.08c0.11,0.01,0.22,0.01,0.33,0.01
					c0.35,0,0.69-0.03,1-0.09c0.88-0.16,1.34-0.54,1.34-0.98l0.16-0.55c-0.36-0.4-1.43-0.5-2.5-0.5
					C25.06,40.73,23.86,41.01,23.4,41.28z"/>
			</g>
			<g class="st3">
				<path class="st4" d="M24.91,41.83v0.93c0.21,0.04,0.43,0.07,0.67,0.08v-1.01H24.91z"/>
			</g>
			<g>
				<path class="st5" d="M26.79,42.78v-2.02c0.72,0.05,1.35,0.18,1.61,0.47v0.56C28.4,42.24,27.73,42.63,26.79,42.78z"/>
			</g>
			<g>
				<ellipse class="st6" cx="25.9" cy="41.28" rx="2.5" ry="1.06"/>
			</g>
			<g>
				<path class="st4" d="M24.48,42.11c-0.43-0.13-0.74-0.32-0.9-0.53l2.01-1.32c0.12-0.01,0.23-0.01,0.34-0.01
					c0.41,0,0.82,0.04,1.18,0.13L24.48,42.11z"/>
			</g>
			<g>
				<path class="st4" d="M25.58,42.3c-0.2-0.01-0.4-0.03-0.58-0.07l2.6-1.71c0.15,0.06,0.28,0.12,0.39,0.19L25.58,42.3z"/>
			</g>
		</g>
		<g>
			<g>
				<ellipse class="st1" cx="25.9" cy="41.17" rx="2.5" ry="1.06"/>
			</g>
			<g>
				<path class="st2" d="M23.4,40.55v0.51c0,0.44,0.62,0.81,1.5,0.97c0.21,0.04,0.43,0.07,0.67,0.08c0.11,0.01,0.22,0.01,0.33,0.01
					c0.35,0,0.69-0.03,1-0.09c0.88-0.16,1.34-0.54,1.34-0.98l0.16-0.55c-0.36-0.4-1.43-0.5-2.5-0.5C25.06,40,23.86,40.28,23.4,40.55
					z"/>
			</g>
			<g class="st3">
				<path class="st4" d="M24.91,41.1v0.93c0.21,0.04,0.43,0.07,0.67,0.08V41.1H24.91z"/>
			</g>
			<g>
				<path class="st5" d="M26.79,42.05v-2.02c0.72,0.05,1.35,0.18,1.61,0.47v0.56C28.4,41.51,27.73,41.89,26.79,42.05z"/>
			</g>
			<g>
				<ellipse class="st6" cx="25.9" cy="40.55" rx="2.5" ry="1.06"/>
			</g>
			<g>
				<path class="st4" d="M24.48,41.38c-0.43-0.13-0.74-0.32-0.9-0.53l2.01-1.32c0.12-0.01,0.23-0.01,0.34-0.01
					c0.41,0,0.82,0.04,1.18,0.13L24.48,41.38z"/>
			</g>
			<g>
				<path class="st4" d="M25.58,41.57c-0.2-0.01-0.4-0.03-0.58-0.07l2.6-1.71c0.15,0.06,0.28,0.12,0.39,0.19L25.58,41.57z"/>
			</g>
		</g>
		<g>
			<g>
				<ellipse class="st1" cx="25.9" cy="40.43" rx="2.5" ry="1.06"/>
			</g>
			<g>
				<path class="st2" d="M23.4,39.81v0.51c0,0.44,0.62,0.81,1.5,0.97c0.21,0.04,0.43,0.07,0.67,0.08c0.11,0.01,0.22,0.01,0.33,0.01
					c0.35,0,0.69-0.03,1-0.09c0.88-0.16,1.34-0.54,1.34-0.98l0.16-0.55c-0.36-0.4-1.43-0.5-2.5-0.5
					C25.06,39.26,23.86,39.54,23.4,39.81z"/>
			</g>
			<g class="st3">
				<path class="st4" d="M24.91,40.36v0.93c0.21,0.04,0.43,0.07,0.67,0.08v-1.01H24.91z"/>
			</g>
			<g>
				<path class="st5" d="M26.79,41.31v-2.02c0.72,0.05,1.35,0.18,1.61,0.47v0.56C28.4,40.77,27.73,41.16,26.79,41.31z"/>
			</g>
			<g>
				<ellipse class="st6" cx="25.9" cy="39.82" rx="2.5" ry="1.06"/>
			</g>
			<g>
				<path class="st4" d="M24.48,40.65c-0.43-0.13-0.74-0.32-0.9-0.53l2.01-1.32c0.12-0.01,0.23-0.01,0.34-0.01
					c0.41,0,0.82,0.04,1.18,0.13L24.48,40.65z"/>
			</g>
			<g>
				<path class="st4" d="M25.58,40.83c-0.2-0.01-0.4-0.03-0.58-0.07l2.6-1.71c0.15,0.06,0.28,0.12,0.39,0.19L25.58,40.83z"/>
			</g>
		</g>
		<g>
			<g>
				<ellipse class="st1" cx="25.9" cy="39.7" rx="2.5" ry="1.06"/>
			</g>
			<g>
				<path class="st2" d="M23.4,39.08v0.51c0,0.44,0.62,0.81,1.5,0.97c0.21,0.04,0.43,0.07,0.67,0.08c0.11,0.01,0.22,0.01,0.33,0.01
					c0.35,0,0.69-0.03,1-0.09c0.88-0.16,1.34-0.54,1.34-0.98l0.16-0.55c-0.36-0.4-1.43-0.5-2.5-0.5
					C25.06,38.53,23.86,38.81,23.4,39.08z"/>
			</g>
			<g class="st3">
				<path class="st4" d="M24.91,39.63v0.93c0.21,0.04,0.43,0.07,0.67,0.08v-1.01H24.91z"/>
			</g>
			<g>
				<path class="st5" d="M26.79,40.58v-2.02c0.72,0.05,1.35,0.18,1.61,0.47v0.56C28.4,40.04,27.73,40.43,26.79,40.58z"/>
			</g>
			<g>
				<ellipse class="st6" cx="25.9" cy="39.08" rx="2.5" ry="1.06"/>
			</g>
			<g>
				<path class="st4" d="M24.48,39.91c-0.43-0.13-0.74-0.32-0.9-0.53l2.01-1.32c0.12-0.01,0.23-0.01,0.34-0.01
					c0.41,0,0.82,0.04,1.18,0.13L24.48,39.91z"/>
			</g>
			<g>
				<path class="st4" d="M25.58,40.1c-0.2-0.01-0.4-0.03-0.58-0.07l2.6-1.71c0.15,0.06,0.28,0.12,0.39,0.19L25.58,40.1z"/>
			</g>
		</g>
		<g>
			<g>
				<ellipse class="st1" cx="25.9" cy="38.96" rx="2.5" ry="1.06"/>
			</g>
			<g>
				<path class="st2" d="M23.4,38.35v0.51c0,0.44,0.62,0.81,1.5,0.97c0.21,0.04,0.43,0.07,0.67,0.08c0.11,0.01,0.22,0.01,0.33,0.01
					c0.35,0,0.69-0.03,1-0.09c0.88-0.16,1.34-0.54,1.34-0.98l0.16-0.55c-0.36-0.4-1.43-0.5-2.5-0.5
					C25.06,37.8,23.86,38.07,23.4,38.35z"/>
			</g>
			<g class="st3">
				<path class="st4" d="M24.91,38.89v0.93c0.21,0.04,0.43,0.07,0.67,0.08v-1.01H24.91z"/>
			</g>
			<g>
				<path class="st5" d="M26.79,39.84v-2.02c0.72,0.05,1.35,0.18,1.61,0.47v0.56C28.4,39.31,27.73,39.69,26.79,39.84z"/>
			</g>
			<g>
				<ellipse class="st6" cx="25.9" cy="38.35" rx="2.5" ry="1.06"/>
			</g>
			<g>
				<path class="st4" d="M24.48,39.18c-0.43-0.13-0.74-0.32-0.9-0.53l2.01-1.32c0.12-0.01,0.23-0.01,0.34-0.01
					c0.41,0,0.82,0.04,1.18,0.13L24.48,39.18z"/>
			</g>
			<g>
				<path class="st4" d="M25.58,39.37c-0.2-0.01-0.4-0.03-0.58-0.07l2.6-1.71c0.15,0.06,0.28,0.12,0.39,0.19L25.58,39.37z"/>
			</g>
		</g>
		<g>
			<g>
				<ellipse class="st1" cx="25.9" cy="38.23" rx="2.5" ry="1.06"/>
			</g>
			<g>
				<path class="st2" d="M23.4,37.61v0.51c0,0.44,0.62,0.81,1.5,0.97c0.21,0.04,0.43,0.07,0.67,0.08c0.11,0.01,0.22,0.01,0.33,0.01
					c0.35,0,0.69-0.03,1-0.09c0.88-0.16,1.34-0.54,1.34-0.98l0.16-0.55c-0.36-0.4-1.43-0.5-2.5-0.5
					C25.06,37.06,23.86,37.34,23.4,37.61z"/>
			</g>
			<g class="st3">
				<path class="st4" d="M24.91,38.16v0.93c0.21,0.04,0.43,0.07,0.67,0.08v-1.01H24.91z"/>
			</g>
			<g>
				<path class="st5" d="M26.79,39.11v-2.02c0.72,0.05,1.35,0.18,1.61,0.47v0.56C28.4,38.57,27.73,38.96,26.79,39.11z"/>
			</g>
			<g>
				<ellipse class="st6" cx="25.9" cy="37.61" rx="2.5" ry="1.06"/>
			</g>
			<g>
				<path class="st4" d="M24.48,38.44c-0.43-0.13-0.74-0.32-0.9-0.53l2.01-1.32c0.12-0.01,0.23-0.01,0.34-0.01
					c0.41,0,0.82,0.04,1.18,0.13L24.48,38.44z"/>
			</g>
			<g>
				<path class="st4" d="M25.58,38.63c-0.2-0.01-0.4-0.03-0.58-0.07l2.6-1.71c0.15,0.06,0.28,0.12,0.39,0.19L25.58,38.63z"/>
			</g>
		</g>
		<g>
			<g>
				<ellipse class="st1" cx="25.9" cy="37.5" rx="2.5" ry="1.06"/>
			</g>
			<g>
				<path class="st2" d="M23.4,36.88v0.51c0,0.44,0.62,0.81,1.5,0.97c0.21,0.04,0.43,0.07,0.67,0.08c0.11,0.01,0.22,0.01,0.33,0.01
					c0.35,0,0.69-0.03,1-0.09c0.88-0.16,1.34-0.54,1.34-0.98l0.16-0.55c-0.36-0.4-1.43-0.5-2.5-0.5
					C25.06,36.33,23.86,36.61,23.4,36.88z"/>
			</g>
			<g class="st3">
				<path class="st4" d="M24.91,37.42v0.93c0.21,0.04,0.43,0.07,0.67,0.08v-1.01H24.91z"/>
			</g>
			<g>
				<path class="st5" d="M26.79,38.37v-2.02c0.72,0.05,1.35,0.18,1.61,0.47v0.56C28.4,37.84,27.73,38.22,26.79,38.37z"/>
			</g>
			<g>
				<ellipse class="st6" cx="25.9" cy="36.88" rx="2.5" ry="1.06"/>
			</g>
			<g>
				<path class="st4" d="M24.48,37.71c-0.43-0.13-0.74-0.32-0.9-0.53l2.01-1.32c0.12-0.01,0.23-0.01,0.34-0.01
					c0.41,0,0.82,0.04,1.18,0.13L24.48,37.71z"/>
			</g>
			<g>
				<path class="st4" d="M25.58,37.9c-0.2-0.01-0.4-0.03-0.58-0.07l2.6-1.71c0.15,0.06,0.28,0.12,0.39,0.19L25.58,37.9z"/>
			</g>
		</g>
		<g>
			<g>
				<ellipse class="st1" cx="25.9" cy="36.76" rx="2.5" ry="1.06"/>
			</g>
			<g>
				<path class="st2" d="M23.4,36.14v0.51c0,0.44,0.62,0.81,1.5,0.97c0.21,0.04,0.43,0.07,0.67,0.08c0.11,0.01,0.22,0.01,0.33,0.01
					c0.35,0,0.69-0.03,1-0.09c0.88-0.16,1.34-0.54,1.34-0.98l0.16-0.55c-0.36-0.4-1.43-0.5-2.5-0.5
					C25.06,35.59,23.86,35.87,23.4,36.14z"/>
			</g>
			<g class="st3">
				<path class="st4" d="M24.91,36.69v0.93c0.21,0.04,0.43,0.07,0.67,0.08v-1.01H24.91z"/>
			</g>
			<g>
				<path class="st5" d="M26.79,37.64v-2.02c0.72,0.05,1.35,0.18,1.61,0.47v0.56C28.4,37.1,27.73,37.49,26.79,37.64z"/>
			</g>
			<g>
				<ellipse class="st6" cx="25.9" cy="36.14" rx="2.5" ry="1.06"/>
			</g>
			<g>
				<path class="st4" d="M24.48,36.97c-0.43-0.13-0.74-0.32-0.9-0.53l2.01-1.32c0.12-0.01,0.23-0.01,0.34-0.01
					c0.41,0,0.82,0.04,1.18,0.13L24.48,36.97z"/>
			</g>
			<g>
				<path class="st4" d="M25.58,37.16c-0.2-0.01-0.4-0.03-0.58-0.07l2.6-1.71c0.15,0.06,0.28,0.12,0.39,0.19L25.58,37.16z"/>
			</g>
		</g>
		<g>
			<g>
				<ellipse class="st1" cx="25.9" cy="36.03" rx="2.5" ry="1.06"/>
			</g>
			<g>
				<path class="st2" d="M23.4,35.41v0.51c0,0.44,0.62,0.81,1.5,0.97c0.21,0.04,0.43,0.07,0.67,0.08c0.11,0.01,0.22,0.01,0.33,0.01
					c0.35,0,0.69-0.03,1-0.09c0.88-0.16,1.34-0.54,1.34-0.98l0.16-0.55c-0.36-0.4-1.43-0.5-2.5-0.5
					C25.06,34.86,23.86,35.14,23.4,35.41z"/>
			</g>
			<g class="st3">
				<path class="st4" d="M24.91,35.95v0.93c0.21,0.04,0.43,0.07,0.67,0.08v-1.01H24.91z"/>
			</g>
			<g>
				<path class="st5" d="M26.79,36.91v-2.02c0.72,0.05,1.35,0.18,1.61,0.47v0.56C28.4,36.37,27.73,36.75,26.79,36.91z"/>
			</g>
			<g>
				<ellipse class="st6" cx="25.9" cy="35.41" rx="2.5" ry="1.06"/>
			</g>
			<g>
				<path class="st4" d="M24.48,36.24c-0.43-0.13-0.74-0.32-0.9-0.53l2.01-1.32c0.12-0.01,0.23-0.01,0.34-0.01
					c0.41,0,0.82,0.04,1.18,0.13L24.48,36.24z"/>
			</g>
			<g>
				<path class="st4" d="M25.58,36.43c-0.2-0.01-0.4-0.03-0.58-0.07l2.6-1.71c0.15,0.06,0.28,0.12,0.39,0.19L25.58,36.43z"/>
			</g>
		</g>
		<g>
			<g>
				<ellipse class="st1" cx="25.9" cy="35.29" rx="2.5" ry="1.06"/>
			</g>
			<g>
				<path class="st2" d="M23.4,34.67v0.51c0,0.44,0.62,0.81,1.5,0.97c0.21,0.04,0.43,0.07,0.67,0.08c0.11,0.01,0.22,0.01,0.33,0.01
					c0.35,0,0.69-0.03,1-0.09c0.88-0.16,1.34-0.54,1.34-0.98l0.16-0.55c-0.36-0.4-1.43-0.5-2.5-0.5
					C25.06,34.12,23.86,34.4,23.4,34.67z"/>
			</g>
			<g class="st3">
				<path class="st4" d="M24.91,35.22v0.93c0.21,0.04,0.43,0.07,0.67,0.08v-1.01H24.91z"/>
			</g>
			<g>
				<path class="st5" d="M26.79,36.17v-2.02c0.72,0.05,1.35,0.18,1.61,0.47v0.56C28.4,35.63,27.73,36.02,26.79,36.17z"/>
			</g>
			<g>
				<ellipse class="st6" cx="25.9" cy="34.67" rx="2.5" ry="1.06"/>
			</g>
			<g>
				<path class="st4" d="M24.48,35.5c-0.43-0.13-0.74-0.32-0.9-0.53l2.01-1.32c0.12-0.01,0.23-0.01,0.34-0.01
					c0.41,0,0.82,0.04,1.18,0.13L24.48,35.5z"/>
			</g>
			<g>
				<path class="st4" d="M25.58,35.69c-0.2-0.01-0.4-0.03-0.58-0.07l2.6-1.71c0.15,0.06,0.28,0.12,0.39,0.19L25.58,35.69z"/>
			</g>
		</g>
	</g>
	<path class="st7" d="M23.04,43.04c0,0.59,1.12,1.38,2.5,1.78c0.15,0.04,0.29,0.08,0.42,0.11v-4.94c-0.14-0.03-0.27,0.77-0.42,0.77
		c-1.13,0-1.67-0.37-2.12-0.77C23.12,40.07,23.04,42.81,23.04,43.04z"/>
	<g>
		<g>
			<g>
				<path class="st1" d="M19.01,49.74c0,0.58,1.12,1.06,2.5,1.06c1.38,0,2.5-0.47,2.5-1.06c0-0.58-1.12-1.06-2.5-1.06
					C20.12,48.68,19.01,49.15,19.01,49.74z"/>
			</g>
			<g>
				<path class="st2" d="M19.01,49.12v0.51c0,0.44,0.62,0.81,1.5,0.97c0.21,0.04,0.43,0.07,0.67,0.08c0.11,0.01,0.22,0.01,0.33,0.01
					c0.35,0,0.69-0.03,1-0.09c0.88-0.16,1.34-0.54,1.34-0.98L24,49.07c-0.36-0.4-1.43-0.5-2.5-0.5
					C20.66,48.57,19.46,48.85,19.01,49.12z"/>
			</g>
			<g class="st3">
				<path class="st4" d="M20.51,49.67v0.93c0.21,0.04,0.43,0.07,0.67,0.08v-1.01H20.51z"/>
			</g>
			<g>
				<path class="st5" d="M22.39,50.62V48.6c0.72,0.05,1.35,0.18,1.61,0.47v0.56C24,50.08,23.33,50.47,22.39,50.62z"/>
			</g>
			<g>
				<ellipse class="st6" cx="21.5" cy="49.12" rx="2.5" ry="1.06"/>
			</g>
			<g>
				<path class="st4" d="M20.08,49.95c-0.43-0.13-0.74-0.32-0.9-0.53l2.01-1.32c0.12-0.01,0.23-0.01,0.34-0.01
					c0.41,0,0.82,0.04,1.18,0.13L20.08,49.95z"/>
			</g>
			<g>
				<path class="st4" d="M21.18,50.14c-0.2-0.01-0.4-0.03-0.58-0.07l2.6-1.71c0.15,0.06,0.28,0.12,0.39,0.19L21.18,50.14z"/>
			</g>
		</g>
		<g>
			<g>
				<path class="st1" d="M19.01,49c0,0.58,1.12,1.06,2.5,1.06c1.38,0,2.5-0.47,2.5-1.06c0-0.58-1.12-1.06-2.5-1.06
					C20.12,47.95,19.01,48.42,19.01,49z"/>
			</g>
			<g>
				<path class="st2" d="M19.01,48.39v0.51c0,0.44,0.62,0.81,1.5,0.97c0.21,0.04,0.43,0.07,0.67,0.08c0.11,0.01,0.22,0.01,0.33,0.01
					c0.35,0,0.69-0.03,1-0.09c0.88-0.16,1.34-0.54,1.34-0.98L24,48.33c-0.36-0.4-1.43-0.5-2.5-0.5
					C20.66,47.84,19.46,48.12,19.01,48.39z"/>
			</g>
			<g class="st3">
				<path class="st4" d="M20.51,48.93v0.93c0.21,0.04,0.43,0.07,0.67,0.08v-1.01H20.51z"/>
			</g>
			<g>
				<path class="st5" d="M22.39,49.88v-2.02c0.72,0.05,1.35,0.18,1.61,0.47v0.56C24,49.35,23.33,49.73,22.39,49.88z"/>
			</g>
			<g>
				<ellipse class="st6" cx="21.5" cy="48.39" rx="2.5" ry="1.06"/>
			</g>
			<g>
				<path class="st4" d="M20.08,49.22c-0.43-0.13-0.74-0.32-0.9-0.53l2.01-1.32c0.12-0.01,0.23-0.01,0.34-0.01
					c0.41,0,0.82,0.04,1.18,0.13L20.08,49.22z"/>
			</g>
			<g>
				<path class="st4" d="M21.18,49.41c-0.2-0.01-0.4-0.03-0.58-0.07l2.6-1.71c0.15,0.06,0.28,0.12,0.39,0.19L21.18,49.41z"/>
			</g>
		</g>
		<g>
			<g>
				<path class="st1" d="M19.01,48.27c0,0.58,1.12,1.06,2.5,1.06c1.38,0,2.5-0.47,2.5-1.06c0-0.58-1.12-1.06-2.5-1.06
					C20.12,47.21,19.01,47.69,19.01,48.27z"/>
			</g>
			<g>
				<path class="st2" d="M19.01,47.65v0.51c0,0.44,0.62,0.81,1.5,0.97c0.21,0.04,0.43,0.07,0.67,0.08c0.11,0.01,0.22,0.01,0.33,0.01
					c0.35,0,0.69-0.03,1-0.09c0.88-0.16,1.34-0.54,1.34-0.98L24,47.6c-0.36-0.4-1.43-0.5-2.5-0.5
					C20.66,47.1,19.46,47.38,19.01,47.65z"/>
			</g>
			<g class="st3">
				<path class="st4" d="M20.51,48.2v0.93c0.21,0.04,0.43,0.07,0.67,0.08V48.2H20.51z"/>
			</g>
			<g>
				<path class="st5" d="M22.39,49.15v-2.02c0.72,0.05,1.35,0.18,1.61,0.47v0.56C24,48.61,23.33,49,22.39,49.15z"/>
			</g>
			<g>
				<ellipse class="st6" cx="21.5" cy="47.65" rx="2.5" ry="1.06"/>
			</g>
			<g>
				<path class="st4" d="M20.08,48.48c-0.43-0.13-0.74-0.32-0.9-0.53l2.01-1.32c0.12-0.01,0.23-0.01,0.34-0.01
					c0.41,0,0.82,0.04,1.18,0.13L20.08,48.48z"/>
			</g>
			<g>
				<path class="st4" d="M21.18,48.67c-0.2-0.01-0.4-0.03-0.58-0.07l2.6-1.71c0.15,0.06,0.28,0.12,0.39,0.19L21.18,48.67z"/>
			</g>
		</g>
		<g>
			<g>
				<path class="st1" d="M19.01,47.54c0,0.58,1.12,1.06,2.5,1.06c1.38,0,2.5-0.47,2.5-1.06c0-0.58-1.12-1.06-2.5-1.06
					C20.12,46.48,19.01,46.95,19.01,47.54z"/>
			</g>
			<g>
				<path class="st2" d="M19.01,46.92v0.51c0,0.44,0.62,0.81,1.5,0.97c0.21,0.04,0.43,0.07,0.67,0.08c0.11,0.01,0.22,0.01,0.33,0.01
					c0.35,0,0.69-0.03,1-0.09c0.88-0.16,1.34-0.54,1.34-0.98L24,46.86c-0.36-0.4-1.43-0.5-2.5-0.5
					C20.66,46.37,19.46,46.65,19.01,46.92z"/>
			</g>
			<g class="st3">
				<path class="st4" d="M20.51,47.46v0.93c0.21,0.04,0.43,0.07,0.67,0.08v-1.01H20.51z"/>
			</g>
			<g>
				<path class="st5" d="M22.39,48.41V46.4c0.72,0.05,1.35,0.18,1.61,0.47v0.56C24,47.88,23.33,48.26,22.39,48.41z"/>
			</g>
			<g>
				<ellipse class="st6" cx="21.5" cy="46.92" rx="2.5" ry="1.06"/>
			</g>
			<g>
				<path class="st4" d="M20.08,47.75c-0.43-0.13-0.74-0.32-0.9-0.53l2.01-1.32c0.12-0.01,0.23-0.01,0.34-0.01
					c0.41,0,0.82,0.04,1.18,0.13L20.08,47.75z"/>
			</g>
			<g>
				<path class="st4" d="M21.18,47.94c-0.2-0.01-0.4-0.03-0.58-0.07l2.6-1.71c0.15,0.06,0.28,0.12,0.39,0.19L21.18,47.94z"/>
			</g>
		</g>
		<g>
			<g>
				<path class="st1" d="M19.01,46.8c0,0.58,1.12,1.06,2.5,1.06c1.38,0,2.5-0.47,2.5-1.06c0-0.58-1.12-1.06-2.5-1.06
					C20.12,45.74,19.01,46.22,19.01,46.8z"/>
			</g>
			<g>
				<path class="st2" d="M19.01,46.18v0.51c0,0.44,0.62,0.81,1.5,0.97c0.21,0.04,0.43,0.07,0.67,0.08c0.11,0.01,0.22,0.01,0.33,0.01
					c0.35,0,0.69-0.03,1-0.09c0.88-0.16,1.34-0.54,1.34-0.98L24,46.13c-0.36-0.4-1.43-0.5-2.5-0.5
					C20.66,45.63,19.46,45.91,19.01,46.18z"/>
			</g>
			<g class="st3">
				<path class="st4" d="M20.51,46.73v0.93c0.21,0.04,0.43,0.07,0.67,0.08v-1.01H20.51z"/>
			</g>
			<g>
				<path class="st5" d="M22.39,47.68v-2.02c0.72,0.05,1.35,0.18,1.61,0.47v0.56C24,47.14,23.33,47.53,22.39,47.68z"/>
			</g>
			<g>
				<ellipse class="st6" cx="21.5" cy="46.18" rx="2.5" ry="1.06"/>
			</g>
			<g>
				<path class="st4" d="M20.08,47.01c-0.43-0.13-0.74-0.32-0.9-0.53l2.01-1.32c0.12-0.01,0.23-0.01,0.34-0.01
					c0.41,0,0.82,0.04,1.18,0.13L20.08,47.01z"/>
			</g>
			<g>
				<path class="st4" d="M21.18,47.2c-0.2-0.01-0.4-0.03-0.58-0.07l2.6-1.71c0.15,0.06,0.28,0.12,0.39,0.19L21.18,47.2z"/>
			</g>
		</g>
		<g>
			<g>
				<path class="st1" d="M19.01,46.07c0,0.58,1.12,1.06,2.5,1.06c1.38,0,2.5-0.47,2.5-1.06c0-0.58-1.12-1.06-2.5-1.06
					C20.12,45.01,19.01,45.48,19.01,46.07z"/>
			</g>
			<g>
				<path class="st2" d="M19.01,45.45v0.51c0,0.44,0.62,0.81,1.5,0.97c0.21,0.04,0.43,0.07,0.67,0.08c0.11,0.01,0.22,0.01,0.33,0.01
					c0.35,0,0.69-0.03,1-0.09c0.88-0.16,1.34-0.54,1.34-0.98L24,45.4c-0.36-0.4-1.43-0.5-2.5-0.5
					C20.66,44.9,19.46,45.18,19.01,45.45z"/>
			</g>
			<g class="st3">
				<path class="st4" d="M20.51,46v0.93c0.21,0.04,0.43,0.07,0.67,0.08V46H20.51z"/>
			</g>
			<g>
				<path class="st5" d="M22.39,46.95v-2.02c0.72,0.05,1.35,0.18,1.61,0.47v0.56C24,46.41,23.33,46.79,22.39,46.95z"/>
			</g>
			<g>
				<ellipse class="st6" cx="21.5" cy="45.45" rx="2.5" ry="1.06"/>
			</g>
			<g>
				<path class="st4" d="M20.08,46.28c-0.43-0.13-0.74-0.32-0.9-0.53l2.01-1.32c0.12-0.01,0.23-0.01,0.34-0.01
					c0.41,0,0.82,0.04,1.18,0.13L20.08,46.28z"/>
			</g>
			<g>
				<path class="st4" d="M21.18,46.47c-0.2-0.01-0.4-0.03-0.58-0.07l2.6-1.71c0.15,0.06,0.28,0.12,0.39,0.19L21.18,46.47z"/>
			</g>
		</g>
		<g>
			<g>
				<path class="st1" d="M19.01,45.33c0,0.58,1.12,1.06,2.5,1.06c1.38,0,2.5-0.47,2.5-1.06c0-0.58-1.12-1.06-2.5-1.06
					C20.12,44.27,19.01,44.75,19.01,45.33z"/>
			</g>
			<g>
				<path class="st2" d="M19.01,44.71v0.51c0,0.44,0.62,0.81,1.5,0.97c0.21,0.04,0.43,0.07,0.67,0.08c0.11,0.01,0.22,0.01,0.33,0.01
					c0.35,0,0.69-0.03,1-0.09c0.88-0.16,1.34-0.54,1.34-0.98L24,44.66c-0.36-0.4-1.43-0.5-2.5-0.5
					C20.66,44.17,19.46,44.44,19.01,44.71z"/>
			</g>
			<g class="st3">
				<path class="st4" d="M20.51,45.26v0.93c0.21,0.04,0.43,0.07,0.67,0.08v-1.01H20.51z"/>
			</g>
			<g>
				<path class="st5" d="M22.39,46.21v-2.02c0.72,0.05,1.35,0.18,1.61,0.47v0.56C24,45.67,23.33,46.06,22.39,46.21z"/>
			</g>
			<g>
				<ellipse class="st6" cx="21.5" cy="44.72" rx="2.5" ry="1.06"/>
			</g>
			<g>
				<path class="st4" d="M20.08,45.55c-0.43-0.13-0.74-0.32-0.9-0.53l2.01-1.32c0.12-0.01,0.23-0.01,0.34-0.01
					c0.41,0,0.82,0.04,1.18,0.13L20.08,45.55z"/>
			</g>
			<g>
				<path class="st4" d="M21.18,45.73c-0.2-0.01-0.4-0.03-0.58-0.07l2.6-1.71c0.15,0.06,0.28,0.12,0.39,0.19L21.18,45.73z"/>
			</g>
		</g>
		<g>
			<g>
				<path class="st1" d="M19.01,44.6c0,0.58,1.12,1.06,2.5,1.06c1.38,0,2.5-0.47,2.5-1.06c0-0.58-1.12-1.06-2.5-1.06
					C20.12,43.54,19.01,44.01,19.01,44.6z"/>
			</g>
			<g>
				<path class="st2" d="M19.01,43.98v0.51c0,0.44,0.62,0.81,1.5,0.97c0.21,0.04,0.43,0.07,0.67,0.08c0.11,0.01,0.22,0.01,0.33,0.01
					c0.35,0,0.69-0.03,1-0.09c0.88-0.16,1.34-0.54,1.34-0.98L24,43.93c-0.36-0.4-1.43-0.5-2.5-0.5
					C20.66,43.43,19.46,43.71,19.01,43.98z"/>
			</g>
			<g class="st3">
				<path class="st4" d="M20.51,44.53v0.93c0.21,0.04,0.43,0.07,0.67,0.08v-1.01H20.51z"/>
			</g>
			<g>
				<path class="st5" d="M22.39,45.48v-2.02c0.72,0.05,1.35,0.18,1.61,0.47v0.56C24,44.94,23.33,45.33,22.39,45.48z"/>
			</g>
			<g>
				<ellipse class="st6" cx="21.5" cy="43.98" rx="2.5" ry="1.06"/>
			</g>
			<g>
				<path class="st4" d="M20.08,44.81c-0.43-0.13-0.74-0.32-0.9-0.53l2.01-1.32c0.12-0.01,0.23-0.01,0.34-0.01
					c0.41,0,0.82,0.04,1.18,0.13L20.08,44.81z"/>
			</g>
			<g>
				<path class="st4" d="M21.18,45c-0.2-0.01-0.4-0.03-0.58-0.07l2.6-1.71c0.15,0.06,0.28,0.12,0.39,0.19L21.18,45z"/>
			</g>
		</g>
		<g>
			<g>
				<path class="st1" d="M19.01,43.86c0,0.58,1.12,1.06,2.5,1.06c1.38,0,2.5-0.47,2.5-1.06c0-0.58-1.12-1.06-2.5-1.06
					C20.12,42.81,19.01,43.28,19.01,43.86z"/>
			</g>
			<g>
				<path class="st2" d="M19.01,43.25v0.51c0,0.44,0.62,0.81,1.5,0.97c0.21,0.04,0.43,0.07,0.67,0.08c0.11,0.01,0.22,0.01,0.33,0.01
					c0.35,0,0.69-0.03,1-0.09c0.88-0.16,1.34-0.54,1.34-0.98L24,43.19c-0.36-0.4-1.43-0.5-2.5-0.5
					C20.66,42.7,19.46,42.97,19.01,43.25z"/>
			</g>
			<g class="st3">
				<path class="st4" d="M20.51,43.79v0.93c0.21,0.04,0.43,0.07,0.67,0.08v-1.01H20.51z"/>
			</g>
			<g>
				<path class="st5" d="M22.39,44.74v-2.02c0.72,0.05,1.35,0.18,1.61,0.47v0.56C24,44.21,23.33,44.59,22.39,44.74z"/>
			</g>
			<g>
				<ellipse class="st6" cx="21.5" cy="43.25" rx="2.5" ry="1.06"/>
			</g>
			<g>
				<path class="st4" d="M20.08,44.08c-0.43-0.13-0.74-0.32-0.9-0.53l2.01-1.32c0.12-0.01,0.23-0.01,0.34-0.01
					c0.41,0,0.82,0.04,1.18,0.13L20.08,44.08z"/>
			</g>
			<g>
				<path class="st4" d="M21.18,44.27c-0.2-0.01-0.4-0.03-0.58-0.07l2.6-1.71c0.15,0.06,0.28,0.12,0.39,0.19L21.18,44.27z"/>
			</g>
		</g>
		<g>
			<g>
				<path class="st1" d="M19.01,43.13c0,0.58,1.12,1.06,2.5,1.06c1.38,0,2.5-0.47,2.5-1.06c0-0.58-1.12-1.06-2.5-1.06
					C20.12,42.07,19.01,42.55,19.01,43.13z"/>
			</g>
			<g>
				<path class="st2" d="M19.01,42.51v0.51c0,0.44,0.62,0.81,1.5,0.97c0.21,0.04,0.43,0.07,0.67,0.08c0.11,0.01,0.22,0.01,0.33,0.01
					c0.35,0,0.69-0.03,1-0.09c0.88-0.16,1.34-0.54,1.34-0.98L24,42.46c-0.36-0.4-1.43-0.5-2.5-0.5
					C20.66,41.96,19.46,42.24,19.01,42.51z"/>
			</g>
			<g class="st3">
				<path class="st4" d="M20.51,43.06v0.93c0.21,0.04,0.43,0.07,0.67,0.08v-1.01H20.51z"/>
			</g>
			<g>
				<path class="st5" d="M22.39,44.01v-2.02c0.72,0.05,1.35,0.18,1.61,0.47v0.56C24,43.47,23.33,43.86,22.39,44.01z"/>
			</g>
			<g>
				<ellipse class="st6" cx="21.5" cy="42.51" rx="2.5" ry="1.06"/>
			</g>
			<g>
				<path class="st4" d="M20.08,43.34c-0.43-0.13-0.74-0.32-0.9-0.53l2.01-1.32c0.12-0.01,0.23-0.01,0.34-0.01
					c0.41,0,0.82,0.04,1.18,0.13L20.08,43.34z"/>
			</g>
			<g>
				<path class="st4" d="M21.18,43.53c-0.2-0.01-0.4-0.03-0.58-0.07l2.6-1.71c0.15,0.06,0.28,0.12,0.39,0.19L21.18,43.53z"/>
			</g>
		</g>
		<g>
			<g>
				<path class="st1" d="M19.01,42.4c0,0.58,1.12,1.06,2.5,1.06c1.38,0,2.5-0.47,2.5-1.06c0-0.58-1.12-1.06-2.5-1.06
					C20.12,41.34,19.01,41.81,19.01,42.4z"/>
			</g>
			<g>
				<path class="st2" d="M19.01,41.78v0.51c0,0.44,0.62,0.81,1.5,0.97c0.21,0.04,0.43,0.07,0.67,0.08c0.11,0.01,0.22,0.01,0.33,0.01
					c0.35,0,0.69-0.03,1-0.09c0.88-0.16,1.34-0.54,1.34-0.98L24,41.72c-0.36-0.4-1.43-0.5-2.5-0.5
					C20.66,41.23,19.46,41.51,19.01,41.78z"/>
			</g>
			<g class="st3">
				<path class="st4" d="M20.51,42.32v0.93c0.21,0.04,0.43,0.07,0.67,0.08v-1.01H20.51z"/>
			</g>
			<g>
				<path class="st5" d="M22.39,43.27v-2.02c0.72,0.05,1.35,0.18,1.61,0.47v0.56C24,42.74,23.33,43.12,22.39,43.27z"/>
			</g>
			<g>
				<ellipse class="st6" cx="21.5" cy="41.78" rx="2.5" ry="1.06"/>
			</g>
			<g>
				<path class="st4" d="M20.08,42.61c-0.43-0.13-0.74-0.32-0.9-0.53l2.01-1.32c0.12-0.01,0.23-0.01,0.34-0.01
					c0.41,0,0.82,0.04,1.18,0.13L20.08,42.61z"/>
			</g>
			<g>
				<path class="st4" d="M21.18,42.8c-0.2-0.01-0.4-0.03-0.58-0.07l2.6-1.71c0.15,0.06,0.28,0.12,0.39,0.19L21.18,42.8z"/>
			</g>
		</g>
		<g>
			<g>
				<path class="st1" d="M19.01,41.66c0,0.58,1.12,1.06,2.5,1.06c1.38,0,2.5-0.47,2.5-1.06c0-0.58-1.12-1.06-2.5-1.06
					C20.12,40.6,19.01,41.08,19.01,41.66z"/>
			</g>
			<g>
				<path class="st2" d="M19.01,41.04v0.51c0,0.44,0.62,0.81,1.5,0.97c0.21,0.04,0.43,0.07,0.67,0.08c0.11,0.01,0.22,0.01,0.33,0.01
					c0.35,0,0.69-0.03,1-0.09c0.88-0.16,1.34-0.54,1.34-0.98L24,40.99c-0.36-0.4-1.43-0.5-2.5-0.5
					C20.66,40.49,19.46,40.77,19.01,41.04z"/>
			</g>
			<g class="st3">
				<path class="st4" d="M20.51,41.59v0.93c0.21,0.04,0.43,0.07,0.67,0.08v-1.01H20.51z"/>
			</g>
			<g>
				<path class="st5" d="M22.39,42.54v-2.02c0.72,0.05,1.35,0.18,1.61,0.47v0.56C24,42,23.33,42.39,22.39,42.54z"/>
			</g>
			<g>
				<ellipse class="st6" cx="21.5" cy="41.04" rx="2.5" ry="1.06"/>
			</g>
			<g>
				<path class="st4" d="M20.08,41.87c-0.43-0.13-0.74-0.32-0.9-0.53l2.01-1.32c0.12-0.01,0.23-0.01,0.34-0.01
					c0.41,0,0.82,0.04,1.18,0.13L20.08,41.87z"/>
			</g>
			<g>
				<path class="st4" d="M21.18,42.06c-0.2-0.01-0.4-0.03-0.58-0.07l2.6-1.71c0.15,0.06,0.28,0.12,0.39,0.19L21.18,42.06z"/>
			</g>
		</g>
		<g>
			<g>
				<path class="st1" d="M19.01,40.93c0,0.58,1.12,1.06,2.5,1.06c1.38,0,2.5-0.47,2.5-1.06c0-0.58-1.12-1.06-2.5-1.06
					C20.12,39.87,19.01,40.34,19.01,40.93z"/>
			</g>
			<g>
				<path class="st2" d="M19.01,40.31v0.51c0,0.44,0.62,0.81,1.5,0.97c0.21,0.04,0.43,0.07,0.67,0.08c0.11,0.01,0.22,0.01,0.33,0.01
					c0.35,0,0.69-0.03,1-0.09c0.88-0.16,1.34-0.54,1.34-0.98L24,40.25c-0.36-0.4-1.43-0.5-2.5-0.5
					C20.66,39.76,19.46,40.04,19.01,40.31z"/>
			</g>
			<g class="st3">
				<path class="st4" d="M20.51,40.86v0.93c0.21,0.04,0.43,0.07,0.67,0.08v-1.01H20.51z"/>
			</g>
			<g>
				<path class="st5" d="M22.39,41.81v-2.02c0.72,0.05,1.35,0.18,1.61,0.47v0.56C24,41.27,23.33,41.65,22.39,41.81z"/>
			</g>
			<g>
				<ellipse class="st6" cx="21.5" cy="40.31" rx="2.5" ry="1.06"/>
			</g>
			<g>
				<path class="st4" d="M20.08,41.14c-0.43-0.13-0.74-0.32-0.9-0.53l2.01-1.32c0.12-0.01,0.23-0.01,0.34-0.01
					c0.41,0,0.82,0.04,1.18,0.13L20.08,41.14z"/>
			</g>
			<g>
				<path class="st4" d="M21.18,41.33c-0.2-0.01-0.4-0.03-0.58-0.07l2.6-1.71c0.15,0.06,0.28,0.12,0.39,0.19L21.18,41.33z"/>
			</g>
		</g>
	</g>
	<g>
		<g>
			<polygon class="st8" points="36.5,47.16 39.36,43.75 39.36,45.57 36.5,48.98 36.5,48.99 24.4,48.99 24.4,47.16 			"/>
			<polygon class="st9" points="39.36,45.29 39.36,43.47 36.5,46.88 36.5,48.7 			"/>
			<g>
				<polygon class="st10" points="27.29,43.53 24.54,46.82 36.47,46.82 39.22,43.53 				"/>
				<rect x="24.4" y="46.88" class="st11" width="12.09" height="1.83"/>
				<path class="st11" d="M27.28,43.52l-2.71,3.28h11.95l2.71-3.28H27.28z M26.11,45.73l0.94-1.13c0.62,0,1.4-0.33,1.74-0.74h8.38
					c-0.33,0.4-0.11,0.73,0.49,0.74l-0.94,1.13c-0.61,0.01-1.37,0.33-1.71,0.72h-8.39C26.94,46.06,26.71,45.74,26.11,45.73z"/>
				<path class="st12" d="M30.85,45.16c-0.31,0.38-0.1,0.69,0.48,0.69c0.58,0,1.3-0.31,1.61-0.69c0.31-0.38,0.1-0.69-0.48-0.69
					S31.17,44.78,30.85,45.16z"/>
				<path class="st13" d="M33.82,45.16c-0.17,0.21-0.05,0.37,0.26,0.37c0.31,0,0.7-0.17,0.87-0.37c0.17-0.21,0.05-0.37-0.26-0.37
					C34.38,44.79,33.99,44.95,33.82,45.16z"/>
				<path class="st13" d="M28.85,45.16c-0.17,0.21-0.05,0.37,0.26,0.37c0.31,0,0.7-0.17,0.87-0.37s0.05-0.37-0.26-0.37
					C29.41,44.79,29.02,44.95,28.85,45.16z"/>
				<path class="st14" d="M27.26,43.47h12.09l-2.86,3.41H24.4L27.26,43.47z M39.09,43.59H27.32l-2.65,3.16h11.77L39.09,43.59z"/>
				<polygon class="st15" points="32.81,43.47 34.48,43.47 31.62,46.88 31.62,48.71 29.95,48.71 29.95,46.88 				"/>
				<polygon class="st13" points="29.6,46.88 29.6,48.71 31.28,48.71 31.28,46.88 31.28,46.88 34.14,43.47 32.46,43.47 29.6,46.88 
									"/>
				<g>
					<polygon class="st16" points="33.95,43.47 34.29,43.47 31.43,46.88 31.43,48.71 31.09,48.71 31.09,46.88 					"/>
				</g>
				<g>
					<polygon class="st16" points="32.3,43.47 32.64,43.47 29.78,46.88 29.78,48.71 29.44,48.71 29.44,46.88 					"/>
				</g>
				<polygon class="st17" points="29.44,46.88 29.44,48.71 31.43,48.71 31.43,46.88 31.43,46.88 29.76,46.88 				"/>
			</g>
		</g>
		<g>
			<polygon class="st8" points="36.5,44.96 39.36,41.55 39.36,43.36 36.5,46.77 36.5,46.79 24.4,46.79 24.4,44.96 			"/>
			<polygon class="st9" points="39.36,43.08 39.36,41.27 36.5,44.68 36.5,46.5 			"/>
			<g>
				<polygon class="st10" points="27.29,41.33 24.54,44.62 36.47,44.62 39.22,41.33 				"/>
				<rect x="24.4" y="44.68" class="st11" width="12.09" height="1.83"/>
				<path class="st11" d="M27.28,41.32l-2.71,3.28h11.95l2.71-3.28H27.28z M26.11,43.53l0.94-1.13c0.62,0,1.4-0.33,1.74-0.74h8.38
					c-0.33,0.4-0.11,0.73,0.49,0.74l-0.94,1.13c-0.61,0.01-1.37,0.33-1.71,0.72h-8.39C26.94,43.86,26.71,43.54,26.11,43.53z"/>
				<path class="st12" d="M30.85,42.95c-0.31,0.38-0.1,0.69,0.48,0.69c0.58,0,1.3-0.31,1.61-0.69c0.31-0.38,0.1-0.69-0.48-0.69
					S31.17,42.57,30.85,42.95z"/>
				<path class="st13" d="M33.82,42.95c-0.17,0.21-0.05,0.37,0.26,0.37c0.31,0,0.7-0.17,0.87-0.37c0.17-0.21,0.05-0.37-0.26-0.37
					C34.38,42.58,33.99,42.75,33.82,42.95z"/>
				<path class="st13" d="M28.85,42.95c-0.17,0.21-0.05,0.37,0.26,0.37c0.31,0,0.7-0.17,0.87-0.37c0.17-0.21,0.05-0.37-0.26-0.37
					C29.41,42.58,29.02,42.75,28.85,42.95z"/>
				<path class="st14" d="M27.26,41.27h12.09l-2.86,3.41H24.4L27.26,41.27z M39.09,41.39H27.32l-2.65,3.16h11.77L39.09,41.39z"/>
				<polygon class="st15" points="32.81,41.27 34.48,41.27 31.62,44.68 31.62,46.51 29.95,46.51 29.95,44.68 				"/>
				<polygon class="st13" points="29.6,44.68 29.6,46.51 31.28,46.51 31.28,44.68 31.28,44.68 34.14,41.27 32.46,41.27 29.6,44.68 
									"/>
				<g>
					<polygon class="st16" points="33.95,41.27 34.29,41.27 31.43,44.68 31.43,46.51 31.09,46.51 31.09,44.68 					"/>
				</g>
				<g>
					<polygon class="st16" points="32.3,41.27 32.64,41.27 29.78,44.68 29.78,46.51 29.44,46.51 29.44,44.68 					"/>
				</g>
				<polygon class="st17" points="29.44,44.68 29.44,46.51 31.43,46.51 31.43,44.68 31.43,44.68 29.76,44.68 				"/>
			</g>
		</g>
		<g>
			<polygon class="st8" points="36.5,42.75 39.36,39.34 39.36,41.16 36.5,44.57 36.5,44.59 24.4,44.59 24.4,42.75 			"/>
			<polygon class="st9" points="39.36,40.88 39.36,39.06 36.5,42.47 36.5,44.29 			"/>
			<g>
				<polygon class="st10" points="27.29,39.12 24.54,42.41 36.47,42.41 39.22,39.12 				"/>
				<rect x="24.4" y="42.47" class="st11" width="12.09" height="1.83"/>
				<path class="st11" d="M27.28,39.11l-2.71,3.28h11.95l2.71-3.28H27.28z M26.11,41.33l0.94-1.13c0.62,0,1.4-0.33,1.74-0.74h8.38
					c-0.33,0.4-0.11,0.73,0.49,0.74l-0.94,1.13c-0.61,0.01-1.37,0.33-1.71,0.72h-8.39C26.94,41.65,26.71,41.33,26.11,41.33z"/>
				<path class="st12" d="M30.85,40.75c-0.31,0.38-0.1,0.69,0.48,0.69c0.58,0,1.3-0.31,1.61-0.69c0.31-0.38,0.1-0.69-0.48-0.69
					S31.17,40.37,30.85,40.75z"/>
				<path class="st13" d="M33.82,40.75c-0.17,0.21-0.05,0.37,0.26,0.37c0.31,0,0.7-0.17,0.87-0.37c0.17-0.21,0.05-0.37-0.26-0.37
					C34.38,40.38,33.99,40.55,33.82,40.75z"/>
				<path class="st13" d="M28.85,40.75c-0.17,0.21-0.05,0.37,0.26,0.37c0.31,0,0.7-0.17,0.87-0.37s0.05-0.37-0.26-0.37
					C29.41,40.38,29.02,40.55,28.85,40.75z"/>
				<path class="st14" d="M27.26,39.06h12.09l-2.86,3.41H24.4L27.26,39.06z M39.09,39.19H27.32l-2.65,3.16h11.77L39.09,39.19z"/>
				<polygon class="st15" points="32.81,39.06 34.48,39.06 31.62,42.47 31.62,44.31 29.95,44.31 29.95,42.47 				"/>
				<polygon class="st13" points="29.6,42.47 29.6,44.31 31.28,44.31 31.28,42.47 31.28,42.47 34.14,39.06 32.46,39.06 29.6,42.47 
									"/>
				<g>
					<polygon class="st16" points="33.95,39.06 34.29,39.06 31.43,42.47 31.43,44.31 31.09,44.31 31.09,42.47 					"/>
				</g>
				<g>
					<polygon class="st16" points="32.3,39.06 32.64,39.06 29.78,42.47 29.78,44.31 29.44,44.31 29.44,42.47 					"/>
				</g>
				<polygon class="st17" points="29.44,42.47 29.44,44.31 31.43,44.31 31.43,42.47 31.43,42.47 29.76,42.47 				"/>
			</g>
		</g>
		<g>
			<polygon class="st8" points="36.5,40.55 39.36,37.14 39.36,38.96 36.5,42.37 36.5,42.38 24.4,42.38 24.4,40.55 			"/>
			<polygon class="st9" points="39.36,38.68 39.36,36.86 36.5,40.27 36.5,42.09 			"/>
			<g>
				<polygon class="st10" points="27.29,36.92 24.54,40.21 36.47,40.21 39.22,36.92 				"/>
				<rect x="24.4" y="40.27" class="st11" width="12.09" height="1.83"/>
				<path class="st11" d="M27.28,36.91l-2.71,3.28h11.95l2.71-3.28H27.28z M26.11,39.12l0.94-1.13c0.62,0,1.4-0.33,1.74-0.74h8.38
					c-0.33,0.4-0.11,0.73,0.49,0.74l-0.94,1.13c-0.61,0.01-1.37,0.33-1.71,0.72h-8.39C26.94,39.45,26.71,39.13,26.11,39.12z"/>
				<path class="st12" d="M30.85,38.55c-0.31,0.38-0.1,0.69,0.48,0.69c0.58,0,1.3-0.31,1.61-0.69c0.31-0.38,0.1-0.69-0.48-0.69
					S31.17,38.17,30.85,38.55z"/>
				<path class="st13" d="M33.82,38.55c-0.17,0.21-0.05,0.37,0.26,0.37c0.31,0,0.7-0.17,0.87-0.37c0.17-0.21,0.05-0.37-0.26-0.37
					C34.38,38.18,33.99,38.34,33.82,38.55z"/>
				<path class="st13" d="M28.85,38.55c-0.17,0.21-0.05,0.37,0.26,0.37c0.31,0,0.7-0.17,0.87-0.37c0.17-0.21,0.05-0.37-0.26-0.37
					C29.41,38.18,29.02,38.34,28.85,38.55z"/>
				<path class="st14" d="M27.26,36.86h12.09l-2.86,3.41H24.4L27.26,36.86z M39.09,36.98H27.32l-2.65,3.16h11.77L39.09,36.98z"/>
				<polygon class="st15" points="32.81,36.86 34.48,36.86 31.62,40.27 31.62,42.1 29.95,42.1 29.95,40.27 				"/>
				<polygon class="st13" points="29.6,40.27 29.6,42.1 31.28,42.1 31.28,40.27 31.28,40.27 34.14,36.86 32.46,36.86 29.6,40.27 
									"/>
				<g>
					<polygon class="st16" points="33.95,36.86 34.29,36.86 31.43,40.27 31.43,42.1 31.09,42.1 31.09,40.27 					"/>
				</g>
				<g>
					<polygon class="st16" points="32.3,36.86 32.64,36.86 29.78,40.27 29.78,42.1 29.44,42.1 29.44,40.27 					"/>
				</g>
				<polygon class="st17" points="29.44,40.27 29.44,42.1 31.43,42.1 31.43,40.27 31.43,40.27 29.76,40.27 				"/>
			</g>
		</g>
	</g>
	<polygon class="st18" points="32.78,48.83 35.29,48.36 35.29,43.34 24.53,43.34 24.53,49.44 	"/>
	<g>
		<g>
			<polygon class="st8" points="30.63,52.06 33.49,48.65 33.49,50.47 30.63,53.88 30.63,53.89 18.54,53.89 18.54,52.06 			"/>
			<polygon class="st9" points="33.49,50.19 33.49,48.37 30.63,51.78 30.63,53.6 			"/>
			<g>
				<polygon class="st10" points="21.43,48.43 18.67,51.72 30.6,51.72 33.36,48.43 				"/>
				<rect x="18.54" y="51.78" class="st11" width="12.09" height="1.83"/>
				<path class="st11" d="M21.41,48.42l-2.71,3.28h11.95l2.71-3.28H21.41z M20.24,50.63l0.94-1.13c0.62,0,1.4-0.33,1.74-0.74h8.38
					c-0.33,0.4-0.11,0.73,0.49,0.74l-0.94,1.13c-0.61,0.01-1.37,0.33-1.71,0.72h-8.39C21.07,50.96,20.85,50.64,20.24,50.63z"/>
				<path class="st12" d="M24.99,50.05c-0.31,0.38-0.1,0.69,0.48,0.69s1.3-0.31,1.61-0.69s0.1-0.69-0.48-0.69
					S25.3,49.68,24.99,50.05z"/>
				<path class="st13" d="M27.95,50.05c-0.17,0.21-0.05,0.37,0.26,0.37c0.31,0,0.7-0.17,0.87-0.37c0.17-0.21,0.05-0.37-0.26-0.37
					C28.51,49.68,28.12,49.85,27.95,50.05z"/>
				<path class="st13" d="M22.98,50.05c-0.17,0.21-0.05,0.37,0.26,0.37c0.31,0,0.7-0.17,0.87-0.37c0.17-0.21,0.05-0.37-0.26-0.37
					C23.54,49.68,23.15,49.85,22.98,50.05z"/>
				<path class="st14" d="M21.4,48.37h12.09l-2.86,3.41H18.54L21.4,48.37z M33.22,48.49H21.46l-2.65,3.16h11.77L33.22,48.49z"/>
				<polygon class="st15" points="26.94,48.37 28.62,48.37 25.76,51.78 25.76,53.61 24.08,53.61 24.08,51.78 				"/>
				<polygon class="st13" points="23.73,51.78 23.73,53.61 25.41,53.61 25.41,51.78 25.41,51.78 28.27,48.37 26.59,48.37 
					23.73,51.78 				"/>
				<g>
					<polygon class="st16" points="28.09,48.37 28.42,48.37 25.56,51.78 25.56,53.61 25.23,53.61 25.23,51.78 					"/>
				</g>
				<g>
					<polygon class="st16" points="26.43,48.37 26.77,48.37 23.91,51.78 23.91,53.61 23.57,53.61 23.57,51.78 					"/>
				</g>
				<polygon class="st17" points="23.58,51.78 23.58,53.61 25.56,53.61 25.56,51.78 25.57,51.78 23.89,51.78 				"/>
			</g>
		</g>
		<g>
			<polygon class="st8" points="30.63,49.86 33.49,46.44 33.49,48.26 30.63,51.67 30.63,51.69 18.54,51.69 18.54,49.86 			"/>
			<polygon class="st9" points="33.49,47.98 33.49,46.16 30.63,49.58 30.63,51.4 			"/>
			<g>
				<polygon class="st10" points="21.43,46.23 18.67,49.51 30.6,49.51 33.36,46.23 				"/>
				<rect x="18.54" y="49.58" class="st11" width="12.09" height="1.83"/>
				<path class="st11" d="M21.41,46.21l-2.71,3.28h11.95l2.71-3.28H21.41z M20.24,48.43l0.94-1.13c0.62,0,1.4-0.33,1.74-0.74h8.38
					c-0.33,0.4-0.11,0.73,0.49,0.74l-0.94,1.13c-0.61,0.01-1.37,0.33-1.71,0.72h-8.39C21.07,48.75,20.85,48.43,20.24,48.43z"/>
				<path class="st12" d="M24.99,47.85c-0.31,0.38-0.1,0.69,0.48,0.69s1.3-0.31,1.61-0.69s0.1-0.69-0.48-0.69
					S25.3,47.47,24.99,47.85z"/>
				<path class="st13" d="M27.95,47.85c-0.17,0.21-0.05,0.37,0.26,0.37c0.31,0,0.7-0.17,0.87-0.37c0.17-0.21,0.05-0.37-0.26-0.37
					C28.51,47.48,28.12,47.65,27.95,47.85z"/>
				<path class="st13" d="M22.98,47.85c-0.17,0.21-0.05,0.37,0.26,0.37c0.31,0,0.7-0.17,0.87-0.37c0.17-0.21,0.05-0.37-0.26-0.37
					C23.54,47.48,23.15,47.65,22.98,47.85z"/>
				<path class="st14" d="M21.4,46.16h12.09l-2.86,3.41H18.54L21.4,46.16z M33.22,46.29H21.46l-2.65,3.16h11.77L33.22,46.29z"/>
				<polygon class="st15" points="26.94,46.16 28.62,46.16 25.76,49.58 25.76,51.41 24.08,51.41 24.08,49.58 				"/>
				<polygon class="st13" points="23.73,49.58 23.73,51.41 25.41,51.41 25.41,49.58 25.41,49.57 28.27,46.16 26.59,46.16 
					23.73,49.57 				"/>
				<g>
					<polygon class="st16" points="28.09,46.16 28.42,46.16 25.56,49.58 25.56,51.41 25.23,51.41 25.23,49.58 					"/>
				</g>
				<g>
					<polygon class="st16" points="26.43,46.16 26.77,46.16 23.91,49.58 23.91,51.41 23.57,51.41 23.57,49.58 					"/>
				</g>
				<polygon class="st17" points="23.58,49.58 23.58,51.41 25.56,51.41 25.56,49.58 25.57,49.57 23.89,49.57 				"/>
			</g>
		</g>
		<g>
			<polygon class="st8" points="30.63,47.65 33.49,44.24 33.49,46.06 30.63,49.47 30.63,49.49 18.54,49.49 18.54,47.65 			"/>
			<polygon class="st9" points="33.49,45.78 33.49,43.96 30.63,47.37 30.63,49.19 			"/>
			<g>
				<polygon class="st10" points="21.43,44.02 18.67,47.31 30.6,47.31 33.36,44.02 				"/>
				<rect x="18.54" y="47.37" class="st11" width="12.09" height="1.83"/>
				<path class="st11" d="M21.41,44.01l-2.71,3.28h11.95l2.71-3.28H21.41z M20.24,46.22l0.94-1.13c0.62,0,1.4-0.33,1.74-0.74h8.38
					c-0.33,0.4-0.11,0.73,0.49,0.74l-0.94,1.13c-0.61,0.01-1.37,0.33-1.71,0.72h-8.39C21.07,46.55,20.85,46.23,20.24,46.22z"/>
				<path class="st12" d="M24.99,45.65c-0.31,0.38-0.1,0.69,0.48,0.69s1.3-0.31,1.61-0.69s0.1-0.69-0.48-0.69
					S25.3,45.27,24.99,45.65z"/>
				<path class="st13" d="M27.95,45.65c-0.17,0.21-0.05,0.37,0.26,0.37c0.31,0,0.7-0.17,0.87-0.37c0.17-0.21,0.05-0.37-0.26-0.37
					C28.51,45.28,28.12,45.44,27.95,45.65z"/>
				<path class="st13" d="M22.98,45.65c-0.17,0.21-0.05,0.37,0.26,0.37c0.31,0,0.7-0.17,0.87-0.37c0.17-0.21,0.05-0.37-0.26-0.37
					C23.54,45.28,23.15,45.44,22.98,45.65z"/>
				<path class="st14" d="M21.4,43.96h12.09l-2.86,3.41H18.54L21.4,43.96z M33.22,44.08H21.46l-2.65,3.16h11.77L33.22,44.08z"/>
				<polygon class="st15" points="26.94,43.96 28.62,43.96 25.76,47.37 25.76,49.21 24.08,49.21 24.08,47.37 				"/>
				<polygon class="st13" points="23.73,47.37 23.73,49.21 25.41,49.21 25.41,47.37 25.41,47.37 28.27,43.96 26.59,43.96 
					23.73,47.37 				"/>
				<g>
					<polygon class="st16" points="28.09,43.96 28.42,43.96 25.56,47.37 25.56,49.21 25.23,49.21 25.23,47.37 					"/>
				</g>
				<g>
					<polygon class="st16" points="26.43,43.96 26.77,43.96 23.91,47.37 23.91,49.21 23.57,49.21 23.57,47.37 					"/>
				</g>
				<polygon class="st17" points="23.58,47.37 23.58,49.21 25.56,49.21 25.56,47.37 25.57,47.37 23.89,47.37 				"/>
			</g>
		</g>
	</g>
	<g>
		<g>
			<g>
				<ellipse class="st1" cx="35.7" cy="51.31" rx="2.5" ry="1.06"/>
			</g>
			<g>
				<path class="st2" d="M33.21,50.7v0.51c0,0.44,0.62,0.81,1.5,0.97c0.21,0.04,0.43,0.07,0.67,0.08c0.11,0.01,0.22,0.01,0.33,0.01
					c0.35,0,0.69-0.03,1-0.09c0.88-0.16,1.34-0.54,1.34-0.98l0.16-0.55c-0.36-0.4-1.43-0.5-2.5-0.5
					C34.86,50.15,33.66,50.42,33.21,50.7z"/>
			</g>
			<g class="st3">
				<path class="st4" d="M34.71,51.24v0.93c0.21,0.04,0.43,0.07,0.67,0.08v-1.01H34.71z"/>
			</g>
			<g>
				<path class="st5" d="M36.6,52.19v-2.02c0.72,0.05,1.35,0.18,1.61,0.47v0.56C38.2,51.66,37.53,52.04,36.6,52.19z"/>
			</g>
			<g>
				<ellipse class="st6" cx="35.7" cy="50.7" rx="2.5" ry="1.06"/>
			</g>
			<g>
				<path class="st4" d="M34.28,51.53c-0.43-0.13-0.74-0.32-0.9-0.53l2.01-1.32c0.12-0.01,0.23-0.01,0.34-0.01
					c0.41,0,0.82,0.04,1.18,0.13L34.28,51.53z"/>
			</g>
			<g>
				<path class="st4" d="M35.38,51.71c-0.2-0.01-0.4-0.03-0.58-0.07l2.6-1.71c0.15,0.06,0.28,0.12,0.39,0.19L35.38,51.71z"/>
			</g>
		</g>
		<g>
			<g>
				<ellipse class="st1" cx="35.7" cy="50.58" rx="2.5" ry="1.06"/>
			</g>
			<g>
				<path class="st2" d="M33.21,49.96v0.51c0,0.44,0.62,0.81,1.5,0.97c0.21,0.04,0.43,0.07,0.67,0.08c0.11,0.01,0.22,0.01,0.33,0.01
					c0.35,0,0.69-0.03,1-0.09c0.88-0.16,1.34-0.54,1.34-0.98l0.16-0.55c-0.36-0.4-1.43-0.5-2.5-0.5
					C34.86,49.41,33.66,49.69,33.21,49.96z"/>
			</g>
			<g class="st3">
				<path class="st4" d="M34.71,50.51v0.93c0.21,0.04,0.43,0.07,0.67,0.08v-1.01H34.71z"/>
			</g>
			<g>
				<path class="st5" d="M36.6,51.46v-2.02c0.72,0.05,1.35,0.18,1.61,0.47v0.56C38.2,50.92,37.53,51.31,36.6,51.46z"/>
			</g>
			<g>
				<ellipse class="st6" cx="35.7" cy="49.96" rx="2.5" ry="1.06"/>
			</g>
			<g>
				<path class="st4" d="M34.28,50.79c-0.43-0.13-0.74-0.32-0.9-0.53l2.01-1.32c0.12-0.01,0.23-0.01,0.34-0.01
					c0.41,0,0.82,0.04,1.18,0.13L34.28,50.79z"/>
			</g>
			<g>
				<path class="st4" d="M35.38,50.98c-0.2-0.01-0.4-0.03-0.58-0.07l2.6-1.71c0.15,0.06,0.28,0.12,0.39,0.19L35.38,50.98z"/>
			</g>
		</g>
		<g>
			<g>
				<ellipse class="st1" cx="35.7" cy="49.85" rx="2.5" ry="1.06"/>
			</g>
			<g>
				<path class="st2" d="M33.21,49.23v0.51c0,0.44,0.62,0.81,1.5,0.97c0.21,0.04,0.43,0.07,0.67,0.08c0.11,0.01,0.22,0.01,0.33,0.01
					c0.35,0,0.69-0.03,1-0.09c0.88-0.16,1.34-0.54,1.34-0.98l0.16-0.55c-0.36-0.4-1.43-0.5-2.5-0.5
					C34.86,48.68,33.66,48.96,33.21,49.23z"/>
			</g>
			<g class="st3">
				<path class="st4" d="M34.71,49.77v0.93c0.21,0.04,0.43,0.07,0.67,0.08v-1.01H34.71z"/>
			</g>
			<g>
				<path class="st5" d="M36.6,50.72v-2.02c0.72,0.05,1.35,0.18,1.61,0.47v0.56C38.2,50.19,37.53,50.57,36.6,50.72z"/>
			</g>
			<g>
				<ellipse class="st6" cx="35.7" cy="49.23" rx="2.5" ry="1.06"/>
			</g>
			<g>
				<path class="st4" d="M34.28,50.06c-0.43-0.13-0.74-0.32-0.9-0.53l2.01-1.32c0.12-0.01,0.23-0.01,0.34-0.01
					c0.41,0,0.82,0.04,1.18,0.13L34.28,50.06z"/>
			</g>
			<g>
				<path class="st4" d="M35.38,50.25c-0.2-0.01-0.4-0.03-0.58-0.07l2.6-1.71c0.15,0.06,0.28,0.12,0.39,0.19L35.38,50.25z"/>
			</g>
		</g>
		<g>
			<g>
				<ellipse class="st1" cx="35.7" cy="49.11" rx="2.5" ry="1.06"/>
			</g>
			<g>
				<path class="st2" d="M33.21,48.49V49c0,0.44,0.62,0.81,1.5,0.97c0.21,0.04,0.43,0.07,0.67,0.08c0.11,0.01,0.22,0.01,0.33,0.01
					c0.35,0,0.69-0.03,1-0.09c0.88-0.16,1.34-0.54,1.34-0.98l0.16-0.55c-0.36-0.4-1.43-0.5-2.5-0.5
					C34.86,47.94,33.66,48.22,33.21,48.49z"/>
			</g>
			<g class="st3">
				<path class="st4" d="M34.71,49.04v0.93c0.21,0.04,0.43,0.07,0.67,0.08v-1.01H34.71z"/>
			</g>
			<g>
				<path class="st5" d="M36.6,49.99v-2.02c0.72,0.05,1.35,0.18,1.61,0.47V49C38.2,49.45,37.53,49.84,36.6,49.99z"/>
			</g>
			<g>
				<ellipse class="st6" cx="35.7" cy="48.49" rx="2.5" ry="1.06"/>
			</g>
			<g>
				<path class="st4" d="M34.28,49.32c-0.43-0.13-0.74-0.32-0.9-0.53l2.01-1.32c0.12-0.01,0.23-0.01,0.34-0.01
					c0.41,0,0.82,0.04,1.18,0.13L34.28,49.32z"/>
			</g>
			<g>
				<path class="st4" d="M35.38,49.51c-0.2-0.01-0.4-0.03-0.58-0.07l2.6-1.71c0.15,0.06,0.28,0.12,0.39,0.19L35.38,49.51z"/>
			</g>
		</g>
		<g>
			<g>
				<ellipse class="st1" cx="35.7" cy="48.38" rx="2.5" ry="1.06"/>
			</g>
			<g>
				<path class="st2" d="M33.21,47.76v0.51c0,0.44,0.62,0.81,1.5,0.97c0.21,0.04,0.43,0.07,0.67,0.08c0.11,0.01,0.22,0.01,0.33,0.01
					c0.35,0,0.69-0.03,1-0.09c0.88-0.16,1.34-0.54,1.34-0.98l0.16-0.55c-0.36-0.4-1.43-0.5-2.5-0.5
					C34.86,47.21,33.66,47.49,33.21,47.76z"/>
			</g>
			<g class="st3">
				<path class="st4" d="M34.71,48.3v0.93c0.21,0.04,0.43,0.07,0.67,0.08V48.3H34.71z"/>
			</g>
			<g>
				<path class="st5" d="M36.6,49.26v-2.02c0.72,0.05,1.35,0.18,1.61,0.47v0.56C38.2,48.72,37.53,49.1,36.6,49.26z"/>
			</g>
			<g>
				<ellipse class="st6" cx="35.7" cy="47.76" rx="2.5" ry="1.06"/>
			</g>
			<g>
				<path class="st4" d="M34.28,48.59c-0.43-0.13-0.74-0.32-0.9-0.53l2.01-1.32c0.12-0.01,0.23-0.01,0.34-0.01
					c0.41,0,0.82,0.04,1.18,0.13L34.28,48.59z"/>
			</g>
			<g>
				<path class="st4" d="M35.38,48.78c-0.2-0.01-0.4-0.03-0.58-0.07L37.4,47c0.15,0.06,0.28,0.12,0.39,0.19L35.38,48.78z"/>
			</g>
		</g>
		<g>
			<g>
				<ellipse class="st1" cx="35.7" cy="47.64" rx="2.5" ry="1.06"/>
			</g>
			<g>
				<path class="st2" d="M33.21,47.02v0.51c0,0.44,0.62,0.81,1.5,0.97c0.21,0.04,0.43,0.07,0.67,0.08c0.11,0.01,0.22,0.01,0.33,0.01
					c0.35,0,0.69-0.03,1-0.09c0.88-0.16,1.34-0.54,1.34-0.98l0.16-0.55c-0.36-0.4-1.43-0.5-2.5-0.5
					C34.86,46.47,33.66,46.75,33.21,47.02z"/>
			</g>
			<g class="st3">
				<path class="st4" d="M34.71,47.57v0.93c0.21,0.04,0.43,0.07,0.67,0.08v-1.01H34.71z"/>
			</g>
			<g>
				<path class="st5" d="M36.6,48.52V46.5c0.72,0.05,1.35,0.18,1.61,0.47v0.56C38.2,47.98,37.53,48.37,36.6,48.52z"/>
			</g>
			<g>
				<ellipse class="st6" cx="35.7" cy="47.02" rx="2.5" ry="1.06"/>
			</g>
			<g>
				<path class="st4" d="M34.28,47.85c-0.43-0.13-0.74-0.32-0.9-0.53l2.01-1.32C35.51,46,35.62,46,35.73,46
					c0.41,0,0.82,0.04,1.18,0.13L34.28,47.85z"/>
			</g>
			<g>
				<path class="st4" d="M35.38,48.04c-0.2-0.01-0.4-0.03-0.58-0.07l2.6-1.71c0.15,0.06,0.28,0.12,0.39,0.19L35.38,48.04z"/>
			</g>
		</g>
	</g>
</g>
</svg>
