<?xml version="1.0" encoding="utf-8"?>
<!-- Generator: Adobe Illustrator 23.0.3, SVG Export Plug-In . SVG Version: 6.00 Build 0)  -->
<svg version="1.1" id="Layer_1" xmlns="http://www.w3.org/2000/svg" xmlns:xlink="http://www.w3.org/1999/xlink" x="0px" y="0px"
	 viewBox="0 0 60 80" style="enable-background:new 0 0 60 80;" xml:space="preserve">
<style type="text/css">
	.st0{opacity:0.72;fill:#9EB3B6;}
	.st1{opacity:0.72;fill:#9C86B7;}
	.st2{fill:#CE7D13;}
	.st3{fill:#FFC50D;}
	.st4{opacity:0.43;}
	.st5{fill:#FFFC8F;}
	.st6{fill:#F19D00;}
	.st7{fill:#FFD400;}
	.st8{opacity:0.46;fill:#9C86B7;}
	.st9{fill:#47752F;}
	.st10{fill:#4E8436;}
	.st11{fill:#ADE069;}
	.st12{fill:#70A33C;}
	.st13{fill:#607700;}
	.st14{fill:#FFFFFF;}
	.st15{fill:#9FD65E;}
	.st16{opacity:0.44;fill:#48842F;}
	.st17{fill:#FF895A;}
	.st18{opacity:0.29;fill:#846E56;}
</style>
<g>
	<path class="st0" d="M35.57,44.76c-0.07-0.1-0.11-0.2-0.11-0.31c0-0.58,1.12-1.06,2.5-1.06c1.38,0,2.5,0.47,2.5,1.06
		c0,0.11-0.04,0.21-0.11,0.31h0.01l-2.95,3.59l-3.58-3.91L35.57,44.76z"/>
	<g>
		<polygon class="st1" points="32.72,52.67 36.99,47.57 30.17,47.57 		"/>
	</g>
	<g>
		<g>
			<g>
				<ellipse class="st2" cx="31.31" cy="46.14" rx="2.5" ry="1.06"/>
			</g>
			<g>
				<path class="st3" d="M28.81,45.52v0.51c0,0.44,0.62,0.81,1.5,0.97c0.21,0.04,0.43,0.07,0.67,0.08c0.11,0.01,0.22,0.01,0.33,0.01
					c0.35,0,0.69-0.03,1-0.09c0.88-0.16,1.34-0.54,1.34-0.98l0.16-0.55c-0.36-0.4-1.43-0.5-2.5-0.5
					C30.47,44.97,29.27,45.25,28.81,45.52z"/>
			</g>
			<g class="st4">
				<path class="st5" d="M30.31,46.06V47c0.21,0.04,0.43,0.07,0.67,0.08v-1.01H30.31z"/>
			</g>
			<g>
				<path class="st6" d="M32.2,47.01V45c0.72,0.05,1.35,0.18,1.61,0.47v0.56C33.81,46.48,33.14,46.86,32.2,47.01z"/>
			</g>
			<g>
				<ellipse class="st7" cx="31.31" cy="45.52" rx="2.5" ry="1.06"/>
			</g>
			<g>
				<path class="st5" d="M29.89,46.35c-0.43-0.13-0.74-0.32-0.9-0.53L31,44.5c0.12-0.01,0.23-0.01,0.34-0.01
					c0.41,0,0.82,0.04,1.18,0.13L29.89,46.35z"/>
			</g>
			<g>
				<path class="st5" d="M30.99,46.54c-0.2-0.01-0.4-0.03-0.58-0.07l2.6-1.71c0.15,0.06,0.28,0.12,0.39,0.19L30.99,46.54z"/>
			</g>
		</g>
		<g>
			<g>
				<ellipse class="st2" cx="31.31" cy="45.4" rx="2.5" ry="1.06"/>
			</g>
			<g>
				<path class="st3" d="M28.81,44.78v0.51c0,0.44,0.62,0.81,1.5,0.97c0.21,0.04,0.43,0.07,0.67,0.08c0.11,0.01,0.22,0.01,0.33,0.01
					c0.35,0,0.69-0.03,1-0.09c0.88-0.16,1.34-0.54,1.34-0.98l0.16-0.55c-0.36-0.4-1.43-0.5-2.5-0.5
					C30.47,44.23,29.27,44.51,28.81,44.78z"/>
			</g>
			<g class="st4">
				<path class="st5" d="M30.31,45.33v0.93c0.21,0.04,0.43,0.07,0.67,0.08v-1.01H30.31z"/>
			</g>
			<g>
				<path class="st6" d="M32.2,46.28v-2.02c0.72,0.05,1.35,0.18,1.61,0.47v0.56C33.81,45.74,33.14,46.13,32.2,46.28z"/>
			</g>
			<g>
				<ellipse class="st7" cx="31.31" cy="44.78" rx="2.5" ry="1.06"/>
			</g>
			<g>
				<path class="st5" d="M29.89,45.61c-0.43-0.13-0.74-0.32-0.9-0.53L31,43.76c0.12-0.01,0.23-0.01,0.34-0.01
					c0.41,0,0.82,0.04,1.18,0.13L29.89,45.61z"/>
			</g>
			<g>
				<path class="st5" d="M30.99,45.8c-0.2-0.01-0.4-0.03-0.58-0.07l2.6-1.71c0.15,0.06,0.28,0.12,0.39,0.19L30.99,45.8z"/>
			</g>
		</g>
		<g>
			<g>
				<ellipse class="st2" cx="31.31" cy="44.67" rx="2.5" ry="1.06"/>
			</g>
			<g>
				<path class="st3" d="M28.81,44.05v0.51c0,0.44,0.62,0.81,1.5,0.97c0.21,0.04,0.43,0.07,0.67,0.08c0.11,0.01,0.22,0.01,0.33,0.01
					c0.35,0,0.69-0.03,1-0.09c0.88-0.16,1.34-0.54,1.34-0.98l0.16-0.55c-0.36-0.4-1.43-0.5-2.5-0.5
					C30.47,43.5,29.27,43.78,28.81,44.05z"/>
			</g>
			<g class="st4">
				<path class="st5" d="M30.31,44.6v0.93c0.21,0.04,0.43,0.07,0.67,0.08V44.6H30.31z"/>
			</g>
			<g>
				<path class="st6" d="M32.2,45.55v-2.02c0.72,0.05,1.35,0.18,1.61,0.47v0.56C33.81,45.01,33.14,45.39,32.2,45.55z"/>
			</g>
			<g>
				<ellipse class="st7" cx="31.31" cy="44.05" rx="2.5" ry="1.06"/>
			</g>
			<g>
				<path class="st5" d="M29.89,44.88c-0.43-0.13-0.74-0.32-0.9-0.53L31,43.03c0.12-0.01,0.23-0.01,0.34-0.01
					c0.41,0,0.82,0.04,1.18,0.13L29.89,44.88z"/>
			</g>
			<g>
				<path class="st5" d="M30.99,45.07c-0.2-0.01-0.4-0.03-0.58-0.07l2.6-1.71c0.15,0.06,0.28,0.12,0.39,0.19L30.99,45.07z"/>
			</g>
		</g>
		<g>
			<g>
				<ellipse class="st2" cx="31.31" cy="43.93" rx="2.5" ry="1.06"/>
			</g>
			<g>
				<path class="st3" d="M28.81,43.31v0.51c0,0.44,0.62,0.81,1.5,0.97c0.21,0.04,0.43,0.07,0.67,0.08c0.11,0.01,0.22,0.01,0.33,0.01
					c0.35,0,0.69-0.03,1-0.09c0.88-0.16,1.34-0.54,1.34-0.98l0.16-0.55c-0.36-0.4-1.43-0.5-2.5-0.5
					C30.47,42.76,29.27,43.04,28.81,43.31z"/>
			</g>
			<g class="st4">
				<path class="st5" d="M30.31,43.86v0.93c0.21,0.04,0.43,0.07,0.67,0.08v-1.01H30.31z"/>
			</g>
			<g>
				<path class="st6" d="M32.2,44.81v-2.02c0.72,0.05,1.35,0.18,1.61,0.47v0.56C33.81,44.27,33.14,44.66,32.2,44.81z"/>
			</g>
			<g>
				<ellipse class="st7" cx="31.31" cy="43.32" rx="2.5" ry="1.06"/>
			</g>
			<g>
				<path class="st5" d="M29.89,44.15c-0.43-0.13-0.74-0.32-0.9-0.53L31,42.3c0.12-0.01,0.23-0.01,0.34-0.01
					c0.41,0,0.82,0.04,1.18,0.13L29.89,44.15z"/>
			</g>
			<g>
				<path class="st5" d="M30.99,44.33c-0.2-0.01-0.4-0.03-0.58-0.07l2.6-1.71c0.15,0.06,0.28,0.12,0.39,0.19L30.99,44.33z"/>
			</g>
		</g>
		<g>
			<g>
				<ellipse class="st2" cx="31.31" cy="43.2" rx="2.5" ry="1.06"/>
			</g>
			<g>
				<path class="st3" d="M28.81,42.58v0.51c0,0.44,0.62,0.81,1.5,0.97c0.21,0.04,0.43,0.07,0.67,0.08c0.11,0.01,0.22,0.01,0.33,0.01
					c0.35,0,0.69-0.03,1-0.09c0.88-0.16,1.34-0.54,1.34-0.98l0.16-0.55c-0.36-0.4-1.43-0.5-2.5-0.5
					C30.47,42.03,29.27,42.31,28.81,42.58z"/>
			</g>
			<g class="st4">
				<path class="st5" d="M30.31,43.13v0.93c0.21,0.04,0.43,0.07,0.67,0.08v-1.01H30.31z"/>
			</g>
			<g>
				<path class="st6" d="M32.2,44.08v-2.02c0.72,0.05,1.35,0.18,1.61,0.47v0.56C33.81,43.54,33.14,43.92,32.2,44.08z"/>
			</g>
			<g>
				<ellipse class="st7" cx="31.31" cy="42.58" rx="2.5" ry="1.06"/>
			</g>
			<g>
				<path class="st5" d="M29.89,43.41c-0.43-0.13-0.74-0.32-0.9-0.53L31,41.56c0.12-0.01,0.23-0.01,0.34-0.01
					c0.41,0,0.82,0.04,1.18,0.13L29.89,43.41z"/>
			</g>
			<g>
				<path class="st5" d="M30.99,43.6c-0.2-0.01-0.4-0.03-0.58-0.07l2.6-1.71c0.15,0.06,0.28,0.12,0.39,0.19L30.99,43.6z"/>
			</g>
		</g>
		<g>
			<g>
				<ellipse class="st2" cx="31.31" cy="42.46" rx="2.5" ry="1.06"/>
			</g>
			<g>
				<path class="st3" d="M28.81,41.85v0.51c0,0.44,0.62,0.81,1.5,0.97c0.21,0.04,0.43,0.07,0.67,0.08c0.11,0.01,0.22,0.01,0.33,0.01
					c0.35,0,0.69-0.03,1-0.09c0.88-0.16,1.34-0.54,1.34-0.98l0.16-0.55c-0.36-0.4-1.43-0.5-2.5-0.5
					C30.47,41.3,29.27,41.57,28.81,41.85z"/>
			</g>
			<g class="st4">
				<path class="st5" d="M30.31,42.39v0.93c0.21,0.04,0.43,0.07,0.67,0.08v-1.01H30.31z"/>
			</g>
			<g>
				<path class="st6" d="M32.2,43.34v-2.02c0.72,0.05,1.35,0.18,1.61,0.47v0.56C33.81,42.81,33.14,43.19,32.2,43.34z"/>
			</g>
			<g>
				<ellipse class="st7" cx="31.31" cy="41.85" rx="2.5" ry="1.06"/>
			</g>
			<g>
				<path class="st5" d="M29.89,42.68c-0.43-0.13-0.74-0.32-0.9-0.53L31,40.83c0.12-0.01,0.23-0.01,0.34-0.01
					c0.41,0,0.82,0.04,1.18,0.13L29.89,42.68z"/>
			</g>
			<g>
				<path class="st5" d="M30.99,42.86c-0.2-0.01-0.4-0.03-0.58-0.07l2.6-1.71c0.15,0.06,0.28,0.12,0.39,0.19L30.99,42.86z"/>
			</g>
		</g>
		<g>
			<g>
				<ellipse class="st2" cx="31.31" cy="41.73" rx="2.5" ry="1.06"/>
			</g>
			<g>
				<path class="st3" d="M28.81,41.11v0.51c0,0.44,0.62,0.81,1.5,0.97c0.21,0.04,0.43,0.07,0.67,0.08c0.11,0.01,0.22,0.01,0.33,0.01
					c0.35,0,0.69-0.03,1-0.09c0.88-0.16,1.34-0.54,1.34-0.98l0.16-0.55c-0.36-0.4-1.43-0.5-2.5-0.5
					C30.47,40.56,29.27,40.84,28.81,41.11z"/>
			</g>
			<g class="st4">
				<path class="st5" d="M30.31,41.66v0.93c0.21,0.04,0.43,0.07,0.67,0.08v-1.01H30.31z"/>
			</g>
			<g>
				<path class="st6" d="M32.2,42.61v-2.02c0.72,0.05,1.35,0.18,1.61,0.47v0.56C33.81,42.07,33.14,42.46,32.2,42.61z"/>
			</g>
			<g>
				<ellipse class="st7" cx="31.31" cy="41.11" rx="2.5" ry="1.06"/>
			</g>
			<g>
				<path class="st5" d="M29.89,41.94c-0.43-0.13-0.74-0.32-0.9-0.53L31,40.09c0.12-0.01,0.23-0.01,0.34-0.01
					c0.41,0,0.82,0.04,1.18,0.13L29.89,41.94z"/>
			</g>
			<g>
				<path class="st5" d="M30.99,42.13c-0.2-0.01-0.4-0.03-0.58-0.07l2.6-1.71c0.15,0.06,0.28,0.12,0.39,0.19L30.99,42.13z"/>
			</g>
		</g>
		<g>
			<g>
				<ellipse class="st2" cx="31.31" cy="41" rx="2.5" ry="1.06"/>
			</g>
			<g>
				<path class="st3" d="M28.81,40.38v0.51c0,0.44,0.62,0.81,1.5,0.97c0.21,0.04,0.43,0.07,0.67,0.08c0.11,0.01,0.22,0.01,0.33,0.01
					c0.35,0,0.69-0.03,1-0.09c0.88-0.16,1.34-0.54,1.34-0.98l0.16-0.55c-0.36-0.4-1.43-0.5-2.5-0.5
					C30.47,39.83,29.27,40.11,28.81,40.38z"/>
			</g>
			<g class="st4">
				<path class="st5" d="M30.31,40.92v0.93c0.21,0.04,0.43,0.07,0.67,0.08v-1.01H30.31z"/>
			</g>
			<g>
				<path class="st6" d="M32.2,41.87v-2.02c0.72,0.05,1.35,0.18,1.61,0.47v0.56C33.81,41.34,33.14,41.72,32.2,41.87z"/>
			</g>
			<g>
				<ellipse class="st7" cx="31.31" cy="40.38" rx="2.5" ry="1.06"/>
			</g>
			<g>
				<path class="st5" d="M29.89,41.21c-0.43-0.13-0.74-0.32-0.9-0.53L31,39.36c0.12-0.01,0.23-0.01,0.34-0.01
					c0.41,0,0.82,0.04,1.18,0.13L29.89,41.21z"/>
			</g>
			<g>
				<path class="st5" d="M30.99,41.4c-0.2-0.01-0.4-0.03-0.58-0.07l2.6-1.71c0.15,0.06,0.28,0.12,0.39,0.19L30.99,41.4z"/>
			</g>
		</g>
		<g>
			<g>
				<ellipse class="st2" cx="31.31" cy="40.26" rx="2.5" ry="1.06"/>
			</g>
			<g>
				<path class="st3" d="M28.81,39.64v0.51c0,0.44,0.62,0.81,1.5,0.97c0.21,0.04,0.43,0.07,0.67,0.08c0.11,0.01,0.22,0.01,0.33,0.01
					c0.35,0,0.69-0.03,1-0.09c0.88-0.16,1.34-0.54,1.34-0.98l0.16-0.55c-0.36-0.4-1.43-0.5-2.5-0.5
					C30.47,39.09,29.27,39.37,28.81,39.64z"/>
			</g>
			<g class="st4">
				<path class="st5" d="M30.31,40.19v0.93c0.21,0.04,0.43,0.07,0.67,0.08v-1.01H30.31z"/>
			</g>
			<g>
				<path class="st6" d="M32.2,41.14v-2.02c0.72,0.05,1.35,0.18,1.61,0.47v0.56C33.81,40.6,33.14,40.99,32.2,41.14z"/>
			</g>
			<g>
				<ellipse class="st7" cx="31.31" cy="39.64" rx="2.5" ry="1.06"/>
			</g>
			<g>
				<path class="st5" d="M29.89,40.47c-0.43-0.13-0.74-0.32-0.9-0.53L31,38.62c0.12-0.01,0.23-0.01,0.34-0.01
					c0.41,0,0.82,0.04,1.18,0.13L29.89,40.47z"/>
			</g>
			<g>
				<path class="st5" d="M30.99,40.66c-0.2-0.01-0.4-0.03-0.58-0.07l2.6-1.71c0.15,0.06,0.28,0.12,0.39,0.19L30.99,40.66z"/>
			</g>
		</g>
		<g>
			<g>
				<ellipse class="st2" cx="31.31" cy="39.53" rx="2.5" ry="1.06"/>
			</g>
			<g>
				<path class="st3" d="M28.81,38.91v0.51c0,0.44,0.62,0.81,1.5,0.97c0.21,0.04,0.43,0.07,0.67,0.08c0.11,0.01,0.22,0.01,0.33,0.01
					c0.35,0,0.69-0.03,1-0.09c0.88-0.16,1.34-0.54,1.34-0.98l0.16-0.55c-0.36-0.4-1.43-0.5-2.5-0.5
					C30.47,38.36,29.27,38.64,28.81,38.91z"/>
			</g>
			<g class="st4">
				<path class="st5" d="M30.31,39.45v0.93c0.21,0.04,0.43,0.07,0.67,0.08v-1.01H30.31z"/>
			</g>
			<g>
				<path class="st6" d="M32.2,40.41v-2.02c0.72,0.05,1.35,0.18,1.61,0.47v0.56C33.81,39.87,33.14,40.25,32.2,40.41z"/>
			</g>
			<g>
				<ellipse class="st7" cx="31.31" cy="38.91" rx="2.5" ry="1.06"/>
			</g>
			<g>
				<path class="st5" d="M29.89,39.74c-0.43-0.13-0.74-0.32-0.9-0.53L31,37.89c0.12-0.01,0.23-0.01,0.34-0.01
					c0.41,0,0.82,0.04,1.18,0.13L29.89,39.74z"/>
			</g>
			<g>
				<path class="st5" d="M30.99,39.93c-0.2-0.01-0.4-0.03-0.58-0.07l2.6-1.71c0.15,0.06,0.28,0.12,0.39,0.19L30.99,39.93z"/>
			</g>
		</g>
		<g>
			<g>
				<ellipse class="st2" cx="31.31" cy="38.79" rx="2.5" ry="1.06"/>
			</g>
			<g>
				<path class="st3" d="M28.81,38.17v0.51c0,0.44,0.62,0.81,1.5,0.97c0.21,0.04,0.43,0.07,0.67,0.08c0.11,0.01,0.22,0.01,0.33,0.01
					c0.35,0,0.69-0.03,1-0.09c0.88-0.16,1.34-0.54,1.34-0.98l0.16-0.55c-0.36-0.4-1.43-0.5-2.5-0.5
					C30.47,37.62,29.27,37.9,28.81,38.17z"/>
			</g>
			<g class="st4">
				<path class="st5" d="M30.31,38.72v0.93c0.21,0.04,0.43,0.07,0.67,0.08v-1.01H30.31z"/>
			</g>
			<g>
				<path class="st6" d="M32.2,39.67v-2.02c0.72,0.05,1.35,0.18,1.61,0.47v0.56C33.81,39.13,33.14,39.52,32.2,39.67z"/>
			</g>
			<g>
				<ellipse class="st7" cx="31.31" cy="38.17" rx="2.5" ry="1.06"/>
			</g>
			<g>
				<path class="st5" d="M29.89,39c-0.43-0.13-0.74-0.32-0.9-0.53L31,37.16c0.12-0.01,0.23-0.01,0.34-0.01
					c0.41,0,0.82,0.04,1.18,0.13L29.89,39z"/>
			</g>
			<g>
				<path class="st5" d="M30.99,39.19c-0.2-0.01-0.4-0.03-0.58-0.07l2.6-1.71c0.15,0.06,0.28,0.12,0.39,0.19L30.99,39.19z"/>
			</g>
		</g>
		<g>
			<g>
				<ellipse class="st2" cx="31.31" cy="38.06" rx="2.5" ry="1.06"/>
			</g>
			<g>
				<path class="st3" d="M28.81,37.44v0.51c0,0.44,0.62,0.81,1.5,0.97c0.21,0.04,0.43,0.07,0.67,0.08c0.11,0.01,0.22,0.01,0.33,0.01
					c0.35,0,0.69-0.03,1-0.09c0.88-0.16,1.34-0.54,1.34-0.98l0.16-0.55c-0.36-0.4-1.43-0.5-2.5-0.5
					C30.47,36.89,29.27,37.17,28.81,37.44z"/>
			</g>
			<g class="st4">
				<path class="st5" d="M30.31,37.99v0.93c0.21,0.04,0.43,0.07,0.67,0.08v-1.01H30.31z"/>
			</g>
			<g>
				<path class="st6" d="M32.2,38.94v-2.02c0.72,0.05,1.35,0.18,1.61,0.47v0.56C33.81,38.4,33.14,38.78,32.2,38.94z"/>
			</g>
			<g>
				<ellipse class="st7" cx="31.31" cy="37.44" rx="2.5" ry="1.06"/>
			</g>
			<g>
				<path class="st5" d="M29.89,38.27c-0.43-0.13-0.74-0.32-0.9-0.53L31,36.42c0.12-0.01,0.23-0.01,0.34-0.01
					c0.41,0,0.82,0.04,1.18,0.13L29.89,38.27z"/>
			</g>
			<g>
				<path class="st5" d="M30.99,38.46c-0.2-0.01-0.4-0.03-0.58-0.07l2.6-1.71c0.15,0.06,0.28,0.12,0.39,0.19L30.99,38.46z"/>
			</g>
		</g>
		<g>
			<g>
				<ellipse class="st2" cx="31.31" cy="37.32" rx="2.5" ry="1.06"/>
			</g>
			<g>
				<path class="st3" d="M28.81,36.71v0.51c0,0.44,0.62,0.81,1.5,0.97c0.21,0.04,0.43,0.07,0.67,0.08c0.11,0.01,0.22,0.01,0.33,0.01
					c0.35,0,0.69-0.03,1-0.09c0.88-0.16,1.34-0.54,1.34-0.98l0.16-0.55c-0.36-0.4-1.43-0.5-2.5-0.5
					C30.47,36.16,29.27,36.43,28.81,36.71z"/>
			</g>
			<g class="st4">
				<path class="st5" d="M30.31,37.25v0.93c0.21,0.04,0.43,0.07,0.67,0.08v-1.01H30.31z"/>
			</g>
			<g>
				<path class="st6" d="M32.2,38.2v-2.02c0.72,0.05,1.35,0.18,1.61,0.47v0.56C33.81,37.66,33.14,38.05,32.2,38.2z"/>
			</g>
			<g>
				<ellipse class="st7" cx="31.31" cy="36.71" rx="2.5" ry="1.06"/>
			</g>
			<g>
				<path class="st5" d="M29.89,37.54c-0.43-0.13-0.74-0.32-0.9-0.53L31,35.69c0.12-0.01,0.23-0.01,0.34-0.01
					c0.41,0,0.82,0.04,1.18,0.13L29.89,37.54z"/>
			</g>
			<g>
				<path class="st5" d="M30.99,37.72c-0.2-0.01-0.4-0.03-0.58-0.07l2.6-1.71c0.15,0.06,0.28,0.12,0.39,0.19L30.99,37.72z"/>
			</g>
		</g>
		<g>
			<g>
				<ellipse class="st2" cx="31.31" cy="36.59" rx="2.5" ry="1.06"/>
			</g>
			<g>
				<path class="st3" d="M28.81,35.97v0.51c0,0.44,0.62,0.81,1.5,0.97c0.21,0.04,0.43,0.07,0.67,0.08c0.11,0.01,0.22,0.01,0.33,0.01
					c0.35,0,0.69-0.03,1-0.09c0.88-0.16,1.34-0.54,1.34-0.98l0.16-0.55c-0.36-0.4-1.43-0.5-2.5-0.5
					C30.47,35.42,29.27,35.7,28.81,35.97z"/>
			</g>
			<g class="st4">
				<path class="st5" d="M30.31,36.52v0.93c0.21,0.04,0.43,0.07,0.67,0.08v-1.01H30.31z"/>
			</g>
			<g>
				<path class="st6" d="M32.2,37.47v-2.02c0.72,0.05,1.35,0.18,1.61,0.47v0.56C33.81,36.93,33.14,37.32,32.2,37.47z"/>
			</g>
			<g>
				<ellipse class="st7" cx="31.31" cy="35.97" rx="2.5" ry="1.06"/>
			</g>
			<g>
				<path class="st5" d="M29.89,36.8c-0.43-0.13-0.74-0.32-0.9-0.53L31,34.95c0.12-0.01,0.23-0.01,0.34-0.01
					c0.41,0,0.82,0.04,1.18,0.13L29.89,36.8z"/>
			</g>
			<g>
				<path class="st5" d="M30.99,36.99c-0.2-0.01-0.4-0.03-0.58-0.07l2.6-1.71c0.15,0.06,0.28,0.12,0.39,0.19L30.99,36.99z"/>
			</g>
		</g>
		<g>
			<g>
				<ellipse class="st2" cx="31.31" cy="35.85" rx="2.5" ry="1.06"/>
			</g>
			<g>
				<path class="st3" d="M28.81,35.24v0.51c0,0.44,0.62,0.81,1.5,0.97c0.21,0.04,0.43,0.07,0.67,0.08c0.11,0.01,0.22,0.01,0.33,0.01
					c0.35,0,0.69-0.03,1-0.09c0.88-0.16,1.34-0.54,1.34-0.98l0.16-0.55c-0.36-0.4-1.43-0.5-2.5-0.5
					C30.47,34.69,29.27,34.96,28.81,35.24z"/>
			</g>
			<g class="st4">
				<path class="st5" d="M30.31,35.78v0.93c0.21,0.04,0.43,0.07,0.67,0.08v-1.01H30.31z"/>
			</g>
			<g>
				<path class="st6" d="M32.2,36.73v-2.02c0.72,0.05,1.35,0.18,1.61,0.47v0.56C33.81,36.2,33.14,36.58,32.2,36.73z"/>
			</g>
			<g>
				<ellipse class="st7" cx="31.31" cy="35.24" rx="2.5" ry="1.06"/>
			</g>
			<g>
				<path class="st5" d="M29.89,36.07c-0.43-0.13-0.74-0.32-0.9-0.53L31,34.22c0.12-0.01,0.23-0.01,0.34-0.01
					c0.41,0,0.82,0.04,1.18,0.13L29.89,36.07z"/>
			</g>
			<g>
				<path class="st5" d="M30.99,36.26c-0.2-0.01-0.4-0.03-0.58-0.07l2.6-1.71c0.15,0.06,0.28,0.12,0.39,0.19L30.99,36.26z"/>
			</g>
		</g>
		<g>
			<g>
				<ellipse class="st2" cx="31.31" cy="35.12" rx="2.5" ry="1.06"/>
			</g>
			<g>
				<path class="st3" d="M28.81,34.5v0.51c0,0.44,0.62,0.81,1.5,0.97c0.21,0.04,0.43,0.07,0.67,0.08c0.11,0.01,0.22,0.01,0.33,0.01
					c0.35,0,0.69-0.03,1-0.09c0.88-0.16,1.34-0.54,1.34-0.98l0.16-0.55c-0.36-0.4-1.43-0.5-2.5-0.5
					C30.47,33.95,29.27,34.23,28.81,34.5z"/>
			</g>
			<g class="st4">
				<path class="st5" d="M30.31,35.05v0.93c0.21,0.04,0.43,0.07,0.67,0.08v-1.01H30.31z"/>
			</g>
			<g>
				<path class="st6" d="M32.2,36v-2.02c0.72,0.05,1.35,0.18,1.61,0.47v0.56C33.81,35.46,33.14,35.85,32.2,36z"/>
			</g>
			<g>
				<ellipse class="st7" cx="31.31" cy="34.5" rx="2.5" ry="1.06"/>
			</g>
			<g>
				<path class="st5" d="M29.89,35.33c-0.43-0.13-0.74-0.32-0.9-0.53L31,33.48c0.12-0.01,0.23-0.01,0.34-0.01
					c0.41,0,0.82,0.04,1.18,0.13L29.89,35.33z"/>
			</g>
			<g>
				<path class="st5" d="M30.99,35.52c-0.2-0.01-0.4-0.03-0.58-0.07l2.6-1.71c0.15,0.06,0.28,0.12,0.39,0.19L30.99,35.52z"/>
			</g>
		</g>
	</g>
	<g>
		<g>
			<g>
				<ellipse class="st2" cx="35.32" cy="47.75" rx="2.5" ry="1.06"/>
			</g>
			<g>
				<path class="st3" d="M32.83,47.13v0.51c0,0.44,0.62,0.81,1.5,0.97c0.21,0.04,0.43,0.07,0.67,0.08c0.11,0.01,0.22,0.01,0.33,0.01
					c0.35,0,0.69-0.03,1-0.09c0.88-0.16,1.34-0.54,1.34-0.98l0.16-0.55c-0.36-0.4-1.43-0.5-2.5-0.5
					C34.48,46.58,33.28,46.86,32.83,47.13z"/>
			</g>
			<g class="st4">
				<path class="st5" d="M34.33,47.68v0.93c0.21,0.04,0.43,0.07,0.67,0.08v-1.01H34.33z"/>
			</g>
			<g>
				<path class="st6" d="M36.22,48.63v-2.02c0.72,0.05,1.35,0.18,1.61,0.47v0.56C37.82,48.09,37.15,48.48,36.22,48.63z"/>
			</g>
			<g>
				<ellipse class="st7" cx="35.32" cy="47.13" rx="2.5" ry="1.06"/>
			</g>
			<g>
				<path class="st5" d="M33.9,47.96c-0.43-0.13-0.74-0.32-0.9-0.53l2.01-1.32c0.12-0.01,0.23-0.01,0.34-0.01
					c0.41,0,0.82,0.04,1.18,0.13L33.9,47.96z"/>
			</g>
			<g>
				<path class="st5" d="M35,48.15c-0.2-0.01-0.4-0.03-0.58-0.07l2.6-1.71c0.15,0.06,0.28,0.12,0.39,0.19L35,48.15z"/>
			</g>
		</g>
		<g>
			<g>
				<ellipse class="st2" cx="35.32" cy="47.02" rx="2.5" ry="1.06"/>
			</g>
			<g>
				<path class="st3" d="M32.83,46.4v0.51c0,0.44,0.62,0.81,1.5,0.97c0.21,0.04,0.43,0.07,0.67,0.08c0.11,0.01,0.22,0.01,0.33,0.01
					c0.35,0,0.69-0.03,1-0.09c0.88-0.16,1.34-0.54,1.34-0.98l0.16-0.55c-0.36-0.4-1.43-0.5-2.5-0.5
					C34.48,45.85,33.28,46.13,32.83,46.4z"/>
			</g>
			<g class="st4">
				<path class="st5" d="M34.33,46.95v0.93c0.21,0.04,0.43,0.07,0.67,0.08v-1.01H34.33z"/>
			</g>
			<g>
				<path class="st6" d="M36.22,47.9v-2.02c0.72,0.05,1.35,0.18,1.61,0.47v0.56C37.82,47.36,37.15,47.74,36.22,47.9z"/>
			</g>
			<g>
				<ellipse class="st7" cx="35.32" cy="46.4" rx="2.5" ry="1.06"/>
			</g>
			<g>
				<path class="st5" d="M33.9,47.23c-0.43-0.13-0.74-0.32-0.9-0.53l2.01-1.32c0.12-0.01,0.23-0.01,0.34-0.01
					c0.41,0,0.82,0.04,1.18,0.13L33.9,47.23z"/>
			</g>
			<g>
				<path class="st5" d="M35,47.42c-0.2-0.01-0.4-0.03-0.58-0.07l2.6-1.71c0.15,0.06,0.28,0.12,0.39,0.19L35,47.42z"/>
			</g>
		</g>
		<g>
			<g>
				<ellipse class="st2" cx="35.32" cy="46.28" rx="2.5" ry="1.06"/>
			</g>
			<g>
				<path class="st3" d="M32.83,45.67v0.51c0,0.44,0.62,0.81,1.5,0.97c0.21,0.04,0.43,0.07,0.67,0.08c0.11,0.01,0.22,0.01,0.33,0.01
					c0.35,0,0.69-0.03,1-0.09c0.88-0.16,1.34-0.54,1.34-0.98l0.16-0.55c-0.36-0.4-1.43-0.5-2.5-0.5
					C34.48,45.12,33.28,45.39,32.83,45.67z"/>
			</g>
			<g class="st4">
				<path class="st5" d="M34.33,46.21v0.93c0.21,0.04,0.43,0.07,0.67,0.08v-1.01H34.33z"/>
			</g>
			<g>
				<path class="st6" d="M36.22,47.16v-2.02c0.72,0.05,1.35,0.18,1.61,0.47v0.56C37.82,46.62,37.15,47.01,36.22,47.16z"/>
			</g>
			<g>
				<ellipse class="st7" cx="35.32" cy="45.67" rx="2.5" ry="1.06"/>
			</g>
			<g>
				<path class="st5" d="M33.9,46.5c-0.43-0.13-0.74-0.32-0.9-0.53l2.01-1.32c0.12-0.01,0.23-0.01,0.34-0.01
					c0.41,0,0.82,0.04,1.18,0.13L33.9,46.5z"/>
			</g>
			<g>
				<path class="st5" d="M35,46.68c-0.2-0.01-0.4-0.03-0.58-0.07l2.6-1.71c0.15,0.06,0.28,0.12,0.39,0.19L35,46.68z"/>
			</g>
		</g>
		<g>
			<g>
				<ellipse class="st2" cx="35.32" cy="45.55" rx="2.5" ry="1.06"/>
			</g>
			<g>
				<path class="st3" d="M32.83,44.93v0.51c0,0.44,0.62,0.81,1.5,0.97c0.21,0.04,0.43,0.07,0.67,0.08c0.11,0.01,0.22,0.01,0.33,0.01
					c0.35,0,0.69-0.03,1-0.09c0.88-0.16,1.34-0.54,1.34-0.98l0.16-0.55c-0.36-0.4-1.43-0.5-2.5-0.5
					C34.48,44.38,33.28,44.66,32.83,44.93z"/>
			</g>
			<g class="st4">
				<path class="st5" d="M34.33,45.48v0.93c0.21,0.04,0.43,0.07,0.67,0.08v-1.01H34.33z"/>
			</g>
			<g>
				<path class="st6" d="M36.22,46.43v-2.02c0.72,0.05,1.35,0.18,1.61,0.47v0.56C37.82,45.89,37.15,46.28,36.22,46.43z"/>
			</g>
			<g>
				<ellipse class="st7" cx="35.32" cy="44.93" rx="2.5" ry="1.06"/>
			</g>
			<g>
				<path class="st5" d="M33.9,45.76c-0.43-0.13-0.74-0.32-0.9-0.53l2.01-1.32c0.12-0.01,0.23-0.01,0.34-0.01
					c0.41,0,0.82,0.04,1.18,0.13L33.9,45.76z"/>
			</g>
			<g>
				<path class="st5" d="M35,45.95c-0.2-0.01-0.4-0.03-0.58-0.07l2.6-1.71c0.15,0.06,0.28,0.12,0.39,0.19L35,45.95z"/>
			</g>
		</g>
		<g>
			<g>
				<ellipse class="st2" cx="35.32" cy="44.81" rx="2.5" ry="1.06"/>
			</g>
			<g>
				<path class="st3" d="M32.83,44.2v0.51c0,0.44,0.62,0.81,1.5,0.97c0.21,0.04,0.43,0.07,0.67,0.08c0.11,0.01,0.22,0.01,0.33,0.01
					c0.35,0,0.69-0.03,1-0.09c0.88-0.16,1.34-0.54,1.34-0.98l0.16-0.55c-0.36-0.4-1.43-0.5-2.5-0.5
					C34.48,43.65,33.28,43.92,32.83,44.2z"/>
			</g>
			<g class="st4">
				<path class="st5" d="M34.33,44.74v0.93c0.21,0.04,0.43,0.07,0.67,0.08v-1.01H34.33z"/>
			</g>
			<g>
				<path class="st6" d="M36.22,45.69v-2.02c0.72,0.05,1.35,0.18,1.61,0.47v0.56C37.82,45.16,37.15,45.54,36.22,45.69z"/>
			</g>
			<g>
				<ellipse class="st7" cx="35.32" cy="44.2" rx="2.5" ry="1.06"/>
			</g>
			<g>
				<path class="st5" d="M33.9,45.03c-0.43-0.13-0.74-0.32-0.9-0.53l2.01-1.32c0.12-0.01,0.23-0.01,0.34-0.01
					c0.41,0,0.82,0.04,1.18,0.13L33.9,45.03z"/>
			</g>
			<g>
				<path class="st5" d="M35,45.22c-0.2-0.01-0.4-0.03-0.58-0.07l2.6-1.71c0.15,0.06,0.28,0.12,0.39,0.19L35,45.22z"/>
			</g>
		</g>
		<g>
			<g>
				<ellipse class="st2" cx="35.32" cy="44.08" rx="2.5" ry="1.06"/>
			</g>
			<g>
				<path class="st3" d="M32.83,43.46v0.51c0,0.44,0.62,0.81,1.5,0.97c0.21,0.04,0.43,0.07,0.67,0.08c0.11,0.01,0.22,0.01,0.33,0.01
					c0.35,0,0.69-0.03,1-0.09c0.88-0.16,1.34-0.54,1.34-0.98l0.16-0.55c-0.36-0.4-1.43-0.5-2.5-0.5
					C34.48,42.91,33.28,43.19,32.83,43.46z"/>
			</g>
			<g class="st4">
				<path class="st5" d="M34.33,44.01v0.93c0.21,0.04,0.43,0.07,0.67,0.08v-1.01H34.33z"/>
			</g>
			<g>
				<path class="st6" d="M36.22,44.96v-2.02c0.72,0.05,1.35,0.18,1.61,0.47v0.56C37.82,44.42,37.15,44.81,36.22,44.96z"/>
			</g>
			<g>
				<ellipse class="st7" cx="35.32" cy="43.46" rx="2.5" ry="1.06"/>
			</g>
			<g>
				<path class="st5" d="M33.9,44.29c-0.43-0.13-0.74-0.32-0.9-0.53l2.01-1.32c0.12-0.01,0.23-0.01,0.34-0.01
					c0.41,0,0.82,0.04,1.18,0.13L33.9,44.29z"/>
			</g>
			<g>
				<path class="st5" d="M35,44.48c-0.2-0.01-0.4-0.03-0.58-0.07l2.6-1.71c0.15,0.06,0.28,0.12,0.39,0.19L35,44.48z"/>
			</g>
		</g>
		<g>
			<g>
				<ellipse class="st2" cx="35.32" cy="43.35" rx="2.5" ry="1.06"/>
			</g>
			<g>
				<path class="st3" d="M32.83,42.73v0.51c0,0.44,0.62,0.81,1.5,0.97c0.21,0.04,0.43,0.07,0.67,0.08c0.11,0.01,0.22,0.01,0.33,0.01
					c0.35,0,0.69-0.03,1-0.09c0.88-0.16,1.34-0.54,1.34-0.98l0.16-0.55c-0.36-0.4-1.43-0.5-2.5-0.5
					C34.48,42.18,33.28,42.46,32.83,42.73z"/>
			</g>
			<g class="st4">
				<path class="st5" d="M34.33,43.27v0.93c0.21,0.04,0.43,0.07,0.67,0.08v-1.01H34.33z"/>
			</g>
			<g>
				<path class="st6" d="M36.22,44.22v-2.02c0.72,0.05,1.35,0.18,1.61,0.47v0.56C37.82,43.69,37.15,44.07,36.22,44.22z"/>
			</g>
			<g>
				<ellipse class="st7" cx="35.32" cy="42.73" rx="2.5" ry="1.06"/>
			</g>
			<g>
				<path class="st5" d="M33.9,43.56c-0.43-0.13-0.74-0.32-0.9-0.53l2.01-1.32c0.12-0.01,0.23-0.01,0.34-0.01
					c0.41,0,0.82,0.04,1.18,0.13L33.9,43.56z"/>
			</g>
			<g>
				<path class="st5" d="M35,43.75c-0.2-0.01-0.4-0.03-0.58-0.07l2.6-1.71c0.15,0.06,0.28,0.12,0.39,0.19L35,43.75z"/>
			</g>
		</g>
		<g>
			<g>
				<ellipse class="st2" cx="35.32" cy="42.61" rx="2.5" ry="1.06"/>
			</g>
			<g>
				<path class="st3" d="M32.83,41.99v0.51c0,0.44,0.62,0.81,1.5,0.97c0.21,0.04,0.43,0.07,0.67,0.08c0.11,0.01,0.22,0.01,0.33,0.01
					c0.35,0,0.69-0.03,1-0.09c0.88-0.16,1.34-0.54,1.34-0.98l0.16-0.55c-0.36-0.4-1.43-0.5-2.5-0.5
					C34.48,41.44,33.28,41.72,32.83,41.99z"/>
			</g>
			<g class="st4">
				<path class="st5" d="M34.33,42.54v0.93c0.21,0.04,0.43,0.07,0.67,0.08v-1.01H34.33z"/>
			</g>
			<g>
				<path class="st6" d="M36.22,43.49v-2.02c0.72,0.05,1.35,0.18,1.61,0.47v0.56C37.82,42.95,37.15,43.34,36.22,43.49z"/>
			</g>
			<g>
				<ellipse class="st7" cx="35.32" cy="41.99" rx="2.5" ry="1.06"/>
			</g>
			<g>
				<path class="st5" d="M33.9,42.82c-0.43-0.13-0.74-0.32-0.9-0.53l2.01-1.32c0.12-0.01,0.23-0.01,0.34-0.01
					c0.41,0,0.82,0.04,1.18,0.13L33.9,42.82z"/>
			</g>
			<g>
				<path class="st5" d="M35,43.01c-0.2-0.01-0.4-0.03-0.58-0.07l2.6-1.71c0.15,0.06,0.28,0.12,0.39,0.19L35,43.01z"/>
			</g>
		</g>
		<g>
			<g>
				<ellipse class="st2" cx="35.32" cy="41.88" rx="2.5" ry="1.06"/>
			</g>
			<g>
				<path class="st3" d="M32.83,41.26v0.51c0,0.44,0.62,0.81,1.5,0.97c0.21,0.04,0.43,0.07,0.67,0.08c0.11,0.01,0.22,0.01,0.33,0.01
					c0.35,0,0.69-0.03,1-0.09c0.88-0.16,1.34-0.54,1.34-0.98l0.16-0.55c-0.36-0.4-1.43-0.5-2.5-0.5
					C34.48,40.71,33.28,40.99,32.83,41.26z"/>
			</g>
			<g class="st4">
				<path class="st5" d="M34.33,41.81v0.93c0.21,0.04,0.43,0.07,0.67,0.08v-1.01H34.33z"/>
			</g>
			<g>
				<path class="st6" d="M36.22,42.76v-2.02c0.72,0.05,1.35,0.18,1.61,0.47v0.56C37.82,42.22,37.15,42.6,36.22,42.76z"/>
			</g>
			<g>
				<ellipse class="st7" cx="35.32" cy="41.26" rx="2.5" ry="1.06"/>
			</g>
			<g>
				<path class="st5" d="M33.9,42.09c-0.43-0.13-0.74-0.32-0.9-0.53l2.01-1.32c0.12-0.01,0.23-0.01,0.34-0.01
					c0.41,0,0.82,0.04,1.18,0.13L33.9,42.09z"/>
			</g>
			<g>
				<path class="st5" d="M35,42.28c-0.2-0.01-0.4-0.03-0.58-0.07l2.6-1.71c0.15,0.06,0.28,0.12,0.39,0.19L35,42.28z"/>
			</g>
		</g>
		<g>
			<g>
				<ellipse class="st2" cx="35.32" cy="41.14" rx="2.5" ry="1.06"/>
			</g>
			<g>
				<path class="st3" d="M32.83,40.52v0.51c0,0.44,0.62,0.81,1.5,0.97c0.21,0.04,0.43,0.07,0.67,0.08c0.11,0.01,0.22,0.01,0.33,0.01
					c0.35,0,0.69-0.03,1-0.09c0.88-0.16,1.34-0.54,1.34-0.98l0.16-0.55c-0.36-0.4-1.43-0.5-2.5-0.5
					C34.48,39.98,33.28,40.25,32.83,40.52z"/>
			</g>
			<g class="st4">
				<path class="st5" d="M34.33,41.07v0.93c0.21,0.04,0.43,0.07,0.67,0.08v-1.01H34.33z"/>
			</g>
			<g>
				<path class="st6" d="M36.22,42.02V40c0.72,0.05,1.35,0.18,1.61,0.47v0.56C37.82,41.48,37.15,41.87,36.22,42.02z"/>
			</g>
			<g>
				<ellipse class="st7" cx="35.32" cy="40.53" rx="2.5" ry="1.06"/>
			</g>
			<g>
				<path class="st5" d="M33.9,41.36c-0.43-0.13-0.74-0.32-0.9-0.53l2.01-1.32c0.12-0.01,0.23-0.01,0.34-0.01
					c0.41,0,0.82,0.04,1.18,0.13L33.9,41.36z"/>
			</g>
			<g>
				<path class="st5" d="M35,41.54c-0.2-0.01-0.4-0.03-0.58-0.07l2.6-1.71c0.15,0.06,0.28,0.12,0.39,0.19L35,41.54z"/>
			</g>
		</g>
		<g>
			<g>
				<ellipse class="st2" cx="35.32" cy="40.41" rx="2.5" ry="1.06"/>
			</g>
			<g>
				<path class="st3" d="M32.83,39.79v0.51c0,0.44,0.62,0.81,1.5,0.97c0.21,0.04,0.43,0.07,0.67,0.08c0.11,0.01,0.22,0.01,0.33,0.01
					c0.35,0,0.69-0.03,1-0.09c0.88-0.16,1.34-0.54,1.34-0.98l0.16-0.55c-0.36-0.4-1.43-0.5-2.5-0.5
					C34.48,39.24,33.28,39.52,32.83,39.79z"/>
			</g>
			<g class="st4">
				<path class="st5" d="M34.33,40.34v0.93c0.21,0.04,0.43,0.07,0.67,0.08v-1.01H34.33z"/>
			</g>
			<g>
				<path class="st6" d="M36.22,41.29v-2.02c0.72,0.05,1.35,0.18,1.61,0.47v0.56C37.82,40.75,37.15,41.14,36.22,41.29z"/>
			</g>
			<g>
				<ellipse class="st7" cx="35.32" cy="39.79" rx="2.5" ry="1.06"/>
			</g>
			<g>
				<path class="st5" d="M33.9,40.62c-0.43-0.13-0.74-0.32-0.9-0.53l2.01-1.32c0.12-0.01,0.23-0.01,0.34-0.01
					c0.41,0,0.82,0.04,1.18,0.13L33.9,40.62z"/>
			</g>
			<g>
				<path class="st5" d="M35,40.81c-0.2-0.01-0.4-0.03-0.58-0.07l2.6-1.71c0.15,0.06,0.28,0.12,0.39,0.19L35,40.81z"/>
			</g>
		</g>
		<g>
			<g>
				<ellipse class="st2" cx="35.32" cy="39.67" rx="2.5" ry="1.06"/>
			</g>
			<g>
				<path class="st3" d="M32.83,39.06v0.51c0,0.44,0.62,0.81,1.5,0.97c0.21,0.04,0.43,0.07,0.67,0.08c0.11,0.01,0.22,0.01,0.33,0.01
					c0.35,0,0.69-0.03,1-0.09c0.88-0.16,1.34-0.54,1.34-0.98L37.82,39c-0.36-0.4-1.43-0.5-2.5-0.5
					C34.48,38.51,33.28,38.78,32.83,39.06z"/>
			</g>
			<g class="st4">
				<path class="st5" d="M34.33,39.6v0.93c0.21,0.04,0.43,0.07,0.67,0.08V39.6H34.33z"/>
			</g>
			<g>
				<path class="st6" d="M36.22,40.55v-2.02c0.72,0.05,1.35,0.18,1.61,0.47v0.56C37.82,40.02,37.15,40.4,36.22,40.55z"/>
			</g>
			<g>
				<ellipse class="st7" cx="35.32" cy="39.06" rx="2.5" ry="1.06"/>
			</g>
			<g>
				<path class="st5" d="M33.9,39.89c-0.43-0.13-0.74-0.32-0.9-0.53l2.01-1.32c0.12-0.01,0.23-0.01,0.34-0.01
					c0.41,0,0.82,0.04,1.18,0.13L33.9,39.89z"/>
			</g>
			<g>
				<path class="st5" d="M35,40.08c-0.2-0.01-0.4-0.03-0.58-0.07l2.6-1.71c0.15,0.06,0.28,0.12,0.39,0.19L35,40.08z"/>
			</g>
		</g>
	</g>
	<path class="st1" d="M33.04,47.81c0,0.59,1.12,1.06,2.5,1.06c0.15,0,0.29,0,0.42-0.02V47.6c-0.14,0.01-0.28,0.02-0.42,0.02
		c-0.83,0-1.56-0.17-2.02-0.44C33.22,47.36,33.04,47.57,33.04,47.81z"/>
	<path class="st8" d="M27.65,47.11c-0.06,0.58,0.99,1.26,2.35,1.51c0.14,0.03,0.28,0.05,0.42,0.06l0.14-7.25
		c-0.14-0.01-0.28-0.04-0.42-0.06c-0.82-0.15-1.52-0.46-1.94-0.8C27.88,40.69,27.67,46.88,27.65,47.11z"/>
	<g>
		<g>
			<g>
				<ellipse class="st2" cx="27.37" cy="46.74" rx="2.5" ry="1.06"/>
			</g>
			<g>
				<path class="st3" d="M24.88,46.13v0.51c0,0.44,0.62,0.81,1.5,0.97c0.21,0.04,0.43,0.07,0.67,0.08c0.11,0.01,0.22,0.01,0.33,0.01
					c0.35,0,0.69-0.03,1-0.09c0.88-0.16,1.34-0.54,1.34-0.98l0.16-0.55c-0.36-0.4-1.43-0.5-2.5-0.5
					C26.53,45.58,25.33,45.85,24.88,46.13z"/>
			</g>
			<g class="st4">
				<path class="st5" d="M26.38,46.67v0.93c0.21,0.04,0.43,0.07,0.67,0.08v-1.01H26.38z"/>
			</g>
			<g>
				<path class="st6" d="M28.27,47.62V45.6c0.72,0.05,1.35,0.18,1.61,0.47v0.56C29.87,47.09,29.2,47.47,28.27,47.62z"/>
			</g>
			<g>
				<ellipse class="st7" cx="27.37" cy="46.13" rx="2.5" ry="1.06"/>
			</g>
			<g>
				<path class="st5" d="M25.95,46.96c-0.43-0.13-0.74-0.32-0.9-0.53l2.01-1.32c0.12-0.01,0.23-0.01,0.34-0.01
					c0.41,0,0.82,0.04,1.18,0.13L25.95,46.96z"/>
			</g>
			<g>
				<path class="st5" d="M27.05,47.15c-0.2-0.01-0.4-0.03-0.58-0.07l2.6-1.71c0.15,0.06,0.28,0.12,0.39,0.19L27.05,47.15z"/>
			</g>
		</g>
		<g>
			<g>
				<ellipse class="st2" cx="27.37" cy="46.01" rx="2.5" ry="1.06"/>
			</g>
			<g>
				<path class="st3" d="M24.88,45.39v0.51c0,0.44,0.62,0.81,1.5,0.97c0.21,0.04,0.43,0.07,0.67,0.08c0.11,0.01,0.22,0.01,0.33,0.01
					c0.35,0,0.69-0.03,1-0.09c0.88-0.16,1.34-0.54,1.34-0.98l0.16-0.55c-0.36-0.4-1.43-0.5-2.5-0.5
					C26.53,44.84,25.33,45.12,24.88,45.39z"/>
			</g>
			<g class="st4">
				<path class="st5" d="M26.38,45.94v0.93c0.21,0.04,0.43,0.07,0.67,0.08v-1.01H26.38z"/>
			</g>
			<g>
				<path class="st6" d="M28.27,46.89v-2.02c0.72,0.05,1.35,0.18,1.61,0.47v0.56C29.87,46.35,29.2,46.74,28.27,46.89z"/>
			</g>
			<g>
				<ellipse class="st7" cx="27.37" cy="45.39" rx="2.5" ry="1.06"/>
			</g>
			<g>
				<path class="st5" d="M25.95,46.22c-0.43-0.13-0.74-0.32-0.9-0.53l2.01-1.32c0.12-0.01,0.23-0.01,0.34-0.01
					c0.41,0,0.82,0.04,1.18,0.13L25.95,46.22z"/>
			</g>
			<g>
				<path class="st5" d="M27.05,46.41c-0.2-0.01-0.4-0.03-0.58-0.07l2.6-1.71c0.15,0.06,0.28,0.12,0.39,0.19L27.05,46.41z"/>
			</g>
		</g>
		<g>
			<g>
				<ellipse class="st2" cx="27.37" cy="45.28" rx="2.5" ry="1.06"/>
			</g>
			<g>
				<path class="st3" d="M24.88,44.66v0.51c0,0.44,0.62,0.81,1.5,0.97c0.21,0.04,0.43,0.07,0.67,0.08c0.11,0.01,0.22,0.01,0.33,0.01
					c0.35,0,0.69-0.03,1-0.09c0.88-0.16,1.34-0.54,1.34-0.98l0.16-0.55c-0.36-0.4-1.43-0.5-2.5-0.5
					C26.53,44.11,25.33,44.39,24.88,44.66z"/>
			</g>
			<g class="st4">
				<path class="st5" d="M26.38,45.2v0.93c0.21,0.04,0.43,0.07,0.67,0.08V45.2H26.38z"/>
			</g>
			<g>
				<path class="st6" d="M28.27,46.15v-2.02c0.72,0.05,1.35,0.18,1.61,0.47v0.56C29.87,45.62,29.2,46,28.27,46.15z"/>
			</g>
			<g>
				<ellipse class="st7" cx="27.37" cy="44.66" rx="2.5" ry="1.06"/>
			</g>
			<g>
				<path class="st5" d="M25.95,45.49c-0.43-0.13-0.74-0.32-0.9-0.53l2.01-1.32c0.12-0.01,0.23-0.01,0.34-0.01
					c0.41,0,0.82,0.04,1.18,0.13L25.95,45.49z"/>
			</g>
			<g>
				<path class="st5" d="M27.05,45.68c-0.2-0.01-0.4-0.03-0.58-0.07l2.6-1.71c0.15,0.06,0.28,0.12,0.39,0.19L27.05,45.68z"/>
			</g>
		</g>
		<g>
			<g>
				<ellipse class="st2" cx="27.37" cy="44.54" rx="2.5" ry="1.06"/>
			</g>
			<g>
				<path class="st3" d="M24.88,43.92v0.51c0,0.44,0.62,0.81,1.5,0.97c0.21,0.04,0.43,0.07,0.67,0.08c0.11,0.01,0.22,0.01,0.33,0.01
					c0.35,0,0.69-0.03,1-0.09c0.88-0.16,1.34-0.54,1.34-0.98l0.16-0.55c-0.36-0.4-1.43-0.5-2.5-0.5
					C26.53,43.37,25.33,43.65,24.88,43.92z"/>
			</g>
			<g class="st4">
				<path class="st5" d="M26.38,44.47v0.93c0.21,0.04,0.43,0.07,0.67,0.08v-1.01H26.38z"/>
			</g>
			<g>
				<path class="st6" d="M28.27,45.42V43.4c0.72,0.05,1.35,0.18,1.61,0.47v0.56C29.87,44.88,29.2,45.27,28.27,45.42z"/>
			</g>
			<g>
				<ellipse class="st7" cx="27.37" cy="43.92" rx="2.5" ry="1.06"/>
			</g>
			<g>
				<path class="st5" d="M25.95,44.75c-0.43-0.13-0.74-0.32-0.9-0.53l2.01-1.32c0.12-0.01,0.23-0.01,0.34-0.01
					c0.41,0,0.82,0.04,1.18,0.13L25.95,44.75z"/>
			</g>
			<g>
				<path class="st5" d="M27.05,44.94c-0.2-0.01-0.4-0.03-0.58-0.07l2.6-1.71c0.15,0.06,0.28,0.12,0.39,0.19L27.05,44.94z"/>
			</g>
		</g>
		<g>
			<g>
				<ellipse class="st2" cx="27.37" cy="43.81" rx="2.5" ry="1.06"/>
			</g>
			<g>
				<path class="st3" d="M24.88,43.19v0.51c0,0.44,0.62,0.81,1.5,0.97c0.21,0.04,0.43,0.07,0.67,0.08c0.11,0.01,0.22,0.01,0.33,0.01
					c0.35,0,0.69-0.03,1-0.09c0.88-0.16,1.34-0.54,1.34-0.98l0.16-0.55c-0.36-0.4-1.43-0.5-2.5-0.5
					C26.53,42.64,25.33,42.92,24.88,43.19z"/>
			</g>
			<g class="st4">
				<path class="st5" d="M26.38,43.74v0.93c0.21,0.04,0.43,0.07,0.67,0.08v-1.01H26.38z"/>
			</g>
			<g>
				<path class="st6" d="M28.27,44.69v-2.02c0.72,0.05,1.35,0.18,1.61,0.47v0.56C29.87,44.15,29.2,44.53,28.27,44.69z"/>
			</g>
			<g>
				<ellipse class="st7" cx="27.37" cy="43.19" rx="2.5" ry="1.06"/>
			</g>
			<g>
				<path class="st5" d="M25.95,44.02c-0.43-0.13-0.74-0.32-0.9-0.53l2.01-1.32c0.12-0.01,0.23-0.01,0.34-0.01
					c0.41,0,0.82,0.04,1.18,0.13L25.95,44.02z"/>
			</g>
			<g>
				<path class="st5" d="M27.05,44.21c-0.2-0.01-0.4-0.03-0.58-0.07l2.6-1.71c0.15,0.06,0.28,0.12,0.39,0.19L27.05,44.21z"/>
			</g>
		</g>
		<g>
			<g>
				<ellipse class="st2" cx="27.37" cy="43.07" rx="2.5" ry="1.06"/>
			</g>
			<g>
				<path class="st3" d="M24.88,42.45v0.51c0,0.44,0.62,0.81,1.5,0.97c0.21,0.04,0.43,0.07,0.67,0.08c0.11,0.01,0.22,0.01,0.33,0.01
					c0.35,0,0.69-0.03,1-0.09c0.88-0.16,1.34-0.54,1.34-0.98l0.16-0.55c-0.36-0.4-1.43-0.5-2.5-0.5
					C26.53,41.9,25.33,42.18,24.88,42.45z"/>
			</g>
			<g class="st4">
				<path class="st5" d="M26.38,43v0.93c0.21,0.04,0.43,0.07,0.67,0.08V43H26.38z"/>
			</g>
			<g>
				<path class="st6" d="M28.27,43.95v-2.02c0.72,0.05,1.35,0.18,1.61,0.47v0.56C29.87,43.41,29.2,43.8,28.27,43.95z"/>
			</g>
			<g>
				<ellipse class="st7" cx="27.37" cy="42.46" rx="2.5" ry="1.06"/>
			</g>
			<g>
				<path class="st5" d="M25.95,43.29c-0.43-0.13-0.74-0.32-0.9-0.53l2.01-1.32c0.12-0.01,0.23-0.01,0.34-0.01
					c0.41,0,0.82,0.04,1.18,0.13L25.95,43.29z"/>
			</g>
			<g>
				<path class="st5" d="M27.05,43.47c-0.2-0.01-0.4-0.03-0.58-0.07l2.6-1.71c0.15,0.06,0.28,0.12,0.39,0.19L27.05,43.47z"/>
			</g>
		</g>
		<g>
			<g>
				<ellipse class="st2" cx="27.37" cy="42.34" rx="2.5" ry="1.06"/>
			</g>
			<g>
				<path class="st3" d="M24.88,41.72v0.51c0,0.44,0.62,0.81,1.5,0.97c0.21,0.04,0.43,0.07,0.67,0.08c0.11,0.01,0.22,0.01,0.33,0.01
					c0.35,0,0.69-0.03,1-0.09c0.88-0.16,1.34-0.54,1.34-0.98l0.16-0.55c-0.36-0.4-1.43-0.5-2.5-0.5
					C26.53,41.17,25.33,41.45,24.88,41.72z"/>
			</g>
			<g class="st4">
				<path class="st5" d="M26.38,42.27v0.93c0.21,0.04,0.43,0.07,0.67,0.08v-1.01H26.38z"/>
			</g>
			<g>
				<path class="st6" d="M28.27,43.22V41.2c0.72,0.05,1.35,0.18,1.61,0.47v0.56C29.87,42.68,29.2,43.06,28.27,43.22z"/>
			</g>
			<g>
				<ellipse class="st7" cx="27.37" cy="41.72" rx="2.5" ry="1.06"/>
			</g>
			<g>
				<path class="st5" d="M25.95,42.55c-0.43-0.13-0.74-0.32-0.9-0.53l2.01-1.32c0.12-0.01,0.23-0.01,0.34-0.01
					c0.41,0,0.82,0.04,1.18,0.13L25.95,42.55z"/>
			</g>
			<g>
				<path class="st5" d="M27.05,42.74c-0.2-0.01-0.4-0.03-0.58-0.07l2.6-1.71c0.15,0.06,0.28,0.12,0.39,0.19L27.05,42.74z"/>
			</g>
		</g>
		<g>
			<g>
				<ellipse class="st2" cx="27.37" cy="41.6" rx="2.5" ry="1.06"/>
			</g>
			<g>
				<path class="st3" d="M24.88,40.99v0.51c0,0.44,0.62,0.81,1.5,0.97c0.21,0.04,0.43,0.07,0.67,0.08c0.11,0.01,0.22,0.01,0.33,0.01
					c0.35,0,0.69-0.03,1-0.09c0.88-0.16,1.34-0.54,1.34-0.98l0.16-0.55c-0.36-0.4-1.43-0.5-2.5-0.5
					C26.53,40.44,25.33,40.71,24.88,40.99z"/>
			</g>
			<g class="st4">
				<path class="st5" d="M26.38,41.53v0.93c0.21,0.04,0.43,0.07,0.67,0.08v-1.01H26.38z"/>
			</g>
			<g>
				<path class="st6" d="M28.27,42.48v-2.02c0.72,0.05,1.35,0.18,1.61,0.47v0.56C29.87,41.95,29.2,42.33,28.27,42.48z"/>
			</g>
			<g>
				<ellipse class="st7" cx="27.37" cy="40.99" rx="2.5" ry="1.06"/>
			</g>
			<g>
				<path class="st5" d="M25.95,41.82c-0.43-0.13-0.74-0.32-0.9-0.53l2.01-1.32c0.12-0.01,0.23-0.01,0.34-0.01
					c0.41,0,0.82,0.04,1.18,0.13L25.95,41.82z"/>
			</g>
			<g>
				<path class="st5" d="M27.05,42c-0.2-0.01-0.4-0.03-0.58-0.07l2.6-1.71c0.15,0.06,0.28,0.12,0.39,0.19L27.05,42z"/>
			</g>
		</g>
	</g>
	<g>
		<g>
			<polygon class="st9" points="31.64,52.23 34.5,48.82 34.5,50.64 31.64,54.05 31.64,54.06 19.55,54.06 19.55,52.23 			"/>
			<polygon class="st10" points="34.5,50.36 34.5,48.54 31.64,51.95 31.64,53.77 			"/>
			<g>
				<polygon class="st11" points="22.44,48.6 19.68,51.89 31.61,51.89 34.37,48.6 				"/>
				<rect x="19.55" y="51.95" class="st12" width="12.09" height="1.83"/>
				<path class="st12" d="M22.42,48.59l-2.71,3.28h11.95l2.71-3.28H22.42z M21.25,50.8l0.94-1.13c0.62,0,1.4-0.33,1.74-0.74h8.38
					c-0.33,0.4-0.11,0.73,0.49,0.74l-0.94,1.13c-0.61,0.01-1.37,0.33-1.71,0.72h-8.39C22.08,51.13,21.86,50.81,21.25,50.8z"/>
				
					<ellipse transform="matrix(0.9411 -0.3381 0.3381 0.9411 -15.3903 12.1011)" class="st13" cx="27.04" cy="50.23" rx="1.25" ry="0.57"/>
				<path class="st14" d="M28.96,50.23c-0.17,0.21-0.05,0.37,0.26,0.37c0.31,0,0.7-0.17,0.87-0.37c0.17-0.21,0.05-0.37-0.26-0.37
					C29.52,49.86,29.13,50.02,28.96,50.23z"/>
				<path class="st14" d="M23.99,50.23c-0.17,0.21-0.05,0.37,0.26,0.37c0.31,0,0.7-0.17,0.87-0.37c0.17-0.21,0.05-0.37-0.26-0.37
					C24.55,49.86,24.16,50.02,23.99,50.23z"/>
				<path class="st15" d="M22.41,48.54H34.5l-2.86,3.41H19.55L22.41,48.54z M34.23,48.66H22.47l-2.65,3.16h11.77L34.23,48.66z"/>
				<polygon class="st16" points="27.95,48.54 29.63,48.54 26.77,51.95 26.77,53.78 25.09,53.78 25.09,51.95 				"/>
				<polygon class="st14" points="24.74,51.95 24.74,53.78 26.42,53.78 26.42,51.95 26.42,51.95 29.28,48.54 27.6,48.54 
					24.74,51.95 				"/>
				<g>
					<polygon class="st17" points="29.1,48.54 29.43,48.54 26.57,51.95 26.57,53.78 26.24,53.78 26.24,51.95 					"/>
				</g>
				<g>
					<polygon class="st17" points="27.44,48.54 27.78,48.54 24.92,51.95 24.92,53.78 24.58,53.78 24.58,51.95 					"/>
				</g>
				<polygon class="st18" points="24.59,51.95 24.59,53.78 26.57,53.78 26.57,51.95 26.57,51.95 24.9,51.95 				"/>
			</g>
		</g>
		<g>
			<polygon class="st9" points="31.64,50.03 34.5,46.62 34.5,48.43 31.64,51.84 31.64,51.86 19.55,51.86 19.55,50.03 			"/>
			<polygon class="st10" points="34.5,48.16 34.5,46.34 31.64,49.75 31.64,51.57 			"/>
			<g>
				<polygon class="st11" points="22.44,46.4 19.68,49.69 31.61,49.69 34.37,46.4 				"/>
				<rect x="19.55" y="49.75" class="st12" width="12.09" height="1.83"/>
				<path class="st12" d="M22.42,46.39l-2.71,3.28h11.95l2.71-3.28H22.42z M21.25,48.6l0.94-1.13c0.62,0,1.4-0.33,1.74-0.74h8.38
					c-0.33,0.4-0.11,0.73,0.49,0.74l-0.94,1.13c-0.61,0.01-1.37,0.33-1.71,0.72h-8.39C22.08,48.93,21.86,48.61,21.25,48.6z"/>
				
					<ellipse transform="matrix(0.9411 -0.3381 0.3381 0.9411 -14.6454 11.9713)" class="st13" cx="27.04" cy="48.02" rx="1.25" ry="0.57"/>
				<path class="st14" d="M28.96,48.02c-0.17,0.21-0.05,0.37,0.26,0.37c0.31,0,0.7-0.17,0.87-0.37c0.17-0.21,0.05-0.37-0.26-0.37
					C29.52,47.65,29.13,47.82,28.96,48.02z"/>
				<path class="st14" d="M23.99,48.02c-0.17,0.21-0.05,0.37,0.26,0.37c0.31,0,0.7-0.17,0.87-0.37c0.17-0.21,0.05-0.37-0.26-0.37
					C24.55,47.65,24.16,47.82,23.99,48.02z"/>
				<path class="st15" d="M22.41,46.34H34.5l-2.86,3.41H19.55L22.41,46.34z M34.23,46.46H22.47l-2.65,3.16h11.77L34.23,46.46z"/>
				<polygon class="st16" points="27.95,46.34 29.63,46.34 26.77,49.75 26.77,51.58 25.09,51.58 25.09,49.75 				"/>
				<polygon class="st14" points="24.74,49.75 24.74,51.58 26.42,51.58 26.42,49.75 26.42,49.75 29.28,46.34 27.6,46.34 
					24.74,49.75 				"/>
				<g>
					<polygon class="st17" points="29.1,46.34 29.43,46.34 26.57,49.75 26.57,51.58 26.24,51.58 26.24,49.75 					"/>
				</g>
				<g>
					<polygon class="st17" points="27.44,46.34 27.78,46.34 24.92,49.75 24.92,51.58 24.58,51.58 24.58,49.75 					"/>
				</g>
				<polygon class="st18" points="24.59,49.75 24.59,51.58 26.57,51.58 26.57,49.75 26.57,49.75 24.9,49.75 				"/>
			</g>
		</g>
	</g>
</g>
</svg>
