<?xml version="1.0" encoding="utf-8"?>
<!-- Generator: Adobe Illustrator 23.0.3, SVG Export Plug-In . SVG Version: 6.00 Build 0)  -->
<svg version="1.1" id="Layer_1" xmlns="http://www.w3.org/2000/svg" xmlns:xlink="http://www.w3.org/1999/xlink" x="0px" y="0px"
	 viewBox="0 0 60 80" style="enable-background:new 0 0 60 80;" xml:space="preserve">
<style type="text/css">
	.st0{fill:url(#SVGID_1_);}
	.st1{opacity:0.7;fill:#C7C7C7;}
	.st2{fill:#FFFFFF;}
	.st3{fill:url(#SVGID_2_);}
	.st4{fill:url(#SVGID_3_);}
	.st5{fill:#C7C7C7;}
	.st6{fill:url(#SVGID_4_);}
	.st7{opacity:0.5;}
	.st8{fill:url(#SVGID_5_);}
	.st9{fill:url(#SVGID_6_);}
	.st10{fill:url(#SVGID_7_);}
	.st11{opacity:0.5;fill:url(#SVGID_8_);}
	.st12{fill:url(#SVGID_9_);}
	.st13{opacity:0.3;fill:#C7C7C7;}
	.st14{opacity:0.7;fill:#FFFFFF;}
	.st15{opacity:0.5;fill:#FFFFFF;}
	.st16{opacity:0.8;}
	.st17{opacity:0.2;fill:#FBFBFB;}
	.st18{opacity:0.8;fill:#FBFBFB;}
	.st19{opacity:0.44;fill:#797F9D;enable-background:new    ;}
	.st20{opacity:0.2;fill:#797F9D;enable-background:new    ;}
</style>
<linearGradient id="SVGID_1_" gradientUnits="userSpaceOnUse" x1="21.015" y1="47.4613" x2="42.3079" y2="22.9124" gradientTransform="matrix(0.9999 1.310000e-02 1.310000e-02 -0.9999 -3.1705 78.3405)">
	<stop  offset="0" style="stop-color:#F1DDD5"/>
	<stop  offset="0.6687" style="stop-color:#8B9AAA"/>
	<stop  offset="1" style="stop-color:#9FC5DB"/>
</linearGradient>
<path class="st0" d="M44.2,43.8c-0.1,9.4-7,16.9-15.4,16.8c-4.5-0.1-8.6-2.3-11.3-5.9c-2.3-3-3.7-7-3.6-11.3
	c0.1-9.4,7-16.9,15.4-16.8c6.2,0.1,11.5,4.3,13.8,10.3C43.8,39,44.2,41.3,44.2,43.8z"/>
<g>
	<g>
		<g>
			<path class="st1" d="M24.3,50.6c0,0.3,0.1,0.5,0.1,0.8c0,0,0,0.1,0,0.1c0.1,0.3,0.2,0.7,0.3,1c0,0,0.1,0.2,0.1,0.3
				c0.1,0.1,0.1,0,0.1,0.1c0,0,0.1,0.1,0.1,0.1c0,0,0.1,0.1,0.1,0.1c0,0,0.1,0.1,0.1,0.1c0,0,0,0.1,0,0.1c0.1,0.1,0.1,0.1,0.1,0.1
				c0,0,0,0,0,0c0,0,0,0,0.1,0c0,0,0.1,0.1,0.1,0.1c0.1,0.1,0.3,0.3,0.4,0.4c0.1,0.1,0.3,0.3,0.4,0.4c-0.1-0.1-0.3-0.3-0.4-0.4
				c-0.1-0.1-0.3-0.3-0.4-0.4c0,0-0.1-0.1-0.1-0.1c0,0,0,0,0,0c0,0,0,0-0.1,0c-0.1-0.1-0.1-0.1-0.2-0.2c0,0,0-0.1-0.1-0.1
				c0,0,0-0.1-0.1-0.1c0,0-0.1-0.1-0.1-0.1c0,0-0.1-0.1-0.1-0.1c-0.1-0.2-0.2-0.3-0.3-0.5c0,0,0-0.2,0-0.2c-0.1-0.2-0.2-0.5-0.2-0.7
				c0,0,0-0.1,0-0.1C24.4,51.1,24.3,50.9,24.3,50.6C24.3,50.6,24.2,50.6,24.3,50.6z"/>
		</g>
		<path class="st2" d="M24.3,50.6c0,0.1,0.1,0.5,0.1,0.7c0,0.2,0.2,0.8,0.3,1.1c0,0-0.5-1.5-0.3-1.9L24.3,50.6z"/>
	</g>
	<g>
		<path class="st2" d="M23.3,37c0.2,0,0.5,0,0.7-0.3c0.1-0.1,0.2-0.1,0.4-0.2c0.4-0.2,0.7-0.4,1-0.6c0.3-0.2,0.6-0.5,1-0.7
			c0.2-0.1,0.3-0.2,0.5-0.3c0.1,0,0.2-0.1,0.3-0.1c0.1,0,0.2,0,0.3-0.1c0.1,0,0.3-0.1,0.4-0.1c0.1,0,0.1,0,0.2-0.1
			c0.5-0.1,1.1-0.3,1.6-0.5c0.1,0,0.1-0.1,0.2-0.1c0.1,0,0.1-0.1,0.2-0.1c0,0,0.1,0,0.1,0c0,0,0.1,0,0.1,0c0,0,0.1,0,0.1,0
			c0,0,0.1,0,0.1,0c0.1,0,0.1,0,0.2,0c0.1,0,0.1,0,0.2,0c0.6-0.1,1.2-0.2,1.8,0c0.1,0,0.1,0,0.2,0.1c0.4-0.1,0.9,0.1,1.3,0.2
			c0.1,0,0.1,0.3,0.2,0.3c0.5,0.1,1,0.1,1.4,0c0.1,0,0.2,0,0.2,0c0.2,0,0.5,0,0.7,0.1c1.6,0.1,3.2,0.3,4.7,0.4
			c-1.6-0.1-3.2-0.2-4.8-0.4c-0.2,0-0.5,0-0.7,0c-0.1,0-0.1,0-0.2,0c-0.5,0.1-0.9,0.1-1.4,0c-0.1,0-0.1-0.3-0.2-0.4
			c-0.5-0.2-1-0.1-1.5-0.2c-0.1,0-0.1,0-0.2,0c-0.5-0.1-1.1,0-1.6,0c-0.1,0-0.1,0-0.2,0c-0.1,0-0.1,0-0.2,0c0,0-0.1,0-0.1,0
			c0,0-0.1,0-0.1,0c0,0-0.1,0-0.1,0c0,0-0.1,0-0.1,0c-0.1,0-0.1,0.1-0.2,0.1c-0.1,0-0.1,0.1-0.2,0.1c-0.5,0.1-1,0.4-1.6,0.5
			c-0.1,0-0.1,0-0.2,0.1c-0.1,0-0.3,0.1-0.4,0.1c-0.4,0.1-0.7,0.3-1.1,0.5c-0.3,0.2-0.6,0.5-1,0.7c-0.2,0.2-0.4,0.3-0.7,0.5
			c-0.1,0.1-0.2,0.1-0.3,0.2C24.2,36.8,23.7,36.9,23.3,37L23.3,37z"/>
	</g>
	<g>
		
			<linearGradient id="SVGID_2_" gradientUnits="userSpaceOnUse" x1="30.7057" y1="25.092" x2="35.04" y2="25.092" gradientTransform="matrix(0.9617 0.2743 -0.2743 0.9617 -2.6271 14.0638)">
			<stop  offset="0" style="stop-color:#D6D4D4"/>
			<stop  offset="0.4242" style="stop-color:#848383"/>
			<stop  offset="0.697" style="stop-color:#C2C0C0"/>
			<stop  offset="1" style="stop-color:#FFFFFF"/>
		</linearGradient>
		<path class="st3" d="M23.1,36.3c-0.1,0.6-0.3,1.1-0.3,1.7c0,0.1,0,0.3-0.1,0.5c-0.1,0.4-0.1,0.7-0.1,0.7s-0.1,1-0.3,1.9
			c0,0.1,0,0.1,0,0.2c-0.1,0.9-0.2,1.7-0.3,2.6c0,0.1,0,0.2,0,0.3c-0.1,1.4-0.2,2.7-0.2,4.1c0,0.4,0,0.9,0,1.3c0,0.1,0,0.1,0,0.2
			c0,0.5,0,0.8-0.1,1.4c0,0.1,0,0.2,0,0.2c-0.1,0.8-0.1,1.2-0.2,2c-0.1,1,0.4,0.7,0.2,1.7c-0.2,1-0.3,2-0.3,3c0-1,0.1-2,0.3-3
			c0.2-1.2-0.3-0.6,0-1.7c0.2-0.8,0-1.2,0.1-2c0-0.1,0-0.2,0-0.3c0.1-0.6,0.1-0.8,0.1-1.4c0-0.1,0-0.1,0-0.2c0-0.4,0-0.9,0-1.3
			c0-1.4,0.1-2.8,0.2-4.2c0-0.1,0-0.2,0-0.3c0.1-0.9,0.2-1.7,0.3-2.5c0-0.1,0-0.1,0-0.2c0.1-0.9,0.3-1.9,0.3-1.9s0.1-0.8,0.2-1.3
			c0-0.1,0-0.2,0-0.2C22.9,37.3,22.9,36.8,23.1,36.3L23.1,36.3z"/>
	</g>
	<g>
		
			<linearGradient id="SVGID_3_" gradientUnits="userSpaceOnUse" x1="30.6205" y1="23.0899" x2="36.8054" y2="23.0899" gradientTransform="matrix(0.9617 0.2743 -0.2743 0.9617 -2.6271 14.0638)">
			<stop  offset="0" style="stop-color:#FFFFFF"/>
			<stop  offset="0.303" style="stop-color:#C2C0C0"/>
			<stop  offset="0.5758" style="stop-color:#848383"/>
			<stop  offset="1" style="stop-color:#D6D4D4"/>
		</linearGradient>
		<path class="st4" d="M23,36.2c0.1,0.5,0.2,1,0.3,1.6c0,0.1,0,0.2,0,0.2c0.1,0.7,0,1.2,0.1,1.9c0,0.1,0,0.2,0,0.2
			c0,0.2,0,0.5,0,0.7c0,0.1,0,0.1,0,0.2c0.1,0.8,0.1,1.6,0.3,2.4c0,0.1,0,0.2,0,0.2c0.1,0.6,0.1,1.2,0.2,1.9
			c0.1,0.7,0.1,1.4,0.2,2.1c0,0.1,0,0.2,0,0.2c0,0.5,0,1,0.1,1.4c0,0.1,0,0.2,0,0.2c0,0.2,0,0.5,0,0.7c0,0.1,0,0.2,0,0.3
			c0,0,0,0.1,0,0.1l0,0.1c0,0.2,0,0.4,0,0.6c0,0.4,0,0.8-0.1,1.2c0,0.4,0,0.8,0,1.2c0,0.2,0,0.4,0,0.6c0,0.2,0,0.4,0,0.6
			c0-0.2,0-0.4,0-0.6c0-0.2,0-0.4,0-0.6c0-0.4,0-0.8,0-1.2c0-0.4,0-0.8,0.1-1.2c0-0.2,0-0.4,0-0.6l0-0.1c0,0,0-0.1,0-0.1
			c0-0.1,0-0.2,0-0.3c0-0.2,0-0.5,0-0.7c0-0.1,0-0.2,0-0.2c0.1-0.5-0.1-0.9-0.1-1.4c0-0.1,0-0.2,0-0.2c-0.1-0.7-0.1-1.4-0.2-2.1
			c-0.1-0.6-0.1-1.2-0.2-1.9c0-0.1,0-0.2,0-0.2c-0.1-0.8-0.2-1.6-0.3-2.4c0-0.1,0-0.1,0-0.2c0-0.3,0-0.6,0-0.9c0-0.1,0-0.2,0-0.2
			c0.1-0.5-0.1-0.9-0.1-1.4c0-0.1,0-0.2,0-0.2C23.1,37.4,23.1,36.8,23,36.2L23,36.2z"/>
	</g>
	<g>
		<path class="st5" d="M23.2,36.4c0.6,0.2,1.1,0.2,1.7,0.4c0.1,0,0.3,0.1,0.5,0.1c0.5,0.2,1,0.3,1.5,0.3c0.1,0,0.1,0,0.2,0
			c0.2,0,0.3,0.1,0.5,0.1c0.1,0,0.2,0,0.2,0c0.2,0,0.5,0.1,0.7,0.1c0.1,0,0.2,0,0.2,0c0.4-0.1,0.9,0.1,1.3,0c0.1,0,0.2,0,0.2,0
			c0.3,0,0.5,0,0.7,0.1c0.7,0.1,1.3,0.2,2,0.3c0.2,0,0.3,0.1,0.5,0.1c0.1,0,0.1,0,0.2,0.1c0.7,0.2,1.3,0.6,2.1,0.5
			c0.6,0,1.2,0.1,1.9,0.3c0.1,0,0.2,0,0.2,0c0.3,0,0.7,0.1,1,0.1c-0.3,0-0.7-0.1-1-0.1c-0.1,0-0.2,0-0.2,0c-1.3-0.5-2.7,0-4-0.8
			c-0.1,0-0.1,0-0.2,0c-0.2,0-0.3-0.1-0.5-0.1c-0.6-0.2-1.3-0.3-2-0.3c-0.2,0-0.5,0-0.7-0.1c-0.1,0-0.2,0-0.3,0c-0.3,0.1-0.7,0-1,0
			c-0.1,0-0.2,0-0.3,0c-0.4,0-0.9,0-1.3-0.1c-0.1,0-0.1,0-0.2,0c-0.1,0-0.1,0-0.2,0c-0.6-0.1-1.2-0.1-1.8-0.3
			c-0.1,0-0.3-0.1-0.4-0.2c-0.6-0.1-1.1-0.2-1.7-0.4L23.2,36.4z"/>
	</g>
	<g>
		<path class="st5" d="M23.1,36.2c0.3,0.5,0.5,1.1,0.9,1.6c0,0.1,0.1,0.1,0.2,0.2c0.6,0.4,0.8,1.2,1.2,1.8c0,0.1,0.1,0.1,0.1,0.2
			c0.3,0.6,0.7,1.1,1.1,1.6c0,0.1,0.1,0.1,0.1,0.2c0.5,0.7,1.1,1.3,1.4,2.1c0,0.1,0.1,0.2,0.1,0.2c0.1,0.2,0.3,0.5,0.4,0.7
			c0.1,0.1,0.1,0.2,0.2,0.2c0.3,0.4,0.6,0.7,0.8,1.1c0,0.1,0.1,0.1,0.1,0.2c0.4,1.1,1.1,2.1,1.6,3.3c0,0.1,0.1,0.2,0.1,0.3
			c0.2,0.4,0.4,0.9,0.6,1.3l0.7,1.6l0.2,0.4c0.1,0.1,0.1,0.3,0.2,0.4c0.1,0.3,0.2,0.5,0.3,0.8c0.4,1.1,0.2-0.4,0.5,0.8
			c0.3,1,0.6,2.1,1,3.4c-0.4-1.4-0.7-2.4-1-3.4c-0.3-1.1-0.1,0.4-0.5-0.8c-0.1-0.3-0.2-0.6-0.3-0.8c-0.1-0.1-0.1-0.3-0.2-0.4
			l-0.2-0.4L32,51.3c-0.2-0.4-0.4-0.9-0.6-1.3c0-0.1-0.1-0.2-0.1-0.3c-0.3-1.1-1.1-2-1.5-3.2c0-0.1-0.1-0.2-0.1-0.3
			c-0.2-0.4-0.5-0.8-0.8-1.2c-0.1-0.1-0.1-0.2-0.2-0.2c-0.1-0.2-0.3-0.5-0.4-0.7c0-0.1-0.1-0.1-0.1-0.2c-0.3-0.7-0.9-1.4-1.4-2.1
			c0,0-0.1-0.1-0.1-0.1c-0.1-0.2-0.2-0.3-0.3-0.5c0-0.1-0.1-0.1-0.1-0.2c-0.2-0.3-0.4-0.7-0.7-1c0-0.1-0.1-0.2-0.1-0.2
			c-0.4-0.7-0.9-1.2-1.2-1.9c0-0.1-0.1-0.2-0.1-0.2c-0.3-0.5-0.8-0.9-0.9-1.4L23.1,36.2z"/>
	</g>
	<g>
		
			<linearGradient id="SVGID_4_" gradientUnits="userSpaceOnUse" x1="30.9405" y1="14.6592" x2="51.66" y2="18.8216" gradientTransform="matrix(0.9617 0.2743 -0.2743 0.9617 -2.6271 14.0638)">
			<stop  offset="0" style="stop-color:#D6D4D4"/>
			<stop  offset="0.4242" style="stop-color:#848383"/>
			<stop  offset="0.697" style="stop-color:#C2C0C0"/>
			<stop  offset="1" style="stop-color:#FFFFFF"/>
		</linearGradient>
		<path class="st6" d="M23.1,36.3c0.4,0.3,1,0.4,1.6,0.8c0.1,0.1,0.2,0.1,0.3,0.2c0.2,0.1,0.4,0.3,0.6,0.4c0.1,0.1,0.3,0.2,0.5,0.2
			c0.6,0.3,1.3,0.5,1.9,0.9c0.1,0.1,0.3,0.2,0.4,0.2c0.3,0.2,0.5,0.3,0.8,0.5c0.1,0,0.2,0.1,0.2,0.2c0.7,0.5,1.6,0.8,2.3,1.4
			c0.1,0,0.1,0.2,0.2,0.2c0.1,0,0.2,0.1,0.2,0.1c0.1,0.1,0.2,0.1,0.2,0.1c0.2,0.1,0.4,0.2,0.6,0.4c0.1,0,0.1,0.1,0.2,0.1
			c0.8,0.4,1.6,0.7,2.2,1.1c0.1,0,0.2,0.1,0.2,0.1c0.2,0.1,0.5,0.2,0.7,0.2c0.9,0.3,0.3-0.1,1.2,0.4c0.4,0.2,0.7,0.5,1.1,0.7
			l0.3,0.2c0.1,0.1,0.2,0.1,0.3,0.2c0.2,0.1-0.1,0.1,0.2,0.2c0.9,0.4,1.8,0.8,2.8,1.2c-0.9-0.4-1.8-0.8-2.8-1.2
			c-0.2-0.1,0.1-0.1-0.2-0.2c-0.1-0.1-0.2-0.1-0.3-0.2l-0.3-0.2c-0.4-0.3-0.7-0.5-1.1-0.7c-0.9-0.5-0.2-0.1-1.2-0.4
			c-0.2-0.1-0.5-0.2-0.7-0.2c-0.1,0-0.2-0.1-0.2-0.1c-0.7-0.4-1.5-0.8-2.3-1.2c-0.1,0-0.1-0.1-0.2-0.1c-0.1-0.1-0.2-0.1-0.3-0.2
			c-0.1,0-0.2-0.1-0.2-0.1c-0.1-0.1-0.3-0.2-0.4-0.3c-0.1-0.1-0.1-0.1-0.2-0.2c-0.8-0.6-1.5-1-2.3-1.4c-0.1,0-0.2-0.1-0.2-0.2
			c-0.3-0.1-0.5-0.3-0.8-0.5c-0.1-0.1-0.3-0.1-0.4-0.2c-0.6-0.5-1.4-0.6-2-1c-0.1-0.1-0.3-0.1-0.4-0.2c-0.2-0.1-0.4-0.2-0.6-0.4
			c-0.1-0.1-0.2-0.1-0.3-0.2c-0.5-0.3-1.2-0.4-1.6-0.8L23.1,36.3z"/>
	</g>
	<g class="st7">
		<path class="st5" d="M23.1,35.9c0,0,0-0.1-0.1-0.1c0,0,0-0.1-0.1-0.1c0,0,0-0.1-0.1-0.1c0,0,0,0,0-0.1c0,0-0.1-0.1-0.1-0.1
			c0,0-0.1-0.1-0.1-0.1c-0.1-0.1-0.2-0.2-0.2-0.4c0,0,0-0.1,0-0.1c0,0,0,0,0-0.1c0,0,0,0,0,0c0,0,0,0,0,0c0,0-0.1-0.1-0.1-0.2
			c0,0,0,0,0-0.1c0,0,0,0,0-0.1c-0.2-0.1-0.3-0.3-0.4-0.5c0,0,0,0,0,0c-0.1-0.1-0.2-0.2-0.2-0.3c0-0.1-0.1-0.1-0.1-0.2
			c0,0,0,0,0-0.1c0,0,0-0.1,0-0.1c-0.1-0.2-0.2-0.4-0.3-0.7c0,0,0-0.1,0-0.1c0,0,0-0.1,0-0.1c0,0,0-0.1,0-0.1
			c-0.1-0.1-0.1-0.3-0.2-0.4c0,0,0-0.1,0-0.1c0,0,0,0,0-0.1c0,0,0,0,0-0.1c0,0,0,0,0-0.1c-0.1-0.2-0.2-0.4-0.3-0.6c0,0,0,0,0-0.1
			c0,0,0,0,0-0.1c0,0,0,0,0-0.1c-0.1-0.2-0.2-0.5-0.3-0.8c0.1,0.3,0.2,0.5,0.3,0.7c0,0,0,0,0,0.1c0,0,0,0,0,0.1c0,0,0,0,0,0.1
			c0.1,0.2,0.2,0.3,0.3,0.6c0,0,0,0.1,0,0.1c0,0,0,0,0,0.1c0,0,0,0,0,0.1c0,0,0,0.1,0,0.1c0,0.1,0.1,0.2,0.1,0.4c0,0,0,0,0,0.1
			c0,0,0,0.1,0,0.1c0,0,0,0.1,0,0.1c0.1,0.3,0.3,0.4,0.3,0.7c0,0,0,0,0,0.1c0,0,0,0,0,0.1c0,0.1,0.1,0.1,0.1,0.2
			c0.1,0.1,0.1,0.2,0.2,0.3c0,0,0,0,0,0c0.1,0.2,0.2,0.4,0.4,0.5c0,0,0,0,0,0c0,0,0.1,0.1,0.1,0.1c0,0,0,0,0,0.1
			c0,0.1,0.1,0.1,0.2,0.2c0,0,0,0,0,0.1c0.1,0.3,0.3,0.5,0.5,0.7c0,0,0,0,0,0c0,0,0,0.1,0.1,0.1C23.1,35.8,23.1,35.8,23.1,35.9
			L23.1,35.9z"/>
	</g>
	<g class="st7">
		<path class="st5" d="M27.3,33.4c0.1,0,0.1-0.1,0.2-0.1c0,0,0-0.1,0.1-0.1c0.2-0.2,0.2-0.5,0.3-0.7c0,0,0,0,0-0.1
			c0-0.1,0.1-0.1,0.1-0.2c0-0.1,0.1-0.1,0.1-0.2c0-0.1,0.1-0.1,0.1-0.2c0,0,0-0.1,0-0.1c0,0,0-0.1,0-0.1c0.2-0.3,0.5-0.4,0.7-0.7
			c0,0,0,0,0.1-0.1c0.1-0.1,0.3-0.3,0.4-0.4c0,0,0.1,0,0.1-0.1c0.4-0.3,0.7-0.7,1.1-1c0,0,0.1,0,0.1-0.1c0.1-0.1,0.2-0.1,0.2-0.1
			c0,0,0.1-0.1,0.1-0.1c0,0,0-0.1,0.1-0.1c0,0,0,0,0.1,0c0.1-0.1,0.2-0.2,0.4-0.3c0.2-0.2,0.5-0.4,0.7-0.6c-0.2,0.2-0.5,0.4-0.7,0.6
			c-0.1,0.1-0.2,0.2-0.4,0.3c0,0,0,0-0.1,0c0,0,0,0.1-0.1,0.1c0,0-0.1,0.1-0.1,0.1c-0.1,0.1-0.2,0.1-0.2,0.2c0,0-0.1,0-0.1,0.1
			c-0.4,0.3-0.7,0.8-1.1,1c0,0-0.1,0-0.1,0.1c-0.1,0.1-0.3,0.2-0.4,0.4c0,0,0,0-0.1,0.1c-0.2,0.3-0.5,0.4-0.7,0.7c0,0,0,0.1,0,0.1
			c0,0,0,0.1,0,0.1c0,0.1-0.1,0.1-0.1,0.2c0,0.1-0.1,0.1-0.1,0.2c0,0.1-0.1,0.1-0.1,0.2c0,0,0,0,0,0.1c-0.1,0.3-0.2,0.5-0.4,0.8
			c0,0-0.1,0.1-0.1,0.1C27.4,33.4,27.3,33.4,27.3,33.4L27.3,33.4z"/>
	</g>
	<g class="st7">
		<path class="st2" d="M28,34.2c0,0,0.1,0,0.1,0c0,0,0,0,0.1,0c0.3,0.1,0.7,0.1,1.1,0.1c0,0,0.1,0,0.1,0c0.1,0,0.2,0,0.3,0
			c0,0,0.1,0,0.1,0c0,0,0.1,0,0.1,0c0.4,0.1,0.7,0.2,1.1,0.3c0,0,0.1,0,0.1,0c0.1,0,0.2,0.1,0.3,0.2c0,0,0.1,0,0.1,0
			c0.2,0.1,0.4,0.2,0.6,0.2c0,0,0.1,0,0.1,0c0.1,0,0.3,0.1,0.4,0.1c0,0,0.1,0,0.1,0c0.1,0.1,0.3,0.1,0.4,0.1c0,0,0.1,0,0.1,0
			c0.3,0.2,0.6,0.4,0.9,0.6c0,0,0,0.1,0.1,0.1c0.1,0.1,0.1,0.2,0.2,0.3c-0.1-0.1-0.1-0.2-0.2-0.3c0,0,0-0.1-0.1-0.1
			c-0.3-0.3-0.6-0.4-0.9-0.6c0,0-0.1,0-0.1,0c-0.1-0.1-0.3-0.1-0.4-0.1c0,0-0.1,0-0.1,0c-0.1,0-0.3,0-0.4-0.1c0,0-0.1,0-0.1,0
			c-0.2-0.1-0.4-0.2-0.6-0.3c0,0-0.1,0-0.1,0c-0.1,0-0.2-0.1-0.3-0.1c0,0-0.1,0-0.1,0c-0.3-0.1-0.7-0.2-1-0.3c0,0-0.1,0-0.1,0
			c0,0-0.1,0-0.1,0c-0.1,0-0.1,0-0.2,0c0,0-0.1,0-0.1,0c-0.4,0-0.8-0.1-1.2-0.1c0,0,0,0-0.1,0C28.1,34.3,28.1,34.3,28,34.2L28,34.2z
			"/>
	</g>
	<g class="st7">
		
			<linearGradient id="SVGID_5_" gradientUnits="userSpaceOnUse" x1="39.1938" y1="-50.4947" x2="42.2459" y2="-50.4947" gradientTransform="matrix(0.5261 0.8504 -0.8504 0.5261 -46.8576 37.003)">
			<stop  offset="0" style="stop-color:#FFFFFF"/>
			<stop  offset="0.303" style="stop-color:#C2C0C0"/>
			<stop  offset="0.5758" style="stop-color:#848383"/>
			<stop  offset="1" style="stop-color:#D6D4D4"/>
		</linearGradient>
		<path class="st8" d="M20.1,41.7c-0.1,0.2-0.2,0.4-0.4,0.6c0,0,0,0.1-0.1,0.1c-0.2,0.3-0.4,0.4-0.5,0.7c0,0,0,0.1-0.1,0.1
			c-0.1,0.1-0.1,0.2-0.2,0.3c0,0,0,0-0.1,0.1c-0.2,0.3-0.4,0.6-0.6,0.9c0,0,0,0.1-0.1,0.1c-0.2,0.2-0.3,0.5-0.5,0.7
			c-0.2,0.3-0.4,0.5-0.6,0.8c0,0,0,0.1-0.1,0.1c-0.1,0.2-0.3,0.4-0.4,0.5c0,0,0,0.1-0.1,0.1c-0.1,0.1-0.1,0.2-0.2,0.3
			c0,0-0.1,0.1-0.1,0.1c0,0,0,0,0,0l0,0c-0.1,0.1-0.1,0.1-0.2,0.2c-0.1,0.1-0.2,0.3-0.4,0.4c-0.1,0.1-0.2,0.3-0.4,0.4
			c-0.1,0.1-0.1,0.1-0.2,0.2c-0.1,0.1-0.1,0.1-0.2,0.2c0-0.1,0.1-0.1,0.2-0.2c0.1-0.1,0.1-0.1,0.2-0.2c0.1-0.1,0.2-0.3,0.4-0.4
			c0.1-0.1,0.2-0.3,0.4-0.4c0.1-0.1,0.1-0.1,0.2-0.2l0,0c0,0,0,0,0,0c0,0,0.1-0.1,0.1-0.1c0.1-0.1,0.1-0.2,0.2-0.3
			c0,0,0-0.1,0.1-0.1c0.2-0.1,0.3-0.4,0.4-0.5c0,0,0-0.1,0.1-0.1c0.2-0.3,0.4-0.5,0.6-0.8c0.2-0.2,0.3-0.5,0.5-0.7
			c0,0,0-0.1,0.1-0.1c0.2-0.3,0.4-0.6,0.6-0.9c0,0,0,0,0.1-0.1c0.1-0.1,0.2-0.2,0.3-0.3c0,0,0-0.1,0.1-0.1c0.2-0.1,0.3-0.3,0.4-0.5
			c0,0,0-0.1,0.1-0.1C19.8,42.2,20,42,20.1,41.7L20.1,41.7z"/>
	</g>
	<g class="st7">
		<path class="st5" d="M28.8,44.9c0,0.2-0.1,0.4-0.1,0.5c0,0,0,0.1,0,0.1c0,0.2,0,0.4-0.1,0.6c0,0,0,0,0,0.1c0,0.2,0,0.4,0,0.6
			c0,0,0,0,0,0.1c0,0.2,0,0.5-0.1,0.8c0,0,0,0.1,0,0.1c0,0.1,0,0.2,0,0.2c0,0,0,0.1,0,0.1c0,0.1,0,0.3,0,0.4c0,0,0,0.1,0,0.1
			c-0.1,0.4-0.1,0.7-0.3,1.1c0,0,0,0.1,0,0.1c0,0.1-0.1,0.3-0.1,0.4l-0.1,0.5l0,0.1c0,0,0,0.1,0,0.1c0,0.1-0.1,0.2-0.1,0.3
			c-0.1,0.4-0.2,0.7-0.4,1.1c-0.1,0.4-0.3,0.7-0.4,1.1c0.1-0.4,0.3-0.7,0.4-1.1c0.1-0.4,0.3-0.7,0.4-1.1c0-0.1,0.1-0.2,0.1-0.3
			c0,0,0-0.1,0-0.1l0-0.1l0.1-0.5c0-0.1,0.1-0.3,0.1-0.4c0,0,0-0.1,0-0.1c0.1-0.3,0.1-0.7,0.2-1.1c0,0,0-0.1,0-0.1
			c0-0.1,0-0.3,0-0.4c0,0,0-0.1,0-0.1c0-0.1,0-0.2,0-0.2c0,0,0-0.1,0-0.1c0.1-0.2,0-0.5,0.1-0.8c0,0,0,0,0-0.1c0-0.1,0-0.1,0-0.2
			c0,0,0,0,0-0.1c0-0.1,0-0.2,0-0.4c0,0,0-0.1,0-0.1c0-0.2,0-0.4,0.1-0.7c0,0,0-0.1,0-0.1C28.7,45.2,28.7,45,28.8,44.9L28.8,44.9z"
			/>
	</g>
	<g class="st7">
		
			<linearGradient id="SVGID_6_" gradientUnits="userSpaceOnUse" x1="183.049" y1="-58.899" x2="193.3505" y2="-56.8295" gradientTransform="matrix(0.196 0.3169 -0.8504 0.5261 -62.5957 12.2215)">
			<stop  offset="0" style="stop-color:#D6D4D4"/>
			<stop  offset="0.4242" style="stop-color:#848383"/>
			<stop  offset="0.697" style="stop-color:#C2C0C0"/>
			<stop  offset="1" style="stop-color:#FFFFFF"/>
		</linearGradient>
		<path class="st9" d="M23.4,39.2c0,0.1,0.1,0.2,0,0.3c0,0,0,0.1,0,0.1c0,0,0,0.1,0,0.1c0,0,0,0.1,0,0.1c0,0.1,0.1,0.2,0.1,0.4
			c0,0,0,0.1,0,0.1c0,0.1,0,0.1,0,0.2c0,0,0,0,0,0.1c0,0.2,0.1,0.3,0,0.5c0,0,0,0.1,0,0.1c0,0,0,0,0,0.1c0,0,0,0,0,0.1
			c0,0,0,0.1,0,0.1c0,0,0,0,0,0c0,0.2,0.1,0.3,0,0.5c0,0,0,0,0,0c0,0,0,0.1,0,0.1c0.1,0.2,0.1,0.3,0.1,0.5c0,0.1,0,0.2,0,0.3l0,0.1
			c0,0,0,0.1,0,0.1c0,0,0,0.1,0,0.1c0,0.2,0.1,0.3,0.1,0.5c0-0.2-0.1-0.3-0.1-0.5c0,0,0-0.1,0-0.1c0,0,0,0,0-0.1l0-0.1
			c0-0.1,0-0.2,0-0.3c0-0.2,0-0.4-0.1-0.5c0,0,0-0.1-0.1-0.1c0,0,0,0,0,0c0-0.1,0-0.3,0-0.5c0,0,0,0,0,0c0,0,0,0,0-0.1
			c0,0,0,0,0-0.1c0,0,0-0.1,0-0.1c0,0,0,0,0-0.1c0-0.2,0-0.4,0-0.5c0,0,0,0,0-0.1c0,0,0-0.1,0-0.2c0,0,0-0.1,0-0.1
			c0-0.2-0.1-0.3-0.1-0.4c0,0,0-0.1,0-0.1c0,0,0-0.1,0-0.1c0,0,0,0,0-0.1C23.4,39.4,23.3,39.3,23.4,39.2L23.4,39.2z"/>
	</g>
	<g>
		<path class="st5" d="M17.2,40.3c0,0,0-0.1-0.1-0.3c0-0.1,0-0.2-0.1-0.3c0-0.1-0.1-0.2-0.1-0.2c0-0.4-0.2-0.7-0.3-1
			c0-0.1,0-0.2,0-0.3c0-0.4,0-0.7,0.1-1.1c0-0.1,0-0.2,0-0.3c0.2-0.5,0-1.2,0.5-1.7c-0.2,0.5-0.2,1.2-0.4,1.7c0,0.1,0,0.2,0,0.3
			c-0.1,0.6-0.1,1.1,0,1.6c0,0.1,0,0.2,0.1,0.2c0,0.1,0,0.2,0.1,0.2c0,0.1,0.1,0.2,0.1,0.2c0,0.1,0.1,0.2,0.1,0.2c0,0.1,0,0.1,0,0.2
			C17.2,40.1,17.2,40.3,17.2,40.3L17.2,40.3z"/>
	</g>
	<g>
		
			<linearGradient id="SVGID_7_" gradientUnits="userSpaceOnUse" x1="27.5106" y1="18.0522" x2="31.5997" y2="18.8769" gradientTransform="matrix(0.9617 0.2743 -0.2743 0.9617 -2.6271 14.0638)">
			<stop  offset="0" style="stop-color:#FFFFFF"/>
			<stop  offset="0.5636" style="stop-color:#706F6F"/>
			<stop  offset="1" style="stop-color:#FFFFFF"/>
		</linearGradient>
		<path class="st10" d="M21.7,40.6c-0.8-0.3-1.5-1.1-2.3-1.4c-0.1,0-0.1,0-0.2-0.1c-0.2-0.1-0.4-0.1-0.4-0.1l0-0.1
			c0,0,0.2,0.1,0.4,0.1c0.1,0,0.1,0,0.2,0.1C20.2,39.4,20.9,40.3,21.7,40.6L21.7,40.6z"/>
	</g>
	<g>
		<path class="st5" d="M17.8,35.2c0.2-0.8,0.3-1.9,1.2-2.2c0.1,0,0.1-0.1,0.2-0.2c0.1-0.1,0.1-0.1,0.2-0.2c0.6-0.5,1.4-0.9,2-1.5
			c0.1,0,0.1-0.1,0.2-0.1c0.1,0,0.1-0.1,0.2-0.1c0.6-0.4,1.2-0.4,1.8-0.2c0.1,0,0.2,0,0.2,0.1c0.6,0.3,1.3,0.5,1.9,1
			c0.1,0.1,0.1,0.1,0.2,0.2C25.9,32,26,32,26,32.1c0.5,0.5,1,1.1,1.5,1.6c0.1,0.1,0.1,0.1,0.1,0.2c0,0,0.1,0.1,0.1,0.1
			c0.1,0.2,0.3,0.3,0.4,0.5c0.2,0.2,0.3,0.5,0.5,0.7c0,0.1,0.1,0.1,0.1,0.2c0.3,0.8,1,1.4,1.3,2.2c0,0.1,0,0.1,0,0.2
			c0,0.1-0.1,0.3-0.1,0.3c0,0.4,0.2,0.6,0.2,0.9c0,0.1-0.1,0.1-0.1,0.2c-0.3,0.9-1,1.4-1.1,2.3c0,0.1-0.1,0.1-0.1,0.2
			c-0.2,0.3-0.5,0.5-0.8,0.6c0.3-0.1,0.6-0.3,0.8-0.6c0-0.1,0.1-0.1,0.1-0.2c0.2-0.9,0.7-1.4,1.1-2.3c0-0.1,0.1-0.1,0.1-0.2
			c0-0.4-0.2-0.6-0.2-0.9c0-0.1,0.1-0.3,0.1-0.3c0-0.1,0-0.1,0-0.2c-0.2-0.8-0.9-1.4-1.3-2.2c0-0.1-0.1-0.1-0.1-0.2
			c-0.2-0.2-0.3-0.5-0.5-0.7c-0.1-0.2-0.3-0.3-0.4-0.5c0,0,0,0-0.1-0.1c0,0-0.1-0.1-0.2-0.2c-0.3-0.5-0.9-0.9-1.3-1.4
			c-0.1-0.1-0.1-0.1-0.2-0.2c-0.1-0.1-0.1-0.1-0.2-0.2c-0.1-0.1-0.1-0.1-0.2-0.2c-0.5-0.5-1.2-0.6-1.8-0.9c-0.1,0-0.2-0.1-0.2-0.1
			c-0.6-0.2-1.3-0.3-1.8,0.2c-0.1,0-0.1,0.1-0.2,0.1c-0.1,0-0.1,0.1-0.2,0.1c-0.6,0.6-1.4,1.1-2,1.5c-0.1,0.1-0.1,0.1-0.2,0.2
			c-0.1,0-0.2,0.1-0.2,0.1C18.3,33.6,18,34.4,17.8,35.2L17.8,35.2z"/>
	</g>
	<g>
		
			<linearGradient id="SVGID_8_" gradientUnits="userSpaceOnUse" x1="25.5869" y1="13.6718" x2="38.3146" y2="13.6718" gradientTransform="matrix(0.9617 0.2743 -0.2743 0.9617 -2.6271 14.0638)">
			<stop  offset="0" style="stop-color:#FFFFFF"/>
			<stop  offset="0.1074" style="stop-color:#BBBBBB"/>
			<stop  offset="0.215" style="stop-color:#7E7E7E"/>
			<stop  offset="0.3065" style="stop-color:#515151"/>
			<stop  offset="0.3771" style="stop-color:#353535"/>
			<stop  offset="0.4182" style="stop-color:#2B2B2B"/>
			<stop  offset="0.4852" style="stop-color:#303030"/>
			<stop  offset="0.5652" style="stop-color:#3F3F3F"/>
			<stop  offset="0.6519" style="stop-color:#575757"/>
			<stop  offset="0.7433" style="stop-color:#787878"/>
			<stop  offset="0.8385" style="stop-color:#A4A4A4"/>
			<stop  offset="0.9353" style="stop-color:#D8D8D8"/>
			<stop  offset="1" style="stop-color:#FFFFFF"/>
		</linearGradient>
		<path class="st11" d="M17.9,35.2c0.2-0.8,0.5-1.8,1.1-2.2c0.1,0,0.3-0.1,0.4-0.1c0.1-0.1,0.6-0.3,0.6-0.3c0.6-0.5,1-0.6,1.5-1.1
			c0.1,0,0.1-0.1,0.2-0.1c0.1,0,0.3-0.3,0.3-0.4c0.6-0.3,1.2-0.3,1.8-0.1c0.1,0,0.1,0,0.2,0.1c0.6,0.3,1.1,0.6,1.6,1.1
			c0.1,0.1,0.1,0.1,0.2,0.2c0.1,0.1,0.1,0.1,0.2,0.2c0.5,0.4,1.1,1,1.5,1.5c0.1,0.1,0.1,0.1,0.1,0.2c0,0,0.1,0.1,0.1,0.1
			c0.1,0.2,0.2,0.3,0.3,0.4c0.2,0.2,0.4,0.4,0.6,0.6c0,0.1,0.1,0.1,0.1,0.2c0.3,0.8,0.9,1.4,1.1,2.2c0,0.1,0,0.1,0,0.2
			c0,0.1,0,0.1,0,0.2c0,0.3,0.2,0.9,0.3,1.2c0,0.1,0,0.1,0,0.2c-0.3,0.9-0.9,1.3-1,2.2c0,0.1-0.1,0.1-0.1,0.2
			c-0.2,0.3-0.5,0.4-0.8,0.6c0.2-0.1,0.6-0.3,0.8-0.6c0-0.1,0.1-0.1,0.1-0.2c0.2-0.9,0.6-1.4,1-2.2c0-0.1,0-0.1,0-0.2
			c0-0.4-0.2-0.9-0.3-1.2c0-0.1,0-0.1,0-0.2c0-0.1,0-0.1,0-0.2c-0.2-0.8-0.8-1.4-1.1-2.1c0-0.1-0.1-0.1-0.1-0.2
			c-0.2-0.2-0.4-0.4-0.6-0.6c-0.1-0.2-0.1-0.3-0.3-0.4c0,0,0,0-0.1-0.1c0,0-0.1-0.1-0.1-0.2c-0.3-0.5-0.7-0.8-1.1-1.2
			c-0.1-0.1-0.3-0.2-0.4-0.3c-0.1-0.1-0.1-0.1-0.2-0.2c-0.1-0.1-0.1-0.1-0.2-0.2c-0.5-0.5-1-0.8-1.5-1.1c-0.1,0-0.1,0-0.2-0.1
			c-0.6-0.2-1.3-0.3-1.8,0.1c-0.1,0-0.3,0.3-0.3,0.4c-0.1,0-0.1,0.1-0.2,0.1c-0.6,0.6-0.6,0.4-1.2,0.8c-0.1,0.1-0.9,0.6-0.9,0.7
			c-0.1,0-0.3,0-0.4,0.1C18.4,33.5,18.2,34.4,17.9,35.2L17.9,35.2z"/>
	</g>
	<g>
		<path class="st5" d="M21.7,50.4c0.7,0.2,1.2-0.1,1.9,0.1c0.1,0,0.1,0,0.2,0c0.1,0,0.2,0,0.3,0l0.1,0c0,0,0.1,0,0.1,0
			c0.1,0,0.2,0,0.3,0c1.9-0.4,3.8-0.7,5.5-1.5c0.1,0,0.2-0.1,0.2-0.1c0.1,0,0.2-0.1,0.2-0.1c1.2-1,2.1-2.2,3.1-3.3
			c0-0.1,0.1-0.1,0.1-0.2c0.2-0.2,0.4-0.4,0.6-0.6l0.7-0.8c0.2-0.3,0.2-0.3,0.7-0.8c-0.3,0.2-0.5,0.5-0.7,0.8l-0.7,0.8
			c-0.2,0.2-0.4,0.4-0.6,0.7c0,0.1-0.2,0.4-0.2,0.4c-1,1.1-1.9,2-3,3c-0.1,0-0.2,0.1-0.2,0.1c-0.1,0-0.2,0.1-0.2,0.1
			c-1.8,0.6-3.6,1-5.5,1.5c-0.1,0-0.2,0-0.3,0c0,0-0.1,0-0.1,0l-0.1,0c-0.1,0-0.2,0-0.3,0c-0.1,0-0.1,0-0.2,0
			C23,50.6,22.4,50.7,21.7,50.4L21.7,50.4z"/>
	</g>
	<g>
		
			<linearGradient id="SVGID_9_" gradientUnits="userSpaceOnUse" x1="35.497" y1="24.0469" x2="39.4206" y2="24.0469" gradientTransform="matrix(0.9617 0.2743 -0.2743 0.9617 -2.6271 14.0638)">
			<stop  offset="0" style="stop-color:#FFFFFF"/>
			<stop  offset="0.1074" style="stop-color:#BBBBBB"/>
			<stop  offset="0.215" style="stop-color:#7E7E7E"/>
			<stop  offset="0.3065" style="stop-color:#515151"/>
			<stop  offset="0.3771" style="stop-color:#353535"/>
			<stop  offset="0.4182" style="stop-color:#2B2B2B"/>
			<stop  offset="0.4852" style="stop-color:#303030"/>
			<stop  offset="0.5652" style="stop-color:#3F3F3F"/>
			<stop  offset="0.6519" style="stop-color:#575757"/>
			<stop  offset="0.7433" style="stop-color:#787878"/>
			<stop  offset="0.8385" style="stop-color:#A4A4A4"/>
			<stop  offset="0.9353" style="stop-color:#D8D8D8"/>
			<stop  offset="1" style="stop-color:#FFFFFF"/>
		</linearGradient>
		<path class="st12" d="M24.3,49.2c0.3-0.1,0.6-0.3,0.9-0.4c0.1,0,0.2-0.1,0.2-0.1c0.7-0.4,1.7-0.3,2.4-0.6c0.1,0,0.1-0.1,0.2-0.1
			c0.5-0.6,0.7-1.6,1.3-2.2c-0.4,0.8-0.6,1.6-1.3,2.3c-0.1,0.1-0.1,0.1-0.2,0.1c-0.8,0.4-1.8,0.2-2.6,0.7c-0.1,0-0.2,0.1-0.3,0.1
			c-0.2,0.1-0.4,0.1-0.5,0.2C24.3,49.2,24.3,49.2,24.3,49.2z"/>
	</g>
	<g>
		<path class="st5" d="M35.3,34.2c0.3,0.1,0.6,0.1,0.7,0.3c0.1,0,0.1,0.1,0.2,0.1c0.3,0.2,0.5,0.4,0.8,0.6c0.3,0.2,0.5,0.2,0.8,0.4
			c0.3,0.2,0.6,0.2,0.9,0.3c0.6,0.3,1.2,0.5,1.8,0.7c0.6,0.2,1.2,0.1,1.8,0.3c-0.6-0.2-1.2-0.1-1.8-0.3c-0.6-0.2-1.2-0.4-1.8-0.7
			c-0.3-0.1-0.6-0.1-0.9-0.3c-0.3-0.2-0.6-0.2-0.8-0.4c-0.3-0.2-0.5-0.4-0.8-0.6c-0.1,0-0.1-0.1-0.2-0.1
			C35.8,34.4,35.5,34.4,35.3,34.2L35.3,34.2z"/>
	</g>
	<g>
		<path class="st5" d="M34,42.6c0.5,0.1,1.1,0,1.6,0.1c0.1,0,0.1,0,0.2,0c0.3,0,0.6-0.1,0.9-0.1c0.3,0,0.6,0.1,0.9,0.1
			c0.1,0,0.3,0.1,0.4,0.1l0.4,0.1c0.3,0.1,0.6,0.2,0.8,0.3c0.6,0.2,1.1,0.3,1.7,0.5c-0.6-0.1-1.1-0.3-1.7-0.5
			c-0.3-0.1-0.6-0.2-0.9-0.3L38,42.9c-0.1,0-0.3-0.1-0.4-0.1c-0.3-0.1-0.6-0.1-0.9-0.1c-0.3,0-0.6,0-0.9,0.1c-0.1,0-0.1,0-0.2,0
			c-0.5,0-0.9,0-1.4,0L34,42.6z"/>
	</g>
	<g>
		<path class="st5" d="M38.8,35.9c0.3,0.3,0.5,0.4,0.8,0.7l0.6,0.9c0.1,0.2,0.2,0.2,0.4,0.3c0,0,0.1-0.1,0.1,0c0,0,0.1,0.2,0.1,0.3
			c0.1,0.1,0.2-0.3,0.2-0.2c0.2,0.4,0.6,0.6,0.8,0.9c-0.2-0.4-0.6-0.6-0.8-0.9c-0.1-0.1-0.1,0.1-0.2,0.1c-0.1-0.1-0.1,0-0.2-0.1
			c-0.1-0.2-0.3-0.2-0.4-0.3l-0.6-0.9C39.3,36.3,39,36.3,38.8,35.9L38.8,35.9z"/>
	</g>
	<g>
		<path class="st5" d="M26.9,28.1c0.9,0.9,1.7,1.7,2.5,2.7c0.1,0.1,0.1,0.1,0.2,0.2c0.1,0.2,0.3,0.3,0.4,0.5c0,0.1,0.1,0.1,0.1,0.2
			c0.1,0.4,0.4,0.6,0.7,0.8c0,0,0.1,0.1,0.1,0.1c0,0,0.1,0.1,0.1,0.1c0,0.1,0.1,0.1,0.1,0.2c0.1,0.1,0.2,0.2,0.3,0.3
			c0,0.1,0.1,0.1,0.1,0.2c0,0.1,0.1,0.1,0.1,0.2c0,0.1,0.1,0.1,0.1,0.2c0.2,0.7,0.6,1.3,0.8,2c0,0.1,0,0.2,0.1,0.2
			c0.1,0.5,0.3,0.9,0.5,1.4c0,0.1,0,0.1,0,0.2c0,0.2,0.1,0.4,0.1,0.6c0,0,0,0.1,0,0.1c0,0,0,0,0,0.1c0,0,0,0,0,0
			c0,0.1-0.1,0.1-0.1,0.2c-0.1,0.1-0.1,0.2-0.2,0.4c-0.3,0.7-0.5,1.3-0.8,2c0,0.1-0.1,0.2-0.1,0.2c-0.1,0.1-0.1,0.1-0.2,0.2
			c-0.1,0.2-0.3,0.4-0.4,0.6c0,0.1-0.1,0.1-0.1,0.2c-0.2,0.4-0.2,0.8-0.3,1.2c0,0.1-0.1,0.1-0.1,0.2c0,0.1-0.1,0.1-0.1,0.2
			c-0.1,0.1-0.2,0.2-0.3,0.3c-0.2,0.2-0.4,0.3-0.7,0.4c-0.5,0.2-1,0.4-1.5,0.5c-0.5,0.1-1,0.3-1.5,0.4c-1,0.2-2,0.4-3.1,0.5
			c1-0.1,2.1-0.3,3.1-0.5c0.5-0.1,1-0.2,1.5-0.4c0.5-0.1,1-0.3,1.5-0.5c0.2-0.1,0.5-0.2,0.7-0.4c0.1-0.1,0.2-0.2,0.3-0.3
			c0,0,0.1-0.1,0.1-0.2c0-0.1,0.1-0.1,0.1-0.2c0.1-0.5,0.2-0.9,0.4-1.3c0-0.1,0.1-0.2,0.1-0.2c0.1-0.3,0.3-0.5,0.4-0.7
			c0.1-0.1,0.1-0.2,0.2-0.2c0-0.1,0.1-0.2,0.1-0.2c0.2-0.6,0.5-1.2,0.7-1.8c0.1-0.1,0.1-0.3,0.2-0.4c0-0.1,0.1-0.1,0.1-0.2
			c0-0.1,0-0.1,0-0.2c0-0.3-0.1-0.5-0.1-0.8c0-0.1,0-0.1-0.1-0.2c-0.2-0.4-0.3-0.8-0.4-1.2c0-0.1,0-0.2-0.1-0.2
			c-0.1-0.6-0.5-1.2-0.6-1.8c0-0.1-0.1-0.1-0.1-0.2c0-0.1-0.1-0.1-0.1-0.2c0-0.1-0.1-0.1-0.1-0.2c0-0.1-0.1-0.1-0.1-0.2
			c0-0.1-0.1-0.2-0.2-0.2c-0.2-0.2-0.3-0.3-0.4-0.5c0-0.1-0.1-0.1-0.1-0.2c-0.2-0.2-0.3-0.4-0.5-0.6c0-0.1-0.1-0.1-0.1-0.2
			c-0.1-0.2-0.3-0.3-0.4-0.5c-0.1-0.1-0.1-0.1-0.2-0.2C28.6,29.8,27.6,29.1,26.9,28.1L26.9,28.1z"/>
	</g>
	<g>
		<path class="st5" d="M23.3,46.4c-0.3,0-0.7-0.1-1-0.2c-0.3-0.1-0.7-0.2-1-0.3c-0.1,0-0.2,0-0.2-0.1c0,0-0.1,0-0.1,0
			c0,0-0.1,0-0.1,0c-0.1,0-0.2-0.1-0.2-0.1c-0.1,0-0.2-0.1-0.2-0.1c-0.4-0.2-0.7-0.4-1-0.7c-0.1,0-0.1-0.1-0.2-0.1
			c-0.6-0.5-1.1-1.2-1.7-1.8c0-0.1-0.1-0.1-0.1-0.2c0-0.1-0.1-0.1-0.1-0.2c-0.1-0.1-0.1-0.1-0.2-0.2c-0.1-0.1-0.1-0.1-0.2-0.2
			c-0.1-0.1-0.1-0.1-0.2-0.2c0.1,0,0.1,0.1,0.2,0.2c0.1,0.1,0.1,0.1,0.2,0.2c0.1,0.1,0.1,0.1,0.2,0.2c0,0.1,0.1,0.1,0.1,0.2
			c0,0.1,0.1,0.1,0.1,0.2c0.7,0.6,1.1,1.3,1.8,1.8c0.1,0,0.1,0.1,0.2,0.1c0.3,0.2,0.7,0.4,1,0.6c0.1,0,0.2,0.1,0.2,0.1
			c0.1,0,0.2,0.1,0.2,0.1c0,0,0.1,0,0.1,0c0,0,0.1,0,0.1,0c0.1,0,0.2,0,0.2,0.1c0.3,0.1,0.6,0.2,1,0.3
			C22.6,46.3,22.9,46.4,23.3,46.4z"/>
	</g>
	<g>
		<path class="st5" d="M22.2,45.7c-0.1,0-0.3,0-0.4,0c-0.1,0-0.3,0-0.4,0c0,0-0.1,0-0.1,0c0,0,0,0-0.1,0c0,0,0,0-0.1,0
			c0,0-0.1,0-0.1,0c0,0-0.1,0-0.1,0c-0.2-0.1-0.3-0.1-0.5-0.2c0,0-0.1,0-0.1,0c-0.3-0.1-0.5-0.4-0.8-0.6c0,0,0,0-0.1-0.1
			c0,0,0,0-0.1-0.1c0,0-0.1,0-0.1-0.1c0,0-0.1,0-0.1-0.1c0,0-0.1,0-0.1-0.1c0,0,0.1,0,0.1,0c0,0,0.1,0,0.1,0.1c0,0,0.1,0,0.1,0.1
			c0,0,0,0,0.1,0.1c0,0,0,0,0.1,0.1c0.3,0.2,0.5,0.4,0.8,0.6c0,0,0.1,0,0.1,0c0.2,0.1,0.3,0.1,0.4,0.2c0,0,0.1,0,0.1,0
			c0,0,0.1,0,0.1,0c0,0,0,0,0,0c0,0,0,0,0.1,0c0,0,0.1,0,0.1,0c0.1,0,0.3,0,0.4,0.1C21.9,45.7,22,45.7,22.2,45.7z"/>
	</g>
	<g>
		<path class="st5" d="M17.9,39.8c0.9,0.8,1.9,1.5,2.9,2.3c0.1,0.1,0.2,0.2,0.3,0.3c0.1,0,0.1,0.1,0.2,0.1c0.1,0,0.1,0.1,0.2,0.1
			c0.6,0.5,1.3,0,1.8-0.4c0.1,0,0.1-0.1,0.2-0.1c0.2-0.1,0.4-0.2,0.6-0.3c0.1,0,0.1,0,0.2,0c0.6-0.2,1.4,0,2.1-0.4
			c0.1,0,0.1-0.1,0.2-0.1c0.2-0.2,0.4-0.4,0.6-0.7c0-0.1,0.1-0.1,0.1-0.2c0.1-0.2,0.1-0.3,0.2-0.5c0.1-0.2,0.1-0.3,0.2-0.5
			c0.1-0.3,0.4-0.7,0.4-1c0.1-0.2,0.1-0.3,0.2-0.5c0-0.1,0-0.2,0-0.2c0-0.1,0-0.2,0-0.2l0,0c0,0,0-0.1-0.1-0.2
			c0-0.1-0.1-0.1-0.1-0.2c-0.1-0.8-0.6-1.4-1.1-2c0-0.1-0.1-0.1-0.1-0.2l-0.1-0.1c-0.7-0.5-1.4-1.1-2.1-1.6
			c-0.1-0.1-0.1-0.1-0.2-0.2c-0.1-0.1-0.1-0.1-0.2-0.2l0,0l0,0c0,0-0.4-0.4-0.7-0.6c0,0-0.1-0.1-0.1-0.1c-0.1-0.2-0.2-0.2-0.3-0.2
			c0.1,0,0.2,0.1,0.3,0.2c0,0,0.1,0.1,0.1,0.1c0.3,0.3,0.7,0.6,0.7,0.6l0,0c0,0,0.1,0.1,0.2,0.1c0.1,0,0.1,0.1,0.2,0.2
			c0.8,0.4,1.4,1.1,2.2,1.6l0.1,0.1l0,0l0,0l0,0c0,0,0,0,0,0c0,0.1,0.1,0.1,0.1,0.2c0.5,0.6,0.9,1.2,1.1,2c0,0.1,0.1,0.2,0.1,0.2
			c0.1,0.1,0.1,0.2,0.1,0.2l0,0l0,0c0,0.1,0,0.2,0,0.2c0,0.1,0,0.2,0,0.2c-0.1,0.2-0.1,0.4-0.2,0.6c0,0.3-0.3,0.7-0.4,1
			c-0.1,0.2-0.1,0.3-0.2,0.5c-0.1,0.2-0.1,0.3-0.2,0.5c0,0.1-0.1,0.1-0.1,0.2c-0.2,0.4-0.4,0.6-0.7,0.8c-0.1,0-0.1,0.1-0.2,0.1
			c-0.6,0.1-1.1,0.2-1.8,0.3c-0.1,0-0.2,0-0.3,0c-0.3,0-0.6,0.1-0.9,0.3c-0.1,0-0.1,0.1-0.2,0.1c-0.5,0.4-1.1,0.6-1.8,0.3
			c-0.1,0-0.1-0.1-0.2-0.1c-0.1,0-0.1-0.1-0.2-0.1c-0.1-0.1-0.2-0.2-0.3-0.3C19.8,41.4,18.8,40.6,17.9,39.8z"/>
	</g>
	<g>
		<path class="st1" d="M25.8,29.5c0,0.4,0.1,0.7,0.2,1c0,0.1,0,0.1,0,0.2c0.1,0.4,0.2,0.8,0.4,1.2c0,0.1,0.1,0.3,0.1,0.3
			c0.1,0.1,0.1,0,0.1,0.2c0,0.1,0.1,0.1,0.1,0.2c0,0.1,0.1,0.1,0.1,0.1c0,0,0.1,0.1,0.1,0.1c0,0,0,0.1,0,0.1C27,33,27,33,27,33.1
			c0,0,0,0,0,0c0,0,0,0,0.1,0.1c0,0,0.1,0.1,0.1,0.1c0.1,0.2,0.3,0.3,0.4,0.5c0.1,0.1,0.3,0.3,0.4,0.4c-0.1-0.1-0.3-0.3-0.4-0.4
			c-0.1-0.1-0.3-0.3-0.4-0.5c0,0-0.1-0.1-0.1-0.1c0,0,0,0,0,0c0,0,0,0-0.1-0.1C27,33,26.9,33,26.8,32.9c0,0,0-0.1-0.1-0.1
			c0,0,0-0.1-0.1-0.1c0,0-0.1-0.1-0.1-0.2c0-0.1-0.1-0.1-0.1-0.2c-0.1-0.2-0.2-0.3-0.3-0.5c0-0.1,0-0.2-0.1-0.3
			c-0.1-0.3-0.2-0.6-0.3-0.9c0-0.1,0-0.1,0-0.2C25.8,30.2,25.7,29.9,25.8,29.5C25.7,29.6,25.7,29.6,25.8,29.5z"/>
	</g>
	<g>
		<path class="st5" d="M30.1,31.7c0.7-0.3,1.3-0.7,2-1c0.1,0,0.1-0.1,0.2-0.1c0.3-0.1,0.5-0.3,0.8-0.4c0,0,0.1,0,0.1-0.1
			c0.8-0.3,1.6-0.1,2.5,0c0.1,0,0.1,0,0.2,0c0.3,0,0.6-0.1,0.9-0.1c0.2,0,0.3,0,0.5,0c0.1,0,0.2,0,0.3,0c0.1,0,0.2,0,0.3,0
			c-0.1,0-0.2,0-0.3,0c-0.1,0-0.2,0-0.3,0c-0.2,0-0.3,0-0.5,0c-0.3,0-0.6,0.1-0.9,0.1c-0.1,0-0.1,0-0.2,0c-0.8,0-1.7-0.4-2.4,0
			c0,0-0.1,0-0.1,0.1c-0.2,0.1-0.5,0.2-0.7,0.4c-0.1,0-0.1,0.1-0.2,0.1C31.6,31.1,30.8,31.4,30.1,31.7L30.1,31.7z"/>
	</g>
	<path class="st13" d="M25.7,29.7c0,0.1,0,0.4,0.1,0.6c0,0.2,0.1,0.3,0.1,0.6c0,0.2,0.1,0.5,0.2,0.7c0,0.1,0.1,0.2,0.1,0.3
		c0.1,0.2,0.1,0.4,0.1,0.4l-0.1,0c0,0-0.2-0.7-0.3-0.9c0,0,0-0.4-0.1-0.7c-0.1-0.3-0.1-0.6-0.2-0.7C25.6,29.9,25.6,29.8,25.7,29.7
		L25.7,29.7z"/>
	<path class="st2" d="M25.8,29.6c0,0.1,0.1,0.6,0.2,0.8c0.1,0.2,0.2,0.9,0.4,1.4c0,0-0.6-1.9-0.5-2.4L25.8,29.6z"/>
	<path class="st14" d="M25.6,30.4c0.1,0.2,0.2,0.6,0.1,0.7c0,0.1,0.1,0.4,0.1,0.5c0,0.1,0.2,0.5,0.2,0.5L26,32.1
		c0,0-0.2-0.4-0.2-0.5c0-0.1-0.1-0.6-0.1-0.7C25.7,30.8,25.6,30.4,25.6,30.4z"/>
	<g>
		<path class="st1" d="M33.1,46.4c0-0.4,0-0.7,0-1c0-0.1,0-0.1,0-0.2c0-0.4-0.1-0.9-0.2-1.3c0-0.1,0-0.3-0.1-0.3
			c0-0.1-0.1,0-0.1-0.2c0-0.1,0-0.1-0.1-0.2c0-0.1,0-0.1-0.1-0.2c0,0-0.1-0.1-0.1-0.1c0,0,0-0.1,0-0.1c-0.1-0.1-0.1-0.1-0.1-0.2
			c0,0,0,0,0-0.1c0,0,0,0,0-0.1c0,0-0.1-0.1-0.1-0.1c-0.1-0.2-0.2-0.3-0.4-0.5c-0.1-0.2-0.3-0.3-0.4-0.4c0.1,0.1,0.3,0.3,0.4,0.4
			c0.1,0.2,0.2,0.3,0.4,0.5c0,0,0.1,0.1,0.1,0.1c0,0,0,0,0,0.1c0,0,0,0,0,0.1c0.1,0.1,0.1,0.2,0.2,0.3c0,0,0,0.1,0,0.1
			c0,0,0,0.1,0,0.1c0,0.1,0,0.1,0.1,0.2c0,0.1,0,0.1,0.1,0.2c0.1,0.2,0.2,0.3,0.3,0.6c0,0.1,0,0.3,0,0.3c0.1,0.3,0.1,0.6,0.1,0.9
			c0,0.1,0,0.1,0,0.2C33.1,45.7,33.2,46,33.1,46.4C33.2,46.3,33.2,46.3,33.1,46.4z"/>
	</g>
	<path class="st13" d="M34,45.2c0-0.1,0-0.4,0-0.6c0-0.2,0-0.3,0-0.6c0-0.2,0-0.5-0.1-0.7c0-0.1,0-0.2-0.1-0.3
		c0-0.2-0.1-0.4-0.1-0.4l0,0c0,0,0.1,0.7,0.2,0.9c0,0,0,0.4,0,0.7c0,0.3,0.1,0.6,0.1,0.8C34,45.1,34,45.1,34,45.2L34,45.2z"/>
	<g>
		<g>
			<path class="st1" d="M21.7,50c-0.2-0.2-0.4-0.3-0.7-0.4c0,0-0.1,0-0.1-0.1c-0.3-0.1-0.6-0.3-0.9-0.4c0,0-0.2-0.1-0.2-0.1
				c-0.1,0-0.1,0-0.2,0c0,0-0.1,0-0.1,0c0,0-0.1,0-0.1,0c0,0-0.1,0-0.2,0c0,0-0.1-0.1-0.1-0.1c-0.1,0-0.1,0-0.2,0c0,0,0,0-0.1,0
				c0,0,0,0-0.1,0c0,0-0.1,0-0.1,0c-0.2,0-0.3,0-0.5,0.1c-0.2,0-0.3,0.1-0.5,0.1c0.1,0,0.3-0.1,0.5-0.1c0.2,0,0.3,0,0.5-0.1
				c0,0,0.1,0,0.1,0c0,0,0,0,0.1,0c0,0,0,0,0.1,0c0.1,0,0.2,0,0.2,0c0,0,0.1,0,0.1,0c0,0,0.1,0,0.1,0c0,0,0.1,0,0.1,0
				c0,0,0.1,0,0.1,0c0.2,0,0.3,0,0.5,0c0,0,0.2,0.1,0.2,0.1c0.2,0.1,0.4,0.2,0.7,0.3c0,0,0.1,0,0.1,0.1C21.3,49.7,21.5,49.8,21.7,50
				C21.7,50,21.7,49.9,21.7,50z"/>
		</g>
		<path class="st2" d="M21.7,50c-0.1,0-0.4-0.2-0.6-0.3c-0.2-0.1-0.7-0.3-1-0.4c0,0,1.4,0.6,1.6,0.9L21.7,50z"/>
	</g>
	<g>
		<g>
			<path class="st1" d="M32.2,51.8c-0.2,0-0.3,0-0.4,0c0,0-0.1,0-0.1,0c-0.2,0-0.4,0.1-0.5,0.1c0,0-0.1,0-0.1,0c-0.1,0,0,0-0.1,0.1
				c0,0,0,0-0.1,0c0,0,0,0-0.1,0c0,0,0,0.1-0.1,0.1c0,0,0,0-0.1,0c0,0,0,0-0.1,0.1c0,0,0,0,0,0c0,0,0,0,0,0c0,0,0,0-0.1,0
				c-0.1,0.1-0.1,0.1-0.2,0.2c-0.1,0.1-0.1,0.1-0.2,0.2c0.1-0.1,0.1-0.1,0.2-0.2c0.1-0.1,0.1-0.1,0.2-0.2c0,0,0,0,0.1,0c0,0,0,0,0,0
				c0,0,0,0,0,0c0,0,0.1-0.1,0.1-0.1c0,0,0,0,0,0c0,0,0,0,0,0c0,0,0,0,0.1,0c0,0,0,0,0.1,0c0.1,0,0.1-0.1,0.2-0.1c0,0,0.1,0,0.1,0
				c0.1,0,0.3-0.1,0.4-0.1c0,0,0.1,0,0.1,0C31.9,51.8,32,51.8,32.2,51.8C32.2,51.8,32.2,51.8,32.2,51.8z"/>
		</g>
		<path class="st2" d="M32.2,51.8c0,0-0.3,0-0.4,0c-0.1,0-0.4,0.1-0.6,0.1C31.2,52,32,51.8,32.2,51.8L32.2,51.8z"/>
	</g>
	<g>
		<g>
			<path class="st1" d="M19.3,35.5c-0.2,0-0.3,0-0.5,0c0,0-0.1,0-0.1,0c-0.2,0-0.4,0.1-0.6,0.2c0,0-0.1,0-0.2,0c-0.1,0,0,0-0.1,0.1
				c0,0-0.1,0-0.1,0c0,0-0.1,0-0.1,0c0,0-0.1,0.1-0.1,0.1c0,0-0.1,0-0.1,0c0,0,0,0-0.1,0.1c0,0,0,0,0,0c0,0,0,0,0,0c0,0,0,0-0.1,0.1
				c-0.1,0.1-0.2,0.1-0.2,0.2c-0.1,0.1-0.2,0.1-0.2,0.2c0.1-0.1,0.1-0.1,0.2-0.2c0.1-0.1,0.2-0.1,0.2-0.2c0,0,0,0,0.1,0c0,0,0,0,0,0
				c0,0,0,0,0,0c0,0,0.1-0.1,0.1-0.1c0,0,0,0,0,0c0,0,0,0,0,0c0,0,0.1,0,0.1,0c0,0,0.1,0,0.1,0c0.1,0,0.2-0.1,0.3-0.2
				c0,0,0.1,0,0.1,0c0.1,0,0.3-0.1,0.5-0.1c0,0,0.1,0,0.1,0C18.9,35.5,19,35.5,19.3,35.5C19.2,35.5,19.2,35.5,19.3,35.5z"/>
		</g>
		<path class="st2" d="M19.2,35.5c0,0-0.3,0-0.4,0c-0.1,0-0.5,0.1-0.7,0.1C18.1,35.7,19.1,35.5,19.2,35.5L19.2,35.5z"/>
	</g>
	<g>
		<g>
			<path class="st1" d="M19.1,40.9c-0.2-0.1-0.3-0.1-0.5-0.2c0,0-0.1,0-0.1,0c-0.2,0-0.5-0.1-0.7-0.1c0,0-0.1,0-0.2,0
				c-0.1,0,0,0-0.1,0c0,0-0.1,0-0.1,0c0,0-0.1,0-0.1,0c0,0-0.1,0-0.1,0c0,0-0.1,0-0.1,0c-0.1,0-0.1,0-0.1,0c0,0,0,0,0,0c0,0,0,0,0,0
				c0,0-0.1,0-0.1,0c-0.1,0-0.2,0.1-0.3,0.1c-0.1,0-0.2,0.1-0.3,0.1c0.1,0,0.2-0.1,0.3-0.1c0.1,0,0.2-0.1,0.3-0.1c0,0,0.1,0,0.1,0
				c0,0,0,0,0,0c0,0,0,0,0,0c0.1,0,0.1,0,0.2,0c0,0,0,0,0.1,0c0,0,0,0,0.1,0c0,0,0.1,0,0.1,0c0,0,0.1,0,0.1,0c0.1,0,0.2,0,0.3,0
				c0,0,0.1,0,0.2,0c0.2,0,0.3,0,0.5,0.1c0,0,0.1,0,0.1,0C18.8,40.8,18.9,40.8,19.1,40.9C19.1,40.8,19.1,40.8,19.1,40.9z"/>
		</g>
		<path class="st2" d="M19.1,40.9c-0.1,0-0.3-0.1-0.4-0.1c-0.1,0-0.5-0.1-0.7-0.1C17.9,40.6,18.9,40.8,19.1,40.9L19.1,40.9z"/>
	</g>
	<path class="st14" d="M34.2,44.9c0-0.3-0.1-0.8-0.1-1c0-0.2,0-0.6-0.1-0.7c0-0.1-0.2-0.7-0.2-0.7l0.1,0.1c0,0,0.2,0.6,0.2,0.7
		c0,0.1,0,0.8,0,0.9C34.1,44.4,34.2,44.9,34.2,44.9z"/>
	<g class="st7">
		<g>
			<path class="st2" d="M23.2,36.5L23.2,36.5C23.2,36.4,23.2,36.4,23.2,36.5l0.1-0.1l-0.8-0.4l-1.6-0.5c0,0,1.7,0.6,1.7,0.7
				c0,0-0.3-0.1-0.7-0.2c0.4,0.1,0.7,0.3,0.8,0.3c0,0-0.5-0.1-1-0.3c0.2,0.1,0.5,0.2,0.5,0.2c0,0-1.2-0.2-1.6-0.3
				c0.3,0.1,2,0.4,2,0.4c0.1,0-1.5-0.1-1.5-0.1s0.9,0.1,1.3,0.1c0.2,0,0.6,0.1,0.3,0.1h0c-0.4,0-0.8,0-0.9,0c-0.1,0,1.8,0,0.8,0.1
				c-1,0.1-1.8,0.2-1.8,0.2s2.3-0.3,1.9-0.2c-0.4,0.1-0.9,0.2-0.9,0.2l1-0.1L23.2,36.5L23.2,36.5L23.2,36.5l0.1,0L23.2,36.5z"/>
			<path class="st2" d="M20.6,35.9C20.5,35.9,20.5,35.9,20.6,35.9C20.5,35.9,20.5,35.9,20.6,35.9z"/>
			<path class="st2" d="M21.7,36c-0.4-0.1-1.1-0.3-1.1-0.3S21.2,35.9,21.7,36z"/>
			<path class="st2" d="M21.9,36c-0.5-0.2-1.1-0.4-1.1-0.4S21.4,35.8,21.9,36z"/>
		</g>
		<path class="st2" d="M23.1,40.2c0-1.5-0.2-3.2,0-2.3c0.2,0.9,0.5,2.4,0.5,2.4S23,36,23.3,37.4c0.3,1.4,0.5,1.8,0.5,1.8
			s-0.6-2.4-0.4-2C23.5,37.7,24,39,24,39s-0.8-2-0.7-2c0.1,0,1.3,2.9,1.3,2.9s-1.3-3-1.2-3c0,0,1.4,2,1.4,2s-1.3-1.8-1.1-1.8
			c0.2,0-0.4-0.5-0.4-0.5l-0.1-0.1L22.1,38l-0.9,1.3c0,0,1.4-2,1.5-1.9c0.1,0-0.8,1.4-0.8,1.4s0.9-1.6,1-1.5c0.1,0-1,2.1-1,2.1
			s1-2,1-1.9c0,0-0.8,3.4-0.8,3.4s0.8-2.8,0.8-2.8c0,0-0.2,1.6-0.2,1.6s0.2-1.2,0.3-1C23.1,38.7,23.1,40.2,23.1,40.2z"/>
		<path class="st15" d="M26,39.8c-1-1.2-2.3-2.5-1.5-1.9c0.8,0.6,2,1.6,2,1.6s-3.3-3.1-2.2-2.2c1.2,0.9,1.6,1.2,1.6,1.2
			s-2.1-1.6-1.7-1.3c0.5,0.2,1.7,1,1.7,1S23.9,37,24,37c0.1,0,3.1,1.5,3.1,1.5S24,36.9,24,36.8c0,0,2.5,0.7,2.5,0.7
			s-2.3-0.6-2.1-0.7c0.2-0.1-0.7-0.1-0.7-0.1l-0.1,0l0.1,2l0.1,1.7c0,0-0.1-2.6,0-2.6c0.1,0,0.3,1.7,0.3,1.7s-0.3-2-0.2-2
			c0.1,0,0.6,2.4,0.6,2.4s-0.5-2.3-0.4-2.3c0.1,0,1.3,2.9,1.3,2.9s-1-2.4-1-2.4c0,0,0.9,1.5,0.9,1.5s-0.6-1.2-0.4-1.1
			C24.9,38.6,26,39.8,26,39.8z"/>
		<path class="st2" d="M25.4,36c-1.2,0.2-2.1,0.3-1.3,0.4c0.8,0.1,0.4,0,0.4,0s-1.6,0-0.5,0c1.2,0.1,1.6,0.2,1.6,0.2
			s-2.1-0.2-1.7-0.1c0.4,0.1,1.5,0.3,1.5,0.3s-1.8-0.4-1.8-0.3c0,0.1,2.6,0.8,2.6,0.8s-2.7-0.7-2.7-0.7c0,0,1.9,1,1.9,1
			s-1.7-0.9-1.7-0.7c0,0.2-0.5-0.3-0.5-0.3l-0.1-0.1l1.1-1.2l1-1c0,0-1.4,1.5-1.4,1.6c0,0.1,1.1-0.9,1.1-0.9s-1.2,1.1-1.1,1.1
			c0,0.1,1.6-1.2,1.6-1.2s-1.5,1.2-1.5,1.2c0,0,2.3-1.1,2.3-1.1s-1.8,0.9-1.8,1c0,0,1.3-0.4,1.3-0.4s-1.2,0.4-1,0.5
			C24.8,36.1,25.4,36,25.4,36z"/>
		<path class="st2" d="M23.2,36.3l0.4-2.4c0,0-0.2,1.6-0.2,1.5c0,0,0.7-1.9,0.7-1.9s-0.5,1.5-0.5,1.6c0.1,0.1,0.8-1.3,0.8-1.3
			s-1,1.9-1,1.9c0,0,1.1-1.6,1.1-1.6s-1.1,1.6-1,1.6c0.1,0,1.1-1.4,1.1-1.4l-0.9,1.4l-0.6,0.6L23.2,36.3z"/>
		<path class="st2" d="M23.2,36.4L21.9,37c0,0,0.8-0.3,0.8-0.2c0,0-0.9,0.6-0.9,0.6s0.8-0.5,0.8-0.5c0.1,0-0.6,0.7-0.6,0.7
			s0.9-0.9,1-0.9c0,0-0.8,0.9-0.8,0.9s0.7-0.9,0.8-0.8c0,0.1-0.6,0.9-0.6,0.9l0.7-0.8L23.2,36.4L23.2,36.4z"/>
		<path class="st2" d="M23.1,36.3l-1.9-1.9c0,0,1.7,1.5,1.7,1.5c0.1,0-0.7-1-0.7-1s0.7,0.8,0.7,0.7c0-0.1-0.7-1.8-0.7-1.8
			s0.8,1.9,0.8,1.9c0,0-0.2-1.4-0.2-1.4s0.2,1.3,0.3,1.3c0.2,0.1,0.2,0.1,0.2,0.1s-0.1,0,0,0.1c0.1,0.1-0.1,0.6-0.1,0.6L23.1,36.3z"
			/>
	</g>
	<g class="st16">
		<path class="st2" d="M23.1,36.4L23.1,36.4C23.2,36.4,23.2,36.4,23.1,36.4L23.1,36.4l0-0.6l-0.3-1.3c0,0,0.3,1.4,0.3,1.4
			c0,0-0.1-0.2-0.2-0.5c0.1,0.3,0.1,0.6,0.1,0.6c0,0-0.1-0.4-0.2-0.8c0,0.2,0.1,0.4,0.1,0.4c0,0-0.4-0.9-0.5-1.2
			c0.1,0.3,0.6,1.5,0.6,1.5c0,0-0.6-1.1-0.6-1.1s0.3,0.6,0.5,0.9c0.1,0.1,0.2,0.4,0,0.2l0,0c-0.1-0.2-0.3-0.6-0.4-0.6
			c-0.1-0.1,0.7,1.2,0.3,0.6c-0.4-0.6-0.9-1.1-0.9-1.1s1.1,1.4,0.9,1.2c-0.2-0.2-0.5-0.5-0.5-0.5l0.5,0.6L23.1,36.4L23.1,36.4
			L23.1,36.4L23.1,36.4L23.1,36.4z"/>
		<path class="st2" d="M22.4,34.5C22.4,34.4,22.4,34.4,22.4,34.5C22.4,34.4,22.4,34.4,22.4,34.5z"/>
		<path class="st2" d="M22.8,35.2c-0.1-0.3-0.3-0.9-0.3-0.9S22.7,34.8,22.8,35.2z"/>
		<path class="st2" d="M22.9,35.4c-0.1-0.4-0.2-0.9-0.2-0.9S22.8,35,22.9,35.4z"/>
		<path class="st2" d="M23.1,36.9c-0.1,0.2-0.2,1.1-0.2,1.3c0,0.1,0.3-1.7,0.2-0.7c0,0.9,0,1.8,0,1.8s0-2.2,0.1-1.9
			c0.1,0.4,0.1,0.9,0.1,0.9l0-0.9l-0.2-0.7L23.1,36.9z"/>
		<path class="st2" d="M21.4,37.3c0.7-0.4,1.4-0.9,1-0.6c-0.4,0.3-1,0.8-1,0.8s1.8-1.3,1.2-0.8c-0.6,0.5-0.7,0.7-0.7,0.7
			s1-0.9,0.8-0.7c-0.2,0.2-0.6,0.7-0.6,0.7s0.8-0.9,0.8-0.8c0,0-1,1.4-1,1.4s1.1-1.4,1.1-1.3c0,0-0.6,1.2-0.6,1.2s0.5-1.1,0.6-1
			c0,0.1,0.1-0.3,0.1-0.3l0-0.1l-0.9-0.2l-0.8-0.1c0,0,1.2,0.2,1.2,0.3c0,0-0.8,0-0.8,0s0.9,0.1,0.9,0.1c0,0-1.2,0-1.2,0
			s1.1,0,1.1,0c0,0-1.5,0.4-1.5,0.4s1.2-0.2,1.2-0.2c0,0-0.8,0.3-0.8,0.3s0.6-0.2,0.5-0.1C22.1,36.9,21.4,37.3,21.4,37.3z"/>
		<path class="st2" d="M23.9,37.5c-0.4-0.6-0.7-1-0.5-0.6c0.2,0.4,0.1,0.2,0.1,0.2s-0.4-0.8-0.1-0.2c0.3,0.6,0.3,0.8,0.3,0.8
			s-0.4-1.1-0.4-0.9c0,0.2,0.2,0.9,0.2,0.9s-0.3-1-0.3-1c0,0,0.3,1.5,0.3,1.5s-0.3-1.5-0.3-1.5c0,0,0,1.2,0,1.2s0-1.1-0.1-1
			c-0.1,0.1,0-0.3,0-0.3l0-0.1l0.8,0.3l0.7,0.2c0,0-1-0.3-1.1-0.3s0.7,0.3,0.7,0.3s-0.8-0.3-0.8-0.3c0,0,0.9,0.5,0.9,0.5
			s-0.9-0.5-0.9-0.4c0,0,1,0.9,1,0.9S23.7,37,23.6,37c0,0,0.5,0.5,0.5,0.5s-0.5-0.5-0.5-0.4C23.7,37.3,23.9,37.5,23.9,37.5z"/>
		<path class="st2" d="M23.2,36.4l1.2-0.4c0,0-0.7,0.3-0.7,0.3c0,0,0.9-0.1,0.9-0.1s-0.8,0.1-0.8,0.2c0,0.1,0.8,0.1,0.8,0.1
			s-1.1-0.1-1.1,0c0,0,1,0.2,1,0.2s-1-0.2-1-0.1c0,0.1,0.9,0.2,0.9,0.2l-0.9-0.1L23.2,36.4L23.2,36.4z"/>
		<path class="st2" d="M23.1,36.5l-0.6-0.6c0,0,0.4,0.4,0.3,0.4c0,0-0.6-0.3-0.6-0.3s0.5,0.3,0.5,0.3c0,0-0.5-0.2-0.5-0.2
			s0.7,0.3,0.7,0.3c0,0-0.7-0.2-0.7-0.2s0.7,0.2,0.6,0.2c0,0-0.6-0.1-0.6-0.1l0.6,0.2L23.1,36.5L23.1,36.5z"/>
		<path class="st2" d="M23.2,36.4l0.4-1.4c0,0-0.3,1.2-0.3,1.2c0,0,0.3-0.6,0.3-0.6s-0.2,0.6-0.1,0.5c0.1,0,0.7-0.8,0.7-0.8
			s-0.7,0.8-0.7,0.9c0,0,0.6-0.4,0.6-0.4s-0.5,0.4-0.5,0.5c0,0.1,0.6-0.3,0.6-0.3s-0.6,0.3-0.7,0.4C23.4,36.4,23.1,36.4,23.2,36.4
			L23.2,36.4z"/>
		<path class="st2" d="M20.9,36.7c0.2,0.1,0.4-0.1,0.7,0c-0.2,0-0.4,0-0.6,0C21,36.7,21,36.7,20.9,36.7z"/>
		<path class="st2" d="M20.3,36.7c0.2,0,0.4-0.1,0.6,0C20.7,36.7,20.5,36.7,20.3,36.7C20.4,36.7,20.3,36.7,20.3,36.7z"/>
		<path class="st2" d="M22.8,37.9c-0.1,0.3-0.2,0.5-0.2,0.8c0.1-0.2,0.1-0.5,0.2-0.7C22.7,37.9,22.7,37.9,22.8,37.9z"/>
		<path class="st2" d="M24.1,37.6c0.2,0.1,0.2,0.3,0.4,0.5c-0.1-0.1-0.2-0.2-0.3-0.4C24.2,37.7,24.2,37.7,24.1,37.6z"/>
		<path class="st2" d="M24.7,38.3C24.8,38.3,24.8,38.3,24.7,38.3c0.1,0.1,0.1,0.1,0.1,0.1C24.8,38.4,24.8,38.4,24.7,38.3
			C24.8,38.3,24.7,38.3,24.7,38.3z"/>
		<path class="st2" d="M24.5,37.5c0.1,0,0.2,0.1,0.3,0.1c0.1,0,0.2,0.1,0.3,0.1c-0.1,0-0.2-0.1-0.3-0.1
			C24.7,37.6,24.6,37.6,24.5,37.5z"/>
		<path class="st2" d="M24.6,36.7c0.1,0,0.2,0,0.3,0c0,0,0.1,0,0.1,0c0,0,0.1,0,0.1,0c-0.1,0-0.2,0-0.3,0
			C24.8,36.7,24.7,36.7,24.6,36.7z"/>
		<path class="st2" d="M24,35.9c0.1-0.1,0.2-0.2,0.4-0.2c0.1-0.1,0.2-0.2,0.4-0.2c-0.2,0.2-0.4,0.2-0.6,0.4C24,35.9,24,35.9,24,35.9
			z"/>
		<path class="st2" d="M23.9,35.3c0,0.1-0.1,0.1-0.1,0.1c0,0-0.1,0.1-0.1,0.1c0-0.1,0.1-0.1,0.1-0.1C23.8,35.4,23.8,35.4,23.9,35.3z
			"/>
	</g>
	<g>
		<path class="st5" d="M26.3,41.8c0.1,0,0.1-0.1,0.2-0.1c0,0,0,0,0,0c0,0,0,0,0-0.1C26.4,41.7,26.3,41.7,26.3,41.8
			c-0.1,0-0.1,0-0.2,0.1c-0.2,0.2-0.4,1.3-0.1,1.7c0,0,0-0.1-0.1-0.1C25.7,43,26.1,42,26.3,41.8z"/>
		<path class="st5" d="M26.9,43.9c0.1,0,0.1,0,0.2,0c-0.5-0.2-0.9-0.5-1-0.9C26.2,43.4,26.4,43.7,26.9,43.9z"/>
		<path class="st5" d="M26.3,42.2c0-0.1,0.1-0.1,0.1-0.2c0.1-0.1,0.2-0.1,0.2-0.2c0,0,0,0,0,0c-0.1,0-0.2,0.1-0.3,0.2
			C26.3,42.1,26.3,42.2,26.3,42.2c-0.2,0.3-0.3,0.6-0.2,0.8C26,42.8,26.1,42.5,26.3,42.2z"/>
		<path class="st5" d="M26.6,41.8C26.6,41.7,26.5,41.7,26.6,41.8c-0.3,0.1-0.3,0.4-0.4,0.7C26.3,42.2,26.3,41.9,26.6,41.8z"/>
		<path class="st5" d="M26.3,43.7C26.3,43.6,26.3,43.6,26.3,43.7c-0.1-0.1-0.1-0.1-0.1-0.1c0,0,0-0.1,0-0.1c0,0-0.1,0-0.1-0.1
			c0,0.1,0.1,0.1,0.1,0.1C26.2,43.6,26.3,43.6,26.3,43.7z"/>
		<path class="st5" d="M26.9,43.7c0,0,0.1,0,0.2,0C27,43.7,26.9,43.7,26.9,43.7c-0.2-0.1-0.4-0.1-0.5-0.2
			C26.6,43.6,26.7,43.6,26.9,43.7z"/>
		<path class="st5" d="M26.7,42C26.7,42,26.7,42,26.7,42c-0.2,0.1-0.4,0.3-0.5,0.5c0,0.3,0,0.7,0.2,0.9c-0.1-0.1-0.2-0.3-0.2-0.4
			C26.2,42.6,26.3,42.2,26.7,42z"/>
		<path class="st5" d="M26.6,42.6c0.1-0.2,0.2-0.3,0.4-0.4c0,0,0,0,0,0C26.7,42.3,26.6,42.4,26.6,42.6c-0.1,0.1-0.1,0.2-0.1,0.3
			c0,0.1,0.1,0.2,0.1,0.3c-0.1-0.1-0.1-0.2-0.1-0.3C26.5,42.8,26.5,42.7,26.6,42.6z"/>
		<path class="st5" d="M26.9,42.1C26.9,42.1,26.8,42.1,26.9,42.1c-0.5,0.1-0.6,0.7-0.3,1.1c0-0.1-0.1-0.1-0.1-0.2
			C26.3,42.8,26.5,42.3,26.9,42.1z"/>
		<path class="st1" d="M26.8,42.6c0-0.1,0.1-0.2,0.3-0.2c0,0,0,0,0,0C26.9,42.4,26.8,42.5,26.8,42.6c0,0.1,0,0.1,0,0.2
			c0,0.1,0.2,0.2,0.2,0.3c0-0.1-0.2-0.2-0.2-0.3C26.8,42.8,26.8,42.7,26.8,42.6z"/>
		<path class="st1" d="M27,42.3C27,42.3,27,42.3,27,42.3c-0.3,0.1-0.4,0.5-0.2,0.7c0,0,0-0.1-0.1-0.1C26.7,42.7,26.8,42.4,27,42.3z"
			/>
		<path class="st17" d="M26.5,41.6c-0.5,0.3-0.6,0.8-0.6,0.8l0,0c0,0,0-0.1,0-0.2c0.1-0.2,0.2-0.2,0.4-0.3c0.2-0.2-0.1,0.1-0.1,0.1
			c0,0.1-0.1,0.1-0.2,0.3c0,0.1-0.1,0.3,0,0.3c0.2-0.1,0.1-0.1,0.1-0.2c0.1-0.1,0-0.1,0.1-0.1c0.1-0.1,0.1-0.1,0.2-0.2
			c0.1-0.1,0.2,0,0.3,0c0.1,0,0.1,0.1,0.1,0.1c0,0.1,0,0.2-0.1,0.2c0,0,0,0.2-0.1,0.2c-0.1,0.1-0.1,0.1,0,0.1c0.1,0,0.1,0.1,0.1,0.2
			c0,0.1,0.2,0.2,0.2,0.3c0.1,0.1,0.1,0.1,0.1,0.2c0,0.1,0.2,0.2,0.2,0.2s-0.1-0.1-0.1-0.2c0-0.1-0.1-0.2-0.1-0.3c0-0.1,0-0.2,0-0.2
			l0.1-0.3C27.1,42.4,26.7,42,26.5,41.6z"/>
		<path class="st18" d="M27.6,43.1c0,0-0.1-0.1-0.1-0.1c-0.2-0.2-0.2-0.3-0.4-0.6c0,0,0,0,0,0c-0.3,0.4-0.1,0.5,0.2,0.5
			C27.4,43,27.5,43.1,27.6,43.1z"/>
	</g>
	<g class="st16">
		<path class="st5" d="M19.5,38.4C19.5,38.4,19.6,38.5,19.5,38.4C19.6,38.5,19.6,38.5,19.5,38.4C19.6,38.5,19.6,38.5,19.5,38.4
			C19.6,38.4,19.6,38.4,19.5,38.4C19.5,38.4,19.5,38.3,19.5,38.4c-0.3-0.2-0.6-0.2-0.9,0c0,0,0,0,0.1,0C19,38.2,19.3,38.2,19.5,38.4
			z"/>
		<path class="st5" d="M18.3,38.9c0,0,0,0.1,0,0.1c0.1-0.3,0.3-0.5,0.5-0.6C18.6,38.5,18.4,38.7,18.3,38.9z"/>
		<path class="st5" d="M19.3,38.4C19.3,38.5,19.3,38.5,19.3,38.4c0.1,0.1,0.1,0.1,0.2,0.2c0,0,0,0,0,0
			C19.4,38.6,19.4,38.5,19.3,38.4C19.3,38.5,19.3,38.4,19.3,38.4c-0.1-0.1-0.3-0.1-0.4,0C19,38.4,19.2,38.4,19.3,38.4z"/>
		<path class="st5" d="M19.5,38.5C19.5,38.5,19.5,38.5,19.5,38.5c0-0.2-0.2-0.2-0.4-0.2C19.3,38.4,19.5,38.4,19.5,38.5z"/>
		<path class="st5" d="M18.5,38.6C18.5,38.6,18.5,38.5,18.5,38.6C18.6,38.5,18.6,38.5,18.5,38.6c0.1-0.1,0.1-0.1,0.1-0.1
			c0,0,0,0,0,0C18.6,38.5,18.6,38.5,18.5,38.6C18.6,38.5,18.5,38.6,18.5,38.6z"/>
		<path class="st5" d="M18.4,38.9C18.4,38.9,18.4,39,18.4,38.9C18.4,39,18.4,38.9,18.4,38.9c0.1-0.1,0.1-0.2,0.2-0.3
			C18.5,38.7,18.5,38.8,18.4,38.9z"/>
		<path class="st5" d="M19.4,38.7C19.4,38.7,19.4,38.7,19.4,38.7c0-0.1-0.1-0.2-0.3-0.2c-0.2,0-0.4,0.1-0.5,0.2
			c0.1-0.1,0.2-0.1,0.2-0.1C19.1,38.4,19.3,38.5,19.4,38.7z"/>
		<path class="st5" d="M19.1,38.6c0.1,0,0.1,0.1,0.2,0.2c0,0,0,0,0,0C19.2,38.7,19.2,38.6,19.1,38.6c0,0-0.1,0-0.2,0
			c-0.1,0-0.1,0.1-0.2,0.1c0.1,0,0.1-0.1,0.2-0.1C18.9,38.6,19,38.6,19.1,38.6z"/>
		<path class="st5" d="M19.3,38.7C19.3,38.7,19.3,38.7,19.3,38.7c0-0.2-0.4-0.3-0.6-0.1c0,0,0.1,0,0.1-0.1
			C19,38.5,19.2,38.6,19.3,38.7z"/>
		<path class="st1" d="M19,38.8c0.1,0,0.1,0.1,0.1,0.1c0,0,0,0,0,0C19.1,38.8,19.1,38.8,19,38.8c0,0-0.1,0-0.1,0c0,0-0.1,0-0.1,0.1
			c0,0,0.1-0.1,0.1-0.1C19,38.8,19,38.8,19,38.8z"/>
		<path class="st1" d="M19.2,38.8C19.2,38.8,19.2,38.8,19.2,38.8c0-0.1-0.2-0.2-0.4,0c0,0,0,0,0.1,0C19,38.7,19.1,38.7,19.2,38.8z"
			/>
		<path class="st17" d="M19.6,38.5c-0.1-0.3-0.4-0.3-0.4-0.3l0,0c0,0,0,0,0.1,0c0.1,0,0.1,0.1,0.2,0.2c0.1,0.1,0,0-0.1,0
			c0,0-0.1-0.1-0.1-0.1c-0.1,0-0.2,0-0.2,0c0,0,0,0,0.1,0.1c0.1,0,0,0,0.1,0.1c0,0.1,0,0,0.1,0.1c0,0,0,0.1,0,0.2c0,0.1-0.1,0-0.1,0
			c0,0-0.1,0-0.1,0c0,0-0.1,0-0.1,0c0,0-0.1,0-0.1,0c0,0-0.1,0.1-0.1,0.1c0,0,0,0-0.1,0.1c-0.1,0-0.1,0.1-0.1,0.1
			c0,0-0.2,0.2-0.2,0.2s0.2-0.1,0.2-0.1c0,0,0.1-0.1,0.2-0.1c0,0,0.1,0,0.1,0.1l0.1,0.1C19.2,38.9,19.4,38.7,19.6,38.5z"/>
		<path class="st18" d="M18.8,39.2C18.9,39.1,18.9,39.1,18.8,39.2c0.1-0.1,0.2-0.2,0.3-0.3c0,0,0,0,0,0c-0.2-0.1-0.3,0-0.3,0.2
			C18.8,39.1,18.8,39.1,18.8,39.2z"/>
	</g>
	<g class="st16">
		<path class="st5" d="M33.2,33.6c0,0,0,0.1,0,0.1c0,0,0,0,0,0c0,0,0,0,0.1,0C33.2,33.7,33.3,33.6,33.2,33.6c0.1,0,0.1-0.1,0.1-0.1
			c-0.1-0.5-0.5-0.9-1-1.1c0,0,0.1,0,0.1,0.1C32.9,32.7,33.2,33.1,33.2,33.6z"/>
		<path class="st5" d="M31.5,32.5c0,0-0.1,0-0.1,0.1c0.4-0.1,0.8-0.1,1.2,0.1C32.2,32.5,31.8,32.4,31.5,32.5z"/>
		<path class="st5" d="M32.9,33.3c0,0.1,0,0.1,0,0.2c0,0.1,0,0.1,0,0.2c0,0,0,0,0,0c0-0.1,0.1-0.1,0.1-0.2
			C33,33.4,33,33.3,32.9,33.3c-0.1-0.3-0.2-0.5-0.4-0.6C32.7,32.9,32.9,33.1,32.9,33.3z"/>
		<path class="st5" d="M33.1,33.7C33.1,33.7,33.1,33.7,33.1,33.7c0.1-0.2,0-0.4-0.1-0.7C33,33.3,33.1,33.5,33.1,33.7z"/>
		<path class="st5" d="M32,32.4C32,32.4,32,32.4,32,32.4c0.1,0,0.1,0,0.2,0c0,0,0.1,0,0.1,0c0,0,0.1,0,0.1,0c-0.1,0-0.1,0-0.2,0
			C32.1,32.4,32,32.4,32,32.4z"/>
		<path class="st5" d="M31.6,32.7c0,0-0.1,0-0.1,0C31.5,32.7,31.6,32.7,31.6,32.7c0.2,0,0.3,0,0.4,0C31.9,32.6,31.7,32.6,31.6,32.7z
			"/>
		<path class="st5" d="M32.8,33.6C32.8,33.6,32.8,33.6,32.8,33.6c0.1-0.2,0-0.4,0-0.6c-0.1-0.2-0.5-0.4-0.8-0.4
			c0.2,0,0.3,0.1,0.4,0.2C32.7,33.1,32.9,33.4,32.8,33.6z"/>
		<path class="st5" d="M32.5,33.2c0.1,0.1,0.1,0.3,0,0.4c0,0,0,0,0,0C32.6,33.5,32.6,33.3,32.5,33.2c0-0.1-0.1-0.2-0.2-0.2
			c-0.1-0.1-0.2-0.1-0.3-0.1c0.1,0,0.2,0.1,0.3,0.1C32.4,33,32.5,33.1,32.5,33.2z"/>
		<path class="st5" d="M32.6,33.6C32.6,33.6,32.7,33.6,32.6,33.6c0.2-0.3-0.1-0.7-0.6-0.8c0.1,0,0.1,0,0.2,0.1
			C32.5,33,32.7,33.3,32.6,33.6z"/>
		<path class="st1" d="M32.3,33.3c0,0.1,0,0.2,0,0.2c0,0,0,0,0,0C32.4,33.5,32.4,33.4,32.3,33.3c0-0.1-0.1-0.1-0.1-0.1
			c-0.1,0-0.1-0.1-0.2-0.1c0.1,0,0.1,0,0.2,0.1C32.3,33.2,32.3,33.2,32.3,33.3z"/>
		<path class="st1" d="M32.4,33.6C32.4,33.6,32.4,33.6,32.4,33.6c0.1-0.2-0.1-0.5-0.4-0.5c0,0,0.1,0,0.1,0
			C32.4,33.2,32.5,33.4,32.4,33.6z"/>
		<path class="st17" d="M33.2,33.7c0.1-0.4-0.2-0.8-0.2-0.8l0,0c0,0,0,0.1,0.1,0.2c0.1,0.1,0,0.2,0,0.4c0,0.2,0-0.1,0-0.1
			c0-0.1,0-0.1-0.1-0.2c-0.1-0.1-0.2-0.3-0.2-0.2c0,0.1,0,0.1,0,0.2c0,0.1,0,0.1,0,0.1c0,0.1,0,0.1,0,0.2c0,0.1-0.1,0.1-0.2,0.1
			c-0.1,0-0.1,0-0.1-0.1c0,0-0.1-0.1-0.1-0.2c0,0-0.1-0.1-0.1-0.2c0-0.1,0-0.1-0.1-0.1c-0.1,0-0.1,0-0.2-0.1c0,0-0.1,0-0.2-0.1
			c-0.1-0.1-0.1,0-0.2,0c-0.1,0-0.4-0.1-0.4-0.1s0.3,0.1,0.3,0.2c0,0,0.2,0.1,0.3,0.2c0,0.1,0,0.1,0,0.1l0.1,0.2
			C32.4,33.6,32.8,33.6,33.2,33.7z"/>
		<path class="st18" d="M31.7,33.4c0,0,0.1,0,0.1,0c0.2,0,0.3,0.1,0.5,0.1c0,0,0,0,0,0c-0.1-0.3-0.3-0.3-0.5-0.2
			C31.8,33.3,31.7,33.4,31.7,33.4z"/>
	</g>
</g>
<path class="st19" d="M14.6,44.9c0.1-9.4,7-16.9,15.4-16.8c5.2,0.1,9.7,3,12.4,7.4c-2.5-5.3-7.5-8.9-13.2-8.9
	c-8.4-0.1-15.3,7.4-15.4,16.8c-0.1,3.6,0.9,7,2.6,9.8C15.2,50.7,14.5,47.9,14.6,44.9z"/>
<path class="st20" d="M42.9,44.2c-0.1,8.5-6.3,15.3-13.9,15.2c-4.1,0-7.8-2.1-10.2-5.3l0.8-1.3l4.1,0l0.1-6l9.1-0.9l0.9,2.3l3-0.6
	l0.1-9l5-0.6C42.5,39.9,42.9,42,42.9,44.2z"/>
</svg>
