<?xml version="1.0" encoding="utf-8"?>
<!-- Generator: Adobe Illustrator 23.0.3, SVG Export Plug-In . SVG Version: 6.00 Build 0)  -->
<svg version="1.1" id="Layer_1" xmlns="http://www.w3.org/2000/svg" xmlns:xlink="http://www.w3.org/1999/xlink" x="0px" y="0px"
	 viewBox="0 0 50 50" style="enable-background:new 0 0 50 50;" xml:space="preserve">
<style type="text/css">
	.st0{opacity:0.72;fill:#9EB3B6;}
	.st1{fill:#CE7D13;}
	.st2{fill:#FFC50D;}
	.st3{opacity:0.43;}
	.st4{fill:#FFFC8F;}
	.st5{fill:#F19D00;}
	.st6{fill:#FFD400;}
	.st7{opacity:0.72;fill:#9C86B7;}
	.st8{fill:#47752F;}
	.st9{fill:#4E8436;}
	.st10{fill:#ADE069;}
	.st11{fill:#70A33C;}
	.st12{fill:#607700;}
	.st13{fill:#FFFFFF;}
	.st14{fill:#9FD65E;}
	.st15{opacity:0.44;fill:#48842F;}
	.st16{fill:#FF895A;}
	.st17{opacity:0.29;fill:#846E56;}
</style>
<g>
	<path class="st0" d="M32.08,41.12c-0.11-0.16-0.17-0.32-0.17-0.49c0-0.93,1.79-1.69,3.99-1.69c2.2,0,3.99,0.76,3.99,1.69
		c0,0.17-0.06,0.34-0.17,0.49h0.01l-2,2.34l-8.44-2.86L32.08,41.12z"/>
	<g>
		<polygon class="st0" points="43.18,36.41 50,28.27 39.11,28.27 		"/>
	</g>
	<g>
		<g>
			<g>
				<ellipse class="st1" cx="30.76" cy="25.83" rx="3.99" ry="1.69"/>
			</g>
			<g>
				<path class="st2" d="M26.77,24.84v0.81c0,0.7,0.99,1.29,2.4,1.55c0.34,0.06,0.69,0.11,1.07,0.13c0.17,0.01,0.35,0.01,0.53,0.01
					c0.56,0,1.1-0.05,1.59-0.14c1.41-0.26,2.15-0.87,2.15-1.57l0.25-0.89c-0.57-0.63-2.29-0.79-3.99-0.79
					C29.41,23.96,27.49,24.41,26.77,24.84z"/>
			</g>
			<g class="st3">
				<path class="st4" d="M29.17,25.71v1.49c0.34,0.06,0.69,0.11,1.07,0.13v-1.62H29.17z"/>
			</g>
			<g>
				<path class="st5" d="M32.18,27.23v-3.23c1.16,0.08,2.15,0.29,2.57,0.75v0.9C34.75,26.37,33.68,26.99,32.18,27.23z"/>
			</g>
			<g>
				<ellipse class="st6" cx="30.76" cy="24.84" rx="3.99" ry="1.69"/>
			</g>
			<g>
				<path class="st4" d="M28.48,26.17c-0.68-0.21-1.19-0.51-1.44-0.84l3.21-2.12c0.19-0.01,0.37-0.02,0.55-0.02
					c0.66,0,1.31,0.07,1.89,0.2L28.48,26.17z"/>
			</g>
			<g>
				<path class="st4" d="M30.24,26.47c-0.32-0.02-0.63-0.06-0.93-0.11l4.15-2.73c0.24,0.09,0.45,0.19,0.63,0.31L30.24,26.47z"/>
			</g>
		</g>
		<g>
			<g>
				<ellipse class="st1" cx="30.76" cy="24.65" rx="3.99" ry="1.69"/>
			</g>
			<g>
				<path class="st2" d="M26.77,23.67v0.81c0,0.7,0.99,1.29,2.4,1.55c0.34,0.06,0.69,0.11,1.07,0.13c0.17,0.01,0.35,0.01,0.53,0.01
					c0.56,0,1.1-0.05,1.59-0.14c1.41-0.26,2.15-0.87,2.15-1.57l0.25-0.89c-0.57-0.63-2.29-0.79-3.99-0.79
					C29.41,22.79,27.49,23.23,26.77,23.67z"/>
			</g>
			<g class="st3">
				<path class="st4" d="M29.17,24.54v1.49c0.34,0.06,0.69,0.11,1.07,0.13v-1.62H29.17z"/>
			</g>
			<g>
				<path class="st5" d="M32.18,26.06v-3.23c1.16,0.08,2.15,0.29,2.57,0.75v0.9C34.75,25.2,33.68,25.82,32.18,26.06z"/>
			</g>
			<g>
				<ellipse class="st6" cx="30.76" cy="23.67" rx="3.99" ry="1.69"/>
			</g>
			<g>
				<path class="st4" d="M28.48,24.99c-0.68-0.21-1.19-0.51-1.44-0.84l3.21-2.12c0.19-0.01,0.37-0.02,0.55-0.02
					c0.66,0,1.31,0.07,1.89,0.2L28.48,24.99z"/>
			</g>
			<g>
				<path class="st4" d="M30.24,25.3c-0.32-0.02-0.63-0.06-0.93-0.11l4.15-2.73c0.24,0.09,0.45,0.19,0.63,0.31L30.24,25.3z"/>
			</g>
		</g>
		<g>
			<g>
				<ellipse class="st1" cx="30.76" cy="23.48" rx="3.99" ry="1.69"/>
			</g>
			<g>
				<path class="st2" d="M26.77,22.49v0.81c0,0.7,0.99,1.29,2.4,1.55c0.34,0.06,0.69,0.11,1.07,0.13c0.17,0.01,0.35,0.01,0.53,0.01
					c0.56,0,1.1-0.05,1.59-0.14c1.41-0.26,2.15-0.87,2.15-1.57l0.25-0.89c-0.57-0.63-2.29-0.79-3.99-0.79
					C29.41,21.62,27.49,22.06,26.77,22.49z"/>
			</g>
			<g class="st3">
				<path class="st4" d="M29.17,23.37v1.49c0.34,0.06,0.69,0.11,1.07,0.13v-1.62H29.17z"/>
			</g>
			<g>
				<path class="st5" d="M32.18,24.89v-3.23c1.16,0.08,2.15,0.29,2.57,0.75v0.9C34.75,24.03,33.68,24.64,32.18,24.89z"/>
			</g>
			<g>
				<ellipse class="st6" cx="30.76" cy="22.49" rx="3.99" ry="1.69"/>
			</g>
			<g>
				<path class="st4" d="M28.48,23.82c-0.68-0.21-1.19-0.51-1.44-0.84l3.21-2.12c0.19-0.01,0.37-0.02,0.55-0.02
					c0.66,0,1.31,0.07,1.89,0.2L28.48,23.82z"/>
			</g>
			<g>
				<path class="st4" d="M30.24,24.12c-0.32-0.02-0.63-0.06-0.93-0.11l4.15-2.73c0.24,0.09,0.45,0.19,0.63,0.31L30.24,24.12z"/>
			</g>
		</g>
		<g>
			<g>
				<ellipse class="st1" cx="30.76" cy="22.31" rx="3.99" ry="1.69"/>
			</g>
			<g>
				<path class="st2" d="M26.77,21.32v0.81c0,0.7,0.99,1.29,2.4,1.55c0.34,0.06,0.69,0.11,1.07,0.13c0.17,0.01,0.35,0.01,0.53,0.01
					c0.56,0,1.1-0.05,1.59-0.14c1.41-0.26,2.15-0.87,2.15-1.57l0.25-0.89c-0.57-0.63-2.29-0.79-3.99-0.79
					C29.41,20.44,27.49,20.89,26.77,21.32z"/>
			</g>
			<g class="st3">
				<path class="st4" d="M29.17,22.19v1.49c0.34,0.06,0.69,0.11,1.07,0.13v-1.62H29.17z"/>
			</g>
			<g>
				<path class="st5" d="M32.18,23.71v-3.23c1.16,0.08,2.15,0.29,2.57,0.75v0.9C34.75,22.85,33.68,23.47,32.18,23.71z"/>
			</g>
			<g>
				<ellipse class="st6" cx="30.76" cy="21.32" rx="3.99" ry="1.69"/>
			</g>
			<g>
				<path class="st4" d="M28.48,22.65c-0.68-0.21-1.19-0.51-1.44-0.84l3.21-2.12c0.19-0.01,0.37-0.02,0.55-0.02
					c0.66,0,1.31,0.07,1.89,0.2L28.48,22.65z"/>
			</g>
			<g>
				<path class="st4" d="M30.24,22.95c-0.32-0.02-0.63-0.06-0.93-0.11l4.15-2.73c0.24,0.09,0.45,0.19,0.63,0.31L30.24,22.95z"/>
			</g>
		</g>
		<g>
			<g>
				<ellipse class="st1" cx="30.76" cy="21.13" rx="3.99" ry="1.69"/>
			</g>
			<g>
				<path class="st2" d="M26.77,20.15v0.81c0,0.7,0.99,1.29,2.4,1.55c0.34,0.06,0.69,0.11,1.07,0.13c0.17,0.01,0.35,0.01,0.53,0.01
					c0.56,0,1.1-0.05,1.59-0.14c1.41-0.26,2.15-0.87,2.15-1.57l0.25-0.89c-0.57-0.63-2.29-0.79-3.99-0.79
					C29.41,19.27,27.49,19.71,26.77,20.15z"/>
			</g>
			<g class="st3">
				<path class="st4" d="M29.17,21.02v1.49c0.34,0.06,0.69,0.11,1.07,0.13v-1.62H29.17z"/>
			</g>
			<g>
				<path class="st5" d="M32.18,22.54v-3.23c1.16,0.08,2.15,0.29,2.57,0.75v0.9C34.75,21.68,33.68,22.3,32.18,22.54z"/>
			</g>
			<g>
				<ellipse class="st6" cx="30.76" cy="20.15" rx="3.99" ry="1.69"/>
			</g>
			<g>
				<path class="st4" d="M28.48,21.47c-0.68-0.21-1.19-0.51-1.44-0.84l3.21-2.12c0.19-0.01,0.37-0.02,0.55-0.02
					c0.66,0,1.31,0.07,1.89,0.2L28.48,21.47z"/>
			</g>
			<g>
				<path class="st4" d="M30.24,21.78c-0.32-0.02-0.63-0.06-0.93-0.11l4.15-2.73c0.24,0.09,0.45,0.19,0.63,0.31L30.24,21.78z"/>
			</g>
		</g>
		<g>
			<g>
				<ellipse class="st1" cx="30.76" cy="19.96" rx="3.99" ry="1.69"/>
			</g>
			<g>
				<path class="st2" d="M26.77,18.97v0.81c0,0.7,0.99,1.29,2.4,1.55c0.34,0.06,0.69,0.11,1.07,0.13c0.17,0.01,0.35,0.01,0.53,0.01
					c0.56,0,1.1-0.05,1.59-0.14c1.41-0.26,2.15-0.87,2.15-1.57l0.25-0.89c-0.57-0.63-2.29-0.79-3.99-0.79
					C29.41,18.1,27.49,18.54,26.77,18.97z"/>
			</g>
			<g class="st3">
				<path class="st4" d="M29.17,19.85v1.49c0.34,0.06,0.69,0.11,1.07,0.13v-1.62H29.17z"/>
			</g>
			<g>
				<path class="st5" d="M32.18,21.37v-3.23c1.16,0.08,2.15,0.29,2.57,0.75v0.9C34.75,20.51,33.68,21.12,32.18,21.37z"/>
			</g>
			<g>
				<ellipse class="st6" cx="30.76" cy="18.97" rx="3.99" ry="1.69"/>
			</g>
			<g>
				<path class="st4" d="M28.48,20.3c-0.68-0.21-1.19-0.51-1.44-0.84l3.21-2.12c0.19-0.01,0.37-0.02,0.55-0.02
					c0.66,0,1.31,0.07,1.89,0.2L28.48,20.3z"/>
			</g>
			<g>
				<path class="st4" d="M30.24,20.6c-0.32-0.02-0.63-0.06-0.93-0.11l4.15-2.73c0.24,0.09,0.45,0.19,0.63,0.31L30.24,20.6z"/>
			</g>
		</g>
		<g>
			<g>
				<ellipse class="st1" cx="30.76" cy="18.79" rx="3.99" ry="1.69"/>
			</g>
			<g>
				<path class="st2" d="M26.77,17.8v0.81c0,0.7,0.99,1.29,2.4,1.55c0.34,0.06,0.69,0.11,1.07,0.13c0.17,0.01,0.35,0.01,0.53,0.01
					c0.56,0,1.1-0.05,1.59-0.14c1.41-0.26,2.15-0.87,2.15-1.57l0.25-0.89c-0.57-0.63-2.29-0.79-3.99-0.79
					C29.41,16.92,27.49,17.37,26.77,17.8z"/>
			</g>
			<g class="st3">
				<path class="st4" d="M29.17,18.67v1.49c0.34,0.06,0.69,0.11,1.07,0.13v-1.62H29.17z"/>
			</g>
			<g>
				<path class="st5" d="M32.18,20.19v-3.23c1.16,0.08,2.15,0.29,2.57,0.75v0.9C34.75,19.33,33.68,19.95,32.18,20.19z"/>
			</g>
			<g>
				<ellipse class="st6" cx="30.76" cy="17.8" rx="3.99" ry="1.69"/>
			</g>
			<g>
				<path class="st4" d="M28.48,19.13c-0.68-0.21-1.19-0.51-1.44-0.84l3.21-2.12c0.19-0.01,0.37-0.02,0.55-0.02
					c0.66,0,1.31,0.07,1.89,0.2L28.48,19.13z"/>
			</g>
			<g>
				<path class="st4" d="M30.24,19.43c-0.32-0.02-0.63-0.06-0.93-0.11l4.15-2.73c0.24,0.09,0.45,0.19,0.63,0.31L30.24,19.43z"/>
			</g>
		</g>
		<g>
			<g>
				<ellipse class="st1" cx="30.76" cy="17.61" rx="3.99" ry="1.69"/>
			</g>
			<g>
				<path class="st2" d="M26.77,16.63v0.81c0,0.7,0.99,1.29,2.4,1.55c0.34,0.06,0.69,0.11,1.07,0.13c0.17,0.01,0.35,0.01,0.53,0.01
					c0.56,0,1.1-0.05,1.59-0.14c1.41-0.26,2.15-0.87,2.15-1.57l0.25-0.89c-0.57-0.63-2.29-0.79-3.99-0.79
					C29.41,15.75,27.49,16.19,26.77,16.63z"/>
			</g>
			<g class="st3">
				<path class="st4" d="M29.17,17.5v1.49c0.34,0.06,0.69,0.11,1.07,0.13V17.5H29.17z"/>
			</g>
			<g>
				<path class="st5" d="M32.18,19.02v-3.23c1.16,0.08,2.15,0.29,2.57,0.75v0.9C34.75,18.16,33.68,18.78,32.18,19.02z"/>
			</g>
			<g>
				<ellipse class="st6" cx="30.76" cy="16.63" rx="3.99" ry="1.69"/>
			</g>
			<g>
				<path class="st4" d="M28.48,17.95c-0.68-0.21-1.19-0.51-1.44-0.84L30.26,15c0.19-0.01,0.37-0.02,0.55-0.02
					c0.66,0,1.31,0.07,1.89,0.2L28.48,17.95z"/>
			</g>
			<g>
				<path class="st4" d="M30.24,18.26c-0.32-0.02-0.63-0.06-0.93-0.11l4.15-2.73c0.24,0.09,0.45,0.19,0.63,0.31L30.24,18.26z"/>
			</g>
		</g>
		<g>
			<g>
				<ellipse class="st1" cx="30.76" cy="16.44" rx="3.99" ry="1.69"/>
			</g>
			<g>
				<path class="st2" d="M26.77,15.45v0.81c0,0.7,0.99,1.29,2.4,1.55c0.34,0.06,0.69,0.11,1.07,0.13c0.17,0.01,0.35,0.01,0.53,0.01
					c0.56,0,1.1-0.05,1.59-0.14c1.41-0.26,2.15-0.87,2.15-1.57l0.25-0.89c-0.57-0.63-2.29-0.79-3.99-0.79
					C29.41,14.58,27.49,15.02,26.77,15.45z"/>
			</g>
			<g class="st3">
				<path class="st4" d="M29.17,16.33v1.49c0.34,0.06,0.69,0.11,1.07,0.13v-1.62H29.17z"/>
			</g>
			<g>
				<path class="st5" d="M32.18,17.85v-3.23c1.16,0.08,2.15,0.29,2.57,0.75v0.9C34.75,16.99,33.68,17.6,32.18,17.85z"/>
			</g>
			<g>
				<ellipse class="st6" cx="30.76" cy="15.45" rx="3.99" ry="1.69"/>
			</g>
			<g>
				<path class="st4" d="M28.48,16.78c-0.68-0.21-1.19-0.51-1.44-0.84l3.21-2.12c0.19-0.01,0.37-0.02,0.55-0.02
					c0.66,0,1.31,0.07,1.89,0.2L28.48,16.78z"/>
			</g>
			<g>
				<path class="st4" d="M30.24,17.08c-0.32-0.02-0.63-0.06-0.93-0.11l4.15-2.73c0.24,0.09,0.45,0.19,0.63,0.31L30.24,17.08z"/>
			</g>
		</g>
		<g>
			<g>
				<ellipse class="st1" cx="30.76" cy="15.27" rx="3.99" ry="1.69"/>
			</g>
			<g>
				<path class="st2" d="M26.77,14.28v0.81c0,0.7,0.99,1.29,2.4,1.55c0.34,0.06,0.69,0.11,1.07,0.13c0.17,0.01,0.35,0.01,0.53,0.01
					c0.56,0,1.1-0.05,1.59-0.14c1.41-0.26,2.15-0.87,2.15-1.57l0.25-0.89c-0.57-0.63-2.29-0.79-3.99-0.79
					C29.41,13.4,27.49,13.85,26.77,14.28z"/>
			</g>
			<g class="st3">
				<path class="st4" d="M29.17,15.15v1.49c0.34,0.06,0.69,0.11,1.07,0.13v-1.62H29.17z"/>
			</g>
			<g>
				<path class="st5" d="M32.18,16.67v-3.23c1.16,0.08,2.15,0.29,2.57,0.75v0.9C34.75,15.81,33.68,16.43,32.18,16.67z"/>
			</g>
			<g>
				<ellipse class="st6" cx="30.76" cy="14.28" rx="3.99" ry="1.69"/>
			</g>
			<g>
				<path class="st4" d="M28.48,15.61c-0.68-0.21-1.19-0.51-1.44-0.84l3.21-2.12c0.19-0.01,0.37-0.02,0.55-0.02
					c0.66,0,1.31,0.07,1.89,0.2L28.48,15.61z"/>
			</g>
			<g>
				<path class="st4" d="M30.24,15.91c-0.32-0.02-0.63-0.06-0.93-0.11l4.15-2.73c0.24,0.09,0.45,0.19,0.63,0.31L30.24,15.91z"/>
			</g>
		</g>
		<g>
			<g>
				<ellipse class="st1" cx="30.76" cy="14.09" rx="3.99" ry="1.69"/>
			</g>
			<g>
				<path class="st2" d="M26.77,13.11v0.81c0,0.7,0.99,1.29,2.4,1.55c0.34,0.06,0.69,0.11,1.07,0.13c0.17,0.01,0.35,0.01,0.53,0.01
					c0.56,0,1.1-0.05,1.59-0.14c1.41-0.26,2.15-0.87,2.15-1.57l0.25-0.89c-0.57-0.63-2.29-0.79-3.99-0.79
					C29.41,12.23,27.49,12.67,26.77,13.11z"/>
			</g>
			<g class="st3">
				<path class="st4" d="M29.17,13.98v1.49c0.34,0.06,0.69,0.11,1.07,0.13v-1.62H29.17z"/>
			</g>
			<g>
				<path class="st5" d="M32.18,15.5v-3.23c1.16,0.08,2.15,0.29,2.57,0.75v0.9C34.75,14.64,33.68,15.26,32.18,15.5z"/>
			</g>
			<g>
				<ellipse class="st6" cx="30.76" cy="13.11" rx="3.99" ry="1.69"/>
			</g>
			<g>
				<path class="st4" d="M28.48,14.43c-0.68-0.21-1.19-0.51-1.44-0.84l3.21-2.12c0.19-0.01,0.37-0.02,0.55-0.02
					c0.66,0,1.31,0.07,1.89,0.2L28.48,14.43z"/>
			</g>
			<g>
				<path class="st4" d="M30.24,14.74c-0.32-0.02-0.63-0.06-0.93-0.11l4.15-2.73c0.24,0.09,0.45,0.19,0.63,0.31L30.24,14.74z"/>
			</g>
		</g>
		<g>
			<g>
				<ellipse class="st1" cx="30.76" cy="12.92" rx="3.99" ry="1.69"/>
			</g>
			<g>
				<path class="st2" d="M26.77,11.93v0.81c0,0.7,0.99,1.29,2.4,1.55c0.34,0.06,0.69,0.11,1.07,0.13c0.17,0.01,0.35,0.01,0.53,0.01
					c0.56,0,1.1-0.05,1.59-0.14c1.41-0.26,2.15-0.87,2.15-1.57l0.25-0.89c-0.57-0.63-2.29-0.79-3.99-0.79
					C29.41,11.06,27.49,11.5,26.77,11.93z"/>
			</g>
			<g class="st3">
				<path class="st4" d="M29.17,12.81v1.49c0.34,0.06,0.69,0.11,1.07,0.13v-1.62H29.17z"/>
			</g>
			<g>
				<path class="st5" d="M32.18,14.33V11.1c1.16,0.08,2.15,0.29,2.57,0.75v0.9C34.75,13.47,33.68,14.08,32.18,14.33z"/>
			</g>
			<g>
				<ellipse class="st6" cx="30.76" cy="11.93" rx="3.99" ry="1.69"/>
			</g>
			<g>
				<path class="st4" d="M28.48,13.26c-0.68-0.21-1.19-0.51-1.44-0.84l3.21-2.12c0.19-0.01,0.37-0.02,0.55-0.02
					c0.66,0,1.31,0.07,1.89,0.2L28.48,13.26z"/>
			</g>
			<g>
				<path class="st4" d="M30.24,13.56c-0.32-0.02-0.63-0.06-0.93-0.11l4.15-2.73c0.24,0.09,0.45,0.19,0.63,0.31L30.24,13.56z"/>
			</g>
		</g>
		<g>
			<g>
				<ellipse class="st1" cx="30.76" cy="11.75" rx="3.99" ry="1.69"/>
			</g>
			<g>
				<path class="st2" d="M26.77,10.76v0.81c0,0.7,0.99,1.29,2.4,1.55c0.34,0.06,0.69,0.11,1.07,0.13c0.17,0.01,0.35,0.01,0.53,0.01
					c0.56,0,1.1-0.05,1.59-0.14c1.41-0.26,2.15-0.87,2.15-1.57l0.25-0.89c-0.57-0.63-2.29-0.79-3.99-0.79
					C29.41,9.88,27.49,10.33,26.77,10.76z"/>
			</g>
			<g class="st3">
				<path class="st4" d="M29.17,11.63v1.49c0.34,0.06,0.69,0.11,1.07,0.13v-1.62H29.17z"/>
			</g>
			<g>
				<path class="st5" d="M32.18,13.15V9.93c1.16,0.08,2.15,0.29,2.57,0.75v0.9C34.75,12.29,33.68,12.91,32.18,13.15z"/>
			</g>
			<g>
				<ellipse class="st6" cx="30.76" cy="10.76" rx="3.99" ry="1.69"/>
			</g>
			<g>
				<path class="st4" d="M28.48,12.09c-0.68-0.21-1.19-0.51-1.44-0.84l3.21-2.12c0.19-0.01,0.37-0.02,0.55-0.02
					c0.66,0,1.31,0.07,1.89,0.2L28.48,12.09z"/>
			</g>
			<g>
				<path class="st4" d="M30.24,12.39c-0.32-0.02-0.63-0.06-0.93-0.11l4.15-2.73c0.24,0.09,0.45,0.19,0.63,0.31L30.24,12.39z"/>
			</g>
		</g>
	</g>
	<g>
		<g>
			<g>
				<path class="st1" d="M10.45,27.42c0,0.93,1.79,1.69,3.99,1.69c2.2,0,3.99-0.76,3.99-1.69c0-0.93-1.79-1.69-3.99-1.69
					C12.24,25.72,10.45,26.48,10.45,27.42z"/>
			</g>
			<g>
				<path class="st2" d="M10.45,26.43v0.81c0,0.7,0.99,1.29,2.4,1.55c0.34,0.06,0.69,0.11,1.07,0.13c0.17,0.01,0.35,0.01,0.53,0.01
					c0.56,0,1.1-0.05,1.59-0.14c1.41-0.26,2.15-0.87,2.15-1.57l0.25-0.89c-0.57-0.63-2.29-0.79-3.99-0.79
					C13.09,25.55,11.17,25.99,10.45,26.43z"/>
			</g>
			<g class="st3">
				<path class="st4" d="M12.85,27.3v1.49c0.34,0.06,0.69,0.11,1.07,0.13V27.3H12.85z"/>
			</g>
			<g>
				<path class="st5" d="M15.86,28.82v-3.23c1.16,0.08,2.15,0.29,2.57,0.75v0.9C18.43,27.96,17.36,28.58,15.86,28.82z"/>
			</g>
			<g>
				<ellipse class="st6" cx="14.44" cy="26.43" rx="3.99" ry="1.69"/>
			</g>
			<g>
				<path class="st4" d="M12.16,27.76c-0.68-0.21-1.19-0.51-1.44-0.84l3.21-2.12c0.19-0.01,0.37-0.02,0.55-0.02
					c0.66,0,1.31,0.07,1.89,0.2L12.16,27.76z"/>
			</g>
			<g>
				<path class="st4" d="M13.92,28.06c-0.32-0.02-0.63-0.06-0.93-0.11l4.15-2.73c0.24,0.09,0.45,0.19,0.63,0.31L13.92,28.06z"/>
			</g>
		</g>
		<g>
			<g>
				<path class="st1" d="M10.45,26.24c0,0.93,1.79,1.69,3.99,1.69c2.2,0,3.99-0.76,3.99-1.69c0-0.93-1.79-1.69-3.99-1.69
					C12.24,24.55,10.45,25.31,10.45,26.24z"/>
			</g>
			<g>
				<path class="st2" d="M10.45,25.25v0.81c0,0.7,0.99,1.29,2.4,1.55c0.34,0.06,0.69,0.11,1.07,0.13c0.17,0.01,0.35,0.01,0.53,0.01
					c0.56,0,1.1-0.05,1.59-0.14c1.41-0.26,2.15-0.87,2.15-1.57l0.25-0.89c-0.57-0.63-2.29-0.79-3.99-0.79
					C13.09,24.38,11.17,24.82,10.45,25.25z"/>
			</g>
			<g class="st3">
				<path class="st4" d="M12.85,26.13v1.49c0.34,0.06,0.69,0.11,1.07,0.13v-1.62H12.85z"/>
			</g>
			<g>
				<path class="st5" d="M15.86,27.65v-3.23c1.16,0.08,2.15,0.29,2.57,0.75v0.9C18.43,26.79,17.36,27.4,15.86,27.65z"/>
			</g>
			<g>
				<ellipse class="st6" cx="14.44" cy="25.26" rx="3.99" ry="1.69"/>
			</g>
			<g>
				<path class="st4" d="M12.16,26.58c-0.68-0.21-1.19-0.51-1.44-0.84l3.21-2.12c0.19-0.01,0.37-0.02,0.55-0.02
					c0.66,0,1.31,0.07,1.89,0.2L12.16,26.58z"/>
			</g>
			<g>
				<path class="st4" d="M13.92,26.88c-0.32-0.02-0.63-0.06-0.93-0.11l4.15-2.73c0.24,0.09,0.45,0.19,0.63,0.31L13.92,26.88z"/>
			</g>
		</g>
		<g>
			<g>
				<path class="st1" d="M10.45,25.07c0,0.93,1.79,1.69,3.99,1.69c2.2,0,3.99-0.76,3.99-1.69c0-0.93-1.79-1.69-3.99-1.69
					C12.24,23.38,10.45,24.13,10.45,25.07z"/>
			</g>
			<g>
				<path class="st2" d="M10.45,24.08v0.81c0,0.7,0.99,1.29,2.4,1.55c0.34,0.06,0.69,0.11,1.07,0.13c0.17,0.01,0.35,0.01,0.53,0.01
					c0.56,0,1.1-0.05,1.59-0.14c1.41-0.26,2.15-0.87,2.15-1.57L18.43,24c-0.57-0.63-2.29-0.79-3.99-0.79
					C13.09,23.2,11.17,23.65,10.45,24.08z"/>
			</g>
			<g class="st3">
				<path class="st4" d="M12.85,24.95v1.49c0.34,0.06,0.69,0.11,1.07,0.13v-1.62H12.85z"/>
			</g>
			<g>
				<path class="st5" d="M15.86,26.47v-3.23c1.16,0.08,2.15,0.29,2.57,0.75v0.9C18.43,25.61,17.36,26.23,15.86,26.47z"/>
			</g>
			<g>
				<ellipse class="st6" cx="14.44" cy="24.08" rx="3.99" ry="1.69"/>
			</g>
			<g>
				<path class="st4" d="M12.16,25.41c-0.68-0.21-1.19-0.51-1.44-0.84l3.21-2.12c0.19-0.01,0.37-0.02,0.55-0.02
					c0.66,0,1.31,0.07,1.89,0.2L12.16,25.41z"/>
			</g>
			<g>
				<path class="st4" d="M13.92,25.71c-0.32-0.02-0.63-0.06-0.93-0.11l4.15-2.73c0.24,0.09,0.45,0.19,0.63,0.31L13.92,25.71z"/>
			</g>
		</g>
		<g>
			<g>
				<path class="st1" d="M10.45,23.9c0,0.93,1.79,1.69,3.99,1.69c2.2,0,3.99-0.76,3.99-1.69c0-0.93-1.79-1.69-3.99-1.69
					C12.24,22.2,10.45,22.96,10.45,23.9z"/>
			</g>
			<g>
				<path class="st2" d="M10.45,22.91v0.81c0,0.7,0.99,1.29,2.4,1.55c0.34,0.06,0.69,0.11,1.07,0.13c0.17,0.01,0.35,0.01,0.53,0.01
					c0.56,0,1.1-0.05,1.59-0.14c1.41-0.26,2.15-0.87,2.15-1.57l0.25-0.89c-0.57-0.63-2.29-0.79-3.99-0.79
					C13.09,22.03,11.17,22.47,10.45,22.91z"/>
			</g>
			<g class="st3">
				<path class="st4" d="M12.85,23.78v1.49c0.34,0.06,0.69,0.11,1.07,0.13v-1.62H12.85z"/>
			</g>
			<g>
				<path class="st5" d="M15.86,25.3v-3.23c1.16,0.08,2.15,0.29,2.57,0.75v0.9C18.43,24.44,17.36,25.06,15.86,25.3z"/>
			</g>
			<g>
				<ellipse class="st6" cx="14.44" cy="22.91" rx="3.99" ry="1.69"/>
			</g>
			<g>
				<path class="st4" d="M12.16,24.24c-0.68-0.21-1.19-0.51-1.44-0.84l3.21-2.12c0.19-0.01,0.37-0.02,0.55-0.02
					c0.66,0,1.31,0.07,1.89,0.2L12.16,24.24z"/>
			</g>
			<g>
				<path class="st4" d="M13.92,24.54c-0.32-0.02-0.63-0.06-0.93-0.11l4.15-2.73c0.24,0.09,0.45,0.19,0.63,0.31L13.92,24.54z"/>
			</g>
		</g>
		<g>
			<g>
				<path class="st1" d="M10.45,22.72c0,0.93,1.79,1.69,3.99,1.69c2.2,0,3.99-0.76,3.99-1.69c0-0.93-1.79-1.69-3.99-1.69
					C12.24,21.03,10.45,21.79,10.45,22.72z"/>
			</g>
			<g>
				<path class="st2" d="M10.45,21.73v0.81c0,0.7,0.99,1.29,2.4,1.55c0.34,0.06,0.69,0.11,1.07,0.13c0.17,0.01,0.35,0.01,0.53,0.01
					c0.56,0,1.1-0.05,1.59-0.14c1.41-0.26,2.15-0.87,2.15-1.57l0.25-0.89c-0.57-0.63-2.29-0.79-3.99-0.79
					C13.09,20.86,11.17,21.3,10.45,21.73z"/>
			</g>
			<g class="st3">
				<path class="st4" d="M12.85,22.61v1.49c0.34,0.06,0.69,0.11,1.07,0.13v-1.62H12.85z"/>
			</g>
			<g>
				<path class="st5" d="M15.86,24.13V20.9c1.16,0.08,2.15,0.29,2.57,0.75v0.9C18.43,23.27,17.36,23.88,15.86,24.13z"/>
			</g>
			<g>
				<ellipse class="st6" cx="14.44" cy="21.74" rx="3.99" ry="1.69"/>
			</g>
			<g>
				<path class="st4" d="M12.16,23.06c-0.68-0.21-1.19-0.51-1.44-0.84l3.21-2.12c0.19-0.01,0.37-0.02,0.55-0.02
					c0.66,0,1.31,0.07,1.89,0.2L12.16,23.06z"/>
			</g>
			<g>
				<path class="st4" d="M13.92,23.36c-0.32-0.02-0.63-0.06-0.93-0.11l4.15-2.73c0.24,0.09,0.45,0.19,0.63,0.31L13.92,23.36z"/>
			</g>
		</g>
		<g>
			<g>
				<path class="st1" d="M10.45,21.55c0,0.93,1.79,1.69,3.99,1.69c2.2,0,3.99-0.76,3.99-1.69c0-0.93-1.79-1.69-3.99-1.69
					C12.24,19.86,10.45,20.62,10.45,21.55z"/>
			</g>
			<g>
				<path class="st2" d="M10.45,20.56v0.81c0,0.7,0.99,1.29,2.4,1.55c0.34,0.06,0.69,0.11,1.07,0.13c0.17,0.01,0.35,0.01,0.53,0.01
					c0.56,0,1.1-0.05,1.59-0.14c1.41-0.26,2.15-0.87,2.15-1.57l0.25-0.89c-0.57-0.63-2.29-0.79-3.99-0.79
					C13.09,19.68,11.17,20.13,10.45,20.56z"/>
			</g>
			<g class="st3">
				<path class="st4" d="M12.85,21.43v1.49c0.34,0.06,0.69,0.11,1.07,0.13v-1.62H12.85z"/>
			</g>
			<g>
				<path class="st5" d="M15.86,22.95v-3.23c1.16,0.08,2.15,0.29,2.57,0.75v0.9C18.43,22.09,17.36,22.71,15.86,22.95z"/>
			</g>
			<g>
				<ellipse class="st6" cx="14.44" cy="20.56" rx="3.99" ry="1.69"/>
			</g>
			<g>
				<path class="st4" d="M12.16,21.89c-0.68-0.21-1.19-0.51-1.44-0.84l3.21-2.12c0.19-0.01,0.37-0.02,0.55-0.02
					c0.66,0,1.31,0.07,1.89,0.2L12.16,21.89z"/>
			</g>
			<g>
				<path class="st4" d="M13.92,22.19c-0.32-0.02-0.63-0.06-0.93-0.11l4.15-2.73c0.24,0.09,0.45,0.19,0.63,0.31L13.92,22.19z"/>
			</g>
		</g>
		<g>
			<g>
				<path class="st1" d="M10.45,20.38c0,0.93,1.79,1.69,3.99,1.69c2.2,0,3.99-0.76,3.99-1.69c0-0.93-1.79-1.69-3.99-1.69
					C12.24,18.68,10.45,19.44,10.45,20.38z"/>
			</g>
			<g>
				<path class="st2" d="M10.45,19.39v0.81c0,0.7,0.99,1.29,2.4,1.55c0.34,0.06,0.69,0.11,1.07,0.13c0.17,0.01,0.35,0.01,0.53,0.01
					c0.56,0,1.1-0.05,1.59-0.14c1.41-0.26,2.15-0.87,2.15-1.57l0.25-0.89c-0.57-0.63-2.29-0.79-3.99-0.79
					C13.09,18.51,11.17,18.95,10.45,19.39z"/>
			</g>
			<g class="st3">
				<path class="st4" d="M12.85,20.26v1.49c0.34,0.06,0.69,0.11,1.07,0.13v-1.62H12.85z"/>
			</g>
			<g>
				<path class="st5" d="M15.86,21.78v-3.23c1.16,0.08,2.15,0.29,2.57,0.75v0.9C18.43,20.92,17.36,21.54,15.86,21.78z"/>
			</g>
			<g>
				<ellipse class="st6" cx="14.44" cy="19.39" rx="3.99" ry="1.69"/>
			</g>
			<g>
				<path class="st4" d="M12.16,20.72c-0.68-0.21-1.19-0.51-1.44-0.84l3.21-2.12c0.19-0.01,0.37-0.02,0.55-0.02
					c0.66,0,1.31,0.07,1.89,0.2L12.16,20.72z"/>
			</g>
			<g>
				<path class="st4" d="M13.92,21.02c-0.32-0.02-0.63-0.06-0.93-0.11l4.15-2.73c0.24,0.09,0.45,0.19,0.63,0.31L13.92,21.02z"/>
			</g>
		</g>
		<g>
			<g>
				<path class="st1" d="M10.45,19.2c0,0.93,1.79,1.69,3.99,1.69c2.2,0,3.99-0.76,3.99-1.69c0-0.93-1.79-1.69-3.99-1.69
					C12.24,17.51,10.45,18.27,10.45,19.2z"/>
			</g>
			<g>
				<path class="st2" d="M10.45,18.21v0.81c0,0.7,0.99,1.29,2.4,1.55c0.34,0.06,0.69,0.11,1.07,0.13c0.17,0.01,0.35,0.01,0.53,0.01
					c0.56,0,1.1-0.05,1.59-0.14c1.41-0.26,2.15-0.87,2.15-1.57l0.25-0.89c-0.57-0.63-2.29-0.79-3.99-0.79
					C13.09,17.34,11.17,17.78,10.45,18.21z"/>
			</g>
			<g class="st3">
				<path class="st4" d="M12.85,19.09v1.49c0.34,0.06,0.69,0.11,1.07,0.13v-1.62H12.85z"/>
			</g>
			<g>
				<path class="st5" d="M15.86,20.61v-3.23c1.16,0.08,2.15,0.29,2.57,0.75v0.9C18.43,19.75,17.36,20.36,15.86,20.61z"/>
			</g>
			<g>
				<ellipse class="st6" cx="14.44" cy="18.22" rx="3.99" ry="1.69"/>
			</g>
			<g>
				<path class="st4" d="M12.16,19.54c-0.68-0.21-1.19-0.51-1.44-0.84l3.21-2.12c0.19-0.01,0.37-0.02,0.55-0.02
					c0.66,0,1.31,0.07,1.89,0.2L12.16,19.54z"/>
			</g>
			<g>
				<path class="st4" d="M13.92,19.84c-0.32-0.02-0.63-0.06-0.93-0.11l4.15-2.73c0.24,0.09,0.45,0.19,0.63,0.31L13.92,19.84z"/>
			</g>
		</g>
		<g>
			<g>
				<path class="st1" d="M10.45,18.03c0,0.93,1.79,1.69,3.99,1.69c2.2,0,3.99-0.76,3.99-1.69c0-0.93-1.79-1.69-3.99-1.69
					C12.24,16.34,10.45,17.1,10.45,18.03z"/>
			</g>
			<g>
				<path class="st2" d="M10.45,17.04v0.81c0,0.7,0.99,1.29,2.4,1.55c0.34,0.06,0.69,0.11,1.07,0.13c0.17,0.01,0.35,0.01,0.53,0.01
					c0.56,0,1.1-0.05,1.59-0.14c1.41-0.26,2.15-0.87,2.15-1.57l0.25-0.89c-0.57-0.63-2.29-0.79-3.99-0.79
					C13.09,16.16,11.17,16.61,10.45,17.04z"/>
			</g>
			<g class="st3">
				<path class="st4" d="M12.85,17.91v1.49c0.34,0.06,0.69,0.11,1.07,0.13v-1.62H12.85z"/>
			</g>
			<g>
				<path class="st5" d="M15.86,19.43v-3.23c1.16,0.08,2.15,0.29,2.57,0.75v0.9C18.43,18.57,17.36,19.19,15.86,19.43z"/>
			</g>
			<g>
				<ellipse class="st6" cx="14.44" cy="17.04" rx="3.99" ry="1.69"/>
			</g>
			<g>
				<path class="st4" d="M12.16,18.37c-0.68-0.21-1.19-0.51-1.44-0.84l3.21-2.12c0.19-0.01,0.37-0.02,0.55-0.02
					c0.66,0,1.31,0.07,1.89,0.2L12.16,18.37z"/>
			</g>
			<g>
				<path class="st4" d="M13.92,18.67c-0.32-0.02-0.63-0.06-0.93-0.11l4.15-2.73c0.24,0.09,0.45,0.19,0.63,0.31L13.92,18.67z"/>
			</g>
		</g>
		<g>
			<g>
				<path class="st1" d="M10.45,16.86c0,0.93,1.79,1.69,3.99,1.69c2.2,0,3.99-0.76,3.99-1.69c0-0.93-1.79-1.69-3.99-1.69
					C12.24,15.16,10.45,15.92,10.45,16.86z"/>
			</g>
			<g>
				<path class="st2" d="M10.45,15.87v0.81c0,0.7,0.99,1.29,2.4,1.55c0.34,0.06,0.69,0.11,1.07,0.13c0.17,0.01,0.35,0.01,0.53,0.01
					c0.56,0,1.1-0.05,1.59-0.14c1.41-0.26,2.15-0.87,2.15-1.57l0.25-0.89c-0.57-0.63-2.29-0.79-3.99-0.79
					C13.09,14.99,11.17,15.43,10.45,15.87z"/>
			</g>
			<g class="st3">
				<path class="st4" d="M12.85,16.74v1.49c0.34,0.06,0.69,0.11,1.07,0.13v-1.62H12.85z"/>
			</g>
			<g>
				<path class="st5" d="M15.86,18.26v-3.23c1.16,0.08,2.15,0.29,2.57,0.75v0.9C18.43,17.4,17.36,18.02,15.86,18.26z"/>
			</g>
			<g>
				<ellipse class="st6" cx="14.44" cy="15.87" rx="3.99" ry="1.69"/>
			</g>
			<g>
				<path class="st4" d="M12.16,17.2c-0.68-0.21-1.19-0.51-1.44-0.84l3.21-2.12c0.19-0.01,0.37-0.02,0.55-0.02
					c0.66,0,1.31,0.07,1.89,0.2L12.16,17.2z"/>
			</g>
			<g>
				<path class="st4" d="M13.92,17.5c-0.32-0.02-0.63-0.06-0.93-0.11l4.15-2.73c0.24,0.09,0.45,0.19,0.63,0.31L13.92,17.5z"/>
			</g>
		</g>
		<g>
			<g>
				<path class="st1" d="M10.45,15.68c0,0.93,1.79,1.69,3.99,1.69c2.2,0,3.99-0.76,3.99-1.69c0-0.93-1.79-1.69-3.99-1.69
					C12.24,13.99,10.45,14.75,10.45,15.68z"/>
			</g>
			<g>
				<path class="st2" d="M10.45,14.69v0.81c0,0.7,0.99,1.29,2.4,1.55c0.34,0.06,0.69,0.11,1.07,0.13c0.17,0.01,0.35,0.01,0.53,0.01
					c0.56,0,1.1-0.05,1.59-0.14c1.41-0.26,2.15-0.87,2.15-1.57l0.25-0.89c-0.57-0.63-2.29-0.79-3.99-0.79
					C13.09,13.82,11.17,14.26,10.45,14.69z"/>
			</g>
			<g class="st3">
				<path class="st4" d="M12.85,15.57v1.49c0.34,0.06,0.69,0.11,1.07,0.13v-1.62H12.85z"/>
			</g>
			<g>
				<path class="st5" d="M15.86,17.09v-3.23c1.16,0.08,2.15,0.29,2.57,0.75v0.9C18.43,16.23,17.36,16.84,15.86,17.09z"/>
			</g>
			<g>
				<ellipse class="st6" cx="14.44" cy="14.7" rx="3.99" ry="1.69"/>
			</g>
			<g>
				<path class="st4" d="M12.16,16.02c-0.68-0.21-1.19-0.51-1.44-0.84l3.21-2.12c0.19-0.01,0.37-0.02,0.55-0.02
					c0.66,0,1.31,0.07,1.89,0.2L12.16,16.02z"/>
			</g>
			<g>
				<path class="st4" d="M13.92,16.32c-0.32-0.02-0.63-0.06-0.93-0.11l4.15-2.73c0.24,0.09,0.45,0.19,0.63,0.31L13.92,16.32z"/>
			</g>
		</g>
		<g>
			<g>
				<path class="st1" d="M10.45,14.51c0,0.93,1.79,1.69,3.99,1.69c2.2,0,3.99-0.76,3.99-1.69c0-0.93-1.79-1.69-3.99-1.69
					C12.24,12.82,10.45,13.58,10.45,14.51z"/>
			</g>
			<g>
				<path class="st2" d="M10.45,13.52v0.81c0,0.7,0.99,1.29,2.4,1.55c0.34,0.06,0.69,0.11,1.07,0.13c0.17,0.01,0.35,0.01,0.53,0.01
					c0.56,0,1.1-0.05,1.59-0.14c1.41-0.26,2.15-0.87,2.15-1.57l0.25-0.89c-0.57-0.63-2.29-0.79-3.99-0.79
					C13.09,12.64,11.17,13.09,10.45,13.52z"/>
			</g>
			<g class="st3">
				<path class="st4" d="M12.85,14.39v1.49c0.34,0.06,0.69,0.11,1.07,0.13v-1.62H12.85z"/>
			</g>
			<g>
				<path class="st5" d="M15.86,15.91v-3.23c1.16,0.08,2.15,0.29,2.57,0.75v0.9C18.43,15.05,17.36,15.67,15.86,15.91z"/>
			</g>
			<g>
				<ellipse class="st6" cx="14.44" cy="13.52" rx="3.99" ry="1.69"/>
			</g>
			<g>
				<path class="st4" d="M12.16,14.85c-0.68-0.21-1.19-0.51-1.44-0.84l3.21-2.12c0.19-0.01,0.37-0.02,0.55-0.02
					c0.66,0,1.31,0.07,1.89,0.2L12.16,14.85z"/>
			</g>
			<g>
				<path class="st4" d="M13.92,15.15c-0.32-0.02-0.63-0.06-0.93-0.11l4.15-2.73c0.24,0.09,0.45,0.19,0.63,0.31L13.92,15.15z"/>
			</g>
		</g>
		<g>
			<g>
				<path class="st1" d="M10.45,13.34c0,0.93,1.79,1.69,3.99,1.69c2.2,0,3.99-0.76,3.99-1.69c0-0.93-1.79-1.69-3.99-1.69
					C12.24,11.64,10.45,12.4,10.45,13.34z"/>
			</g>
			<g>
				<path class="st2" d="M10.45,12.35v0.81c0,0.7,0.99,1.29,2.4,1.55c0.34,0.06,0.69,0.11,1.07,0.13c0.17,0.01,0.35,0.01,0.53,0.01
					c0.56,0,1.1-0.05,1.59-0.14c1.41-0.26,2.15-0.87,2.15-1.57l0.25-0.89c-0.57-0.63-2.29-0.79-3.99-0.79
					C13.09,11.47,11.17,11.91,10.45,12.35z"/>
			</g>
			<g class="st3">
				<path class="st4" d="M12.85,13.22v1.49c0.34,0.06,0.69,0.11,1.07,0.13v-1.62H12.85z"/>
			</g>
			<g>
				<path class="st5" d="M15.86,14.74v-3.23c1.16,0.08,2.15,0.29,2.57,0.75v0.9C18.43,13.88,17.36,14.5,15.86,14.74z"/>
			</g>
			<g>
				<ellipse class="st6" cx="14.44" cy="12.35" rx="3.99" ry="1.69"/>
			</g>
			<g>
				<path class="st4" d="M12.16,13.68c-0.68-0.21-1.19-0.51-1.44-0.84l3.21-2.12c0.19-0.01,0.37-0.02,0.55-0.02
					c0.66,0,1.31,0.07,1.89,0.2L12.16,13.68z"/>
			</g>
			<g>
				<path class="st4" d="M13.92,13.98c-0.32-0.02-0.63-0.06-0.93-0.11l4.15-2.73c0.24,0.09,0.45,0.19,0.63,0.31L13.92,13.98z"/>
			</g>
		</g>
		<g>
			<g>
				<path class="st1" d="M10.45,12.16c0,0.93,1.79,1.69,3.99,1.69c2.2,0,3.99-0.76,3.99-1.69c0-0.93-1.79-1.69-3.99-1.69
					C12.24,10.47,10.45,11.23,10.45,12.16z"/>
			</g>
			<g>
				<path class="st2" d="M10.45,11.18v0.81c0,0.7,0.99,1.29,2.4,1.55c0.34,0.06,0.69,0.11,1.07,0.13c0.17,0.01,0.35,0.01,0.53,0.01
					c0.56,0,1.1-0.05,1.59-0.14c1.41-0.26,2.15-0.87,2.15-1.57l0.25-0.89c-0.57-0.63-2.29-0.79-3.99-0.79
					C13.09,10.3,11.17,10.74,10.45,11.18z"/>
			</g>
			<g class="st3">
				<path class="st4" d="M12.85,12.05v1.49c0.34,0.06,0.69,0.11,1.07,0.13v-1.62H12.85z"/>
			</g>
			<g>
				<path class="st5" d="M15.86,13.57v-3.23c1.16,0.08,2.15,0.29,2.57,0.75v0.9C18.43,12.71,17.36,13.32,15.86,13.57z"/>
			</g>
			<g>
				<ellipse class="st6" cx="14.44" cy="11.18" rx="3.99" ry="1.69"/>
			</g>
			<g>
				<path class="st4" d="M12.16,12.5c-0.68-0.21-1.19-0.51-1.44-0.84l3.21-2.12c0.19-0.01,0.37-0.02,0.55-0.02
					c0.66,0,1.31,0.07,1.89,0.2L12.16,12.5z"/>
			</g>
			<g>
				<path class="st4" d="M13.92,12.8c-0.32-0.02-0.63-0.06-0.93-0.11l4.15-2.73c0.24,0.09,0.45,0.19,0.63,0.31L13.92,12.8z"/>
			</g>
		</g>
		<g>
			<g>
				<path class="st1" d="M10.45,10.99c0,0.93,1.79,1.69,3.99,1.69c2.2,0,3.99-0.76,3.99-1.69c0-0.93-1.79-1.69-3.99-1.69
					C12.24,9.3,10.45,10.06,10.45,10.99z"/>
			</g>
			<g>
				<path class="st2" d="M10.45,10v0.81c0,0.7,0.99,1.29,2.4,1.55c0.34,0.06,0.69,0.11,1.07,0.13c0.17,0.01,0.35,0.01,0.53,0.01
					c0.56,0,1.1-0.05,1.59-0.14c1.41-0.26,2.15-0.87,2.15-1.57l0.25-0.89c-0.57-0.63-2.29-0.79-3.99-0.79
					C13.09,9.12,11.17,9.57,10.45,10z"/>
			</g>
			<g class="st3">
				<path class="st4" d="M12.85,10.87v1.49c0.34,0.06,0.69,0.11,1.07,0.13v-1.62H12.85z"/>
			</g>
			<g>
				<path class="st5" d="M15.86,12.39V9.17c1.16,0.08,2.15,0.29,2.57,0.75v0.9C18.43,11.53,17.36,12.15,15.86,12.39z"/>
			</g>
			<g>
				<ellipse class="st6" cx="14.44" cy="10" rx="3.99" ry="1.69"/>
			</g>
			<g>
				<path class="st4" d="M12.16,11.33c-0.68-0.21-1.19-0.51-1.44-0.84l3.21-2.12c0.19-0.01,0.37-0.02,0.55-0.02
					c0.66,0,1.31,0.07,1.89,0.2L12.16,11.33z"/>
			</g>
			<g>
				<path class="st4" d="M13.92,11.63c-0.32-0.02-0.63-0.06-0.93-0.11l4.15-2.73c0.24,0.09,0.45,0.19,0.63,0.31L13.92,11.63z"/>
			</g>
		</g>
		<g>
			<g>
				<path class="st1" d="M10.45,9.82c0,0.93,1.79,1.69,3.99,1.69c2.2,0,3.99-0.76,3.99-1.69c0-0.93-1.79-1.69-3.99-1.69
					C12.24,8.12,10.45,8.88,10.45,9.82z"/>
			</g>
			<g>
				<path class="st2" d="M10.45,8.83v0.81c0,0.7,0.99,1.29,2.4,1.55c0.34,0.06,0.69,0.11,1.07,0.13c0.17,0.01,0.35,0.01,0.53,0.01
					c0.56,0,1.1-0.05,1.59-0.14c1.41-0.26,2.15-0.87,2.15-1.57l0.25-0.89c-0.57-0.63-2.29-0.79-3.99-0.79
					C13.09,7.95,11.17,8.39,10.45,8.83z"/>
			</g>
			<g class="st3">
				<path class="st4" d="M12.85,9.7v1.49c0.34,0.06,0.69,0.11,1.07,0.13V9.7H12.85z"/>
			</g>
			<g>
				<path class="st5" d="M15.86,11.22V7.99c1.16,0.08,2.15,0.29,2.57,0.75v0.9C18.43,10.36,17.36,10.98,15.86,11.22z"/>
			</g>
			<g>
				<ellipse class="st6" cx="14.44" cy="8.83" rx="3.99" ry="1.69"/>
			</g>
			<g>
				<path class="st4" d="M12.16,10.16c-0.68-0.21-1.19-0.51-1.44-0.84l3.21-2.12c0.19-0.01,0.37-0.02,0.55-0.02
					c0.66,0,1.31,0.07,1.89,0.2L12.16,10.16z"/>
			</g>
			<g>
				<path class="st4" d="M13.92,10.46c-0.32-0.02-0.63-0.06-0.93-0.11l4.15-2.73c0.24,0.09,0.45,0.19,0.63,0.31L13.92,10.46z"/>
			</g>
		</g>
	</g>
	<g>
		<g>
			<g>
				<ellipse class="st1" cx="21.84" cy="22.67" rx="3.99" ry="1.69"/>
			</g>
			<g>
				<path class="st2" d="M17.85,21.68v0.81c0,0.7,0.99,1.29,2.4,1.55c0.34,0.06,0.69,0.11,1.07,0.13c0.17,0.01,0.35,0.01,0.53,0.01
					c0.56,0,1.1-0.05,1.59-0.14c1.41-0.26,2.15-0.87,2.15-1.57l0.25-0.89c-0.57-0.63-2.29-0.79-3.99-0.79
					C20.49,20.8,18.57,21.24,17.85,21.68z"/>
			</g>
			<g class="st3">
				<path class="st4" d="M20.25,22.55v1.49c0.34,0.06,0.69,0.11,1.07,0.13v-1.62H20.25z"/>
			</g>
			<g>
				<path class="st5" d="M23.26,24.07v-3.23c1.16,0.08,2.15,0.29,2.57,0.75v0.9C25.83,23.21,24.76,23.83,23.26,24.07z"/>
			</g>
			<g>
				<ellipse class="st6" cx="21.84" cy="21.68" rx="3.99" ry="1.69"/>
			</g>
			<g>
				<path class="st4" d="M19.56,23.01c-0.68-0.21-1.19-0.51-1.44-0.84l3.21-2.12c0.18-0.01,0.37-0.02,0.55-0.02
					c0.66,0,1.31,0.07,1.89,0.2L19.56,23.01z"/>
			</g>
			<g>
				<path class="st4" d="M21.32,23.31c-0.32-0.02-0.63-0.05-0.93-0.11l4.15-2.73c0.24,0.09,0.45,0.19,0.63,0.31L21.32,23.31z"/>
			</g>
		</g>
		<g>
			<g>
				<ellipse class="st1" cx="21.84" cy="21.49" rx="3.99" ry="1.69"/>
			</g>
			<g>
				<path class="st2" d="M17.85,20.51v0.81c0,0.7,0.99,1.29,2.4,1.55c0.34,0.06,0.69,0.11,1.07,0.13c0.17,0.01,0.35,0.01,0.53,0.01
					c0.56,0,1.1-0.05,1.59-0.14c1.41-0.26,2.15-0.87,2.15-1.57l0.25-0.89c-0.57-0.63-2.29-0.79-3.99-0.79
					C20.49,19.63,18.57,20.07,17.85,20.51z"/>
			</g>
			<g class="st3">
				<path class="st4" d="M20.25,21.38v1.49c0.34,0.06,0.69,0.11,1.07,0.13v-1.62H20.25z"/>
			</g>
			<g>
				<path class="st5" d="M23.26,22.9v-3.23c1.16,0.08,2.15,0.29,2.57,0.75v0.9C25.83,22.04,24.76,22.65,23.26,22.9z"/>
			</g>
			<g>
				<ellipse class="st6" cx="21.84" cy="20.51" rx="3.99" ry="1.69"/>
			</g>
			<g>
				<path class="st4" d="M19.56,21.83c-0.68-0.21-1.19-0.51-1.44-0.84l3.21-2.12c0.18-0.01,0.37-0.02,0.55-0.02
					c0.66,0,1.31,0.07,1.89,0.2L19.56,21.83z"/>
			</g>
			<g>
				<path class="st4" d="M21.32,22.13c-0.32-0.02-0.63-0.05-0.93-0.11l4.15-2.73c0.24,0.09,0.45,0.19,0.63,0.31L21.32,22.13z"/>
			</g>
		</g>
		<g>
			<g>
				<ellipse class="st1" cx="21.84" cy="20.32" rx="3.99" ry="1.69"/>
			</g>
			<g>
				<path class="st2" d="M17.85,19.33v0.81c0,0.7,0.99,1.29,2.4,1.55c0.34,0.06,0.69,0.11,1.07,0.13c0.17,0.01,0.35,0.01,0.53,0.01
					c0.56,0,1.1-0.05,1.59-0.14c1.41-0.26,2.15-0.87,2.15-1.57l0.25-0.89c-0.57-0.63-2.29-0.79-3.99-0.79
					C20.49,18.45,18.57,18.9,17.85,19.33z"/>
			</g>
			<g class="st3">
				<path class="st4" d="M20.25,20.2v1.49c0.34,0.06,0.69,0.11,1.07,0.13V20.2H20.25z"/>
			</g>
			<g>
				<path class="st5" d="M23.26,21.72V18.5c1.16,0.08,2.15,0.29,2.57,0.75v0.9C25.83,20.86,24.76,21.48,23.26,21.72z"/>
			</g>
			<g>
				<ellipse class="st6" cx="21.84" cy="19.33" rx="3.99" ry="1.69"/>
			</g>
			<g>
				<path class="st4" d="M19.56,20.66c-0.68-0.21-1.19-0.51-1.44-0.84l3.21-2.12c0.18-0.01,0.37-0.02,0.55-0.02
					c0.66,0,1.31,0.07,1.89,0.2L19.56,20.66z"/>
			</g>
			<g>
				<path class="st4" d="M21.32,20.96c-0.32-0.02-0.63-0.05-0.93-0.11l4.15-2.73c0.24,0.09,0.45,0.19,0.63,0.31L21.32,20.96z"/>
			</g>
		</g>
		<g>
			<g>
				<ellipse class="st1" cx="21.84" cy="19.15" rx="3.99" ry="1.69"/>
			</g>
			<g>
				<path class="st2" d="M17.85,18.16v0.81c0,0.7,0.99,1.29,2.4,1.55c0.34,0.06,0.69,0.11,1.07,0.13c0.17,0.01,0.35,0.01,0.53,0.01
					c0.56,0,1.1-0.05,1.59-0.14c1.41-0.26,2.15-0.87,2.15-1.57l0.25-0.89c-0.57-0.63-2.29-0.79-3.99-0.79
					C20.49,17.28,18.57,17.72,17.85,18.16z"/>
			</g>
			<g class="st3">
				<path class="st4" d="M20.25,19.03v1.49c0.34,0.06,0.69,0.11,1.07,0.13v-1.62H20.25z"/>
			</g>
			<g>
				<path class="st5" d="M23.26,20.55v-3.23c1.16,0.08,2.15,0.29,2.57,0.75v0.9C25.83,19.69,24.76,20.31,23.26,20.55z"/>
			</g>
			<g>
				<ellipse class="st6" cx="21.84" cy="18.16" rx="3.99" ry="1.69"/>
			</g>
			<g>
				<path class="st4" d="M19.56,19.49c-0.68-0.21-1.19-0.51-1.44-0.84l3.21-2.12c0.18-0.01,0.37-0.02,0.55-0.02
					c0.66,0,1.31,0.07,1.89,0.2L19.56,19.49z"/>
			</g>
			<g>
				<path class="st4" d="M21.32,19.79c-0.32-0.02-0.63-0.05-0.93-0.11l4.15-2.73c0.24,0.09,0.45,0.19,0.63,0.31L21.32,19.79z"/>
			</g>
		</g>
		<g>
			<g>
				<ellipse class="st1" cx="21.84" cy="17.97" rx="3.99" ry="1.69"/>
			</g>
			<g>
				<path class="st2" d="M17.85,16.99v0.81c0,0.7,0.99,1.29,2.4,1.55c0.34,0.06,0.69,0.11,1.07,0.13c0.17,0.01,0.35,0.01,0.53,0.01
					c0.56,0,1.1-0.05,1.59-0.14c1.41-0.26,2.15-0.87,2.15-1.57l0.25-0.89c-0.57-0.63-2.29-0.79-3.99-0.79
					C20.49,16.11,18.57,16.55,17.85,16.99z"/>
			</g>
			<g class="st3">
				<path class="st4" d="M20.25,17.86v1.49c0.34,0.06,0.69,0.11,1.07,0.13v-1.62H20.25z"/>
			</g>
			<g>
				<path class="st5" d="M23.26,19.38v-3.23c1.16,0.08,2.15,0.29,2.57,0.75v0.9C25.83,18.52,24.76,19.13,23.26,19.38z"/>
			</g>
			<g>
				<ellipse class="st6" cx="21.84" cy="16.99" rx="3.99" ry="1.69"/>
			</g>
			<g>
				<path class="st4" d="M19.56,18.31c-0.68-0.21-1.19-0.51-1.44-0.84l3.21-2.12c0.18-0.01,0.37-0.02,0.55-0.02
					c0.66,0,1.31,0.07,1.89,0.2L19.56,18.31z"/>
			</g>
			<g>
				<path class="st4" d="M21.32,18.61c-0.32-0.02-0.63-0.05-0.93-0.11l4.15-2.73c0.24,0.09,0.45,0.19,0.63,0.31L21.32,18.61z"/>
			</g>
		</g>
		<g>
			<g>
				<ellipse class="st1" cx="21.84" cy="16.8" rx="3.99" ry="1.69"/>
			</g>
			<g>
				<path class="st2" d="M17.85,15.81v0.81c0,0.7,0.99,1.29,2.4,1.55c0.34,0.06,0.69,0.11,1.07,0.13c0.17,0.01,0.35,0.01,0.53,0.01
					c0.56,0,1.1-0.05,1.59-0.14c1.41-0.26,2.15-0.87,2.15-1.57l0.25-0.89c-0.57-0.63-2.29-0.79-3.99-0.79
					C20.49,14.93,18.57,15.38,17.85,15.81z"/>
			</g>
			<g class="st3">
				<path class="st4" d="M20.25,16.68v1.49c0.34,0.06,0.69,0.11,1.07,0.13v-1.62H20.25z"/>
			</g>
			<g>
				<path class="st5" d="M23.26,18.2v-3.23c1.16,0.08,2.15,0.29,2.57,0.75v0.9C25.83,17.34,24.76,17.96,23.26,18.2z"/>
			</g>
			<g>
				<ellipse class="st6" cx="21.84" cy="15.81" rx="3.99" ry="1.69"/>
			</g>
			<g>
				<path class="st4" d="M19.56,17.14c-0.68-0.21-1.19-0.51-1.44-0.84l3.21-2.12c0.18-0.01,0.37-0.02,0.55-0.02
					c0.66,0,1.31,0.07,1.89,0.2L19.56,17.14z"/>
			</g>
			<g>
				<path class="st4" d="M21.32,17.44c-0.32-0.02-0.63-0.05-0.93-0.11l4.15-2.73c0.24,0.09,0.45,0.19,0.63,0.31L21.32,17.44z"/>
			</g>
		</g>
		<g>
			<g>
				<ellipse class="st1" cx="21.84" cy="15.63" rx="3.99" ry="1.69"/>
			</g>
			<g>
				<path class="st2" d="M17.85,14.64v0.81c0,0.7,0.99,1.29,2.4,1.55c0.34,0.06,0.69,0.11,1.07,0.13c0.17,0.01,0.35,0.01,0.53,0.01
					c0.56,0,1.1-0.05,1.59-0.14c1.41-0.26,2.15-0.87,2.15-1.57l0.25-0.89c-0.57-0.63-2.29-0.79-3.99-0.79
					C20.49,13.76,18.57,14.2,17.85,14.64z"/>
			</g>
			<g class="st3">
				<path class="st4" d="M20.25,15.51V17c0.34,0.06,0.69,0.11,1.07,0.13v-1.62H20.25z"/>
			</g>
			<g>
				<path class="st5" d="M23.26,17.03V13.8c1.16,0.08,2.15,0.29,2.57,0.75v0.9C25.83,16.17,24.76,16.79,23.26,17.03z"/>
			</g>
			<g>
				<ellipse class="st6" cx="21.84" cy="14.64" rx="3.99" ry="1.69"/>
			</g>
			<g>
				<path class="st4" d="M19.56,15.97c-0.68-0.21-1.19-0.51-1.44-0.84l3.21-2.12C21.52,13,21.7,13,21.88,13
					c0.66,0,1.31,0.07,1.89,0.2L19.56,15.97z"/>
			</g>
			<g>
				<path class="st4" d="M21.32,16.27c-0.32-0.02-0.63-0.05-0.93-0.11l4.15-2.73c0.24,0.09,0.45,0.19,0.63,0.31L21.32,16.27z"/>
			</g>
		</g>
		<g>
			<g>
				<ellipse class="st1" cx="21.84" cy="14.45" rx="3.99" ry="1.69"/>
			</g>
			<g>
				<path class="st2" d="M17.85,13.47v0.81c0,0.7,0.99,1.29,2.4,1.55c0.34,0.06,0.69,0.11,1.07,0.13c0.17,0.01,0.35,0.01,0.53,0.01
					c0.56,0,1.1-0.05,1.59-0.14c1.41-0.26,2.15-0.87,2.15-1.57l0.25-0.89c-0.57-0.63-2.29-0.79-3.99-0.79
					C20.49,12.59,18.57,13.03,17.85,13.47z"/>
			</g>
			<g class="st3">
				<path class="st4" d="M20.25,14.34v1.49c0.34,0.06,0.69,0.11,1.07,0.13v-1.62H20.25z"/>
			</g>
			<g>
				<path class="st5" d="M23.26,15.86v-3.23c1.16,0.08,2.15,0.29,2.57,0.75v0.9C25.83,15,24.76,15.61,23.26,15.86z"/>
			</g>
			<g>
				<ellipse class="st6" cx="21.84" cy="13.47" rx="3.99" ry="1.69"/>
			</g>
			<g>
				<path class="st4" d="M19.56,14.79c-0.68-0.21-1.19-0.51-1.44-0.84l3.21-2.12c0.18-0.01,0.37-0.02,0.55-0.02
					c0.66,0,1.31,0.07,1.89,0.2L19.56,14.79z"/>
			</g>
			<g>
				<path class="st4" d="M21.32,15.09c-0.32-0.02-0.63-0.05-0.93-0.11l4.15-2.73c0.24,0.09,0.45,0.19,0.63,0.31L21.32,15.09z"/>
			</g>
		</g>
		<g>
			<g>
				<ellipse class="st1" cx="21.84" cy="13.28" rx="3.99" ry="1.69"/>
			</g>
			<g>
				<path class="st2" d="M17.85,12.29v0.81c0,0.7,0.99,1.29,2.4,1.55c0.34,0.06,0.69,0.11,1.07,0.13c0.17,0.01,0.35,0.01,0.53,0.01
					c0.56,0,1.1-0.05,1.59-0.14c1.41-0.26,2.15-0.87,2.15-1.57l0.25-0.89c-0.57-0.63-2.29-0.79-3.99-0.79
					C20.49,11.41,18.57,11.86,17.85,12.29z"/>
			</g>
			<g class="st3">
				<path class="st4" d="M20.25,13.17v1.49c0.34,0.06,0.69,0.11,1.07,0.13v-1.62H20.25z"/>
			</g>
			<g>
				<path class="st5" d="M23.26,14.68v-3.23c1.16,0.08,2.15,0.29,2.57,0.75v0.9C25.83,13.83,24.76,14.44,23.26,14.68z"/>
			</g>
			<g>
				<ellipse class="st6" cx="21.84" cy="12.29" rx="3.99" ry="1.69"/>
			</g>
			<g>
				<path class="st4" d="M19.56,13.62c-0.68-0.21-1.19-0.51-1.44-0.84l3.21-2.12c0.18-0.01,0.37-0.02,0.55-0.02
					c0.66,0,1.31,0.07,1.89,0.2L19.56,13.62z"/>
			</g>
			<g>
				<path class="st4" d="M21.32,13.92c-0.32-0.02-0.63-0.05-0.93-0.11l4.15-2.73c0.24,0.09,0.45,0.19,0.63,0.31L21.32,13.92z"/>
			</g>
		</g>
		<g>
			<g>
				<ellipse class="st1" cx="21.84" cy="12.11" rx="3.99" ry="1.69"/>
			</g>
			<g>
				<path class="st2" d="M17.85,11.12v0.81c0,0.7,0.99,1.29,2.4,1.55c0.34,0.06,0.69,0.11,1.07,0.13c0.17,0.01,0.35,0.01,0.53,0.01
					c0.56,0,1.1-0.05,1.59-0.14c1.41-0.26,2.15-0.87,2.15-1.57l0.25-0.89c-0.57-0.63-2.29-0.79-3.99-0.79
					C20.49,10.24,18.57,10.68,17.85,11.12z"/>
			</g>
			<g class="st3">
				<path class="st4" d="M20.25,11.99v1.49c0.34,0.06,0.69,0.11,1.07,0.13v-1.62H20.25z"/>
			</g>
			<g>
				<path class="st5" d="M23.26,13.51v-3.23c1.16,0.08,2.15,0.29,2.57,0.75v0.9C25.83,12.65,24.76,13.27,23.26,13.51z"/>
			</g>
			<g>
				<ellipse class="st6" cx="21.84" cy="11.12" rx="3.99" ry="1.69"/>
			</g>
			<g>
				<path class="st4" d="M19.56,12.45c-0.68-0.21-1.19-0.51-1.44-0.84l3.21-2.12c0.18-0.01,0.37-0.02,0.55-0.02
					c0.66,0,1.31,0.07,1.89,0.2L19.56,12.45z"/>
			</g>
			<g>
				<path class="st4" d="M21.32,12.75c-0.32-0.02-0.63-0.05-0.93-0.11l4.15-2.73c0.24,0.09,0.45,0.19,0.63,0.31L21.32,12.75z"/>
			</g>
		</g>
		<g>
			<g>
				<ellipse class="st1" cx="21.84" cy="10.93" rx="3.99" ry="1.69"/>
			</g>
			<g>
				<path class="st2" d="M17.85,9.95v0.81c0,0.7,0.99,1.29,2.4,1.55c0.34,0.06,0.69,0.11,1.07,0.13c0.17,0.01,0.35,0.01,0.53,0.01
					c0.56,0,1.1-0.05,1.59-0.14c1.41-0.26,2.15-0.87,2.15-1.57l0.25-0.89c-0.57-0.63-2.29-0.79-3.99-0.79
					C20.49,9.07,18.57,9.51,17.85,9.95z"/>
			</g>
			<g class="st3">
				<path class="st4" d="M20.25,10.82v1.49c0.34,0.06,0.69,0.11,1.07,0.13v-1.62H20.25z"/>
			</g>
			<g>
				<path class="st5" d="M23.26,12.34V9.11c1.16,0.08,2.15,0.29,2.57,0.75v0.9C25.83,11.48,24.76,12.09,23.26,12.34z"/>
			</g>
			<g>
				<ellipse class="st6" cx="21.84" cy="9.95" rx="3.99" ry="1.69"/>
			</g>
			<g>
				<path class="st4" d="M19.56,11.27c-0.68-0.21-1.19-0.51-1.44-0.84l3.21-2.12c0.18-0.01,0.37-0.02,0.55-0.02
					c0.66,0,1.31,0.07,1.89,0.2L19.56,11.27z"/>
			</g>
			<g>
				<path class="st4" d="M21.32,11.57c-0.32-0.02-0.63-0.05-0.93-0.11l4.15-2.73c0.24,0.09,0.45,0.19,0.63,0.31L21.32,11.57z"/>
			</g>
		</g>
		<g>
			<g>
				<ellipse class="st1" cx="21.84" cy="9.76" rx="3.99" ry="1.69"/>
			</g>
			<g>
				<path class="st2" d="M17.85,8.77v0.81c0,0.7,0.99,1.29,2.4,1.55c0.34,0.06,0.69,0.11,1.07,0.13c0.17,0.01,0.35,0.01,0.53,0.01
					c0.56,0,1.1-0.05,1.59-0.14c1.41-0.26,2.15-0.87,2.15-1.57l0.25-0.89c-0.57-0.63-2.29-0.79-3.99-0.79
					C20.49,7.89,18.57,8.34,17.85,8.77z"/>
			</g>
			<g class="st3">
				<path class="st4" d="M20.25,9.65v1.49c0.34,0.06,0.69,0.11,1.07,0.13V9.65H20.25z"/>
			</g>
			<g>
				<path class="st5" d="M23.26,11.16V7.94c1.16,0.08,2.15,0.29,2.57,0.75v0.9C25.83,10.31,24.76,10.92,23.26,11.16z"/>
			</g>
			<g>
				<ellipse class="st6" cx="21.84" cy="8.77" rx="3.99" ry="1.69"/>
			</g>
			<g>
				<path class="st4" d="M19.56,10.1c-0.68-0.21-1.19-0.51-1.44-0.84l3.21-2.12c0.18-0.01,0.37-0.02,0.55-0.02
					c0.66,0,1.31,0.07,1.89,0.2L19.56,10.1z"/>
			</g>
			<g>
				<path class="st4" d="M21.32,10.4c-0.32-0.02-0.63-0.05-0.93-0.11l4.15-2.73c0.24,0.09,0.45,0.19,0.63,0.31L21.32,10.4z"/>
			</g>
		</g>
		<g>
			<g>
				<ellipse class="st1" cx="21.84" cy="8.59" rx="3.99" ry="1.69"/>
			</g>
			<g>
				<path class="st2" d="M17.85,7.6v0.81c0,0.7,0.99,1.29,2.4,1.55c0.34,0.06,0.69,0.11,1.07,0.13c0.17,0.01,0.35,0.01,0.53,0.01
					c0.56,0,1.1-0.05,1.59-0.14c1.41-0.26,2.15-0.87,2.15-1.57l0.25-0.89c-0.57-0.63-2.29-0.79-3.99-0.79
					C20.49,6.72,18.57,7.16,17.85,7.6z"/>
			</g>
			<g class="st3">
				<path class="st4" d="M20.25,8.47v1.49c0.34,0.06,0.69,0.11,1.07,0.13V8.47H20.25z"/>
			</g>
			<g>
				<path class="st5" d="M23.26,9.99V6.76c1.16,0.08,2.15,0.29,2.57,0.75v0.9C25.83,9.13,24.76,9.75,23.26,9.99z"/>
			</g>
			<g>
				<ellipse class="st6" cx="21.84" cy="7.6" rx="3.99" ry="1.69"/>
			</g>
			<g>
				<path class="st4" d="M19.56,8.93c-0.68-0.21-1.19-0.51-1.44-0.84l3.21-2.12c0.18-0.01,0.37-0.02,0.55-0.02
					c0.66,0,1.31,0.07,1.89,0.2L19.56,8.93z"/>
			</g>
			<g>
				<path class="st4" d="M21.32,9.23C21,9.21,20.69,9.17,20.39,9.12l4.15-2.73c0.24,0.09,0.45,0.19,0.63,0.31L21.32,9.23z"/>
			</g>
		</g>
		<g>
			<g>
				<ellipse class="st1" cx="21.84" cy="7.41" rx="3.99" ry="1.69"/>
			</g>
			<g>
				<path class="st2" d="M17.85,6.43v0.81c0,0.7,0.99,1.29,2.4,1.55c0.34,0.06,0.69,0.11,1.07,0.13c0.17,0.01,0.35,0.01,0.53,0.01
					c0.56,0,1.1-0.05,1.59-0.14c1.41-0.26,2.15-0.87,2.15-1.57l0.25-0.89c-0.57-0.63-2.29-0.79-3.99-0.79
					C20.49,5.55,18.57,5.99,17.85,6.43z"/>
			</g>
			<g class="st3">
				<path class="st4" d="M20.25,7.3v1.49c0.34,0.06,0.69,0.11,1.07,0.13V7.3H20.25z"/>
			</g>
			<g>
				<path class="st5" d="M23.26,8.82V5.59c1.16,0.08,2.15,0.29,2.57,0.75v0.9C25.83,7.96,24.76,8.57,23.26,8.82z"/>
			</g>
			<g>
				<ellipse class="st6" cx="21.84" cy="6.43" rx="3.99" ry="1.69"/>
			</g>
			<g>
				<path class="st4" d="M19.56,7.75c-0.68-0.21-1.19-0.51-1.44-0.84l3.21-2.12c0.18-0.01,0.37-0.02,0.55-0.02
					c0.66,0,1.31,0.07,1.89,0.2L19.56,7.75z"/>
			</g>
			<g>
				<path class="st4" d="M21.32,8.05C21,8.03,20.69,8,20.39,7.95l4.15-2.73c0.24,0.09,0.45,0.19,0.63,0.31L21.32,8.05z"/>
			</g>
		</g>
		<g>
			<g>
				<ellipse class="st1" cx="21.84" cy="6.24" rx="3.99" ry="1.69"/>
			</g>
			<g>
				<path class="st2" d="M17.85,5.25v0.81c0,0.7,0.99,1.29,2.4,1.55c0.34,0.06,0.69,0.11,1.07,0.13c0.17,0.01,0.35,0.01,0.53,0.01
					c0.56,0,1.1-0.05,1.59-0.14c1.41-0.26,2.15-0.87,2.15-1.57l0.25-0.89c-0.57-0.63-2.29-0.79-3.99-0.79
					C20.49,4.37,18.57,4.82,17.85,5.25z"/>
			</g>
			<g class="st3">
				<path class="st4" d="M20.25,6.13v1.49c0.34,0.06,0.69,0.11,1.07,0.13V6.13H20.25z"/>
			</g>
			<g>
				<path class="st5" d="M23.26,7.64V4.42c1.16,0.08,2.15,0.29,2.57,0.75v0.9C25.83,6.79,24.76,7.4,23.26,7.64z"/>
			</g>
			<g>
				<ellipse class="st6" cx="21.84" cy="5.25" rx="3.99" ry="1.69"/>
			</g>
			<g>
				<path class="st4" d="M19.56,6.58c-0.68-0.21-1.19-0.51-1.44-0.84l3.21-2.12c0.18-0.01,0.37-0.02,0.55-0.02
					c0.66,0,1.31,0.07,1.89,0.2L19.56,6.58z"/>
			</g>
			<g>
				<path class="st4" d="M21.32,6.88C21,6.86,20.69,6.83,20.39,6.77l4.15-2.73c0.24,0.09,0.45,0.19,0.63,0.31L21.32,6.88z"/>
			</g>
		</g>
	</g>
	<path class="st7" d="M23.87,13.89l1.97,0.74v9.7l-3.7-0.41l0.49,0.49c0,0-0.95-5.67-0.95-5.96C21.69,18.16,23.87,13.89,23.87,13.89
		z"/>
	<g>
		<g>
			<polygon class="st8" points="19.32,36.8 23.89,31.35 23.89,34.26 19.33,39.71 19.32,39.73 0,39.73 0,36.8 			"/>
			<polygon class="st9" points="23.89,33.81 23.89,30.91 19.32,36.36 19.32,39.26 			"/>
			<g>
				<polygon class="st10" points="4.62,31.01 0.21,36.26 19.27,36.26 23.68,31.01 				"/>
				<rect y="36.36" class="st11" width="19.32" height="2.93"/>
				<path class="st11" d="M4.59,30.99l-4.33,5.23h19.09l4.33-5.23H4.59z M2.73,34.52l1.5-1.81c1,0,2.24-0.53,2.78-1.19h13.4
					c-0.53,0.65-0.18,1.17,0.79,1.19l-1.5,1.81c-0.98,0.01-2.19,0.52-2.74,1.16H3.55C4.05,35.04,3.69,34.53,2.73,34.52z"/>
				<path class="st12" d="M10.3,33.6c-0.5,0.61-0.16,1.1,0.76,1.1s2.08-0.49,2.58-1.1c0.5-0.61,0.16-1.1-0.76-1.1S10.8,33,10.3,33.6
					z"/>
				<path class="st13" d="M15.04,33.6c-0.27,0.33-0.09,0.59,0.41,0.59c0.5,0,1.12-0.27,1.39-0.59c0.27-0.33,0.09-0.59-0.41-0.59
					C15.93,33.01,15.31,33.28,15.04,33.6z"/>
				<path class="st13" d="M7.1,33.6c-0.27,0.33-0.09,0.59,0.41,0.59c0.5,0,1.12-0.27,1.39-0.59c0.27-0.33,0.09-0.59-0.41-0.59
					C7.99,33.01,7.37,33.28,7.1,33.6z"/>
				<path class="st14" d="M4.57,30.91h19.32l-4.57,5.45H0L4.57,30.91z M23.47,31.1H4.66l-4.24,5.05h18.8L23.47,31.1z"/>
				<polygon class="st15" points="13.43,30.91 16.1,30.91 11.53,36.36 11.53,39.29 8.85,39.29 8.85,36.36 				"/>
				<polygon class="st13" points="8.3,36.36 8.3,39.29 10.98,39.29 10.98,36.36 10.98,36.36 15.55,30.91 12.87,30.91 8.3,36.36 				
					"/>
				<g>
					<polygon class="st16" points="15.26,30.91 15.8,30.91 11.22,36.36 11.22,39.29 10.69,39.29 10.69,36.36 					"/>
				</g>
				<g>
					<polygon class="st16" points="12.62,30.91 13.16,30.91 8.59,36.36 8.59,39.29 8.05,39.29 8.05,36.36 					"/>
				</g>
				<polygon class="st17" points="8.05,36.36 8.05,39.29 11.23,39.29 11.23,36.36 11.23,36.36 8.55,36.36 				"/>
			</g>
		</g>
		<g>
			<polygon class="st8" points="19.32,33.28 23.89,27.83 23.89,30.74 19.33,36.19 19.32,36.21 0,36.21 0,33.28 			"/>
			<polygon class="st9" points="23.89,30.29 23.89,27.39 19.32,32.84 19.32,35.74 			"/>
			<g>
				<polygon class="st10" points="4.62,27.49 0.21,32.74 19.27,32.74 23.68,27.49 				"/>
				<rect y="32.84" class="st11" width="19.32" height="2.93"/>
				<path class="st11" d="M4.59,27.47L0.26,32.7h19.09l4.33-5.23H4.59z M2.73,31l1.5-1.81c1,0,2.24-0.53,2.78-1.19h13.4
					c-0.53,0.65-0.18,1.17,0.79,1.19L19.69,31c-0.98,0.01-2.19,0.52-2.74,1.16H3.55C4.05,31.52,3.69,31.01,2.73,31z"/>
				<path class="st12" d="M10.3,30.08c-0.5,0.61-0.16,1.1,0.76,1.1s2.08-0.49,2.58-1.1c0.5-0.61,0.16-1.1-0.76-1.1
					S10.8,29.48,10.3,30.08z"/>
				<path class="st13" d="M15.04,30.08c-0.27,0.33-0.09,0.59,0.41,0.59c0.5,0,1.12-0.27,1.39-0.59c0.27-0.33,0.09-0.59-0.41-0.59
					C15.93,29.49,15.31,29.76,15.04,30.08z"/>
				<path class="st13" d="M7.1,30.08c-0.27,0.33-0.09,0.59,0.41,0.59c0.5,0,1.12-0.27,1.39-0.59c0.27-0.33,0.09-0.59-0.41-0.59
					C7.99,29.49,7.37,29.76,7.1,30.08z"/>
				<path class="st14" d="M4.57,27.39h19.32l-4.57,5.45H0L4.57,27.39z M23.47,27.58H4.66l-4.24,5.05h18.8L23.47,27.58z"/>
				<polygon class="st15" points="13.43,27.39 16.1,27.39 11.53,32.84 11.53,35.77 8.85,35.77 8.85,32.84 				"/>
				<polygon class="st13" points="8.3,32.84 8.3,35.77 10.98,35.77 10.98,32.84 10.98,32.84 15.55,27.39 12.87,27.39 8.3,32.84 				
					"/>
				<g>
					<polygon class="st16" points="15.26,27.39 15.8,27.39 11.22,32.84 11.22,35.77 10.69,35.77 10.69,32.84 					"/>
				</g>
				<g>
					<polygon class="st16" points="12.62,27.39 13.16,27.39 8.59,32.84 8.59,35.77 8.05,35.77 8.05,32.84 					"/>
				</g>
				<polygon class="st17" points="8.05,32.84 8.05,35.77 11.23,35.77 11.23,32.84 11.23,32.84 8.55,32.84 				"/>
			</g>
		</g>
		<g>
			<polygon class="st8" points="19.32,29.76 23.89,24.31 23.89,27.22 19.33,32.67 19.32,32.69 0,32.69 0,29.76 			"/>
			<polygon class="st9" points="23.89,26.77 23.89,23.87 19.32,29.32 19.32,32.22 			"/>
			<g>
				<polygon class="st10" points="4.62,23.97 0.21,29.22 19.27,29.22 23.68,23.97 				"/>
				<rect y="29.32" class="st11" width="19.32" height="2.93"/>
				<path class="st11" d="M4.59,23.95l-4.33,5.23h19.09l4.33-5.23H4.59z M2.73,27.48l1.5-1.81c1,0,2.24-0.53,2.78-1.19h13.4
					c-0.53,0.65-0.18,1.17,0.79,1.19l-1.5,1.81c-0.98,0.01-2.19,0.52-2.74,1.16H3.55C4.05,28,3.69,27.49,2.73,27.48z"/>
				<path class="st12" d="M10.3,26.56c-0.5,0.61-0.16,1.1,0.76,1.1s2.08-0.49,2.58-1.1c0.5-0.61,0.16-1.1-0.76-1.1
					S10.8,25.96,10.3,26.56z"/>
				<path class="st13" d="M15.04,26.56c-0.27,0.33-0.09,0.59,0.41,0.59c0.5,0,1.12-0.27,1.39-0.59c0.27-0.33,0.09-0.59-0.41-0.59
					C15.93,25.97,15.31,26.24,15.04,26.56z"/>
				<path class="st13" d="M7.1,26.56c-0.27,0.33-0.09,0.59,0.41,0.59c0.5,0,1.12-0.27,1.39-0.59c0.27-0.33,0.09-0.59-0.41-0.59
					C7.99,25.97,7.37,26.24,7.1,26.56z"/>
				<path class="st14" d="M4.57,23.87h19.32l-4.57,5.45H0L4.57,23.87z M23.47,24.06H4.66l-4.24,5.05h18.8L23.47,24.06z"/>
				<polygon class="st15" points="13.43,23.87 16.1,23.87 11.53,29.32 11.53,32.25 8.85,32.25 8.85,29.32 				"/>
				<polygon class="st13" points="8.3,29.32 8.3,32.25 10.98,32.25 10.98,29.32 10.98,29.32 15.55,23.87 12.87,23.87 8.3,29.32 				
					"/>
				<g>
					<polygon class="st16" points="15.26,23.87 15.8,23.87 11.22,29.32 11.22,32.25 10.69,32.25 10.69,29.32 					"/>
				</g>
				<g>
					<polygon class="st16" points="12.62,23.87 13.16,23.87 8.59,29.32 8.59,32.25 8.05,32.25 8.05,29.32 					"/>
				</g>
				<polygon class="st17" points="8.05,29.32 8.05,32.25 11.23,32.25 11.23,29.32 11.23,29.32 8.55,29.32 				"/>
			</g>
		</g>
		<g>
			<polygon class="st8" points="19.32,26.25 23.89,20.79 23.89,23.7 19.33,29.15 19.32,29.17 0,29.17 0,26.25 			"/>
			<polygon class="st9" points="23.89,23.25 23.89,20.35 19.32,25.8 19.32,28.7 			"/>
			<g>
				<polygon class="st10" points="4.62,20.45 0.21,25.7 19.27,25.7 23.68,20.45 				"/>
				<rect y="25.8" class="st11" width="19.32" height="2.93"/>
				<path class="st11" d="M4.59,20.43l-4.33,5.23h19.09l4.33-5.23H4.59z M2.73,23.96l1.5-1.81c1,0,2.24-0.53,2.78-1.19h13.4
					c-0.53,0.65-0.18,1.17,0.79,1.19l-1.5,1.81c-0.98,0.01-2.19,0.52-2.74,1.16H3.55C4.05,24.48,3.69,23.97,2.73,23.96z"/>
				<path class="st12" d="M10.3,23.04c-0.5,0.61-0.16,1.1,0.76,1.1s2.08-0.49,2.58-1.1c0.5-0.61,0.16-1.1-0.76-1.1
					S10.8,22.44,10.3,23.04z"/>
				<path class="st13" d="M15.04,23.04c-0.27,0.33-0.09,0.59,0.41,0.59c0.5,0,1.12-0.27,1.39-0.59c0.27-0.33,0.09-0.59-0.41-0.59
					C15.93,22.45,15.31,22.72,15.04,23.04z"/>
				<path class="st13" d="M7.1,23.04c-0.27,0.33-0.09,0.59,0.41,0.59c0.5,0,1.12-0.27,1.39-0.59c0.27-0.33,0.09-0.59-0.41-0.59
					C7.99,22.45,7.37,22.72,7.1,23.04z"/>
				<path class="st14" d="M4.57,20.35h19.32l-4.57,5.45H0L4.57,20.35z M23.47,20.55H4.66L0.43,25.6h18.8L23.47,20.55z"/>
				<polygon class="st15" points="13.43,20.35 16.1,20.35 11.53,25.8 11.53,28.73 8.85,28.73 8.85,25.8 				"/>
				<polygon class="st13" points="8.3,25.8 8.3,28.73 10.98,28.73 10.98,25.8 10.98,25.8 15.55,20.35 12.87,20.35 8.3,25.8 				"/>
				<g>
					<polygon class="st16" points="15.26,20.35 15.8,20.35 11.22,25.8 11.22,28.73 10.69,28.73 10.69,25.8 					"/>
				</g>
				<g>
					<polygon class="st16" points="12.62,20.35 13.16,20.35 8.59,25.8 8.59,28.73 8.05,28.73 8.05,25.8 					"/>
				</g>
				<polygon class="st17" points="8.05,25.8 8.05,28.73 11.23,28.73 11.23,25.8 11.23,25.8 8.55,25.8 				"/>
			</g>
		</g>
		<g>
			<polygon class="st8" points="19.32,22.73 23.89,17.27 23.89,20.18 19.33,25.63 19.32,25.65 0,25.65 0,22.73 			"/>
			<polygon class="st9" points="23.89,19.73 23.89,16.83 19.32,22.28 19.32,25.18 			"/>
			<g>
				<polygon class="st10" points="4.62,16.93 0.21,22.18 19.27,22.18 23.68,16.93 				"/>
				<rect y="22.28" class="st11" width="19.32" height="2.93"/>
				<path class="st11" d="M4.59,16.91l-4.33,5.23h19.09l4.33-5.23H4.59z M2.73,20.44l1.5-1.81c1,0,2.24-0.53,2.78-1.19h13.4
					c-0.53,0.65-0.18,1.17,0.79,1.19l-1.5,1.81c-0.98,0.01-2.19,0.52-2.74,1.16H3.55C4.05,20.96,3.69,20.45,2.73,20.44z"/>
				<path class="st12" d="M10.3,19.52c-0.5,0.61-0.16,1.1,0.76,1.1s2.08-0.49,2.58-1.1c0.5-0.61,0.16-1.1-0.76-1.1
					S10.8,18.92,10.3,19.52z"/>
				<path class="st13" d="M15.04,19.52c-0.27,0.33-0.09,0.59,0.41,0.59c0.5,0,1.12-0.27,1.39-0.59c0.27-0.33,0.09-0.59-0.41-0.59
					C15.93,18.93,15.31,19.2,15.04,19.52z"/>
				<path class="st13" d="M7.1,19.52c-0.27,0.33-0.09,0.59,0.41,0.59c0.5,0,1.12-0.27,1.39-0.59c0.27-0.33,0.09-0.59-0.41-0.59
					C7.99,18.93,7.37,19.2,7.1,19.52z"/>
				<path class="st14" d="M4.57,16.83h19.32l-4.57,5.45H0L4.57,16.83z M23.47,17.03H4.66l-4.24,5.05h18.8L23.47,17.03z"/>
				<polygon class="st15" points="13.43,16.83 16.1,16.83 11.53,22.28 11.53,25.21 8.85,25.21 8.85,22.28 				"/>
				<polygon class="st13" points="8.3,22.28 8.3,25.21 10.98,25.21 10.98,22.28 10.98,22.28 15.55,16.83 12.87,16.83 8.3,22.28 				
					"/>
				<g>
					<polygon class="st16" points="15.26,16.83 15.8,16.83 11.22,22.28 11.22,25.21 10.69,25.21 10.69,22.28 					"/>
				</g>
				<g>
					<polygon class="st16" points="12.62,16.83 13.16,16.83 8.59,22.28 8.59,25.21 8.05,25.21 8.05,22.28 					"/>
				</g>
				<polygon class="st17" points="8.05,22.28 8.05,25.21 11.23,25.21 11.23,22.28 11.23,22.28 8.55,22.28 				"/>
			</g>
		</g>
		<g>
			<polygon class="st8" points="19.32,19.21 23.89,13.75 23.89,16.66 19.33,22.11 19.32,22.13 0,22.13 0,19.21 			"/>
			<polygon class="st9" points="23.89,16.21 23.89,13.31 19.32,18.76 19.32,21.66 			"/>
			<g>
				<polygon class="st10" points="4.62,13.41 0.21,18.66 19.27,18.66 23.68,13.41 				"/>
				<rect y="18.76" class="st11" width="19.32" height="2.93"/>
				<path class="st11" d="M4.59,13.39l-4.33,5.23h19.09l4.33-5.23H4.59z M2.73,16.92l1.5-1.81c1,0,2.24-0.53,2.78-1.19h13.4
					c-0.53,0.65-0.18,1.17,0.79,1.19l-1.5,1.81c-0.98,0.01-2.19,0.52-2.74,1.16H3.55C4.05,17.44,3.69,16.93,2.73,16.92z"/>
				<path class="st12" d="M10.3,16c-0.5,0.61-0.16,1.1,0.76,1.1s2.08-0.49,2.58-1.1c0.5-0.61,0.16-1.1-0.76-1.1S10.8,15.4,10.3,16z"
					/>
				<path class="st13" d="M15.04,16c-0.27,0.33-0.09,0.59,0.41,0.59c0.5,0,1.12-0.27,1.39-0.59c0.27-0.33,0.09-0.59-0.41-0.59
					C15.93,15.41,15.31,15.68,15.04,16z"/>
				<path class="st13" d="M7.1,16c-0.27,0.33-0.09,0.59,0.41,0.59c0.5,0,1.12-0.27,1.39-0.59c0.27-0.33,0.09-0.59-0.41-0.59
					C7.99,15.41,7.37,15.68,7.1,16z"/>
				<path class="st14" d="M4.57,13.31h19.32l-4.57,5.45H0L4.57,13.31z M23.47,13.51H4.66l-4.24,5.05h18.8L23.47,13.51z"/>
				<polygon class="st15" points="13.43,13.31 16.1,13.31 11.53,18.76 11.53,21.69 8.85,21.69 8.85,18.76 				"/>
				<polygon class="st13" points="8.3,18.76 8.3,21.69 10.98,21.69 10.98,18.76 10.98,18.76 15.55,13.31 12.87,13.31 8.3,18.76 				
					"/>
				<g>
					<polygon class="st16" points="15.26,13.31 15.8,13.31 11.22,18.76 11.22,21.69 10.69,21.69 10.69,18.76 					"/>
				</g>
				<g>
					<polygon class="st16" points="12.62,13.31 13.16,13.31 8.59,18.76 8.59,21.69 8.05,21.69 8.05,18.76 					"/>
				</g>
				<polygon class="st17" points="8.05,18.76 8.05,21.69 11.23,21.69 11.23,18.76 11.23,18.76 8.55,18.76 				"/>
			</g>
		</g>
	</g>
	<g>
		<g>
			<polygon class="st8" points="41.27,35.77 45.84,30.32 45.84,33.22 41.28,38.67 41.28,38.69 21.95,38.69 21.95,35.77 			"/>
			<polygon class="st9" points="45.84,32.77 45.84,29.87 41.27,35.32 41.28,38.23 			"/>
			<g>
				<polygon class="st10" points="26.57,29.97 22.16,35.22 41.23,35.22 45.63,29.97 				"/>
				<rect x="21.95" y="35.32" class="st11" width="19.32" height="2.93"/>
				<path class="st11" d="M26.55,29.95l-4.33,5.23H41.3l4.33-5.23H26.55z M24.68,33.49l1.5-1.81c1,0,2.24-0.53,2.78-1.19h13.4
					c-0.53,0.65-0.18,1.17,0.79,1.19l-1.5,1.81c-0.98,0.01-2.19,0.52-2.74,1.16H25.5C26,34.01,25.64,33.49,24.68,33.49z"/>
				<path class="st12" d="M32.25,32.56c-0.5,0.61-0.16,1.1,0.76,1.1c0.92,0,2.08-0.49,2.58-1.1c0.5-0.61,0.16-1.1-0.76-1.1
					S32.75,31.96,32.25,32.56z"/>
				<path class="st13" d="M36.99,32.56c-0.27,0.33-0.09,0.59,0.41,0.59s1.12-0.27,1.39-0.59c0.27-0.33,0.09-0.59-0.41-0.59
					C37.88,31.97,37.26,32.24,36.99,32.56z"/>
				<path class="st13" d="M29.05,32.56c-0.27,0.33-0.09,0.59,0.41,0.59c0.5,0,1.12-0.27,1.39-0.59c0.27-0.33,0.09-0.59-0.41-0.59
					C29.95,31.97,29.32,32.24,29.05,32.56z"/>
				<path class="st14" d="M26.52,29.87h19.32l-4.57,5.45H21.95L26.52,29.87z M45.42,30.07h-18.8l-4.24,5.05h18.8L45.42,30.07z"/>
				<polygon class="st15" points="35.38,29.87 38.06,29.87 33.49,35.32 33.49,38.25 30.81,38.25 30.81,35.32 				"/>
				<polygon class="st13" points="30.25,35.32 30.25,38.25 32.93,38.25 32.93,35.32 32.93,35.32 37.5,29.87 34.82,29.87 
					30.26,35.32 				"/>
				<g>
					<polygon class="st16" points="37.21,29.87 37.75,29.87 33.18,35.32 33.18,38.25 32.64,38.25 32.64,35.32 					"/>
				</g>
				<g>
					<polygon class="st16" points="34.57,29.87 35.11,29.87 30.54,35.32 30.54,38.25 30,38.25 30,35.32 					"/>
				</g>
				<polygon class="st17" points="30.01,35.32 30.01,38.25 33.18,38.25 33.18,35.32 33.18,35.32 30.5,35.32 				"/>
			</g>
		</g>
		<g>
			<polygon class="st8" points="41.27,32.25 45.84,26.8 45.84,29.7 41.28,35.15 41.28,35.17 21.95,35.17 21.95,32.25 			"/>
			<polygon class="st9" points="45.84,29.25 45.84,26.35 41.27,31.8 41.28,34.71 			"/>
			<g>
				<polygon class="st10" points="26.57,26.45 22.16,31.7 41.23,31.7 45.63,26.45 				"/>
				<rect x="21.95" y="31.8" class="st11" width="19.32" height="2.93"/>
				<path class="st11" d="M26.55,26.43l-4.33,5.23H41.3l4.33-5.23H26.55z M24.68,29.97l1.5-1.81c1,0,2.24-0.53,2.78-1.19h13.4
					c-0.53,0.65-0.18,1.17,0.79,1.19l-1.5,1.81c-0.98,0.01-2.19,0.52-2.74,1.16H25.5C26,30.49,25.64,29.97,24.68,29.97z"/>
				<path class="st12" d="M32.25,29.04c-0.5,0.61-0.16,1.1,0.76,1.1c0.92,0,2.08-0.49,2.58-1.1c0.5-0.61,0.16-1.1-0.76-1.1
					S32.75,28.44,32.25,29.04z"/>
				<path class="st13" d="M36.99,29.04c-0.27,0.33-0.09,0.59,0.41,0.59s1.12-0.27,1.39-0.59c0.27-0.33,0.09-0.59-0.41-0.59
					C37.88,28.45,37.26,28.72,36.99,29.04z"/>
				<path class="st13" d="M29.05,29.04c-0.27,0.33-0.09,0.59,0.41,0.59c0.5,0,1.12-0.27,1.39-0.59c0.27-0.33,0.09-0.59-0.41-0.59
					C29.95,28.45,29.32,28.72,29.05,29.04z"/>
				<path class="st14" d="M26.52,26.35h19.32l-4.57,5.45H21.95L26.52,26.35z M45.42,26.55h-18.8l-4.24,5.05h18.8L45.42,26.55z"/>
				<polygon class="st15" points="35.38,26.35 38.06,26.35 33.49,31.8 33.49,34.73 30.81,34.73 30.81,31.8 				"/>
				<polygon class="st13" points="30.25,31.8 30.25,34.73 32.93,34.73 32.93,31.8 32.93,31.8 37.5,26.35 34.82,26.35 30.26,31.8 
									"/>
				<g>
					<polygon class="st16" points="37.21,26.35 37.75,26.35 33.18,31.8 33.18,34.73 32.64,34.73 32.64,31.8 					"/>
				</g>
				<g>
					<polygon class="st16" points="34.57,26.35 35.11,26.35 30.54,31.8 30.54,34.73 30,34.73 30,31.8 					"/>
				</g>
				<polygon class="st17" points="30.01,31.8 30.01,34.73 33.18,34.73 33.18,31.8 33.18,31.8 30.5,31.8 				"/>
			</g>
		</g>
		<g>
			<polygon class="st8" points="41.27,28.73 45.84,23.28 45.84,26.18 41.28,31.63 41.28,31.65 21.95,31.65 21.95,28.73 			"/>
			<polygon class="st9" points="45.84,25.73 45.84,22.83 41.27,28.28 41.28,31.19 			"/>
			<g>
				<polygon class="st10" points="26.57,22.93 22.16,28.18 41.23,28.18 45.63,22.93 				"/>
				<rect x="21.95" y="28.28" class="st11" width="19.32" height="2.93"/>
				<path class="st11" d="M26.55,22.91l-4.33,5.23H41.3l4.33-5.23H26.55z M24.68,26.45l1.5-1.81c1,0,2.24-0.53,2.78-1.19h13.4
					c-0.53,0.65-0.18,1.17,0.79,1.19l-1.5,1.81c-0.98,0.01-2.19,0.52-2.74,1.16H25.5C26,26.97,25.64,26.45,24.68,26.45z"/>
				<path class="st12" d="M32.25,25.52c-0.5,0.61-0.16,1.1,0.76,1.1c0.92,0,2.08-0.49,2.58-1.1c0.5-0.61,0.16-1.1-0.76-1.1
					S32.75,24.92,32.25,25.52z"/>
				<path class="st13" d="M36.99,25.52c-0.27,0.33-0.09,0.59,0.41,0.59s1.12-0.27,1.39-0.59c0.27-0.33,0.09-0.59-0.41-0.59
					C37.88,24.93,37.26,25.2,36.99,25.52z"/>
				<path class="st13" d="M29.05,25.52c-0.27,0.33-0.09,0.59,0.41,0.59c0.5,0,1.12-0.27,1.39-0.59c0.27-0.33,0.09-0.59-0.41-0.59
					C29.95,24.93,29.32,25.2,29.05,25.52z"/>
				<path class="st14" d="M26.52,22.83h19.32l-4.57,5.45H21.95L26.52,22.83z M45.42,23.03h-18.8l-4.24,5.05h18.8L45.42,23.03z"/>
				<polygon class="st15" points="35.38,22.83 38.06,22.83 33.49,28.28 33.49,31.21 30.81,31.21 30.81,28.28 				"/>
				<polygon class="st13" points="30.25,28.28 30.25,31.21 32.93,31.21 32.93,28.28 32.93,28.28 37.5,22.83 34.82,22.83 
					30.26,28.28 				"/>
				<g>
					<polygon class="st16" points="37.21,22.83 37.75,22.83 33.18,28.28 33.18,31.21 32.64,31.21 32.64,28.28 					"/>
				</g>
				<g>
					<polygon class="st16" points="34.57,22.83 35.11,22.83 30.54,28.28 30.54,31.21 30,31.21 30,28.28 					"/>
				</g>
				<polygon class="st17" points="30.01,28.28 30.01,31.21 33.18,31.21 33.18,28.28 33.18,28.28 30.5,28.28 				"/>
			</g>
		</g>
		<g>
			<polygon class="st8" points="41.27,25.21 45.84,19.76 45.84,22.66 41.28,28.11 41.28,28.13 21.95,28.13 21.95,25.21 			"/>
			<polygon class="st9" points="45.84,22.21 45.84,19.31 41.27,24.76 41.28,27.67 			"/>
			<g>
				<polygon class="st10" points="26.57,19.41 22.16,24.66 41.23,24.66 45.63,19.41 				"/>
				<rect x="21.95" y="24.76" class="st11" width="19.32" height="2.93"/>
				<path class="st11" d="M26.55,19.39l-4.33,5.23H41.3l4.33-5.23H26.55z M24.68,22.93l1.5-1.81c1,0,2.24-0.53,2.78-1.19h13.4
					c-0.53,0.65-0.18,1.17,0.79,1.19l-1.5,1.81c-0.98,0.01-2.19,0.52-2.74,1.16H25.5C26,23.45,25.64,22.94,24.68,22.93z"/>
				<path class="st12" d="M32.25,22.01c-0.5,0.61-0.16,1.1,0.76,1.1c0.92,0,2.08-0.49,2.58-1.1c0.5-0.61,0.16-1.1-0.76-1.1
					S32.75,21.4,32.25,22.01z"/>
				<path class="st13" d="M36.99,22.01c-0.27,0.33-0.09,0.59,0.41,0.59s1.12-0.27,1.39-0.59c0.27-0.33,0.09-0.59-0.41-0.59
					C37.88,21.41,37.26,21.68,36.99,22.01z"/>
				<path class="st13" d="M29.05,22.01c-0.27,0.33-0.09,0.59,0.41,0.59c0.5,0,1.12-0.27,1.39-0.59c0.27-0.33,0.09-0.59-0.41-0.59
					C29.95,21.41,29.32,21.68,29.05,22.01z"/>
				<path class="st14" d="M26.52,19.31h19.32l-4.57,5.45H21.95L26.52,19.31z M45.42,19.51h-18.8l-4.24,5.05h18.8L45.42,19.51z"/>
				<polygon class="st15" points="35.38,19.31 38.06,19.31 33.49,24.76 33.49,27.69 30.81,27.69 30.81,24.76 				"/>
				<polygon class="st13" points="30.25,24.76 30.25,27.69 32.93,27.69 32.93,24.76 32.93,24.76 37.5,19.31 34.82,19.31 
					30.26,24.76 				"/>
				<g>
					<polygon class="st16" points="37.21,19.31 37.75,19.31 33.18,24.76 33.18,27.69 32.64,27.69 32.64,24.76 					"/>
				</g>
				<g>
					<polygon class="st16" points="34.57,19.31 35.11,19.31 30.54,24.76 30.54,27.69 30,27.69 30,24.76 					"/>
				</g>
				<polygon class="st17" points="30.01,24.76 30.01,27.69 33.18,27.69 33.18,24.76 33.18,24.76 30.5,24.76 				"/>
			</g>
		</g>
	</g>
	<polygon class="st7" points="30.24,40.19 34.24,39.45 34.24,31.44 17.05,31.44 17.05,41.18 	"/>
	<g>
		<g>
			<g>
				<path class="st1" d="M0.76,41.8c-0.02,0.93,1.75,1.73,3.95,1.77c2.2,0.05,4-0.67,4.02-1.61c0.02-0.93-1.75-1.73-3.95-1.77
					C2.58,40.15,0.78,40.87,0.76,41.8z"/>
			</g>
			<g>
				<path class="st2" d="M0.78,40.81l-0.02,0.81c-0.01,0.7,0.96,1.31,2.36,1.6c0.33,0.07,0.69,0.12,1.07,0.15
					c0.17,0.01,0.35,0.02,0.52,0.03c0.56,0.01,1.11-0.03,1.59-0.11c1.42-0.23,2.16-0.83,2.18-1.52l0.27-0.88
					c-0.56-0.65-2.27-0.84-3.97-0.87C3.44,39.99,1.51,40.4,0.78,40.81z"/>
			</g>
			<g class="st3">
				<path class="st4" d="M3.16,41.74l-0.03,1.49c0.33,0.07,0.69,0.12,1.07,0.15l0.03-1.62L3.16,41.74z"/>
			</g>
			<g>
				<path class="st5" d="M6.14,43.32l0.07-3.23c1.15,0.11,2.15,0.34,2.55,0.8l-0.02,0.9C8.72,42.51,7.65,43.11,6.14,43.32z"/>
			</g>
			<g>
				
					<ellipse transform="matrix(0.0209 -0.9998 0.9998 0.0209 -36.2214 44.8103)" class="st6" cx="4.77" cy="40.9" rx="1.69" ry="3.99"/>
			</g>
			<g>
				<path class="st4" d="M2.47,42.18c-0.68-0.22-1.18-0.53-1.42-0.87l3.26-2.05c0.12,0,0.24-0.01,0.36-0.01c0.06,0,0.13,0,0.19,0
					c0.66,0.01,1.31,0.1,1.88,0.24L2.47,42.18z"/>
			</g>
			<g>
				<path class="st4" d="M4.22,42.51c-0.32-0.03-0.63-0.07-0.93-0.13l4.21-2.64c0.24,0.1,0.44,0.2,0.62,0.32L4.22,42.51z"/>
			</g>
		</g>
		<g>
			<g>
				<path class="st1" d="M0.76,40.63c-0.02,0.93,1.75,1.73,3.95,1.77c2.2,0.05,4-0.67,4.02-1.61c0.02-0.93-1.75-1.73-3.95-1.77
					C2.58,38.97,0.78,39.69,0.76,40.63z"/>
			</g>
			<g>
				<path class="st2" d="M0.78,39.64l-0.02,0.81c-0.01,0.7,0.96,1.31,2.36,1.6c0.33,0.07,0.69,0.12,1.07,0.15
					c0.17,0.01,0.35,0.02,0.52,0.03c0.56,0.01,1.11-0.03,1.59-0.11c1.42-0.23,2.16-0.83,2.18-1.52l0.27-0.88
					c-0.56-0.65-2.27-0.84-3.97-0.87C3.44,38.82,1.51,39.22,0.78,39.64z"/>
			</g>
			<g class="st3">
				<path class="st4" d="M3.16,40.56l-0.03,1.49c0.33,0.07,0.69,0.12,1.07,0.15l0.03-1.62L3.16,40.56z"/>
			</g>
			<g>
				<path class="st5" d="M6.14,42.15l0.07-3.23c1.15,0.11,2.15,0.34,2.55,0.8l-0.02,0.9C8.72,41.34,7.65,41.93,6.14,42.15z"/>
			</g>
			<g>
				
					<ellipse transform="matrix(0.0209 -0.9998 0.9998 0.0209 -35.0484 43.6616)" class="st6" cx="4.77" cy="39.73" rx="1.69" ry="3.99"/>
			</g>
			<g>
				<path class="st4" d="M2.47,41c-0.68-0.22-1.18-0.53-1.42-0.87l3.26-2.05c0.12,0,0.24-0.01,0.36-0.01c0.06,0,0.13,0,0.19,0
					c0.66,0.01,1.31,0.1,1.88,0.24L2.47,41z"/>
			</g>
			<g>
				<path class="st4" d="M4.22,41.34c-0.32-0.03-0.63-0.07-0.93-0.13l4.21-2.64c0.24,0.1,0.44,0.2,0.62,0.32L4.22,41.34z"/>
			</g>
		</g>
		<g>
			<g>
				<path class="st1" d="M0.76,39.46c-0.02,0.93,1.75,1.73,3.95,1.77c2.2,0.05,4-0.67,4.02-1.61c0.02-0.93-1.75-1.73-3.95-1.77
					C2.58,37.8,0.78,38.52,0.76,39.46z"/>
			</g>
			<g>
				<path class="st2" d="M0.78,38.47l-0.02,0.81c-0.01,0.7,0.96,1.31,2.36,1.6c0.33,0.07,0.69,0.12,1.07,0.15
					c0.17,0.01,0.35,0.02,0.52,0.03c0.56,0.01,1.11-0.03,1.59-0.11c1.42-0.23,2.16-0.83,2.18-1.52l0.27-0.88
					c-0.56-0.65-2.27-0.84-3.97-0.87C3.44,37.64,1.51,38.05,0.78,38.47z"/>
			</g>
			<g class="st3">
				<path class="st4" d="M3.16,39.39l-0.03,1.49c0.33,0.07,0.69,0.12,1.07,0.15l0.03-1.62L3.16,39.39z"/>
			</g>
			<g>
				<path class="st5" d="M6.14,40.97l0.07-3.23c1.15,0.11,2.15,0.34,2.55,0.8l-0.02,0.9C8.72,40.17,7.65,40.76,6.14,40.97z"/>
			</g>
			<g>
				
					<ellipse transform="matrix(0.0209 -0.9998 0.9998 0.0209 -33.8753 42.5128)" class="st6" cx="4.77" cy="38.55" rx="1.69" ry="3.99"/>
			</g>
			<g>
				<path class="st4" d="M2.47,39.83c-0.68-0.22-1.18-0.53-1.42-0.87l3.26-2.05c0.12,0,0.24-0.01,0.36-0.01c0.06,0,0.13,0,0.19,0
					c0.66,0.01,1.31,0.1,1.88,0.24L2.47,39.83z"/>
			</g>
			<g>
				<path class="st4" d="M4.22,40.17c-0.32-0.03-0.63-0.07-0.93-0.13L7.5,37.4c0.24,0.1,0.44,0.2,0.62,0.32L4.22,40.17z"/>
			</g>
		</g>
		<g>
			<g>
				<path class="st1" d="M0.76,38.28c-0.02,0.93,1.75,1.73,3.95,1.77c2.2,0.05,4-0.67,4.02-1.61c0.02-0.93-1.75-1.73-3.95-1.77
					C2.58,36.63,0.78,37.35,0.76,38.28z"/>
			</g>
			<g>
				<path class="st2" d="M0.78,37.29l-0.02,0.81c-0.01,0.7,0.96,1.31,2.36,1.6c0.33,0.07,0.69,0.12,1.07,0.15
					c0.17,0.01,0.35,0.02,0.52,0.03c0.56,0.01,1.11-0.03,1.59-0.11c1.42-0.23,2.16-0.83,2.18-1.52l0.27-0.88
					c-0.56-0.65-2.27-0.84-3.97-0.87C3.44,36.47,1.51,36.88,0.78,37.29z"/>
			</g>
			<g class="st3">
				<path class="st4" d="M3.16,38.22l-0.03,1.49c0.33,0.07,0.69,0.12,1.07,0.15l0.03-1.62L3.16,38.22z"/>
			</g>
			<g>
				<path class="st5" d="M6.14,39.8l0.07-3.23c1.15,0.11,2.15,0.34,2.55,0.8l-0.02,0.9C8.72,38.99,7.65,39.59,6.14,39.8z"/>
			</g>
			<g>
				
					<ellipse transform="matrix(0.0209 -0.9998 0.9998 0.0209 -32.7023 41.364)" class="st6" cx="4.77" cy="37.38" rx="1.69" ry="3.99"/>
			</g>
			<g>
				<path class="st4" d="M2.47,38.66c-0.68-0.22-1.18-0.53-1.42-0.87l3.26-2.05c0.12,0,0.24-0.01,0.36-0.01c0.06,0,0.13,0,0.19,0
					c0.66,0.01,1.31,0.1,1.88,0.24L2.47,38.66z"/>
			</g>
			<g>
				<path class="st4" d="M4.22,38.99c-0.32-0.03-0.63-0.07-0.93-0.13l4.21-2.64c0.24,0.1,0.44,0.2,0.62,0.32L4.22,38.99z"/>
			</g>
		</g>
	</g>
	<g>
		<g>
			<polygon class="st8" points="26.39,43.51 30.96,38.06 30.96,40.97 26.4,46.41 26.39,46.44 7.07,46.44 7.07,43.51 			"/>
			<polygon class="st9" points="30.96,40.52 30.96,37.61 26.39,43.06 26.39,45.97 			"/>
			<g>
				<polygon class="st10" points="11.69,37.71 7.28,42.96 26.35,42.96 30.75,37.71 				"/>
				<rect x="7.07" y="43.06" class="st11" width="19.32" height="2.93"/>
				<path class="st11" d="M11.66,37.69l-4.33,5.23h19.09l4.33-5.23H11.66z M9.8,41.23l1.5-1.81c1,0,2.24-0.53,2.78-1.19h13.4
					c-0.53,0.65-0.18,1.17,0.79,1.19l-1.5,1.81c-0.98,0.01-2.19,0.52-2.74,1.16h-13.4C11.12,41.75,10.76,41.24,9.8,41.23z"/>
				<path class="st12" d="M17.37,40.31c-0.5,0.61-0.16,1.1,0.76,1.1s2.08-0.49,2.58-1.1c0.5-0.61,0.16-1.1-0.76-1.1
					C19.03,39.21,17.87,39.7,17.37,40.31z"/>
				<path class="st13" d="M22.11,40.31c-0.27,0.33-0.09,0.59,0.41,0.59c0.5,0,1.12-0.27,1.39-0.59c0.27-0.33,0.09-0.59-0.41-0.59
					C23,39.72,22.38,39.98,22.11,40.31z"/>
				<path class="st13" d="M14.17,40.31c-0.27,0.33-0.09,0.59,0.41,0.59c0.5,0,1.12-0.27,1.39-0.59c0.27-0.33,0.09-0.59-0.41-0.59
					C15.06,39.72,14.44,39.98,14.17,40.31z"/>
				<path class="st14" d="M11.64,37.61h19.32l-4.57,5.45H7.07L11.64,37.61z M30.54,37.81h-18.8L7.5,42.86h18.8L30.54,37.81z"/>
				<polygon class="st15" points="20.5,37.61 23.18,37.61 18.6,43.06 18.6,45.99 15.93,45.99 15.93,43.06 				"/>
				<polygon class="st13" points="15.37,43.06 15.37,45.99 18.05,45.99 18.05,43.06 18.05,43.06 22.62,37.61 19.94,37.61 
					15.37,43.06 				"/>
				<g>
					<polygon class="st16" points="22.33,37.61 22.87,37.61 18.3,43.06 18.3,45.99 17.76,45.99 17.76,43.06 					"/>
				</g>
				<g>
					<polygon class="st16" points="19.69,37.61 20.23,37.61 15.66,43.06 15.66,45.99 15.12,45.99 15.12,43.06 					"/>
				</g>
				<polygon class="st17" points="15.13,43.06 15.13,45.99 18.3,45.99 18.3,43.06 18.3,43.06 15.62,43.06 				"/>
			</g>
		</g>
		<g>
			<polygon class="st8" points="26.39,39.99 30.96,34.54 30.96,37.45 26.4,42.89 26.39,42.92 7.07,42.92 7.07,39.99 			"/>
			<polygon class="st9" points="30.96,37 30.96,34.09 26.39,39.54 26.39,42.45 			"/>
			<g>
				<polygon class="st10" points="11.69,34.19 7.28,39.44 26.35,39.44 30.75,34.19 				"/>
				<rect x="7.07" y="39.54" class="st11" width="19.32" height="2.93"/>
				<path class="st11" d="M11.66,34.17l-4.33,5.23h19.09l4.33-5.23H11.66z M9.8,37.71l1.5-1.81c1,0,2.24-0.53,2.78-1.19h13.4
					c-0.53,0.65-0.18,1.17,0.79,1.19l-1.5,1.81c-0.98,0.01-2.19,0.52-2.74,1.16h-13.4C11.12,38.23,10.76,37.72,9.8,37.71z"/>
				<path class="st12" d="M17.37,36.79c-0.5,0.61-0.16,1.1,0.76,1.1s2.08-0.49,2.58-1.1c0.5-0.61,0.16-1.1-0.76-1.1
					C19.03,35.69,17.87,36.18,17.37,36.79z"/>
				<path class="st13" d="M22.11,36.79c-0.27,0.33-0.09,0.59,0.41,0.59c0.5,0,1.12-0.27,1.39-0.59c0.27-0.33,0.09-0.59-0.41-0.59
					C23,36.2,22.38,36.46,22.11,36.79z"/>
				<path class="st13" d="M14.17,36.79c-0.27,0.33-0.09,0.59,0.41,0.59c0.5,0,1.12-0.27,1.39-0.59c0.27-0.33,0.09-0.59-0.41-0.59
					C15.06,36.2,14.44,36.46,14.17,36.79z"/>
				<path class="st14" d="M11.64,34.09h19.32l-4.57,5.45H7.07L11.64,34.09z M30.54,34.29h-18.8L7.5,39.34h18.8L30.54,34.29z"/>
				<polygon class="st15" points="20.5,34.09 23.18,34.09 18.6,39.54 18.6,42.47 15.93,42.47 15.93,39.54 				"/>
				<polygon class="st13" points="15.37,39.54 15.37,42.47 18.05,42.47 18.05,39.54 18.05,39.54 22.62,34.09 19.94,34.09 
					15.37,39.54 				"/>
				<g>
					<polygon class="st16" points="22.33,34.09 22.87,34.09 18.3,39.54 18.3,42.47 17.76,42.47 17.76,39.54 					"/>
				</g>
				<g>
					<polygon class="st16" points="19.69,34.09 20.23,34.09 15.66,39.54 15.66,42.47 15.12,42.47 15.12,39.54 					"/>
				</g>
				<polygon class="st17" points="15.13,39.54 15.13,42.47 18.3,42.47 18.3,39.54 18.3,39.54 15.62,39.54 				"/>
			</g>
		</g>
		<g>
			<polygon class="st8" points="26.39,36.47 30.96,31.02 30.96,33.93 26.4,39.37 26.39,39.4 7.07,39.4 7.07,36.47 			"/>
			<polygon class="st9" points="30.96,33.48 30.96,30.57 26.39,36.02 26.39,38.93 			"/>
			<g>
				<polygon class="st10" points="11.69,30.67 7.28,35.92 26.35,35.92 30.75,30.67 				"/>
				<rect x="7.07" y="36.02" class="st11" width="19.32" height="2.93"/>
				<path class="st11" d="M11.66,30.65l-4.33,5.23h19.09l4.33-5.23H11.66z M9.8,34.19l1.5-1.81c1,0,2.24-0.53,2.78-1.19h13.4
					c-0.53,0.65-0.18,1.17,0.79,1.19l-1.5,1.81c-0.98,0.01-2.19,0.52-2.74,1.16h-13.4C11.12,34.71,10.76,34.2,9.8,34.19z"/>
				<path class="st12" d="M17.37,33.27c-0.5,0.61-0.16,1.1,0.76,1.1s2.08-0.49,2.58-1.1c0.5-0.61,0.16-1.1-0.76-1.1
					C19.03,32.17,17.87,32.66,17.37,33.27z"/>
				<path class="st13" d="M22.11,33.27c-0.27,0.33-0.09,0.59,0.41,0.59c0.5,0,1.12-0.27,1.39-0.59c0.27-0.33,0.09-0.59-0.41-0.59
					C23,32.68,22.38,32.94,22.11,33.27z"/>
				<path class="st13" d="M14.17,33.27c-0.27,0.33-0.09,0.59,0.41,0.59c0.5,0,1.12-0.27,1.39-0.59c0.27-0.33,0.09-0.59-0.41-0.59
					C15.06,32.68,14.44,32.94,14.17,33.27z"/>
				<path class="st14" d="M11.64,30.57h19.32l-4.57,5.45H7.07L11.64,30.57z M30.54,30.77h-18.8L7.5,35.82h18.8L30.54,30.77z"/>
				<polygon class="st15" points="20.5,30.57 23.18,30.57 18.6,36.02 18.6,38.95 15.93,38.95 15.93,36.02 				"/>
				<polygon class="st13" points="15.37,36.02 15.37,38.95 18.05,38.95 18.05,36.02 18.05,36.02 22.62,30.57 19.94,30.57 
					15.37,36.02 				"/>
				<g>
					<polygon class="st16" points="22.33,30.57 22.87,30.57 18.3,36.02 18.3,38.95 17.76,38.95 17.76,36.02 					"/>
				</g>
				<g>
					<polygon class="st16" points="19.69,30.57 20.23,30.57 15.66,36.02 15.66,38.95 15.12,38.95 15.12,36.02 					"/>
				</g>
				<polygon class="st17" points="15.13,36.02 15.13,38.95 18.3,38.95 18.3,36.02 18.3,36.02 15.62,36.02 				"/>
			</g>
		</g>
	</g>
	<g>
		<g>
			<g>
				<ellipse class="st1" cx="34.25" cy="42.61" rx="3.99" ry="1.69"/>
			</g>
			<g>
				<path class="st2" d="M30.26,41.62v0.81c0,0.7,0.99,1.29,2.4,1.55c0.34,0.06,0.69,0.11,1.07,0.13c0.17,0.01,0.35,0.01,0.53,0.01
					c0.56,0,1.1-0.05,1.59-0.14c1.41-0.26,2.15-0.87,2.15-1.57l0.25-0.89c-0.57-0.63-2.29-0.79-3.99-0.79
					C32.9,40.74,30.99,41.19,30.26,41.62z"/>
			</g>
			<g class="st3">
				<path class="st4" d="M32.66,42.49v1.49c0.34,0.06,0.69,0.11,1.07,0.13v-1.62H32.66z"/>
			</g>
			<g>
				<path class="st5" d="M35.68,44.01v-3.23c1.16,0.08,2.15,0.29,2.57,0.75v0.9C38.24,43.15,37.18,43.77,35.68,44.01z"/>
			</g>
			<g>
				<ellipse class="st6" cx="34.25" cy="41.62" rx="3.99" ry="1.69"/>
			</g>
			<g>
				<path class="st4" d="M31.98,42.95c-0.68-0.21-1.19-0.51-1.44-0.84l3.21-2.12c0.19-0.01,0.37-0.02,0.55-0.02
					c0.66,0,1.31,0.07,1.89,0.2L31.98,42.95z"/>
			</g>
			<g>
				<path class="st4" d="M33.74,43.25c-0.32-0.02-0.63-0.06-0.93-0.11l4.15-2.73c0.24,0.09,0.45,0.19,0.63,0.31L33.74,43.25z"/>
			</g>
		</g>
		<g>
			<g>
				<ellipse class="st1" cx="34.25" cy="41.43" rx="3.99" ry="1.69"/>
			</g>
			<g>
				<path class="st2" d="M30.26,40.45v0.81c0,0.7,0.99,1.29,2.4,1.55c0.34,0.06,0.69,0.11,1.07,0.13c0.17,0.01,0.35,0.01,0.53,0.01
					c0.56,0,1.1-0.05,1.59-0.14c1.41-0.26,2.15-0.87,2.15-1.57l0.25-0.89c-0.57-0.63-2.29-0.79-3.99-0.79
					C32.9,39.57,30.99,40.01,30.26,40.45z"/>
			</g>
			<g class="st3">
				<path class="st4" d="M32.66,41.32v1.49c0.34,0.06,0.69,0.11,1.07,0.13v-1.62H32.66z"/>
			</g>
			<g>
				<path class="st5" d="M35.68,42.84v-3.23c1.16,0.08,2.15,0.29,2.57,0.75v0.9C38.24,41.98,37.18,42.6,35.68,42.84z"/>
			</g>
			<g>
				<ellipse class="st6" cx="34.25" cy="40.45" rx="3.99" ry="1.69"/>
			</g>
			<g>
				<path class="st4" d="M31.98,41.77c-0.68-0.21-1.19-0.51-1.44-0.84l3.21-2.12c0.19-0.01,0.37-0.02,0.55-0.02
					c0.66,0,1.31,0.07,1.89,0.2L31.98,41.77z"/>
			</g>
			<g>
				<path class="st4" d="M33.74,42.08c-0.32-0.02-0.63-0.06-0.93-0.11l4.15-2.73c0.24,0.09,0.45,0.19,0.63,0.31L33.74,42.08z"/>
			</g>
		</g>
		<g>
			<g>
				<ellipse class="st1" cx="34.25" cy="40.26" rx="3.99" ry="1.69"/>
			</g>
			<g>
				<path class="st2" d="M30.26,39.27v0.81c0,0.7,0.99,1.29,2.4,1.55c0.34,0.06,0.69,0.11,1.07,0.13c0.17,0.01,0.35,0.01,0.53,0.01
					c0.56,0,1.1-0.05,1.59-0.14c1.41-0.26,2.15-0.87,2.15-1.57l0.25-0.89c-0.57-0.63-2.29-0.79-3.99-0.79
					C32.9,38.4,30.99,38.84,30.26,39.27z"/>
			</g>
			<g class="st3">
				<path class="st4" d="M32.66,40.15v1.49c0.34,0.06,0.69,0.11,1.07,0.13v-1.62H32.66z"/>
			</g>
			<g>
				<path class="st5" d="M35.68,41.67v-3.23c1.16,0.08,2.15,0.29,2.57,0.75v0.9C38.24,40.81,37.18,41.42,35.68,41.67z"/>
			</g>
			<g>
				<ellipse class="st6" cx="34.25" cy="39.27" rx="3.99" ry="1.69"/>
			</g>
			<g>
				<path class="st4" d="M31.98,40.6c-0.68-0.21-1.19-0.51-1.44-0.84l3.21-2.12c0.19-0.01,0.37-0.02,0.55-0.02
					c0.66,0,1.31,0.07,1.89,0.2L31.98,40.6z"/>
			</g>
			<g>
				<path class="st4" d="M33.74,40.9c-0.32-0.02-0.63-0.06-0.93-0.11l4.15-2.73c0.24,0.09,0.45,0.19,0.63,0.31L33.74,40.9z"/>
			</g>
		</g>
		<g>
			<g>
				<ellipse class="st1" cx="34.25" cy="39.09" rx="3.99" ry="1.69"/>
			</g>
			<g>
				<path class="st2" d="M30.26,38.1v0.81c0,0.7,0.99,1.29,2.4,1.55c0.34,0.06,0.69,0.11,1.07,0.13c0.17,0.01,0.35,0.01,0.53,0.01
					c0.56,0,1.1-0.05,1.59-0.14c1.41-0.26,2.15-0.87,2.15-1.57l0.25-0.89c-0.57-0.63-2.29-0.79-3.99-0.79
					C32.9,37.22,30.99,37.67,30.26,38.1z"/>
			</g>
			<g class="st3">
				<path class="st4" d="M32.66,38.97v1.49c0.34,0.06,0.69,0.11,1.07,0.13v-1.62H32.66z"/>
			</g>
			<g>
				<path class="st5" d="M35.68,40.49v-3.23c1.16,0.08,2.15,0.29,2.57,0.75v0.9C38.24,39.63,37.18,40.25,35.68,40.49z"/>
			</g>
			<g>
				<ellipse class="st6" cx="34.25" cy="38.1" rx="3.99" ry="1.69"/>
			</g>
			<g>
				<path class="st4" d="M31.98,39.43c-0.68-0.21-1.19-0.51-1.44-0.84l3.21-2.12c0.19-0.01,0.37-0.02,0.55-0.02
					c0.66,0,1.31,0.07,1.89,0.2L31.98,39.43z"/>
			</g>
			<g>
				<path class="st4" d="M33.74,39.73c-0.32-0.02-0.63-0.06-0.93-0.11l4.15-2.73c0.24,0.09,0.45,0.19,0.63,0.31L33.74,39.73z"/>
			</g>
		</g>
		<g>
			<g>
				<ellipse class="st1" cx="34.25" cy="37.91" rx="3.99" ry="1.69"/>
			</g>
			<g>
				<path class="st2" d="M30.26,36.93v0.81c0,0.7,0.99,1.29,2.4,1.55c0.34,0.06,0.69,0.11,1.07,0.13c0.17,0.01,0.35,0.01,0.53,0.01
					c0.56,0,1.1-0.05,1.59-0.14c1.41-0.26,2.15-0.87,2.15-1.57l0.25-0.89c-0.57-0.63-2.29-0.79-3.99-0.79
					C32.9,36.05,30.99,36.49,30.26,36.93z"/>
			</g>
			<g class="st3">
				<path class="st4" d="M32.66,37.8v1.49c0.34,0.06,0.69,0.11,1.07,0.13V37.8H32.66z"/>
			</g>
			<g>
				<path class="st5" d="M35.68,39.32v-3.23c1.16,0.08,2.15,0.29,2.57,0.75v0.9C38.24,38.46,37.18,39.08,35.68,39.32z"/>
			</g>
			<g>
				<ellipse class="st6" cx="34.25" cy="36.93" rx="3.99" ry="1.69"/>
			</g>
			<g>
				<path class="st4" d="M31.98,38.25c-0.68-0.21-1.19-0.51-1.44-0.84l3.21-2.12c0.19-0.01,0.37-0.02,0.55-0.02
					c0.66,0,1.31,0.07,1.89,0.2L31.98,38.25z"/>
			</g>
			<g>
				<path class="st4" d="M33.74,38.56c-0.32-0.02-0.63-0.06-0.93-0.11l4.15-2.73c0.24,0.09,0.45,0.19,0.63,0.31L33.74,38.56z"/>
			</g>
		</g>
		<g>
			<g>
				<ellipse class="st1" cx="34.25" cy="36.74" rx="3.99" ry="1.69"/>
			</g>
			<g>
				<path class="st2" d="M30.26,35.75v0.81c0,0.7,0.99,1.29,2.4,1.55c0.34,0.06,0.69,0.11,1.07,0.13c0.17,0.01,0.35,0.01,0.53,0.01
					c0.56,0,1.1-0.05,1.59-0.14c1.41-0.26,2.15-0.87,2.15-1.57l0.25-0.89c-0.57-0.63-2.29-0.79-3.99-0.79
					C32.9,34.88,30.99,35.32,30.26,35.75z"/>
			</g>
			<g class="st3">
				<path class="st4" d="M32.66,36.63v1.49c0.34,0.06,0.69,0.11,1.07,0.13v-1.62H32.66z"/>
			</g>
			<g>
				<path class="st5" d="M35.68,38.15v-3.23c1.16,0.08,2.15,0.29,2.57,0.75v0.9C38.24,37.29,37.18,37.9,35.68,38.15z"/>
			</g>
			<g>
				<ellipse class="st6" cx="34.25" cy="35.76" rx="3.99" ry="1.69"/>
			</g>
			<g>
				<path class="st4" d="M31.98,37.08c-0.68-0.21-1.19-0.51-1.44-0.84l3.21-2.12c0.19-0.01,0.37-0.02,0.55-0.02
					c0.66,0,1.31,0.07,1.89,0.2L31.98,37.08z"/>
			</g>
			<g>
				<path class="st4" d="M33.74,37.38c-0.32-0.02-0.63-0.06-0.93-0.11l4.15-2.73c0.24,0.09,0.45,0.19,0.63,0.31L33.74,37.38z"/>
			</g>
		</g>
	</g>
</g>
</svg>
