<?xml version="1.0" encoding="utf-8"?>
<!-- Generator: Adobe Illustrator 23.0.3, SVG Export Plug-In . SVG Version: 6.00 Build 0)  -->
<svg version="1.1" id="Layer_1" xmlns="http://www.w3.org/2000/svg" xmlns:xlink="http://www.w3.org/1999/xlink" x="0px" y="0px"
	 viewBox="0 0 60 80" style="enable-background:new 0 0 60 80;" xml:space="preserve">
<style type="text/css">
	.st0{opacity:0.72;fill:#9EB3B6;enable-background:new    ;}
	.st1{fill:#CE7D13;}
	.st2{fill:#FFC50D;}
	.st3{opacity:0.43;}
	.st4{fill:#FFFC8F;}
	.st5{fill:#F19D00;}
	.st6{fill:#FFD400;}
	.st7{opacity:0.72;fill:#9C86B7;enable-background:new    ;}
</style>
<g>
	<g>
		<path class="st0" d="M34.3,46.1c-0.1-0.1-0.2-0.3-0.2-0.5c0-0.9,1.7-1.6,3.7-1.6s3.7,0.7,3.7,1.6c0,0.2-0.1,0.3-0.2,0.5l0,0
			L37,51.4l-5.3-5.8L34.3,46.1z"/>
		<g>
			<g>
				<g>
					<ellipse class="st1" cx="28" cy="48.1" rx="3.7" ry="1.6"/>
				</g>
				<g>
					<path class="st2" d="M24.3,47.2V48c0,0.6,0.9,1.2,2.2,1.4c0.3,0.1,0.6,0.1,1,0.1c0.2,0,0.3,0,0.5,0c0.5,0,1,0,1.5-0.1
						c1.3-0.2,2-0.8,2-1.5l0.2-0.8c-0.5-0.6-2.1-0.7-3.7-0.7C26.8,46.4,25,46.8,24.3,47.2z"/>
				</g>
				<g class="st3">
					<path class="st4" d="M26.5,48v1.4c0.3,0.1,0.6,0.1,1,0.1V48H26.5z"/>
				</g>
				<g>
					<path class="st5" d="M29.3,49.4v-3c1.1,0.1,2,0.3,2.4,0.7V48C31.8,48.6,30.8,49.2,29.3,49.4z"/>
				</g>
				<g>
					<ellipse class="st6" cx="28" cy="47.2" rx="3.7" ry="1.6"/>
				</g>
				<g>
					<path class="st4" d="M26,48.4c-0.6-0.2-1.1-0.5-1.3-0.8l3-2c0.2,0,0.3,0,0.5,0c0.6,0,1.2,0.1,1.8,0.2L26,48.4z"/>
				</g>
				<g>
					<path class="st4" d="M27.5,48.7c-0.3,0-0.6-0.1-0.9-0.1l3.9-2.5c0.2,0.1,0.4,0.2,0.6,0.3L27.5,48.7z"/>
				</g>
			</g>
			<g>
				<g>
					<ellipse class="st1" cx="28" cy="47" rx="3.7" ry="1.6"/>
				</g>
				<g>
					<path class="st2" d="M24.3,46.1v0.8c0,0.6,0.9,1.2,2.2,1.4c0.3,0.1,0.6,0.1,1,0.1c0.2,0,0.3,0,0.5,0c0.5,0,1,0,1.5-0.1
						c1.3-0.2,2-0.8,2-1.5l0.2-0.8c-0.5-0.6-2.1-0.7-3.7-0.7C26.8,45.3,25,45.7,24.3,46.1z"/>
				</g>
				<g class="st3">
					<path class="st4" d="M26.5,46.9v1.4c0.3,0.1,0.6,0.1,1,0.1v-1.5H26.5z"/>
				</g>
				<g>
					<path class="st5" d="M29.3,48.3v-3c1.1,0.1,2,0.3,2.4,0.7v0.8C31.8,47.5,30.8,48.1,29.3,48.3z"/>
				</g>
				<g>
					<ellipse class="st6" cx="28" cy="46.1" rx="3.7" ry="1.6"/>
				</g>
				<g>
					<path class="st4" d="M26,47.3c-0.6-0.2-1.1-0.5-1.3-0.8l3-2c0.2,0,0.3,0,0.5,0c0.6,0,1.2,0.1,1.8,0.2L26,47.3z"/>
				</g>
				<g>
					<path class="st4" d="M27.5,47.6c-0.3,0-0.6-0.1-0.9-0.1l3.9-2.5c0.2,0.1,0.4,0.2,0.6,0.3L27.5,47.6z"/>
				</g>
			</g>
			<g>
				<g>
					<ellipse class="st1" cx="28" cy="45.9" rx="3.7" ry="1.6"/>
				</g>
				<g>
					<path class="st2" d="M24.3,45v0.8c0,0.6,0.9,1.2,2.2,1.4c0.3,0.1,0.6,0.1,1,0.1c0.2,0,0.3,0,0.5,0c0.5,0,1,0,1.5-0.1
						c1.3-0.2,2-0.8,2-1.5l0.2-0.8c-0.5-0.6-2.1-0.7-3.7-0.7C26.8,44.2,25,44.6,24.3,45z"/>
				</g>
				<g class="st3">
					<path class="st4" d="M26.5,45.8v1.4c0.3,0.1,0.6,0.1,1,0.1v-1.5H26.5z"/>
				</g>
				<g>
					<path class="st5" d="M29.3,47.2v-3c1.1,0.1,2,0.3,2.4,0.7v0.8C31.8,46.4,30.8,47,29.3,47.2z"/>
				</g>
				<g>
					<ellipse class="st6" cx="28" cy="45" rx="3.7" ry="1.6"/>
				</g>
				<g>
					<path class="st4" d="M26,46.3c-0.6-0.2-1.1-0.5-1.3-0.8l3-2c0.2,0,0.3,0,0.5,0c0.6,0,1.2,0.1,1.8,0.2L26,46.3z"/>
				</g>
				<g>
					<path class="st4" d="M27.5,46.5c-0.3,0-0.6-0.1-0.9-0.1l3.9-2.5c0.2,0.1,0.4,0.2,0.6,0.3L27.5,46.5z"/>
				</g>
			</g>
			<g>
				<g>
					<ellipse class="st1" cx="28" cy="44.8" rx="3.7" ry="1.6"/>
				</g>
				<g>
					<path class="st2" d="M24.3,43.9v0.8c0,0.6,0.9,1.2,2.2,1.4c0.3,0.1,0.6,0.1,1,0.1c0.2,0,0.3,0,0.5,0c0.5,0,1,0,1.5-0.1
						c1.3-0.2,2-0.8,2-1.5l0.2-0.8c-0.5-0.6-2.1-0.7-3.7-0.7C26.8,43.1,25,43.5,24.3,43.9z"/>
				</g>
				<g class="st3">
					<path class="st4" d="M26.5,44.7v1.4c0.3,0.1,0.6,0.1,1,0.1v-1.5H26.5z"/>
				</g>
				<g>
					<path class="st5" d="M29.3,46.2v-3c1.1,0.1,2,0.3,2.4,0.7v0.8C31.8,45.4,30.8,45.9,29.3,46.2z"/>
				</g>
				<g>
					<ellipse class="st6" cx="28" cy="43.9" rx="3.7" ry="1.6"/>
				</g>
				<g>
					<path class="st4" d="M26,45.2c-0.6-0.2-1.1-0.5-1.3-0.8l3-2c0.2,0,0.3,0,0.5,0c0.6,0,1.2,0.1,1.8,0.2L26,45.2z"/>
				</g>
				<g>
					<path class="st4" d="M27.5,45.4c-0.3,0-0.6-0.1-0.9-0.1l3.9-2.5c0.2,0.1,0.4,0.2,0.6,0.3L27.5,45.4z"/>
				</g>
			</g>
			<g>
				<g>
					<ellipse class="st1" cx="28" cy="43.8" rx="3.7" ry="1.6"/>
				</g>
				<g>
					<path class="st2" d="M24.3,42.8v0.8c0,0.6,0.9,1.2,2.2,1.4c0.3,0.1,0.6,0.1,1,0.1c0.2,0,0.3,0,0.5,0c0.5,0,1,0,1.5-0.1
						c1.3-0.2,2-0.8,2-1.5l0.2-0.8C31.2,42.2,29.7,42,28,42C26.8,42,25,42.4,24.3,42.8z"/>
				</g>
				<g class="st3">
					<path class="st4" d="M26.5,43.7V45c0.3,0.1,0.6,0.1,1,0.1v-1.5h-1V43.7z"/>
				</g>
				<g>
					<path class="st5" d="M29.3,45.1v-3c1.1,0.1,2,0.3,2.4,0.7v0.8C31.8,44.3,30.8,44.8,29.3,45.1z"/>
				</g>
				<g>
					<ellipse class="st6" cx="28" cy="42.8" rx="3.7" ry="1.6"/>
				</g>
				<g>
					<path class="st4" d="M26,44.1c-0.6-0.2-1.1-0.5-1.3-0.8l3-2c0.2,0,0.3,0,0.5,0c0.6,0,1.2,0.1,1.8,0.2L26,44.1z"/>
				</g>
				<g>
					<path class="st4" d="M27.5,44.4c-0.3,0-0.6-0.1-0.9-0.1l3.9-2.5c0.2,0.1,0.4,0.2,0.6,0.3L27.5,44.4z"/>
				</g>
			</g>
			<g>
				<g>
					<ellipse class="st1" cx="28" cy="42.7" rx="3.7" ry="1.6"/>
				</g>
				<g>
					<path class="st2" d="M24.3,41.8v0.8c0,0.6,0.9,1.2,2.2,1.4c0.3,0.1,0.6,0.1,1,0.1c0.2,0,0.3,0,0.5,0c0.5,0,1,0,1.5-0.1
						c1.3-0.2,2-0.8,2-1.5l0.2-0.8C31.2,41.1,29.7,41,28,41C26.8,40.9,25,41.3,24.3,41.8z"/>
				</g>
				<g class="st3">
					<path class="st4" d="M26.5,42.6V44c0.3,0.1,0.6,0.1,1,0.1v-1.5H26.5z"/>
				</g>
				<g>
					<path class="st5" d="M29.3,44v-3c1.1,0.1,2,0.3,2.4,0.7v0.8C31.8,43.2,30.8,43.7,29.3,44z"/>
				</g>
				<g>
					<ellipse class="st6" cx="28" cy="41.8" rx="3.7" ry="1.6"/>
				</g>
				<g>
					<path class="st4" d="M26,43c-0.6-0.2-1.1-0.5-1.3-0.8l3-2c0.2,0,0.3,0,0.5,0c0.6,0,1.2,0.1,1.8,0.2L26,43z"/>
				</g>
				<g>
					<path class="st4" d="M27.5,43.3c-0.3,0-0.6-0.1-0.9-0.1l3.9-2.5c0.2,0.1,0.4,0.2,0.6,0.3L27.5,43.3z"/>
				</g>
			</g>
			<g>
				<g>
					<ellipse class="st1" cx="28" cy="41.6" rx="3.7" ry="1.6"/>
				</g>
				<g>
					<path class="st2" d="M24.3,40.7v0.8c0,0.6,0.9,1.2,2.2,1.4c0.3,0.1,0.6,0.1,1,0.1c0.2,0,0.3,0,0.5,0c0.5,0,1,0,1.5-0.1
						c1.3-0.2,2-0.8,2-1.5l0.2-0.8c-0.5-0.6-2.1-0.7-3.7-0.7C26.8,39.8,25,40.3,24.3,40.7z"/>
				</g>
				<g class="st3">
					<path class="st4" d="M26.5,41.5v1.4c0.3,0.1,0.6,0.1,1,0.1v-1.5H26.5z"/>
				</g>
				<g>
					<path class="st5" d="M29.3,42.9v-3c1.1,0.1,2,0.3,2.4,0.7v0.8C31.8,42.1,30.8,42.7,29.3,42.9z"/>
				</g>
				<g>
					<ellipse class="st6" cx="28" cy="40.7" rx="3.7" ry="1.6"/>
				</g>
				<g>
					<path class="st4" d="M26,41.9c-0.6-0.2-1.1-0.5-1.3-0.8l3-2c0.2,0,0.3,0,0.5,0c0.6,0,1.2,0.1,1.8,0.2L26,41.9z"/>
				</g>
				<g>
					<path class="st4" d="M27.5,42.2c-0.3,0-0.6-0.1-0.9-0.1l3.9-2.5c0.2,0.1,0.4,0.2,0.6,0.3L27.5,42.2z"/>
				</g>
			</g>
			<g>
				<g>
					<ellipse class="st1" cx="28" cy="40.5" rx="3.7" ry="1.6"/>
				</g>
				<g>
					<path class="st2" d="M24.3,39.6v0.8c0,0.6,0.9,1.2,2.2,1.4c0.3,0.1,0.6,0.1,1,0.1c0.2,0,0.3,0,0.5,0c0.5,0,1,0,1.5-0.1
						c1.3-0.2,2-0.8,2-1.5l0.2-0.8c-0.5-0.6-2.1-0.7-3.7-0.7C26.8,38.8,25,39.2,24.3,39.6z"/>
				</g>
				<g class="st3">
					<path class="st4" d="M26.5,40.4v1.4c0.3,0.1,0.6,0.1,1,0.1v-1.5H26.5z"/>
				</g>
				<g>
					<path class="st5" d="M29.3,41.8v-3c1.1,0.1,2,0.3,2.4,0.7v0.8C31.8,41,30.8,41.6,29.3,41.8z"/>
				</g>
				<g>
					<ellipse class="st6" cx="28" cy="39.6" rx="3.7" ry="1.6"/>
				</g>
				<g>
					<path class="st4" d="M26,40.8c-0.6-0.2-1.1-0.5-1.3-0.8l3-2c0.2,0,0.3,0,0.5,0c0.6,0,1.2,0.1,1.8,0.2L26,40.8z"/>
				</g>
				<g>
					<path class="st4" d="M27.5,41.1c-0.3,0-0.6-0.1-0.9-0.1l3.9-2.5c0.2,0.1,0.4,0.2,0.6,0.3L27.5,41.1z"/>
				</g>
			</g>
			<g>
				<g>
					<ellipse class="st1" cx="28" cy="39.4" rx="3.7" ry="1.6"/>
				</g>
				<g>
					<path class="st2" d="M24.3,38.5v0.8c0,0.6,0.9,1.2,2.2,1.4c0.3,0.1,0.6,0.1,1,0.1c0.2,0,0.3,0,0.5,0c0.5,0,1,0,1.5-0.1
						c1.3-0.2,2-0.8,2-1.5l0.2-0.8c-0.5-0.6-2.1-0.7-3.7-0.7C26.8,37.7,25,38.1,24.3,38.5z"/>
				</g>
				<g class="st3">
					<path class="st4" d="M26.5,39.3v1.4c0.3,0.1,0.6,0.1,1,0.1v-1.5H26.5z"/>
				</g>
				<g>
					<path class="st5" d="M29.3,40.7v-3c1.1,0.1,2,0.3,2.4,0.7v0.8C31.8,39.9,30.8,40.5,29.3,40.7z"/>
				</g>
				<g>
					<ellipse class="st6" cx="28" cy="38.5" rx="3.7" ry="1.6"/>
				</g>
				<g>
					<path class="st4" d="M26,39.7c-0.6-0.2-1.1-0.5-1.3-0.8l3-2c0.2,0,0.3,0,0.5,0c0.6,0,1.2,0.1,1.8,0.2L26,39.7z"/>
				</g>
				<g>
					<path class="st4" d="M27.5,40c-0.3,0-0.6-0.1-0.9-0.1l3.9-2.5c0.2,0.1,0.4,0.2,0.6,0.3L27.5,40z"/>
				</g>
			</g>
			<g>
				<g>
					<ellipse class="st1" cx="28" cy="38.3" rx="3.7" ry="1.6"/>
				</g>
				<g>
					<path class="st2" d="M24.3,37.4v0.8c0,0.6,0.9,1.2,2.2,1.4c0.3,0.1,0.6,0.1,1,0.1c0.2,0,0.3,0,0.5,0c0.5,0,1,0,1.5-0.1
						c1.3-0.2,2-0.8,2-1.5l0.2-0.8c-0.5-0.6-2.1-0.7-3.7-0.7C26.8,36.6,25,37,24.3,37.4z"/>
				</g>
				<g class="st3">
					<path class="st4" d="M26.5,38.2v1.4c0.3,0.1,0.6,0.1,1,0.1v-1.5H26.5z"/>
				</g>
				<g>
					<path class="st5" d="M29.3,39.6v-3c1.1,0.1,2,0.3,2.4,0.7v0.8C31.8,38.8,30.8,39.4,29.3,39.6z"/>
				</g>
				<g>
					<ellipse class="st6" cx="28" cy="37.4" rx="3.7" ry="1.6"/>
				</g>
				<g>
					<path class="st4" d="M26,38.6c-0.6-0.2-1.1-0.5-1.3-0.8l3-2c0.2,0,0.3,0,0.5,0c0.6,0,1.2,0.1,1.8,0.2L26,38.6z"/>
				</g>
				<g>
					<path class="st4" d="M27.5,38.9c-0.3,0-0.6-0.1-0.9-0.1l3.9-2.5c0.2,0.1,0.4,0.2,0.6,0.3L27.5,38.9z"/>
				</g>
			</g>
			<g>
				<g>
					<ellipse class="st1" cx="28" cy="37.2" rx="3.7" ry="1.6"/>
				</g>
				<g>
					<path class="st2" d="M24.3,36.3v0.8c0,0.6,0.9,1.2,2.2,1.4c0.3,0.1,0.6,0.1,1,0.1c0.2,0,0.3,0,0.5,0c0.5,0,1,0,1.5-0.1
						c1.3-0.2,2-0.8,2-1.5l0.2-0.8c-0.5-0.6-2.1-0.7-3.7-0.7C26.8,35.5,25,35.9,24.3,36.3z"/>
				</g>
				<g class="st3">
					<path class="st4" d="M26.5,37.1v1.4c0.3,0.1,0.6,0.1,1,0.1v-1.5H26.5z"/>
				</g>
				<g>
					<path class="st5" d="M29.3,38.5v-3c1.1,0.1,2,0.3,2.4,0.7V37C31.8,37.7,30.8,38.3,29.3,38.5z"/>
				</g>
				<g>
					<ellipse class="st6" cx="28" cy="36.3" rx="3.7" ry="1.6"/>
				</g>
				<g>
					<path class="st4" d="M26,37.5c-0.6-0.2-1.1-0.5-1.3-0.8l3-2c0.2,0,0.3,0,0.5,0c0.6,0,1.2,0.1,1.8,0.2L26,37.5z"/>
				</g>
				<g>
					<path class="st4" d="M27.5,37.8c-0.3,0-0.6-0.1-0.9-0.1l3.9-2.5c0.2,0.1,0.4,0.2,0.6,0.3L27.5,37.8z"/>
				</g>
			</g>
			<g>
				<g>
					<ellipse class="st1" cx="28" cy="36.1" rx="3.7" ry="1.6"/>
				</g>
				<g>
					<path class="st2" d="M24.3,35.2V36c0,0.6,0.9,1.2,2.2,1.4c0.3,0.1,0.6,0.1,1,0.1c0.2,0,0.3,0,0.5,0c0.5,0,1,0,1.5-0.1
						c1.3-0.2,2-0.8,2-1.5l0.2-0.8c-0.5-0.6-2.1-0.7-3.7-0.7C26.8,34.4,25,34.8,24.3,35.2z"/>
				</g>
				<g class="st3">
					<path class="st4" d="M26.5,36v1.4c0.3,0.1,0.6,0.1,1,0.1V36H26.5z"/>
				</g>
				<g>
					<path class="st5" d="M29.3,37.4v-3c1.1,0.1,2,0.3,2.4,0.7V36C31.8,36.6,30.8,37.2,29.3,37.4z"/>
				</g>
				<g>
					<ellipse class="st6" cx="28" cy="35.2" rx="3.7" ry="1.6"/>
				</g>
				<g>
					<path class="st4" d="M26,36.4c-0.6-0.2-1.1-0.5-1.3-0.8l3-2c0.2,0,0.3,0,0.5,0c0.6,0,1.2,0.1,1.8,0.2L26,36.4z"/>
				</g>
				<g>
					<path class="st4" d="M27.5,36.7c-0.3,0-0.6-0.1-0.9-0.1l3.9-2.5c0.2,0.1,0.4,0.2,0.6,0.3L27.5,36.7z"/>
				</g>
			</g>
			<g>
				<g>
					<ellipse class="st1" cx="28" cy="35" rx="3.7" ry="1.6"/>
				</g>
				<g>
					<path class="st2" d="M24.3,34.1v0.8c0,0.6,0.9,1.2,2.2,1.4c0.3,0.1,0.6,0.1,1,0.1c0.2,0,0.3,0,0.5,0c0.5,0,1,0,1.5-0.1
						c1.3-0.2,2-0.8,2-1.5l0.2-0.8c-0.5-0.6-2.1-0.7-3.7-0.7C26.8,33.3,25,33.7,24.3,34.1z"/>
				</g>
				<g class="st3">
					<path class="st4" d="M26.5,34.9v1.4c0.3,0.1,0.6,0.1,1,0.1v-1.5H26.5z"/>
				</g>
				<g>
					<path class="st5" d="M29.3,36.3v-3c1.1,0.1,2,0.3,2.4,0.7v0.8C31.8,35.6,30.8,36.1,29.3,36.3z"/>
				</g>
				<g>
					<ellipse class="st6" cx="28" cy="34.1" rx="3.7" ry="1.6"/>
				</g>
				<g>
					<path class="st4" d="M26,35.4c-0.6-0.2-1.1-0.5-1.3-0.8l3-2c0.2,0,0.3,0,0.5,0c0.6,0,1.2,0.1,1.8,0.2L26,35.4z"/>
				</g>
				<g>
					<path class="st4" d="M27.5,35.6c-0.3,0-0.6-0.1-0.9-0.1l3.9-2.5c0.2,0.1,0.4,0.2,0.6,0.3L27.5,35.6z"/>
				</g>
			</g>
			<g>
				<g>
					<ellipse class="st1" cx="28" cy="34" rx="3.7" ry="1.6"/>
				</g>
				<g>
					<path class="st2" d="M24.3,33v0.8c0,0.6,0.9,1.2,2.2,1.4c0.3,0.1,0.6,0.1,1,0.1c0.2,0,0.3,0,0.5,0c0.5,0,1,0,1.5-0.1
						c1.3-0.2,2-0.8,2-1.5l0.2-0.8c-0.5-0.6-2.1-0.7-3.7-0.7C26.8,32.2,25,32.6,24.3,33z"/>
				</g>
				<g class="st3">
					<path class="st4" d="M26.5,33.8v1.4c0.3,0.1,0.6,0.1,1,0.1v-1.5H26.5z"/>
				</g>
				<g>
					<path class="st5" d="M29.3,35.3v-3c1.1,0.1,2,0.3,2.4,0.7v0.8C31.8,34.5,30.8,35,29.3,35.3z"/>
				</g>
				<g>
					<ellipse class="st6" cx="28" cy="33" rx="3.7" ry="1.6"/>
				</g>
				<g>
					<path class="st4" d="M26,34.3c-0.6-0.2-1.1-0.5-1.3-0.8l3-2c0.2,0,0.3,0,0.5,0c0.6,0,1.2,0.1,1.8,0.2L26,34.3z"/>
				</g>
				<g>
					<path class="st4" d="M27.5,34.5c-0.3,0-0.6-0.1-0.9-0.1l3.9-2.5c0.2,0.1,0.4,0.2,0.6,0.3L27.5,34.5z"/>
				</g>
			</g>
			<g>
				<g>
					<ellipse class="st1" cx="28" cy="32.9" rx="3.7" ry="1.6"/>
				</g>
				<g>
					<path class="st2" d="M24.3,31.9v0.8c0,0.6,0.9,1.2,2.2,1.4c0.3,0.1,0.6,0.1,1,0.1c0.2,0,0.3,0,0.5,0c0.5,0,1,0,1.5-0.1
						c1.3-0.2,2-0.8,2-1.5l0.2-0.8c-0.5-0.6-2.1-0.7-3.7-0.7C26.8,31.1,25,31.5,24.3,31.9z"/>
				</g>
				<g class="st3">
					<path class="st4" d="M26.5,32.8v1.4c0.3,0.1,0.6,0.1,1,0.1v-1.5H26.5z"/>
				</g>
				<g>
					<path class="st5" d="M29.3,34.2v-3c1.1,0.1,2,0.3,2.4,0.7v0.8C31.8,33.4,30.8,33.9,29.3,34.2z"/>
				</g>
				<g>
					<ellipse class="st6" cx="28" cy="32" rx="3.7" ry="1.6"/>
				</g>
				<g>
					<path class="st4" d="M26,33.2c-0.6-0.2-1.1-0.5-1.3-0.8l3-2c0.2,0,0.3,0,0.5,0c0.6,0,1.2,0.1,1.8,0.2L26,33.2z"/>
				</g>
				<g>
					<path class="st4" d="M27.5,33.5c-0.3,0-0.6-0.1-0.9-0.1l3.9-2.5c0.2,0.1,0.4,0.2,0.6,0.3L27.5,33.5z"/>
				</g>
			</g>
			<g>
				<g>
					<ellipse class="st1" cx="28" cy="31.8" rx="3.7" ry="1.6"/>
				</g>
				<g>
					<path class="st2" d="M24.3,30.9v0.8c0,0.6,0.9,1.2,2.2,1.4c0.3,0.1,0.6,0.1,1,0.1c0.2,0,0.3,0,0.5,0c0.5,0,1,0,1.5-0.1
						c1.3-0.2,2-0.8,2-1.5l0.2-0.8C31.2,30.2,29.7,30,28,30C26.8,30,25,30.5,24.3,30.9z"/>
				</g>
				<g class="st3">
					<path class="st4" d="M26.5,31.7v1.4c0.3,0.1,0.6,0.1,1,0.1v-1.5H26.5z"/>
				</g>
				<g>
					<path class="st5" d="M29.3,33.1v-3c1.1,0.1,2,0.3,2.4,0.7v0.8C31.8,32.3,30.8,32.9,29.3,33.1z"/>
				</g>
				<g>
					<ellipse class="st6" cx="28" cy="30.9" rx="3.7" ry="1.6"/>
				</g>
				<g>
					<path class="st4" d="M26,32.1c-0.6-0.2-1.1-0.5-1.3-0.8l3-2c0.2,0,0.3,0,0.5,0c0.6,0,1.2,0.1,1.8,0.2L26,32.1z"/>
				</g>
				<g>
					<path class="st4" d="M27.5,32.4c-0.3,0-0.6-0.1-0.9-0.1l3.9-2.5c0.2,0.1,0.4,0.2,0.6,0.3L27.5,32.4z"/>
				</g>
			</g>
		</g>
		<g>
			<g>
				<g>
					<ellipse class="st1" cx="34" cy="50.5" rx="3.7" ry="1.6"/>
				</g>
				<g>
					<path class="st2" d="M30.2,49.6v0.8c0,0.6,0.9,1.2,2.2,1.4c0.3,0.1,0.6,0.1,1,0.1c0.2,0,0.3,0,0.5,0c0.5,0,1,0,1.5-0.1
						c1.3-0.2,2-0.8,2-1.5l0.2-0.8c-0.5-0.6-2.1-0.7-3.7-0.7C32.8,48.8,31,49.2,30.2,49.6z"/>
				</g>
				<g class="st3">
					<path class="st4" d="M32.5,50.4v1.4c0.3,0.1,0.6,0.1,1,0.1v-1.5H32.5z"/>
				</g>
				<g>
					<path class="st5" d="M35.3,51.8v-3c1.1,0.1,2,0.3,2.4,0.7v0.8C37.6,51,36.8,51.6,35.3,51.8z"/>
				</g>
				<g>
					<ellipse class="st6" cx="34" cy="49.6" rx="3.7" ry="1.6"/>
				</g>
				<g>
					<path class="st4" d="M31.8,50.8c-0.6-0.2-1.1-0.5-1.3-0.8l3-2c0.2,0,0.3,0,0.5,0c0.6,0,1.2,0.1,1.8,0.2L31.8,50.8z"/>
				</g>
				<g>
					<path class="st4" d="M33.5,51.1c-0.3,0-0.6-0.1-0.9-0.1l3.9-2.5c0.2,0.1,0.4,0.2,0.6,0.3L33.5,51.1z"/>
				</g>
			</g>
			<g>
				<g>
					<ellipse class="st1" cx="34" cy="49.4" rx="3.7" ry="1.6"/>
				</g>
				<g>
					<path class="st2" d="M30.2,48.5v0.8c0,0.6,0.9,1.2,2.2,1.4c0.3,0.1,0.6,0.1,1,0.1c0.2,0,0.3,0,0.5,0c0.5,0,1,0,1.5-0.1
						c1.3-0.2,2-0.8,2-1.5l0.2-0.8c-0.5-0.6-2.1-0.7-3.7-0.7C32.8,47.7,31,48.1,30.2,48.5z"/>
				</g>
				<g class="st3">
					<path class="st4" d="M32.5,49.3v1.4c0.3,0.1,0.6,0.1,1,0.1v-1.5H32.5z"/>
				</g>
				<g>
					<path class="st5" d="M35.3,50.7v-3c1.1,0.1,2,0.3,2.4,0.7v0.8C37.6,49.9,36.8,50.5,35.3,50.7z"/>
				</g>
				<g>
					<ellipse class="st6" cx="34" cy="48.5" rx="3.7" ry="1.6"/>
				</g>
				<g>
					<path class="st4" d="M31.8,49.7c-0.6-0.2-1.1-0.5-1.3-0.8l3-2c0.2,0,0.3,0,0.5,0c0.6,0,1.2,0.1,1.8,0.2L31.8,49.7z"/>
				</g>
				<g>
					<path class="st4" d="M33.5,50c-0.3,0-0.6-0.1-0.9-0.1l3.9-2.5c0.2,0.1,0.4,0.2,0.6,0.3L33.5,50z"/>
				</g>
			</g>
			<g>
				<g>
					<ellipse class="st1" cx="34" cy="48.3" rx="3.7" ry="1.6"/>
				</g>
				<g>
					<path class="st2" d="M30.2,47.4v0.8c0,0.6,0.9,1.2,2.2,1.4c0.3,0.1,0.6,0.1,1,0.1c0.2,0,0.3,0,0.5,0c0.5,0,1,0,1.5-0.1
						c1.3-0.2,2-0.8,2-1.5l0.2-0.8c-0.5-0.6-2.1-0.7-3.7-0.7C32.8,46.6,31,47,30.2,47.4z"/>
				</g>
				<g class="st3">
					<path class="st4" d="M32.5,48.2v1.4c0.3,0.1,0.6,0.1,1,0.1v-1.5H32.5z"/>
				</g>
				<g>
					<path class="st5" d="M35.3,49.6v-3c1.1,0.1,2,0.3,2.4,0.7v0.8C37.6,48.8,36.8,49.4,35.3,49.6z"/>
				</g>
				<g>
					<ellipse class="st6" cx="34" cy="47.4" rx="3.7" ry="1.6"/>
				</g>
				<g>
					<path class="st4" d="M31.8,48.6c-0.6-0.2-1.1-0.5-1.3-0.8l3-2c0.2,0,0.3,0,0.5,0c0.6,0,1.2,0.1,1.8,0.2L31.8,48.6z"/>
				</g>
				<g>
					<path class="st4" d="M33.5,48.9c-0.3,0-0.6-0.1-0.9-0.1l3.9-2.5c0.2,0.1,0.4,0.2,0.6,0.3L33.5,48.9z"/>
				</g>
			</g>
			<g>
				<g>
					<ellipse class="st1" cx="34" cy="47.2" rx="3.7" ry="1.6"/>
				</g>
				<g>
					<path class="st2" d="M30.2,46.3v0.8c0,0.6,0.9,1.2,2.2,1.4c0.3,0.1,0.6,0.1,1,0.1c0.2,0,0.3,0,0.5,0c0.5,0,1,0,1.5-0.1
						c1.3-0.2,2-0.8,2-1.5l0.2-0.8c-0.5-0.6-2.1-0.7-3.7-0.7C32.8,45.5,31,45.9,30.2,46.3z"/>
				</g>
				<g class="st3">
					<path class="st4" d="M32.5,47.1v1.4c0.3,0.1,0.6,0.1,1,0.1v-1.5H32.5z"/>
				</g>
				<g>
					<path class="st5" d="M35.3,48.5v-3c1.1,0.1,2,0.3,2.4,0.7V47C37.6,47.8,36.8,48.3,35.3,48.5z"/>
				</g>
				<g>
					<ellipse class="st6" cx="34" cy="46.3" rx="3.7" ry="1.6"/>
				</g>
				<g>
					<path class="st4" d="M31.8,47.6c-0.6-0.2-1.1-0.5-1.3-0.8l3-2c0.2,0,0.3,0,0.5,0c0.6,0,1.2,0.1,1.8,0.2L31.8,47.6z"/>
				</g>
				<g>
					<path class="st4" d="M33.5,47.8c-0.3,0-0.6-0.1-0.9-0.1l3.9-2.5c0.2,0.1,0.4,0.2,0.6,0.3L33.5,47.8z"/>
				</g>
			</g>
			<g>
				<g>
					<ellipse class="st1" cx="34" cy="46.2" rx="3.7" ry="1.6"/>
				</g>
				<g>
					<path class="st2" d="M30.2,45.2V46c0,0.6,0.9,1.2,2.2,1.4c0.3,0.1,0.6,0.1,1,0.1c0.2,0,0.3,0,0.5,0c0.5,0,1,0,1.5-0.1
						c1.3-0.2,2-0.8,2-1.5l0.2-0.8c-0.5-0.6-2.1-0.7-3.7-0.7C32.8,44.4,31,44.8,30.2,45.2z"/>
				</g>
				<g class="st3">
					<path class="st4" d="M32.5,46v1.4c0.3,0.1,0.6,0.1,1,0.1V46H32.5z"/>
				</g>
				<g>
					<path class="st5" d="M35.3,47.5v-3c1.1,0.1,2,0.3,2.4,0.7V46C37.6,46.7,36.8,47.2,35.3,47.5z"/>
				</g>
				<g>
					<ellipse class="st6" cx="34" cy="45.2" rx="3.7" ry="1.6"/>
				</g>
				<g>
					<path class="st4" d="M31.8,46.5c-0.6-0.2-1.1-0.5-1.3-0.8l3-2c0.2,0,0.3,0,0.5,0c0.6,0,1.2,0.1,1.8,0.2L31.8,46.5z"/>
				</g>
				<g>
					<path class="st4" d="M33.5,46.8c-0.3,0-0.6-0.1-0.9-0.1l3.9-2.5c0.2,0.1,0.4,0.2,0.6,0.3L33.5,46.8z"/>
				</g>
			</g>
			<g>
				<g>
					<ellipse class="st1" cx="34" cy="45.1" rx="3.7" ry="1.6"/>
				</g>
				<g>
					<path class="st2" d="M30.2,44.1v0.8c0,0.6,0.9,1.2,2.2,1.4c0.3,0.1,0.6,0.1,1,0.1c0.2,0,0.3,0,0.5,0c0.5,0,1,0,1.5-0.1
						c1.3-0.2,2-0.8,2-1.5l0.2-0.8c-0.5-0.6-2.1-0.7-3.7-0.7C32.8,43.3,31,43.7,30.2,44.1z"/>
				</g>
				<g class="st3">
					<path class="st4" d="M32.5,45v1.4c0.3,0.1,0.6,0.1,1,0.1V45H32.5z"/>
				</g>
				<g>
					<path class="st5" d="M35.3,46.4v-3c1.1,0.1,2,0.3,2.4,0.7v0.8C37.6,45.6,36.8,46.1,35.3,46.4z"/>
				</g>
				<g>
					<ellipse class="st6" cx="34" cy="44.2" rx="3.7" ry="1.6"/>
				</g>
				<g>
					<path class="st4" d="M31.8,45.4c-0.6-0.2-1.1-0.5-1.3-0.8l3-2c0.2,0,0.3,0,0.5,0c0.6,0,1.2,0.1,1.8,0.2L31.8,45.4z"/>
				</g>
				<g>
					<path class="st4" d="M33.5,45.7c-0.3,0-0.6-0.1-0.9-0.1l3.9-2.5c0.2,0.1,0.4,0.2,0.6,0.3L33.5,45.7z"/>
				</g>
			</g>
			<g>
				<g>
					<ellipse class="st1" cx="34" cy="44" rx="3.7" ry="1.6"/>
				</g>
				<g>
					<path class="st2" d="M30.2,43.1v0.8c0,0.6,0.9,1.2,2.2,1.4c0.3,0.1,0.6,0.1,1,0.1c0.2,0,0.3,0,0.5,0c0.5,0,1,0,1.5-0.1
						c1.3-0.2,2-0.8,2-1.5l0.2-0.8c-0.5-0.6-2.1-0.7-3.7-0.7C32.8,42.2,31,42.7,30.2,43.1z"/>
				</g>
				<g class="st3">
					<path class="st4" d="M32.5,43.9v1.4c0.3,0.1,0.6,0.1,1,0.1v-1.5H32.5z"/>
				</g>
				<g>
					<path class="st5" d="M35.3,45.3v-3c1.1,0.1,2,0.3,2.4,0.7v0.8C37.6,44.5,36.8,45.1,35.3,45.3z"/>
				</g>
				<g>
					<ellipse class="st6" cx="34" cy="43.1" rx="3.7" ry="1.6"/>
				</g>
				<g>
					<path class="st4" d="M31.8,44.3c-0.6-0.2-1.1-0.5-1.3-0.8l3-2c0.2,0,0.3,0,0.5,0c0.6,0,1.2,0.1,1.8,0.2L31.8,44.3z"/>
				</g>
				<g>
					<path class="st4" d="M33.5,44.6c-0.3,0-0.6-0.1-0.9-0.1l3.9-2.5c0.2,0.1,0.4,0.2,0.6,0.3L33.5,44.6z"/>
				</g>
			</g>
			<g>
				<g>
					<ellipse class="st1" cx="34" cy="42.9" rx="3.7" ry="1.6"/>
				</g>
				<g>
					<path class="st2" d="M30.2,42v0.8c0,0.6,0.9,1.2,2.2,1.4c0.3,0.1,0.6,0.1,1,0.1c0.2,0,0.3,0,0.5,0c0.5,0,1,0,1.5-0.1
						c1.3-0.2,2-0.8,2-1.5l0.2-0.8c-0.5-0.6-2.1-0.7-3.7-0.7C32.8,41.2,31,41.6,30.2,42z"/>
				</g>
				<g class="st3">
					<path class="st4" d="M32.5,42.8v1.4c0.3,0.1,0.6,0.1,1,0.1v-1.5H32.5z"/>
				</g>
				<g>
					<path class="st5" d="M35.3,44.2v-3c1.1,0.1,2,0.3,2.4,0.7v0.8C37.6,43.4,36.8,44,35.3,44.2z"/>
				</g>
				<g>
					<ellipse class="st6" cx="34" cy="42" rx="3.7" ry="1.6"/>
				</g>
				<g>
					<path class="st4" d="M31.8,43.2c-0.6-0.2-1.1-0.5-1.3-0.8l3-2c0.2,0,0.3,0,0.5,0c0.6,0,1.2,0.1,1.8,0.2L31.8,43.2z"/>
				</g>
				<g>
					<path class="st4" d="M33.5,43.5c-0.3,0-0.6-0.1-0.9-0.1l3.9-2.5c0.2,0.1,0.4,0.2,0.6,0.3L33.5,43.5z"/>
				</g>
			</g>
			<g>
				<g>
					<ellipse class="st1" cx="34" cy="41.8" rx="3.7" ry="1.6"/>
				</g>
				<g>
					<path class="st2" d="M30.2,40.9v0.8c0,0.6,0.9,1.2,2.2,1.4c0.3,0.1,0.6,0.1,1,0.1c0.2,0,0.3,0,0.5,0c0.5,0,1,0,1.5-0.1
						c1.3-0.2,2-0.8,2-1.5l0.2-0.8c-0.5-0.6-2.1-0.7-3.7-0.7C32.8,40.1,31,40.5,30.2,40.9z"/>
				</g>
				<g class="st3">
					<path class="st4" d="M32.5,41.7v1.4c0.3,0.1,0.6,0.1,1,0.1v-1.5H32.5z"/>
				</g>
				<g>
					<path class="st5" d="M35.3,43.1v-3c1.1,0.1,2,0.3,2.4,0.7v0.8C37.6,42.3,36.8,42.9,35.3,43.1z"/>
				</g>
				<g>
					<ellipse class="st6" cx="34" cy="40.9" rx="3.7" ry="1.6"/>
				</g>
				<g>
					<path class="st4" d="M31.8,42.1c-0.6-0.2-1.1-0.5-1.3-0.8l3-2c0.2,0,0.3,0,0.5,0c0.6,0,1.2,0.1,1.8,0.2L31.8,42.1z"/>
				</g>
				<g>
					<path class="st4" d="M33.5,42.4c-0.3,0-0.6-0.1-0.9-0.1l3.9-2.5c0.2,0.1,0.4,0.2,0.6,0.3L33.5,42.4z"/>
				</g>
			</g>
			<g>
				<g>
					<ellipse class="st1" cx="34" cy="40.7" rx="3.7" ry="1.6"/>
				</g>
				<g>
					<path class="st2" d="M30.2,39.8v0.8c0,0.6,0.9,1.2,2.2,1.4c0.3,0.1,0.6,0.1,1,0.1c0.2,0,0.3,0,0.5,0c0.5,0,1,0,1.5-0.1
						c1.3-0.2,2-0.8,2-1.5l0.2-0.8C37.2,39.1,35.6,39,34,39C32.8,39,31,39.4,30.2,39.8z"/>
				</g>
				<g class="st3">
					<path class="st4" d="M32.5,40.6V42c0.3,0.1,0.6,0.1,1,0.1v-1.5H32.5z"/>
				</g>
				<g>
					<path class="st5" d="M35.3,42v-3c1.1,0.1,2,0.3,2.4,0.7v0.8C37.6,41.2,36.8,41.8,35.3,42z"/>
				</g>
				<g>
					<ellipse class="st6" cx="34" cy="39.8" rx="3.7" ry="1.6"/>
				</g>
				<g>
					<path class="st4" d="M31.8,41c-0.6-0.2-1.1-0.5-1.3-0.8l3-2c0.2,0,0.3,0,0.5,0c0.6,0,1.2,0.1,1.8,0.2L31.8,41z"/>
				</g>
				<g>
					<path class="st4" d="M33.5,41.3c-0.3,0-0.6-0.1-0.9-0.1l3.9-2.5c0.2,0.1,0.4,0.2,0.6,0.3L33.5,41.3z"/>
				</g>
			</g>
			<g>
				<g>
					<ellipse class="st1" cx="34" cy="39.6" rx="3.7" ry="1.6"/>
				</g>
				<g>
					<path class="st2" d="M30.2,38.7v0.8c0,0.6,0.9,1.2,2.2,1.4c0.3,0.1,0.6,0.1,1,0.1c0.2,0,0.3,0,0.5,0c0.5,0,1,0,1.5-0.1
						c1.3-0.2,2-0.8,2-1.5l0.2-0.8c-0.5-0.6-2.1-0.7-3.7-0.7C32.8,37.9,31,38.3,30.2,38.7z"/>
				</g>
				<g class="st3">
					<path class="st4" d="M32.5,39.5v1.4c0.3,0.1,0.6,0.1,1,0.1v-1.5H32.5z"/>
				</g>
				<g>
					<path class="st5" d="M35.3,40.9v-3c1.1,0.1,2,0.3,2.4,0.7v0.8C37.6,40.1,36.8,40.7,35.3,40.9z"/>
				</g>
				<g>
					<ellipse class="st6" cx="34" cy="38.7" rx="3.7" ry="1.6"/>
				</g>
				<g>
					<path class="st4" d="M31.8,39.9c-0.6-0.2-1.1-0.5-1.3-0.8l3-2c0.2,0,0.3,0,0.5,0c0.6,0,1.2,0.1,1.8,0.2L31.8,39.9z"/>
				</g>
				<g>
					<path class="st4" d="M33.5,40.2c-0.3,0-0.6-0.1-0.9-0.1l3.9-2.5c0.2,0.1,0.4,0.2,0.6,0.3L33.5,40.2z"/>
				</g>
			</g>
			<g>
				<g>
					<ellipse class="st1" cx="34" cy="38.5" rx="3.7" ry="1.6"/>
				</g>
				<g>
					<path class="st2" d="M30.2,37.6v0.8c0,0.6,0.9,1.2,2.2,1.4c0.3,0.1,0.6,0.1,1,0.1c0.2,0,0.3,0,0.5,0c0.5,0,1,0,1.5-0.1
						c1.3-0.2,2-0.8,2-1.5l0.2-0.8c-0.5-0.6-2.1-0.7-3.7-0.7C32.8,36.8,31,37.2,30.2,37.6z"/>
				</g>
				<g class="st3">
					<path class="st4" d="M32.5,38.4v1.4c0.3,0.1,0.6,0.1,1,0.1v-1.5H32.5z"/>
				</g>
				<g>
					<path class="st5" d="M35.3,39.8v-3c1.1,0.1,2,0.3,2.4,0.7v0.8C37.6,39,36.8,39.6,35.3,39.8z"/>
				</g>
				<g>
					<ellipse class="st6" cx="34" cy="37.6" rx="3.7" ry="1.6"/>
				</g>
				<g>
					<path class="st4" d="M31.8,38.8c-0.6-0.2-1.1-0.5-1.3-0.8l3-2c0.2,0,0.3,0,0.5,0c0.6,0,1.2,0.1,1.8,0.2L31.8,38.8z"/>
				</g>
				<g>
					<path class="st4" d="M33.5,39.1c-0.3,0-0.6-0.1-0.9-0.1l3.9-2.5c0.2,0.1,0.4,0.2,0.6,0.3L33.5,39.1z"/>
				</g>
			</g>
		</g>
		<g>
			<g>
				<g>
					<ellipse class="st1" cx="22.2" cy="49" rx="3.7" ry="1.6"/>
				</g>
				<g>
					<path class="st2" d="M18.5,48.1v0.8c0,0.6,0.9,1.2,2.2,1.4c0.3,0.1,0.6,0.1,1,0.1c0.2,0,0.3,0,0.5,0c0.5,0,1,0,1.5-0.1
						c1.3-0.2,2-0.8,2-1.5l0.2-0.8c-0.5-0.6-2.1-0.7-3.7-0.7C21,47.3,19.2,47.7,18.5,48.1z"/>
				</g>
				<g class="st3">
					<path class="st4" d="M20.8,48.9v1.4c0.3,0.1,0.6,0.1,1,0.1v-1.5H20.8z"/>
				</g>
				<g>
					<path class="st5" d="M23.5,50.3v-3c1.1,0.1,2,0.3,2.4,0.7v0.8C26,49.5,25,50.1,23.5,50.3z"/>
				</g>
				<g>
					<ellipse class="st6" cx="22.2" cy="48.1" rx="3.7" ry="1.6"/>
				</g>
				<g>
					<path class="st4" d="M20,49.3c-0.6-0.2-1.1-0.5-1.3-0.8l3-2c0.2,0,0.3,0,0.5,0c0.6,0,1.2,0.1,1.8,0.2L20,49.3z"/>
				</g>
				<g>
					<path class="st4" d="M21.8,49.6c-0.3,0-0.6-0.1-0.9-0.1l3.9-2.5c0.2,0.1,0.4,0.2,0.6,0.3L21.8,49.6z"/>
				</g>
			</g>
			<g>
				<g>
					<ellipse class="st1" cx="22.2" cy="47.9" rx="3.7" ry="1.6"/>
				</g>
				<g>
					<path class="st2" d="M18.5,47v0.8c0,0.6,0.9,1.2,2.2,1.4c0.3,0.1,0.6,0.1,1,0.1c0.2,0,0.3,0,0.5,0c0.5,0,1,0,1.5-0.1
						c1.3-0.2,2-0.8,2-1.5l0.2-0.8c-0.5-0.6-2.1-0.7-3.7-0.7C21,46.2,19.2,46.6,18.5,47z"/>
				</g>
				<g class="st3">
					<path class="st4" d="M20.8,47.8v1.4c0.3,0.1,0.6,0.1,1,0.1v-1.5H20.8z"/>
				</g>
				<g>
					<path class="st5" d="M23.5,49.2v-3c1.1,0.1,2,0.3,2.4,0.7v0.8C26,48.4,25,49,23.5,49.2z"/>
				</g>
				<g>
					<ellipse class="st6" cx="22.2" cy="47" rx="3.7" ry="1.6"/>
				</g>
				<g>
					<path class="st4" d="M20,48.2c-0.6-0.2-1.1-0.5-1.3-0.8l3-2c0.2,0,0.3,0,0.5,0c0.6,0,1.2,0.1,1.8,0.2L20,48.2z"/>
				</g>
				<g>
					<path class="st4" d="M21.8,48.5c-0.3,0-0.6-0.1-0.9-0.1l3.9-2.5c0.2,0.1,0.4,0.2,0.6,0.3L21.8,48.5z"/>
				</g>
			</g>
			<g>
				<g>
					<ellipse class="st1" cx="22.2" cy="46.8" rx="3.7" ry="1.6"/>
				</g>
				<g>
					<path class="st2" d="M18.5,45.9v0.8c0,0.6,0.9,1.2,2.2,1.4c0.3,0.1,0.6,0.1,1,0.1c0.2,0,0.3,0,0.5,0c0.5,0,1,0,1.5-0.1
						c1.3-0.2,2-0.8,2-1.5l0.2-0.8c-0.5-0.6-2.1-0.7-3.7-0.7C21,45.1,19.2,45.5,18.5,45.9z"/>
				</g>
				<g class="st3">
					<path class="st4" d="M20.8,46.7v1.4c0.3,0.1,0.6,0.1,1,0.1v-1.5H20.8z"/>
				</g>
				<g>
					<path class="st5" d="M23.5,48.1v-3c1.1,0.1,2,0.3,2.4,0.7v0.8C26,47.3,25,47.9,23.5,48.1z"/>
				</g>
				<g>
					<ellipse class="st6" cx="22.2" cy="45.9" rx="3.7" ry="1.6"/>
				</g>
				<g>
					<path class="st4" d="M20,47.2c-0.6-0.2-1.1-0.5-1.3-0.8l3-2c0.2,0,0.3,0,0.5,0c0.6,0,1.2,0.1,1.8,0.2L20,47.2z"/>
				</g>
				<g>
					<path class="st4" d="M21.8,47.4c-0.3,0-0.6-0.1-0.9-0.1l3.9-2.5c0.2,0.1,0.4,0.2,0.6,0.3L21.8,47.4z"/>
				</g>
			</g>
			<g>
				<g>
					<ellipse class="st1" cx="22.2" cy="45.8" rx="3.7" ry="1.6"/>
				</g>
				<g>
					<path class="st2" d="M18.5,44.8v0.8c0,0.6,0.9,1.2,2.2,1.4c0.3,0.1,0.6,0.1,1,0.1c0.2,0,0.3,0,0.5,0c0.5,0,1,0,1.5-0.1
						c1.3-0.2,2-0.8,2-1.5l0.2-0.8c-0.5-0.6-2.1-0.7-3.7-0.7C21,44,19.2,44.4,18.5,44.8z"/>
				</g>
				<g class="st3">
					<path class="st4" d="M20.8,45.6V47c0.3,0.1,0.6,0.1,1,0.1v-1.5H20.8z"/>
				</g>
				<g>
					<path class="st5" d="M23.5,47.1v-3c1.1,0.1,2,0.3,2.4,0.7v0.8C26,46.3,25,46.8,23.5,47.1z"/>
				</g>
				<g>
					<ellipse class="st6" cx="22.2" cy="44.8" rx="3.7" ry="1.6"/>
				</g>
				<g>
					<path class="st4" d="M20,46.1c-0.6-0.2-1.1-0.5-1.3-0.8l3-2c0.2,0,0.3,0,0.5,0c0.6,0,1.2,0.1,1.8,0.2L20,46.1z"/>
				</g>
				<g>
					<path class="st4" d="M21.8,46.3c-0.3,0-0.6-0.1-0.9-0.1l3.9-2.5c0.2,0.1,0.4,0.2,0.6,0.3L21.8,46.3z"/>
				</g>
			</g>
			<g>
				<g>
					<ellipse class="st1" cx="22.2" cy="44.7" rx="3.7" ry="1.6"/>
				</g>
				<g>
					<path class="st2" d="M18.5,43.7v0.8c0,0.6,0.9,1.2,2.2,1.4c0.3,0.1,0.6,0.1,1,0.1c0.2,0,0.3,0,0.5,0c0.5,0,1,0,1.5-0.1
						c1.3-0.2,2-0.8,2-1.5l0.2-0.8c-0.5-0.6-2.1-0.7-3.7-0.7C21,42.9,19.2,43.3,18.5,43.7z"/>
				</g>
				<g class="st3">
					<path class="st4" d="M20.8,44.6V46c0.3,0.1,0.6,0.1,1,0.1v-1.5H20.8z"/>
				</g>
				<g>
					<path class="st5" d="M23.5,46v-3c1.1,0.1,2,0.3,2.4,0.7v0.8C26,45.2,25,45.7,23.5,46z"/>
				</g>
				<g>
					<ellipse class="st6" cx="22.2" cy="43.7" rx="3.7" ry="1.6"/>
				</g>
				<g>
					<path class="st4" d="M20,45c-0.6-0.2-1.1-0.5-1.3-0.8l3-2c0.2,0,0.3,0,0.5,0c0.6,0,1.2,0.1,1.8,0.2L20,45z"/>
				</g>
				<g>
					<path class="st4" d="M21.8,45.3c-0.3,0-0.6-0.1-0.9-0.1l3.9-2.5c0.2,0.1,0.4,0.2,0.6,0.3L21.8,45.3z"/>
				</g>
			</g>
			<g>
				<g>
					<ellipse class="st1" cx="22.2" cy="43.6" rx="3.7" ry="1.6"/>
				</g>
				<g>
					<path class="st2" d="M18.5,42.7v0.8c0,0.6,0.9,1.2,2.2,1.4c0.3,0.1,0.6,0.1,1,0.1c0.2,0,0.3,0,0.5,0c0.5,0,1,0,1.5-0.1
						c1.3-0.2,2-0.8,2-1.5l0.2-0.8c-0.5-0.6-2.1-0.7-3.7-0.7C21,41.8,19.2,42.3,18.5,42.7z"/>
				</g>
				<g class="st3">
					<path class="st4" d="M20.8,43.5v1.4c0.3,0.1,0.6,0.1,1,0.1v-1.5H20.8z"/>
				</g>
				<g>
					<path class="st5" d="M23.5,44.9v-3c1.1,0.1,2,0.3,2.4,0.7v0.8C26,44.1,25,44.6,23.5,44.9z"/>
				</g>
				<g>
					<ellipse class="st6" cx="22.2" cy="42.7" rx="3.7" ry="1.6"/>
				</g>
				<g>
					<path class="st4" d="M20,43.9c-0.6-0.2-1.1-0.5-1.3-0.8l3-2c0.2,0,0.3,0,0.5,0c0.6,0,1.2,0.1,1.8,0.2L20,43.9z"/>
				</g>
				<g>
					<path class="st4" d="M21.8,44.2c-0.3,0-0.6-0.1-0.9-0.1l3.9-2.5c0.2,0.1,0.4,0.2,0.6,0.3L21.8,44.2z"/>
				</g>
			</g>
			<g>
				<g>
					<ellipse class="st1" cx="22.2" cy="42.5" rx="3.7" ry="1.6"/>
				</g>
				<g>
					<path class="st2" d="M18.5,41.6v0.8c0,0.6,0.9,1.2,2.2,1.4c0.3,0.1,0.6,0.1,1,0.1c0.2,0,0.3,0,0.5,0c0.5,0,1,0,1.5-0.1
						c1.3-0.2,2-0.8,2-1.5l0.2-0.8c-0.5-0.6-2.1-0.7-3.7-0.7C21,40.8,19.2,41.2,18.5,41.6z"/>
				</g>
				<g class="st3">
					<path class="st4" d="M20.8,42.4v1.4c0.3,0.1,0.6,0.1,1,0.1v-1.5H20.8z"/>
				</g>
				<g>
					<path class="st5" d="M23.5,43.8v-3c1.1,0.1,2,0.3,2.4,0.7v0.8C26,43,25,43.6,23.5,43.8z"/>
				</g>
				<g>
					<ellipse class="st6" cx="22.2" cy="41.6" rx="3.7" ry="1.6"/>
				</g>
				<g>
					<path class="st4" d="M20,42.8c-0.6-0.2-1.1-0.5-1.3-0.8l3-2c0.2,0,0.3,0,0.5,0c0.6,0,1.2,0.1,1.8,0.2L20,42.8z"/>
				</g>
				<g>
					<path class="st4" d="M21.8,43.1c-0.3,0-0.6-0.1-0.9-0.1l3.9-2.5c0.2,0.1,0.4,0.2,0.6,0.3L21.8,43.1z"/>
				</g>
			</g>
			<g>
				<g>
					<ellipse class="st1" cx="22.2" cy="41.4" rx="3.7" ry="1.6"/>
				</g>
				<g>
					<path class="st2" d="M18.5,40.5v0.8c0,0.6,0.9,1.2,2.2,1.4c0.3,0.1,0.6,0.1,1,0.1c0.2,0,0.3,0,0.5,0c0.5,0,1,0,1.5-0.1
						c1.3-0.2,2-0.8,2-1.5l0.2-0.8c-0.5-0.6-2.1-0.7-3.7-0.7C21,39.7,19.2,40.1,18.5,40.5z"/>
				</g>
				<g class="st3">
					<path class="st4" d="M20.8,41.3v1.4c0.3,0.1,0.6,0.1,1,0.1v-1.5H20.8z"/>
				</g>
				<g>
					<path class="st5" d="M23.5,42.7v-3c1.1,0.1,2,0.3,2.4,0.7v0.8C26,41.9,25,42.5,23.5,42.7z"/>
				</g>
				<g>
					<ellipse class="st6" cx="22.2" cy="40.5" rx="3.7" ry="1.6"/>
				</g>
				<g>
					<path class="st4" d="M20,41.7c-0.6-0.2-1.1-0.5-1.3-0.8l3-2c0.2,0,0.3,0,0.5,0c0.6,0,1.2,0.1,1.8,0.2L20,41.7z"/>
				</g>
				<g>
					<path class="st4" d="M21.8,42c-0.3,0-0.6-0.1-0.9-0.1l3.9-2.5c0.2,0.1,0.4,0.2,0.6,0.3L21.8,42z"/>
				</g>
			</g>
		</g>
	</g>
	<g>
		<path class="st0" d="M33.8,51.1c-0.1-0.1-0.2-0.3-0.2-0.5c0-0.9,1.7-1.6,3.7-1.6s3.7,0.7,3.7,1.6c0,0.2-0.1,0.3-0.2,0.5l0,0
			l-3,3.7l-6.7-4.2L33.8,51.1z"/>
		<path class="st7" d="M22.9,51.9c-0.1-0.1-0.2-0.3-0.2-0.5c0-0.9,1.7-1.6,3.7-1.6s3.7,0.7,3.7,1.6c0,0.2-0.1,0.3-0.2,0.5l0,0
			l-3,3.7l-6.7-4.2L22.9,51.9z"/>
		<g>
			<g>
				<g>
					<ellipse class="st1" cx="28.8" cy="51.8" rx="3.7" ry="1.6"/>
				</g>
				<g>
					<path class="st2" d="M25.1,50.9v0.8c0,0.6,0.9,1.2,2.2,1.4c0.3,0.1,0.6,0.1,1,0.1c0.2,0,0.3,0,0.5,0c0.5,0,1,0,1.5-0.1
						c1.3-0.2,2-0.8,2-1.5l0.2-0.8c-0.5-0.6-2.1-0.7-3.7-0.7C27.6,50.1,25.8,50.5,25.1,50.9z"/>
				</g>
				<g class="st3">
					<path class="st4" d="M27.4,51.7v1.4c0.3,0.1,0.6,0.1,1,0.1v-1.5H27.4z"/>
				</g>
				<g>
					<path class="st5" d="M30.2,53.1v-3c1.1,0.1,2,0.3,2.4,0.7v0.8C32.5,52.4,31.5,52.9,30.2,53.1z"/>
				</g>
				<g>
					<ellipse class="st6" cx="28.8" cy="50.9" rx="3.7" ry="1.6"/>
				</g>
				<g>
					<path class="st4" d="M26.7,52.2c-0.6-0.2-1.1-0.5-1.3-0.8l3-2c0.2,0,0.3,0,0.5,0c0.6,0,1.2,0.1,1.8,0.2L26.7,52.2z"/>
				</g>
				<g>
					<path class="st4" d="M28.4,52.4c-0.3,0-0.6-0.1-0.9-0.1l3.9-2.5c0.2,0.1,0.4,0.2,0.6,0.3L28.4,52.4z"/>
				</g>
			</g>
			<g>
				<g>
					<ellipse class="st1" cx="28.8" cy="50.8" rx="3.7" ry="1.6"/>
				</g>
				<g>
					<path class="st2" d="M25.1,49.8v0.8c0,0.6,0.9,1.2,2.2,1.4c0.3,0.1,0.6,0.1,1,0.1c0.2,0,0.3,0,0.5,0c0.5,0,1,0,1.5-0.1
						c1.3-0.2,2-0.8,2-1.5l0.2-0.8C32,49.1,30.4,49,28.8,49C27.6,49,25.8,49.4,25.1,49.8z"/>
				</g>
				<g class="st3">
					<path class="st4" d="M27.4,50.7v1.4c0.3,0.1,0.6,0.1,1,0.1v-1.5H27.4z"/>
				</g>
				<g>
					<path class="st5" d="M30.2,52.1v-3c1.1,0.1,2,0.3,2.4,0.7v0.8C32.5,51.3,31.5,51.8,30.2,52.1z"/>
				</g>
				<g>
					<ellipse class="st6" cx="28.8" cy="49.8" rx="3.7" ry="1.6"/>
				</g>
				<g>
					<path class="st4" d="M26.7,51.1c-0.6-0.2-1.1-0.5-1.3-0.8l3-2c0.2,0,0.3,0,0.5,0c0.6,0,1.2,0.1,1.8,0.2L26.7,51.1z"/>
				</g>
				<g>
					<path class="st4" d="M28.4,51.4c-0.3,0-0.6-0.1-0.9-0.1l3.9-2.5c0.2,0.1,0.4,0.2,0.6,0.3L28.4,51.4z"/>
				</g>
			</g>
			<g>
				<g>
					<ellipse class="st1" cx="28.8" cy="49.7" rx="3.7" ry="1.6"/>
				</g>
				<g>
					<path class="st2" d="M25.1,48.8v0.8c0,0.6,0.9,1.2,2.2,1.4c0.3,0.1,0.6,0.1,1,0.1c0.2,0,0.3,0,0.5,0c0.5,0,1,0,1.5-0.1
						c1.3-0.2,2-0.8,2-1.5l0.2-0.8C32,48.1,30.4,48,28.8,48C27.6,47.9,25.8,48.3,25.1,48.8z"/>
				</g>
				<g class="st3">
					<path class="st4" d="M27.4,49.6V51c0.3,0.1,0.6,0.1,1,0.1v-1.5H27.4z"/>
				</g>
				<g>
					<path class="st5" d="M30.2,51v-3c1.1,0.1,2,0.3,2.4,0.7v0.8C32.5,50.2,31.5,50.7,30.2,51z"/>
				</g>
				<g>
					<ellipse class="st6" cx="28.8" cy="48.8" rx="3.7" ry="1.6"/>
				</g>
				<g>
					<path class="st4" d="M26.7,50c-0.6-0.2-1.1-0.5-1.3-0.8l3-2c0.2,0,0.3,0,0.5,0c0.6,0,1.2,0.1,1.8,0.2L26.7,50z"/>
				</g>
				<g>
					<path class="st4" d="M28.4,50.3c-0.3,0-0.6-0.1-0.9-0.1l3.9-2.5c0.2,0.1,0.4,0.2,0.6,0.3L28.4,50.3z"/>
				</g>
			</g>
			<g>
				<g>
					<ellipse class="st1" cx="28.8" cy="48.6" rx="3.7" ry="1.6"/>
				</g>
				<g>
					<path class="st2" d="M25.1,47.7v0.7c0,0.6,0.9,1.2,2.2,1.4c0.3,0.1,0.6,0.1,1,0.1c0.2,0,0.3,0,0.5,0c0.5,0,1,0,1.5-0.1
						c1.3-0.2,2-0.8,2-1.5l0.2-0.8c-0.5-0.6-2.1-0.7-3.7-0.7C27.6,46.8,25.8,47.3,25.1,47.7z"/>
				</g>
				<g class="st3">
					<path class="st4" d="M27.4,48.5v1.4c0.3,0.1,0.6,0.1,1,0.1v-1.5H27.4z"/>
				</g>
				<g>
					<path class="st5" d="M30.2,49.9v-3c1.1,0.1,2,0.3,2.4,0.7v0.8C32.5,49.1,31.5,49.7,30.2,49.9z"/>
				</g>
				<g>
					<ellipse class="st6" cx="28.8" cy="47.7" rx="3.7" ry="1.6"/>
				</g>
				<g>
					<path class="st4" d="M26.7,48.9c-0.6-0.2-1.1-0.5-1.3-0.8l3-2c0.2,0,0.3,0,0.5,0c0.6,0,1.2,0.1,1.8,0.2L26.7,48.9z"/>
				</g>
				<g>
					<path class="st4" d="M28.4,49.2c-0.3,0-0.6-0.1-0.9-0.1l3.9-2.5c0.2,0.1,0.4,0.2,0.6,0.3L28.4,49.2z"/>
				</g>
			</g>
			<g>
				<g>
					<ellipse class="st1" cx="28.8" cy="47.5" rx="3.7" ry="1.6"/>
				</g>
				<g>
					<path class="st2" d="M25.1,46.6v0.8c0,0.6,0.9,1.2,2.2,1.4c0.3,0.1,0.6,0.1,1,0.1c0.2,0,0.3,0,0.5,0c0.5,0,1,0,1.5-0.1
						c1.3-0.2,2-0.8,2-1.5l0.2-0.8c-0.5-0.6-2.1-0.7-3.7-0.7C27.6,45.8,25.8,46.2,25.1,46.6z"/>
				</g>
				<g class="st3">
					<path class="st4" d="M27.4,47.4v1.4c0.3,0.1,0.6,0.1,1,0.1v-1.5H27.4z"/>
				</g>
				<g>
					<path class="st5" d="M30.2,48.8v-3c1.1,0.1,2,0.3,2.4,0.7v0.8C32.5,48,31.5,48.6,30.2,48.8z"/>
				</g>
				<g>
					<ellipse class="st6" cx="28.8" cy="46.6" rx="3.7" ry="1.6"/>
				</g>
				<g>
					<path class="st4" d="M26.7,47.8c-0.6-0.2-1.1-0.5-1.3-0.8l3-2c0.2,0,0.3,0,0.5,0c0.6,0,1.2,0.1,1.8,0.2L26.7,47.8z"/>
				</g>
				<g>
					<path class="st4" d="M28.4,48.1c-0.3,0-0.6-0.1-0.9-0.1l3.9-2.5c0.2,0.1,0.4,0.2,0.6,0.3L28.4,48.1z"/>
				</g>
			</g>
			<g>
				<g>
					<ellipse class="st1" cx="28.8" cy="46.4" rx="3.7" ry="1.6"/>
				</g>
				<g>
					<path class="st2" d="M25.1,45.5v0.8c0,0.6,0.9,1.2,2.2,1.4c0.3,0.1,0.6,0.1,1,0.1c0.2,0,0.3,0,0.5,0c0.5,0,1,0,1.5-0.1
						c1.3-0.2,2-0.8,2-1.5l0.2-0.8c-0.5-0.6-2.1-0.7-3.7-0.7C27.6,44.7,25.8,45.1,25.1,45.5z"/>
				</g>
				<g class="st3">
					<path class="st4" d="M27.4,46.3v1.4c0.3,0.1,0.6,0.1,1,0.1v-1.5H27.4z"/>
				</g>
				<g>
					<path class="st5" d="M30.2,47.7v-3c1.1,0.1,2,0.3,2.4,0.7v0.8C32.5,46.9,31.5,47.5,30.2,47.7z"/>
				</g>
				<g>
					<ellipse class="st6" cx="28.8" cy="45.5" rx="3.7" ry="1.6"/>
				</g>
				<g>
					<path class="st4" d="M26.7,46.7c-0.6-0.2-1.1-0.5-1.3-0.8l3-2c0.2,0,0.3,0,0.5,0c0.6,0,1.2,0.1,1.8,0.2L26.7,46.7z"/>
				</g>
				<g>
					<path class="st4" d="M28.4,47c-0.3,0-0.6-0.1-0.9-0.1l3.9-2.5c0.2,0.1,0.4,0.2,0.6,0.3L28.4,47z"/>
				</g>
			</g>
			<g>
				<g>
					<ellipse class="st1" cx="28.8" cy="45.3" rx="3.7" ry="1.6"/>
				</g>
				<g>
					<path class="st2" d="M25.1,44.4v0.8c0,0.6,0.9,1.2,2.2,1.4c0.3,0.1,0.6,0.1,1,0.1c0.2,0,0.3,0,0.5,0c0.5,0,1,0,1.5-0.1
						c1.3-0.2,2-0.8,2-1.5l0.2-0.8c-0.5-0.6-2.1-0.7-3.7-0.7C27.6,43.6,25.8,44,25.1,44.4z"/>
				</g>
				<g class="st3">
					<path class="st4" d="M27.4,45.2v1.4c0.3,0.1,0.6,0.1,1,0.1v-1.5H27.4z"/>
				</g>
				<g>
					<path class="st5" d="M30.2,46.6v-3c1.1,0.1,2,0.3,2.4,0.7v0.8C32.5,45.8,31.5,46.4,30.2,46.6z"/>
				</g>
				<g>
					<ellipse class="st6" cx="28.8" cy="44.4" rx="3.7" ry="1.6"/>
				</g>
				<g>
					<path class="st4" d="M26.7,45.6c-0.6-0.2-1.1-0.5-1.3-0.8l3-2c0.2,0,0.3,0,0.5,0c0.6,0,1.2,0.1,1.8,0.2L26.7,45.6z"/>
				</g>
				<g>
					<path class="st4" d="M28.4,45.9c-0.3,0-0.6-0.1-0.9-0.1l3.9-2.5c0.2,0.1,0.4,0.2,0.6,0.3L28.4,45.9z"/>
				</g>
			</g>
			<g>
				<g>
					<ellipse class="st1" cx="28.8" cy="44.2" rx="3.7" ry="1.6"/>
				</g>
				<g>
					<path class="st2" d="M25.1,43.3v0.8c0,0.6,0.9,1.2,2.2,1.4c0.3,0.1,0.6,0.1,1,0.1c0.2,0,0.3,0,0.5,0c0.5,0,1,0,1.5-0.1
						c1.3-0.2,2-0.8,2-1.5l0.2-0.8c-0.5-0.6-2.1-0.7-3.7-0.7C27.6,42.5,25.8,42.9,25.1,43.3z"/>
				</g>
				<g class="st3">
					<path class="st4" d="M27.4,44.1v1.4c0.3,0.1,0.6,0.1,1,0.1v-1.5H27.4z"/>
				</g>
				<g>
					<path class="st5" d="M30.2,45.5v-3c1.1,0.1,2,0.3,2.4,0.7V44C32.5,44.7,31.5,45.3,30.2,45.5z"/>
				</g>
				<g>
					<ellipse class="st6" cx="28.8" cy="43.3" rx="3.7" ry="1.6"/>
				</g>
				<g>
					<path class="st4" d="M26.7,44.5c-0.6-0.2-1.1-0.5-1.3-0.8l3-2c0.2,0,0.3,0,0.5,0c0.6,0,1.2,0.1,1.8,0.2L26.7,44.5z"/>
				</g>
				<g>
					<path class="st4" d="M28.4,44.8c-0.3,0-0.6-0.1-0.9-0.1l3.9-2.5c0.2,0.1,0.4,0.2,0.6,0.3L28.4,44.8z"/>
				</g>
			</g>
		</g>
		<g>
			<g>
				<g>
					<ellipse class="st1" cx="34.7" cy="54" rx="3.7" ry="1.6"/>
				</g>
				<g>
					<path class="st2" d="M31,53.1v0.8c0,0.6,0.9,1.2,2.2,1.4c0.3,0.1,0.6,0.1,1,0.1c0.2,0,0.3,0,0.5,0c0.5,0,1,0,1.5-0.1
						c1.3-0.2,2-0.8,2-1.5l0.2-0.8c-0.5-0.6-2.1-0.7-3.7-0.7C33.5,52.3,31.7,52.7,31,53.1z"/>
				</g>
				<g class="st3">
					<path class="st4" d="M33.2,53.9v1.4c0.3,0.1,0.6,0.1,1,0.1v-1.5H33.2z"/>
				</g>
				<g>
					<path class="st5" d="M36,55.3v-3c1.1,0.1,2,0.3,2.4,0.7v0.8C38.4,54.5,37.4,55.1,36,55.3z"/>
				</g>
				<g>
					<path class="st6" d="M31,53.1c0,0.9,1.7,1.6,3.7,1.6s3.7-0.7,3.7-1.6c0-0.9-1.7-1.6-3.7-1.6C32.7,51.5,31,52.2,31,53.1z"/>
				</g>
				<g>
					<path class="st4" d="M32.6,54.3c-0.6-0.2-1.1-0.5-1.3-0.8l3-2c0.2,0,0.3,0,0.5,0c0.6,0,1.2,0.1,1.8,0.2L32.6,54.3z"/>
				</g>
				<g>
					<path class="st4" d="M34.2,54.6c-0.3,0-0.6-0.1-0.9-0.1l3.9-2.5c0.2,0.1,0.4,0.2,0.6,0.3L34.2,54.6z"/>
				</g>
			</g>
			<g>
				<g>
					<ellipse class="st1" cx="34.7" cy="52.9" rx="3.7" ry="1.6"/>
				</g>
				<g>
					<path class="st2" d="M31,52v0.8c0,0.6,0.9,1.2,2.2,1.4c0.3,0.1,0.6,0.1,1,0.1c0.2,0,0.3,0,0.5,0c0.5,0,1,0,1.5-0.1
						c1.3-0.2,2-0.8,2-1.5l0.2-0.8c-0.5-0.6-2.1-0.7-3.7-0.7C33.5,51.2,31.7,51.6,31,52z"/>
				</g>
				<g class="st3">
					<path class="st4" d="M33.2,52.8v1.4c0.3,0.1,0.6,0.1,1,0.1v-1.5H33.2z"/>
				</g>
				<g>
					<path class="st5" d="M36,54.2v-3c1.1,0.1,2,0.3,2.4,0.7v0.8C38.4,53.4,37.4,54,36,54.2z"/>
				</g>
				<g>
					<path class="st6" d="M31,52c0,0.9,1.7,1.6,3.7,1.6s3.7-0.7,3.7-1.6c0-0.9-1.7-1.6-3.7-1.6C32.7,50.5,31,51.2,31,52z"/>
				</g>
				<g>
					<path class="st4" d="M32.6,53.3c-0.6-0.2-1.1-0.5-1.3-0.8l3-2c0.2,0,0.3,0,0.5,0c0.6,0,1.2,0.1,1.8,0.2L32.6,53.3z"/>
				</g>
				<g>
					<path class="st4" d="M34.2,53.5c-0.3,0-0.6-0.1-0.9-0.1l3.9-2.5c0.2,0.1,0.4,0.2,0.6,0.3L34.2,53.5z"/>
				</g>
			</g>
			<g>
				<g>
					<ellipse class="st1" cx="34.7" cy="51.9" rx="3.7" ry="1.6"/>
				</g>
				<g>
					<path class="st2" d="M31,50.9v0.8c0,0.6,0.9,1.2,2.2,1.4c0.3,0.1,0.6,0.1,1,0.1c0.2,0,0.3,0,0.5,0c0.5,0,1,0,1.5-0.1
						c1.3-0.2,2-0.8,2-1.5l0.2-0.8c-0.5-0.6-2.1-0.7-3.7-0.7C33.5,50.1,31.7,50.5,31,50.9z"/>
				</g>
				<g class="st3">
					<path class="st4" d="M33.2,51.7v1.4c0.3,0.1,0.6,0.1,1,0.1v-1.5H33.2z"/>
				</g>
				<g>
					<path class="st5" d="M36,53.2v-3c1.1,0.1,2,0.3,2.4,0.7v0.8C38.4,52.4,37.4,52.9,36,53.2z"/>
				</g>
				<g>
					<path class="st6" d="M31,50.9c0,0.9,1.7,1.6,3.7,1.6s3.7-0.7,3.7-1.6c0-0.9-1.7-1.6-3.7-1.6C32.7,49.4,31,50.1,31,50.9z"/>
				</g>
				<g>
					<path class="st4" d="M32.6,52.2c-0.6-0.2-1.1-0.5-1.3-0.8l3-2c0.2,0,0.3,0,0.5,0c0.6,0,1.2,0.1,1.8,0.2L32.6,52.2z"/>
				</g>
				<g>
					<path class="st4" d="M34.2,52.4c-0.3,0-0.6-0.1-0.9-0.1l3.9-2.5c0.2,0.1,0.4,0.2,0.6,0.3L34.2,52.4z"/>
				</g>
			</g>
			<g>
				<g>
					<ellipse class="st1" cx="34.7" cy="50.8" rx="3.7" ry="1.6"/>
				</g>
				<g>
					<path class="st2" d="M31,49.8v0.8c0,0.6,0.9,1.2,2.2,1.4c0.3,0.1,0.6,0.1,1,0.1c0.2,0,0.3,0,0.5,0c0.5,0,1,0,1.5-0.1
						c1.3-0.2,2-0.8,2-1.5l0.2-0.8c-0.5-0.6-2.1-0.7-3.7-0.7C33.5,49,31.7,49.4,31,49.8z"/>
				</g>
				<g class="st3">
					<path class="st4" d="M33.2,50.7v1.4c0.3,0.1,0.6,0.1,1,0.1v-1.5H33.2z"/>
				</g>
				<g>
					<path class="st5" d="M36,52.1v-3c1.1,0.1,2,0.3,2.4,0.7v0.8C38.4,51.3,37.4,51.8,36,52.1z"/>
				</g>
				<g>
					<path class="st6" d="M31,49.8c0,0.9,1.7,1.6,3.7,1.6s3.7-0.7,3.7-1.6c0-0.9-1.7-1.6-3.7-1.6C32.7,48.3,31,49,31,49.8z"/>
				</g>
				<g>
					<path class="st4" d="M32.6,51.1c-0.6-0.2-1.1-0.5-1.3-0.8l3-2c0.2,0,0.3,0,0.5,0c0.6,0,1.2,0.1,1.8,0.2L32.6,51.1z"/>
				</g>
				<g>
					<path class="st4" d="M34.2,51.4c-0.3,0-0.6-0.1-0.9-0.1l3.9-2.5c0.2,0.1,0.4,0.2,0.6,0.3L34.2,51.4z"/>
				</g>
			</g>
		</g>
		<g>
			<g>
				<g>
					<ellipse class="st1" cx="23.6" cy="54.9" rx="3.7" ry="1.6"/>
				</g>
				<g>
					<path class="st2" d="M19.9,54v0.8c0,0.6,0.9,1.2,2.2,1.4c0.3,0.1,0.6,0.1,1,0.1c0.2,0,0.3,0,0.5,0c0.5,0,1,0,1.5-0.1
						c1.3-0.2,2-0.8,2-1.5l0.2-0.8c-0.5-0.6-2.1-0.7-3.7-0.7C22.4,53.2,20.6,53.6,19.9,54z"/>
				</g>
				<g class="st3">
					<path class="st4" d="M22.2,54.8v1.4c0.3,0.1,0.6,0.1,1,0.1v-1.5H22.2z"/>
				</g>
				<g>
					<path class="st5" d="M25,56.2v-3c1.1,0.1,2,0.3,2.4,0.7v0.8C27.3,55.4,26.4,56,25,56.2z"/>
				</g>
				<g>
					<ellipse class="st6" cx="23.6" cy="54" rx="3.7" ry="1.6"/>
				</g>
				<g>
					<path class="st4" d="M21.5,55.2c-0.6-0.2-1.1-0.5-1.3-0.8l3-2c0.2,0,0.3,0,0.5,0c0.6,0,1.2,0.1,1.8,0.2L21.5,55.2z"/>
				</g>
				<g>
					<path class="st4" d="M23.2,55.5c-0.3,0-0.6-0.1-0.9-0.1l3.9-2.5c0.2,0.1,0.4,0.2,0.6,0.3L23.2,55.5z"/>
				</g>
			</g>
			<g>
				<g>
					<ellipse class="st1" cx="23.6" cy="53.8" rx="3.7" ry="1.6"/>
				</g>
				<g>
					<path class="st2" d="M19.9,52.9v0.8c0,0.6,0.9,1.2,2.2,1.4c0.3,0.1,0.6,0.1,1,0.1c0.2,0,0.3,0,0.5,0c0.5,0,1,0,1.5-0.1
						c1.3-0.2,2-0.8,2-1.5l0.2-0.8c-0.5-0.6-2.1-0.7-3.7-0.7C22.4,52.1,20.6,52.5,19.9,52.9z"/>
				</g>
				<g class="st3">
					<path class="st4" d="M22.2,53.7v1.4c0.3,0.1,0.6,0.1,1,0.1v-1.5H22.2z"/>
				</g>
				<g>
					<path class="st5" d="M25,55.1v-3c1.1,0.1,2,0.3,2.4,0.7v0.8C27.3,54.3,26.4,54.9,25,55.1z"/>
				</g>
				<g>
					<ellipse class="st6" cx="23.6" cy="52.9" rx="3.7" ry="1.6"/>
				</g>
				<g>
					<path class="st4" d="M21.5,54.1c-0.6-0.2-1.1-0.5-1.3-0.8l3-2c0.2,0,0.3,0,0.5,0c0.6,0,1.2,0.1,1.8,0.2L21.5,54.1z"/>
				</g>
				<g>
					<path class="st4" d="M23.2,54.4c-0.3,0-0.6-0.1-0.9-0.1l3.9-2.5c0.2,0.1,0.4,0.2,0.6,0.3L23.2,54.4z"/>
				</g>
			</g>
			<g>
				<g>
					<ellipse class="st1" cx="23.6" cy="52.7" rx="3.7" ry="1.6"/>
				</g>
				<g>
					<path class="st2" d="M19.9,51.8v0.8c0,0.6,0.9,1.2,2.2,1.4c0.3,0.1,0.6,0.1,1,0.1c0.2,0,0.3,0,0.5,0c0.5,0,1,0,1.5-0.1
						c1.3-0.2,2-0.8,2-1.5l0.2-0.8c-0.5-0.6-2.1-0.7-3.7-0.7C22.4,51,20.6,51.4,19.9,51.8z"/>
				</g>
				<g class="st3">
					<path class="st4" d="M22.2,52.6V54c0.3,0.1,0.6,0.1,1,0.1v-1.5H22.2z"/>
				</g>
				<g>
					<path class="st5" d="M25,54v-3c1.1,0.1,2,0.3,2.4,0.7v0.8C27.3,53.2,26.4,53.8,25,54z"/>
				</g>
				<g>
					<ellipse class="st6" cx="23.6" cy="51.8" rx="3.7" ry="1.6"/>
				</g>
				<g>
					<path class="st4" d="M21.5,53c-0.6-0.2-1.1-0.5-1.3-0.8l3-2c0.2,0,0.3,0,0.5,0c0.6,0,1.2,0.1,1.8,0.2L21.5,53z"/>
				</g>
				<g>
					<path class="st4" d="M23.2,53.3c-0.3,0-0.6-0.1-0.9-0.1l3.9-2.5c0.2,0.1,0.4,0.2,0.6,0.3L23.2,53.3z"/>
				</g>
			</g>
			<g>
				<g>
					<ellipse class="st1" cx="23.6" cy="51.6" rx="3.7" ry="1.6"/>
				</g>
				<g>
					<path class="st2" d="M19.9,50.7v0.8c0,0.6,0.9,1.2,2.2,1.4c0.3,0.1,0.6,0.1,1,0.1c0.2,0,0.3,0,0.5,0c0.5,0,1,0,1.5-0.1
						c1.3-0.2,2-0.8,2-1.5l0.2-0.8c-0.5-0.6-2.1-0.7-3.7-0.7C22.4,49.9,20.6,50.3,19.9,50.7z"/>
				</g>
				<g class="st3">
					<path class="st4" d="M22.2,51.5v1.4c0.3,0.1,0.6,0.1,1,0.1v-1.5H22.2z"/>
				</g>
				<g>
					<path class="st5" d="M25,52.9v-3c1.1,0.1,2,0.3,2.4,0.7v0.8C27.3,52.2,26.4,52.7,25,52.9z"/>
				</g>
				<g>
					<ellipse class="st6" cx="23.6" cy="50.7" rx="3.7" ry="1.6"/>
				</g>
				<g>
					<path class="st4" d="M21.5,52c-0.6-0.2-1.1-0.5-1.3-0.8l3-2c0.2,0,0.3,0,0.5,0c0.6,0,1.2,0.1,1.8,0.2L21.5,52z"/>
				</g>
				<g>
					<path class="st4" d="M23.2,52.2c-0.3,0-0.6-0.1-0.9-0.1l3.9-2.5c0.2,0.1,0.4,0.2,0.6,0.3L23.2,52.2z"/>
				</g>
			</g>
			<g>
				<g>
					<ellipse class="st1" cx="23.6" cy="50.6" rx="3.7" ry="1.6"/>
				</g>
				<g>
					<path class="st2" d="M19.9,49.6v0.8c0,0.6,0.9,1.2,2.2,1.4c0.3,0.1,0.6,0.1,1,0.1c0.2,0,0.3,0,0.5,0c0.5,0,1,0,1.5-0.1
						c1.3-0.2,2-0.8,2-1.5l0.2-0.8c-0.5-0.6-2.1-0.7-3.7-0.7C22.4,48.8,20.6,49.2,19.9,49.6z"/>
				</g>
				<g class="st3">
					<path class="st4" d="M22.2,50.4v1.4c0.3,0.1,0.6,0.1,1,0.1v-1.5H22.2z"/>
				</g>
				<g>
					<path class="st5" d="M25,51.9v-3c1.1,0.1,2,0.3,2.4,0.7v0.8C27.3,51.1,26.4,51.6,25,51.9z"/>
				</g>
				<g>
					<ellipse class="st6" cx="23.6" cy="49.6" rx="3.7" ry="1.6"/>
				</g>
				<g>
					<path class="st4" d="M21.5,50.9c-0.6-0.2-1.1-0.5-1.3-0.8l3-2c0.2,0,0.3,0,0.5,0c0.6,0,1.2,0.1,1.8,0.2L21.5,50.9z"/>
				</g>
				<g>
					<path class="st4" d="M23.2,51.2c-0.3,0-0.6-0.1-0.9-0.1l3.9-2.5c0.2,0.1,0.4,0.2,0.6,0.3L23.2,51.2z"/>
				</g>
			</g>
			<g>
				<g>
					<ellipse class="st1" cx="23.6" cy="49.5" rx="3.7" ry="1.6"/>
				</g>
				<g>
					<path class="st2" d="M19.9,48.5v0.8c0,0.6,0.9,1.2,2.2,1.4c0.3,0.1,0.6,0.1,1,0.1c0.2,0,0.3,0,0.5,0c0.5,0,1,0,1.5-0.1
						c1.3-0.2,2-0.8,2-1.5l0.2-0.8c-0.5-0.6-2.1-0.7-3.7-0.7C22.4,47.7,20.6,48.1,19.9,48.5z"/>
				</g>
				<g class="st3">
					<path class="st4" d="M22.2,49.4v1.4c0.3,0.1,0.6,0.1,1,0.1v-1.5H22.2z"/>
				</g>
				<g>
					<path class="st5" d="M25,50.8v-3c1.1,0.1,2,0.3,2.4,0.7v0.8C27.3,50,26.4,50.5,25,50.8z"/>
				</g>
				<g>
					<ellipse class="st6" cx="23.6" cy="48.6" rx="3.7" ry="1.6"/>
				</g>
				<g>
					<path class="st4" d="M21.5,49.8c-0.6-0.2-1.1-0.5-1.3-0.8l3-2c0.2,0,0.3,0,0.5,0c0.6,0,1.2,0.1,1.8,0.2L21.5,49.8z"/>
				</g>
				<g>
					<path class="st4" d="M23.2,50.1c-0.3,0-0.6-0.1-0.9-0.1l3.9-2.5c0.2,0.1,0.4,0.2,0.6,0.3L23.2,50.1z"/>
				</g>
			</g>
		</g>
	</g>
</g>
</svg>
