<?xml version="1.0" encoding="utf-8"?>
<!-- Generator: Adobe Illustrator 23.0.3, SVG Export Plug-In . SVG Version: 6.00 Build 0)  -->
<svg version="1.1" id="Layer_1" xmlns="http://www.w3.org/2000/svg" xmlns:xlink="http://www.w3.org/1999/xlink" x="0px" y="0px"
	 viewBox="0 0 60 80" style="enable-background:new 0 0 60 80;" xml:space="preserve">
<style type="text/css">
	.st0{opacity:0.72;fill:#9EB3B6;}
	.st1{fill:#CE7D13;}
	.st2{fill:#FFC50D;}
	.st3{opacity:0.43;}
	.st4{fill:#FFFC8F;}
	.st5{fill:#F19D00;}
	.st6{fill:#FFD400;}
</style>
<g>
	<path class="st0" d="M28.8,49.2c-0.1-0.1-0.2-0.3-0.2-0.5c0-0.9,1.7-1.6,3.7-1.6c2,0,4,0.9,4,1.7c0,0.2-0.1,0.3-0.2,0.5h0l-1.2,1
		l-4.5-1.4L28.8,49.2z"/>
	<path class="st0" d="M26.1,45.7c-0.1-0.1-0.2-0.3-0.2-0.5c0-0.9,1.7-1.6,3.7-1.6c2,0,3.6,0.7,3.7,1.6c0,0.5-1,0.8-1,0.8l-4.4,2.1
		l-1.6-2.5L26.1,45.7z"/>
	<g>
		<g>
			<g>
				<ellipse class="st1" cx="27.4" cy="47.3" rx="3.7" ry="1.6"/>
			</g>
			<g>
				<path class="st2" d="M23.7,46.4v0.8c0,0.6,0.9,1.2,2.2,1.4c0.3,0.1,0.6,0.1,1,0.1c0.2,0,0.3,0,0.5,0c0.5,0,1,0,1.5-0.1
					c1.3-0.2,2-0.8,2-1.5l0.2-0.8c-0.5-0.6-2.1-0.7-3.7-0.7C26.2,45.6,24.4,46,23.7,46.4z"/>
			</g>
			<g class="st3">
				<path class="st4" d="M26,47.2v1.4c0.3,0.1,0.6,0.1,1,0.1v-1.5H26z"/>
			</g>
			<g>
				<path class="st5" d="M28.8,48.6v-3c1.1,0.1,2,0.3,2.4,0.7v0.8C31.2,47.8,30.2,48.4,28.8,48.6z"/>
			</g>
			<g>
				<ellipse class="st6" cx="27.4" cy="46.4" rx="3.7" ry="1.6"/>
			</g>
			<g>
				<path class="st4" d="M25.3,47.6c-0.6-0.2-1.1-0.5-1.3-0.8l3-2c0.2,0,0.3,0,0.5,0c0.6,0,1.2,0.1,1.8,0.2L25.3,47.6z"/>
			</g>
			<g>
				<path class="st4" d="M27,47.9c-0.3,0-0.6-0.1-0.9-0.1l3.9-2.5c0.2,0.1,0.4,0.2,0.6,0.3L27,47.9z"/>
			</g>
		</g>
		<g>
			<g>
				<ellipse class="st1" cx="27.4" cy="46.2" rx="3.7" ry="1.6"/>
			</g>
			<g>
				<path class="st2" d="M23.7,45.3v0.8c0,0.6,0.9,1.2,2.2,1.4c0.3,0.1,0.6,0.1,1,0.1c0.2,0,0.3,0,0.5,0c0.5,0,1,0,1.5-0.1
					c1.3-0.2,2-0.8,2-1.5l0.2-0.8c-0.5-0.6-2.1-0.7-3.7-0.7C26.2,44.5,24.4,44.9,23.7,45.3z"/>
			</g>
			<g class="st3">
				<path class="st4" d="M26,46.1v1.4c0.3,0.1,0.6,0.1,1,0.1v-1.5H26z"/>
			</g>
			<g>
				<path class="st5" d="M28.8,47.5v-3c1.1,0.1,2,0.3,2.4,0.7v0.8C31.2,46.7,30.2,47.3,28.8,47.5z"/>
			</g>
			<g>
				<ellipse class="st6" cx="27.4" cy="45.3" rx="3.7" ry="1.6"/>
			</g>
			<g>
				<path class="st4" d="M25.3,46.5c-0.6-0.2-1.1-0.5-1.3-0.8l3-2c0.2,0,0.3,0,0.5,0c0.6,0,1.2,0.1,1.8,0.2L25.3,46.5z"/>
			</g>
			<g>
				<path class="st4" d="M27,46.8c-0.3,0-0.6-0.1-0.9-0.1l3.9-2.5c0.2,0.1,0.4,0.2,0.6,0.3L27,46.8z"/>
			</g>
		</g>
		<g>
			<g>
				<ellipse class="st1" cx="27.4" cy="45.1" rx="3.7" ry="1.6"/>
			</g>
			<g>
				<path class="st2" d="M23.7,44.2V45c0,0.6,0.9,1.2,2.2,1.4c0.3,0.1,0.6,0.1,1,0.1c0.2,0,0.3,0,0.5,0c0.5,0,1,0,1.5-0.1
					c1.3-0.2,2-0.8,2-1.5l0.2-0.8c-0.5-0.6-2.1-0.7-3.7-0.7C26.2,43.4,24.4,43.8,23.7,44.2z"/>
			</g>
			<g class="st3">
				<path class="st4" d="M26,45v1.4c0.3,0.1,0.6,0.1,1,0.1V45H26z"/>
			</g>
			<g>
				<path class="st5" d="M28.8,46.4v-3c1.1,0.1,2,0.3,2.4,0.7V45C31.2,45.6,30.2,46.2,28.8,46.4z"/>
			</g>
			<g>
				<ellipse class="st6" cx="27.4" cy="44.2" rx="3.7" ry="1.6"/>
			</g>
			<g>
				<path class="st4" d="M25.3,45.5c-0.6-0.2-1.1-0.5-1.3-0.8l3-2c0.2,0,0.3,0,0.5,0c0.6,0,1.2,0.1,1.8,0.2L25.3,45.5z"/>
			</g>
			<g>
				<path class="st4" d="M27,45.7c-0.3,0-0.6-0.1-0.9-0.1l3.9-2.5c0.2,0.1,0.4,0.2,0.6,0.3L27,45.7z"/>
			</g>
		</g>
		<g>
			<g>
				<ellipse class="st1" cx="27.4" cy="44" rx="3.7" ry="1.6"/>
			</g>
			<g>
				<path class="st2" d="M23.7,43.1v0.8c0,0.6,0.9,1.2,2.2,1.4c0.3,0.1,0.6,0.1,1,0.1c0.2,0,0.3,0,0.5,0c0.5,0,1,0,1.5-0.1
					c1.3-0.2,2-0.8,2-1.5l0.2-0.8c-0.5-0.6-2.1-0.7-3.7-0.7C26.2,42.3,24.4,42.7,23.7,43.1z"/>
			</g>
			<g class="st3">
				<path class="st4" d="M26,43.9v1.4c0.3,0.1,0.6,0.1,1,0.1v-1.5H26z"/>
			</g>
			<g>
				<path class="st5" d="M28.8,45.4v-3c1.1,0.1,2,0.3,2.4,0.7v0.8C31.2,44.6,30.2,45.1,28.8,45.4z"/>
			</g>
			<g>
				<ellipse class="st6" cx="27.4" cy="43.1" rx="3.7" ry="1.6"/>
			</g>
			<g>
				<path class="st4" d="M25.3,44.4c-0.6-0.2-1.1-0.5-1.3-0.8l3-2c0.2,0,0.3,0,0.5,0c0.6,0,1.2,0.1,1.8,0.2L25.3,44.4z"/>
			</g>
			<g>
				<path class="st4" d="M27,44.6c-0.3,0-0.6-0.1-0.9-0.1L30,42c0.2,0.1,0.4,0.2,0.6,0.3L27,44.6z"/>
			</g>
		</g>
		<g>
			<g>
				<ellipse class="st1" cx="27.4" cy="43" rx="3.7" ry="1.6"/>
			</g>
			<g>
				<path class="st2" d="M23.7,42v0.8c0,0.6,0.9,1.2,2.2,1.4c0.3,0.1,0.6,0.1,1,0.1c0.2,0,0.3,0,0.5,0c0.5,0,1,0,1.5-0.1
					c1.3-0.2,2-0.8,2-1.5l0.2-0.8c-0.5-0.6-2.1-0.7-3.7-0.7C26.2,41.2,24.4,41.6,23.7,42z"/>
			</g>
			<g class="st3">
				<path class="st4" d="M26,42.9v1.4c0.3,0.1,0.6,0.1,1,0.1v-1.5H26z"/>
			</g>
			<g>
				<path class="st5" d="M28.8,44.3v-3c1.1,0.1,2,0.3,2.4,0.7v0.8C31.2,43.5,30.2,44,28.8,44.3z"/>
			</g>
			<g>
				<ellipse class="st6" cx="27.4" cy="42" rx="3.7" ry="1.6"/>
			</g>
			<g>
				<path class="st4" d="M25.3,43.3c-0.6-0.2-1.1-0.5-1.3-0.8l3-2c0.2,0,0.3,0,0.5,0c0.6,0,1.2,0.1,1.8,0.2L25.3,43.3z"/>
			</g>
			<g>
				<path class="st4" d="M27,43.6c-0.3,0-0.6-0.1-0.9-0.1l3.9-2.5c0.2,0.1,0.4,0.2,0.6,0.3L27,43.6z"/>
			</g>
		</g>
		<g>
			<g>
				<ellipse class="st1" cx="27.4" cy="41.9" rx="3.7" ry="1.6"/>
			</g>
			<g>
				<path class="st2" d="M23.7,41v0.8c0,0.6,0.9,1.2,2.2,1.4c0.3,0.1,0.6,0.1,1,0.1c0.2,0,0.3,0,0.5,0c0.5,0,1,0,1.5-0.1
					c1.3-0.2,2-0.8,2-1.5l0.2-0.8c-0.5-0.6-2.1-0.7-3.7-0.7C26.2,40.1,24.4,40.5,23.7,41z"/>
			</g>
			<g class="st3">
				<path class="st4" d="M26,41.8v1.4c0.3,0.1,0.6,0.1,1,0.1v-1.5H26z"/>
			</g>
			<g>
				<path class="st5" d="M28.8,43.2v-3c1.1,0.1,2,0.3,2.4,0.7v0.8C31.2,42.4,30.2,42.9,28.8,43.2z"/>
			</g>
			<g>
				<ellipse class="st6" cx="27.4" cy="41" rx="3.7" ry="1.6"/>
			</g>
			<g>
				<path class="st4" d="M25.3,42.2c-0.6-0.2-1.1-0.5-1.3-0.8l3-2c0.2,0,0.3,0,0.5,0c0.6,0,1.2,0.1,1.8,0.2L25.3,42.2z"/>
			</g>
			<g>
				<path class="st4" d="M27,42.5c-0.3,0-0.6-0.1-0.9-0.1l3.9-2.5c0.2,0.1,0.4,0.2,0.6,0.3L27,42.5z"/>
			</g>
		</g>
	</g>
	<g>
		<g>
			<g>
				<ellipse class="st1" cx="31.7" cy="49.5" rx="3.7" ry="1.6"/>
			</g>
			<g>
				<path class="st2" d="M28,48.6v0.8c0,0.6,0.9,1.2,2.2,1.4c0.3,0.1,0.6,0.1,1,0.1c0.2,0,0.3,0,0.5,0c0.5,0,1,0,1.5-0.1
					c1.3-0.2,2-0.8,2-1.5l0.2-0.8c-0.5-0.6-2.1-0.7-3.7-0.7C30.4,47.8,28.6,48.2,28,48.6z"/>
			</g>
			<g class="st3">
				<path class="st4" d="M30.2,49.4v1.4c0.3,0.1,0.6,0.1,1,0.1v-1.5H30.2z"/>
			</g>
			<g>
				<path class="st5" d="M33,50.8v-3c1.1,0.1,2,0.3,2.4,0.7v0.8C35.4,50,34.4,50.6,33,50.8z"/>
			</g>
			<g>
				<ellipse class="st6" cx="31.7" cy="48.6" rx="3.7" ry="1.6"/>
			</g>
			<g>
				<path class="st4" d="M29.5,49.8c-0.6-0.2-1.1-0.5-1.3-0.8l3-2c0.2,0,0.3,0,0.5,0c0.6,0,1.2,0.1,1.8,0.2L29.5,49.8z"/>
			</g>
			<g>
				<path class="st4" d="M31.2,50.1c-0.3,0-0.6-0.1-0.9-0.1l3.9-2.5c0.2,0.1,0.4,0.2,0.6,0.3L31.2,50.1z"/>
			</g>
		</g>
		<g>
			<g>
				<ellipse class="st1" cx="31.7" cy="48.4" rx="3.7" ry="1.6"/>
			</g>
			<g>
				<path class="st2" d="M28,47.5v0.8c0,0.6,0.9,1.2,2.2,1.4c0.3,0.1,0.6,0.1,1,0.1c0.2,0,0.3,0,0.5,0c0.5,0,1,0,1.5-0.1
					c1.3-0.2,2-0.8,2-1.5l0.2-0.8c-0.5-0.6-2.1-0.7-3.7-0.7C30.4,46.7,28.6,47.1,28,47.5z"/>
			</g>
			<g class="st3">
				<path class="st4" d="M30.2,48.3v1.4c0.3,0.1,0.6,0.1,1,0.1v-1.5H30.2z"/>
			</g>
			<g>
				<path class="st5" d="M33,49.7v-3c1.1,0.1,2,0.3,2.4,0.7v0.8C35.4,48.9,34.4,49.5,33,49.7z"/>
			</g>
			<g>
				<ellipse class="st6" cx="31.7" cy="47.5" rx="3.7" ry="1.6"/>
			</g>
			<g>
				<path class="st4" d="M29.5,48.7c-0.6-0.2-1.1-0.5-1.3-0.8l3-2c0.2,0,0.3,0,0.5,0c0.6,0,1.2,0.1,1.8,0.2L29.5,48.7z"/>
			</g>
			<g>
				<path class="st4" d="M31.2,49c-0.3,0-0.6-0.1-0.9-0.1l3.9-2.5c0.2,0.1,0.4,0.2,0.6,0.3L31.2,49z"/>
			</g>
		</g>
	</g>
</g>
</svg>
