<?xml version="1.0" encoding="utf-8"?>
<!-- Generator: Adobe Illustrator 23.0.3, SVG Export Plug-In . SVG Version: 6.00 Build 0)  -->
<svg version="1.1" id="Layer_1" xmlns="http://www.w3.org/2000/svg" xmlns:xlink="http://www.w3.org/1999/xlink" x="0px" y="0px"
	 viewBox="0 0 300 100" style="enable-background:new 0 0 300 100;" xml:space="preserve">
<style type="text/css">
	.st0{opacity:0.65;fill:#313131;enable-background:new    ;}
	.st1{fill:#42151F;}
	.st2{opacity:0.38;fill:#313131;enable-background:new    ;}
	.st3{fill:url(#SVGID_1_);}
	.st4{fill:#FFFFFF;}
	.st5{opacity:0.53;fill:#FFFFFF;enable-background:new    ;}
	.st6{opacity:0.23;fill:#313131;enable-background:new    ;}
	.st7{clip-path:url(#SVGID_6_);}
	.st8{clip-path:url(#SVGID_7_);fill:url(#SVGID_8_);}
	.st9{fill:#2395A6;}
	.st10{fill:#571123;}
	.st11{opacity:0.62;fill:#FFFFFF;enable-background:new    ;}
	.st12{opacity:0.55;fill:#FFF6D6;enable-background:new    ;}
	.st13{opacity:0.53;fill:#7A1D23;enable-background:new    ;}
	.st14{fill:#FFF6D6;}
	.st15{opacity:0.2;fill:#FFF6D6;enable-background:new    ;}
	.st16{clip-path:url(#SVGID_13_);}
	.st17{clip-path:url(#SVGID_14_);fill:url(#SVGID_15_);}
	.st18{opacity:0.1;fill:#313131;enable-background:new    ;}
	.st19{fill:url(#SVGID_16_);}
	.st20{fill:url(#SVGID_17_);}
	.st21{clip-path:url(#SVGID_22_);}
	.st22{clip-path:url(#SVGID_23_);fill:url(#SVGID_24_);}
	.st23{opacity:0.5;fill:url(#SVGID_25_);enable-background:new    ;}
	.st24{fill:url(#SVGID_26_);}
	.st25{opacity:0.5;fill:#FFFFFF;enable-background:new    ;}
	.st26{fill:url(#SVGID_27_);}
	.st27{opacity:0.62;fill:url(#SVGID_28_);enable-background:new    ;}
	.st28{opacity:0.62;fill:url(#SVGID_29_);enable-background:new    ;}
	.st29{opacity:0.62;fill:url(#SVGID_30_);enable-background:new    ;}
	.st30{clip-path:url(#SVGID_35_);}
	.st31{clip-path:url(#SVGID_36_);fill:url(#SVGID_37_);}
	.st32{fill:url(#SVGID_38_);}
	.st33{clip-path:url(#SVGID_43_);}
	.st34{clip-path:url(#SVGID_44_);fill:url(#SVGID_45_);}
	.st35{fill:url(#SVGID_46_);}
	.st36{clip-path:url(#SVGID_51_);}
	.st37{clip-path:url(#SVGID_52_);fill:url(#SVGID_53_);}
	.st38{fill:url(#SVGID_54_);}
	.st39{fill:url(#SVGID_55_);}
</style>
<g>
	<g>
		<polygon class="st0" points="34.29,77.54 46.62,100 267.58,99.69 271.77,87.3 258.33,64.12 258.33,72.23 		"/>
		<polygon class="st1" points="34.29,77.54 47.85,94.49 55.74,94.49 52.99,77.02 		"/>
		<polygon class="st1" points="252.03,77.54 238.47,94.49 230.58,94.49 233.32,77.02 		"/>
		<polygon class="st1" points="230.58,94.49 229.17,90.02 230.58,77.54 233.24,77.54 		"/>
		<polygon class="st1" points="55.74,94.49 58,90.86 58,77.54 53.07,77.54 		"/>
		<polygon class="st2" points="39.37,83.9 54.37,85.75 52.99,77.02 34.29,77.54 		"/>
		<polygon class="st2" points="232.22,84.05 242.49,89.46 252.03,77.54 233.24,77.54 230.58,77.54 230.22,80.76 		"/>
		<g>
			
				<linearGradient id="SVGID_1_" gradientUnits="userSpaceOnUse" x1="28.23" y1="170.83" x2="258.33" y2="170.83" gradientTransform="matrix(1 0 0 1 0 -100)">
				<stop  offset="0" style="stop-color:#E77231"/>
				<stop  offset="0.9946" style="stop-color:#9C3536"/>
			</linearGradient>
			<rect x="28.23" y="64.12" class="st3" width="230.1" height="13.42"/>
			<polygon class="st4" points="28.23,77.54 28.23,64.12 258.33,64.12 258.33,65.52 29.72,65.55 			"/>
			<polygon class="st5" points="32.4,65.55 32.4,75.98 72.9,75.98 73.89,65.55 			"/>
			<polygon class="st5" points="75.81,65.55 75.81,75.98 83.11,75.98 84.54,65.54 			"/>
			<polygon class="st6" points="243.45,65.74 243.45,75.2 38.07,77.43 256.32,77.01 256.32,65.55 			"/>
		</g>
	</g>
	<polygon class="st0" points="28.23,77.54 171.21,77.02 171.21,67.07 173.27,75.98 220.11,75.8 222.51,70.76 222.51,75.42 
		258.33,77.54 	"/>
	<g>
		<g>
			<g>
				<defs>
					<polygon id="SVGID_2_" points="1,1 2,1 1,2 					"/>
				</defs>
				<clipPath id="SVGID_3_">
					<use xlink:href="#SVGID_2_"  style="overflow:visible;"/>
				</clipPath>
			</g>
			<g>
				<defs>
					<polygon id="SVGID_4_" points="1,1 2,1 1,2 					"/>
				</defs>
				<defs>
					<polygon id="SVGID_5_" points="-1,-1 -2,-1 -1,-2 					"/>
				</defs>
				<clipPath id="SVGID_6_">
					<use xlink:href="#SVGID_4_"  style="overflow:visible;"/>
				</clipPath>
				<clipPath id="SVGID_7_" class="st7">
					<use xlink:href="#SVGID_5_"  style="overflow:visible;"/>
				</clipPath>
				
					<linearGradient id="SVGID_8_" gradientUnits="userSpaceOnUse" x1="143.28" y1="177.54" x2="143.28" y2="164.12" gradientTransform="matrix(1 0 0 1 0 -100)">
					<stop  offset="0" style="stop-color:#FFFFFF"/>
					<stop  offset="1" style="stop-color:#000000"/>
				</linearGradient>
				<polygon class="st8" points="28.23,77.54 258.33,77.54 258.33,64.12 256.32,77.01 				"/>
			</g>
		</g>
	</g>
</g>
<g>
	<path class="st9" d="M133.79,26.5c-0.06-0.63-0.18-1.24-0.36-1.83c-0.51-1.71-1.51-3.25-2.89-4.43l-2.32-1.98l0,0l0.03-0.53
		l0.02-0.31l0.07-1.05l0.38-5.99h0.01v-0.01l0.01-0.16l0.06-0.96V9.17l0.11-1.54l0.01-0.21l0.03-0.55h-3.12l0,0h-3.12l0.71,11.39
		l-2.34,1.98c-0.01,0-0.02,0.01-0.02,0.01c-2.22,1.88-3.45,4.67-3.33,7.57l0.09,2.1l0,0l0.47,11.23v0.01l0.9,21.55
		c0.03,0.75,0.66,1.36,1.41,1.36l5.15,0.01l0,0h0.92l3.98,0.01c0.75,0,1.37-0.59,1.41-1.35l0.02-0.38l0.45-8.83v-0.01l0.29-5.76
		l0.86-17.1l0.1-2.03l0.04-0.77C133.84,27.41,133.84,26.96,133.79,26.5z M125.76,61.02l-0.01,3l0.01-8.91v1.44V61.02z M125.77,50.6
		v-0.59V50.6L125.77,50.6z M125.78,41.02v-0.43l0,0V41.02z"/>
	<polygon class="st10" points="129.41,7.42 128.95,10.37 122.51,10.36 122.12,7.41 	"/>
	<path class="st11" d="M120.92,27.91c0,0,1.18-7.06,5.87-7.82c4.69-0.76,6.41,5.53,6.41,7.84s-0.53,9.31-0.53,9.31
		s0.3-9.4-0.82-10.53c-1.12-1.12-2.93-0.79-6.11-0.67C122.65,26.15,120.92,27.91,120.92,27.91z"/>
	<path class="st12" d="M124.99,27.15h4.4l-0.71,24.25h-0.95c0,0-0.36-21.75-0.36-22.78C127.36,27.6,124.99,27.15,124.99,27.15z"/>
	<polygon class="st12" points="132.08,62.37 131.81,62.45 131.98,55.67 132.61,30.68 132.62,30.67 133.14,29.75 133.22,29.61 
		133.78,28.65 133.79,28.63 133.69,30.69 132.82,47.77 132.53,53.53 132.53,53.54 	"/>
	<path class="st13" d="M128.72,10.37l-5.8-0.01l0.06,0.93l0.66,0.13l0.29,6.83c0,0-3.6,1.91-4.8,7.02
		c-0.98,4.15,1.48,38.8,1.48,38.8h3.55c0,0-0.9-35.27-0.39-38.47c0.52-3.21,1.55-7.35,1.55-7.35l-0.18-5.69L128.72,10.37z"/>
	<polygon class="st11" points="126.76,12.13 128.34,10.88 127.54,18 126.73,17.88 	"/>
	<polygon class="st11" points="127.54,7.62 128.95,7.63 128.72,10 127.38,9.84 	"/>
	<polygon class="st13" points="122.9,9.99 122.7,7.62 125.27,7.62 125.01,9.99 	"/>
	<polygon class="st14" points="128.72,10.37 128.21,18.26 127.72,18.17 128.28,10.92 128.31,10.62 128.34,10.37 	"/>
	<polygon class="st14" points="129.41,7.42 128.95,10.37 128.72,10.37 128.73,10.21 128.86,8.47 128.9,7.63 128.95,6.87 	"/>
	<path class="st15" d="M123.29,26.51l0.87,37.57h2.52l0.39-38.11C127.06,25.97,124.35,25.44,123.29,26.51z"/>
</g>
<g>
	<g>
		<g>
			<g>
				<defs>
					<polygon id="SVGID_9_" points="1,1 2,1 1,2 					"/>
				</defs>
				<clipPath id="SVGID_10_">
					<use xlink:href="#SVGID_9_"  style="overflow:visible;"/>
				</clipPath>
			</g>
			<g>
				<defs>
					<polygon id="SVGID_11_" points="1,1 2,1 1,2 					"/>
				</defs>
				<defs>
					<polygon id="SVGID_12_" points="-1,-1 -2,-1 -1,-2 					"/>
				</defs>
				<clipPath id="SVGID_13_">
					<use xlink:href="#SVGID_11_"  style="overflow:visible;"/>
				</clipPath>
				<clipPath id="SVGID_14_" class="st16">
					<use xlink:href="#SVGID_12_"  style="overflow:visible;"/>
				</clipPath>
				
					<linearGradient id="SVGID_15_" gradientUnits="userSpaceOnUse" x1="174.57" y1="164.1" x2="174.57" y2="106.84" gradientTransform="matrix(1 0 0 1 0 -100)">
					<stop  offset="0" style="stop-color:#808080"/>
					<stop  offset="1" style="stop-color:#FFFFFF"/>
				</linearGradient>
				<path class="st17" d="M193.61,44.99c0-8.89-6.1-16.33-14.34-18.43l3.36-19.72H166.5l2.24,20.03
					c-7.66,2.46-13.21,9.64-13.21,18.13c0,7.07,3.87,13.23,9.59,16.52h-0.03l-1.76,2.58l20.56-0.05l-1.29-1.78h-0.03
					C189.08,59.23,193.61,52.65,193.61,44.99z"/>
			</g>
		</g>
	</g>
	<path class="st18" d="M193.61,44.99c0-8.89-6.1-16.33-14.34-18.43l3.36-19.72H166.5l2.24,20.03c-7.66,2.46-13.21,9.64-13.21,18.13
		c0,7.07,3.87,13.23,9.59,16.52h-0.03l-1.76,2.58l20.56-0.05l-1.29-1.78h-0.03C189.08,59.23,193.61,52.65,193.61,44.99z"/>
	
		<linearGradient id="SVGID_16_" gradientUnits="userSpaceOnUse" x1="174.425" y1="113.57" x2="174.425" y2="102.74" gradientTransform="matrix(1 0 0 1 0 -100)">
		<stop  offset="0" style="stop-color:#E77231"/>
		<stop  offset="0.9946" style="stop-color:#9C3536"/>
	</linearGradient>
	<polygon class="st19" points="167.76,13.57 166.66,2.74 182.19,4 181.06,13.57 	"/>
	<polygon class="st0" points="182.04,5.26 169.83,6.44 169.83,13.57 167.76,13.57 166.66,2.74 182.19,4 	"/>
	
		<linearGradient id="SVGID_17_" gradientUnits="userSpaceOnUse" x1="174.455" y1="104.59" x2="174.455" y2="100" gradientTransform="matrix(1 0 0 1 0 -100)">
		<stop  offset="0" style="stop-color:#E77231"/>
		<stop  offset="0.9946" style="stop-color:#9C3536"/>
	</linearGradient>
	<polygon class="st20" points="164.87,0 166,4.59 182.92,4.59 184.04,0.03 	"/>
	<polygon class="st5" points="165.4,0.23 183.25,0.55 182.19,4.33 177.47,4.33 177.4,1.22 	"/>
	<g>
		<g>
			<g>
				<defs>
					<polygon id="SVGID_18_" points="1,1 2,1 1,2 					"/>
				</defs>
				<clipPath id="SVGID_19_">
					<use xlink:href="#SVGID_18_"  style="overflow:visible;"/>
				</clipPath>
			</g>
			<g>
				<defs>
					<polygon id="SVGID_20_" points="1,1 2,1 1,2 					"/>
				</defs>
				<defs>
					<polygon id="SVGID_21_" points="-1,-1 -2,-1 -1,-2 					"/>
				</defs>
				<clipPath id="SVGID_22_">
					<use xlink:href="#SVGID_20_"  style="overflow:visible;"/>
				</clipPath>
				<clipPath id="SVGID_23_" class="st21">
					<use xlink:href="#SVGID_21_"  style="overflow:visible;"/>
				</clipPath>
				
					<linearGradient id="SVGID_24_" gradientUnits="userSpaceOnUse" x1="174.57" y1="164.09" x2="174.57" y2="107.63" gradientTransform="matrix(1 0 0 1 0 -100)">
					<stop  offset="0" style="stop-color:#808080"/>
					<stop  offset="1" style="stop-color:#FFFFFF"/>
				</linearGradient>
				<path class="st22" d="M192.11,45.26c0,0.68-0.03,1.35-0.11,2c-0.65,6.69-4.6,12.31-10.06,15.02h0.03l1.19,1.76l-18.96,0.05
					l1.63-2.54c-4.74-2.95-8.11-8.17-8.69-14.29c-0.08-0.65-0.11-1.32-0.11-2c0-8.38,5.11-15.45,12.17-17.88l-2.06-19.75H182
					l-3.09,19.45C186.49,29.14,192.11,36.49,192.11,45.26z"/>
			</g>
		</g>
	</g>
	
		<linearGradient id="SVGID_25_" gradientUnits="userSpaceOnUse" x1="174.57" y1="164.09" x2="174.57" y2="107.63" gradientTransform="matrix(1 0 0 1 0 -100)">
		<stop  offset="0" style="stop-color:#CFFFE8"/>
		<stop  offset="1" style="stop-color:#4AEFB1"/>
	</linearGradient>
	<path class="st23" d="M192.11,45.26c0,0.68-0.03,1.35-0.11,2c-0.65,6.69-4.6,12.31-10.06,15.02h0.03l1.19,1.76l-18.96,0.05
		l1.63-2.54c-4.74-2.95-8.11-8.17-8.69-14.29c-0.08-0.65-0.11-1.32-0.11-2c0-8.38,5.11-15.45,12.17-17.88l-2.06-19.75H182
		l-3.09,19.45C186.49,29.14,192.11,36.49,192.11,45.26z"/>
	
		<linearGradient id="SVGID_26_" gradientUnits="userSpaceOnUse" x1="174.575" y1="162.28" x2="174.575" y2="147.26" gradientTransform="matrix(1 0 0 1 0 -100)">
		<stop  offset="0" style="stop-color:#FFD400"/>
		<stop  offset="1" style="stop-color:#FFFF15"/>
	</linearGradient>
	<path class="st24" d="M192,47.26c-0.65,6.69-4.6,12.31-10.06,15.02l-16.1-0.73c-4.74-2.95-8.11-8.17-8.69-14.29H192z"/>
	<polygon class="st25" points="176.76,8.15 180.54,8.15 177.63,27.28 175.58,27.28 	"/>
	<polygon class="st25" points="167.58,8.15 169.63,27.28 170.46,27.28 169.02,7.89 	"/>
	<path class="st25" d="M174.57,29.88l7.62-0.47c0,0,13.86,12.68,1.85,30.61h-2.38C181.67,60.02,186.2,41.5,174.57,29.88z"/>
	<path class="st25" d="M160.84,42.09h-2.95c0,0-0.42,13.65,8.77,18.93C166.66,61.01,159.42,55.24,160.84,42.09z"/>
	<path class="st5" d="M175.61,53.56c0,1.42-1.15,2.58-2.58,2.58s-2.58-1.15-2.58-2.58c0-1.42,1.15-2.58,2.58-2.58
		S175.61,52.13,175.61,53.56z"/>
	<path class="st5" d="M177.79,49.68c0,0.32-0.26,0.58-0.59,0.58c-0.32,0-0.59-0.26-0.59-0.58c0-0.32,0.26-0.59,0.59-0.59
		S177.79,49.36,177.79,49.68z"/>
	<circle class="st5" cx="179.39" cy="57.73" r="1.59"/>
</g>
<g>
	
		<linearGradient id="SVGID_27_" gradientUnits="userSpaceOnUse" x1="223.3599" y1="164.1" x2="223.3599" y2="104.97" gradientTransform="matrix(1 0 0 1 0 -100)">
		<stop  offset="0" style="stop-color:#4F9F00"/>
		<stop  offset="1" style="stop-color:#267015"/>
	</linearGradient>
	<path class="st26" d="M237.17,25.25c-0.1-0.65-0.31-1.28-0.63-1.9c-0.88-1.76-2.61-3.36-4.99-4.58l-4-2.04l-0.01-0.01l0.06-0.55
		l0.03-0.32l0.13-1.08l0.67-6.19h0.01l-0.01-0.01l0.02-0.17l0.11-0.99l0.01-0.08l0.18-1.59l0.02-0.21l0.06-0.56h-5.39l0,0h-5.38
		l1.23,11.77l-4.03,2.05c-0.02,0-0.03,0.01-0.03,0.01c-3.83,1.94-5.94,4.83-5.74,7.82l0.15,2.17v0.01l0.81,11.6v0.01L212,62.68
		c0.06,0.78,1.13,1.4,2.43,1.4l8.88,0.01l0,0h1.59l6.86,0.01c1.3,0,2.37-0.61,2.43-1.39l0.03-0.39l0.77-9.12v-0.01l0.5-5.95
		l1.48-17.67l0.18-2.1l0.07-0.8C237.26,26.19,237.25,25.72,237.17,25.25z M223.31,60.92l-0.01,3.1l0.02-9.21v1.49L223.31,60.92z
		 M223.33,50.15v-0.61V50.15L223.33,50.15z M223.35,40.25v-0.44l0,0V40.25z"/>
	<polygon class="st10" points="229.61,5.53 228.81,8.58 217.71,8.57 217.04,5.52 	"/>
	
		<linearGradient id="SVGID_28_" gradientUnits="userSpaceOnUse" x1="78.3623" y1="-170.2328" x2="78.3623" y2="-188.0074" gradientTransform="matrix(1 1.300000e-03 -1.300000e-03 1 146.9639 206.4583)">
		<stop  offset="0" style="stop-color:#000000"/>
		<stop  offset="1" style="stop-color:#B3A600"/>
	</linearGradient>
	<path class="st27" d="M214.97,26.7c0,0,2.05-7.29,10.13-8.08c8.08-0.79,11.06,5.71,11.05,8.1s-0.91,9.62-0.91,9.62
		s0.52-9.72-1.42-10.88s-5.05-0.82-10.54-0.69C217.94,24.89,214.97,26.7,214.97,26.7z"/>
	<path class="st12" d="M221.98,25.91l7.58,0.01l-1.23,25.06h-1.64c0,0-0.62-22.47-0.61-23.53
		C226.08,26.38,221.98,25.91,221.98,25.91z"/>
	<polygon class="st12" points="234.23,62.31 233.75,62.4 234.05,55.38 235.14,29.56 235.15,29.56 236.06,28.61 236.2,28.46 
		237.16,27.47 237.17,27.45 236.99,29.58 235.5,47.23 235,53.18 235,53.19 	"/>
	<path class="st13" d="M228.42,8.58l-10-0.01l0.1,0.96l1.14,0.13l0.5,7.06c0,0-6.2,1.97-8.28,7.25c-1.69,4.29,2.54,40.09,2.54,40.09
		h6.13c0,0-1.56-36.44-0.67-39.76c0.89-3.31,2.67-7.59,2.67-7.59l-0.32-5.88L228.42,8.58z"/>
	
		<linearGradient id="SVGID_29_" gradientUnits="userSpaceOnUse" x1="79.1641" y1="-190.1012" x2="79.1641" y2="-197.463" gradientTransform="matrix(1 1.300000e-03 -1.300000e-03 1 146.9639 206.4583)">
		<stop  offset="0" style="stop-color:#000000"/>
		<stop  offset="1" style="stop-color:#B3A600"/>
	</linearGradient>
	<polygon class="st28" points="225.04,10.4 227.76,9.1 226.39,16.46 225,16.34 	"/>
	
		<linearGradient id="SVGID_30_" gradientUnits="userSpaceOnUse" x1="80.2415" y1="-198.368" x2="80.2415" y2="-200.8211" gradientTransform="matrix(1 1.300000e-03 -1.300000e-03 1 146.9639 206.4583)">
		<stop  offset="0" style="stop-color:#000000"/>
		<stop  offset="1" style="stop-color:#B3A600"/>
	</linearGradient>
	<polygon class="st29" points="226.39,5.74 228.81,5.74 228.42,8.2 226.12,8.03 	"/>
	<polygon class="st13" points="218.38,8.19 218.04,5.73 222.47,5.74 222.02,8.19 	"/>
	<polygon class="st14" points="228.42,8.58 227.54,16.73 226.7,16.64 227.67,9.15 227.72,8.84 227.77,8.58 	"/>
	<polygon class="st14" points="229.61,5.53 228.81,8.58 228.42,8.58 228.44,8.41 228.67,6.61 228.74,5.74 228.82,4.97 	"/>
	<path class="st15" d="M219.04,25.26l1.51,38.82h4.35l0.67-39.38C225.56,24.7,220.89,24.16,219.04,25.26z"/>
</g>
<g>
	<g>
		<g>
			<g>
				<defs>
					<polygon id="SVGID_31_" points="1,1 2,1 1,2 					"/>
				</defs>
				<clipPath id="SVGID_32_">
					<use xlink:href="#SVGID_31_"  style="overflow:visible;"/>
				</clipPath>
			</g>
			<g>
				<defs>
					<polygon id="SVGID_33_" points="1,1 2,1 1,2 					"/>
				</defs>
				<defs>
					<polygon id="SVGID_34_" points="-1,-1 -2,-1 -1,-2 					"/>
				</defs>
				<clipPath id="SVGID_35_">
					<use xlink:href="#SVGID_33_"  style="overflow:visible;"/>
				</clipPath>
				<clipPath id="SVGID_36_" class="st30">
					<use xlink:href="#SVGID_34_"  style="overflow:visible;"/>
				</clipPath>
				
					<linearGradient id="SVGID_37_" gradientUnits="userSpaceOnUse" x1="76.995" y1="164.09" x2="76.995" y2="117.31" gradientTransform="matrix(1 0 0 1 0 -100)">
					<stop  offset="0" style="stop-color:#808080"/>
					<stop  offset="1" style="stop-color:#FFFFFF"/>
				</linearGradient>
				<polygon class="st31" points="71.04,17.31 73.09,37.22 48.75,64.09 105.24,64.09 81.96,37.22 83.65,17.33 				"/>
			</g>
		</g>
	</g>
	
		<linearGradient id="SVGID_38_" gradientUnits="userSpaceOnUse" x1="76.995" y1="164.09" x2="76.995" y2="117.31" gradientTransform="matrix(1 0 0 1 0 -100)">
		<stop  offset="0" style="stop-color:#CFFFE8"/>
		<stop  offset="1" style="stop-color:#4AEFB1"/>
	</linearGradient>
	<polygon class="st32" points="71.04,17.31 73.09,37.22 48.75,64.09 105.24,64.09 81.96,37.22 83.65,17.33 	"/>
	<g>
		<g>
			<g>
				<defs>
					<polygon id="SVGID_39_" points="1,1 2,1 1,2 					"/>
				</defs>
				<clipPath id="SVGID_40_">
					<use xlink:href="#SVGID_39_"  style="overflow:visible;"/>
				</clipPath>
			</g>
			<g>
				<defs>
					<polygon id="SVGID_41_" points="1,1 2,1 1,2 					"/>
				</defs>
				<defs>
					<polygon id="SVGID_42_" points="-1,-1 -2,-1 -1,-2 					"/>
				</defs>
				<clipPath id="SVGID_43_">
					<use xlink:href="#SVGID_41_"  style="overflow:visible;"/>
				</clipPath>
				<clipPath id="SVGID_44_" class="st33">
					<use xlink:href="#SVGID_42_"  style="overflow:visible;"/>
				</clipPath>
				
					<linearGradient id="SVGID_45_" gradientUnits="userSpaceOnUse" x1="77.19" y1="164.09" x2="77.19" y2="117.32" gradientTransform="matrix(1 0 0 1 0 -100)">
					<stop  offset="0" style="stop-color:#808080"/>
					<stop  offset="1" style="stop-color:#FFFFFF"/>
				</linearGradient>
				<polygon class="st34" points="73.09,17.32 74.67,37.22 52.29,63.67 102.09,64.09 79.87,37.22 81.13,17.33 				"/>
			</g>
		</g>
	</g>
	
		<linearGradient id="SVGID_46_" gradientUnits="userSpaceOnUse" x1="77.19" y1="164.09" x2="77.19" y2="117.32" gradientTransform="matrix(1 0 0 1 0 -100)">
		<stop  offset="0" style="stop-color:#CFFFE8"/>
		<stop  offset="1" style="stop-color:#4AEFB1"/>
	</linearGradient>
	<polygon class="st35" points="73.09,17.32 74.67,37.22 52.29,63.67 102.09,64.09 79.87,37.22 81.13,17.33 	"/>
	<g>
		<g>
			<g>
				<defs>
					<polygon id="SVGID_47_" points="1,1 2,1 1,2 					"/>
				</defs>
				<clipPath id="SVGID_48_">
					<use xlink:href="#SVGID_47_"  style="overflow:visible;"/>
				</clipPath>
			</g>
			<g>
				<defs>
					<polygon id="SVGID_49_" points="1,1 2,1 1,2 					"/>
				</defs>
				<defs>
					<polygon id="SVGID_50_" points="-1,-1 -2,-1 -1,-2 					"/>
				</defs>
				<clipPath id="SVGID_51_">
					<use xlink:href="#SVGID_49_"  style="overflow:visible;"/>
				</clipPath>
				<clipPath id="SVGID_52_" class="st36">
					<use xlink:href="#SVGID_50_"  style="overflow:visible;"/>
				</clipPath>
				
					<linearGradient id="SVGID_53_" gradientUnits="userSpaceOnUse" x1="77.19" y1="121.11" x2="77.19" y2="115.91" gradientTransform="matrix(1 0 0 1 0 -100)">
					<stop  offset="0" style="stop-color:#808080"/>
					<stop  offset="1" style="stop-color:#FFFFFF"/>
				</linearGradient>
				<polygon class="st37" points="68.03,15.91 69.21,21.11 84.69,21.11 86.35,15.91 				"/>
			</g>
		</g>
	</g>
	
		<linearGradient id="SVGID_54_" gradientUnits="userSpaceOnUse" x1="77.19" y1="121.11" x2="77.19" y2="115.91" gradientTransform="matrix(1 0 0 1 0 -100)">
		<stop  offset="0" style="stop-color:#CFFFE8"/>
		<stop  offset="1" style="stop-color:#4AEFB1"/>
	</linearGradient>
	<polygon class="st38" points="68.03,15.91 69.21,21.11 84.69,21.11 86.35,15.91 	"/>
	
		<linearGradient id="SVGID_55_" gradientUnits="userSpaceOnUse" x1="77.19" y1="164.09" x2="77.19" y2="128.62" gradientTransform="matrix(1 0 0 1 0 -100)">
		<stop  offset="0" style="stop-color:#E90088"/>
		<stop  offset="1" style="stop-color:#DE3129"/>
	</linearGradient>
	<polygon class="st39" points="73.99,28.62 80.41,28.62 79.87,37.22 102.09,64.09 52.29,63.67 74.67,37.22 	"/>
	<polygon class="st25" points="68.87,16.32 85.63,16.32 84.48,20.72 81.23,20.72 81.43,16.97 	"/>
	<polygon class="st25" points="79.63,22.05 78.92,38.13 92.16,63.43 101.14,64 80.58,36.55 82.23,22.05 	"/>
	<polygon class="st25" points="72.12,22.05 73.72,37.18 51.61,63.68 63.73,63.68 75.97,36.18 74.72,22.64 	"/>
	<path class="st4" d="M82.6,51.86c0,1.25-1.01,2.26-2.26,2.26s-2.26-1.01-2.26-2.26s1.01-2.26,2.26-2.26
		C81.59,49.6,82.6,50.61,82.6,51.86z"/>
	<path class="st4" d="M79.38,45.45c0,0.35-0.29,0.64-0.64,0.64c-0.36,0-0.64-0.29-0.64-0.64c0-0.36,0.29-0.64,0.64-0.64
		S79.38,45.09,79.38,45.45z"/>
	<path class="st4" d="M69.95,54.64c0,1.54-1.25,2.79-2.79,2.79s-2.79-1.25-2.79-2.79s1.25-2.79,2.79-2.79
		C68.7,51.86,69.95,53.1,69.95,54.64z"/>
	<circle class="st4" cx="88.45" cy="56.32" r="1.68"/>
</g>
</svg>
